<?xml version="1.0" encoding="UTF-8" standalone="no"?>
<svg
   viewBox="0 0 350.8 100"
   height="100mm"
   width="350.8mm"
   version="1.1"
   id="svg71367"
   sodipodi:docname="logo-name-ml.svg"
   inkscape:version="1.2.1 (9c6d41e410, 2022-07-14)"
   inkscape:export-filename="logo-name-ml.webp"
   inkscape:export-xdpi="144"
   inkscape:export-ydpi="144"
   xmlns:inkscape="http://www.inkscape.org/namespaces/inkscape"
   xmlns:sodipodi="http://sodipodi.sourceforge.net/DTD/sodipodi-0.dtd"
   xmlns="http://www.w3.org/2000/svg"
   xmlns:svg="http://www.w3.org/2000/svg">
  <sodipodi:namedview
     id="namedview71369"
     pagecolor="#505050"
     bordercolor="#eeeeee"
     borderopacity="1"
     inkscape:showpageshadow="0"
     inkscape:pageopacity="0"
     inkscape:pagecheckerboard="0"
     inkscape:deskcolor="#505050"
     inkscape:document-units="mm"
     showgrid="false"
     inkscape:zoom="0.2832"
     inkscape:cx="760.9"
     inkscape:cy="280.7"
     inkscape:window-width="1280"
     inkscape:window-height="778"
     inkscape:window-x="-6"
     inkscape:window-y="-6"
     inkscape:window-maximized="1"
     inkscape:current-layer="g332"
     showguides="true">
    <inkscape:grid
       type="xygrid"
       id="grid9024" />
  </sodipodi:namedview>
  <defs
     id="defs71313">
    <path
       id="c"
       d="M1643 529.9h1582v892H1643z" />
    <path
       id="b"
       d="M76.24-183h1075v667.1h-1075z" />
    <pattern
       patternUnits="userSpaceOnUse"
       width="30.066"
       height="5.181"
       id="a">
      <path
         style="fill:#000;stroke:none"
         d="M7.597.061C5.079-.187 2.656.302-.01 1.788v1.273c2.783-1.63 5.183-2.009 7.482-1.781 2.298.228 4.497 1.081 6.781 1.938 4.567 1.713 9.551 3.458 15.813-.157l-.004-1.273c-6.44 3.709-10.816 1.982-15.371.273-2.278-.854-4.576-1.75-7.094-2z"
         id="path71310" />
    </pattern>
    <pattern
       id="EMFhbasepattern"
       patternUnits="userSpaceOnUse"
       width="6"
       height="6"
       x="0"
       y="0" />
  </defs>
  <g
     style="opacity:1"
     transform="translate(929.6 -2692)"
     id="g71365">
    <flowRoot
       transform="translate(-451.8 -10.28) scale(.2646)"
       style="font-style:normal;font-variant:normal;font-weight:400;font-stretch:normal;font-size:40px;line-height:1.25;font-family:'MV Boli';-inkscape-font-specification:'MV Boli';letter-spacing:0;word-spacing:0;fill:#000;fill-opacity:1;stroke:none"
       xml:space="preserve"
       id="flowRoot71321"><flowRegion
         id="flowRegion71317"><path
           d="M-2008 4330h1117v792h-1117z"
           id="path71315" /></flowRegion><flowPara
         id="flowPara71319" /></flowRoot>
    <text
       xml:space="preserve"
       style="font-style:normal;font-variant:normal;font-weight:400;font-stretch:normal;font-size:10.5833px;line-height:1.25;font-family:Sylfaen;-inkscape-font-specification:Sylfaen;letter-spacing:0;word-spacing:0;fill:#000;fill-opacity:1;stroke:none;stroke-width:.2646"
       x="-1390"
       y="1799"
       id="text71323" />
    <text
       y="2108"
       x="-1199"
       style="font-style:normal;font-variant:normal;font-weight:400;font-stretch:normal;font-size:10.5833px;line-height:1.25;font-family:'Segoe Script';-inkscape-font-specification:'Segoe Script';letter-spacing:0;word-spacing:0;fill:#000;fill-opacity:1;stroke:none;stroke-width:.2646"
       xml:space="preserve"
       id="text71325" />
    <text
       y="2763"
       x="-1026"
       style="font-style:normal;font-variant:normal;font-weight:400;font-stretch:normal;font-size:10.5833px;line-height:1.25;font-family:'Segoe Script';-inkscape-font-specification:'Segoe Script';letter-spacing:0;word-spacing:0;fill:#000;fill-opacity:1;stroke:none;stroke-width:.2646"
       xml:space="preserve"
       id="text71327" />
    <text
       y="2181"
       x="-3086"
       style="font-style:normal;font-variant:normal;font-weight:400;font-stretch:normal;font-size:10.5833px;line-height:1.25;font-family:'Segoe Script';-inkscape-font-specification:'Segoe Script';letter-spacing:0;word-spacing:0;fill:#000;fill-opacity:1;stroke:none;stroke-width:.2646"
       xml:space="preserve"
       id="text71329" />
    <g
       style="stroke-width:1.48461"
       id="g71349"
       transform="translate(0,-2.348)">
      <g
         style="fill:#e6e6e6;fill-opacity:1;stroke:#e6e6e6;stroke-width:1.8574;stroke-miterlimit:4;stroke-dasharray:none;stroke-opacity:1"
         id="g71333">
        <path
           style="opacity:1;fill:#e6e6e6;fill-opacity:1;stroke:#e6e6e6;stroke-width:1.8574;stroke-linecap:butt;stroke-linejoin:miter;stroke-miterlimit:4;stroke-dasharray:none;stroke-opacity:1"
           d="m -281.9,66.46 c 12.4,0 24.8,0 32.9,5.39 8.1,5.38 12.1,16.98 8.3,34.05 -3.9,17 -15.9,40.3 -13.4,45.9 2.6,5.7 15.9,-3.9 33.6,-9 17.6,-5.1 30.9,-1.5 33,4.8 2.1,6.2 -4.7,18.2 -16.8,24.2 -12,6 -30.2,7.8 -44.2,8.7 -13.9,0.9 -23.7,0.9 -33.4,1"
           transform="matrix(0.302,0,0,0.3109,-805.3,2703)"
           id="path71331" />
      </g>
      <g
         style="fill:#fca700;fill-opacity:1;stroke:#fca700;stroke-width:1.85759;stroke-miterlimit:4;stroke-dasharray:none;stroke-opacity:1"
         id="g71337">
        <path
           style="fill:#fca700;fill-opacity:1;stroke:#fca700;stroke-width:1.85759;stroke-linecap:butt;stroke-linejoin:miter;stroke-miterlimit:4;stroke-dasharray:none;stroke-opacity:1"
           d="m -281.9,66.46 c 12.4,0 24.8,0 34.4,4.91 9.6,4.91 17.7,16.76 13.6,34.83 -4.2,18.1 -19.5,42.3 -19.6,48 -0.2,5.6 11.9,-5.3 29.7,-11.2 17.7,-5.9 32.9,-1.9 35.6,4.4 2.8,6.4 -4,18.4 -16.1,24.4 -12,6 -30.2,7.8 -44.2,8.7 -13.9,0.9 -23.7,0.9 -33.4,1"
           transform="matrix(-0.302,0,0,0.3109,-975.4,2703)"
           id="path71335" />
      </g>
      <path
         d="m -1554,1977 c 2,15 -12,34 -29,28 -22,-10 -21,-49 3,-57 16,-3 27,15 26,29 z"
         style="opacity:1;fill:#fca700;fill-opacity:1;stroke:#fca700;stroke-width:10.4445;stroke-linecap:butt;stroke-linejoin:round;stroke-miterlimit:4;stroke-dasharray:none;stroke-dashoffset:0;stroke-opacity:1;paint-order:normal"
         transform="matrix(0.2516,0,0,0.2513,-494.3,2217)"
         id="path71339" />
      <g
         style="fill:#fca700;fill-opacity:1;stroke:#fca700;stroke-width:5.23499;stroke-miterlimit:4;stroke-dasharray:none;stroke-opacity:1"
         id="g71347">
        <g
           style="fill:#fca700;fill-opacity:1;stroke:#fca700;stroke-width:4.63861;stroke-miterlimit:4;stroke-dasharray:none;stroke-opacity:1"
           id="g71343">
          <path
             style="fill:#fca700;fill-opacity:1;stroke:#fca700;stroke-width:4.63861;stroke-linecap:butt;stroke-linejoin:miter;stroke-miterlimit:4;stroke-dasharray:none;stroke-opacity:1"
             d="m -312.2,191.3 c -8.1,-0.8 -17.4,-2.5 -24.7,0.7 -7.3,3.6 -9.4,11.7 -1.2,15.4 7.3,3.9 17.4,5.5 23.6,10.1 1.5,1.1 1.4,4.1 2.2,1 3,-3.7 9.8,-5.2 15.2,-7.3 6.8,-2.2 15,-5.4 14.5,-10.9 0.1,-4.7 -5.1,-10 -13.4,-10.2 -5.7,-0.2 -11.4,0.5 -17,1.2"
             transform="matrix(0.4466,0,0,0.7178,-750.2,2628)"
             id="path71341" />
        </g>
        <path
           style="fill:#fca700;fill-opacity:1;stroke:#fca700;stroke-width:5.23499;stroke-linecap:butt;stroke-linejoin:miter;stroke-miterlimit:4;stroke-dasharray:none;stroke-opacity:1"
           d="m -267.1,187.1 c -2.8,1.9 -7.6,8.7 -8.2,11.7 -0.6,3 -0.3,7.7 1.2,10.5 1.5,2.7 6.8,5.1 11.6,4.5 4.7,-0.7 11,-3.6 15.9,-4 5,-0.4 9.5,2.1 10.3,-1.6 0.7,-3.7 -1.8,-13.6 -5.2,-18.7 -3.4,-5.1 -10.4,-6.4 -14.7,-6 -4.3,0.3 -8.1,1.7 -10.9,3.6 z m -91.7,0 c 2.7,1.9 7.6,8.7 8.2,11.7 0.6,3 0.3,7.7 -1,10.3 -1.2,2.5 -7.4,4.8 -11.6,4 -4.1,-0.9 -10,-3.5 -14.9,-3.8 -4.9,-0.4 -12.6,2.9 -12.4,-1.2 0.2,-4.2 2.7,-13.8 6.1,-18.8 3.4,-4.9 10.4,-6.2 14.7,-5.8 4.3,0.3 8.1,1.7 10.9,3.6 z"
           transform="matrix(0.4466,0,0,0.5634,-750.2,2658)"
           id="path71345" />
      </g>
    </g>
    <g
       style="font-style:normal;font-weight:400;font-size:10.5833px;line-height:1.25;font-family:sans-serif;letter-spacing:0;word-spacing:0;fill:#fca700;fill-opacity:1;stroke:none;stroke-width:0.3;stroke-linecap:round;stroke-linejoin:round;stroke-dasharray:none;stroke-opacity:1"
       id="g71361"
       transform="translate(9.314,-4.872)">
      <g
         id="g332">
        <g
           style="font-style:normal;font-weight:400;font-size:50.8px;line-height:1.25;font-family:sans-serif;letter-spacing:0;word-spacing:0;opacity:1;fill:#e6e6e6;fill-opacity:1;stroke:none;stroke-width:0.265;stroke-linecap:round;stroke-linejoin:round;stroke-dasharray:none;stroke-opacity:1"
           id="g71355"
           transform="translate(0.0896,0.7678)">
          <text
             xml:space="preserve"
             style="font-style:normal;font-variant:normal;font-weight:500;font-stretch:normal;font-size:21.1667px;line-height:1.25;font-family:Poppins;-inkscape-font-specification:'Poppins Medium';letter-spacing:0px;word-spacing:0;fill:#e6e6e6;fill-opacity:1;stroke:none;stroke-width:0.265;stroke-linecap:round;stroke-linejoin:round;stroke-dasharray:none;stroke-opacity:1"
             x="-841.4"
             y="2780"
             aria-label="with Nanda"
             id="text71353"><tspan
               style="font-style:normal;font-variant:normal;font-weight:600;font-stretch:normal;font-size:21.1667px;font-family:Poppins;-inkscape-font-specification:'Poppins Semi-Bold';fill:#e6e6e6;fill-opacity:1;stroke:none;stroke-width:0.265;stroke-linecap:round;stroke-linejoin:round;stroke-dasharray:none;stroke-opacity:1"
               x="-841.4"
               y="2780"
               id="tspan71351">ക്ലാസിക്കൽ ഹഠയോഗ</tspan></text>
        </g>
        <text
           xml:space="preserve"
           style="font-style:normal;font-variant:normal;font-weight:bold;font-stretch:normal;font-size:47.625px;line-height:1.25;font-family:'Noto Serif Malayalam';-inkscape-font-specification:'Noto Serif Malayalam Bold';letter-spacing:0;word-spacing:0;fill:#fca700;stroke:none;stroke-width:0.3;stroke-linecap:round;stroke-linejoin:round;stroke-dasharray:none;stroke-opacity:1"
           x="-779.9"
           y="2773"
           transform="translate(-64.41,-24.26)"
           aria-label="HATHA YOGA"
           id="text71359"><tspan
             style="font-style:normal;font-variant:normal;font-weight:bold;font-stretch:normal;font-size:47.625px;font-family:'Noto Serif Malayalam';-inkscape-font-specification:'Noto Serif Malayalam Bold';fill:#fca700;stroke:none;stroke-width:0.3;stroke-linecap:round;stroke-linejoin:round;stroke-dasharray:none;stroke-opacity:1"
             x="-779.9"
             y="2773"
             id="tspan71357">ശിവോഹം</tspan></text>
      </g>
      <text
         xml:space="preserve"
         style="font-style:normal;font-variant:normal;font-weight:400;font-size:3.88607px;line-height:125%;font-family:'Noto Sans Malayalam';text-align:start;letter-spacing:0px;word-spacing:0px;text-anchor:start;fill:#000000;fill-opacity:1;stroke:none;stroke-width:0.079375"
         x="-552.9"
         y="2741"
         id="text1679"><tspan
           sodipodi:role="line"
           x="0"
           y="0"
           id="tspan1677"
           style="stroke-width:0.079375"><tspan
             style="font-style:normal;font-variant:normal;font-weight:400;font-size:3.88607px;font-family:'Noto Sans Malayalam';fill:#000000;stroke-width:0.079375"
             id="tspan1675" /></tspan></text>
      <text
         xml:space="preserve"
         style="font-style:normal;font-variant:normal;font-weight:400;font-size:3.88607px;line-height:125%;font-family:Calibri;text-align:start;letter-spacing:0px;word-spacing:0px;text-anchor:start;fill:#000000;fill-opacity:1;stroke:none;stroke-width:0.079375"
         x="-533.6"
         y="2741"
         id="text1685"><tspan
           sodipodi:role="line"
           x="-533.6"
           y="2741"
           id="tspan1683"
           style="stroke-width:0.079375"><tspan
             dx="0"
             dy="0"
             style="font-style:normal;font-variant:normal;font-weight:400;font-size:3.88607px;font-family:Calibri;fill:#000000;stroke-width:0.079375"
             id="tspan1681"> </tspan></tspan></text>
    </g>
    <text
       y="2959"
       x="-598.6"
       style="font-style:normal;font-variant:normal;font-weight:400;font-stretch:normal;font-size:22.5778px;line-height:1.25;font-family:sans-serif;-inkscape-font-specification:sans-serif;letter-spacing:0;word-spacing:0;fill:#000;fill-opacity:1;stroke:none;stroke-width:.2646"
       xml:space="preserve"
       id="text71363" />
  </g>
</svg>
