<?xml version="1.0" encoding="UTF-8" standalone="no"?>
<!-- Created with Inkscape (http://www.inkscape.org/) -->

<svg
   width="205.6mm"
   height="174.5mm"
   viewBox="0 0 205.6 174.5"
   version="1.1"
   id="svg5"
   xml:space="preserve"
   inkscape:version="1.2.1 (9c6d41e410, 2022-07-14)"
   sodipodi:docname="Adiyogi-min.svg"
   inkscape:export-filename="Adiyogi.png"
   inkscape:export-xdpi="200"
   inkscape:export-ydpi="200"
   xmlns:inkscape="http://www.inkscape.org/namespaces/inkscape"
   xmlns:sodipodi="http://sodipodi.sourceforge.net/DTD/sodipodi-0.dtd"
   xmlns="http://www.w3.org/2000/svg"
   xmlns:svg="http://www.w3.org/2000/svg"><sodipodi:namedview
     id="namedview7"
     pagecolor="#bdbdbd"
     bordercolor="#eeeeee"
     borderopacity="0"
     inkscape:showpageshadow="0"
     inkscape:pageopacity="0"
     inkscape:pagecheckerboard="0"
     inkscape:deskcolor="#505050"
     inkscape:document-units="mm"
     showgrid="false"
     inkscape:zoom="0.6042"
     inkscape:cx="439.4"
     inkscape:cy="285.5"
     inkscape:window-width="1620"
     inkscape:window-height="1058"
     inkscape:window-x="-6"
     inkscape:window-y="-6"
     inkscape:window-maximized="1"
     inkscape:current-layer="layer1"><inkscape:grid
       type="xygrid"
       id="grid750"
       originx="-47.31"
       originy="-4.431" /></sodipodi:namedview><defs
     id="defs2" /><g
     inkscape:label="Layer 1"
     inkscape:groupmode="layer"
     id="layer1"
     transform="translate(225.8,-864)"><path
       style="fill:#8a8a8a;fill-opacity:1;stroke-width:1"
       d="m -225.6,1037 h -0.1 c 0.1,0 0,-1 -0.1,-1 h 0.1 0.3 c -0.1,-1 0,-1 0.3,-1 0.2,0 0.4,0 0.4,-1 h 0.5 c 0.3,-1 0.5,-1 0.4,-1 h 0.3 c 0.4,0 1,-2 0.9,-2 h 0.4 c 0.5,0 0.7,0 0.4,-1 h 0.2 c 0.4,0 0.5,0 0.4,-1 -0.1,0 0.1,-1 1.8,-2 h 0.8 c 0.1,0 0.2,0 0.1,-1 h 0.2 0.5 c 0,0 1.2,-1 1.7,-1 h 0.7 c 0.3,-1 0.5,-1 0.5,0 0,0 0.5,0 2,-1 h 1 c 0.3,0 1,0 1.7,-1 h 1.7 -0.1 c -0.3,-1 -0.3,-1 0.4,-1 h 0.7 c 0.2,0 6.6,-1 9.9,-1 0.3,0 0.6,-1 0.7,-1 0.2,0 1,0 1,1 h -0.2 c -0.2,0 -0.3,0 -0.3,1 h -0.4 c -0.2,0 -0.6,1 -0.9,1 -0.4,1 -0.9,1 -1.3,2 h -0.6 c 0,0 -0.2,1 -0.4,1 -0.5,0 -0.8,1 -1.4,2 -0.2,1 -0.6,1 -0.9,1 -0.9,1 -1.4,1 -0.9,2 h -0.1 c -0.2,0 -0.6,0 -0.8,1 -0.2,0 -0.8,1 -1.3,1 -0.6,1 -1.1,1 -1.1,2 h -0.2 c -0.2,-1 -1.3,1 -1.3,1 0,1 -1.7,3 -1.9,2 -0.1,0 2.8,-1 2.7,-1 20.8,-7 15.4,0 16.4,-1 l 1.2,-2 c 0.5,-1 4.8,4 5,4 0.2,0 0.5,-1 0.9,-1 0.5,1 0.6,0 0.3,0 -0.4,0 1.7,-1 2.3,-1 0.4,0 1.5,-1 1.6,-1 0,0 0.7,-1 1.5,-1 h 1.9 c 0.6,-1 1.6,-2 2.5,-3 0.4,-1 0.8,-1 0.9,-2 h 1.1 0.9 c 0,-1 0.1,-1 0.3,-1 0.1,0 0.2,0 0.1,1 h 0.2 c 0.5,-1 0.6,-2 0.2,-2 -0.2,0 -0.2,0 -0.2,-1 0.1,0 0,0 -0.3,-1 -0.6,-2 -0.4,-6 0.5,-9 0.4,-1 0.8,-3 0.8,-3 l 0.2,-1 h -2.3 c -1.3,1 -2.4,1 -2.5,0 -0.1,0 -0.8,0 -1.6,1 h -5.7 -1.5 c -0.7,-1 -0.7,-1 -0.2,0 0.9,0 0.5,1 -0.6,1 h -1.2 c -0.1,0 -0.6,1 -1,1 -0.4,0 -1.2,0 -1.7,1 -0.6,0 -1.2,1 -1.4,1 h 0.1 -0.3 c -0.7,0 -1,0 -0.4,1 h -0.4 c -0.5,-1 -0.8,0 -1.2,0 h -0.9 -0.1 c 0.2,1 0.1,1 -0.2,1 h -0.2 -0.7 -0.3 c 0.5,1 -0.8,1 -1.7,1 h -0.5 c 0.1,0 -0.3,1 -0.6,0 h -1.5 -1.4 l 0.2,-2 c 0.2,-3 0.4,-4 1,-4 0.6,1 1.6,0 1.6,-1 h 0.2 0.1 c -0.1,-1 -0.2,-1 -0.5,0 -0.4,1 -0.5,0 0,0 1,-3 2.3,-2 2.3,0 0,1 0.5,1 1.3,0 0.6,0 0.7,-1 0.2,-1 h 0.4 c 1.6,-1 1,-3 -0.6,-3 h -1.2 c -0.2,0 2.9,-1 7.7,-1 h 5 c 1,-1 0.7,0 -0.5,1 -0.6,0 -1.1,1 -1,1 h -0.2 c -0.3,-1 -0.3,-1 0,-1 0.3,0 0.3,0 0,0 h -0.4 c 0,1 -1.5,2 -3.1,2 -1.5,0 -2.1,1 -1.2,1 h -0.2 c -0.5,0 -0.4,0 0.2,1 h 1 0.3 c -0.4,-1 -0.3,-1 0.3,-1 h 0.7 1 0.7 0.2 c 0.2,0 0.6,0 0.9,-1 0.4,-1 2.3,-2 4.6,-3 1.5,-1 1.7,-1 2.2,-1 0.7,1 2.5,0 3.1,-1 0.2,0 0.5,-1 0.6,-1 h 0.2 c 0,0 0.1,-1 0.2,-1 0.2,0 0.4,0 0.5,-1 0.1,0 0.3,-1 0.4,-1 0.4,0 0.3,-1 -0.1,-1 -0.2,0 -0.2,0 0,0 0.3,-1.3 0.2,-2.3 -0.1,-3.3 -0.1,0 -0.2,0 -0.5,1 -0.5,0 -0.5,-1 0,-2 0.2,0 0.4,-1 0.4,-1 0,-1 1.1,-5 1.4,-5 0.1,0 0.1,0 0,0 0,0 0.1,-1 0.3,-2 0.7,-2 1,-7 0.4,-8 -0.1,-1 -0.2,-1 -0.2,-2 0,-1 -0.7,-2 -1.4,-2 -0.8,0 -2.5,1 -2.5,2 0,0 -0.2,0 -0.6,1 -0.3,0 -0.6,0 -0.6,1 h -0.1 c 0,1 -0.4,1 -0.8,1 h -0.3 c 0.3,0 0.4,0 0.2,1 -0.2,0 -0.2,2 -0.2,3 l 0.1,2 -0.7,-2 c -0.4,-1 -1.2,-3 -1.7,-5 -2.1,-6 -3.1,-13 -2,-14 0.7,-1 2.1,-1 2.1,-1 0,1 0.5,1 1.5,1 1.5,-1 2,-1 0.6,-1 h -1.4 l -0.8,-1 h 1 c 3.2,-1 5.5,-1 13.1,0 h 2.1 c -0.1,-1 0.7,-2 0.9,-2 0.2,0 1.1,-2 1.4,-2 l 0.2,-1 -0.7,1 h -0.9 c -0.3,0 -0.3,1 -0.2,1 h -0.2 c -0.3,0 -0.5,1 -0.5,1 h -0.2 -0.4 0.2 c 0.3,1 -2.1,1 -3.3,1 -1,0 -1.4,0 -0.8,-1 0.3,0 0.3,0 0,0 -0.2,0 0.1,0 0.6,-1 0.6,0 1,-1 1,-1 0,0 1,-1 1.3,-1 h 0.1 c 0,0 0.3,-1 0.6,-1 0.4,0 0.7,-1 0.7,0 0,0 2.1,-2 2.8,-2 1,-2 2.2,-4 2.2,-6 0.1,-1 0.4,-1 0.5,-1 0,1 0.6,3 1.5,6 0.7,2 1.9,3 2,1 h 2.3 c 0.8,0 2.2,0 3,-1 h 3.1 c 1.7,0 3,-1 3.3,-2 h 0.4 c 0.2,0 0.3,-1 0.3,-1 0.1,0 0.3,-1 0.7,0 0.6,0 0.8,-1 0.4,-1 -0.5,0 -0.4,-1 0.1,-1 h 0.3 -0.7 -0.1 c 0.2,0 0.4,-1 0.4,-1 h 0.3 0.3 c -0.1,-1 -0.3,-1 -0.5,-1 -0.3,0 -0.4,0 -0.3,-1 0.1,-1 0.1,-1 -0.7,-1 h -0.7 v -2 0 h -2.7 -2.6 l -0.7,-1 c -0.5,0 -0.8,-1 -0.7,-2 h -1.4 c -1.3,1 -2.1,1 -2.3,0 -0.3,0 0.1,-2 0.6,-2 0.2,0 0.6,-1 0.7,-1 0.7,-2 3.4,-6 3.7,-5 0.2,1 2.2,0 3.6,0 0.8,-1 2.1,-1 3,-1 h 1.1 c -0.3,-1 -0.5,-1 -0.6,-1.8 0,-0.3 -0.7,-0.6 -1.6,-0.8 -2.4,-0.7 -2.5,-0.7 -2.3,-1.3 0.1,-0.6 -0.7,-0.8 -1.6,-0.4 -0.5,0.2 -0.6,1 -0.1,1.2 0.2,0.1 0.2,0.3 -0.2,0.6 -0.4,0.5 -0.5,0.5 -1.2,-0.3 -2.1,-2 -2,-5.9 0.2,-5.5 0.9,0.2 1.8,-0.6 2,-2 0.1,-0.5 0.4,-1.6 0.8,-2.5 0.4,-0.8 0.7,-1.5 0.7,-1.6 v -0.2 c 0,0 0.1,-0.3 0.1,-0.5 0.2,-0.8 2,-6.2 2.3,-6.7 0.1,-0.3 0.3,-1.1 0.3,-1.8 0.1,-0.7 0.2,-1.4 0.4,-1.6 0.2,-0.2 0.3,-0.6 0.3,-0.8 0,-0.4 0.2,-1.3 0.5,-2.1 0.5,-1.6 0.6,-5.5 0.2,-5.4 -0.2,0 -0.3,-0.1 -0.2,-0.2 0,-0.2 -0.3,-0.5 -0.6,-0.7 -0.8,-0.4 -0.9,-0.8 -0.3,-1.3 0.3,-0.2 0.7,-0.8 0.9,-1.3 0.6,-1.3 0.7,-1.5 0.3,-1.1 -0.1,0.2 -0.3,0.3 -0.3,0.1 0,-0.1 0.3,-0.5 0.6,-0.9 0.2,-0.3 0.4,-0.8 0.3,-1 -0.2,-0.6 0.6,-2.2 1.6,-3.2 0.2,-0.2 0.5,-0.5 0.5,-0.7 0,-0.1 0.2,-0.4 0.5,-0.6 0.3,-0.2 0.5,-0.5 0.5,-0.7 0,-0.4 0.6,-1.2 1.9,-2.6 1.5,-1.5 2.2,-3.1 1.4,-3.1 -0.2,0 -0.3,-0.2 -0.2,-0.4 0.1,-0.2 0,-0.4 -0.1,-0.5 -0.2,-0.1 -0.3,-0.7 -0.3,-1.4 0,-0.7 0.1,-1.1 0.1,-0.9 0.1,0.1 0.3,0.3 0.6,0.3 0.2,0 0.3,-0.2 0.3,-0.3 0,-0.2 0.1,-0.3 0.2,-0.1 0.1,0.1 0.5,0.3 0.9,0.4 0.3,0 0.8,0.2 0.9,0.3 1.1,0.9 2.7,-1.1 2.4,-2.9 -0.1,-0.7 0,-1.6 0.1,-2 0.2,-0.4 0.2,-0.7 0,-0.7 -0.1,0 -0.2,0.2 -0.2,0.4 0,0.4 -0.1,0.4 -0.4,0.2 -0.3,-0.3 -0.4,-0.2 -0.7,0.3 -0.2,0.5 -0.8,0.8 -1.8,1.1 -1.7,0.5 -2.5,1.1 -2.1,1.6 0.1,0.2 0.1,0.4 -0.1,0.5 -0.1,0.1 -0.2,0 -0.2,-0.1 0,-0.2 -0.2,-0.5 -0.4,-0.7 -1.1,-1.1 -0.1,-4.4 1.6,-5.4 0.8,-0.6 8.4,-2.2 12,-2.6 1.3,-0.1 3,0.5 3.7,1.4 0.2,0.2 0.6,0.4 0.9,0.4 0.3,0 1.3,0.2 2.2,0.5 1.2,0.5 2.1,0.6 4.3,0.5 3.3,-0.1 3.6,0 7.75,3.3 0.2,0.2 1.1,0.6 2.1,1 2.7,1 3.6,1.7 3.8,2.8 0.9,4.8 3.2,8.1 8,11.1 5.3,3.3 15.3,1.8 20.8,-3.1 2.1,-2 2,-1.7 -0.3,0.6 -5,4.9 -11.1,6.5 -16.8,4.4 -1,-0.4 -1.7,-0.6 -1.7,-0.5 0,0 1.1,1.2 2.5,2.6 2.6,2.6 6,8.5 6.6,11.4 0.1,0.5 0.7,2.7 1.5,4.7 0.7,2.2 1.3,4.3 1.3,4.9 0,0.7 0.6,2.1 2.1,5.1 1.1,2.3 2.1,4.5 2.1,4.8 0,0.3 0.3,1.6 0.8,2.9 0.4,1.3 0.9,3.1 1.1,3.9 0.2,1 0.6,2 0.9,3 0.8,3 1.1,9 0.6,11 -0.1,1 0,1 0.3,3 1,4 1.1,5 0.5,8 -0.4,2 -0.5,3 -0.5,8 v 15 c -0.2,3 0.3,4 1.7,5 2.8,1 3.7,2 4.4,5 0.4,1 1.2,2 6.4,7 4.2,3 5.7,6.3 5.8,9.3 0,1 0.1,2 0.9,2 0.8,1 5.7,5 5.7,6 0,0 0.3,0 0.8,1 1.8,2 1.9,4 0,4 -1.8,-1 -7.9,-2 -9.7,-1 h -1.6 1.1 c 0.6,0 1.9,1 2.9,1 h 3.5 2.2 c 0.2,0 0.9,0 1.5,1 h 2.1 1.3 0.5 c 0.9,0 10.4,4 13.4,6 0.2,0 0.8,1 1,1 -68.5,-3 -137.25,17 -205.45,10 z m 83.9,-2 c -0.4,0 -0.4,0 0,0 0.2,-1 0.3,-1 0.3,-2 h 0.3 c 0.3,1 0.6,0 0.4,0 -0.1,-1 0,-1 0.2,-1 h 0.6 c 0,0 0.2,-1 0.4,0 0.1,0 0.4,0 0.5,-1 h 0.7 c 0.3,1 0.4,1 0.6,0 0.3,0 0,-1 -0.6,-1 -0.2,1 -0.4,0 -0.5,0 h 0.1 c 0.3,0 2.6,-1 2.6,-1 h -0.8 -0.8 0.4 c 0.8,0 0.9,0 0.3,-1 -0.4,0 -0.3,0 0.6,-1 0.5,0 0.8,-1 0.6,-1 -0.5,0 -0.2,-1 0.4,-1 h 0.2 c -0.5,-1 -0.4,-1 0.2,-1 h 0.5 c 0,-1 0.1,-1 0.3,-1 h 0.2 -0.2 c -0.7,0 -1.2,0 -0.5,-1 h 0.6 c -0.1,-1 0.1,-1 0.8,-1 0.6,-1 0.7,-1 0.3,-1 h 0.3 c 0.5,0 1,-1 1.1,-1 0.2,0 0.6,-1 1.1,-2 0.4,0 0.8,0 0.8,-1 0,0 1.7,-1 2.1,-1 0.1,0 0.3,0 0.3,-1 h 0.1 c 0.1,0 0.3,1 0.4,1 0.2,0 0.2,-1 0.1,-1 h 0.4 c 0.6,0 0.7,-1 0.2,-1 h 0.3 0.5 c -0.2,-1 0.7,-2 1.2,-2 0.5,1 0.9,-2 1.1,-7 l 0.3,-3 c 0.4,-2.3 0.5,-3.3 0.7,-2.3 0.1,0 0.2,0 0.2,-1 h -0.2 c -0.3,0 -0.1,-2 0.2,-2 0.1,0 0.1,-1 0.1,-2 -0.1,0 0,-1 0.2,-1 0.3,0 0.3,0 0,-1 -0.2,0 -0.2,0 0,0 0.1,0 0.1,0 -0.2,-1 -0.2,0 -0.3,-1 -0.2,-1 0.1,0 -0.1,-1 -0.4,-1 -0.3,0 -0.5,-1 -0.5,-1 h -0.4 c -0.3,0 -0.8,0 -1.1,-1 h -0.8 -0.6 -0.3 c 0,1 -1.9,1 -2.4,0 -0.3,0 -0.8,-1 -1.2,-1 h -0.6 -0.6 c -1,0 -2.4,-1 -2.2,-2 0.1,0 0.1,-1 0,-1 -0.2,0 -0.2,-1 -0.2,-1 0,-1 -0.1,-1 -0.4,-1 -0.3,0 -0.4,0 -0.1,-1 1.4,-2 1.9,-7 0.8,-8 -0.7,-1 -0.7,-1 -0.1,-1 0.4,0 0.4,0 -0.1,-1 -0.9,0 -3.8,1 -3.2,1 0.3,0 0.3,0 0,0 -0.3,1 -0.3,1 -0.1,1 h 0.3 c 0,2 -2.4,1 -2.6,0 -0.1,-1 -1.2,-2 -1.9,-2 -0.3,0 -0.5,-1 -0.5,-1 0,0 -0.5,0 -1.1,-1 -0.6,0 -1.6,-1 -2.2,-2 -1.1,-2 -1.6,-2 -2.3,-2 -1,0 -2.9,4 -2.4,5 0.2,0 0.2,0 0.3,1 0.1,2 1.6,3 1.6,1 0,0 0.3,0 0.7,-1 l 0.6,-1 0.1,2 c 0.2,1 0.2,2 0,2 0,1 0,1 0.2,1 0.4,0 0.3,3 -0.1,5 -0.2,0 -0.4,2 -0.4,3 -0.2,4 -2.2,11 -5.2,17 -1,2.3 -2,4.3 -2.1,4.3 -0.1,1 -0.3,1 -0.4,1 h -0.3 c 0,0 -0.4,1 -1,2 -0.6,0 -1.1,1 -1.1,1 0,0 -0.2,1 -0.5,1 -0.3,0 -0.5,0 -0.5,1 h -0.4 c -0.3,0 -0.4,0 -0.2,1 0.4,0 0.4,1 -0.1,1 h -0.4 c -0.1,1 -0.3,1 -0.6,1 h -0.5 -0.3 c -0.2,0 -0.5,0 -0.8,1 h -0.8 c -0.3,-1 -0.8,-1 -2.3,0 h -2.6 c -0.4,0 -0.5,0 -0.4,1 0,0 -0.2,0 -0.5,1 -0.3,0 -0.4,0 -0.3,1 h -0.1 c -0.9,0 -1.5,6 -0.7,7 0.2,1 0.4,1 0.4,1 0,1 0.9,2 1.4,2 0.1,0 0.1,-1 -0.2,-1 h -0.2 0.4 1.7 c 0.2,-1 0.6,-1 0.8,-1 h 0.5 c 0.1,-1 0.2,-1 0.4,-1 h 0.7 c 0.3,0 0.9,0 1.3,-1 h -0.3 -0.9 c 0.1,0 1.1,-1 2.3,-1 h 1 c 0.1,0 0.2,-1 0.4,-1 h 0.2 c 0,0 0.2,-1 0.5,-1 0.6,0 2.1,-1 2.1,-2 0,0 0.3,0 0.7,-1 0.4,0 0.7,-1 0.7,-1 0,0 2.9,-3 5,-5 1.6,-1 2.2,-2 5.3,-2 h 2 1 c 0.7,-1 1.5,-2 2,-5 0.2,-1 0.5,-2 0.6,-2 h 0.1 c 0,-1.3 0.2,-1.3 0.5,-2.3 0.4,-1 0.9,-2 1.3,-3 0.5,-1 1.6,-2 2.8,-2 h 0.5 c 0,0 1.9,-2 2.2,-2 0.4,0 0.2,1 -0.3,1 -0.4,0 -0.4,0 -0.5,3 0,2 -0.1,4 -0.2,4 -0.2,0 -0.3,0 -0.2,1.3 0.1,0 0,1 -0.3,1 -0.2,0 -0.4,1 -0.3,1 0.3,0 0.4,5 0.2,5 -0.2,1 -0.2,1 0,1 0.2,0 0.2,0 -0.1,1 -0.2,0 -0.2,0 0,0 h 0.3 c 0,1 0.2,1 0.4,2 0.3,1 0.3,1 -0.2,1 -1.1,2 -4.2,4 -4.4,4 -0.1,0 -0.4,1 -0.8,1 -0.3,0 -0.7,1 -1,1 -0.7,1 -1.1,2 -0.9,2 h -0.6 c -0.4,0 -0.7,1 -0.9,1 -0.1,0 -0.3,0 -0.5,1 -0.2,0 -0.5,0 -0.8,1 -0.4,1 -1.3,2 -1.7,1 -0.1,0 -0.2,1 -0.3,1 -0.1,1 -0.3,2 -0.6,2 -0.2,0 -0.6,1 -0.7,2 -0.2,0 -0.5,1 -0.7,1 h -0.2 c 0.1,0 -0.1,1 -0.5,1 -0.4,1 -0.6,2 -0.6,2 -1.8,0 2.2,1 5.7,1 z m 68.35,-27 c -0.6,-1 -1.3,-1 -1.4,-1 -0.2,0 -0.7,-1 -1,-1 -0.3,-1 -0.8,-2 -1.2,-2 -0.3,0 -0.5,0 -0.5,-1 h -0.8 c -0.5,0 -0.9,-1 -0.9,-1 0,0 -0.9,-1 -2.2,-1 h -1.3 c -0.3,-1.3 -0.5,-1.3 -0.6,0 h 0.3 c 0.2,0 0.3,1 0.3,1 -0.3,0 0.1,1 1.1,1 1.1,1 1.8,1 1.8,2 h 0.2 c 0.2,0 0.5,0 0.8,1 0.3,0 1,1 1.6,1 0.6,0 1.1,1 1.2,1 0.2,0 2.1,1 3,1 h 0.8 z m -9.8,-10.3 c 1.1,0 1.1,-7 0,-8 -0.6,0 -2,0 -1.5,1 0.2,0 0.2,0 0,0 h -0.2 c 0.2,1 0.1,1 -0.3,1 -0.4,0 -0.5,0 -0.4,1 0.2,1 -0.2,1 -0.5,1 -0.1,-1 -0.2,-1 -0.2,0 0,0 0.3,0 0.6,1 0.7,1 0.9,1 0.3,1 -0.2,0 -0.2,0 0.1,1 0.5,1 0.7,2 2.1,1 z m -82.85,-5 c -0.3,-1 -0.3,-1 0.1,-1 h 0.6 c 0.1,0 0.3,-1 0.4,-1 h 0.3 c 0,0 0.1,-1 0.4,-1 0.3,0 1.8,-2 1.8,-2 h 0.2 c 0.3,0 1,-2 1,-2 0,-1 0.3,-1 0.7,-1 l 0.7,-1 h -1.1 c -0.7,0 -1.1,0 -1.1,1 h -0.1 c -0.4,-1 0.2,-1 0.8,-1 0.4,0 0.6,-1 0.5,-1 h -0.7 -0.7 c -0.3,-1 -2.4,3 -2.6,5 0,0 -0.2,0 -0.5,1 -0.4,0 -0.5,1 -0.4,1 0,0 -0.1,1 -0.2,1 h -0.4 c 0,1 -0.2,1 -0.3,1 -0.1,0 0,1 0.3,1 z m 101.15,-31 c -0.1,-2 -0.5,-4 -0.8,-5 -0.4,-1 -0.5,-3 -0.5,-5 0.1,-11 0.1,-11 -0.8,-14 -0.9,-4 -1.6,-5 -2.9,-6.4 l -0.8,-0.8 0.3,0.7 c 0.2,0.4 0.4,0.5 0.6,0.5 0.1,0 0,0 -0.1,1 h -0.1 c 0,0 -0.1,1 -0.3,1 h -0.3 c 0,-1 -0.1,-1 -0.3,-1 h -0.2 c 0.7,2 2.1,6 2.2,6 0.3,0 0.9,-2 0.6,-2 -0.5,0 -1,-1 -0.6,-1 0.3,0 2,3 1.8,3 -0.1,0 0,1 0.2,1 0.3,1 0.3,1 0.1,1 -0.1,0 -0.2,0 -0.2,1 h -0.5 c -0.3,-1 -0.6,-1 -0.6,-2 h -0.3 c -0.2,1 -0.1,1 0.4,2 1.2,2 1.2,3 1.2,8 -0.1,4 0,5 0.4,6 0.2,1 0.5,2 0.7,4 0.7,5 1.2,6 0.8,2 z m -25.3,-7 c 0.4,0 0.7,0 0.7,-1 h -0.4 c -0.3,0 -0.3,0 0.3,-1 1.4,-2 0.8,-6 -1,-6 -0.8,-1 -0.8,-1 -0.1,1 1,2 0.6,4 -1.1,5 h -1.4 -0.4 c -0.4,0 -0.9,-1 -1,-2 -0.1,-1 -0.4,-1 -0.6,0 -0.1,0 0.1,3 0.4,3 0.7,0 1.5,1 1.8,1 h 1.2 z m -53.45,-14 c 1.7,-1 3.2,-1 3.2,-1 0.1,0 0.3,-1 0.5,-1 0.6,0 0.4,0 -0.8,-1 -1.1,-1 -5.6,-1 -6.5,1 -1.5,2 -0.8,3 3.6,2 z m 65.15,-27.3 c -0.1,-0.4 0,-0.5 0.6,-0.2 0.8,0.3 0.7,0.3 0.9,-0.8 0.1,-0.5 0.1,-0.8 -0.1,-0.7 -0.1,0.1 -0.2,0 -0.1,-0.2 0.1,-0.2 0,-0.6 -0.2,-0.8 -0.3,-0.2 -0.4,-0.7 -0.4,-1 0,-0.5 0.1,-0.5 0.9,0.3 0.5,0.5 0.9,0.8 1,0.7 0.3,-0.3 -5.7,-5.8 -6.1,-5.7 -0.2,0.1 -0.3,0.1 -0.2,-0.1 0.1,-0.2 0,-0.2 -0.3,-0.2 -0.3,0.1 -0.9,0 -1.3,-0.2 -0.7,-0.4 -0.8,-0.4 -0.5,0 0.2,0.2 0.6,0.5 0.9,0.6 0.2,0 0.7,0.5 0.9,1.1 0.3,0.5 0.7,1.2 0.8,1.4 0.2,0.2 0.4,0.8 0.5,1.4 0.1,0.5 0.6,1.6 1.1,2.5 0.6,0.8 1.1,1.7 1.2,2 0.3,0.6 0.6,0.6 0.4,-0.1 z m -55.85,-15.8 c 1.4,-1 1.9,-2.7 2.1,-7.1 0.2,-5.2 -0.5,-5.2 -3.2,0.3 -0.6,1.1 -1.3,2.3 -1.6,2.6 -0.3,0.4 -0.6,0.7 -0.5,0.8 0.2,0.2 -0.5,1.7 -0.8,1.5 -0.2,-0.1 -0.2,0 -0.1,0.3 0.1,0.3 0.2,0.8 0.2,1.3 0,1.1 2.4,1.3 3.9,0.3 z m 13.2,-16 c -0.2,-0.6 0.7,-1.8 1.3,-1.8 1.2,-0.1 1.7,-1.8 0.6,-2.5 -0.3,-0.2 -0.4,-0.4 -0.3,-0.5 0.1,-0.1 0,-0.5 -0.3,-0.8 -0.5,-0.9 -0.2,-2.2 0.9,-3.4 0.4,-0.4 0.5,-0.7 0.4,-0.7 -1.1,0 -2.6,2.9 -3.3,6.1 -0.2,1.4 -0.5,2.6 -0.6,2.8 -0.2,0.3 0.7,1.4 1.1,1.4 0.2,0 0.3,-0.3 0.2,-0.6 z m -32.3,36.2 c -0.1,-0.3 -0.6,-1.3 -1.2,-2.3 -2.6,-4.4 -1.7,-8.5 1.7,-8.5 0.1,0 0.1,2.3 0,5.1 -0.1,5 -0.1,5.1 0.4,4.3 0.9,-1.4 2.8,-2.5 4.6,-2.5 1.2,0 1.4,-0.2 1.5,-1.5 0.1,-2.3 0.8,-2.7 2.9,-1.5 1.7,1 1.7,0.9 1.2,2.8 -0.6,2.4 -2.4,3.3 -4,2 -0.5,-0.4 -4.8,1.1 -5.8,2 -1,0.9 -1.1,0.9 -1.3,0.1 z m 10.4,-7.2 c -1.5,-1 -2.9,-1.4 -5.5,-1.3 -1.3,0 -1.9,-0.1 -1.9,-0.3 0,-0.4 -0.3,-0.5 -0.6,-0.2 -0.4,0.4 -0.9,0.3 -1,-0.1 0,-0.3 0,-0.7 -0.1,-1 0,-0.4 0.3,-0.9 1.1,-1.5 0.6,-0.5 1.1,-1 1.2,-1.2 0,-0.2 0.1,-0.3 0.3,-0.2 0.2,0.1 0.2,0 0.1,-0.4 -0.2,-0.4 -0.1,-0.5 0.3,-0.5 0.4,0 0.4,-0.1 0.1,-0.3 -0.4,-0.2 -0.3,-0.3 0.3,-0.2 0.6,0.1 0.7,0.1 0.4,-0.2 -0.2,-0.3 -0.2,-0.4 0.1,-0.4 0.3,0 0.5,-0.1 0.6,-0.3 0.2,-0.2 0,-0.2 -0.3,-0.2 -0.4,0.1 -0.6,0.1 -0.4,-0.1 0.1,-0.1 0.4,-0.2 0.7,-0.1 0.4,0.1 0.7,0 0.7,-0.1 0,-0.5 1.8,-0.2 2.3,0.3 0.2,0.2 0.7,0.5 1,0.6 0.4,0.2 0.6,0.5 0.9,1.7 0.2,0.8 0.5,2.1 0.7,2.7 1.1,3.5 0.8,4.6 -1,3.3 z m -5.8,-13.9 c -0.9,-2.4 -1,-7 -0.3,-8.3 1.2,-1.8 1.3,-1.9 4,-1.3 l 2.4,0.4 -0.2,1 c -0.1,1.1 -0.7,2.3 -2.3,4.7 -1.9,2.9 -2.2,3.6 -2.2,4 0,1.4 -0.8,1.1 -1.4,-0.5 z m 6.3,-10.2 c -0.6,-3.5 -0.3,-9.1 0.5,-10.3 1.3,-2.1 8.5,-2.4 8.9,-0.4 0.8,3.9 0,7.2 -1.6,7.2 -0.4,0 -0.6,0.1 -0.5,0.2 0.1,0.1 -0.1,0.2 -0.4,0.1 -0.5,-0.1 -1.1,0.2 -2.3,1.3 -1.2,1.2 -3.9,2.9 -4.4,2.9 z m 51.65,-9.5 c -0.1,-0.4 -0.3,-1.5 -0.5,-2.3 -0.5,-2.7 0.9,-9.4 2.2,-10.7 0.2,-0.1 0.3,-0.1 0.1,0.3 -1.2,3.1 -1.3,3.7 -1.3,8.4 -0.1,4.6 -0.2,5.8 -0.5,4.3 z"
       id="path512"
       sodipodi:nodetypes="csscssccssssssscssccscccsccssssssscscccsscssscsscsccsscsscscscccssssssscccsccccssscscscsscssccssccccscscsscsccsssscssssscsssccsscccssscsscsssscscscscscsscsssscsscscsccsccsscscccssscccssssccscsccscscscscsccssccsccssssccccccccsscscscssssssssssscsssssssssssssssssssssssssssssssssssssssssssssssssssssscsssssssssssssccscsccccccsscscccssccccsscscsccscsscccssssssscscssccsssscssssssscccssssssssssssscscccssscssscscsscscssssccsssscscscsssscscccscssssscscccscsssccsscccscsssccssscscscssccsssssscssssssscssssscssccssssscsssscccsscscscscssccsssssscscssssssccssscsssscscscccssssscccccscsssssssscssscsssssssscscsssssssssssscsccssssscsccssccssssssssssssssssssssssssssssssssssssssssssssssssssssssssssssssssssssssssssssssssscssssssssssscsssssss" /></g></svg>
