<svg width="205.6mm" height="174.5mm" viewBox="0 0 205.6 174.5" xml:space="preserve" xmlns="http://www.w3.org/2000/svg"><path style="fill:#8a8a8a;fill-opacity:1;stroke-width:1" d="M-225.6 1037h-.1c.1 0 0-1-.1-1h.4c-.1-1 0-1 .3-1 .2 0 .4 0 .4-1h.5c.3-1 .5-1 .4-1h.3c.4 0 1-2 .9-2h.4c.5 0 .7 0 .4-1h.2c.4 0 .5 0 .4-1-.1 0 .1-1 1.8-2h.8c.1 0 .2 0 .1-1h.7s1.2-1 1.7-1h.7c.3-1 .5-1 .5 0 0 0 .5 0 2-1h1c.3 0 1 0 1.7-1h1.7-.1c-.3-1-.3-1 .4-1h.7c.2 0 6.6-1 9.9-1 .3 0 .6-1 .7-1 .2 0 1 0 1 1h-.2c-.2 0-.3 0-.3 1h-.4c-.2 0-.6 1-.9 1-.4 1-.9 1-1.3 2h-.6s-.2 1-.4 1c-.5 0-.8 1-1.4 2-.2 1-.6 1-.9 1-.9 1-1.4 1-.9 2h-.1c-.2 0-.6 0-.8 1-.2 0-.8 1-1.3 1-.6 1-1.1 1-1.1 2h-.2c-.2-1-1.3 1-1.3 1 0 1-1.7 3-1.9 2-.1 0 2.8-1 2.7-1 20.8-7 15.4 0 16.4-1l1.2-2c.5-1 4.8 4 5 4 .2 0 .5-1 .9-1 .5 1 .6 0 .3 0-.4 0 1.7-1 2.3-1 .4 0 1.5-1 1.6-1 0 0 .7-1 1.5-1h1.9c.6-1 1.6-2 2.5-3 .4-1 .8-1 .9-2h2c0-1 .1-1 .3-1 .1 0 .2 0 .1 1h.2c.5-1 .6-2 .2-2-.2 0-.2 0-.2-1 .1 0 0 0-.3-1-.6-2-.4-6 .5-9 .4-1 .8-3 .8-3l.2-1h-2.3c-1.3 1-2.4 1-2.5 0-.1 0-.8 0-1.6 1h-7.2c-.7-1-.7-1-.2 0 .9 0 .5 1-.6 1h-1.2c-.1 0-.6 1-1 1s-1.2 0-1.7 1c-.6 0-1.2 1-1.4 1h.1-.3c-.7 0-1 0-.4 1h-.4c-.5-1-.8 0-1.2 0h-1c.2 1 .1 1-.2 1h-1.2c.5 1-.8 1-1.7 1h-.5c.1 0-.3 1-.6 0h-2.9l.2-2c.2-3 .4-4 1-4 .6 1 1.6 0 1.6-1H-195.8c-.1-1-.2-1-.5 0-.4 1-.5 0 0 0 1-3 2.3-2 2.3 0 0 1 .5 1 1.3 0 .6 0 .7-1 .2-1h.4c1.6-1 1-3-.6-3h-1.2c-.2 0 2.9-1 7.7-1h5c1-1 .7 0-.5 1-.6 0-1.1 1-1 1h-.2c-.3-1-.3-1 0-1s.3 0 0 0h-.4c0 1-1.5 2-3.1 2-1.5 0-2.1 1-1.2 1h-.2c-.5 0-.4 0 .2 1h1.3c-.4-1-.3-1 .3-1h2.6c.2 0 .6 0 .9-1 .4-1 2.3-2 4.6-3 1.5-1 1.7-1 2.2-1 .7 1 2.5 0 3.1-1 .2 0 .5-1 .6-1h.2s.1-1 .2-1c.2 0 .4 0 .5-1 .1 0 .3-1 .4-1 .4 0 .3-1-.1-1-.2 0-.2 0 0 0 .3-1.3.2-2.3-.1-3.3-.1 0-.2 0-.5 1-.5 0-.5-1 0-2 .2 0 .4-1 .4-1 0-1 1.1-5 1.4-5 .1 0 .1 0 0 0 0 0 .1-1 .3-2 .7-2 1-7 .4-8-.1-1-.2-1-.2-2s-.7-2-1.4-2c-.8 0-2.5 1-2.5 2 0 0-.2 0-.6 1-.3 0-.6 0-.6 1h-.1c0 1-.4 1-.8 1h-.3c.3 0 .4 0 .2 1-.2 0-.2 2-.2 3l.1 2-.7-2c-.4-1-1.2-3-1.7-5-2.1-6-3.1-13-2-14 .7-1 2.1-1 2.1-1 0 1 .5 1 1.5 1 1.5-1 2-1 .6-1h-1.4l-.8-1h1c3.2-1 5.5-1 13.1 0h2.1c-.1-1 .7-2 .9-2 .2 0 1.1-2 1.4-2l.2-1-.7 1h-.9c-.3 0-.3 1-.2 1h-.2c-.3 0-.5 1-.5 1H-162.1h.2c.3 1-2.1 1-3.3 1-1 0-1.4 0-.8-1 .3 0 .3 0 0 0-.2 0 .1 0 .6-1 .6 0 1-1 1-1s1-1 1.3-1h.1s.3-1 .6-1c.4 0 .7-1 .7 0 0 0 2.1-2 2.8-2 1-2 2.2-4 2.2-6 .1-1 .4-1 .5-1 0 1 .6 3 1.5 6 .7 2 1.9 3 2 1h2.3c.8 0 2.2 0 3-1h3.1c1.7 0 3-1 3.3-2h.4c.2 0 .3-1 .3-1 .1 0 .3-1 .7 0 .6 0 .8-1 .4-1-.5 0-.4-1 .1-1h.3H-139.6c.2 0 .4-1 .4-1h.6c-.1-1-.3-1-.5-1-.3 0-.4 0-.3-1 .1-1 .1-1-.7-1h-.7v-2H-146.1l-.7-1c-.5 0-.8-1-.7-2h-1.4c-1.3 1-2.1 1-2.3 0-.3 0 .1-2 .6-2 .2 0 .6-1 .7-1 .7-2 3.4-6 3.7-5 .2 1 2.2 0 3.6 0 .8-1 2.1-1 3-1h1.1c-.3-1-.5-1-.6-1.8 0-.3-.7-.6-1.6-.8-2.4-.7-2.5-.7-2.3-1.3.1-.6-.7-.8-1.6-.4-.5.2-.6 1-.1 1.2.2.1.2.3-.2.6-.4.5-.5.5-1.2-.3-2.1-2-2-5.9.2-5.5.9.2 1.8-.6 2-2 .1-.5.4-1.6.8-2.5.4-.8.7-1.5.7-1.6v-.2s.1-.3.1-.5c.2-.8 2-6.2 2.3-6.7.1-.3.3-1.1.3-1.8.1-.7.2-1.4.4-1.6.2-.2.3-.6.3-.8 0-.4.2-1.3.5-2.1.5-1.6.6-5.5.2-5.4-.2 0-.3-.1-.2-.2 0-.2-.3-.5-.6-.7-.8-.4-.9-.8-.3-1.3.3-.2.7-.8.9-1.3.6-1.3.7-1.5.3-1.1-.1.2-.3.3-.3.1 0-.1.3-.5.6-.9.2-.3.4-.8.3-1-.2-.6.6-2.2 1.6-3.2.2-.2.5-.5.5-.7 0-.1.2-.4.5-.6.3-.2.5-.5.5-.7 0-.4.6-1.2 1.9-2.6 1.5-1.5 2.2-3.1 1.4-3.1-.2 0-.3-.2-.2-.4.1-.2 0-.4-.1-.5-.2-.1-.3-.7-.3-1.4s.1-1.1.1-.9c.1.1.3.3.6.3.2 0 .3-.2.3-.3 0-.2.1-.3.2-.1.1.1.5.3.9.4.3 0 .8.2.9.3 1.1.9 2.7-1.1 2.4-2.9-.1-.7 0-1.6.1-2 .2-.4.2-.7 0-.7-.1 0-.2.2-.2.4 0 .4-.1.4-.4.2-.3-.3-.4-.2-.7.3-.2.5-.8.8-1.8 1.1-1.7.5-2.5 1.1-2.1 1.6.1.2.1.4-.1.5-.1.1-.2 0-.2-.1 0-.2-.2-.5-.4-.7-1.1-1.1-.1-4.4 1.6-5.4.8-.6 8.4-2.2 12-2.6 1.3-.1 3 .5 3.7 1.4.2.2.6.4.9.4.3 0 1.3.2 2.2.5 1.2.5 2.1.6 4.3.5 3.3-.1 3.6 0 7.75 3.3.2.2 1.1.6 2.1 1 2.7 1 3.6 1.7 3.8 2.8.9 4.8 3.2 8.1 8 11.1 5.3 3.3 15.3 1.8 20.8-3.1 2.1-2 2-1.7-.3.6-5 4.9-11.1 6.5-16.8 4.4-1-.4-1.7-.6-1.7-.5 0 0 1.1 1.2 2.5 2.6 2.6 2.6 6 8.5 6.6 11.4.1.5.7 2.7 1.5 4.7.7 2.2 1.3 4.3 1.3 4.9 0 .7.6 2.1 2.1 5.1 1.1 2.3 2.1 4.5 2.1 4.8 0 .3.3 1.6.8 2.9.4 1.3.9 3.1 1.1 3.9.2 1 .6 2 .9 3 .8 3 1.1 9 .6 11-.1 1 0 1 .3 3 1 4 1.1 5 .5 8-.4 2-.5 3-.5 8v15c-.2 3 .3 4 1.7 5 2.8 1 3.7 2 4.4 5 .4 1 1.2 2 6.4 7 4.2 3 5.7 6.3 5.8 9.3 0 1 .1 2 .9 2 .8 1 5.7 5 5.7 6 0 0 .3 0 .8 1 1.8 2 1.9 4 0 4-1.8-1-7.9-2-9.7-1h-1.6 1.1c.6 0 1.9 1 2.9 1h5.7c.2 0 .9 0 1.5 1H-34.55c.9 0 10.4 4 13.4 6 .2 0 .8 1 1 1-68.5-3-137.25 17-205.45 10zm83.9-2c-.4 0-.4 0 0 0 .2-1 .3-1 .3-2h.3c.3 1 .6 0 .4 0-.1-1 0-1 .2-1h.6s.2-1 .4 0c.1 0 .4 0 .5-1h.7c.3 1 .4 1 .6 0 .3 0 0-1-.6-1-.2 1-.4 0-.5 0h.1c.3 0 2.6-1 2.6-1h-1.6.4c.8 0 .9 0 .3-1-.4 0-.3 0 .6-1 .5 0 .8-1 .6-1-.5 0-.2-1 .4-1h.2c-.5-1-.4-1 .2-1h.5c0-1 .1-1 .3-1h.2-.2c-.7 0-1.2 0-.5-1h.6c-.1-1 .1-1 .8-1 .6-1 .7-1 .3-1h.3c.5 0 1-1 1.1-1 .2 0 .6-1 1.1-2 .4 0 .8 0 .8-1 0 0 1.7-1 2.1-1 .1 0 .3 0 .3-1h.1c.1 0 .3 1 .4 1 .2 0 .2-1 .1-1h.4c.6 0 .7-1 .2-1h.8c-.2-1 .7-2 1.2-2 .5 1 .9-2 1.1-7l.3-3c.4-2.3.5-3.3.7-2.3.1 0 .2 0 .2-1h-.2c-.3 0-.1-2 .2-2 .1 0 .1-1 .1-2-.1 0 0-1 .2-1 .3 0 .3 0 0-1-.2 0-.2 0 0 0 .1 0 .1 0-.2-1-.2 0-.3-1-.2-1 .1 0-.1-1-.4-1-.3 0-.5-1-.5-1h-.4c-.3 0-.8 0-1.1-1h-1.7c0 1-1.9 1-2.4 0-.3 0-.8-1-1.2-1h-1.2c-1 0-2.4-1-2.2-2 .1 0 .1-1 0-1-.2 0-.2-1-.2-1 0-1-.1-1-.4-1-.3 0-.4 0-.1-1 1.4-2 1.9-7 .8-8-.7-1-.7-1-.1-1 .4 0 .4 0-.1-1-.9 0-3.8 1-3.2 1 .3 0 .3 0 0 0-.3 1-.3 1-.1 1h.3c0 2-2.4 1-2.6 0-.1-1-1.2-2-1.9-2-.3 0-.5-1-.5-1s-.5 0-1.1-1c-.6 0-1.6-1-2.2-2-1.1-2-1.6-2-2.3-2-1 0-2.9 4-2.4 5 .2 0 .2 0 .3 1 .1 2 1.6 3 1.6 1 0 0 .3 0 .7-1l.6-1 .1 2c.2 1 .2 2 0 2 0 1 0 1 .2 1 .4 0 .3 3-.1 5-.2 0-.4 2-.4 3-.2 4-2.2 11-5.2 17-1 2.3-2 4.3-2.1 4.3-.1 1-.3 1-.4 1h-.3s-.4 1-1 2c-.6 0-1.1 1-1.1 1s-.2 1-.5 1-.5 0-.5 1h-.4c-.3 0-.4 0-.2 1 .4 0 .4 1-.1 1h-.4c-.1 1-.3 1-.6 1h-.8c-.2 0-.5 0-.8 1h-.8c-.3-1-.8-1-2.3 0h-2.6c-.4 0-.5 0-.4 1 0 0-.2 0-.5 1-.3 0-.4 0-.3 1h-.1c-.9 0-1.5 6-.7 7 .2 1 .4 1 .4 1 0 1 .9 2 1.4 2 .1 0 .1-1-.2-1h-.2 2.1c.2-1 .6-1 .8-1h.5c.1-1 .2-1 .4-1h.7c.3 0 .9 0 1.3-1h-1.2c.1 0 1.1-1 2.3-1h1c.1 0 .2-1 .4-1h.2s.2-1 .5-1c.6 0 2.1-1 2.1-2 0 0 .3 0 .7-1 .4 0 .7-1 .7-1s2.9-3 5-5c1.6-1 2.2-2 5.3-2h3c.7-1 1.5-2 2-5 .2-1 .5-2 .6-2h.1c0-1.3.2-1.3.5-2.3.4-1 .9-2 1.3-3 .5-1 1.6-2 2.8-2h.5s1.9-2 2.2-2c.4 0 .2 1-.3 1-.4 0-.4 0-.5 3 0 2-.1 4-.2 4-.2 0-.3 0-.2 1.3.1 0 0 1-.3 1-.2 0-.4 1-.3 1 .3 0 .4 5 .2 5-.2 1-.2 1 0 1s.2 0-.1 1c-.2 0-.2 0 0 0h.3c0 1 .2 1 .4 2 .3 1 .3 1-.2 1-1.1 2-4.2 4-4.4 4-.1 0-.4 1-.8 1-.3 0-.7 1-1 1-.7 1-1.1 2-.9 2h-.6c-.4 0-.7 1-.9 1-.1 0-.3 0-.5 1-.2 0-.5 0-.8 1-.4 1-1.3 2-1.7 1-.1 0-.2 1-.3 1-.1 1-.3 2-.6 2-.2 0-.6 1-.7 2-.2 0-.5 1-.7 1h-.2c.1 0-.1 1-.5 1-.4 1-.6 2-.6 2-1.8 0 2.2 1 5.7 1zm68.35-27c-.6-1-1.3-1-1.4-1-.2 0-.7-1-1-1-.3-1-.8-2-1.2-2-.3 0-.5 0-.5-1h-.8c-.5 0-.9-1-.9-1s-.9-1-2.2-1h-1.3c-.3-1.3-.5-1.3-.6 0h.3c.2 0 .3 1 .3 1-.3 0 .1 1 1.1 1 1.1 1 1.8 1 1.8 2h.2c.2 0 .5 0 .8 1 .3 0 1 1 1.6 1 .6 0 1.1 1 1.2 1 .2 0 2.1 1 3 1h.8zm-9.8-10.3c1.1 0 1.1-7 0-8-.6 0-2 0-1.5 1 .2 0 .2 0 0 0h-.2c.2 1 .1 1-.3 1s-.5 0-.4 1c.2 1-.2 1-.5 1-.1-1-.2-1-.2 0 0 0 .3 0 .6 1 .7 1 .9 1 .3 1-.2 0-.2 0 .1 1 .5 1 .7 2 2.1 1zm-82.85-5c-.3-1-.3-1 .1-1h.6c.1 0 .3-1 .4-1h.3s.1-1 .4-1c.3 0 1.8-2 1.8-2h.2c.3 0 1-2 1-2 0-1 .3-1 .7-1l.7-1h-1.1c-.7 0-1.1 0-1.1 1h-.1c-.4-1 .2-1 .8-1 .4 0 .6-1 .5-1h-1.4c-.3-1-2.4 3-2.6 5 0 0-.2 0-.5 1-.4 0-.5 1-.4 1 0 0-.1 1-.2 1h-.4c0 1-.2 1-.3 1-.1 0 0 1 .3 1zm101.15-31c-.1-2-.5-4-.8-5-.4-1-.5-3-.5-5 .1-11 .1-11-.8-14-.9-4-1.6-5-2.9-6.4l-.8-.8.3.7c.2.4.4.5.6.5.1 0 0 0-.1 1h-.1s-.1 1-.3 1h-.3c0-1-.1-1-.3-1h-.2c.7 2 2.1 6 2.2 6 .3 0 .9-2 .6-2-.5 0-1-1-.6-1 .3 0 2 3 1.8 3-.1 0 0 1 .2 1 .3 1 .3 1 .1 1-.1 0-.2 0-.2 1h-.5c-.3-1-.6-1-.6-2h-.3c-.2 1-.1 1 .4 2 1.2 2 1.2 3 1.2 8-.1 4 0 5 .4 6 .2 1 .5 2 .7 4 .7 5 1.2 6 .8 2zm-25.3-7c.4 0 .7 0 .7-1h-.4c-.3 0-.3 0 .3-1 1.4-2 .8-6-1-6-.8-1-.8-1-.1 1 1 2 .6 4-1.1 5H-93.55c-.4 0-.9-1-1-2-.1-1-.4-1-.6 0-.1 0 .1 3 .4 3 .7 0 1.5 1 1.8 1h1.2zm-53.45-14c1.7-1 3.2-1 3.2-1 .1 0 .3-1 .5-1 .6 0 .4 0-.8-1-1.1-1-5.6-1-6.5 1-1.5 2-.8 3 3.6 2zm65.15-27.3c-.1-.4 0-.5.6-.2.8.3.7.3.9-.8.1-.5.1-.8-.1-.7-.1.1-.2 0-.1-.2s0-.6-.2-.8c-.3-.2-.4-.7-.4-1 0-.5.1-.5.9.3.5.5.9.8 1 .7.3-.3-5.7-5.8-6.1-5.7-.2.1-.3.1-.2-.1.1-.2 0-.2-.3-.2-.3.1-.9 0-1.3-.2-.7-.4-.8-.4-.5 0 .2.2.6.5.9.6.2 0 .7.5.9 1.1.3.5.7 1.2.8 1.4.2.2.4.8.5 1.4.1.5.6 1.6 1.1 2.5.6.8 1.1 1.7 1.2 2 .3.6.6.6.4-.1zm-55.85-15.8c1.4-1 1.9-2.7 2.1-7.1.2-5.2-.5-5.2-3.2.3-.6 1.1-1.3 2.3-1.6 2.6-.3.4-.6.7-.5.8.2.2-.5 1.7-.8 1.5-.2-.1-.2 0-.1.3s.2.8.2 1.3c0 1.1 2.4 1.3 3.9.3zm13.2-16c-.2-.6.7-1.8 1.3-1.8 1.2-.1 1.7-1.8.6-2.5-.3-.2-.4-.4-.3-.5.1-.1 0-.5-.3-.8-.5-.9-.2-2.2.9-3.4.4-.4.5-.7.4-.7-1.1 0-2.6 2.9-3.3 6.1-.2 1.4-.5 2.6-.6 2.8-.2.3.7 1.4 1.1 1.4.2 0 .3-.3.2-.6zm-32.3 36.2c-.1-.3-.6-1.3-1.2-2.3-2.6-4.4-1.7-8.5 1.7-8.5.1 0 .1 2.3 0 5.1-.1 5-.1 5.1.4 4.3.9-1.4 2.8-2.5 4.6-2.5 1.2 0 1.4-.2 1.5-1.5.1-2.3.8-2.7 2.9-1.5 1.7 1 1.7.9 1.2 2.8-.6 2.4-2.4 3.3-4 2-.5-.4-4.8 1.1-5.8 2-1 .9-1.1.9-1.3.1zm10.4-7.2c-1.5-1-2.9-1.4-5.5-1.3-1.3 0-1.9-.1-1.9-.3 0-.4-.3-.5-.6-.2-.4.4-.9.3-1-.1 0-.3 0-.7-.1-1 0-.4.3-.9 1.1-1.5.6-.5 1.1-1 1.2-1.2 0-.2.1-.3.3-.2.2.1.2 0 .1-.4-.2-.4-.1-.5.3-.5s.4-.1.1-.3c-.4-.2-.3-.3.3-.2.6.1.7.1.4-.2-.2-.3-.2-.4.1-.4.3 0 .5-.1.6-.3.2-.2 0-.2-.3-.2-.4.1-.6.1-.4-.1.1-.1.4-.2.7-.1.4.1.7 0 .7-.1 0-.5 1.8-.2 2.3.3.2.2.7.5 1 .6.4.2.6.5.9 1.7.2.8.5 2.1.7 2.7 1.1 3.5.8 4.6-1 3.3zm-5.8-13.9c-.9-2.4-1-7-.3-8.3 1.2-1.8 1.3-1.9 4-1.3l2.4.4-.2 1c-.1 1.1-.7 2.3-2.3 4.7-1.9 2.9-2.2 3.6-2.2 4 0 1.4-.8 1.1-1.4-.5zm6.3-10.2c-.6-3.5-.3-9.1.5-10.3 1.3-2.1 8.5-2.4 8.9-.4.8 3.9 0 7.2-1.6 7.2-.4 0-.6.1-.5.2.1.1-.1.2-.4.1-.5-.1-1.1.2-2.3 1.3-1.2 1.2-3.9 2.9-4.4 2.9zm51.65-9.5c-.1-.4-.3-1.5-.5-2.3-.5-2.7.9-9.4 2.2-10.7.2-.1.3-.1.1.3-1.2 3.1-1.3 3.7-1.3 8.4-.1 4.6-.2 5.8-.5 4.3z" transform="translate(225.8 -864)"/></svg>