<?xml version="1.0" encoding="UTF-8" standalone="no"?>
<!-- Created with Inkscape (http://www.inkscape.org/) -->

<svg
   width="133.2mm"
   height="53.08mm"
   viewBox="0 0 133.2 53.08"
   version="1.1"
   id="svg385"
   xml:space="preserve"
   sodipodi:docname="balance-icon.svg"
   inkscape:version="1.2.1 (9c6d41e410, 2022-07-14)"
   xmlns:inkscape="http://www.inkscape.org/namespaces/inkscape"
   xmlns:sodipodi="http://sodipodi.sourceforge.net/DTD/sodipodi-0.dtd"
   xmlns="http://www.w3.org/2000/svg"
   xmlns:svg="http://www.w3.org/2000/svg"><sodipodi:namedview
     id="namedview387"
     pagecolor="#505050"
     bordercolor="#eeeeee"
     borderopacity="1"
     inkscape:showpageshadow="0"
     inkscape:pageopacity="0"
     inkscape:pagecheckerboard="0"
     inkscape:deskcolor="#505050"
     inkscape:document-units="mm"
     showgrid="false"
     inkscape:zoom="2.322"
     inkscape:cx="260.1"
     inkscape:cy="100.3"
     inkscape:window-width="1920"
     inkscape:window-height="1046"
     inkscape:window-x="-11"
     inkscape:window-y="-11"
     inkscape:window-maximized="1"
     inkscape:current-layer="g944"
     showguides="false" /><defs
     id="defs382" /><g
     inkscape:label="Layer 1"
     inkscape:groupmode="layer"
     id="layer1"
     transform="translate(475.6,-270.1)"><g
       id="g944"><path
         style="fill:#fbe3d3;stroke-width:0.999999;fill-opacity:1"
         d="m -391.3,321.6 c -2.7,-3.2 -3.9,-7.4 -5.6,-11.1 -0.5,-2 -4.6,-9.3 0.2,-6 1.9,1.7 4.3,4 1.4,0.7 -1,-1 -5.8,-2.8 -2.2,-3.3 2.1,-0.1 4.1,0.2 5.9,1.3 5.5,3.8 7.7,10.6 11.1,16 2.4,2.3 1.7,3.9 -1.4,2.3 -3.5,-1.7 -5.9,-4.7 -7.8,-8 -0.8,-1.1 -3.9,-6.6 -3.3,-5.1 2.6,4.4 3.5,9.6 4.1,14.7 -1.2,0.3 -1.6,-0.8 -2.4,-1.5 z m 1.2,-2.2 c -1,-5.6 -2.8,-11.9 -8,-15 -0.2,1.4 2.2,6.1 3,8.6 0.9,2.2 3.7,9.1 5.2,8.1 l -0.1,-0.7 z m 9.8,1.5 c -3.2,-4.6 -5.1,-10.1 -8.7,-14.5 -2.1,-2 -4.5,-4 -7.6,-3.6 -1.7,-0.1 4.2,3.2 4.5,5.3 3.1,4.8 5.8,10.7 11.3,13 0.2,-0.1 1.1,0.4 0.5,-0.2 z m 6.8,-3 c -8.1,-2.3 -11.7,-10.9 -18.5,-15.2 -3.9,-0.2 -2.5,-2.7 0.7,-2.8 2.4,-0.2 4.7,0.8 6.8,2 -1.8,-1.8 -5,-1.9 -6.8,-2.7 2.4,-3 -1.4,0.8 -2.9,0.9 -1.3,0.4 -3,0.7 -4.4,0.4 -3.2,-1.1 1.8,-2.9 3,-3.4 3.7,-1.3 5.2,-5.4 8.3,-7.6 1.8,-1.2 5.7,-3.4 7.1,-2.2 -0.9,1.7 -3.6,2.4 -5,4.1 -1.7,2.2 -3.3,4.5 -5.1,6.6 1.7,-1.5 3.9,-1.1 5.9,-1 5.1,1.1 9.4,4 13.6,6.9 3.3,2.2 6.5,4.6 10.2,6 -1.1,2.2 -3.9,1.3 -5.9,1.6 -4.3,-0.8 -8.4,-2.6 -11.8,-5.3 -1.7,-1.1 -8.7,-6.3 -3.9,-2.3 4.5,4.2 7.9,9.4 12.6,13.5 0.5,1.9 -3.1,0.6 -3.9,0.5 z m 1.1,-2.1 c -4.6,-4.2 -7.8,-10 -13.1,-13.4 -2.2,-1.3 -5,-2.5 -7.5,-1.4 -0.6,0.7 5.2,2.6 6.1,4.9 4.3,4.4 8.3,10.3 14.8,11.6 3.1,0.4 0.6,-0.6 -0.3,-1.7 z m 10.1,-5.4 c 0.1,-0.9 -4.5,-2.4 -5.8,-3.8 -5.4,-3.3 -10.5,-7.8 -16.9,-9 -1.7,-0.1 -3.5,-0.2 -4.9,1 3,0.9 7.3,3.2 10.2,5.7 3.7,2.9 8,5.3 12.7,6.3 1.5,0 3.1,0.1 4.7,-0.2 z m -31.1,-11.5 c 4.9,-2.5 6.6,-8.3 11.3,-11 -2.7,0.5 -5,2 -6.7,4.2 -1.9,1.6 -3.2,4.1 -5.4,5.3 -1.5,0.5 -6.8,3 -2.7,2.4 1.3,-0.1 2.4,-0.2 3.5,-0.9 z m 28.7,4.7 c -7.8,-1.4 -14.6,-6.7 -22.6,-7.1 -2.4,0.1 0.1,-1.9 1,-2.4 1.3,-0.8 5.5,-1.2 5,-1.4 -1.4,-0.1 -5.4,0.7 -2.7,-1.6 6.9,-4.2 15.2,-2.7 22.8,-2.6 5.7,0.5 11.3,-0.4 16.8,-1.5 0.2,1.6 -1.5,2.6 -2.3,3.8 -5.8,4.4 -13.6,5.3 -20.7,3.9 -3.1,-0.3 -7.2,-1.3 -9.7,-1.4 7.3,1.6 14.2,4.7 21.4,6.8 1.1,0.6 3.8,-0.2 3.6,1.5 -2.5,1.9 -5.6,2.5 -8.7,2.3 -1.4,0.2 -2.6,0 -3.9,-0.3 z m 9,-1 c 2.8,-0.9 2.9,-1.6 0.2,-1.8 -9,-2 -17.3,-7 -26.6,-7.1 -1.3,0.2 -6.4,1.8 -4.1,2.1 7.8,0.9 14.5,5.8 22.1,7.2 2.4,0.4 4.8,-0.1 7.1,0.1 0.4,-0.2 0.9,-0.3 1.3,-0.5 z m 1.2,-8.9 c 3.4,-1.1 7.1,-2.3 9,-5.5 -1,-0.6 -4.1,1 -5.9,0.9 -8.7,0 -17.3,-0.1 -26,0.1 -1.5,0.2 -7,2.4 -5.5,2.9 3.8,0 7.5,0.4 11.2,1.2 5.7,1 11.6,1.8 17.2,0.4 z m -18.1,-6 c -2.7,0 0,-1.7 1.3,-1.9 8.8,-3.7 18.1,-6.9 25.6,-13.1 0.9,-0.8 3.6,-4.6 3.2,-1.3 -0.7,7.9 -8,13.3 -15.3,15.1 -4.8,1.2 -9.9,1.3 -14.8,1.2 z m 11.4,-1.3 c 5,-0.9 10.3,-2.5 13.7,-6.5 2.6,-2 3.7,-5.3 4.4,-8.4 -8.1,7.6 -18.8,11.3 -28.9,15.5 3.6,0.2 7.2,-0.2 10.8,-0.6 z"
         id="path932"
         sodipodi:nodetypes="sssssssssscsscsscsssscssccsccsssscscssccssccssscssscscsssscsssssssscsccscscssscsssssscsscssscssssssccs" /><path
         style="fill:#fbe3d3;stroke-width:0.999999;fill-opacity:1"
         d="m -429.2,322.4 c 0.7,-6.4 2.6,-13.2 7.6,-17.6 4.7,-2.7 -0.4,3.9 -0.3,5.8 -1.8,4.2 -3.4,8.8 -6.5,12.2 -0.9,0.6 -1,0.3 -0.8,-0.4 z m -9.1,-1.9 c 3.7,-5.5 5.9,-12.4 11.3,-16.6 1.8,-0.9 3.7,-1.5 5.7,-1.4 2.8,0.3 0.2,0.9 -1,1.7 -4.5,3.8 -6.3,9.7 -10.3,14 -0.4,1.6 -8.2,5.9 -5.9,2.6 l 0.1,-0.2 z m -10,-2.4 c -0.6,-1.1 4.2,-3.7 5,-5.5 3.9,-4.3 7.4,-9.9 13.3,-11.8 1.9,0 4.2,-0.8 5.6,0.9 -2.5,0.9 -5.1,2.3 -6.7,4.6 -4.4,4.6 -8.6,10.3 -15.1,11.9 -0.7,0.1 -1.4,0.1 -2.1,-0.1 z m -7.8,-7 c -3.1,-1 3.5,-2.6 4.7,-3.9 6.1,-3.9 12.1,-9.5 19.8,-9.7 1.2,-0.2 5.3,2 3.4,2.1 -4.1,0 -7,3.2 -10.3,5.2 -4.7,3.6 -10.2,6.7 -16.3,6.7 -0.5,-0.1 -0.9,-0.3 -1.3,-0.4 z m -4.6,-7.3 c -2.3,-0.1 -8.3,-3 -2.6,-3 8.2,-1.9 15.9,-6 24.2,-7.1 2.3,0.3 4.8,-0.4 6.7,1.2 4.3,2.4 -3.3,1.2 -4.6,2.5 -7.7,2.7 -15.3,7.5 -23.7,6.4 z m 37.3,-3.6 c -6.4,-1.2 -7.9,-8.8 -13.3,-11.6 -3.2,-1.7 1.8,-0.6 3,0 4.9,2.2 6.6,8.5 12,9.8 4.5,1.6 1.1,3 -1.7,1.8 z m -36.9,-5.1 c -5,-0.6 -10.7,-2.4 -13.4,-7 2.1,-0.6 5.2,1.1 7.8,1 8,0 16,-0.3 24,0 2.5,0.4 6.7,1.6 7.5,3.5 -8.7,0.2 -17.2,3 -25.9,2.5 z m 4,-7.8 c -7.4,-0.9 -15.2,-4.5 -18.4,-11.6 -0.5,-1.2 -1.8,-6.7 -0.1,-4.3 5.7,6.4 14.2,9.4 21.9,12.8 1.6,0.9 8.3,2.7 7,3.5 -3.4,-0.2 -6.9,0.2 -10.4,-0.4 z"
         id="path638"
         sodipodi:nodetypes="sscsssssssscsscscsssscsssssscsscscssscscsscssssscs" /><g
         id="g930"
         transform="matrix(0.4876,0,0,0.4876,-193.2,172.1)"
         style="stroke-width:2.05039"><g
           id="g936"
           transform="translate(2.127,-12.58)"><path
             id="path817"
             style="fill:none;fill-rule:evenodd;stroke:#fbe3d3;stroke-width:1.02525;stroke-linecap:round;stroke-linejoin:round;stroke-opacity:1"
             d="m -445.9,221.6 v 50 a 25,25 0 0 0 25,-25 25,25 0 0 0 -25,-25 z" /><path
             id="path926"
             style="fill:#fbe3d3;fill-rule:evenodd;stroke:#fbe3d3;stroke-width:1.02525;stroke-linecap:round;stroke-linejoin:round;fill-opacity:1;stroke-opacity:1"
             d="m -445.9,221.6 v 50 a 25,25 0 0 1 -25,-25 25,25 0 0 1 25,-25 z" /></g></g></g></g></svg>
