<?xml version="1.0" encoding="UTF-8" standalone="no"?>
<!-- Created with Inkscape (http://www.inkscape.org/) -->

<svg
   width="210mm"
   height="297mm"
   viewBox="0 0 210 297"
   version="1.1"
   id="svg5"
   xml:space="preserve"
   inkscape:version="1.2.1 (9c6d41e410, 2022-07-14)"
   sodipodi:docname="classic.svg"
   xmlns:inkscape="http://www.inkscape.org/namespaces/inkscape"
   xmlns:sodipodi="http://sodipodi.sourceforge.net/DTD/sodipodi-0.dtd"
   xmlns="http://www.w3.org/2000/svg"
   xmlns:svg="http://www.w3.org/2000/svg"><sodipodi:namedview
     id="namedview7"
     pagecolor="#505050"
     bordercolor="#eeeeee"
     borderopacity="1"
     inkscape:showpageshadow="0"
     inkscape:pageopacity="0"
     inkscape:pagecheckerboard="0"
     inkscape:deskcolor="#505050"
     inkscape:document-units="mm"
     showgrid="false"
     inkscape:zoom="0.2102"
     inkscape:cx="178.4"
     inkscape:cy="1275"
     inkscape:window-width="1920"
     inkscape:window-height="1046"
     inkscape:window-x="-11"
     inkscape:window-y="-11"
     inkscape:window-maximized="1"
     inkscape:current-layer="g306" /><defs
     id="defs2"><filter
       style="color-interpolation-filters:sRGB;"
       inkscape:label="Invert"
       id="filter884"
       x="0"
       y="0"
       width="1"
       height="1"><feColorMatrix
         values="-1 0 0 0 1 0 -1 0 0 1 0 0 -1 0 1 -0.21 -0.72 -0.07 1.05 0 "
         result="color2"
         id="feColorMatrix882" /></filter></defs><g
     inkscape:label="Layer 1"
     inkscape:groupmode="layer"
     id="layer1"><g
       transform="matrix(0.7604,0,0,0.7604,184.8,339.9)"
       id="g306"><g
         id="g949"
         transform="translate(-314.5,263.2)"
         style="fill:#000000"><path
           style="fill:#000000;stroke-width:0.347892"
           d="m -514.7,-394 c 2.5,-5.3 3.6,-11 -1.8,-15.2 -4.8,-8 11.5,-7.2 8.1,1.2 2,6.3 0.2,12.2 -6.3,14 z m -11.5,-8.9 c -4.1,-4.6 5.9,-5.5 2.4,-0.1 -0.7,0.5 -1.7,0.6 -2.4,0.1 z m -15,2.8 c -2.5,-6.6 4.3,-11.6 2.7,-17.8 -3.2,-7.3 7,-10.6 10,-3.9 -0.9,5.6 -3.4,11.8 -8.6,14.8 -2.7,0.3 -2.8,10.2 -4.1,6.9 z m -11.1,-21.5 c -5,-8.1 8,-1.4 0,0 z m 7,-15.5 c -7.5,0.7 -15.1,4.9 -22.5,1.2 -7.1,-3 5.2,-1.1 7.7,-1.8 5.8,-1.2 9.1,-7.4 14.8,-8.1 4.2,0.6 6.5,10.3 -0.1,8.7 z m 0.8,-19.8 c -6,0.2 -12.9,-0.3 -16.2,-6.5 -1.6,-2.3 -8.5,-8.7 -2.4,-4.2 4.9,3.3 10.6,5.5 16.6,4.7 5.4,-2.3 8.8,3.5 3.9,6.1 l -0.9,-0.1 z m -4.2,-12.4 c -4.1,-4.6 6.5,-2.8 0.8,0.4 z m 13.9,-5.1 c -5,-3.7 -10.2,-8.6 -10.3,-15 -0.1,-3.6 -6.8,-8 -5.7,-9.4 7.4,-0.2 8.6,7.7 13.3,11 6,0.6 13.2,6.1 6.6,11.5 -0.6,1.6 -2.3,2.8 -3.9,1.9 z m 20.4,-11.9 c -7.1,0.8 -8.5,-7.7 -5.8,-12.5 0.7,-6.8 5.8,-12.7 4.4,-19.5 3.1,0 4.7,8.8 3.5,12.6 -1.9,6.2 4.9,12.3 2.2,18.1 -1.2,1.1 -2.8,1.2 -4.3,1.3 z m -18.3,-9.6 c -4.9,-7.1 8.8,-1.8 0,0 z"
           id="path929"
           sodipodi:nodetypes="cccccscscccsccccsccssscccsscssscccssccscscc" /><path
           d="m -496.9,-413.9 c 13.2,-3 22.8,-14.3 25.5,-28.9 2.8,-14.2 -1.3,-29.5 -12.5,-37.5 -4.7,-3.5 -10.4,-5.2 -16.1,-6.2 -1.1,-0.9 4.2,-0.2 5.8,-0.1 11.9,0.9 22.3,9.9 27.2,21.3 4.3,8.6 4.5,19.1 0.9,28 -4.1,11.5 -13.8,20.7 -25.2,22.8 -1.7,0.2 -4.2,1.1 -5.6,0.6 z"
           fill="#ffffff"
           stroke-width="0.255952"
           id="path304"
           sodipodi:nodetypes="ssscsssss"
           style="fill:#000000;stroke:#000000" /><path
           style="fill:#000000;stroke-width:0.244739"
           d="m -101.9,-253.2 c 0,0.2 0.5,0.2 0.8,0.4 0.8,0.4 2.63,3.1 2.63,3.6 0.1,2 -3.93,3.3 -3.93,9.1 0.1,5.9 6.73,3.4 6.83,15.2 0.1,11.9 -8.03,5.2 -8.03,25.2 0.2,20.1 6.43,11.4 6.53,23.3 0.1,11.9 -6.33,9.3 -6.33,15.1 -0.1,11.7 14.03,13.4 13.83,13.7 -11.43,2.6 -13.73,-2.3 -14.23,-2.5 -1.7,-2.5 -3.3,-5.3 -3.3,-11.2 -0.1,-5.8 7.23,-2.9 7.13,-14.7 0,-11.9 -7.43,-3.6 -7.53,-23.7 -0.1,-20 8.63,-13.8 8.63,-25.8 -0.1,-11.9 -7.33,-8.6 -7.33,-14.5 0,-5.9 -2.8,-9.3 -2.8,-11.2 0.1,-1.9 3,-2.4 3.2,-2.6 0.2,-0.2 0.4,-0.3 0.6,-0.4 0.3,-0.1 1.1,-0.9 1.4,-0.9 0.2,0.1 0,0.8 0.2,0.9 m 0,0 c 0.2,0.1 0.9,0.4 1.1,0.6 m 54.33,68.3 c -5.4,3.9 -11.7,5.7 -17.9,4.7 -1.8,-0.2 -5.5,-1.3 -5.9,-1.7 -0.1,0 0.5,-0.4 1.3,-0.9 5.3,-2.8 9.4,-8.1 11.1,-14 3,-10.5 -1.8,-22 -11.4,-27.1 -0.8,-0.4 -1.3,-0.8 -1.2,-0.9 0.4,-0.4 4,-1.4 5.8,-1.7 3.8,-0.6 7.6,-0.3 11.4,1.1 3.6,1.2 5.8,2.6 8.7,5.5 2,2 2.6,2.7 3.6,4.3 2.3,4 3.3,7.5 3.3,12.1 0,6.4 -1.9,11.4 -6.1,16 -1.2,1.1 -2.4,2.3 -2.7,2.6 z m -29.6,24 c -2.6,0.9 -5.2,-0.8 -5.2,-3.6 0,-1.4 0.5,-2.4 1.8,-3.4 1,-0.6 3.1,-0.6 4.1,0 2.6,1.9 2.2,6 -0.7,7 z m 0,-36.5 c -2.8,-1 -5.9,-1 -8.7,0.1 -1.2,0.4 -2.2,0.7 -2.2,0.6 0,0 0.3,-1 0.7,-2.1 1,-2.9 1,-6 -0.1,-8.8 -0.4,-1.1 -0.7,-2.1 -0.6,-2.2 0,0 1,0.2 2.1,0.7 2.9,1 6,1 8.8,-0.1 1.1,-0.4 2.1,-0.7 2.2,-0.6 0,0 -0.3,1 -0.7,2.1 -0.5,1.5 -0.7,2.7 -0.7,4.4 0,1.7 0.2,2.9 0.8,4.4 0.4,1.2 0.7,2.1 0.6,2.1 0,0.1 -1,-0.2 -2.2,-0.6 z m -48.03,18.6 -6.1,-2 4.1,-4.2 4.2,-4.2 2,6.1 c 1.2,3.4 2.1,6.1 2,6.2 0,0 -2.8,-0.8 -6.2,-1.9 z m -17.2,11.6 c -0.2,-0.1 -1.4,-2.7 -3,-5.7 -1.5,-3 -2.7,-5.5 -2.6,-5.6 0.1,-0.1 11.4,-0.1 11.4,0 0,0.1 -1.2,2.6 -2.6,5.6 -1.5,3 -2.9,5.6 -2.9,5.7 -0.1,0.3 -0.2,0.3 -0.3,0 z m 27.3,-30.1 c -3,1.5 -5.6,2.8 -5.7,2.8 -0.1,0 -0.2,-11.3 -0.1,-11.5 0.1,0 2.6,1.2 5.6,2.6 3.1,1.6 5.7,2.8 5.8,2.9 0.1,0.1 0.2,0.2 0.1,0.2 0,0.2 -2.6,1.4 -5.7,3 z m 30.63,-28.6 c -2.6,0.9 -5.2,-0.9 -5.2,-3.6 0,-1.4 0.5,-2.5 1.8,-3.3 1,-0.7 3.1,-0.7 4.1,0 2.7,1.7 2.3,5.9 -0.7,6.9 z m -49.43,38.8 c -2.7,1.8 -6.4,2.8 -9.6,2.6 -0.9,-0.1 -2.6,-0.4 -3.8,-0.8 -4.8,-1.6 -8.3,-5 -9.9,-9.8 -3.5,-10 4,-20.6 14.5,-20.6 2.8,0 4.8,0.4 7.3,1.6 1.4,0.7 1.9,1 3.8,2.9 1.9,1.9 2.3,2.4 3,3.9 1.2,2.5 1.7,4.5 1.7,7.2 0,5.2 -2.7,10.2 -7,13 z m -25.7,8.5 c -3.3,1.1 -6,2 -6.1,2 -0.1,-0.1 0.8,-2.9 1.9,-6.2 l 2.1,-6.2 4.1,4.2 c 2.3,2.2 4.2,4.1 4.2,4.1 -0.1,0 -2.9,1 -6.2,2.1 z m 32.3,-36.9 -4.2,-4.1 6.1,-2.1 c 3.3,-1.1 6.1,-2 6.2,-1.9 0,0 -0.8,2.8 -1.9,6.2 l -2,6.1 z m -42.5,18.5 c -3.2,-1.6 -5.8,-2.9 -5.8,-2.9 0,-0.2 11.2,-5.9 11.4,-5.9 0.2,0 0.3,11.4 0.1,11.5 0,0.1 -2.6,-1.2 -5.7,-2.7 z m 27.1,-24.7 c -3.1,0 -5.6,0 -5.6,-0.1 0,-0.3 5.5,-11.5 5.7,-11.5 0.1,0 5.8,11.4 5.7,11.5 0,0.1 -2.6,0.1 -5.8,0.1 z m -21.3,4.5 c -1.1,-3.3 -2,-6.1 -2,-6.1 0.1,-0.1 2.9,0.7 6.2,1.9 l 6.1,1.9 -4.1,4.2 -4.1,4.2 z"
           id="path978"
           sodipodi:nodetypes="csssssssccsssssssssccccsssssssssssscsssssssssssssssssssscccssssssssssssssssssssssssssssssssssscscsccscsccscssssssssssscccs" /></g><path
         style="fill:#000000;stroke-width:0.174767"
         d="m -108.7,392.6 c -3.3,-0.6 -5.4,-1.3 -10.4,-3.8 -6.9,-3.3 -12.7,-7.3 -21.7,-14.9 -1,-0.8 -1.9,-1.5 -2.1,-1.5 -0.1,0 -5.4,5.5 -6.2,6.5 -0.4,0.6 -5.1,4.9 -7,6.4 -3.4,2.8 -7.4,5.1 -10.8,6.2 -5.3,1.8 -12.2,1.4 -18.7,-1.2 -6.3,-2.5 -11.7,-6.7 -15.1,-11.8 -3.7,-5.7 -5.1,-11.5 -4,-17.9 0.9,-5.8 2.8,-10.3 6.1,-14.6 1.7,-2.2 3,-3.4 5.2,-5 4.7,-3.3 11.3,-5.5 17.7,-5.9 3.5,-0.2 8.1,0.4 11.7,1.6 6.1,1.9 17,8.5 26.4,16.1 1.1,0.9 2.2,1.9 2.4,2.1 0.6,0.7 1,0.5 3.4,-1.9 1.2,-1.3 2.9,-2.9 3.8,-3.6 0.9,-0.8 2.1,-1.8 2.7,-2.4 1.5,-1.5 4.8,-3.8 7.4,-5.5 4.5,-2.9 8.5,-4.8 12.2,-5.9 3.4,-1 4.7,-1.2 8.51,-1.2 6.8,0 12.4,1.5 18.2,5 2,1.2 3.7,2.6 5.3,4.4 2.1,2.6 3,4 3.8,6.8 1.8,5.2 2.1,11.8 0.7,17.6 -1,5.1 -3.5,9.4 -7,13.2 -1.4,1.4 -4.9,4.4 -6.6,5.6 -1.4,0.9 -5.7,3.2 -6.7,3.6 -0.3,0.1 -1.1,0.3 -1.6,0.5 -0.6,0.2 -2.4,0.7 -4,1 -2.9,0.6 -3.1,0.6 -7.71,0.7 -3.3,0 -4.9,0 -5.9,-0.2 z M -162.6,382 c 7.3,-1.7 13.1,-6 16.8,-12.5 0.2,-0.3 0.3,-0.7 0.2,-1 -0.1,-0.6 -6.5,-6.6 -10.5,-9.9 -1.6,-1.4 -3.6,-3 -4.3,-3.7 -0.7,-0.7 -2.3,-1.9 -3.4,-2.8 -1.1,-0.8 -2.8,-2.1 -3.6,-2.8 -1.7,-1.2 -3.3,-2.2 -5.8,-3.5 -4.3,-2.4 -9.2,-3 -13.5,-1.9 -3.3,0.9 -6.3,3.1 -8.7,6.2 -1,1.3 -2.2,3.9 -2.8,5.9 -0.4,1.5 -0.5,2 -0.5,4.4 0,2.5 0.1,2.9 0.4,4.1 1.2,3.9 4.1,7.5 8,10.1 2.3,1.5 7.4,4.4 9.5,5.3 1.9,0.8 5.6,1.9 7.4,2.1 0.7,0.1 1.5,0.3 1.9,0.4 0.3,0.1 2.1,0.1 4,0.1 2.6,-0.1 3.7,-0.2 4.9,-0.5 z m 74.81,-2.1 c 5.4,-1.2 9,-3.5 11.8,-7.6 1.6,-2.5 2.4,-6.3 2.1,-9.2 -0.2,-1.7 -1.1,-4 -1.7,-5.3 -2.1,-3.6 -7,-7.3 -12.7,-9.9 -3,-1.4 -6.5,-2.7 -7.8,-3 -4.41,-1 -11.21,-1.5 -14.21,-0.9 -1,0.1 -2.3,0.4 -3,0.6 -1.4,0.4 -4.8,2 -6.4,3.1 -1.7,1.1 -5.3,4 -6.6,5.3 -1.8,1.9 -4.8,5.5 -4.9,5.9 -0.1,0.5 1,1.7 5.3,5.5 5.1,4.6 7.1,6.2 10.6,8.6 2.7,1.8 3.6,2.3 6.6,3.8 3.4,1.6 6.6,2.7 9.81,3.2 3.5,0.6 8,0.5 11.1,-0.1 z"
         id="path878" /><path
         style="fill:#000000;stroke-width:0.267129"
         d="m -406.5,431.2 c -0.8,-0.6 -1,-1.8 -1,-6.2 v -4.4 l -43.8,-0.1 -43.7,-0.1 -1.2,-0.7 c -0.6,-0.5 -1.3,-1.2 -1.6,-1.9 -0.5,-1.1 -0.5,-2.3 -0.5,-37.4 v -36.3 l 0.6,-0.7 c 0.9,-0.7 2.1,-0.7 2.9,0.1 l 0.5,0.6 v 36 c 0,32.7 0.1,36.2 0.5,36.3 0.2,0.1 19.7,0.2 43.3,0.2 h 43 v -2.2 -2.1 h -40.5 -40.6 l -0.7,-0.5 -0.7,-0.6 V 367 c 0,-43.8 0,-44.1 0.5,-44.7 0.6,-0.5 0.9,-0.5 59.6,-0.5 58.7,0 59,0 59.5,0.5 0.6,0.6 0.6,0.9 0.6,28.9 0,27.9 0,28.2 -0.6,28.8 -0.6,0.7 -2.1,0.7 -2.8,0 -0.5,-0.6 -0.5,-1.5 -0.5,-27.5 l -0.1,-27 h -56.1 -56.1 v 41.4 41.4 h 39.3 39.2 v -4.4 -4.4 h -0.9 c -2.6,0 -4.5,-1.1 -5.2,-3 -0.1,-0.5 -0.3,-1.9 -0.3,-3.2 V 391 l -1.5,-1.4 c -3.2,-3.2 -3.3,-5.3 -0.1,-8.6 l 1.6,-1.7 v -2 c 0,-2.5 0.4,-3.9 1.5,-4.9 1.1,-1.1 2.4,-1.5 4.9,-1.4 l 1.9,0.1 1.7,-1.7 c 3.4,-3.2 5.5,-3.2 8.7,0.1 1.4,1.5 1.6,1.6 3.9,1.4 3.2,-0.1 5.1,1.2 5.7,3.9 0.2,0.8 0.3,2 0.1,2.5 -0.2,1.4 0.3,2.2 1.9,3.9 3,2.9 3,5.1 -0.1,8.2 l -1.7,1.9 v 2.7 c -0.1,2.2 -0.2,2.9 -0.5,3.6 -0.8,1.3 -2.4,1.9 -4.4,1.9 h -1.7 v 4.4 4.5 h 9.1 9.1 l 0.1,-9.9 v -10 l 0.7,-0.5 c 0.7,-0.7 2,-0.7 2.6,0 0.6,0.5 0.6,0.9 0.6,11.9 v 11.3 l -0.7,0.6 c -0.7,0.5 -1,0.5 -11.1,0.5 H -392 l 0.1,2.1 0.1,2 12.5,0.1 c 6.9,0 12.9,0 13.2,-0.1 h 0.6 l -0.1,-49.5 -0.1,-49.2 h -64.2 -64.3 l -0.1,8.8 c -0.1,8 -0.2,9 -0.6,9.4 -0.6,0.8 -2.2,0.8 -2.9,-0.1 -0.5,-0.5 -0.5,-0.7 -0.4,-9.9 l 0.1,-9.4 0.7,-1.1 c 0.5,-0.5 1.2,-1.2 1.8,-1.4 0.8,-0.5 4.4,-0.5 66,-0.4 l 65.1,0.1 1,0.7 c 0.5,0.4 1.2,1.3 1.4,1.9 0.6,1 0.6,2.8 0.6,50.8 0,48.2 0,49.6 -0.6,50.7 -0.3,0.8 -0.9,1.5 -1.6,1.9 l -1.1,0.8 -13.6,0.1 -13.6,0.1 v 4.9 4.9 l -0.7,0.5 c -0.4,0.3 -0.9,0.6 -1.1,0.6 -0.3,0 -1.7,-0.6 -3.2,-1.3 l -2.6,-1.2 -2.7,1.2 c -2.9,1.3 -3.4,1.5 -4.2,0.9 z m 10.5,-17.1 v -12.2 l -0.9,0.7 c -1.6,1.5 -3.5,1.5 -5.5,0 l -1,-0.7 v 12.2 c 0,9.5 0,12.1 0.3,12.1 0.1,0 1,-0.3 1.7,-0.7 0.8,-0.3 1.6,-0.6 1.7,-0.6 0.3,0 1.1,0.3 1.9,0.7 1,0.4 1.7,0.8 1.7,0.8 0.1,0 0.1,-5.4 0.1,-12.3 z m 0.1,-17.9 c 0.6,-0.4 1.5,-0.6 3.6,-0.7 l 2.8,-0.2 0.1,-2.2 c 0.1,-3 0.5,-4.1 2.5,-6.1 0.9,-0.8 1.6,-1.6 1.6,-1.7 0,-0.2 -0.6,-0.9 -1.5,-1.6 -2.1,-2.1 -2.5,-3.2 -2.6,-6.2 l -0.1,-2.4 -2.7,-0.2 c -3.1,-0.1 -3.8,-0.4 -5.8,-2.5 -0.7,-0.9 -1.4,-1.5 -1.6,-1.5 -0.2,0 -0.9,0.7 -1.8,1.5 -2,2.1 -2.6,2.4 -5.6,2.5 l -2.7,0.2 -0.2,2.7 c -0.1,3 -0.4,3.6 -2.5,5.7 -0.8,0.8 -1.5,1.5 -1.5,1.7 0,0.2 0.6,0.9 1.4,1.6 2.2,2.2 2.5,2.8 2.6,5.9 l 0.2,2.6 2.7,0.2 c 1.6,0.1 3.1,0.3 3.4,0.4 0.3,0.2 1.3,1.1 2.2,2.1 l 1.8,1.9 1.5,-1.7 c 0.8,-0.8 1.8,-1.8 2.2,-2 z m -6.2,-3.6 c -6.6,-2.3 -7.2,-11.3 -1,-14.4 3.4,-1.6 7.9,-0.4 9.9,2.5 3.3,5.2 0.2,11.7 -5.9,12.2 -1.1,0.1 -2,0 -3,-0.3 z m 4.3,-4.1 c 1.5,-0.8 2.3,-2.7 1.9,-4.1 -0.5,-1.4 -1.5,-2.4 -2.8,-2.8 -0.8,-0.3 -1.2,-0.2 -2.2,0.1 -1.7,0.7 -2.5,1.8 -2.5,3.6 0,1.6 0.7,2.6 2.1,3.3 1.2,0.7 2.3,0.6 3.5,-0.1 z m -74.9,11 c -1,-0.7 -1,-1 0,-3.8 1.6,-4.6 3,-12 3,-15.8 0,-2 0.4,-3.7 0.9,-4.1 0.7,-0.5 2.1,-0.4 2.7,0.1 0.2,0.2 0.4,0.5 0.4,0.5 0,0.8 1.5,10.2 1.9,11.6 0.6,2.6 1.4,4.6 2,4.7 0.6,0.2 1.6,-0.8 2.3,-2.2 0.6,-1.3 1.3,-1.9 2.3,-1.9 0.9,0 1.5,0.6 2,1.9 0.1,0.6 0.6,1.3 1,1.6 0.8,0.5 1.2,0.6 8.9,0.7 7.8,0.1 8.1,0.1 8.6,0.6 0.2,0.3 0.3,0.9 0.3,1.3 0,0.4 -0.1,1 -0.3,1.3 -0.6,0.6 -0.7,0.6 -8.7,0.6 -8.8,0.1 -9.8,0 -11.2,-1.3 l -0.8,-0.7 -1,0.8 c -1.4,1.2 -3,1.6 -4.4,1.2 -1.5,-0.4 -2.6,-1.5 -3.6,-3.6 l -0.9,-1.8 -0.1,0.8 c -0.1,0.6 -0.7,2.3 -1.2,3.9 -1.2,4 -2.4,5 -4.1,3.6 z m -1.1,-33.4 c -0.6,-0.9 -0.6,-2 0.1,-2.6 0.5,-0.6 0.9,-0.6 25.5,-0.6 24.6,0 25,0 25.5,0.6 0.3,0.2 0.5,0.8 0.5,1.3 0,0.4 -0.2,1 -0.5,1.3 -0.5,0.5 -0.9,0.5 -25.6,0.5 h -25.1 z m 0.2,-12.1 c -0.8,-0.8 -0.8,-1.7 -0.1,-2.7 l 0.6,-0.6 h 43 43.1 l 0.8,0.5 c 0.9,0.8 0.9,2.1 0,2.8 l -0.8,0.7 h -43 -43 z m -0.1,-12.2 c -0.7,-0.7 -0.7,-1.9 0,-2.7 l 0.5,-0.6 h 35.4 35.4 l 0.6,0.6 c 0.6,0.8 0.6,2 -0.1,2.7 -0.5,0.6 -0.8,0.6 -35.9,0.6 h -35.4 z"
         id="path880" /><path
         style="fill:#000000;stroke-width:0.262219"
         d="m 95.31,126.5 c -0.5,-0.3 -0.7,-0.8 -0.7,-1.4 0,-0.4 0.2,-1 0.7,-1.4 l 0.6,-0.6 h 8.99 9 l -1.2,-1.2 c -7.1,-6.8 -7,-17.8 0.4,-24.83 3.1,-2.8 8.1,-4.8 12.5,-4.8 h 1.6 l -0.3,-1.3 c -0.4,-1.7 0,-4 1.9,-11.7 2.1,-9.05 2.6,-10.15 4.3,-10.15 1.9,0 2.5,1.5 1.7,3.75 -0.7,2 -3.8,15.2 -3.8,16.4 0,1.9 0.8,3.6 2.3,5 2.3,2.2 2,2.1 17.6,2.1 h 13.4 l 0.9,-0.8 c 0.8,-0.7 1,-1.1 1.1,-2.1 0.1,-1 0,-1.2 -0.7,-2 -0.7,-0.8 -1.3,-1 -2.3,-1.2 -2.2,-0.4 -3,-2.2 -1.6,-3.6 0.6,-0.6 0.9,-0.6 2.1,-0.5 3.7,0.4 6.5,3.1 6.8,6.6 0.1,0.9 0,1.8 -0.3,2.6 l -0.3,1 h 9.4 c 10.7,0 11.3,-0.1 13.3,-1.8 1.5,-1.2 2.4,-2.9 2.5,-5 0.1,-1.2 -0.2,-3 -1.5,-8.5 l -1.7,-7.1 -4.2,-0.1 c -2.4,-0.1 -4.2,0 -4.2,0.1 0,0.1 0.6,2.9 1.4,6.2 l 1.3,5.9 h 1.8 c 1.4,0 1.7,0.2 2.3,0.7 0.9,0.8 0.9,2 0,2.9 l -0.7,0.6 -6.1,-0.1 c -3.8,-0.1 -6.8,-0.3 -8,-0.6 -4.1,-0.8 -8,-2.6 -11,-5.4 l -1.4,-1.3 -1.2,1.1 c -2.6,2.4 -6.7,4.5 -10.4,5.5 -1.9,0.5 -3.1,0.6 -8.6,0.7 l -6.3,0.1 -0.7,-0.7 c -0.9,-0.8 -0.9,-2 0,-2.8 0.5,-0.5 0.8,-0.7 2.3,-0.7 h 1.8 l 1.9,-8.6 c 2.2,-9.45 2.4,-9.85 4,-9.85 0.9,0 2.2,1 2.2,1.7 0,0.5 -1.2,5.85 -1.6,6.95 -0.1,0.4 0,0.4 1.2,0.3 1.8,-0.3 5.6,-1.4 7.4,-2.2 6.8,-2.85 12.1,-7.65 15.4,-13.95 1.1,-2.3 2.3,-5.4 2.1,-5.7 -0.2,0 -1,-0.3 -2,-0.6 -5.8,-1.3 -11.8,-1.1 -17.2,0.7 -2.5,0.8 -6,2.6 -8.3,4.2 -2.2,1.6 -3.1,1.8 -4.1,0.7 -0.7,-0.6 -0.9,-1.6 -0.5,-2.3 0.3,-0.6 4,-3.1 6.3,-4.2 1.3,-0.8 3.9,-1.8 6.2,-2.6 0.4,-0.1 0.3,-0.4 -0.9,-1.3 -1.6,-1.1 -3.6,-3.6 -4.5,-5.5 -0.3,-0.7 -0.8,-1.4 -0.9,-1.5 -0.6,-0.3 -4,-5.2 -4.9,-7 -4.2,-7.9 -2.4,-17.9 4.3,-24.6 2,-1.898 5.3,-4.098 7.2,-4.798 l 1.2,-0.4 0.1,-1.9 c 0.2,-3.1003 1.9,-5.6 4.8,-7 1.2,-0.6 1.8,-0.7 3.7,-0.7 1.9,0 2.4,0.1 3.7,0.7 2.8,1.4 4.6,3.9997 4.8,7.1 l 0.1,1.8 1.2,0.4 c 2,0.7 5.2,2.9 7.1,4.798 6.8,6.7 8.6,16.6 4.3,24.6 -0.8,1.8 -4.3,6.7 -4.9,7 -0.1,0.1 -0.5,0.7 -0.8,1.4 -0.8,1.7 -2.7,4.2 -4.3,5.4 -0.7,0.6 -1.3,1.2 -1.3,1.3 0,0.1 0.7,0.3 1.6,0.6 0.7,0.3 2.6,1 3.9,1.7 7.9,3.9 14.1,10.6 16.9,18.5 0.3,1.15 1.3,4.35 2,7.35 2.2,9.2 2.4,11 1.9,12.9 l -0.3,0.8 h 1.6 c 4.5,0 9.4,1.9 12.5,4.8 7.4,7.03 7.6,17.93 0.5,24.83 l -1.2,1.2 h 9 9 l 0.6,0.6 c 0.9,0.8 0.9,2 0,2.8 l -0.6,0.7 H 163.2 95.91 Z M 137.5,122 c -0.2,-1.4 0.4,-3.1 1.5,-4.3 0.4,-0.4 1.5,-1.2 2.5,-1.6 1,-0.5 1.6,-0.8 1.4,-0.8 -0.1,-0.1 -2.8,-0.8 -6.1,-1.5 l -5.8,-1.4 v 5.4 5.3 h 3.4 3.3 z m 57.9,-4.2 v -5.4 l -14.1,3.4 c -16.1,3.8 -15,3.7 -16.1,1.2 -0.9,-2.4 -2.8,-3.8 -5.4,-4.1 -1.9,-0.1 -2.9,0.1 -5.9,2.1 -1.8,1.2 -3.7,2.2 -6.9,3.4 -2.3,0.8 -4.5,1.8 -4.8,2 -0.7,0.6 -0.6,1.6 0.1,2.2 0.5,0.5 0.9,0.5 26.8,0.5 h 26.3 z M 166.3,48.82 c 4.6,-1.2 8.1,-4.7 9.4,-9.1 0.3,-1.1 0.3,-3 0.3,-8.2 v -6.8 l -0.7,-0.3 c -2.2,-0.7 -3.1,-1.4 -4.1,-2.6 l -1.1,-1.4 h -6.9 -7 l -1,1.4 c -1,1.2 -2,1.9 -4.1,2.6 l -0.8,0.3 v 6.8 c 0,5.2 0.1,7.1 0.4,8.2 1.8,6.6 8.9,10.7 15.6,9.1 z m -30.7,17.3 c -1.2,-0.8 -1.2,-2.3 0,-3.6 0.9,-0.8 2.5,-0.8 3.2,0.1 0.7,0.8 0.7,1.4 0.1,2.4 -0.8,1.4 -2.1,2 -3.3,1.1 z"
         id="path876" /><path
         style="fill:#000000;stroke-width:0.283517"
         d="m -110.4,124.8 c -4.9,-0.8 -8.9,-2.2 -12.3,-4.8 -1.8,-1.3 -3.9,-3.9 -4.8,-5.6 l -0.5,-0.9 -1.7,1.6 c -1.9,1.8 -5.4,3.6 -8,4.3 -4,1.1 -9.9,0.8 -15.5,-0.7 l -2.6,-0.6 -2.6,-2.7 c -4,-4.2 -6.7,-8.6 -7.8,-12.8 -0.8,-3.14 -0.8,-7.46 0.1,-10.23 0.2,-0.57 0.2,-0.65 -0.9,-0.65 -7.9,0 -14.9,-4.89 -20.4,-14.21 -1.5,-2.3 -1.5,-2.3 -1.5,-4.8 0,-10.39 3.6,-18.29 10,-22.29 l 1.7,-1 -1.6,-1.7 c -1.8,-1.9 -3.2,-4.6 -4.1,-7.5 -1.3,-4 -1,-10.8 0.6,-16.6 0.6,-2.1 0.7,-2.3 2.9,-4.4 1.3,-1.2 3.1,-2.8 4,-3.5 2.6,-1.9 6.6,-3.9 9.1,-4.5 3.2,-0.8 7.5,-0.8 10.2,0.1 0.6,0.2 0.6,0.1 0.8,-1.998 0.6,-7.8 5,-14 14.1,-19.3 2.3,-1.502 2.3,-1.502 4.8,-1.502 7.3,0 13.5,1.802 18,5.202 1.7,1.3 3.9,3.9 4.8,5.5997 l 0.5,0.8 1.7,-1.4997 c 5.4,-5 13.61,-6.2 23.61,-3.7 l 2.6,0.7 2.6,2.6 c 4,4.2 6.7,8.7 7.7,12.898 0.9,3.1 0.9,7.5 0,10.2 -0.2,0.7 -0.1,0.7 1,0.7 1.9,0 5.2,0.7 7.2,1.4 4.8,2 9.3,6.4 13.1,12.8 1.5,2.3 1.5,2.3 1.5,4.8 0,7.3 -1.8,13.5 -5.2,18 -1.3,1.7 -4,3.9 -5.7,4.8 l -0.8,0.5 1.6,1.7 c 4.9,5.4 6.2,13.49 3.6,23.5 l -0.6,2.61 -2.7,2.6 c -4.2,3.99 -8.6,6.67 -12.9,7.87 -3.1,0.7 -7.5,0.7 -10.2,-0.2 -0.5,-0.2 -0.5,-0.1 -0.7,2 -0.6,7.8 -5,13.9 -14.2,19.3 l -2.31,1.5 -2.7,-0.1 c -1.6,0 -4,-0.2 -5.5,-0.3 z m 5.4,-3.1 c 0,-0.1 -0.6,-2.3 -1.2,-4.9 -1.4,-5 -1.4,-5.5 -0.2,-6.1 0.4,-0.2 0.8,-0.2 1.4,0.1 0.7,0.3 0.9,0.8 2,5.1 0.7,2.6 1.4,4.7 1.6,4.7 0.7,0 4.51,-2.8 6.71,-5 4,-4 5.6,-7.4 5.6,-12.1 -0.1,-3.1 -0.5,-4.93 -2,-8.02 -0.7,-1.55 -0.9,-1.8 -1.2,-1.39 -0.4,0.33 -0.3,0.65 0.1,2.2 1.1,4.31 -0.9,8.81 -4.9,10.71 l -1.4,0.8 -13.91,0.1 c -11.2,0 -13.9,0.1 -13.9,0.4 0,0.6 1.2,3.6 1.8,4.7 2.6,4.3 7.4,7.2 13.3,8.2 1.2,0.2 2.3,0.4 2.5,0.4 0.8,0.2 3.7,0.2 3.7,0.1 z m -34.2,-5.5 c 3.2,-0.7 5.4,-1.9 7.8,-4.3 1.5,-1.4 2,-2.2 2,-2.5 -0.1,-0.3 -0.2,-0.7 -0.2,-1 0,-0.5 -0.3,-0.6 -5.9,-0.6 -4.4,0 -6.3,-0.1 -7.4,-0.4 -4.5,-1.3 -7.1,-6.2 -5.9,-11.12 l 0.5,-1.87 -1.3,-0.98 c -0.6,-0.57 -2.2,-1.96 -3.5,-3.18 l -2.2,-2.12 -1.7,0.82 c -0.9,0.49 -2.5,1.14 -3.4,1.47 -1.6,0.57 -1.7,0.65 -2.2,2.19 -1.7,4.81 -0.7,10.49 2.6,15.59 1.5,2.2 4.2,5.3 4.6,5.3 0.1,0 1.1,-1.6 2.3,-3.6 1.1,-2 2.2,-3.8 2.4,-4.1 0.9,-1 2.9,-0.3 2.9,1.1 0,0.2 -1,2.2 -2.2,4.4 -1.8,3.1 -2.2,4 -2,4.3 0.2,0.1 1.3,0.3 2.4,0.5 1,0.2 2.1,0.4 2.2,0.4 0.9,0.3 6.5,0.1 8.2,-0.3 z m 11.8,-13.2 c -1.4,-3.46 0.2,-7.37 3.7,-9.16 0.9,-0.49 1.8,-0.57 8.2,-0.65 4,-0.1 7.6,0 7.9,0.1 1.1,0.24 1.4,1.54 0.7,2.36 l -0.5,0.81 -7.5,0.1 -7.3,0.17 -0.8,0.73 c -2.2,2.04 -2,4.94 0.5,6.54 0.9,0.6 1.4,0.6 12.2,0.5 l 11.21,-0.1 1.3,-0.8 c 1.3,-0.9 2.6,-3.1 2.6,-4.61 0,-1.47 -0.6,-3.02 -1.6,-3.99 -0.5,-0.49 -3.1,-2.37 -5.61,-4.08 -2.6,-1.79 -4.9,-3.42 -5.2,-3.74 -0.4,-0.57 -0.5,-1.39 -0.5,-8.97 0,-7.89 0,-8.29 0.6,-8.89 0.6,-0.6 1.4,-0.7 2.1,-0.2 0.2,0.2 1.4,1.8 2.4,3.39 2.8,3.9 5.61,7.2 6.71,7.9 0.8,0.5 1.5,0.6 8.7,0.6 7.7,0 7.9,-0.1 8.8,-0.7 2.6,-1.8 2.6,-6.1 0,-7.7 -0.9,-0.49 -1.8,-0.59 -7,-0.79 -5.8,0 -5.9,-0.1 -7.5,-0.9 -2.1,-0.9 -2.8,-1.9 -5.2,-6.6 -4.71,-9.1 -6.91,-11.7 -11.01,-12.6 -1,-0.2 -4.8,-0.2 -12,-0.2 l -10.5,0.1 -1.6,0.8 c -3,1.4 -5.3,4.5 -9.1,12.2 -2.2,4.3 -2.9,5.4 -5,6.3 -1.6,0.8 -1.8,0.9 -7.6,0.9 -5.2,0.2 -6.1,0.3 -6.9,0.79 -2.6,1.6 -2.6,5.9 -0.1,7.7 1,0.6 1.2,0.7 8.8,0.7 7.3,0 7.9,-0.1 8.8,-0.6 1.1,-0.7 3.8,-4 6.5,-7.9 1.1,-1.59 2.2,-3.19 2.5,-3.39 0.7,-0.5 1.5,-0.4 2.1,0.2 0.6,0.6 0.6,1 0.6,8.89 0,7.58 -0.1,8.4 -0.5,8.97 -0.3,0.32 -2.6,1.95 -5.2,3.74 -2.5,1.71 -5.1,3.59 -5.6,4.08 -1.6,1.71 -1.9,3.99 -0.8,6.3 0.7,1.4 1.7,2.3 3,2.9 0.4,0.2 3.9,0.3 8,0.3 l 7.3,0.1 z m 6.1,-25.99 c -0.9,-0.4 -10.2,-9.99 -10.7,-11.09 -0.6,-1.4 -0.6,-4.2 0,-5.5 1.2,-2.3 3.3,-3.6 5.9,-3.6 1.9,0 3.2,0.5 4.6,1.8 l 0.9,0.9 0.9,-0.9 c 1.5,-1.3 2.8,-1.8 4.7,-1.8 2.7,0 4.9,1.4 5.9,3.8 0.7,1.5 0.6,4 -0.1,5.4 -1,1.9 -10.6,11.39 -11.4,11.19 0,0 -0.4,-0.1 -0.7,-0.2 z m 5.1,-8.19 c 4.2,-4.2 4.4,-4.5 4.2,-6.3 -0.1,-0.9 -1.4,-2.2 -2.5,-2.4 -1.2,-0.2 -1.8,0.1 -3.9,2 -0.9,0.9 -1.8,1.6 -2.2,1.6 -0.3,0 -1.3,-0.7 -2.2,-1.6 -2,-1.9 -2.6,-2.2 -3.8,-2 -1.1,0.2 -2.4,1.5 -2.5,2.4 -0.2,1.8 0,2.1 4.2,6.3 2.3,2.3 4.3,4.19 4.3,4.19 0.1,0 2.1,-1.89 4.4,-4.19 z m 42.71,29.74 c 1.2,-0.49 3.2,-1.46 4.3,-2.28 2.2,-1.38 5.4,-4.15 5.4,-4.56 0,-0.1 -2.3,-1.55 -5.1,-3.18 -5.4,-3.01 -6,-3.58 -5.4,-4.93 0.7,-1.4 1.4,-1.3 7,2 2.9,1.63 5.3,2.93 5.4,2.85 0.5,-0.41 1.1,-3.83 1.1,-7.05 0.4,-6.1 -0.9,-10.09 -4.6,-13.69 -1.6,-1.7 -2.2,-2.1 -2.6,-1.9 -1.1,0.3 -3.8,0.7 -5.3,0.7 h -1.5 l -0.3,1.2 c -0.2,0.6 -0.4,1.6 -0.6,2.1 -0.1,0.7 -0.1,1 0.4,1.4 1.2,1.09 1.7,2.69 1.7,5.19 0,2.2 0,2.6 -0.8,4 -1.4,2.5 -3.8,3.9 -6.7,3.9 l -1.7,0.1 -1.6,2.03 c -1,1.14 -2.4,2.69 -3.2,3.59 l -1.7,1.55 0.9,1.71 c 0.5,0.97 1.2,2.52 1.5,3.42 0.6,1.63 0.6,1.71 2.2,2.2 3.4,1.19 7.6,1.06 11.2,-0.33 z m -67.71,-10.02 4.6,-3.26 0.1,-4.67 0.1,-4.6 -0.7,0.8 c -3.4,4.6 -5.5,6.8 -7.5,7.25 -0.6,0.16 -2.8,0.33 -5,0.33 -2.3,0 -4.1,0.1 -4.1,0.16 0,0.49 7.1,7.17 7.6,7.17 0.1,0 2.2,-1.47 4.9,-3.18 z m 47.41,2.45 c 1.3,-0.98 6.5,-6.11 6.5,-6.44 0,-0.1 -1.8,-0.16 -4,-0.16 -2.3,0 -4.6,-0.17 -5.1,-0.33 -2,-0.45 -4.21,-2.65 -7.61,-7.25 l -0.7,-0.8 0.1,4.6 0.1,4.67 4.61,3.26 c 2.7,1.71 4.8,3.18 4.9,3.18 0.1,0 0.6,-0.33 1.2,-0.73 z m -68.81,-3.34 c 0.8,-0.33 2.4,-0.82 3.4,-1.31 1.8,-0.81 1.8,-0.89 1.3,-1.38 -0.4,-0.49 -0.8,-0.57 -2,-0.65 -1.9,0 -3,-0.41 -4.6,-1.6 -2.7,-1.8 -3.8,-6.2 -2.5,-9.3 0.3,-0.8 0.9,-1.69 1.1,-1.99 0.7,-0.5 0.7,-1 0,-3.7 -0.2,-1.2 -0.7,-3.2 -0.8,-4.4 -0.4,-2.5 -0.5,-10 -0.2,-11.7 l 0.3,-1.1 -2.4,0.2 c -7.1,0.6 -12.5,4.7 -14.7,11.1 -0.4,0.9 -0.9,2.6 -1.1,3.7 -0.4,2.2 -0.8,6.89 -0.6,6.89 0.1,0 2.8,-0.59 6.1,-1.49 4.5,-1.3 5.9,-1.6 6.3,-1.3 0.8,0.4 1.2,1.3 0.9,2.1 -0.3,0.79 -0.8,0.89 -8.1,2.89 -2.2,0.6 -4.1,1.2 -4.1,1.4 0,0.6 2.6,4.2 4.5,6.3 3,3.06 6.3,5.01 9.7,5.74 1.7,0.33 5.7,0.1 7.5,-0.4 z m 10.8,-19.23 c 3.1,-0.1 3.5,-0.5 6.3,-5.9 4.6,-8.7 6.7,-11.4 10.3,-13 2.2,-1 4.1,-1.5 7.2,-1.5 h 2.5 l -1.6,-0.7 c -1.8,-1 -4.7,-3.7 -5.7,-5.7 -4.9,-9.2 1.7,-20.5 12.2,-20.5 12.3,0 18.6,15 9.8,23.7 -0.9,1 -2.4,2 -3.2,2.5 l -1.6,0.7 h 2.5 c 3.1,0 5,0.5 7.2,1.5 3.6,1.6 5.7,4.3 10.41,13 1.6,3.2 2.6,4.7 3.2,5.2 1,0.7 1,0.7 9.3,0.9 h 4.2 l 0.3,-1.2 c 2.4,-9.8 1.3,-20.8 -3.2,-29.8 -4.2,-8.3 -11.2,-15.3 -19.61,-19.5 -11.9,-6 -26.6,-6 -38.5,0 -8.3,4.2 -15.3,11.2 -19.5,19.5 -4.5,9 -5.6,20 -3.2,29.8 l 0.3,1.2 h 4.2 c 2.3,-0.1 5.1,-0.2 6.2,-0.2 z m 84.51,-6.4 c 7,-2.5 10.9,-8.5 11.7,-18.1 0,-1.5 0,-2.6 0,-2.6 -0.1,0 -2.8,0.6 -6,1.5 -4.6,1.3 -6,1.6 -6.4,1.3 -0.9,-0.5 -1.2,-1.3 -0.9,-2.1 0.3,-0.8 0.7,-1 8.2,-2.9 2.2,-0.6 4,-1.2 4,-1.4 0,-0.7 -2.8,-4.5 -5,-6.7 -4,-4 -7.4,-5.5 -12.1,-5.5 -3.1,0.1 -4.9,0.5 -8.1,1.9 l -1.8,0.8 1.9,2.7 c 4.6,6.6 7.2,14.5 7.8,22.7 0.1,2 0.2,4 0.2,4.4 -0.1,0.4 -0.2,1.7 -0.3,2.9 l -0.1,2.3 2.3,-0.2 c 1.3,-0.1 3.2,-0.5 4.6,-1 z M -170.8,47.52 c 0.9,-0.2 2.3,-0.3 3.1,-0.3 h 1.5 l 0.3,-1.2 c 1.9,-8 6,-15.3 11.6,-21.3 l 2.5,-2.6 -0.9,-1.7 c -0.4,-0.9 -1.1,-2.5 -1.4,-3.4 -0.6,-1.6 -0.7,-1.7 -2.1,-2.2 -5,-1.7 -10.5,-0.8 -15.7,2.6 -2.2,1.4 -5.3,4.2 -5.3,4.6 0,0.1 2.3,1.5 5.1,3.2 5.4,3 6,3.5 5.4,4.8 -0.7,1.5 -1.4,1.3 -7,-1.9 -3,-1.6 -5.3,-2.9 -5.4,-2.9 -0.5,0.4 -1,3.9 -1.1,7 -0.4,6.2 0.9,10.1 4.6,13.8 1.5,1.6 2.2,2 2.6,1.9 0.3,-0.1 1.3,-0.3 2.2,-0.4 z m 54.5,-2.9 c 2.3,-1 4.1,-2.7 5.2,-5 0.8,-1.7 0.9,-2.1 0.9,-4.6 0,-2.3 -0.1,-2.9 -0.7,-4.3 -1.1,-2.1 -2.9,-4.1 -5,-5.1 -1.6,-0.9 -1.9,-0.9 -4.7,-0.9 -2.6,0 -3.1,0 -4.6,0.8 -2,1 -3.9,3.1 -5,5.2 -0.6,1.4 -0.7,2 -0.7,4.3 0,2.3 0.1,2.9 0.7,4.2 1.3,2.8 3.5,4.8 6.3,5.8 2.1,0.8 5.5,0.6 7.6,-0.4 z m 35.71,-21.3 c 1.2,-0.4 1.5,-0.7 1.9,-1.6 0.8,-1.9 1.2,-3.6 1,-6.6 -0.2,-3.5 -1.1,-6.198 -3.3,-9.598 -1.4,-2.2 -4.2,-5.4003 -4.6,-5.4003 -0.1,0 -1.6,2.3003 -3.2,5.2003 -3,5.398 -3.6,5.998 -4.9,5.398 -1.4,-0.7 -1.3,-1.398 2,-6.998 1.6,-3.0003 2.9,-5.3 2.8,-5.4 -0.4,-0.5 -3.8,-1 -7,-1.2 -5.81,-0.3 -9.91,1 -13.31,3.9 -2.5,2.4 -2.6,2.7 -2.2,4.9 0.3,1.2 0.5,2.8 0.5,3.6 v 1.598 l 1.2,0.4 c 8.3,2 16.61,6.7 22.41,12.5 l 1.5,1.6 1.9,-0.9 c 1.1,-0.5 2.5,-1.2 3.3,-1.4 z m -61.81,-7.7 c 4.5,-2.4 10.2,-4.2 15.6,-4.9 2.4,-0.5 9.9,-0.5 11.5,-0.2 l 1.1,0.2 -0.2,-2.298 c -0.6,-7.1 -4.7,-12.6 -11.1,-14.8 -0.9,-0.3 -2.6,-0.8 -3.7,-1 -2.2,-0.4 -6.9,-0.8 -6.9,-0.6 0,0.1 0.6,2.8 1.5,6 1.3,4.6 1.6,6 1.3,6.4 -0.5,0.8 -1.3,1.2 -2.1,0.9 -0.8,-0.3 -1,-0.8 -2.9,-8.2 -0.6,-2.2 -1.2,-4 -1.4,-4 -0.7,0 -4.5,2.8 -6.7,5 -4,4 -5.5,7.3 -5.5,12.098 0.1,3.1 0.5,4.9 1.9,8 l 0.8,1.8 2.2,-1.5 c 1.2,-0.8 3.3,-2.1 4.6,-2.9 z"
         id="path874" /><path
         style="fill:#000000;stroke-width:0.26742"
         d="m 146.8,466.4 c -0.1,-0.1 -0.7,-0.2 -1.3,-0.3 -1.5,-0.3 -3.3,-2 -3.8,-3.7 -0.8,-2.9 -0.1,-4.5 3.9,-8.3 2.9,-2.9 3.9,-3.4 6.1,-3.4 3.8,0 6.6,4.8 4.8,8.3 -0.4,0.8 -5.4,5.9 -6.4,6.6 -0.6,0.4 -2.8,0.8 -3.3,0.8 z m -21.5,-11.8 c -2.5,-1.3 -3.7,-4 -2.8,-6.7 0.3,-1.1 0.8,-1.7 3.7,-4.6 2.9,-2.9 3.4,-3.2 4.6,-3.5 0.8,-0.2 1.8,-0.2 2.3,-0.2 3.3,0.7 5.4,4.1 4.4,7.3 -0.2,1 -0.8,1.8 -3.1,4.2 -4.1,4.2 -6.1,5 -9.1,3.5 z m 38.8,-8.4 c -0.6,-0.2 -1.5,-0.9 -2.1,-1.4 -1.4,-1.4 -3.9,-2.8 -6.1,-3.5 -2,-0.6 -5.4,-0.7 -7.5,-0.4 -1,0.2 -1.2,0.1 -1.2,-0.2 0,-0.3 -0.4,-1.4 -1,-2.5 -2.2,-4.6 -8.1,-8.6 -12.6,-8.6 h -1.3 l -0.4,-1.9 c -0.6,-3.9 -3.4,-8 -7,-10.4 -1.5,-1 -3.6,-1.8 -5.6,-2.3 -0.7,-0.1 -0.7,-0.2 -0.7,-1.4 0,-7.2 -5.5,-13.6 -12.7,-15.2 -3.2,-0.6 -5.99,-0.4 -9.09,0.9 l -1.7,0.7 -1.8,-1.7 c -3.6,-3.5 -7.1,-9.5 -8.5,-14.5 -3.9,-13.5 0,-27.1 10.5,-36.4 6.19,-5.5 14.09,-8.4 22.89,-8.4 9.4,0 17.7,3.2 24.1,9.4 l 2.4,2.3 -6.2,6.3 -6.3,6.2 6,5.9 c 6,5.9 7.6,7.2 10.8,8.7 6.3,2.8 14.8,2.4 20.7,-1.1 l 0.8,-0.5 15.2,15.3 c 8.5,8.4 15.6,15.8 16,16.4 1.2,2.1 0.8,5.2 -1.1,6.9 -1.5,1.5 -4.4,1.9 -6.3,0.9 -0.5,-0.3 -6,-5.7 -12.3,-11.9 -6.3,-6.2 -11.5,-11.3 -11.6,-11.3 -0.2,0 -1.9,1.5 -3.8,3.4 l -3.5,3.5 11.8,11.8 c 10.1,10.1 11.8,12 12.1,13 0.5,1.6 0.4,2.5 -0.4,4.1 -1,1.9 -2.5,3 -4.5,3.1 -2.8,0.2 -2.4,0.5 -15.2,-12.3 l -11.8,-11.7 -3.6,3.6 -3.5,3.5 11.4,11.4 c 12,12 12.7,12.8 12.7,15 0,1.6 -1.2,3.9 -2.6,4.8 -1.4,1 -3.7,1.2 -5.4,0.5 z m -54.1,-6 c -2.8,-1.3 -4.2,-4.7 -3,-7.6 0.5,-1.2 5.5,-6.3 7,-7 3.3,-1.9 7.7,0.5 8,4.3 0.2,2.4 -0.2,3.3 -3.5,6.7 -1.7,1.6 -3.5,3.2 -4.1,3.5 -1.2,0.5 -3.1,0.6 -4.4,0.1 z M 97.31,423.7 c -3,-0.7 -5,-3.7 -4.3,-6.7 0.3,-1.5 1.5,-3.1 4.2,-5.7 2.4,-2.3 3.89,-3.1 5.49,-3.1 3,0 5.7,2.5 5.7,5.5 0,2.3 -0.4,3 -3.7,6.3 -2.7,2.7 -3.3,3.2 -4.6,3.6 -1.49,0.4 -1.59,0.4 -2.79,0.1 z m 92.29,-42.5 -18.7,-18.7 -2.5,2.4 c -4.7,4.5 -9.4,5.8 -14.4,4 -2.2,-0.9 -3.3,-1.6 -5.6,-3.8 l -2,-1.9 8.4,-8.4 c 6.9,-6.8 8.8,-8.6 11,-10.1 6.2,-4 12.1,-5.8 19.5,-5.8 6,0 10.8,1.2 16,3.8 9.3,4.8 15.9,13.5 18.2,23.8 0.8,4 0.8,10.4 0,14.4 -1.4,6.5 -4.4,12.2 -8.8,16.9 -1.2,1.2 -2.1,2.1 -2.2,2.1 -0.1,0 -8.6,-8.4 -18.9,-18.7 z"
         id="path944" /></g></g></svg>
