<svg xmlns="http://www.w3.org/2000/svg" width="478.5mm" height="34.43mm" viewBox="0 0 478.5 34.43" enable-background="new"><defs><filter style="color-interpolation-filters:sRGB" id="a"><feBlend mode="difference" in2="BackgroundImage"/></filter></defs><g transform="translate(161.8 -286.3)" style="filter:url(#a)"><path style="fill:#353535;stroke:#353535;stroke-width:1.065;stroke-linecap:butt;stroke-linejoin:miter;stroke-miterlimit:4;stroke-dasharray:none;stroke-opacity:1" d="M-136.5 308.5h400" transform="translate(26.48 -10.05)"/><g style="fill:#353535;stroke:none;stroke-width:3.4428;fill-opacity:1"><path style="opacity:1;fill:#353535;fill-opacity:1;stroke:none;stroke-width:3.666;stroke-linecap:butt;stroke-linejoin:round;stroke-miterlimit:4;stroke-dasharray:none;stroke-dashoffset:0;stroke-opacity:1;paint-order:normal" d="M2.777-22.73c17.233 8.25 17.793 36.7.08 44.82" transform="matrix(0 .2205 -.3826 0 307.38 297.85)"/><path style="opacity:1;fill:#353535;fill-opacity:1;stroke:none;stroke-width:3.666;stroke-linecap:butt;stroke-linejoin:round;stroke-miterlimit:4;stroke-dasharray:none;stroke-dashoffset:0;stroke-opacity:1;paint-order:normal" d="M2.933-22.73c-17.233 8.25-17.793 36.7-.078 44.82" transform="matrix(0 .2205 -.3826 0 307.38 297.85)"/></g><path style="fill:#353535;stroke:#353535;stroke-width:1.065;stroke-linecap:butt;stroke-linejoin:miter;stroke-miterlimit:4;stroke-dasharray:none;stroke-opacity:1;fill-opacity:1" d="M269 308.5h1M265.9 308.5h2" transform="translate(26.48 -10.05)"/><g style="fill:#353535;stroke:none;stroke-width:4.0205;fill-opacity:1"><path style="opacity:1;fill:#353535;fill-opacity:1;stroke:none;stroke-width:4.2812;stroke-linecap:butt;stroke-linejoin:round;stroke-miterlimit:4;stroke-dasharray:none;stroke-dashoffset:0;stroke-opacity:1;paint-order:normal" d="M2.777-22.73c17.233 8.25 17.793 36.7.08 44.82" transform="matrix(-.1897 -.0622 .201 -.2602 303.98 292.75)"/><path style="opacity:1;fill:#353535;fill-opacity:1;stroke:none;stroke-width:4.2812;stroke-linecap:butt;stroke-linejoin:round;stroke-miterlimit:4;stroke-dasharray:none;stroke-dashoffset:0;stroke-opacity:1;paint-order:normal" d="M2.933-22.73c-17.233 8.25-17.793 36.7-.078 44.82" transform="matrix(-.1897 -.0622 .201 -.2602 303.98 292.75)"/></g><g style="fill:#353535;stroke:none;stroke-width:4.0205;fill-opacity:1"><path style="opacity:1;fill:#353535;fill-opacity:1;stroke:none;stroke-width:4.2812;stroke-linecap:butt;stroke-linejoin:round;stroke-miterlimit:4;stroke-dasharray:none;stroke-dashoffset:0;stroke-opacity:1;paint-order:normal" d="M2.777-22.73c17.233 8.25 17.793 36.7.08 44.82" transform="matrix(.1897 -.0622 -.201 -.2602 302.78 304.35)"/><path style="opacity:1;fill:#353535;fill-opacity:1;stroke:none;stroke-width:4.2812;stroke-linecap:butt;stroke-linejoin:round;stroke-miterlimit:4;stroke-dasharray:none;stroke-dashoffset:0;stroke-opacity:1;paint-order:normal" d="M2.933-22.73c-17.233 8.25-17.793 36.7-.078 44.82" transform="matrix(.1897 -.0622 -.201 -.2602 302.78 304.35)"/></g><g style="fill:#353535;stroke:none;stroke-width:3.4428;fill-opacity:1"><path style="opacity:1;fill:#353535;fill-opacity:1;stroke:none;stroke-width:3.666;stroke-linecap:butt;stroke-linejoin:round;stroke-miterlimit:4;stroke-dasharray:none;stroke-dashoffset:0;stroke-opacity:1;paint-order:normal" d="M2.777-22.73c17.233 8.25 17.793 36.7.08 44.82" transform="matrix(0 .2205 .3826 0 -126.02 297.85)"/><path style="opacity:1;fill:#353535;fill-opacity:1;stroke:none;stroke-width:3.666;stroke-linecap:butt;stroke-linejoin:round;stroke-miterlimit:4;stroke-dasharray:none;stroke-dashoffset:0;stroke-opacity:1;paint-order:normal" d="M2.933-22.73c-17.233 8.25-17.793 36.7-.078 44.82" transform="matrix(0 .2205 .3826 0 -126.02 297.85)"/></g><path style="fill:#353535;stroke:#353535;stroke-width:1.065;stroke-linecap:butt;stroke-linejoin:miter;stroke-miterlimit:4;stroke-dasharray:none;stroke-opacity:1" d="M-140.7 308.5h-1M-137.5 308.5h-2" transform="translate(26.48 -10.05)"/><g style="fill:#353535;stroke:none;stroke-width:4.0205;fill-opacity:1"><path style="opacity:1;fill:#353535;fill-opacity:1;stroke:none;stroke-width:4.2812;stroke-linecap:butt;stroke-linejoin:round;stroke-miterlimit:4;stroke-dasharray:none;stroke-dashoffset:0;stroke-opacity:1;paint-order:normal" d="M2.777-22.73c17.233 8.25 17.793 36.7.08 44.82" transform="matrix(.1897 -.0622 -.201 -.2602 -122.62 292.75)"/><path style="opacity:1;fill:#353535;fill-opacity:1;stroke:none;stroke-width:4.2812;stroke-linecap:butt;stroke-linejoin:round;stroke-miterlimit:4;stroke-dasharray:none;stroke-dashoffset:0;stroke-opacity:1;paint-order:normal" d="M2.933-22.73c-17.233 8.25-17.793 36.7-.078 44.82" transform="matrix(.1897 -.0622 -.201 -.2602 -122.62 292.75)"/></g><g style="fill:#353535;stroke:none;stroke-width:4.0205;stroke-opacity:1;fill-opacity:1"><path style="opacity:1;fill:#353535;fill-opacity:1;stroke:none;stroke-width:4.2812;stroke-linecap:butt;stroke-linejoin:round;stroke-miterlimit:4;stroke-dasharray:none;stroke-dashoffset:0;stroke-opacity:1;paint-order:normal" d="M2.777-22.73c17.233 8.25 17.793 36.7.08 44.82" transform="matrix(-.1897 -.0622 .201 -.2602 -121.42 304.35)"/><path style="opacity:1;fill:#353535;fill-opacity:1;stroke:none;stroke-width:4.2812;stroke-linecap:butt;stroke-linejoin:round;stroke-miterlimit:4;stroke-dasharray:none;stroke-dashoffset:0;stroke-opacity:1;paint-order:normal" d="M2.933-22.73c-17.233 8.25-17.793 36.7-.078 44.82" transform="matrix(-.1897 -.0622 .201 -.2602 -121.42 304.35)"/></g><g><path d="M-136.5 308.5h400" style="fill:none;stroke:#353535;stroke-width:1.065;stroke-linecap:butt;stroke-linejoin:miter;stroke-miterlimit:4;stroke-dasharray:none;stroke-opacity:1;fill-opacity:1"/><g style="fill:#353535;stroke:#353535;stroke-width:3.4428;stroke-opacity:.8;fill-opacity:1"><path d="M2.777-22.73c17.233 8.25 17.793 36.7.08 44.82" style="opacity:1;fill:#353535;fill-opacity:1;stroke:#353535;stroke-width:3.666;stroke-linecap:butt;stroke-linejoin:round;stroke-miterlimit:4;stroke-dasharray:none;stroke-dashoffset:0;stroke-opacity:.8;paint-order:normal" transform="matrix(0 .2205 -.3826 0 280.9 307.9)"/><path d="M2.933-22.73c-17.233 8.25-17.793 36.7-.078 44.82" style="opacity:1;fill:#353535;fill-opacity:1;stroke:#353535;stroke-width:3.666;stroke-linecap:butt;stroke-linejoin:round;stroke-miterlimit:4;stroke-dasharray:none;stroke-dashoffset:0;stroke-opacity:.8;paint-order:normal" transform="matrix(0 .2205 -.3826 0 280.9 307.9)"/></g><path d="M269 308.5h1M265.9 308.5h2" style="fill:#353535;stroke:#353535;stroke-width:1.065;stroke-linecap:butt;stroke-linejoin:miter;stroke-miterlimit:4;stroke-dasharray:none;stroke-opacity:.8;fill-opacity:.8"/><g style="fill:#353535;stroke:#353535;stroke-width:4.0205;stroke-opacity:.8;fill-opacity:1"><path d="M2.777-22.73c17.233 8.25 17.793 36.7.08 44.82" style="opacity:1;fill:#353535;fill-opacity:1;stroke:#353535;stroke-width:4.2812;stroke-linecap:butt;stroke-linejoin:round;stroke-miterlimit:4;stroke-dasharray:none;stroke-dashoffset:0;stroke-opacity:.8;paint-order:normal" transform="matrix(-.1897 -.0622 .201 -.2602 277.5 302.8)"/><path d="M2.933-22.73c-17.233 8.25-17.793 36.7-.078 44.82" style="opacity:1;fill:#353535;fill-opacity:1;stroke:#353535;stroke-width:4.2812;stroke-linecap:butt;stroke-linejoin:round;stroke-miterlimit:4;stroke-dasharray:none;stroke-dashoffset:0;stroke-opacity:.8;paint-order:normal" transform="matrix(-.1897 -.0622 .201 -.2602 277.5 302.8)"/></g><g style="fill:#353535;stroke:#353535;stroke-width:4.0205;stroke-opacity:.8;fill-opacity:1"><path d="M2.777-22.73c17.233 8.25 17.793 36.7.08 44.82" style="opacity:1;fill:#353535;fill-opacity:1;stroke:#353535;stroke-width:4.2812;stroke-linecap:butt;stroke-linejoin:round;stroke-miterlimit:4;stroke-dasharray:none;stroke-dashoffset:0;stroke-opacity:.8;paint-order:normal" transform="matrix(.1897 -.0622 -.201 -.2602 276.3 314.4)"/><path d="M2.933-22.73c-17.233 8.25-17.793 36.7-.078 44.82" style="opacity:1;fill:#353535;fill-opacity:1;stroke:#353535;stroke-width:4.2812;stroke-linecap:butt;stroke-linejoin:round;stroke-miterlimit:4;stroke-dasharray:none;stroke-dashoffset:0;stroke-opacity:.8;paint-order:normal" transform="matrix(.1897 -.0622 -.201 -.2602 276.3 314.4)"/></g><g style="fill:#353535;stroke:#353535;stroke-width:3.4428;fill-opacity:1;stroke-opacity:1"><path d="M2.777-22.73c17.233 8.25 17.793 36.7.08 44.82" style="opacity:1;fill:#353535;fill-opacity:1;stroke:#353535;stroke-width:3.666;stroke-linecap:butt;stroke-linejoin:round;stroke-miterlimit:4;stroke-dasharray:none;stroke-dashoffset:0;stroke-opacity:1;paint-order:normal" transform="matrix(0 .2205 .3826 0 -152.5 307.9)"/><path d="M2.933-22.73c-17.233 8.25-17.793 36.7-.078 44.82" style="opacity:1;fill:#353535;fill-opacity:1;stroke:#353535;stroke-width:3.666;stroke-linecap:butt;stroke-linejoin:round;stroke-miterlimit:4;stroke-dasharray:none;stroke-dashoffset:0;stroke-opacity:1;paint-order:normal" transform="matrix(0 .2205 .3826 0 -152.5 307.9)"/></g><path d="M-140.7 308.5h-1M-137.5 308.5h-2" style="fill:#353535;stroke:#353535;stroke-width:1.065;stroke-linecap:butt;stroke-linejoin:miter;stroke-miterlimit:4;stroke-dasharray:none;stroke-opacity:1;fill-opacity:1"/><g style="fill:#353535;stroke:#353535;stroke-width:4.0205;fill-opacity:1;stroke-opacity:1"><path d="M2.777-22.73c17.233 8.25 17.793 36.7.08 44.82" style="opacity:1;fill:#353535;fill-opacity:1;stroke:#353535;stroke-width:4.2812;stroke-linecap:butt;stroke-linejoin:round;stroke-miterlimit:4;stroke-dasharray:none;stroke-dashoffset:0;stroke-opacity:1;paint-order:normal" transform="matrix(.1897 -.0622 -.201 -.2602 -149.1 302.8)"/><path d="M2.933-22.73c-17.233 8.25-17.793 36.7-.078 44.82" style="opacity:1;fill:#353535;fill-opacity:1;stroke:#353535;stroke-width:4.2812;stroke-linecap:butt;stroke-linejoin:round;stroke-miterlimit:4;stroke-dasharray:none;stroke-dashoffset:0;stroke-opacity:1;paint-order:normal" transform="matrix(.1897 -.0622 -.201 -.2602 -149.1 302.8)"/></g><g style="fill:#353535;stroke:#353535;stroke-width:4.0205;fill-opacity:1;stroke-opacity:1"><path d="M2.777-22.73c17.233 8.25 17.793 36.7.08 44.82" style="opacity:1;fill:#353535;fill-opacity:1;stroke:#353535;stroke-width:4.2812;stroke-linecap:butt;stroke-linejoin:round;stroke-miterlimit:4;stroke-dasharray:none;stroke-dashoffset:0;stroke-opacity:1;paint-order:normal" transform="matrix(-.1897 -.0622 .201 -.2602 -147.9 314.4)"/><path d="M2.933-22.73c-17.233 8.25-17.793 36.7-.078 44.82" style="opacity:1;fill:#353535;fill-opacity:1;stroke:#353535;stroke-width:4.2812;stroke-linecap:butt;stroke-linejoin:round;stroke-miterlimit:4;stroke-dasharray:none;stroke-dashoffset:0;stroke-opacity:1;paint-order:normal" transform="matrix(-.1897 -.0622 .201 -.2602 -147.9 314.4)"/></g><g style="fill:#353535;stroke:#353535;stroke-width:4.0205;fill-opacity:1;stroke-opacity:1"><path style="opacity:1;fill:#353535;fill-opacity:1;stroke:#353535;stroke-width:4.2812;stroke-linecap:butt;stroke-linejoin:round;stroke-miterlimit:4;stroke-dasharray:none;stroke-dashoffset:0;stroke-opacity:1;paint-order:normal" d="M2.777-22.73c17.233 8.25 17.793 36.7.08 44.82" transform="matrix(-.1897 -.0622 .201 -.2602 -147.9 314.4)"/></g></g></g></svg>
