<?xml version="1.0" encoding="UTF-8" standalone="no"?>
<!-- Generator: Adobe Illustrator 26.0.2, SVG Export Plug-In . SVG Version: 6.00 Build 0)  -->

<svg
   version="1.1"
   id="Layer_1"
   x="0px"
   y="0px"
   viewBox="0 0 109 117"
   style="enable-background:new 0 0 109 117;"
   xml:space="preserve"
   sodipodi:docname="HYS_TAG_WHITE - D0006.svg"
   inkscape:version="1.2.1 (9c6d41e410, 2022-07-14)"
   xmlns:inkscape="http://www.inkscape.org/namespaces/inkscape"
   xmlns:sodipodi="http://sodipodi.sourceforge.net/DTD/sodipodi-0.dtd"
   xmlns:xlink="http://www.w3.org/1999/xlink"
   xmlns="http://www.w3.org/2000/svg"
   xmlns:svg="http://www.w3.org/2000/svg"><defs
   id="defs5104" /><sodipodi:namedview
   id="namedview5102"
   pagecolor="#505050"
   bordercolor="#eeeeee"
   borderopacity="1"
   inkscape:showpageshadow="0"
   inkscape:pageopacity="0"
   inkscape:pagecheckerboard="0"
   inkscape:deskcolor="#505050"
   showgrid="false"
   inkscape:zoom="4.034"
   inkscape:cx="90.72"
   inkscape:cy="65.07"
   inkscape:window-width="1620"
   inkscape:window-height="1058"
   inkscape:window-x="-6"
   inkscape:window-y="-6"
   inkscape:window-maximized="1"
   inkscape:current-layer="Layer_1" />
<style
   type="text/css"
   id="style4917">
	.st0{fill:#FFFFFF;}
	.st1{clip-path:url(#SVGID_00000062185030416196743150000001713529460775918504_);}
	.st2{clip-path:url(#SVGID_00000108304864424686560480000007411821909787353007_);}
	.st3{clip-path:url(#SVGID_00000178162993485725245040000004105848068014009756_);}
	.st4{fill:#EC6611;}
	.st5{clip-path:url(#SVGID_00000030462046828343894440000003373783027851052440_);}
	.st6{fill:#E26E12;}
</style>
<g
   id="g4921"
   transform="matrix(1,0,0,1.194,0,-22.69)"
   style="stroke-width:1.0003;stroke-dasharray:none;fill:#e6e6e6;fill-opacity:1">
	<rect
   y="18.6"
   class="st0"
   width="109"
   height="98.4"
   id="rect4919"
   x="0"
   style="stroke-width:1.0003;stroke-dasharray:none;fill:#e6e6e6;fill-opacity:1" />
</g>
<g
   id="g4973">
	<g
   id="g4939">
		<defs
   id="defs4924">
			<rect
   id="SVGID_1_"
   x="-0.2"
   width="109.2"
   height="125.6" />
		</defs>
		<clipPath
   id="SVGID_00000176027630040868774570000000014208466781198504_">
			<use
   xlink:href="#SVGID_1_"
   style="overflow:visible;"
   id="use4926" />
		</clipPath>
		<g
   style="clip-path:url(#SVGID_00000176027630040868774570000000014208466781198504_);"
   clip-path="url(#SVGID_00000176027630040868774570000000014208466781198504_)"
   id="g4937">
			<g
   id="g4931">
				<path
   d="M48.2,80.5h2.2v5.1h5.4v-5.1H58v12.1h-2.2v-5.2h-5.4v5.2h-2.2V80.5z"
   id="path4929" />
			</g>
			<g
   id="g4935">
				<path
   d="M64.2,80.5h2.9l4,12.1h-2.3l-1.3-3.9h-4.1L62,92.6h-2.2L64.2,80.5z M67,87l-1.4-5L64,87H67z"
   id="path4933" />
			</g>
		</g>
	</g>
	<g
   id="g4957">
		<defs
   id="defs4942">
			<rect
   id="SVGID_00000062902204623841970060000001330327503958172805_"
   x="-0.2"
   width="109.2"
   height="125.6" />
		</defs>
		<clipPath
   id="SVGID_00000023246651664090686240000013193467583392736135_">
			<use
   xlink:href="#SVGID_00000062902204623841970060000001330327503958172805_"
   style="overflow:visible;"
   id="use4944" />
		</clipPath>
		<g
   style="clip-path:url(#SVGID_00000023246651664090686240000013193467583392736135_);"
   clip-path="url(#SVGID_00000023246651664090686240000013193467583392736135_)"
   id="g4955">
			<g
   id="g4949">
				<path
   d="M72.3,82.4h-3.7v-1.9h9.7v1.9h-3.7v10.3h-2.2V82.4H72.3z"
   id="path4947" />
			</g>
			<g
   id="g4953">
				<path
   d="M79.8,80.5H82v5.1h5.4v-5.1h2.2v12.1h-2.2v-5.2H82v5.2h-2.2V80.5z"
   id="path4951" />
			</g>
		</g>
	</g>
	<g
   id="g4971">
		<defs
   id="defs4960">
			<rect
   id="SVGID_00000155835705155035747560000001633151558223261828_"
   x="-0.2"
   width="109.2"
   height="125.6" />
		</defs>
		<clipPath
   id="SVGID_00000150780969581281607240000003938476939329666712_">
			<use
   xlink:href="#SVGID_00000155835705155035747560000001633151558223261828_"
   style="overflow:visible;"
   id="use4962" />
		</clipPath>
		<g
   style="clip-path:url(#SVGID_00000150780969581281607240000003938476939329666712_);"
   clip-path="url(#SVGID_00000150780969581281607240000003938476939329666712_)"
   id="g4969">
			<g
   id="g4967">
				<path
   d="M94.5,80.5h2.9l4,12.1h-2.3l-1.3-3.9h-4.1l-1.4,3.9h-2.2L94.5,80.5z M97.2,87l-1.4-5l-1.6,5H97.2z"
   id="path4965" />
			</g>
		</g>
	</g>
</g>
<g
   id="g4977"
   style="fill:#000000">
	<path
   class="st4"
   d="M102.3,98.5H7.4v-1.4h94.9V98.5z M96.6,76.1H25.9v-1.4h70.7V76.1z"
   id="path4975"
   style="fill:#000000" />
</g>
<g
   id="g5011">
	<g
   id="g4981">
		<path
   d="M8,109.7l0.3-0.9c0.6,0.2,1.1,0.4,1.8,0.4c0.8,0,1.6-0.3,1.6-1.1c0-1.7-3.6-1.3-3.6-3.7c0-1.3,1.1-1.9,2.3-1.9    c0.9,0,1.5,0.2,1.9,0.4l-0.3,0.8c-0.5-0.2-0.9-0.3-1.6-0.3c-0.8,0-1.3,0.3-1.3,0.9c0,1.5,3.6,1.3,3.6,3.7c0,1.5-1.3,2.1-2.7,2.1    C9.1,110.2,8.5,110,8,109.7z"
   id="path4979" />
	</g>
	<g
   id="g4985">
		<path
   d="M14.1,106.4c0-2.4,1.4-3.9,3.9-3.9c1.3,0,1.9,0.3,2.2,0.4l-0.3,0.9c-0.4-0.1-0.9-0.3-1.9-0.3c-1.5,0-2.7,0.8-2.7,2.8    s1.3,2.9,2.9,2.9c0.7,0,1.3-0.1,1.7-0.3l0.3,0.9c-0.4,0.2-1,0.3-2.2,0.3C15.4,110.2,14.1,108.7,14.1,106.4z"
   id="path4983" />
	</g>
	<g
   id="g4989">
		<path
   d="M21.5,102.7h1.1v3.2h3.8v-3.2h1.1v7.4h-1.1v-3.3h-3.8v3.3h-1.1C21.5,110.1,21.5,102.7,21.5,102.7z"
   id="path4987" />
	</g>
	<g
   id="g4993">
		<path
   d="M29.2,106.4c0-2.3,1.5-3.8,3.9-3.8c2.5,0,3.7,1.6,3.7,3.8c0,2.3-1.4,3.8-3.9,3.8C30.5,110.2,29.2,108.7,29.2,106.4z     M35.6,106.4c0-1.6-0.9-2.9-2.6-2.9c-1.8,0-2.7,1.2-2.7,2.9c0,1.6,0.8,2.9,2.6,2.9C34.8,109.3,35.6,108,35.6,106.4z"
   id="path4991" />
	</g>
	<g
   id="g4997">
		<path
   d="M37.8,106.4c0-2.3,1.5-3.8,3.9-3.8c2.5,0,3.7,1.6,3.7,3.8c0,2.3-1.4,3.8-3.9,3.8C39.1,110.2,37.8,108.7,37.8,106.4z     M44.3,106.4c0-1.6-0.9-2.9-2.6-2.9c-1.8,0-2.7,1.2-2.7,2.9c0,1.6,0.8,2.9,2.6,2.9S44.3,108,44.3,106.4z"
   id="path4995" />
	</g>
	<g
   id="g5001">
		<path
   d="M47,102.7h1.1v6.5h3.2v0.9H47V102.7z"
   id="path4999" />
	</g>
	<g
   id="g5005">
		<path
   d="M54.3,106.4c0-2.3,1.5-3.8,3.9-3.8c2.5,0,3.7,1.6,3.7,3.8c0,2.3-1.4,3.8-3.9,3.8C55.6,110.2,54.3,108.7,54.3,106.4z     M60.8,106.4c0-1.6-0.9-2.9-2.6-2.9c-1.8,0-2.7,1.2-2.7,2.9c0,1.6,0.8,2.9,2.6,2.9S60.8,108,60.8,106.4z"
   id="path5003" />
	</g>
	<g
   id="g5009">
		<path
   d="M63.5,102.7h4.6v0.9h-3.5v2.5h3.2v0.9h-3.2v3.1h-1.1V102.7z"
   id="path5007" />
	</g>
</g>
<g
   id="g5017">
	<g
   id="g5015">
		<path
   d="M75,107.4l-2.5-4.7h1.3l1.8,3.8l2-3.8h1.2l-2.7,4.7v2.7H75V107.4z"
   id="path5013" />
	</g>
</g>
<g
   id="g5031">
	<g
   id="g5021">
		<path
   d="M79.1,106.4c0-2.3,1.5-3.8,3.9-3.8c2.5,0,3.7,1.6,3.7,3.8c0,2.3-1.4,3.8-3.9,3.8C80.4,110.2,79.1,108.7,79.1,106.4z     M85.5,106.4c0-1.6-0.9-2.9-2.6-2.9c-1.8,0-2.7,1.2-2.7,2.9c0,1.6,0.8,2.9,2.6,2.9C84.7,109.3,85.5,108,85.5,106.4z"
   id="path5019" />
	</g>
	<g
   id="g5025">
		<path
   d="M87.8,106.4c0-2.4,1.4-3.9,3.9-3.9c1.2,0,1.8,0.2,2.2,0.4l-0.3,0.9c-0.5-0.1-0.9-0.3-1.8-0.3c-1.5,0-2.7,0.8-2.7,2.8    s1.3,2.9,2.9,2.9c0.4,0,0.8-0.1,1-0.1v-2.7h1.1v3.4c-0.7,0.2-1.3,0.4-2.3,0.4C89.2,110.2,87.8,108.7,87.8,106.4z"
   id="path5023" />
	</g>
	<g
   id="g5029">
		<path
   d="M97.8,102.7h1.5l2.6,7.4h-1.2l-0.9-2.6H97l-1,2.6h-1.2L97.8,102.7z M99.5,106.6l-1-3.2l-1.2,3.2H99.5z"
   id="path5027" />
	</g>
</g>
<g
   id="g5045"
   style="fill:#000000;fill-opacity:1">
	<g
   id="g5043"
   style="fill:#000000;fill-opacity:1">
		<defs
   id="defs5034">
			<rect
   id="SVGID_00000174572507547805916850000003731018483946269853_"
   x="-0.2"
   width="109.2"
   height="125.6" />
		</defs>
		<clipPath
   id="SVGID_00000095317143419498210530000009963621438805952703_">
			<use
   xlink:href="#SVGID_00000174572507547805916850000003731018483946269853_"
   style="overflow:visible;"
   id="use5036" />
		</clipPath>
		<g
   style="clip-path:url(#SVGID_00000095317143419498210530000009963621438805952703_);fill:#000000;fill-opacity:1"
   clip-path="url(#SVGID_00000095317143419498210530000009963621438805952703_)"
   id="g5041">
			<path
   class="st6"
   d="M59.8,61.1c0,0,6.9-4.6,11.5-4.6c2.9,0,7.3,1.7,7.2,6C78.3,67.6,69,68.4,59.8,61.1 M38,65.9     c-1.6,0-3.4-0.7-3.4-2.5c0-1.7,3-7.1,9.3-7.1c5.2,0,9.9,4.5,9.9,4.5C51.1,63.2,44.6,65.9,38,65.9 M78.3,54.3     c-4.7-3.4-12.7-0.8-17,2.6l-0.7-8.3c0,0,8.4-3.9,5.3-10.6c-0.3-0.7,0.8-1.5,0.5-2.8s-2.9-1.5-2.3,0.6c0.2,0.6,0.4,1.2,0.7,1.9     c-1.4,5.9-7.9,6-7.9,6s-0.8-3-1.2-5.3c0.7-0.2,1.4-0.6,2-1.4c1.4-1.7,0.6-5.9-0.3-7.4c-1.3-1.9-3.7-2.5-5.5,0.1     c-1.3,1.9-0.8,4.9-0.6,5.6c0.5,1.4,1.4,2.4,2.4,2.9c-0.3,2.8-0.3,4.6-0.3,4.6s-6.5-1.9-6.7-9.7c0-0.6-0.5-0.2-0.7,0.2     c-3.3,9.3,6.6,13.1,6.6,13.1s-0.3,6.4-0.2,9.7L52.3,56c-2.7-2.6-5.2-4.8-9.5-4.8c-7.9,0-15.2,8-15.2,13.5c0,5.3,5.1,6.3,9.2,6.3     c11.5,0,17.8-6.5,20.6-8.4c0,0,9.4,9,17.6,9c7.3,0,8.6-3.5,8.6-7.4C83.4,60.4,81.4,56.5,78.3,54.3"
   id="path5039"
   style="fill:#000000;fill-opacity:1" />
		</g>
	</g>
</g>
<g
   id="g5049"
   transform="matrix(1,0,0,0.1862,0,16.11)"
   style="fill:#000000">
	<rect
   x="-0.2"
   class="st6"
   width="109.2"
   height="19.8"
   id="rect5047"
   y="0"
   style="fill:#000000" />
</g>

<g
   id="g5099"
   style="fill:#000000">
	<path
   d="M17.6,69.3c0-0.6,0.1-1.2,0.1-1.8c0-0.1,0-0.3,0.1-0.4c0.1-0.3,0.3-0.5,0.6-0.4c0.3,0.1,0.5,0.2,0.7,0.4   c0.4,0.4,0.8,0.9,1.2,1.3c0.3,0.4,0.4,0.9,0.4,1.5c-0.3,2.5-0.5,5-0.7,7.5s-0.2,4.9-0.1,7.4c0.1,1,0.1,1.9,0.1,2.9   c0,0.2,0,0.4,0.1,0.7c0.1-0.2,0.2-0.3,0.3-0.4c0.6-1,1.3-2,1.9-3c0.5-0.7,1.1-1.2,1.8-1.4c1.1-0.3,2.1,0,2.9,0.8   c0.5,0.5,1,1,1.4,1.5c0.8,0.9,1.5,1.7,2.2,2.6c0.2,0.2,0.3,0.3,0.5,0.5c2.8-4.3,6.7-5.3,11.1-4.6c0-0.3,0.1-0.6,0.1-0.9   c0.6-0.3,1.2-0.3,1.8,0c0,0.1,0,0.2,0,0.4c-0.1,2.5-0.2,5-0.1,7.6c0,0.4,0.1,1.9-0.1,1.9c-0.1,0-0.3-0.3-0.4-0.5   c-0.6-1.3-0.9-2.7-1.1-4.1c0-0.1,0-0.2,0-0.4c-2.8,2.5-5.9,3.4-9.5,3.1c0.4,0.7,0.9,1.4,1.2,2c0.2,0.4,0.4,0.8,0.6,1.2   c0.1,0.1,0.2,0.5,0,0.5s-0.9-0.5-1.2-0.8c-1.1-1.2-2.2-2.4-3.3-3.5c-1.4-1.5-2.9-3-4.3-4.5c-0.7-0.8-1.4-0.7-2.2,0   c-0.9,0.9-1.5,1.9-2.2,2.9c-0.4,0.5-0.7,1.1-1.1,1.6c-0.2,0.2-0.4,0.4-0.6,0.6c-0.3,0.3-0.6,0.2-0.8-0.2c-0.1-0.2-0.2-0.5-0.2-0.8   c-0.4-2-0.6-4.1-0.8-6.2c-0.1-1.6-0.4-5.3-0.4-5.6c-0.6-0.1-1.2,0.1-1.8,0.5c-1.6,1-2.3,3-1.3,4.9c0.3,0.6,0.7,1.2,1,1.7   c0.4,0.7,0.9,1.3,1.3,2c0.7,1.2,0.5,2.7-0.3,3.8c-0.9,1.2-2,1.9-3.2,2.5c-0.6,0.3-1.2,0.6-1.8,0.8c-0.4,0.1-0.7,0.2-1.1,0.3   c-0.2,0-0.5,0.1-0.6-0.1c0-0.2,0.3-0.3,0.4-0.4c0.7-0.4,1.4-0.8,2.2-1.2c0.7-0.4,1.4-0.9,2-1.6c0.8-1,0.9-2.3,0.3-3.4   c-0.4-0.6-0.8-1.2-1.2-1.8c-0.8-1-1.4-2.1-1.7-3.3c-0.3-0.9-0.4-1.9-0.1-2.9c0.2-0.9,0.8-1.6,1.5-2c1.3-0.9,2.7-1.1,4.2-0.5   c0.1,0,0.2,0.1,0.3,0.1C17.6,78.4,17.5,72,17.6,69.3 M37.9,85.9c-1.6,0.2-2.9,1-4,2.4c-0.1,0.2-0.3,0.4-0.4,0.7   c-0.2,0.4,0,0.8,0.3,1c0.1,0.1,0.3,0.1,0.4,0.1c1,0.2,1.9,0.1,2.8-0.1c1.3-0.3,2.4-0.8,3.4-1.9c0.3-0.3,0.4-0.5,0.7-1   c0.2-0.5,0.1-0.8-0.3-1C40.4,85.9,39.3,85.7,37.9,85.9"
   id="path5093"
   style="fill:#000000" />
	<path
   d="M11,81.3c0,0.7-0.2,6.5-0.1,9.6c0,0.7,0,1.4,0,2.1c0,0.2-0.1,0.7-0.2,0.7c-0.2,0-0.4-0.5-0.5-0.7c-0.6-1.3-0.8-2.6-1.1-4   c-0.4-2.3-0.5-4.7-0.4-7.1c0-0.2,0-0.4,0-0.5C9.3,80.9,10.3,80.9,11,81.3"
   id="path5095"
   style="fill:#000000" />
	<path
   class="st4"
   d="M9.6,77.8c0.5,0,1,0.7,1.3,1.3c0.2,0.4,0.1,0.7-0.3,0.9s-1.5,0.2-1.8,0c-0.3-0.1-0.6-0.5-0.3-0.9   C8.8,78.6,9.1,77.8,9.6,77.8"
   id="path5097"
   style="fill:#000000" />
</g>
<g
   id="g5091"
   style="fill:#000000"
   transform="translate(0,-2)">
	<g
   id="g5053"
   style="fill:#000000">
		<path
   class="st0"
   d="m 6.6,10.3 c 0,-2.7 1.6,-4.5 4.4,-4.5 1.6,0 2.3,0.4 2.5,0.4 L 13.2,7 C 12.8,6.9 12.2,6.6 11,6.6 c -1.8,0 -3.4,1 -3.4,3.5 0,2.6 1.7,3.7 3.6,3.7 0.8,0 1.6,-0.2 2,-0.3 l 0.2,0.8 c -0.3,0.1 -1.1,0.4 -2.5,0.4 -2.7,0.1 -4.3,-1.8 -4.3,-4.4 z"
   id="path5051"
   style="fill:#000000" />
	</g>
	<g
   id="g5057"
   style="fill:#000000">
		<path
   class="st0"
   d="m 14.5,11.4 c 0,-2.7 1.3,-3.6 3,-3.6 1.7,0 2.4,1.1 2.4,3.3 v 0.4 h -4.4 c 0,2.1 1.1,2.5 2.5,2.5 0.5,0 1.4,-0.2 1.6,-0.3 l 0.2,0.8 c -0.2,0.1 -1,0.3 -2.1,0.3 -2,0 -3.2,-0.9 -3.2,-3.4 z m 4.4,-0.7 c 0,-1.3 -0.5,-2.2 -1.5,-2.2 -1,0 -1.7,0.8 -1.8,2.2 z"
   id="path5055"
   style="fill:#000000" />
	</g>
	<g
   id="g5061"
   style="fill:#000000">
		<path
   class="st0"
   d="m 21.6,7.9 h 1 v 0.9 c 0.3,-0.5 1,-1 1.9,-1 0.4,0 0.7,0.1 0.8,0.1 l -0.2,0.8 c -0.2,0 -0.4,-0.1 -0.8,-0.1 -0.8,0 -1.4,0.6 -1.7,1.1 v 4.9 h -1 z"
   id="path5059"
   style="fill:#000000" />
	</g>
	<g
   id="g5065"
   style="fill:#000000">
		<path
   class="st0"
   d="m 27.1,12.8 v -4 h -1 V 8 h 1 V 6.6 H 28 V 8 h 2.1 V 8.8 H 28 v 4 c 0,1 0.3,1.2 1.3,1.2 0.4,0 0.9,-0.1 1.1,-0.2 l 0.2,0.8 c -0.2,0.1 -0.8,0.2 -1.2,0.2 -1.3,-0.1 -2.3,-0.1 -2.3,-2 z"
   id="path5063"
   style="fill:#000000" />
	</g>
	<g
   id="g5069"
   style="fill:#000000">
		<path
   class="st0"
   d="m 31.6,5.9 0.8,-0.8 0.8,0.8 -0.8,0.8 z m 0.3,2 h 1 v 6.7 h -1 z"
   id="path5067"
   style="fill:#000000" />
	</g>
	<g
   id="g5073"
   style="fill:#000000">
		<path
   class="st0"
   d="m 35.3,8.7 h -1 V 7.9 h 1 V 7.5 c 0,-1.9 1,-2.4 2.3,-2.4 0.5,0 1.2,0.1 1.8,0.1 0.3,0 0.6,0 0.8,0 l 0.1,0.7 C 39.9,6 39.5,6.1 39,6.1 38.4,6.1 37.9,6 37.5,6 36.5,6 36.2,6.6 36.2,7.6 V 8 h 4.2 v 6.7 h -1 V 8.8 h -3.2 v 8.5 h -1 z"
   id="path5071"
   style="fill:#000000" />
	</g>
	<g
   id="g5077"
   style="fill:#000000">
		<path
   class="st0"
   d="m 42.3,11.4 c 0,-2.7 1.3,-3.6 3,-3.6 1.7,0 2.4,1.1 2.4,3.3 v 0.4 h -4.4 c 0,2.1 1.1,2.5 2.5,2.5 0.5,0 1.4,-0.2 1.6,-0.3 l 0.2,0.8 c -0.2,0.1 -1,0.3 -2.1,0.3 -2,0 -3.2,-0.9 -3.2,-3.4 z m 4.3,-0.7 c 0,-1.3 -0.5,-2.2 -1.5,-2.2 -1,0 -1.7,0.8 -1.8,2.2 z"
   id="path5075"
   style="fill:#000000" />
	</g>
	<g
   id="g5081"
   style="fill:#000000">
		<path
   class="st0"
   d="m 48.9,11.3 c 0,-2.3 1.4,-3.5 3.2,-3.5 0.6,0 0.9,0 1.3,0.2 V 5.5 h 1 v 9.2 h -1 v -0.6 c -0.4,0.4 -1,0.8 -1.7,0.8 -1.2,-0.2 -2.8,-0.6 -2.8,-3.6 z m 4.5,1.9 V 8.8 C 53.1,8.7 52.7,8.6 52.1,8.6 c -1.6,0 -2.2,1.4 -2.2,2.8 0,1.8 0.8,2.6 1.9,2.6 0.6,-0.1 1.3,-0.6 1.6,-0.8 z"
   id="path5079"
   style="fill:#000000" />
	</g>
	<g
   id="g5085"
   style="fill:#000000">
		<path
   class="st0"
   d="m 59.2,14.4 v -9 h 1 v 8.4 c 0.3,0.1 0.7,0.2 1.4,0.2 1.5,0 2.2,-1.2 2.2,-2.7 0,-1.4 -0.3,-2.6 -1.9,-2.6 -0.3,0 -0.6,0.1 -0.8,0.1 L 61,8.1 c 0.2,-0.1 0.6,-0.2 1.1,-0.2 1.7,0 2.7,1.1 2.7,3.2 0,2.8 -1.5,3.7 -3.2,3.7 -1.5,-0.1 -2.1,-0.3 -2.4,-0.4 z"
   id="path5083"
   style="fill:#000000" />
	</g>
	<g
   id="g5089"
   style="fill:#000000">
		<path
   class="st0"
   d="M 68.2,14.6 H 67.7 L 65.5,7.9 h 1.1 l 1.5,4.8 0.4,1.2 0.4,-1.2 1.6,-4.8 h 1 l -3.3,9.4 h -0.9 z"
   id="path5087"
   style="fill:#000000" />
	</g>
</g></svg>
