<?xml version="1.0" encoding="utf-8"?>
<!-- Generator: Adobe Illustrator 26.0.2, SVG Export Plug-In . SVG Version: 6.00 Build 0)  -->
<svg version="1.1" id="Layer_1" xmlns="http://www.w3.org/2000/svg" xmlns:xlink="http://www.w3.org/1999/xlink" x="0px" y="0px"
	 viewBox="0 0 109 117" style="enable-background:new 0 0 109 117;" xml:space="preserve">
<style type="text/css">
	.st0{fill:#FFFFFF;}
	.st1{clip-path:url(#SVGID_00000062185030416196743150000001713529460775918504_);}
	.st2{clip-path:url(#SVGID_00000108304864424686560480000007411821909787353007_);}
	.st3{clip-path:url(#SVGID_00000178162993485725245040000004105848068014009756_);}
	.st4{fill:#EC6611;}
	.st5{clip-path:url(#SVGID_00000030462046828343894440000003373783027851052440_);}
	.st6{fill:#E26E12;}
</style>
<g>
	<rect y="18.6" class="st0" width="109" height="98.4"/>
</g>
<g>
	<g>
		<defs>
			<rect id="SVGID_1_" x="-0.2" width="109.2" height="125.6"/>
		</defs>
		<clipPath id="SVGID_00000176027630040868774570000000014208466781198504_">
			<use xlink:href="#SVGID_1_"  style="overflow:visible;"/>
		</clipPath>
		<g style="clip-path:url(#SVGID_00000176027630040868774570000000014208466781198504_);">
			<g>
				<path d="M48.2,80.5h2.2v5.1h5.4v-5.1H58v12.1h-2.2v-5.2h-5.4v5.2h-2.2V80.5z"/>
			</g>
			<g>
				<path d="M64.2,80.5h2.9l4,12.1h-2.3l-1.3-3.9h-4.1L62,92.6h-2.2L64.2,80.5z M67,87l-1.4-5L64,87H67z"/>
			</g>
		</g>
	</g>
	<g>
		<defs>
			<rect id="SVGID_00000062902204623841970060000001330327503958172805_" x="-0.2" width="109.2" height="125.6"/>
		</defs>
		<clipPath id="SVGID_00000023246651664090686240000013193467583392736135_">
			<use xlink:href="#SVGID_00000062902204623841970060000001330327503958172805_"  style="overflow:visible;"/>
		</clipPath>
		<g style="clip-path:url(#SVGID_00000023246651664090686240000013193467583392736135_);">
			<g>
				<path d="M72.3,82.4h-3.7v-1.9h9.7v1.9h-3.7v10.3h-2.2V82.4H72.3z"/>
			</g>
			<g>
				<path d="M79.8,80.5H82v5.1h5.4v-5.1h2.2v12.1h-2.2v-5.2H82v5.2h-2.2V80.5z"/>
			</g>
		</g>
	</g>
	<g>
		<defs>
			<rect id="SVGID_00000155835705155035747560000001633151558223261828_" x="-0.2" width="109.2" height="125.6"/>
		</defs>
		<clipPath id="SVGID_00000150780969581281607240000003938476939329666712_">
			<use xlink:href="#SVGID_00000155835705155035747560000001633151558223261828_"  style="overflow:visible;"/>
		</clipPath>
		<g style="clip-path:url(#SVGID_00000150780969581281607240000003938476939329666712_);">
			<g>
				<path d="M94.5,80.5h2.9l4,12.1h-2.3l-1.3-3.9h-4.1l-1.4,3.9h-2.2L94.5,80.5z M97.2,87l-1.4-5l-1.6,5H97.2z"/>
			</g>
		</g>
	</g>
</g>
<g>
	<path class="st4" d="M102.3,98.5H7.4v-1.4h94.9V98.5z M96.6,76.1H25.9v-1.4h70.7V76.1z"/>
</g>
<g>
	<g>
		<path d="M8,109.7l0.3-0.9c0.6,0.2,1.1,0.4,1.8,0.4c0.8,0,1.6-0.3,1.6-1.1c0-1.7-3.6-1.3-3.6-3.7c0-1.3,1.1-1.9,2.3-1.9
			c0.9,0,1.5,0.2,1.9,0.4l-0.3,0.8c-0.5-0.2-0.9-0.3-1.6-0.3c-0.8,0-1.3,0.3-1.3,0.9c0,1.5,3.6,1.3,3.6,3.7c0,1.5-1.3,2.1-2.7,2.1
			C9.1,110.2,8.5,110,8,109.7z"/>
	</g>
	<g>
		<path d="M14.1,106.4c0-2.4,1.4-3.9,3.9-3.9c1.3,0,1.9,0.3,2.2,0.4l-0.3,0.9c-0.4-0.1-0.9-0.3-1.9-0.3c-1.5,0-2.7,0.8-2.7,2.8
			s1.3,2.9,2.9,2.9c0.7,0,1.3-0.1,1.7-0.3l0.3,0.9c-0.4,0.2-1,0.3-2.2,0.3C15.4,110.2,14.1,108.7,14.1,106.4z"/>
	</g>
	<g>
		<path d="M21.5,102.7h1.1v3.2h3.8v-3.2h1.1v7.4h-1.1v-3.3h-3.8v3.3h-1.1C21.5,110.1,21.5,102.7,21.5,102.7z"/>
	</g>
	<g>
		<path d="M29.2,106.4c0-2.3,1.5-3.8,3.9-3.8c2.5,0,3.7,1.6,3.7,3.8c0,2.3-1.4,3.8-3.9,3.8C30.5,110.2,29.2,108.7,29.2,106.4z
			 M35.6,106.4c0-1.6-0.9-2.9-2.6-2.9c-1.8,0-2.7,1.2-2.7,2.9c0,1.6,0.8,2.9,2.6,2.9C34.8,109.3,35.6,108,35.6,106.4z"/>
	</g>
	<g>
		<path d="M37.8,106.4c0-2.3,1.5-3.8,3.9-3.8c2.5,0,3.7,1.6,3.7,3.8c0,2.3-1.4,3.8-3.9,3.8C39.1,110.2,37.8,108.7,37.8,106.4z
			 M44.3,106.4c0-1.6-0.9-2.9-2.6-2.9c-1.8,0-2.7,1.2-2.7,2.9c0,1.6,0.8,2.9,2.6,2.9S44.3,108,44.3,106.4z"/>
	</g>
	<g>
		<path d="M47,102.7h1.1v6.5h3.2v0.9H47V102.7z"/>
	</g>
	<g>
		<path d="M54.3,106.4c0-2.3,1.5-3.8,3.9-3.8c2.5,0,3.7,1.6,3.7,3.8c0,2.3-1.4,3.8-3.9,3.8C55.6,110.2,54.3,108.7,54.3,106.4z
			 M60.8,106.4c0-1.6-0.9-2.9-2.6-2.9c-1.8,0-2.7,1.2-2.7,2.9c0,1.6,0.8,2.9,2.6,2.9S60.8,108,60.8,106.4z"/>
	</g>
	<g>
		<path d="M63.5,102.7h4.6v0.9h-3.5v2.5h3.2v0.9h-3.2v3.1h-1.1V102.7z"/>
	</g>
</g>
<g>
	<g>
		<path d="M75,107.4l-2.5-4.7h1.3l1.8,3.8l2-3.8h1.2l-2.7,4.7v2.7H75V107.4z"/>
	</g>
</g>
<g>
	<g>
		<path d="M79.1,106.4c0-2.3,1.5-3.8,3.9-3.8c2.5,0,3.7,1.6,3.7,3.8c0,2.3-1.4,3.8-3.9,3.8C80.4,110.2,79.1,108.7,79.1,106.4z
			 M85.5,106.4c0-1.6-0.9-2.9-2.6-2.9c-1.8,0-2.7,1.2-2.7,2.9c0,1.6,0.8,2.9,2.6,2.9C84.7,109.3,85.5,108,85.5,106.4z"/>
	</g>
	<g>
		<path d="M87.8,106.4c0-2.4,1.4-3.9,3.9-3.9c1.2,0,1.8,0.2,2.2,0.4l-0.3,0.9c-0.5-0.1-0.9-0.3-1.8-0.3c-1.5,0-2.7,0.8-2.7,2.8
			s1.3,2.9,2.9,2.9c0.4,0,0.8-0.1,1-0.1v-2.7h1.1v3.4c-0.7,0.2-1.3,0.4-2.3,0.4C89.2,110.2,87.8,108.7,87.8,106.4z"/>
	</g>
	<g>
		<path d="M97.8,102.7h1.5l2.6,7.4h-1.2l-0.9-2.6H97l-1,2.6h-1.2L97.8,102.7z M99.5,106.6l-1-3.2l-1.2,3.2H99.5z"/>
	</g>
</g>
<g>
	<g>
		<defs>
			<rect id="SVGID_00000174572507547805916850000003731018483946269853_" x="-0.2" width="109.2" height="125.6"/>
		</defs>
		<clipPath id="SVGID_00000095317143419498210530000009963621438805952703_">
			<use xlink:href="#SVGID_00000174572507547805916850000003731018483946269853_"  style="overflow:visible;"/>
		</clipPath>
		<g style="clip-path:url(#SVGID_00000095317143419498210530000009963621438805952703_);">
			<path class="st6" d="M59.8,61.1c0,0,6.9-4.6,11.5-4.6c2.9,0,7.3,1.7,7.2,6C78.3,67.6,69,68.4,59.8,61.1 M38,65.9
				c-1.6,0-3.4-0.7-3.4-2.5c0-1.7,3-7.1,9.3-7.1c5.2,0,9.9,4.5,9.9,4.5C51.1,63.2,44.6,65.9,38,65.9 M78.3,54.3
				c-4.7-3.4-12.7-0.8-17,2.6l-0.7-8.3c0,0,8.4-3.9,5.3-10.6c-0.3-0.7,0.8-1.5,0.5-2.8s-2.9-1.5-2.3,0.6c0.2,0.6,0.4,1.2,0.7,1.9
				c-1.4,5.9-7.9,6-7.9,6s-0.8-3-1.2-5.3c0.7-0.2,1.4-0.6,2-1.4c1.4-1.7,0.6-5.9-0.3-7.4c-1.3-1.9-3.7-2.5-5.5,0.1
				c-1.3,1.9-0.8,4.9-0.6,5.6c0.5,1.4,1.4,2.4,2.4,2.9c-0.3,2.8-0.3,4.6-0.3,4.6s-6.5-1.9-6.7-9.7c0-0.6-0.5-0.2-0.7,0.2
				c-3.3,9.3,6.6,13.1,6.6,13.1s-0.3,6.4-0.2,9.7L52.3,56c-2.7-2.6-5.2-4.8-9.5-4.8c-7.9,0-15.2,8-15.2,13.5c0,5.3,5.1,6.3,9.2,6.3
				c11.5,0,17.8-6.5,20.6-8.4c0,0,9.4,9,17.6,9c7.3,0,8.6-3.5,8.6-7.4C83.4,60.4,81.4,56.5,78.3,54.3"/>
		</g>
	</g>
</g>
<g>
	<rect x="-0.2" class="st6" width="109.2" height="19.8"/>
</g>
<g>
	<g>
		<path class="st0" d="M6.6,10.3c0-2.7,1.6-4.5,4.4-4.5c1.6,0,2.3,0.4,2.5,0.4L13.2,7c-0.4-0.1-1-0.4-2.2-0.4c-1.8,0-3.4,1-3.4,3.5
			c0,2.6,1.7,3.7,3.6,3.7c0.8,0,1.6-0.2,2-0.3l0.2,0.8c-0.3,0.1-1.1,0.4-2.5,0.4C8.2,14.8,6.6,12.9,6.6,10.3z"/>
	</g>
	<g>
		<path class="st0" d="M14.5,11.4c0-2.7,1.3-3.6,3-3.6s2.4,1.1,2.4,3.3v0.4h-4.4c0,2.1,1.1,2.5,2.5,2.5c0.5,0,1.4-0.2,1.6-0.3
			l0.2,0.8c-0.2,0.1-1,0.3-2.1,0.3C15.7,14.8,14.5,13.9,14.5,11.4z M18.9,10.7c0-1.3-0.5-2.2-1.5-2.2s-1.7,0.8-1.8,2.2H18.9z"/>
	</g>
	<g>
		<path class="st0" d="M21.6,7.9h1v0.9c0.3-0.5,1-1,1.9-1c0.4,0,0.7,0.1,0.8,0.1l-0.2,0.8c-0.2,0-0.4-0.1-0.8-0.1
			c-0.8,0-1.4,0.6-1.7,1.1v4.9h-1V7.9z"/>
	</g>
	<g>
		<path class="st0" d="M27.1,12.8v-4h-1V8h1V6.6H28V8h2.1v0.8H28v4c0,1,0.3,1.2,1.3,1.2c0.4,0,0.9-0.1,1.1-0.2l0.2,0.8
			c-0.2,0.1-0.8,0.2-1.2,0.2C28.1,14.7,27.1,14.7,27.1,12.8z"/>
	</g>
	<g>
		<path class="st0" d="M31.6,5.9l0.8-0.8l0.8,0.8l-0.8,0.8L31.6,5.9z M31.9,7.9h1v6.7h-1V7.9z"/>
	</g>
	<g>
		<path class="st0" d="M35.3,8.7h-1V7.9h1V7.5c0-1.9,1-2.4,2.3-2.4c0.5,0,1.2,0.1,1.8,0.1c0.3,0,0.6,0,0.8,0l0.1,0.7
			C39.9,6,39.5,6.1,39,6.1c-0.6,0-1.1-0.1-1.5-0.1c-1,0-1.3,0.6-1.3,1.6V8h4.2v6.7h-1V8.8h-3.2v8.5h-1L35.3,8.7L35.3,8.7z"/>
	</g>
	<g>
		<path class="st0" d="M42.3,11.4c0-2.7,1.3-3.6,3-3.6s2.4,1.1,2.4,3.3v0.4h-4.4c0,2.1,1.1,2.5,2.5,2.5c0.5,0,1.4-0.2,1.6-0.3
			l0.2,0.8c-0.2,0.1-1,0.3-2.1,0.3C43.5,14.8,42.3,13.9,42.3,11.4z M46.6,10.7c0-1.3-0.5-2.2-1.5-2.2s-1.7,0.8-1.8,2.2H46.6z"/>
	</g>
	<g>
		<path class="st0" d="M48.9,11.3c0-2.3,1.4-3.5,3.2-3.5c0.6,0,0.9,0,1.3,0.2V5.5h1v9.2h-1v-0.6c-0.4,0.4-1,0.8-1.7,0.8
			C50.5,14.7,48.9,14.3,48.9,11.3z M53.4,13.2V8.8c-0.3-0.1-0.7-0.2-1.3-0.2c-1.6,0-2.2,1.4-2.2,2.8c0,1.8,0.8,2.6,1.9,2.6
			C52.4,13.9,53.1,13.4,53.4,13.2z"/>
	</g>
	<g>
		<path class="st0" d="M59.2,14.4v-9h1v8.4c0.3,0.1,0.7,0.2,1.4,0.2c1.5,0,2.2-1.2,2.2-2.7c0-1.4-0.3-2.6-1.9-2.6
			c-0.3,0-0.6,0.1-0.8,0.1L61,8.1c0.2-0.1,0.6-0.2,1.1-0.2c1.7,0,2.7,1.1,2.7,3.2c0,2.8-1.5,3.7-3.2,3.7
			C60.1,14.7,59.5,14.5,59.2,14.4z"/>
	</g>
	<g>
		<path class="st0" d="M68.2,14.6h-0.5l-2.2-6.7h1.1l1.5,4.8l0.4,1.2l0.4-1.2l1.6-4.8h1l-3.3,9.4h-0.9L68.2,14.6z"/>
	</g>
</g>
<g>
	<path d="M17.6,69.3c0-0.6,0.1-1.2,0.1-1.8c0-0.1,0-0.3,0.1-0.4c0.1-0.3,0.3-0.5,0.6-0.4c0.3,0.1,0.5,0.2,0.7,0.4
		c0.4,0.4,0.8,0.9,1.2,1.3c0.3,0.4,0.4,0.9,0.4,1.5c-0.3,2.5-0.5,5-0.7,7.5s-0.2,4.9-0.1,7.4c0.1,1,0.1,1.9,0.1,2.9
		c0,0.2,0,0.4,0.1,0.7c0.1-0.2,0.2-0.3,0.3-0.4c0.6-1,1.3-2,1.9-3c0.5-0.7,1.1-1.2,1.8-1.4c1.1-0.3,2.1,0,2.9,0.8
		c0.5,0.5,1,1,1.4,1.5c0.8,0.9,1.5,1.7,2.2,2.6c0.2,0.2,0.3,0.3,0.5,0.5c2.8-4.3,6.7-5.3,11.1-4.6c0-0.3,0.1-0.6,0.1-0.9
		c0.6-0.3,1.2-0.3,1.8,0c0,0.1,0,0.2,0,0.4c-0.1,2.5-0.2,5-0.1,7.6c0,0.4,0.1,1.9-0.1,1.9c-0.1,0-0.3-0.3-0.4-0.5
		c-0.6-1.3-0.9-2.7-1.1-4.1c0-0.1,0-0.2,0-0.4c-2.8,2.5-5.9,3.4-9.5,3.1c0.4,0.7,0.9,1.4,1.2,2c0.2,0.4,0.4,0.8,0.6,1.2
		c0.1,0.1,0.2,0.5,0,0.5s-0.9-0.5-1.2-0.8c-1.1-1.2-2.2-2.4-3.3-3.5c-1.4-1.5-2.9-3-4.3-4.5c-0.7-0.8-1.4-0.7-2.2,0
		c-0.9,0.9-1.5,1.9-2.2,2.9c-0.4,0.5-0.7,1.1-1.1,1.6c-0.2,0.2-0.4,0.4-0.6,0.6c-0.3,0.3-0.6,0.2-0.8-0.2c-0.1-0.2-0.2-0.5-0.2-0.8
		c-0.4-2-0.6-4.1-0.8-6.2c-0.1-1.6-0.4-5.3-0.4-5.6c-0.6-0.1-1.2,0.1-1.8,0.5c-1.6,1-2.3,3-1.3,4.9c0.3,0.6,0.7,1.2,1,1.7
		c0.4,0.7,0.9,1.3,1.3,2c0.7,1.2,0.5,2.7-0.3,3.8c-0.9,1.2-2,1.9-3.2,2.5c-0.6,0.3-1.2,0.6-1.8,0.8c-0.4,0.1-0.7,0.2-1.1,0.3
		c-0.2,0-0.5,0.1-0.6-0.1c0-0.2,0.3-0.3,0.4-0.4c0.7-0.4,1.4-0.8,2.2-1.2c0.7-0.4,1.4-0.9,2-1.6c0.8-1,0.9-2.3,0.3-3.4
		c-0.4-0.6-0.8-1.2-1.2-1.8c-0.8-1-1.4-2.1-1.7-3.3c-0.3-0.9-0.4-1.9-0.1-2.9c0.2-0.9,0.8-1.6,1.5-2c1.3-0.9,2.7-1.1,4.2-0.5
		c0.1,0,0.2,0.1,0.3,0.1C17.6,78.4,17.5,72,17.6,69.3 M37.9,85.9c-1.6,0.2-2.9,1-4,2.4c-0.1,0.2-0.3,0.4-0.4,0.7
		c-0.2,0.4,0,0.8,0.3,1c0.1,0.1,0.3,0.1,0.4,0.1c1,0.2,1.9,0.1,2.8-0.1c1.3-0.3,2.4-0.8,3.4-1.9c0.3-0.3,0.4-0.5,0.7-1
		c0.2-0.5,0.1-0.8-0.3-1C40.4,85.9,39.3,85.7,37.9,85.9"/>
	<path d="M11,81.3c0,0.7-0.2,6.5-0.1,9.6c0,0.7,0,1.4,0,2.1c0,0.2-0.1,0.7-0.2,0.7c-0.2,0-0.4-0.5-0.5-0.7c-0.6-1.3-0.8-2.6-1.1-4
		c-0.4-2.3-0.5-4.7-0.4-7.1c0-0.2,0-0.4,0-0.5C9.3,80.9,10.3,80.9,11,81.3"/>
	<path class="st4" d="M9.6,77.8c0.5,0,1,0.7,1.3,1.3c0.2,0.4,0.1,0.7-0.3,0.9s-1.5,0.2-1.8,0c-0.3-0.1-0.6-0.5-0.3-0.9
		C8.8,78.6,9.1,77.8,9.6,77.8"/>
</g>
</svg>
