<?xml version="1.0" encoding="UTF-8" standalone="no"?>
<!-- Created with Inkscape (http://www.inkscape.org/) -->

<svg
   width="86.16mm"
   height="31.18mm"
   viewBox="0 0 86.16 31.18"
   version="1.1"
   id="svg5"
   xml:space="preserve"
   inkscape:version="1.2.1 (9c6d41e410, 2022-07-14)"
   sodipodi:docname="leafline.svg"
   xmlns:inkscape="http://www.inkscape.org/namespaces/inkscape"
   xmlns:sodipodi="http://sodipodi.sourceforge.net/DTD/sodipodi-0.dtd"
   xmlns="http://www.w3.org/2000/svg"
   xmlns:svg="http://www.w3.org/2000/svg"><sodipodi:namedview
     id="namedview7"
     pagecolor="#505050"
     bordercolor="#eeeeee"
     borderopacity="1"
     inkscape:showpageshadow="0"
     inkscape:pageopacity="0"
     inkscape:pagecheckerboard="0"
     inkscape:deskcolor="#505050"
     inkscape:document-units="mm"
     showgrid="false"
     inkscape:zoom="0.841"
     inkscape:cx="205.1"
     inkscape:cy="166.5"
     inkscape:window-width="1920"
     inkscape:window-height="1046"
     inkscape:window-x="-11"
     inkscape:window-y="-11"
     inkscape:window-maximized="1"
     inkscape:current-layer="layer1" /><defs
     id="defs2" /><g
     inkscape:label="Layer 1"
     inkscape:groupmode="layer"
     id="layer1"
     transform="translate(-20.64,-161.2)"><path
       style="fill:#353535;fill-opacity:1;stroke-width:0.5;stroke-dasharray:none"
       d="m 88.65,191.6 c -3.64,-1.2 -6.5,-3.2 -8.47,-5.8 -2.5,-3.2 -2.74,-3.5 -6.64,-4.6 -1.95,-0.5 -5.44,-1.6 -7.79,-2.4 -6.41,-2.4 -10.51,-3.6 -13.51,-3.8 -0.64,0 -0.64,0 0.16,0.4 3.08,1.6 3.94,2.4 6.62,5.9 1.54,1.8 3.15,3.7 3.75,4.1 0.86,0.8 1.3,1.4 1,1.5 -0.3,0.1 -4.07,-1.4 -5.52,-2.1 -2.03,-0.8 -4.04,-2.7 -6.78,-6 -2.49,-3.1 -3.58,-4 -5.2,-3.9 -1.33,-0.1 -8.98,1.6 -10.49,2.1 l -1.29,0.6 h 1.63 c 1.95,0.1 5.09,1 7.67,2 2.04,1.1 4.91,3.1 5.06,3.7 0.11,0.5 -1.83,1.2 -3.28,1 -1.73,0 -6.15,-1 -7.86,-1.9 -0.78,-0.3 -2.12,-1.5 -3.02,-2.3 -1.28,-1.3 -1.78,-1.7 -2.35,-1.5 -1.51,0.1 -8.08,4.4 -10.13,6.8 -0.94,0.9 -1.22,1.1 -1.47,0.8 -0.37,-0.4 0.2,-0.9 3.12,-3.2 5,-3.9 4.44,-3.3 4.83,-6.2 0.47,-4.1 1.66,-6.8 4.24,-9.2 1.53,-1.4 2.01,-1.5 2.22,-0.6 0.36,1.9 -1.6,7.1 -3.82,10.2 -0.66,0.8 -1.01,1.5 -0.74,1.4 0.62,-0.4 3.92,-1.8 5.46,-2.3 l 1.43,-0.5 0.61,-2 c 0.91,-2.5 3.77,-6.8 5.5,-8.4 1.74,-1.5 4.51,-2.9 6.92,-3.5 l 1.93,-0.7 -0.89,2.2 c -0.5,1.1 -1.13,2.5 -1.52,3 -1.21,2 -4.66,5.1 -8.53,7.6 l -1.8,1.3 3.28,-0.6 c 3.34,-0.5 5.17,-0.6 8.49,-0.4 2.77,0.1 3.59,-0.3 7.7,-4.2 2.68,-2.4 4.77,-3.6 7.46,-4.4 2.54,-0.6 5.32,-1 5.4,-0.6 0,0.1 -0.33,0.4 -0.68,0.6 -0.46,0.4 -1.59,1.4 -2.52,2.3 -2.45,2.3 -3.64,3.1 -7.58,4.3 -1.84,0.5 -4.03,1.1 -4.98,1.5 l -1.7,0.7 3.45,0.8 c 1.95,0.6 4.58,1.4 5.9,2 1.34,0.5 2.76,0.9 3.06,0.9 1.12,0 3.83,-1.2 6.32,-3 4.02,-2.8 7.31,-3.7 10.73,-2.9 h 1.06 l -0.62,0.6 c -0.38,0.1 -1.51,1.1 -2.66,1.9 -2.06,1.6 -2.22,1.7 -4.6,2 -1.36,0.3 -3.74,0.7 -5.33,0.9 -1.69,0.4 -3.15,0.6 -3.52,0.8 -0.42,0.3 -0.22,0.4 2.09,1.2 4.93,1.6 8.35,1.8 13.14,0.8 2.35,-0.5 3.21,-0.7 6.09,-2.1 2.85,-1.5 3.71,-1.8 6.15,-2.4 1.87,-0.4 3.55,-0.6 4.97,-0.6 2.6,0.1 6,0.6 6,0.9 0,0.1 -0.7,0.3 -1.5,0.5 -0.9,0.1 -2.7,0.9 -4.2,1.5 -3.47,1.4 -6.4,2 -10.01,1.8 -2.5,-0.1 -3.09,0 -4.71,0.5 -1.93,0.7 -6.07,1.3 -7.31,1.3 -0.4,0 0.27,0.4 1.53,0.8 3.21,1.3 3.82,1.8 9.23,7.3 1.05,1 2.07,2 2.1,2.2 0.31,0.4 -1.07,0.1 -3.28,-0.6 z m 0.65,-1.3 c -0.5,-0.4 -1.37,-1.2 -1.87,-1.6 -0.46,-0.3 -0.87,-0.8 -0.81,-0.9 0,-0.1 -0.18,-0.5 -0.51,-0.6 -0.35,-0.2 -0.58,-0.3 -0.55,-0.2 0,0.1 -0.28,0 -0.65,-0.1 -0.81,-0.4 -0.82,-0.9 0.1,-0.5 0.45,0.1 0.57,0.2 0.31,-0.1 -0.23,0 -0.39,-0.2 -0.31,-0.4 0.15,-0.3 -3.03,-2.3 -4.22,-2.7 -0.45,-0.2 -0.87,-0.1 -0.87,-0.1 0,0 0.95,0.5 2.22,1.2 1.14,0.6 1.99,1.3 1.91,1.4 0.1,0.2 -0.39,0 -0.85,-0.2 -0.38,-0.3 -0.68,-0.4 -0.66,-0.3 0.35,0.7 0,0.7 -0.93,0 -0.76,-0.7 -1.09,-0.8 -1.22,-0.5 0,0.3 0,0.4 0.21,0.1 0.19,-0.2 0.27,-0.2 0.24,0.1 0,0.2 0.11,0.6 0.36,0.8 0.25,0.3 0.43,0.6 0.36,0.7 0,0.3 0,0.3 0.21,0.1 0.16,-0.3 0.27,-0.1 0.15,0.1 0,0.5 2.5,2.9 2.73,2.6 0.2,-0.1 0.55,0 1.03,0.4 0.39,0.4 1.08,0.8 1.42,0.9 l 0.78,0.4 -0.73,-0.6 c -1.19,-0.9 -0.39,-0.9 0.91,-0.1 0.58,0.5 1.26,0.8 1.36,0.7 0.11,-0.1 0.28,0 0.41,0 0.13,0.1 0.25,0.1 0.35,0.2 0.1,0 -0.3,-0.4 -0.78,-0.8 z m -2.28,-1.1 c -1.11,-0.9 -2.05,-1.6 -2.03,-1.5 -0.13,0.2 0.19,0.4 0.65,0.8 1.11,0.9 0.93,1.4 -0.16,0.6 -0.47,-0.2 -0.91,-0.3 -0.99,-0.2 -0.14,0.2 -2.42,-1.8 -2.38,-2.2 0.11,-0.1 -0.22,-0.6 -0.6,-0.9 -0.47,-0.3 -0.64,-0.7 -0.64,-0.7 0.2,0 2.98,2.8 3.06,3 0,0.1 0.11,0.1 0.3,0.1 0.49,-0.1 0.48,-0.2 -0.63,-1.2 -1.1,-0.9 -1.29,-1.7 -0.25,-1.1 0.36,0.2 0.56,0.2 0.7,0 0.18,-0.3 0.36,-0.3 0.52,-0.1 0.11,0.1 0.14,0.3 -0.11,0.1 -0.12,0 -0.31,0 -0.37,0.3 0,0.2 0.95,1.1 2.18,2.1 2.33,1.8 3.08,2.5 2.88,2.5 0,0 -0.97,-0.8 -2.18,-1.6 z m -1.42,-0.4 c -0.45,-0.4 -0.82,-0.5 -0.82,-0.5 -0.15,0.3 1.19,1.2 1.48,1.1 0,0 -0.26,-0.2 -0.66,-0.6 z M 83.81,188 c 0,0 -0.25,-0.2 -0.48,-0.4 -0.56,-0.2 -0.56,-0.2 -0.11,0.1 0.38,0.3 0.61,0.6 0.56,0.3 z m 1.01,-0.5 c -0.12,-0.1 -0.52,-0.6 -1.11,-1 -0.99,-0.8 -0.92,-0.6 0.23,0.6 0.62,0.6 0.95,0.8 0.88,0.4 z m 1.04,0 c -0.39,-0.5 -0.39,-0.5 0.1,-0.1 0.22,0 0.58,0.3 0.58,0.3 0.11,0.2 -0.28,0.1 -0.65,-0.2 z M 100.1,178 c 1.3,-0.4 1.7,-0.5 1.4,-0.7 -0.5,0 -0.1,-0.2 1.2,-0.4 1.2,-0.3 1.3,-0.5 0.5,-0.3 -0.9,0 -1,0 -0.6,-0.3 0.4,-0.3 0.4,-0.3 -0.1,-0.1 -0.4,0.2 -2.2,0.6 -4.17,1.1 -3.5,0.7 -3.5,0.7 -0.94,0.4 l 2.5,-0.4 -2.81,0.9 c -1.53,0.3 -3.48,0.9 -4.35,1 -1.78,0.4 -1.76,0.5 -0.19,0.6 1.02,0 3.56,-0.5 7.56,-1.8 z m -4.89,0.9 c 0.56,-0.2 1.53,-0.5 2.11,-0.6 1.09,-0.1 1.09,-0.1 -0.14,0.2 -0.75,0.4 -1.74,0.6 -2.23,0.6 -0.78,0.2 -0.78,0.2 0.26,-0.2 z m -4.29,0.5 c -0.12,-0.1 -0.41,0 -0.49,0 -0.18,0.2 -0.18,0.2 0.11,0.2 0.32,0 0.5,-0.2 0.38,-0.2 z m -30.52,5.5 c -0.61,-0.4 -0.79,-0.9 -0.24,-0.6 0.22,0 0.22,0 0.12,-0.2 -0.12,0 -0.44,0 -0.53,0 -0.2,0 -0.34,-0.2 -0.47,-0.4 -0.14,-0.1 -0.11,-0.3 0.17,-0.1 0.43,0.2 -1.07,-1.7 -2.47,-3.2 -1.77,-1.6 -4.06,-3.1 -5.18,-3.7 l -1.04,-0.4 0.86,0.5 c 0.59,0.4 0.86,0.7 0.78,0.7 -0.12,0.1 0.1,0.2 0.17,0.5 0.35,0.2 0.4,0.4 0.23,0.6 -0.23,0.4 -0.21,0.5 0.11,0.4 0.67,-0.2 0.7,-0.5 0.31,-1 -0.24,-0.1 -0.38,-0.3 -0.29,-0.3 0,0 0.61,0.5 1.23,0.9 0.76,0.7 0.87,0.8 0.29,0.6 -1.16,-0.8 -1.09,0 0.13,1.4 0.54,0.5 0.96,1.1 0.89,1.2 0,0.2 0.22,0.7 0.5,1 0.64,0.5 0.87,0.7 1.36,0.6 0.11,-0.1 0.68,0.3 1.18,0.8 0.62,0.5 1.19,0.8 1.28,0.7 0.1,-0.1 0.28,-0.1 0.51,0.1 0.26,0.2 0.48,0.3 0.58,0.3 0.1,0 -0.15,-0.1 -0.38,-0.4 z m -3.32,-2.3 c -2.3,-2.1 -3.72,-3.6 -3.39,-3.4 0.14,0.1 5.27,4.7 5.69,5.2 0.13,0.2 0.28,0.3 0.17,0.4 -0.1,0 -1.12,-1 -2.47,-2.2 z m 0,-1.1 c -1.12,-1 -1.79,-1.7 -1.56,-1.5 0.57,0.2 3.65,3.3 3.57,3.4 -0.1,0 -0.98,-0.8 -2.01,-1.9 z m -0.78,1.3 c -0.37,-0.4 -0.64,-0.7 -0.67,-0.8 -0.1,-0.2 0.22,0 0.71,0.5 0.5,0.2 0.89,0.7 0.89,0.7 0.11,0.3 -0.3,0 -0.93,-0.4 z m 43.64,-6.4 c -1.02,0 -2.49,0.3 -3.37,0.5 l -1.57,0.3 1.7,-0.1 c 1.01,-0.1 2.48,-0.4 3.4,-0.6 l 1.6,-0.3 z m -4.13,0.2 2.4,-0.6 -2.82,0.6 c -1.46,0.4 -3.09,0.9 -3.55,1.2 -0.64,0.3 -0.54,0.3 0.42,0 0.67,-0.2 2.29,-0.8 3.55,-1.2 z m -48.79,6.7 c 0.23,-0.5 0.31,-0.6 0.14,-0.6 -0.11,0.2 -0.24,0 -0.19,-0.2 0.1,-0.6 -3.19,-2.2 -6.3,-2.8 -3.24,-0.9 -3.73,-0.8 -1.21,-0.1 3.43,1.2 7.52,3 6.83,3 -0.53,-0.2 -0.62,0 -0.27,0.2 0.21,0 0.34,0.2 0.15,0.2 -0.11,0.1 -0.53,-0.1 -0.86,-0.2 -0.48,-0.4 -0.48,-0.4 -0.11,-0.3 1.06,0.2 0.38,-0.2 -2.3,-1.4 -2.35,-0.8 -7.67,-2.4 -8.16,-2.3 -0.1,0 0.38,0.4 1.06,0.8 0.6,0.3 1,0.8 0.9,0.8 -0.11,-0.1 0,0.1 0.28,0.3 0.6,0.5 -0.1,0.5 -0.85,-0.1 l -0.79,-0.4 0.61,0.5 c 1.29,1.3 7.13,3.3 7.93,2.7 0.27,-0.1 0.39,0 0.34,0.2 0,0.2 0,0.2 0.24,0.1 0.11,-0.1 0.56,-0.1 0.99,-0.1 0.85,0.2 1.05,0.1 1.55,-0.3 z m -4.21,-0.7 c -1.64,-0.4 -3.12,-0.7 -3.1,-0.6 -0.11,0.1 1.45,0.6 3.31,1 0.43,0.2 0.76,0.3 0.58,0.5 -0.68,0.1 -6.46,-2.1 -6.23,-2.5 0.11,-0.1 -0.11,-0.2 -0.29,-0.4 -0.4,-0.5 -0.51,-0.4 2.71,0.7 3,1.2 6.11,2 6.67,1.7 0.27,-0.1 0.38,-0.1 0.32,0 -0.19,0.6 -0.73,0.6 -3.97,-0.4 z m -3.95,-1.3 c -0.57,-0.3 -1.02,-0.5 -1.22,-0.4 -0.1,0 0.16,0.2 0.74,0.5 0.46,0.3 1,0.4 1.11,0.4 0.1,0 -0.16,-0.2 -0.63,-0.5 z m 4.53,0.7 c -1.4,-0.4 -1.78,-0.7 -0.7,-0.5 0.87,0.3 2.11,0.8 1.91,0.9 -0.1,0 -0.62,-0.2 -1.21,-0.4 z m -2.44,-0.9 c -0.54,-0.2 -0.54,-0.2 0.12,-0.1 0.33,0.2 0.67,0.3 0.67,0.3 0.1,0.3 -0.15,0.2 -0.76,-0.2 z m -2.91,-0.9 c -0.89,-0.2 -1.56,-0.5 -1.58,-0.6 0,-0.1 2.59,0.6 3.07,1 0.47,0.3 0.11,0.2 -1.49,-0.4 z m 19.93,0.2 c -0.25,-0.3 -0.76,-0.7 -1.12,-1 -0.35,-0.1 -0.53,-0.5 -0.44,-0.6 0.15,-0.4 -1.32,-1.5 -2.69,-2.2 -0.79,-0.4 -0.92,-0.4 -0.53,-0.1 0.38,0.4 0.61,0.5 0.51,0.5 -0.2,0 0.44,0.6 1.26,1.2 0.85,0.7 1.83,1.4 2.35,1.9 0.92,1 1.24,1.1 0.66,0.3 z m -3.07,-2.5 c -0.7,-0.5 -1.08,-0.8 -0.86,-0.8 0.41,0.1 2.43,1.6 2.15,1.5 0,0 -0.67,-0.2 -1.29,-0.7 z m -0.94,2.8 c -0.17,-0.2 -0.39,-0.4 -0.49,-0.3 0,0 0.1,0.2 0.29,0.4 0.17,0.2 0.42,0.5 0.53,0.4 0,0 -0.11,-0.2 -0.33,-0.5 z m 25.97,-5.2 0.83,-0.4 -1.2,0.1 -1.2,0.1 1.45,-0.4 c 0.78,-0.2 1.72,-0.6 2.07,-0.9 l 0.7,-0.5 -0.95,0.3 c -0.58,0.2 -2.01,0.8 -3.34,1.2 -2.18,0.7 -2.18,0.7 -1.07,0.7 0.9,-0.1 0.64,0.1 -0.96,0.3 -1.16,0.3 -1.96,0.5 -1.72,0.6 0.44,0.2 4.27,-0.6 5.39,-1.1 z m -4.5,0 c -0.42,-0.1 -0.32,-0.1 0.38,-0.3 1.12,0.1 6.9,-2 6.66,-2.3 -0.16,-0.2 -1.24,-0.1 -3.75,0.2 -1.01,0 -1.08,0.1 -0.57,0.2 0.54,0.1 0.55,0.2 0.16,0.2 -0.29,0.1 -1.31,0.6 -2.33,1.1 -1.28,0.7 -1.64,1 -1.21,1.1 0.73,0.1 1.41,-0.1 0.66,-0.2 z m 0.63,-0.5 c -0.1,-0.3 3.72,-1.7 4.42,-1.9 0.6,0 0.6,0 -0.17,0.2 -0.47,0.3 -1.51,0.7 -2.25,1 -1.39,0.6 -1.98,0.8 -2,0.7 z m 0.78,-1.1 0.64,-0.4 -0.69,0.1 c -0.3,0.1 -0.76,0.3 -0.94,0.4 -0.35,0.4 -0.33,0.4 0.11,0.3 0.19,-0.1 0.66,-0.3 0.94,-0.4 z m -34.13,5.8 c -0.1,-0.3 -3.85,-1.3 -5.62,-1.4 -2.31,-0.5 -3.31,-0.4 -1.5,0 0.65,0.2 1.18,0.3 1.1,0.4 -0.11,0.1 0,0.1 0.31,0.1 0.28,-0.2 1.55,0 3.05,0.3 2.92,0.8 2.71,0.8 2.66,0.6 z m 17.51,-8.1 c -0.13,-0.2 0.17,-0.2 0.67,-0.2 1.17,0.1 2.9,-0.4 4.29,-1 1.76,-0.9 1.16,-1 -1.12,0 -1.21,0.5 -2.17,0.8 -2.58,0.8 -0.44,-0.1 0,-0.4 2.34,-1.5 3.72,-1.8 6.79,-3.7 6.13,-3.9 -0.43,-0.1 -3.71,1.2 -5.43,2.3 -1.55,0.9 -0.68,0.7 1.82,-0.6 1.3,-0.7 2.7,-1.2 2.97,-1.4 l 0.64,-0.3 -0.62,0.4 c -0.25,0.3 -1.82,1.1 -3.4,1.9 -2.59,1.2 -7.27,3.8 -7.22,4 0,0 0.38,-0.1 0.88,-0.2 0.48,-0.1 0.76,-0.2 0.64,-0.2 z m -27.79,3 c 1.11,-2.2 2.01,-4.7 1.96,-5.5 0,-0.3 0.1,-0.8 0.1,-1.1 0,-0.4 -0.1,0 -0.37,0.6 -0.45,1.2 -1.2,1.6 -0.84,0.3 0,-0.3 -0.21,0 -0.58,0.8 -0.69,1 -0.69,1 -0.43,0.3 l 0.23,-0.7 -0.49,0.5 c -0.23,0.4 -0.48,0.7 -0.6,0.5 -0.24,-0.1 -2.15,4.4 -2.07,4.8 0.17,0.3 0.17,0.3 0.2,0 0,-0.2 0.13,-0.3 0.26,-0.3 0.21,0.1 0.38,-0.1 0.44,-0.3 0,-0.2 -0.1,-0.2 -0.21,0 -0.16,0.2 -0.27,0.1 -0.21,-0.1 0,-0.4 0.75,-0.7 1.12,-0.4 0,0.1 0.32,0 0.47,-0.1 0.34,-0.4 0.34,-0.4 0.15,0.1 -0.14,0.5 -0.28,0.6 -0.39,0.5 -0.12,0 -0.37,0.2 -0.53,0.5 -0.21,0.5 -0.21,0.5 0.1,0.2 0.28,-0.2 0.28,-0.2 0.24,0.1 0.1,0.2 -0.23,0.4 -0.43,0.5 -0.22,-0.2 -0.2,-0.1 -0.11,0.1 0.12,0 0.11,0.4 -0.1,0.6 -0.53,2 0.57,0.9 2.11,-1.9 z m -1.78,2.1 c 0,-0.2 0.72,-1.4 1.39,-2.6 0.58,-1.1 1.37,-2.8 1.63,-3.6 0.42,-1.4 0.73,-1.8 0.38,-0.6 -0.28,1.1 -1.69,4.3 -2.77,5.8 -0.46,0.9 -0.79,1.3 -0.63,1 z m 0.1,-3 c -0.28,-0.3 0,-0.7 0.64,-0.9 0.29,0 0.45,-0.2 0.47,-0.6 0,-0.3 -0.11,-0.5 -0.28,-0.3 -0.11,0.1 -0.2,-0.1 -0.24,-0.3 -0.11,-0.2 -0.34,0.3 -0.61,1 -0.36,0.7 -0.56,1.2 -0.61,1 -0.1,-0.2 0.74,-2.2 1.2,-3.1 0.1,-0.1 0.31,0.1 0.58,0.5 0.28,0.3 0.32,0.5 0.2,0.4 -0.22,0 -0.19,0.1 0,0.3 0.17,0.4 0.37,0.4 0.36,-0.2 -0.12,-0.9 0.45,-1.9 0.7,-1.6 0.23,0.1 0,0.7 -0.44,1.9 -0.42,0.9 -0.88,1.6 -0.98,1.7 -0.12,-0.1 -0.31,-0.1 -0.47,0.1 -0.15,0.2 -0.25,0.3 -0.49,0.1 z m 0.2,-1.1 c -0.11,-0.4 0.39,-0.7 0.57,-0.2 0.11,0.1 0.1,0.3 -0.14,0.2 -0.2,0.1 -0.41,0.1 -0.43,0 z m 31.68,-2 c 0,0 -0.31,0 -0.49,0.2 -0.18,0 -0.11,0 0.23,0.1 0.3,-0.1 0.38,-0.2 0.26,-0.3 z m 3,-1.1 c 1.31,-0.6 2.42,-1.3 2.64,-1.6 0.25,-0.3 0.32,-0.4 0.15,-0.3 -0.17,0.2 -1.46,0.9 -2.93,1.6 -3.06,1.5 -3.02,1.7 0.14,0.3 z m -5.16,0.7 c 0.35,-0.3 0.9,-0.6 1.03,-0.5 0.22,0 0.19,-0.1 0,-0.3 -0.26,-0.2 -0.17,-0.2 0.15,-0.2 0.22,0 0.77,-0.1 1.23,-0.5 0.54,-0.2 1.8,-1 2.93,-1.6 1.09,-0.6 1.71,-1.1 1.42,-1 -0.3,0.1 -1.13,0.5 -1.77,0.8 -0.75,0.4 -1.42,0.7 -1.51,0.6 -0.34,-0.1 -2.6,1.3 -3.71,2.4 -1.01,0.9 -0.91,1.1 0.16,0.3 z m 1.86,-1.5 c 0.34,-0.3 0.87,-0.7 1.14,-0.8 0.39,-0.2 0.22,0 -0.31,0.5 -0.96,0.7 -1.72,1 -0.83,0.3 z m -17.37,2.6 c 1.31,-1 2.43,-2.1 2.56,-2.4 0.16,-0.3 -0.81,0.5 -2.12,1.6 -1.41,1.1 -2.54,2 -2.63,2 -0.3,0 -0.2,-0.8 0.1,-1 0.18,-0.2 0.3,-0.1 0.24,0.1 0,0.2 0.11,0.2 0.21,0.1 0.28,-0.1 0.35,-0.2 0.14,-0.4 -0.22,0 -0.11,-0.4 0.35,-0.7 0.44,-0.3 0.68,-0.7 0.56,-0.8 -0.13,0 -0.64,0.4 -1.15,0.9 -0.41,0.5 -0.96,0.9 -1.05,0.9 -0.12,-0.1 2.71,-2.7 5.02,-4.9 2.26,-1.8 3.83,-3.6 3.77,-4 -0.11,-0.3 -0.12,-0.5 -0.21,-0.5 -0.1,0.1 -2.25,1.9 -2.85,2.5 -1.11,1.2 -0.36,0.7 1.19,-0.6 0.87,-0.8 1.59,-1.2 1.59,-1.2 0.11,0 -4.95,4.7 -5.58,5.1 -0.17,0.1 -0.19,0 -0.14,-0.2 0,-0.3 0,-0.3 -0.13,-0.1 -0.18,0.1 -0.14,0.3 -0.14,0.4 0.13,0.2 0.11,0.4 -0.17,0.6 -0.62,0.4 -0.82,0.5 -0.69,0.2 0.13,-0.5 -0.53,-0.7 -0.84,-0.2 -0.13,0.3 -0.13,0.3 0.23,0.1 0.27,-0.1 0.39,0 0.46,0.3 0,0.2 -0.19,0.5 -0.38,0.5 -0.19,0.2 -0.21,0.1 -0.15,-0.1 0,-0.1 -0.11,-0.3 -0.18,-0.4 -0.11,-0.1 -0.18,0.2 -0.14,0.5 0.11,0.4 0,0.7 -0.36,0.7 -0.4,0.2 -0.61,0.1 -0.54,0 0.14,-0.3 -1,0.1 -1.24,0.4 -0.14,0.2 -0.18,0.5 -0.16,0.8 -0.1,0.4 0.11,0.3 0.29,0 0.15,-0.2 0.43,-0.4 0.52,-0.4 0.1,0 0.11,-0.1 0,-0.2 -0.16,-0.3 0.23,-0.4 0.49,-0.1 0.11,0.1 0.15,0.3 0.11,0.4 -0.15,0.3 -0.21,0.5 -0.16,0.7 0,0.1 0,0.3 -0.23,0.2 -0.18,0.2 -0.3,0.1 -0.15,-0.1 0,-0.2 0,-0.3 -0.11,-0.1 -0.18,0.2 -0.23,0.4 -0.14,0.5 0.13,0 0,0.3 -0.19,0.5 -0.28,0.1 -0.23,0.4 -0.14,0.4 0.1,-0.1 0.46,-0.4 0.7,-0.6 0.26,-0.2 0.51,-0.5 0.6,-0.5 0.3,-0.2 0.23,0.4 -0.1,0.8 -0.66,0.7 0.6,-0.1 2.72,-1.7 z m -4.3,-0.1 c 0,-0.1 0.15,-0.1 0.3,-0.4 0.16,-0.2 0.26,-0.3 0.32,0 0.11,0.2 0,0.3 -0.23,0.4 -0.2,0.1 -0.39,0 -0.39,0 z m -0.75,1.5 c 0.21,-0.5 0.21,-0.5 -0.11,-0.1 -0.25,0.2 -0.39,0.5 -0.39,0.5 0.11,0.2 0.22,0 0.5,-0.4 z m 1.4,-2.7 c 0.3,-0.1 0.71,0 0.93,-0.1 0.23,0.2 0.32,0 0.35,-0.3 0.13,-0.2 0,-0.4 -0.24,-0.1 -0.65,0.5 -0.49,0.2 3.84,-5 0.17,-0.3 0.36,-0.2 0.47,-0.1 0.11,-0.1 -0.2,0.3 -0.71,0.9 -0.43,0.3 -1.15,1.3 -1.64,1.9 -0.73,0.8 -0.79,1 -0.29,1.1 0.22,0 0.41,0 0.3,-0.1 -0.33,-0.1 0.6,-1 0.94,-0.9 0.1,0 0.37,-0.1 0.62,-0.4 0.41,-0.5 0.41,-0.5 -0.12,0 -0.8,0.5 -0.66,0.2 0.29,-0.6 0.83,-0.9 1.21,-1.2 0.64,-0.3 -0.4,0.4 -0.4,0.4 0.13,0 0.26,-0.2 0.4,-0.6 0.38,-0.7 -0.12,0 0.28,-0.6 0.93,-1.4 1.29,-1.1 1.13,-1.4 -0.3,-0.4 -0.44,0.2 -1.01,0.6 -1.23,0.6 -0.19,-0.1 -0.81,0.4 -1.49,1 -1.26,1.4 -1.43,1.6 -1.33,1 0.21,-0.4 -0.81,0.6 -2.11,2.2 -0.5,0.5 -1.2,1.5 -1.64,2.5 l -0.87,1.6 0.86,-1.2 c 0.39,-0.6 1.09,-1.1 1.29,-1.2 z M 42,168.6 c 0.45,-1 1.1,-1.7 1.36,-2 0.52,-0.3 0.44,-0.2 -1.16,1.8 l -1.12,1.7 z m 3.9,1.1 c 2.09,-1.9 2.27,-2 2.07,-1.5 0,0.3 0,0.3 0.12,0.1 0.17,0 0.24,-0.3 0.15,-0.3 -0.15,-0.3 0.19,-0.6 0.61,-1 0.43,-0.4 0.74,-0.9 0.62,-0.9 -0.11,-0.1 0.1,-0.6 0.45,-0.9 0.42,-0.3 0.73,-0.8 0.79,-1 0,-0.3 -0.11,-0.3 -0.48,0.1 -0.94,0.9 -2.74,2.6 -4.29,3.9 -0.86,0.8 -1.54,1.4 -1.45,1.5 0,0.1 1.08,-0.7 2.31,-1.7 1.22,-1.1 2.28,-1.9 2.38,-1.9 0.2,0 -0.24,0.3 -0.84,0.9 -1.68,1.3 -4.78,4.1 -4.76,4.2 0.11,0.3 0.61,-0.1 2.32,-1.6 z"
       id="path357" /></g></svg>
