<?xml version="1.0" encoding="UTF-8" standalone="no"?>
<!-- Created with Inkscape (http://www.inkscape.org/) -->

<svg
   width="674.4mm"
   height="89.84mm"
   viewBox="0 0 674.4 89.84"
   version="1.1"
   id="svg5"
   xml:space="preserve"
   inkscape:version="1.2.1 (9c6d41e410, 2022-07-14)"
   sodipodi:docname="line-1.svg"
   xmlns:inkscape="http://www.inkscape.org/namespaces/inkscape"
   xmlns:sodipodi="http://sodipodi.sourceforge.net/DTD/sodipodi-0.dtd"
   xmlns="http://www.w3.org/2000/svg"
   xmlns:svg="http://www.w3.org/2000/svg"><sodipodi:namedview
     id="namedview7"
     pagecolor="#505050"
     bordercolor="#eeeeee"
     borderopacity="1"
     inkscape:showpageshadow="0"
     inkscape:pageopacity="0"
     inkscape:pagecheckerboard="0"
     inkscape:deskcolor="#505050"
     inkscape:document-units="mm"
     showgrid="false"
     inkscape:zoom="0.2102"
     inkscape:cx="1384"
     inkscape:cy="768.2"
     inkscape:window-width="1280"
     inkscape:window-height="778"
     inkscape:window-x="-6"
     inkscape:window-y="-6"
     inkscape:window-maximized="1"
     inkscape:current-layer="layer1" /><defs
     id="defs2" /><g
     inkscape:label="Layer 1"
     inkscape:groupmode="layer"
     id="layer1"
     transform="translate(107.9,28.15)"><path
       style="fill:#ffffff;stroke-width:0.999999"
       d="m 102.8,61.39 c -3.8,-1.2 -6.1,-3.7 -7.43,-7.8 -1.56,-5 -1,-10.6 1.63,-15.9 2.2,-4.4 6,-7.5 10.8,-8.7 l 2.1,-0.5 -1.8,-0.8 c -2.5,-1.1 -6,-2.3 -9.3,-3 -2.3,-0.5 -3.45,-0.6 -7.95,-0.6 -4.66,0 -5.61,0.1 -7.81,0.6 -9.13,2.3 -16.88,7.9 -21.83,15.9 -0.66,1.1 -1.19,1.9 -1.19,1.8 0,-0.4 1.72,-5 2.38,-6.3 1.14,-2.2 3.76,-6 5.53,-8 1.96,-2.1 4.21,-3.9 7.31,-5.9 2.22,-1.3 2.27,-1.4 1.42,-1.4 -0.5,0 -8.52,0.2 -17.83,0.5 -9.31,0.3 -27.17,0.8 -39.69,1.1 -12.515,0.3 -28.791,0.7 -36.19,0.9 -26.36,0.8 -47.66,0.4 -68.46,-1.2 -8.89,-0.7 -9.83,-0.8 -9.71,-1.2 0.11,-0.3 3.22,-0.6 13.29,-1.4 18.39,-1.5 37.86,-2 56.62,-1.6 7.57,0.1 24.8933,0.4 38.5,0.6 13.6,0.3 34.18,0.6 45.69,0.9 l 20.99,0.4 2.3,-0.7 c 5.98,-1.8 11.67,-1.8 18.13,-0.2 6.8,1.7 12.9,5.3 19.1,11.1 1.4,1.4 2.6,2.5 2.7,2.4 0.2,-0.3 -3.6,-5.1 -6.4,-7.9 -2.8,-2.8 -7,-6.5 -8.8,-7.6 -1.7,-1 -0.7,-1 3.3,-0.1 3.3,0.9 7.8,3.2 10.6,5.6 0.5,0.5 0.9,0.8 1,0.7 0,0 0,-0.8 -0.2,-1.6 -0.6,-4 0.2,-10.8 1.8,-14.297 l 0.6,-1.4 0.2,2.7 c 0.3,4.697 1.3,9.197 2.9,14.397 0.9,2.7 3,7.8 3.2,7.6 0,0 -0.2,-1.2 -0.5,-2.6 -0.6,-3.3 -0.9,-9.5 -0.5,-12.8 1,-7.797 4.3,-13.597 8.9,-15.8972 1.4,-0.6798 1.9,-0.7598 4.1,-0.7598 2.3,0 2.7,0.1 3.7,0.7598 1.7,0.9 3.1,2.5002 3.9,4.4002 0.9,2 1.1,5 0.5,6.797 -0.7,1.6 -2.1,3.1 -3.5,3.7 -1.4,0.5 -3.9,0.4 -4.5,-0.3 -0.5,-0.4 -0.5,-0.5 0.1,-0.2 1.3,0.7 4,0.2 5.3,-1.1 2.4,-2.2 2.1,-6.997 -0.5,-9.597 -3.6,-3.7002 -9.5,-1.8 -12.3,4 -1.5,3.197 -2.1,5.997 -2.1,10.997 0,7.5 1.8,13.9 5.5,19.6 5.7,8.8 15.6,12.7 24.3,9.6 5.3,-1.8 8.7,-5.3 16.4,-16.2 7.1,-10.3 11.9,-14.5 18.2,-15.8 2.7,-0.5 4,-0.5 6.4,0 5.3,1.1 9,5 10.1,10.6 1.3,5.2 -0.3,11 -3.8,14.4 -2.1,2.2 -3.4,2.8 -6.6,2.8 -1.8,0 -2.6,-0.1 -3.4,-0.6 -1.6,-0.7 -3.2,-2.3 -4,-4.3 -0.8,-1.5 -0.8,-2.1 -0.8,-3.9 0,-1.8 0,-2.3 0.6,-3.6 1,-1.7 2.9,-3.5 4.5,-3.8 3.1,-0.6 5.8,3.9 3.9,7.3 0,0.4 -0.5,1 -1,1.5 -0.8,0.7 -1.1,0.8 -2.4,0.8 -1.3,0 -1.6,-0.1 -2.4,-0.8 -1.1,-1 -1.3,-1.6 -1.8,-3.2 l -0.3,-1.3 v 1.2 c -0.5,3.1 1,6.5 3.7,7.9 1.6,0.8 4,0.7 5.8,-0.2 3.7,-1.8 5.8,-7 5,-11.8 -0.8,-5.1 -3.9,-8.1 -9,-8.3 -3.9,-0.2 -7.4,1.4 -11.1,5.1 -2.6,2.5 -4.5,4.8 -8.4,10.8 -3.7,5.5 -5.6,8.1 -8,10.5 -4.5,4.8 -9,7.2 -14.8,7.9 -5.5,0.8 -12.4,-1.1 -17.1,-4.7 -1.1,-0.8 -1.7,-1 -3.8,-1.4 -5.5,-1 -8.8,-2.7 -14.5,-7.5 -6.6,-5.4 -10.2,-6.8 -14.9,-5.6 -6.1,1.6 -9.8,7 -9.8,14.2 0,4 1.3,6.6 4.1,8.1 1.2,0.7 4,0.6 5.4,-0.1 2.7,-1.5 4.5,-4.2 5.2,-8.3 l 0.2,-0.9 -0.8,1.2 c -1.3,2.1 -3.5,2.7 -5.3,1.5 -3.5,-2.3 -2.4,-8.6 1.5,-9.1 2.9,-0.4 5.4,3.1 5.4,7.9 0.1,6.5 -4.1,11.9 -9.6,12.3 -1,0 -2.1,0 -2.7,-0.3 z m 215.5,-0.9 c -5.1,-2.4 -7.2,-10.2 -3.5,-13.9 1.9,-1.7 4.3,-2.2 6.4,-1.2 0.5,0.3 1,0.6 1,0.8 0.3,0.1 0,0 -0.5,-0.3 -2.1,-1.2 -5.6,-0.1 -6.6,2.3 -0.8,1.5 -0.8,4.5 0,6.2 1.8,3.8 5.3,5 9,3.1 2.9,-1.4 4.7,-4.4 6.1,-9.1 0.8,-2.9 0.8,-10.7 0.2,-14.3 -1.6,-6.9 -4.5,-12.6 -8.7,-16.7 -2.6,-2.6 -5,-4.1 -8.2,-5.2 -3.2,-1.1 -7.9,-1.2 -10.8,-0.4 -6.4,1.7 -9.6,4.7 -17.8,16.4 -3.7,5.4 -6.6,8.9 -9.5,11.3 -7.1,6.1 -15.6,6.7 -21.2,1.7 -3.1,-2.8 -4.5,-6.3 -4.5,-10.9 0,-7.8 4.3,-13.6 10.4,-14 3.4,-0.1 6,1.4 7.6,4.6 1.1,2 1.4,4.8 0.8,6.6 -0.5,1.5 -1.8,3.3 -3.4,4.4 -1.1,0.7 -1.3,0.8 -2.4,0.7 -1.3,-0.1 -2.4,-0.8 -3.2,-2.2 -0.5,-0.9 -0.5,-1.3 -0.5,-2.9 0,-1.6 0.3,-2 0.8,-2.8 1.3,-1.7 3.2,-2.2 5,-1.4 1.1,0.6 1.9,1.8 2.4,3.6 l 0.3,1.4 v -1 c 0.5,-1.4 0,-3.4 -0.6,-4.8 -2.9,-5.9 -10.5,-4.8 -13.2,1.9 -0.5,1.3 -0.5,2 -0.5,4.9 0,3 0,3.4 0.5,4.9 1.1,1.9 2.9,3.8 4.8,4.7 0.8,0.3 1.8,0.5 3.4,0.6 4,0.2 7.2,-1.1 10.9,-4.6 2.3,-2.1 4.5,-5 8.4,-10.9 1.9,-2.9 4.3,-6 5.1,-7 4.2,-5.7 8.4,-9.097 13.4,-10.697 6.9,-2.4 14.6,-1.2 21.2,3.2 1.9,1.197 2.4,1.497 4,1.697 5.3,0.9 9,2.8 14.8,7.6 5.3,4.4 7.7,5.6 11.4,5.9 4.7,0.3 9.5,-2.4 11.6,-6.9 1.3,-2.8 1.9,-6 1.9,-8.497 -0.3,-3.3 -1.6,-5.4 -3.7,-6.8 -1.6,-1 -2.9,-1.2 -5.1,-0.6 -1,0.3 -1.8,0.7 -3.1,2 -1.6,1.8 -2.7,3.6 -2.9,6 v 1.197 l 0.5,-1 c 2.1,-3.197 6.3,-2.397 7.4,1.5 0.8,3.5 -1.9,6.9 -5,6.1 -0.3,0 -1.1,-0.6 -1.9,-1.2 -1.6,-1.7 -2.1,-4.1 -2.1,-7.597 0.3,-2.9 0.8,-4.7 2.4,-6.9 3.9,-5.81 11.9,-5.73 15.6,0.1 2.9,4.2 3.4,10.697 1.3,16.797 -1,3 -2.1,4.9 -4.5,7.2 -2.4,2.2 -4.5,3.4 -7.4,4.2 -1.1,0.2 -1.8,0.5 -1.8,0.6 0,0.5 6.6,2.8 10.8,3.8 2.9,0.6 10.6,0.8 13.8,0.3 4.7,-0.9 9.2,-2.7 13.2,-5.4 3.7,-2.4 8.5,-7.6 10.6,-11.1 0.5,-0.8 0.8,-1.4 1,-1.3 0,0.2 -1.3,4 -2.6,6.5 -3.2,6 -7.2,10.1 -14.3,14.5 -0.5,0.4 -0.8,0.4 18.8,-0.2 9,-0.3 26.4,-0.8 38.3,-1.1 12,-0.3 28.1,-0.7 36,-0.9 19.9,-0.6 39.2,-0.4 56.9,0.7 5.6,0.3 17,1.3 17.2,1.4 0.3,0.4 -0.8,0.6 -4.7,1 -21.2,2.1 -43.4,2.8 -65.4,2.3 -7.4,-0.1 -24.3,-0.4 -37.6,-0.6 -13.2,-0.3 -32.8,-0.6 -43.1,-0.9 l -19,-0.4 -2.4,0.7 c -4.8,1.4 -8.5,1.7 -12.7,1.2 -9,-0.9 -16.4,-4.6 -24.6,-12.1 -1.4,-1.3 -2.7,-2.4 -2.7,-2.4 -0.5,0 1.3,2.3 4,5.2 2.9,3.5 5.8,6.3 9.2,8.9 1.6,1.2 3,2.1 3,2.2 0.2,0.3 -3,-0.3 -5.1,-0.9 -3.4,-1 -6.6,-2.7 -9.5,-5.2 -0.8,-0.5 -1.3,-1 -1.3,-1 -0.3,0 0,0.5 0,1.2 0.2,1.8 0.2,7.3 -0.3,9.7 -0.2,2.2 -1.3,5.7 -1.8,6.2 -0.3,0.1 -0.3,-0.3 -0.3,-1.1 0,-3.5 -1.1,-9.8 -2.6,-14.6 -1.1,-3.2 -3.5,-9.2 -3.8,-9 0,0.1 0.3,1.2 0.6,2.5 0.8,3.5 1,11.1 0.5,14.7 -0.5,3.1 -1.8,6.6 -2.9,8.7 -1.3,2.2 -3.7,4.6 -5.8,5.6 -1.3,0.7 -2.1,0.9 -4,0.9 -1.8,0.1 -2.4,0 -3.4,-0.4 z m 238.6,-17.6 c -3.1,-2.1 -3.4,-7.7 -0.5,-10.7 2.4,-2.4 5.3,-2.5 7.7,-0.3 4.2,3.8 2.6,11.6 -2.4,11.6 -1.1,0 -1.3,-0.2 -0.5,-0.7 0.8,-0.5 1.6,-2.3 1.6,-3.5 0,-1.4 -1.1,-2.6 -2.2,-2.6 -2.6,0 -3.4,3.6 -1.3,5.6 0.5,0.5 0.8,0.9 0.8,1 0,0.5 -2.4,0.2 -3.2,-0.4 z m -255.8,-4 c -1.9,-0.9 -3.2,-3 -3.7,-5.3 -0.3,-3.3 1.8,-7.1 4.7,-7.4 2.4,-0.4 4.3,0.6 5.1,2.7 0.5,1 0.7,3 0.2,3.3 0,0.1 -0.5,-0.2 -0.8,-0.8 -1.6,-1.7 -3.7,-1 -3.7,1.3 0,2.2 2.1,3 3.7,1.3 0.3,-0.6 0.8,-0.9 0.8,-0.8 0.5,0.3 0.3,2.3 -0.2,3.3 -0.8,1.9 -2.2,2.8 -4.3,2.8 -0.8,0 -1.6,-0.2 -1.8,-0.4 z m -142.6,-6.2 c -1.6,-1 -2.7,-3.5 -2.4,-5.2 l 0.2,-0.7 0.8,0.9 c 0.8,1.1 1.9,1.4 2.7,1 1.3,-0.5 1.6,-2.3 0.8,-3.5 -1.1,-1.2 -2.7,-0.9 -3.7,0.7 l -0.6,0.8 -0.2,-0.7 c -0.6,-2.9 1.8,-6 4.7,-6 2.9,0 5.6,3.1 5.6,6.6 0,2.4 -1.6,5.2 -3.5,6.3 -1,0.5 -3.4,0.4 -4.4,-0.2 z m -262.1,-4 c -3,-1.1 -5,-5.2 -4.1,-8.6 0.6,-2.6 2.5,-4.3 4.5,-4.3 1.2,0 1.4,0.2 0.6,0.8 -2,1.6 -1.9,5.2 0.1,6 0.7,0.3 0.9,0.3 1.6,0 1.88,-1 1.86,-4.5 0,-6 -0.8,-0.6 -0.7,-0.8 0.6,-0.8 3.18,0 5.54,4.3 4.43,8.2 -1.08,3.7 -4.53,5.8 -7.73,4.7 z m 327.1,-11.6 c -1,-0.3 -2.1,-0.7 -2.6,-1 -3.7,-1.8 -6.1,-5.3 -7.7,-10.397 -0.5,-2.1 -1.8,-9.75 -1.8,-9.93 0,0 1.6,0.32 3.7,0.82 4.7,1.35 8.2,3.1098 10.6,5.41 2.9,2.9 3.9,5.8 4.5,10.997 0.2,4 0,4.4 -1.1,1.7 -2.1,-5.697 -3.4,-7.597 -7.1,-9.397 -3.2,-1.5 -3.8,-1.6 -3.8,-1 0,0.8 0.8,3.4 1.6,4.9 1.6,2.897 3.7,4.897 8.2,7.097 1.1,0.6 2.2,1.1 2.2,1.2 0,0.3 -4.8,0 -6.7,-0.4 z m 10.4,0.4 c 0,-0.1 1,-0.6 2.1,-1.2 4.5,-2.2 6.6,-4.2 8.2,-7.097 0.8,-1.5 1.6,-4.1 1.6,-4.9 0,-0.6 -0.6,-0.5 -3.7,1 -3.7,1.8 -5.1,3.7 -7.2,9.397 -1,2.6 -1.3,2.3 -1,-1.6 0.5,-7.197 3.1,-11.397 9,-14.197 2.3,-1.2 9.5,-3.45 9.7,-3.13 0,0.16 -1.3,7.83 -1.8,9.93 -1.6,5.997 -4.8,9.697 -9.5,11.097 -1.6,0.6 -7.4,1.1 -7.4,0.7 z M 232,2.793 c 0,-0.1 0.5,-1.4 1.1,-2.9002 2.1,-6.6698 2.1,-10.5328 0,-15.1328 l -0.8,-1.67 -0.8,1.72 c -1.6,3.44 -1.9,5.263 -1.9,8.543 0.3,2.41 0.3,3.55 1.1,6.0398 0.5,1.6 1,3.0002 1,3.1002 -0.2,0.2 -2.9,-3.5 -3.9,-5.28 -1.3,-2.59 -1.9,-4.63 -1.9,-7.853 0,-4.05 0.8,-6.84 3.7,-12.68 1.3,-2.66 2.4,-4.83 2.7,-4.83 0.2,0 3.4,6.05 4.5,8.29 1.3,2.89 1.8,5.54 1.8,8.5 0,3.923 -1,6.853 -3.7,10.8528 -1,1.7002 -2.9,3.6002 -2.9,3.3002 z"
       id="path248" /></g></svg>
