<?xml version="1.0" encoding="UTF-8" standalone="no"?>
<!-- Created with Inkscape (http://www.inkscape.org/) -->

<svg
   width="148mm"
   height="105mm"
   viewBox="0 0 148 105"
   version="1.1"
   id="svg1176"
   xml:space="preserve"
   inkscape:version="1.2.1 (9c6d41e410, 2022-07-14)"
   sodipodi:docname="Trikonasana - D0019-min.svg"
   xmlns:inkscape="http://www.inkscape.org/namespaces/inkscape"
   xmlns:sodipodi="http://sodipodi.sourceforge.net/DTD/sodipodi-0.dtd"
   xmlns="http://www.w3.org/2000/svg"
   xmlns:svg="http://www.w3.org/2000/svg"><sodipodi:namedview
     id="namedview1178"
     pagecolor="#505050"
     bordercolor="#eeeeee"
     borderopacity="1"
     inkscape:showpageshadow="0"
     inkscape:pageopacity="0"
     inkscape:pagecheckerboard="0"
     inkscape:deskcolor="#505050"
     inkscape:document-units="mm"
     showgrid="false"
     inkscape:zoom="0.2102"
     inkscape:cx="-744.5"
     inkscape:cy="568.5"
     inkscape:window-width="1620"
     inkscape:window-height="1058"
     inkscape:window-x="-6"
     inkscape:window-y="-6"
     inkscape:window-maximized="1"
     inkscape:current-layer="svg1176" /><defs
     id="defs1173"><clipPath
       clipPathUnits="userSpaceOnUse"
       id="clipPath1313"><path
         d="M 0,0 H 1240 V 1754 H 0 Z"
         id="path1311" /></clipPath></defs><g
     inkscape:label="Layer 1"
     inkscape:groupmode="layer"
     id="layer1"
     transform="translate(-261.5,1.258)" /><g
     id="g1307"
     transform="matrix(0.0638,0,0,-0.0638,34.86,112.9)"
     style="fill:#ffffff"><g
       id="g1309"
       clip-path="url(#clipPath1313)"
       style="fill:#ffffff"><g
         id="g1315"
         transform="translate(386.6,1508)"
         style="fill:#ffffff"><path
           d="m 0,0 c 1.446,-4.724 2.441,-9.541 3.423,-14.34 0.924,-4.8 1.831,-9.6 2.663,-14.39 0.843,-4.78 1.659,-9.56 2.564,-14.27 0.454,-2.37 0.923,-4.62 1.46,-7.02 l 1.53,-7.11 c 2.04,-9.48 4.04,-19.08 5.64,-28.75 1.68,-9.63 2.88,-19.42 3.65,-29.12 0.37,-4.9 0.69,-9.7 1.03,-14.6 0.31,-4.8 0.68,-9.6 1.13,-14.4 0.96,-9.8 1.62,-19.5 2.71,-29.2 1.08,-9.7 2.38,-19.3 4.5,-28.7 2.01,-9.6 3.59,-19.3 4.74,-29.1 0.59,-4.9 1.05,-9.8 1.44,-14.7 0.19,-2.5 0.37,-4.9 0.52,-7.4 l 0.34,-7.3 c 0.37,-9.8 0.33,-19.6 0.22,-29.4 -0.1,-9.7 -0.29,-19.5 -0.5,-29.2 -0.17,-9.7 -0.52,-19.4 -0.84,-29.1 l -1.06,-29 c -0.17,-4.8 -0.32,-9.7 -0.43,-14.5 -0.15,-4.9 -0.29,-9.7 -0.38,-14.5 -0.1,-4.9 -0.24,-9.8 -0.36,-14.6 -0.11,-4.9 -0.29,-9.8 -0.49,-14.6 -0.4,-9.8 -0.95,-19.6 -1.99,-29.3 h -1.2 c -1.05,9.7 -2.04,19.4 -2.95,29.1 l -0.69,7.3 -0.63,7.2 c -0.41,4.9 -0.84,9.8 -1.14,14.6 -0.32,4.9 -0.64,9.8 -0.87,14.7 -0.2,4.9 -0.37,9.8 -0.5,14.6 -0.28,9.8 -0.27,19.6 -0.12,29.4 0.19,9.7 0.54,19.5 1.12,29.2 l 1.7,29.1 c 0.55,9.7 1.02,19.4 1.48,29 l 0.3,7.3 0.29,7.2 c 0.14,4.8 0.22,9.6 0.18,14.5 -0.1,4.8 -0.17,9.6 -0.54,14.4 -0.17,2.4 -0.39,4.8 -0.64,7.2 -0.28,2.4 -0.58,4.8 -0.96,7.2 -1.7,9.6 -2.88,19.3 -4.38,28.9 -1.46,9.6 -3.25,19.2 -5.41,28.6 -1.09,4.8 -2.09,9.6 -3.02,14.5 -0.91,4.8 -1.74,9.6 -2.54,14.4 -1.54,9.6 -2.878,19.08 -4.26,28.67 -1.393,9.55 -2.917,19.09 -4.29,28.76 -0.335,2.42 -0.687,4.83 -0.986,7.26 -0.308,2.39 -0.632,4.94 -0.842,7.38 -0.441,4.94 -0.712,9.83 -0.921,14.71 -0.216,4.88 -0.297,9.76 -0.443,14.62 -0.112,4.872 -0.187,9.731 -0.43,14.589 z"
           style="fill:#ffffff;fill-opacity:1;fill-rule:nonzero;stroke:none"
           id="path1317" /></g><g
         id="g1319"
         transform="translate(337.1,1504)"
         style="fill:#ffffff"><path
           d="m 0,0 c 3.598,-11.96 6.116,-24.26 7.935,-36.64 1.877,-12.39 2.965,-24.88 3.585,-37.37 0.62,-12.5 0.74,-25 0.5,-37.49 -0.19,-12.5 -0.84,-24.9 -1.88,-37.3 C 9.605,-155 9,-161.2 8.364,-167.4 l -1.989,-18.5 c -1.372,-12.3 -2.069,-24.6 -1.697,-37 0.652,-24.7 5.107,-49.1 8.302,-73.9 0.8,-6.2 1.52,-12.4 2.13,-18.6 0.3,-3.1 0.59,-6.2 0.84,-9.4 0.22,-3.1 0.42,-6.2 0.59,-9.3 0.69,-12.5 0.74,-25.1 0.47,-37.6 -0.1,-3.1 -0.16,-6.2 -0.28,-9.4 -0.1,-1.5 -0.14,-3.2 -0.24,-4.8 -0.1,-1.6 -0.21,-3.2 -0.36,-4.8 -0.58,-6.3 -1.47,-12.7 -2.54,-18.9 -2.11,-12.5 -5.152,-24.6 -7.948,-36.6 -1.435,-6 -2.756,-12 -3.988,-18 -1.212,-5.9 -2.217,-11.9 -3.05,-17.9 l -2.685,-18.4 c -0.893,-6.1 -1.708,-12.1 -2.197,-18.2 -0.257,-3 -0.404,-6 -0.535,-9 -0.06,-1.6 -0.09,-3.1 -0.107,-4.6 -0.01,-1.5 0.03,-2.8 0.138,-4.3 0.212,-2.9 0.671,-5.8 1.289,-8.7 0.604,-2.9 1.379,-5.8 2.272,-8.7 1.809,-5.8 3.999,-11.6 6.265,-17.3 0.502,-1.1 1.255,-2.4 2.13,-3.6 0.88,-1.2 1.879,-2.3 2.903,-3.5 2.103,-2.6 3.493,-5.4 5.293,-7.8 l -0.91,-0.8 c -2.24,2.2 -4.16,4.8 -6.317,6.7 -2.253,2.1 -4.827,4.2 -6.653,7.3 -3.03,5.5 -5.966,11 -8.469,16.9 -2.511,5.8 -4.641,12 -5.691,18.6 -0.27,1.6 -0.48,3.3 -0.6,4.9 -0.12,1.6 -0.23,3.2 -0.3,4.8 -0.17,3.2 -0.19,6.4 -0.15,9.6 0.1,6.3 0.47,12.6 1,18.9 l 1.77,18.5 c 1.04,12.7 3.417,25.2 6.096,37.4 2.717,12.2 5.699,24.2 8.117,36.1 1.197,5.9 2.203,11.9 2.922,17.9 l 0.497,4.5 c 0.149,1.5 0.274,2.9 0.389,4.5 0.221,3 0.423,6.1 0.602,9.2 0.723,12.2 1.09,24.5 1.242,36.9 0.04,3 0.06,6.1 0.04,9.2 0.01,3.1 0,6.2 -0.03,9.2 -0.07,6.2 -0.241,12.4 -0.502,18.5 -0.948,24.8 -4.122,49.5 -5.618,74.4 -0.753,12.4 -1.193,25 -1.047,37.5 l 0.114,18.6 0.268,18.6 c 0.258,12.4 0.731,24.8 1.203,37.1 0.422,12.34 0.754,24.66 0.831,36.98 0.08,12.33 -0.11,24.64 -0.603,36.97 -0.548,12.32 -1.476,24.64 -2.755,37.02 z"
           style="fill:#ffffff;fill-opacity:1;fill-rule:nonzero;stroke:none"
           id="path1321" /></g><g
         id="g1323"
         transform="translate(356.4,911.4)"
         style="fill:#ffffff"><path
           d="m 0,0 c 4.386,-3.938 7.954,-8.684 11.28,-13.49 3.28,-4.87 6.32,-9.88 9.07,-15.03 5.62,-10.26 10.42,-20.92 14.67,-31.8 4.23,-10.89 7.93,-22.01 10.74,-33.49 1.4,-5.74 2.59,-11.59 3.23,-17.59 0.3,-3.1 0.5,-6.2 0.33,-9.4 l -0.6,-8.7 c -0.41,-5.7 -0.76,-11.4 -0.94,-17 -0.2,-5.7 -0.21,-11.4 0.1,-17 0.58,-11.3 2.47,-22.6 6.99,-33 2.24,-5.2 5.09,-10.1 8.55,-14.5 1.71,-2.2 3.58,-4.3 5.57,-6.3 0.99,-1 2,-2 3.07,-2.9 1,-0.9 2.28,-2 3.3,-3.1 2.12,-2.3 3.86,-4.9 5.2,-7.7 1.37,-2.7 2.37,-5.7 3.09,-8.6 1.4,-5.9 1.89,-11.9 2.03,-17.8 0.14,-5.9 0,-11.7 0.13,-17.4 L 86.1,-292 c 0.23,-11.5 0.4,-23.1 0.53,-34.6 0.15,-11.6 0.18,-23.2 -0.1,-34.8 l -0.22,-8.6 c 0,-2.7 0,-5.5 0.13,-8.2 0.23,-5.5 0.79,-11 1.65,-16.4 1.68,-10.9 4.63,-21.8 7.88,-32.7 1.63,-5.5 3.36,-11 5.13,-16.5 1.7,-5.5 3.3,-11.1 4.8,-16.7 6.2,-22.5 10.6,-45.6 11.3,-68.8 l -1.2,-0.2 c -2.4,11.3 -5.2,22.5 -8.4,33.5 -1.6,5.5 -3.3,10.9 -5.1,16.4 -1.8,5.4 -3.7,10.8 -5.6,16.2 -1.92,5.4 -3.94,10.8 -5.98,16.1 -2,5.4 -4.04,10.9 -6,16.4 -3.93,10.9 -7.43,22.3 -9.47,34.2 -1.02,5.9 -1.66,11.9 -1.88,18 -0.1,3 -0.11,6 0,9 0.1,3.2 0.32,5.9 0.45,8.8 0.59,11.4 0.94,22.9 1.28,34.4 0.32,11.5 0.57,23.1 1.18,34.6 l 0.49,8.7 0.65,8.7 c 0.44,5.8 1.09,11.6 1.48,17.2 0.35,5.6 0.48,11.3 -0.45,16.7 -0.45,2.6 -1.14,5.3 -2.17,7.8 -1.05,2.4 -2.44,4.7 -4.17,6.8 -0.88,1 -1.75,1.9 -2.88,2.9 -1.07,1 -2.13,2.1 -3.14,3.1 -2.03,2.2 -3.97,4.4 -5.76,6.8 -3.59,4.7 -6.65,9.8 -9.19,15.1 -5.08,10.7 -8.19,22.2 -10.06,33.8 -0.94,5.9 -1.56,11.7 -1.98,17.6 -0.4,5.9 -0.56,11.7 -0.57,17.5 v 4.4 l 0.1,4.3 c 0,2.5 -0.21,5.2 -0.54,7.9 -0.67,5.4 -1.73,10.9 -2.95,16.36 -2.49,10.98 -5.65,21.93 -9.14,32.78 -3.51,10.85 -7.38,21.6 -11.64,32.2 -2.19,5.27 -4.41,10.54 -6.928,15.65 -2.505,5.13 -5.168,10.181 -8.542,14.804 z"
           style="fill:#ffffff;fill-opacity:1;fill-rule:nonzero;stroke:none"
           id="path1325" /></g><g
         id="g1327"
         transform="translate(356.3,910.5)"
         style="fill:#ffffff"><path
           d="m 0,0 c -1.865,-1.541 -4.11,-2.728 -6.458,-3.476 -2.378,-0.689 -4.832,-1.026 -7.282,-1.283 -2.45,-0.216 -4.93,-0.05 -7.33,0.41 -2.39,0.5 -4.72,1.242 -6.9,2.291 l 0.34,1.151 c 2.36,-0.286 4.66,-0.627 6.95,-0.833 2.29,-0.249 4.56,-0.406 6.84,-0.43 2.28,-0.07 4.551,0.315 6.723,0.955 2.203,0.574 4.327,1.324 6.51,2.25 z"
           style="fill:#ffffff;fill-opacity:1;fill-rule:nonzero;stroke:none"
           id="path1329" /></g><g
         id="g1331"
         transform="translate(427.8,1042)"
         style="fill:#ffffff"><path
           d="m 0,0 c 12.37,5.455 25.61,8.635 38.75,11.43 13.18,2.73 26.4,5.03 39.36,7.91 6.48,1.46 12.89,3.1 19.11,5.12 3.08,1.03 6.38,2.11 9.68,3.08 3.2,0.99 6.5,1.91 9.7,2.8 13.1,3.54 26.3,6.39 39.4,9.07 13.2,2.7 26.2,5.41 39,8.73 6.4,1.64 12.8,3.44 19,5.49 3.1,1.02 6.2,2.1 9.3,3.25 1.5,0.57 3,1.17 4.6,1.78 l 4.7,1.87 c 25,9.99 50.9,18.41 77.5,23.96 13.3,2.74 26.8,4.76 40.4,5.72 13.5,0.91 27.3,0.79 40.8,-1.02 13.6,-1.83 27,-5.32 39.4,-11.34 6.1,-2.99 12.1,-6.23 17.8,-9.84 5.8,-3.58 11.3,-7.54 16.6,-11.71 10.7,-8.35 20.4,-17.8 29.6,-27.64 4.6,-4.93 9.1,-9.95 13.5,-15.08 4.4,-5.218 8.3,-10.83 11.7,-16.689 3.5,-5.864 6.5,-11.971 9.2,-18.201 2.7,-6.23 5,-12.58 7.1,-19.01 4.3,-12.86 7.6,-25.95 10.6,-39.09 3,-13.16 5.4,-26.49 7.3,-39.89 0.9,-6.6 1.8,-13.3 2.5,-20 0.8,-6.7 1.4,-13.4 2,-20.2 2.3,-26.8 3.4,-53.6 5.1,-80.3 0.9,-13.3 1.9,-26.6 3.3,-39.8 0.3,-3.3 0.7,-6.6 1.1,-9.9 l 0.3,-2.5 0.3,-2.3 c 0.2,-1.6 0.5,-3.2 0.8,-4.8 1.1,-6.4 2.7,-12.7 4.4,-19.1 3.4,-12.7 7.6,-25.4 11.5,-38.3 3.8,-12.9 7.4,-26.2 9.4,-40 2,-13.6 2.9,-27.2 3.2,-40.8 0.4,-13.5 0.3,-27 0.1,-40.4 -0.1,-13.3 -0.1,-26.7 0.5,-39.9 0.2,-3.3 0.3,-6.6 0.6,-9.9 0.2,-3.2 0.5,-6.7 0.7,-10.1 0.3,-6.8 0.5,-13.6 0.5,-20.3 0,-13.6 -0.7,-27.1 -1.6,-40.5 l -1.5,-20.1 c -0.5,-6.7 -1,-13.3 -1.5,-20 -1.8,-26.6 -2.6,-53.4 1,-80 l -1.2,-0.2 c -2.8,13.2 -4.4,26.6 -5.3,40.1 -0.8,13.4 -0.9,26.9 -0.6,40.4 0.2,13.4 0.8,26.8 1.1,40.2 0.4,13.3 0.5,26.7 0.1,39.9 -0.2,6.6 -0.5,13.2 -1.1,19.8 -0.3,3.3 -0.6,6.5 -1,9.9 -0.4,3.4 -0.7,6.8 -0.9,10.2 -0.9,13.6 -1.2,27.1 -1.4,40.5 -0.4,26.8 -0.3,53.5 -4.4,79.3 -0.5,3.2 -1,6.5 -1.7,9.6 l -0.5,2.4 -0.5,2.4 c -0.3,1.6 -0.7,3.2 -1.1,4.7 -1.6,6.4 -3.4,12.7 -5.3,19.1 -3.7,12.8 -7.9,25.6 -11.3,38.8 -1.7,6.6 -3.2,13.4 -4.3,20.2 -0.3,1.7 -0.6,3.4 -0.8,5.1 l -0.3,2.7 -0.3,2.5 c -0.4,3.4 -0.7,6.8 -1,10.1 -1.2,13.5 -1.9,26.9 -2.6,40.4 -1.3,26.8 -2,53.6 -3.4,80.3 -0.4,6.6 -0.8,13.3 -1.3,19.9 -0.5,6.7 -1.1,13.3 -1.7,20 -1.4,13.2 -3.2,26.37 -5.6,39.47 -2.5,13.11 -5.2,26.16 -9,38.89 -1.9,6.36 -4,12.66 -6.5,18.81 -2.5,6.13 -5.3,12.13 -8.5,17.885 -3.2,5.752 -6.9,11.256 -11.1,16.295 -4.3,5.08 -8.7,10.12 -13.3,15.03 -9,9.81 -18.6,19.03 -29.2,27.06 -10.6,8.02 -22.1,14.77 -34.2,20.14 -12,5.26 -24.9,8.13 -38,9.23 -13.1,1.12 -26.3,0.63 -39.4,-0.87 -13.1,-1.48 -26.1,-3.94 -39,-7.02 -25.7,-6.14 -50.9,-14.6 -75.8,-24.09 l -4.6,-1.8 c -1.6,-0.62 -3.3,-1.24 -4.9,-1.82 -3.2,-1.17 -6.4,-2.27 -9.7,-3.29 -6.5,-2.07 -13.1,-3.86 -19.7,-5.47 -13.2,-3.17 -26.5,-5.56 -39.7,-7.97 -13.2,-2.44 -26.3,-4.74 -39.2,-7.76 -3.2,-0.75 -6.4,-1.54 -9.6,-2.39 -3.3,-0.84 -6.4,-1.76 -9.68,-2.69 C 92.7,15.63 86.03,14.25 79.37,13.08 66.04,10.7 52.7,9.242 39.48,7.295 26.27,5.369 13.1,3.15 0.431,-1.12 Z"
           style="fill:#ffffff;fill-opacity:1;fill-rule:nonzero;stroke:none"
           id="path1333" /></g><g
         id="g1335"
         transform="translate(516.4,432.4)"
         style="fill:#ffffff"><path
           d="m 0,0 c -3.143,12.77 -6.553,25.43 -9.75,38.17 -3.27,12.73 -6.38,25.5 -9.06,38.46 -0.68,3.24 -1.32,6.5 -1.88,9.79 l -0.41,2.48 -0.39,2.53 c -0.23,1.68 -0.45,3.36 -0.63,5.04 -0.71,6.73 -1.04,13.53 -1,20.23 0,13.4 1.32,26.6 2.62,39.6 0.67,6.5 1.31,12.9 1.75,19.4 0.25,3.2 0.41,6.4 0.56,9.7 0.16,3.3 0.34,6.6 0.55,9.9 0.87,13.2 2.16,26.6 5.53,39.5 1.69,6.6 4.158,12.7 6.542,18.9 2.433,6.1 4.968,12.2 7.503,18.3 5.197,12.1 10.315,24.2 16.105,36.1 2.88,6 6.2,12 9.86,17.6 1.83,2.8 3.74,5.6 5.74,8.3 2.01,2.7 4.09,5.4 6.23,7.9 8.53,10.4 18.07,19.7 26.84,29.1 4.38,4.8 8.57,9.6 12.37,14.6 0.97,1.3 1.85,2.5 2.81,3.8 l 1.51,2.1 1.56,2.1 c 2.09,2.7 4.29,5.3 6.56,7.9 9.08,10.2 19.48,19 30.38,26.9 10.9,7.9 22.4,14.8 34.3,20.9 5.9,3.1 11.9,6 17.9,8.8 6.1,2.7 12.2,5.3 18.4,7.7 6.1,2.5 12.3,4.7 18.6,6.9 3.1,1.1 6.3,2.1 9.4,3.1 3.2,1 6.3,2 9.5,2.9 12.7,3.8 25.5,7 38.4,9.5 l 0.4,-1.2 c -24.8,-9 -49.1,-18.6 -72.6,-29.9 -5.9,-2.7 -11.7,-5.7 -17.4,-8.7 -5.8,-2.9 -11.5,-6 -17,-9.3 -11.2,-6.5 -22.1,-13.4 -32.4,-21 -10.3,-7.6 -20,-15.9 -28.6,-25.1 -2.17,-2.3 -4.25,-4.6 -6.23,-7.1 l -1.47,-1.8 -1.45,-1.9 c -0.97,-1.3 -2.06,-2.7 -3.12,-4 -4.31,-5.3 -8.94,-10.3 -13.63,-15 -9.41,-9.5 -19.02,-18.2 -27.8,-27.6 -2.2,-2.4 -4.35,-4.7 -6.43,-7.2 -2.09,-2.4 -4.12,-4.9 -6.08,-7.4 -3.92,-5.1 -7.47,-10.4 -10.76,-16 -3.29,-5.6 -6.48,-11.3 -9.48,-17.1 -1.51,-2.9 -3,-5.8 -4.458,-8.7 -1.432,-3 -2.844,-5.9 -4.233,-8.9 -2.792,-5.9 -5.423,-11.9 -7.858,-18 -1.228,-3 -2.384,-6.1 -3.449,-9.1 -1.089,-3.1 -1.977,-6.2 -2.7,-9.3 -2.892,-12.6 -3.052,-25.7 -2.672,-38.7 0.11,-3.2 0.25,-6.5 0.4,-9.8 0.16,-3.2 0.31,-6.6 0.37,-9.9 0.12,-6.7 0,-13.3 -0.26,-19.9 -0.54,-13.2 -1.67,-26.2 -1.94,-39 -0.1,-6.5 0,-12.8 0.49,-19.2 0.13,-1.58 0.25,-3.17 0.42,-4.75 l 0.25,-2.35 0.3,-2.39 c 0.43,-3.2 0.89,-6.41 1.375,-9.63 1.964,-12.89 4.201,-25.83 6.126,-38.84 1.961,-13 3.85,-26.07 4.676,-39.26 z"
           style="fill:#ffffff;fill-opacity:1;fill-rule:nonzero;stroke:none"
           id="path1337" /></g><g
         id="g1339"
         transform="translate(460.4,366.6)"
         style="fill:#ffffff"><path
           d="m 0,0 c -9.782,-11.55 -19.49,-23.22 -31.09,-33.49 -5.78,-5.13 -12.03,-9.87 -18.79,-13.93 -3.39,-2.03 -6.91,-3.86 -10.54,-5.5 -1.84,-0.82 -3.61,-1.55 -5.6,-2.26 -1.95,-0.7 -3.89,-1.29 -5.83,-1.8 -15.56,-3.93 -30.65,-3.65 -45.05,-6.13 -7.2,-1.24 -14.3,-3.23 -20.4,-6.98 -3,-1.87 -5.8,-4.19 -8.1,-6.93 -2.3,-2.73 -4.2,-5.87 -5.5,-9.21 l -0.6,2.09 c 1.9,-1.42 4.4,-2.34 7,-2.95 2.6,-0.62 5.4,-0.97 8.1,-1.21 5.5,-0.46 11.1,-0.33 16.6,0 11.1,0.68 22.21,2.2 33.24,3.87 10.66,1.71 21.43,4.56 32.54,7.03 11.1,2.48 22.72,4.56 34.82,4.33 11.796,-0.39 22.95,-2.1 34,-3.46 11.02,-1.4 21.89,-2.56 32.77,-2.44 2.71,0 5.43,0.1 8.14,0.24 2.67,0.15 5.29,0.43 7.79,0.87 2.49,0.44 4.88,1.08 6.83,2.08 1.98,0.99 3.39,2.3 4.41,4.14 1.02,1.85 1.53,4.32 1.75,6.93 0.2,2.61 0.25,5.39 0.21,8.18 -0.1,5.6 -0.17,11.34 0.29,17 h 1.2 c 0.4,-2.79 0.88,-5.55 1.37,-8.31 0.51,-2.76 1.06,-5.52 1.53,-8.32 0.48,-2.81 0.98,-5.65 1.13,-8.66 0.15,-2.98 0.1,-6.24 -1.13,-9.58 -0.59,-1.66 -1.51,-3.29 -2.68,-4.68 -1.17,-1.41 -2.54,-2.58 -3.97,-3.53 -2.88,-1.91 -5.9,-3.06 -8.86,-3.95 -2.97,-0.86 -5.93,-1.4 -8.85,-1.85 -2.88,-0.43 -5.77,-0.77 -8.67,-1.04 -11.61,-0.97 -23.26,-0.55 -34.59,0.46 -11.312,1 -22.456,2.52 -33.14,3.14 -10.43,0.59 -21.21,-0.88 -32.14,-2.74 -5.48,-0.94 -11,-2.03 -16.62,-2.94 -2.82,-0.46 -5.65,-0.92 -8.52,-1.27 -2.87,-0.34 -5.75,-0.61 -8.69,-0.79 -11.36,-0.52 -22.76,-0.65 -34.16,-0.15 -5.6,0.22 -11.3,0.64 -17,1.4 -2.9,0.39 -5.7,0.89 -8.6,1.64 -2.8,0.81 -5.7,1.71 -8.3,3.75 l -1.1,0.82 0.5,1.27 c 1.5,3.64 3.5,7.12 5.9,10.26 2.4,3.15 5.3,5.93 8.5,8.31 6.4,4.79 13.8,7.91 21.2,10.28 3.8,1.18 7.5,2.16 11.3,3.03 3.8,0.83 7.5,1.59 11.22,2.28 7.43,1.38 14.78,2.5 21.65,4.19 3.46,0.83 6.6,1.9 9.96,3.3 3.31,1.33 6.54,2.88 9.73,4.57 6.38,3.37 12.5,7.38 18.48,11.71 5.97,4.34 11.78,9.04 17.63,13.79 5.87,4.718 11.674,9.64 17.917,14.033 z"
           style="fill:#ffffff;fill-opacity:1;fill-rule:nonzero;stroke:none"
           id="path1341" /></g><g
         id="g1343"
         transform="translate(803.5,847.7)"
         style="fill:#ffffff"><path
           d="m 0,0 c -2.053,-5.771 -4.46,-11.38 -6.89,-16.97 -2.482,-5.57 -4.98,-11.13 -7.62,-16.61 -5.18,-11.02 -10.64,-21.89 -16.23,-32.68 -5.59,-10.8 -11.33,-21.51 -17.22,-32.14 -5.84,-10.7 -11.91,-21.2 -18.28,-31.5 -3.2,-5.2 -6.45,-10.3 -9.73,-15.5 l -9.96,-15.3 c -6.67,-10.1 -13.31,-20.3 -19.87,-30.6 l -5,-7.6 c -1.6,-2.5 -3,-5.1 -4.3,-7.8 -2.7,-5.4 -5,-10.9 -7.1,-16.6 -1,-2.8 -2,-5.7 -3,-8.6 -0.9,-2.8 -1.8,-5.7 -2.7,-8.6 -1.7,-5.8 -3.3,-11.6 -4.9,-17.5 l -4.7,-17.6 -2.3,-8.8 -2.5,-8.8 c -1.7,-5.9 -3.6,-11.7 -5.6,-17.6 -2.1,-5.8 -4.3,-11.6 -7,-17.4 l -1,-2.1 -1.1,-2.1 -2,-4.1 -4.1,-8.1 -8.2,-16.3 c -5.4,-10.8 -11.2,-21.7 -17.7,-32.3 -6.6,-10.5 -13.8,-20.5 -21.1,-30.2 l -5.6,-7.2 -2.8,-3.7 c -0.9,-1.1 -1.8,-2.3 -2.7,-3.5 -3.5,-4.7 -7,-9.6 -10.3,-14.6 -3.3,-5 -6.6,-10.1 -9.8,-15.2 -3.1,-5.1 -6.2,-10.3 -9.2,-15.5 -2.9,-5.3 -5.8,-10.6 -8.3,-16 -1.3,-2.7 -2.6,-5.5 -3.7,-8.2 -1.1,-2.8 -2.2,-5.6 -3,-8.6 l -1.1,0.3 c 0.6,6.1 2.2,12.1 4.1,18 1.9,5.8 4.1,11.5 6.5,17.2 1.2,2.8 2.5,5.6 3.8,8.4 1.3,2.8 2.6,5.5 4,8.3 2.7,5.5 5.6,10.9 8.7,16.2 3,5.4 6.1,10.7 9.5,15.9 0.9,1.2 1.8,2.6 2.7,3.8 l 2.6,3.8 5.1,7.4 c 6.8,10 13.5,20 19.6,30.1 6.2,10.2 11.8,20.8 17.6,31.4 l 8.7,16.1 4.3,8 2.3,4 1,1.9 1,1.9 c 5.3,10.4 9.4,21.7 13.6,33 l 12.5,34.2 c 4.1,11.4 8.4,22.9 13,34.2 2.4,5.6 4.8,11.2 7.6,16.7 1.4,2.8 2.9,5.5 4.5,8.1 1.7,2.6 3.3,5.1 4.8,7.8 12.36,20.8 22.78,42.8 34.17,64.2 23.04,42.74 48.38,84.13 73.844,125.51 z"
           style="fill:#ffffff;fill-opacity:1;fill-rule:nonzero;stroke:none"
           id="path1345" /></g><g
         id="g1347"
         transform="translate(962.6,343)"
         style="fill:#ffffff"><path
           d="m 0,0 c 1.179,-6.574 1.869,-13.17 2.423,-19.75 0.544,-6.58 0.89,-13.16 1.128,-19.72 0.238,-6.57 0.375,-13.13 0.42,-19.67 0.1,-6.54 0,-13.07 -0.301,-19.59 -0.275,-6.53 -0.826,-13.05 -1.058,-19.56 l -0.08,-2.41 c -0.02,-0.8 -0.01,-1.6 0,-2.4 0.03,-1.5 0.15,-3.1 0.357,-4.6 0.418,-3.1 1.231,-6.1 2.671,-8.8 1.425,-2.6 3.516,-4.8 6.11,-6.3 2.58,-1.5 5.59,-2.4 8.68,-2.8 6.22,-0.8 12.71,0 19.21,0.7 6.52,0.8 13.17,1.6 19.99,1.8 3.17,0.1 6.27,0.2 9.28,0.6 2.99,0.3 5.9,0.8 8.43,1.7 2.54,0.9 4.59,2.2 5.74,3.6 1.16,1.3 1.68,2.9 1.8,5.2 0.1,2.3 -0.31,5 -1.03,7.8 -0.7,2.7 -1.68,5.61 -2.77,8.51 -4.41,11.65 -10.39,23.47 -15.17,35.96 -2.39,6.25 -4.57,12.69 -5.85,19.44 -0.67,3.37 -1.05,6.82 -1.03,10.29 0,3.46 0.54,6.98 1.86,10.14 l 1.16,-0.28 c -0.23,-3.23 0.17,-6.38 0.91,-9.44 0.71,-3.07 1.81,-6.04 2.99,-8.98 2.45,-5.84 5.44,-11.52 8.56,-17.18 3.13,-5.66 6.41,-11.31 9.58,-17.11 3.18,-5.81 6.28,-11.75 8.92,-18.16 1.3,-3.22 2.48,-6.57 3.35,-10.19 0.83,-3.6 1.46,-7.4 1.06,-11.7 -0.2,-2.2 -0.68,-4.5 -1.62,-6.6 -0.92,-2.2 -2.32,-4.3 -3.99,-6 -1.67,-1.7 -3.58,-3 -5.48,-4 -1.91,-0.9 -3.83,-1.6 -5.71,-2.1 -3.76,-1 -7.4,-1.4 -10.95,-1.6 -3.54,-0.1 -7.01,0.1 -10.41,0.4 -1.58,0.2 -3.17,0.3 -4.76,0.5 -1.6,0.1 -3.21,0.2 -4.83,0.3 l -9.81,0.5 c -3.31,0.2 -6.64,0.4 -9.99,0.6 -3.36,0.3 -6.74,0.7 -10.12,1.3 -3.37,0.7 -6.76,1.8 -9.848,3.7 -1.528,0.9 -2.976,2 -4.251,3.3 -1.265,1.2 -2.4,2.6 -3.344,4.2 -1.903,3 -3.181,6.3 -4.14,9.6 -0.489,1.7 -0.871,3.4 -1.222,5.1 -0.17,0.8 -0.317,1.7 -0.469,2.5 l -0.401,2.51 c -0.999,6.6 -1.888,13.21 -2.34,19.82 -0.477,6.61 -0.557,13.22 -0.366,19.81 0.141,6.59 0.461,13.17 0.91,19.74 0.448,6.56 1.036,13.12 1.786,19.67 0.757,6.55 1.625,13.091 2.809,19.652 z"
           style="fill:#ffffff;fill-opacity:1;fill-rule:nonzero;stroke:none"
           id="path1349" /></g><g
         id="g1351"
         transform="translate(432.2,344.4)"
         style="fill:#ffffff"><path
           d="m 0,0 c -7.569,-3.241 -15.36,-6.03 -23.28,-8.352 -7.93,-2.348 -16.02,-4.148 -24.14,-5.608 -4.06,-0.71 -8.12,-1.42 -12.17,-2.02 -4.04,-0.62 -8.07,-1.19 -12.03,-1.92 -3.95,-0.74 -7.87,-1.6 -11.44,-3.32 -1.77,-0.87 -3.43,-1.97 -4.9,-3.32 -1.46,-1.36 -2.69,-2.98 -3.69,-4.75 v 0.26 0 c 0.62,-1.29 1.61,-2.37 2.8,-3.16 1.19,-0.8 2.54,-1.35 3.94,-1.74 2.8,-0.77 5.75,-0.95 8.68,-0.91 v -1.2 c -3,0.1 -6.03,0.34 -8.94,1.25 -1.44,0.45 -2.86,1.08 -4.11,1.98 -1.25,0.9 -2.29,2.12 -2.92,3.53 v 0 l -0.1,0.11 0.1,0.15 c 1.66,3.81 4.54,7.19 8.13,9.52 3.57,2.38 7.62,3.88 11.65,4.99 8.12,2.15 16.3,3 24.39,4.19 8.09,1.174 16.12,2.577 24.08,4.426 7.95,1.862 15.794,4.201 23.492,7.011 z"
           style="fill:#ffffff;fill-opacity:1;fill-rule:nonzero;stroke:none"
           id="path1353" /></g><g
         id="g1355"
         transform="translate(761.3,904.5)"
         style="fill:#ffffff"><path
           d="m 0,0 c 5.61,-3.222 10.73,-7.256 15.63,-11.45 4.87,-4.26 9.56,-8.71 14.01,-13.38 8.97,-9.3 17.29,-19.17 24.9,-29.73 1.91,-2.66 3.76,-5.36 5.51,-8.19 0.43,-0.71 0.87,-1.43 1.3,-2.16 l 1.21,-2.12 c 0.74,-1.29 1.56,-2.61 2.36,-3.91 3.27,-5.24 6.91,-10.41 10.52,-15.63 3.64,-5.22 7.33,-10.46 10.84,-15.93 1.75,-2.7 3.48,-5.5 5.1,-8.4 0.81,-1.4 1.61,-2.9 2.38,-4.4 l 1.08,-2.2 1.06,-2.2 c 2.76,-5.9 5.2,-11.8 7.6,-17.8 2.3,-6.1 4.5,-12.1 6.7,-18.1 4.3,-12 8.6,-24 13.8,-35.7 5.1,-11.6 10.9,-22.9 18.1,-33.3 1.9,-2.7 3.6,-5.4 5.3,-8.1 1.7,-2.7 3.4,-5.5 5,-8.3 3.2,-5.6 6.3,-11.3 9.1,-17.1 2.8,-5.8 5.4,-11.8 7.8,-17.8 1.2,-3 2.3,-6.1 3.4,-9.1 1.1,-3.1 2.1,-6.2 3,-9.3 3.8,-12.4 6.7,-25 9,-37.7 2.4,-12.7 4.3,-25.4 6.1,-38.1 1.8,-12.7 3.2,-25.3 4.8,-37.9 0.7,-6.4 1.6,-12.6 2.4,-18.9 0.9,-6.4 1.6,-12.9 2.1,-19.3 0.5,-6.4 1,-12.8 1.3,-19.2 0.4,-6.4 0.6,-12.9 0.9,-19.3 0.2,-6.4 0.3,-12.8 0.4,-19.2 l 0.1,-9.6 -0.1,-9.6 c -0.1,-12.8 -0.5,-25.6 -1.4,-38.4 h -1.2 c -2.3,25.5 -4.7,50.9 -7.3,76.2 -0.6,6.3 -1.3,12.7 -2,19 -0.7,6.3 -1.4,12.6 -2.3,18.9 -0.8,6.2 -1.7,12.4 -2.7,18.6 -1.1,6.4 -2,12.8 -2.9,19.1 -1.7,12.7 -3.2,25.4 -4.6,38.1 -1.4,12.6 -2.9,25.2 -4.7,37.7 -1.9,12.5 -4.3,24.9 -7.2,37.1 -0.7,3 -1.5,6.1 -2.3,9.1 -0.8,3.1 -1.6,6.1 -2.5,9.1 -1.8,6 -3.9,12 -6.1,17.9 -2.3,5.8 -4.8,11.7 -7.6,17.3 -1.4,2.8 -2.8,5.7 -4.4,8.4 -1.5,2.8 -3.1,5.5 -4.8,8.2 -6.9,10.9 -12.7,22.4 -18.3,33.9 -11,23.1 -21.41,46.7 -33.42,68.7 l -1.13,2 -1.14,2.1 c -0.76,1.3 -1.54,2.6 -2.35,3.9 -1.63,2.6 -3.33,5.2 -5.07,7.8 l -10.66,15.8 c -3.58,5.31 -7.12,10.71 -10.45,16.4 -0.84,1.43 -1.62,2.87 -2.42,4.38 l -1.07,2.08 -1.09,1.99 c -1.5,2.65 -3.13,5.31 -4.8,7.95 -6.75,10.54 -14.22,20.79 -21.98,30.77 -3.94,4.94 -7.91,9.87 -12.13,14.58 -4.21,4.734 -8.564,9.326 -13.387,13.473 z"
           style="fill:#ffffff;fill-opacity:1;fill-rule:nonzero;stroke:none"
           id="path1357" /></g><g
         id="g1359"
         transform="translate(668.6,868.9)"
         style="fill:#ffffff"><path
           d="m 0,0 c -0.521,-5.819 -2.112,-11.54 -4.029,-17.05 -1.969,-5.5 -4.233,-10.87 -6.571,-16.11 -1.16,-2.63 -2.31,-5.25 -3.4,-7.86 -1.11,-2.62 -2.17,-5.18 -3.14,-7.82 -1.98,-5.28 -3.8,-10.66 -5.59,-16.06 -3.56,-10.81 -6.9,-21.79 -10.74,-32.73 -1.97,-5.57 -3.86,-10.77 -5.71,-16.17 l -5.54,-16.1 c -7.45,-21.6 -15.26,-43.5 -24.25,-64.8 -4.56,-10.7 -9.84,-20.9 -14.76,-31.3 -1.23,-2.6 -2.45,-5.2 -3.64,-7.8 -1.16,-2.6 -2.28,-5.2 -3.35,-7.8 -2.17,-5.3 -4.02,-10.6 -5.58,-16 -1.54,-5.4 -2.74,-10.9 -3.49,-16.4 -0.19,-1.3 -0.31,-2.7 -0.51,-4.1 -0.1,-1.4 -0.3,-2.9 -0.4,-4.3 -0.4,-2.9 -0.8,-5.8 -1.3,-8.7 -1.8,-11.6 -4.6,-22.9 -7.5,-34.1 -3,-11.1 -6.2,-22.2 -9,-33.2 -1.5,-5.5 -2.9,-10.9 -4.2,-16.5 -1.4,-5.7 -3,-11.3 -4.7,-16.9 -3.6,-11.2 -7.9,-22.2 -12.8,-32.7 -2.5,-5.3 -5,-10.5 -7.6,-15.7 -0.7,-1.3 -1.4,-2.6 -2.1,-3.8 -0.6,-1.3 -1.4,-2.7 -2.1,-3.9 -1.4,-2.6 -2.9,-5.2 -4.5,-7.7 -6.3,-10 -14.2,-19.3 -23.4,-26.7 -9.1,-7.5 -19.1,-13.2 -28.3,-20 l -0.8,0.9 c 7.9,8.5 17.2,15.5 24.9,23.6 3.9,4.1 7.5,8.3 10.7,12.8 3.3,4.5 6.1,9.3 8.7,14.2 1.3,2.4 2.6,4.9 3.8,7.5 0.5,1.2 1.1,2.5 1.7,3.8 l 1.7,3.9 c 2.3,5.2 4.5,10.4 6.6,15.7 4.2,10.5 8,21.1 11.2,31.8 1.6,5.4 3.1,10.9 4.5,16.3 0.7,2.7 1.4,5.6 2.2,8.4 0.7,2.8 1.6,5.6 2.4,8.4 3.2,11.1 6.8,22 10.1,33 3.4,10.9 6.5,21.8 9.1,32.8 0.6,2.7 1.2,5.5 1.8,8.2 l 0.8,4.2 c 0.3,1.5 0.6,2.9 1,4.4 1.3,5.8 3.1,11.4 5.3,16.9 2.1,5.5 4.58,10.8 7.14,16 1.29,2.6 2.62,5.1 3.97,7.7 1.32,2.6 2.67,5.1 4.02,7.7 5.41,10.1 10.71,20.3 14.81,30.9 8.23,21.3 12.25,43.9 18.26,66.2 1.5,5.6 3.13,11.1 4.93,16.7 0.89,2.7 1.85,5.5 2.85,8.2 0.49,1.4 0.98,2.72 1.51,4.1 l 1.49,3.99 c 3.94,10.67 7.73,21.53 12.01,32.3 2.13,5.39 4.41,10.75 6.9,16.04 1.26,2.65 2.61,5.3 4.01,7.85 1.41,2.55 2.86,5.06 4.3,7.55 2.85,5 5.81,9.87 8.418,14.89 2.649,5.02 5.019,10.152 6.706,15.616 z"
           style="fill:#ffffff;fill-opacity:1;fill-rule:nonzero;stroke:none"
           id="path1361" /></g><g
         id="g1363"
         transform="translate(334.9,1506)"
         style="fill:#ffffff"><path
           d="m 0,0 c -1.989,3.417 -4.18,6.58 -6.664,9.501 -2.431,2.959 -5.206,5.679 -7.846,8.829 -2.65,3.13 -5.1,6.68 -6.94,10.6 -1.83,3.91 -3.1,7.93 -4.07,11.97 -1.92,8.08 -2.73,16.22 -2.95,24.31 -0.13,4.06 -0.1,8.1 0.15,12.14 0.23,3.76 0.35,7.62 0.52,11.52 0.3,7.81 0.8,15.73 1.41,23.63 0.61,8 1.35,15.9 2.25,23.8 0.97,7.9 2.07,15.9 4.83,23.7 0.71,1.9 1.51,3.8 2.53,5.7 0.51,0.9 1.04,1.8 1.65,2.7 l 0.47,0.7 0.45,0.6 c 0.32,0.4 0.65,0.8 0.98,1.3 1.35,1.6 2.87,3.2 4.686,4.6 1.807,1.3 3.979,2.5 6.43,3.1 2.442,0.6 5.104,0.5 7.512,-0.1 2.424,-0.6 4.6,-1.7 6.542,-2.9 3.89,-2.5 6.93,-5.7 9.61,-9 5.34,-6.7 9.12,-14.1 12.36,-21.7 1.6,-3.8 3.03,-7.6 4.22,-11.7 0.59,-2 1.13,-4.1 1.53,-6.4 l 0.51,-2.8 0.54,-2.8 c 1.53,-7.4 3.43,-14.9 5.44,-22.41 3.93,-15.03 8.39,-30.41 10.58,-46.47 0.55,-4.01 0.91,-8.06 1.1,-12.12 0.1,-2.01 0.15,-4.12 0.1,-6.15 -0.1,-2.04 -0.17,-4.07 -0.34,-6.09 -0.3,-4.03 -0.88,-8.04 -1.69,-12 C 55.04,12.11 53.99,8.149 52.12,4.516 L 50.99,4.93 c 0.79,3.796 0.96,7.68 0.97,11.55 0,3.87 -0.2,7.74 -0.5,11.58 -0.17,1.92 -0.38,3.83 -0.64,5.72 -0.25,1.91 -0.53,3.72 -0.89,5.62 -0.7,3.77 -1.58,7.5 -2.51,11.23 C 43.62,65.52 38.25,80.16 33.79,95.48 31.6,103.1 29.64,111 28.34,119 l -0.47,3.1 c -0.15,1 -0.27,2 -0.39,3 -0.19,1.6 -0.55,3.4 -0.96,5.1 -0.84,3.6 -1.93,7.2 -3.18,10.7 -2.52,7.1 -5.71,14 -9.58,20.1 -0.98,1.5 -2.02,3 -3.13,4.3 -1.099,1.4 -2.267,2.7 -3.511,3.7 -2.505,2.2 -5.21,3.5 -8.064,3.2 -2.865,-0.2 -5.96,-2.1 -8.5,-4.7 -0.322,-0.3 -0.645,-0.6 -0.945,-0.9 l -0.47,-0.6 -0.45,-0.5 c -0.58,-0.6 -1.12,-1.4 -1.63,-2.1 -0.99,-1.6 -1.88,-3.2 -2.61,-4.9 -1.5,-3.5 -2.54,-7.2 -3.28,-11 -0.75,-3.8 -1.2,-7.6 -1.45,-11.5 -0.52,-7.8 -0.11,-15.6 0.51,-23.5 0.62,-7.8 1.55,-15.6 1.98,-23.54 0.23,-3.98 0.35,-8 0.21,-12.11 -0.12,-3.82 -0.21,-7.65 -0.22,-11.48 0,-7.64 0.36,-15.28 1.45,-22.67 0.56,-3.68 1.29,-7.31 2.42,-10.72 1.1,-3.39 2.7,-6.66 4.651,-9.91 1.946,-3.26 4.185,-6.63 6.111,-10.24 C -1.265,8.211 0.231,4.363 1.114,0.445 Z"
           style="fill:#ffffff;fill-opacity:1;fill-rule:nonzero;stroke:none"
           id="path1365" /></g><g
         id="g1367"
         transform="translate(317.9,822.2)"
         style="fill:#ffffff"><path
           d="m 0,0 2.208,11.59 c 0.686,3.86 1.341,7.71 1.924,11.56 1.098,7.72 2.015,15.41 2.205,23.08 0.128,3.8 0.09,7.72 0.04,11.58 -0.05,3.87 -0.21,7.71 -0.481,11.49 -0.276,3.78 -0.733,7.52 -1.484,10.98 -0.38,1.71 -0.862,3.36 -1.457,4.7 -0.296,0.67 -0.623,1.25 -0.927,1.67 -0.305,0.4 -0.57,0.62 -0.64,0.64 l -0.195,0.1 -0.588,0.56 c 0.15,-0.15 0,0 -0.167,0.1 -0.178,0.11 -0.415,0.24 -0.67,0.37 -0.519,0.28 -1.117,0.55 -1.736,0.82 -1.246,0.53 -2.586,1.02 -3.95,1.48 -2.735,0.89 -5.572,1.68 -8.442,2.31 -5.72,1.27 -11.58,2.03 -17.42,2.27 -5.82,0.22 -11.62,-0.1 -17.22,-1.21 -2.79,-0.57 -5.55,-1.27 -8.19,-2.28 -1.26,-0.47 -2.74,-1.11 -4.23,-1.71 -1.47,-0.6 -2.95,-1.16 -4.45,-1.71 -5.97,-2.2 -12.09,-4.06 -18.18,-5.62 -6.09,-1.56 -11.97,-3.04 -17.55,-5.24 -2.8,-1.09 -5.7,-2.42 -8.3,-3.76 -2.7,-1.5 -5.3,-3.05 -7.8,-4.76 -2.6,-1.7 -5.1,-3.46 -7.5,-5.38 -1.2,-0.94 -2.4,-1.92 -3.5,-2.92 -0.5,-0.5 -1.1,-1.02 -1.6,-1.53 -0.2,-0.26 -0.5,-0.52 -0.7,-0.77 -0.1,-0.13 -0.2,-0.25 -0.3,-0.35 0,-0.1 -0.1,-0.21 -0.1,-0.11 l -0.1,-0.29 -0.1,-0.17 c -3.4,-4.24 -6.1,-9.14 -8,-14.28 -2,-5.14 -3.4,-10.51 -4.2,-15.97 -0.4,-2.73 -0.6,-5.48 -0.8,-8.22 -0.1,-2.75 -0.2,-5.5 -0.1,-8.24 0.2,-5.484 0.9,-10.923 2.2,-16.185 1.2,-5.265 2.9,-10.355 5.3,-15.025 2.3,-4.69 5.3,-8.93 8.9,-12.39 1.7,-1.73 3.7,-3.26 5.7,-4.53 1.1,-0.65 2.1,-1.19 3.3,-1.75 l 1.8,-0.85 1.8,-0.81 c 4.9,-2.11 9.9,-3.74 15.1,-4.83 10.33,-2.2 21.08,-2.3 31.92,-1.21 5.42,0.55 10.87,1.3 16.34,2.21 l 4.11,0.7 2.06,0.36 1.03,0.18 0.6,0.11 0.5,0.1 c 0.27,0 0.54,0.1 0.76,0.1 0.93,0 2.11,0 3.5,-0.48 1.39,-0.46 2.86,-1.5 3.73,-2.63 0.92,-1.14 1.33,-2.18 1.62,-3.03 0.27,-0.86 0.39,-1.56 0.47,-2.18 0.15,-1.23 0.15,-2.17 0.13,-3.04 0,-0.86 -0.1,-1.63 -0.1,-2.34 -0.1,-1.43 -0.16,-2.68 -0.13,-3.66 0,-0.98 0.22,-1.68 0.15,-1.5 l -0.1,0.1 v 0 c 0.1,-0.1 -0.65,0.88 -0.33,0.44 l 0.1,-0.1 c 0,0 -0.13,0.15 -0.16,0.18 -0.1,0.1 -0.14,0.12 -0.14,0.11 0,0 0.21,-0.15 0.51,-0.26 0.6,-0.25 1.52,-0.47 2.5,-0.6 2,-0.26 4.28,-0.14 6.45,0.3 2.18,0.43 4.28,1.21 6.17,2.24 3.8,2.07 6.6,5.33 8.03,9.51 1.435,4.18 1.529,9.18 0.8,14.23 l -0.55,3.87 3.169,1.54 c 6.575,3.17 13.369,5.87 20.181,8.06 3.4,1.12 6.79,2.17 10.15,3.21 l 10.06,3.16 c 3.37,1.07 6.78,2.11 10.17,3.13 3.4,1 6.81,1.96 10.21,2.91 6.82,1.902 13.67,3.657 20.53,5.368 l 0.39,-1.136 C 67.76,-8.552 61.25,-11.29 54.73,-13.99 l -9.74,-4.1 c -3.25,-1.36 -6.47,-2.73 -9.7,-4.14 -6.47,-2.9 -13.13,-5.43 -19.51,-8.17 -3.2,-1.38 -6.353,-2.77 -9.443,-4.25 -3.087,-1.48 -6.108,-3.06 -9.065,-4.75 l 2.62,5.4 c 0.654,-3.03 1.102,-6.17 1.143,-9.43 0.03,-3.25 -0.337,-6.62 -1.293,-9.94 -0.95,-3.31 -2.524,-6.57 -4.694,-9.41 -2.16,-2.84 -4.879,-5.24 -7.858,-7.08 -2.99,-1.84 -6.24,-3.11 -9.57,-3.91 -3.35,-0.79 -6.79,-1.13 -10.42,-0.81 -1.83,0.17 -3.7,0.51 -5.75,1.27 -1.03,0.39 -2.1,0.89 -3.25,1.69 -0.57,0.4 -1.16,0.88 -1.75,1.49 -0.15,0.15 -0.42,0.46 -0.51,0.57 l -0.1,0.1 c 0.3,-0.4 -0.44,0.6 -0.4,0.55 l -0.1,0.13 c -0.22,0.34 -0.42,0.67 -0.59,1.01 -1.34,2.73 -1.48,4.91 -1.6,6.74 -0.1,1.84 0,3.43 0.1,4.83 0,0.69 0.1,1.34 0.1,1.89 0,0.55 0,1.03 0,1.2 0,0.1 0,0.1 0,-0.11 0.1,-0.18 0.19,-0.56 0.65,-1.16 0.44,-0.57 1.3,-1.19 2.03,-1.42 0.71,-0.24 1.18,-0.23 1.4,-0.22 h 0.23 c 0,0 0.13,0 0.1,0 h -0.13 l -0.43,-0.1 -1.06,-0.19 -2.12,-0.38 c -1.42,-0.25 -2.84,-0.47 -4.27,-0.7 -5.7,-0.88 -11.47,-1.63 -17.33,-2.03 -5.85,-0.41 -11.79,-0.53 -17.76,-0.17 -5.97,0.34 -11.96,1.24 -17.86,2.7 -5.9,1.47 -11.6,3.54 -17,6.13 l -2,0.99 c -0.7,0.34 -1.4,0.71 -2,1.04 -1.4,0.72 -2.8,1.58 -4.1,2.49 -2.7,1.83 -5.1,3.95 -7.3,6.27 -4.3,4.67 -7.5,10.13 -9.8,15.74 -2.3,5.65 -3.8,11.5 -4.6,17.362 -1.6,11.751 -0.9,23.528 1.5,34.888 1.3,5.67 2.9,11.26 5.2,16.6 2.3,5.33 5.1,10.49 8.9,15.06 l -0.3,-0.46 c 0.2,0.46 0.3,0.66 0.5,0.89 0.2,0.21 0.3,0.39 0.4,0.56 0.3,0.34 0.6,0.64 0.9,0.94 0.6,0.59 1.2,1.14 1.8,1.69 1.2,1.08 2.4,2.1 3.6,3.1 2.5,1.97 5,3.89 7.6,5.71 2.5,1.82 5.2,3.61 7.8,5.25 2.8,1.69 5.6,3.17 8.5,4.58 5.77,2.85 11.86,4.88 17.62,7.04 5.79,2.14 11.39,4.46 16.87,7.13 l 8.36,4.19 c 3.08,1.4 6.27,2.6 9.53,3.5 6.52,1.7 13.23,2.3 19.82,2.2 6.61,-0.2 13.13,-1.1 19.51,-2.6 3.191,-0.8 6.355,-1.7 9.491,-2.8 1.571,-0.64 3.135,-1.26 4.727,-2 0.798,-0.37 1.601,-0.77 2.447,-1.24 0.425,-0.25 0.859,-0.5 1.332,-0.82 0.485,-0.33 0.969,-0.65 1.68,-1.34 l -0.782,0.63 c 1.58,-1.06 2.65,-2.33 3.455,-3.55 0.79,-1.21 1.34,-2.4 1.8,-3.55 0.88,-2.3 1.38,-4.47 1.76,-6.61 0.75,-4.27 0.94,-8.38 1.03,-12.45 0.1,-4.07 -0.1,-8.09 -0.3,-12.08 C 14.45,53.64 14.16,49.7 13.68,45.66 12.63,37.65 11.02,29.8 8.834,22.15 8.299,20.23 7.74,18.32 7.161,16.43 6.564,14.54 5.935,12.65 5.296,10.78 4.027,7.03 2.631,3.321 1.151,-0.34 Z"
           style="fill:#ffffff;fill-opacity:1;fill-rule:nonzero;stroke:none"
           id="path1369" /></g></g></g></svg>
