<?xml version="1.0" encoding="UTF-8" standalone="no"?>
<svg
   width="148mm"
   height="105mm"
   viewBox="0 0 559.4 396.9"
   version="1.1"
   id="svg4276"
   sodipodi:docname="Line_Ashwa Sanchalana - D0011-min.svg"
   inkscape:version="1.2.1 (9c6d41e410, 2022-07-14)"
   xmlns:inkscape="http://www.inkscape.org/namespaces/inkscape"
   xmlns:sodipodi="http://sodipodi.sourceforge.net/DTD/sodipodi-0.dtd"
   xmlns="http://www.w3.org/2000/svg"
   xmlns:svg="http://www.w3.org/2000/svg">
  <sodipodi:namedview
     id="namedview4278"
     pagecolor="#505050"
     bordercolor="#eeeeee"
     borderopacity="1"
     inkscape:showpageshadow="0"
     inkscape:pageopacity="0"
     inkscape:pagecheckerboard="0"
     inkscape:deskcolor="#505050"
     inkscape:document-units="mm"
     showgrid="false"
     inkscape:zoom="0.5947"
     inkscape:cx="-1.682"
     inkscape:cy="199.3"
     inkscape:window-width="1620"
     inkscape:window-height="1058"
     inkscape:window-x="-6"
     inkscape:window-y="-6"
     inkscape:window-maximized="1"
     inkscape:current-layer="svg4276" />
  <defs
     id="defs4212">
    <clipPath
       clipPathUnits="userSpaceOnUse"
       id="a">
      <path
         d="M0 0h1240v1754H0z"
         id="path4209" />
    </clipPath>
  </defs>
  <g
     clip-path="url(#a)"
     style="fill:#353535;fill-opacity:1"
     transform="matrix(.4335 0 0 -.4335 24.662 566.21)"
     id="g4274">
    <g
       style="fill:#353535;fill-opacity:1"
       id="g4216">
      <path
         d="M0 0c-5.962-2.715-11.14-6.778-16.18-10.9-5.04-4.12-10-8.45-15.64-11.83-5.56-3.39-10.79-7.27-15.78-11.44-4.99-4.18-9.75-8.61-14.32-13.25-4.56-4.63-8.93-9.47-13.21-14.37C-79.4-66.7-83.5-71.75-87.29-77c-3.8-5.25-7.22-10.78-10.66-16.32-3.45-5.55-6.85-11.08-10.45-16.58-1.8-2.8-3.6-5.5-5.5-8.2l-.7-1-.4-.5-.4-.5-1.5-2-3-3.8c-3.9-5.2-7.6-10.5-11-16-3.4-5.5-6.6-11.2-9.8-16.9-3.2-5.8-7.1-11.3-11.1-16.4-4.1-5.2-8.3-10.2-12.4-15.3-1-1.2-2-2.5-3-3.8l-2.9-3.9c-2.1-2.6-4.2-5.1-6.5-7.6-4.4-4.9-9.2-9.5-14.1-13.9-4.8-4.4-9.6-8.8-14.3-13.2-9.4-9-18.3-18.5-27.6-27.7-2.4-2.3-4.7-4.7-7.1-6.9-2.3-2.3-4.5-4.5-6.7-6.9-4.4-4.7-8.7-9.6-13-14.5-4.3-5-8.8-9.9-13.5-14.5-4.9-4.6-9.7-8.9-14.5-13.4-9.7-8.7-19.5-17.4-28.9-26.3-9.6-9.2-20.1-17.3-30.8-25-5.3-3.8-10.7-7.5-16-11.3-5.4-3.7-10.7-7.4-16.2-11.1-10.9-7.4-22.3-14.3-34.5-19.8l-18.1-7.7c-6.1-2.5-12.3-5-18.7-7-3.2-1-6.5-1.9-9.9-2.5-1.6-.4-3.3-.7-5-.9-1.7-.2-3.5-.4-5.1-.6-6.6-.6-13.2-.9-19.8-1-13.3-.3-26.5.2-39.6 1.4-13.2 1.2-26.2 3-39.2 5.5l-19.2 3.8-19.2 3.8c-25.6 4.9-51.3 9.5-77 13.2-12.9 1.8-25.8 3.5-38.7 4.8-6.5.7-12.9 1.2-19.4 1.8l-2.4.1-2.4.2c-1.6.1-3.2.1-4.8.2-3.2.1-6.4.1-9.6.1-12.9-.1-26.1-.8-39.6.5-1.7.2-3.4.4-5.1.7l-2.5.3c-.8.2-1.7.3-2.5.5-3.4.7-6.7 1.6-9.9 2.5-6.4 1.9-12.5 4-18.4 4.9-2.9.5-5.8.7-8.6.5-2.7-.3-5.4-1.1-7.8-2.3-2.5-1.2-4.9-2.9-6.7-4.7-1.8-1.9-3-4-3.5-6.4-.6-2.4-.5-5.2 0-8 .5-2.9 1.3-5.9 2.3-9l1.4-4.7.7-2.5.6-2.4 2.4-9.5c1.6-6.4 3.1-13 3.9-19.7.4-3.4.6-6.9.7-10.3 0-1.7-.1-3.4-.1-5.2-.1-1.7-.3-3.5-.6-5.2-.9-6.9-2.9-13.4-4.5-19.6-1.6-6.1-2.8-12.2-2.6-18.1.1-2.6.7-5.1 2-7.1 1.3-2.1 3.2-3.9 5.5-5.3 2.4-1.4 5.1-2.4 8-3.2 2.9-.8 5.9-1.3 9-1.7 6.2-.7 12.6-.8 19-.6 6.4.1 12.8.6 19.4 1l-3.1-1.7c1.3 1.8 1.8 3.7 1.3 5.5-.3.9-.7 1.7-1.3 2.4-.6.6-1.4 1-2.1 1.2l-2.2.5-.8 2.2c.3-.6.4-.8.5-.9l.1-.1-.1.1c-.2.2-.5.4-.8.6-.6.4-1.3.8-2 1.3-1.4.8-2.9 1.6-4.5 2.4l-1.3.7c-.3.2-.9.5-1.3.8-.9.6-1.8 1.2-2.6 1.9-1.7 1.5-3.1 3.2-4.2 5.1-2.3 3.9-3 8.3-3 12.3.1 4.1.9 7.9 2 11.6 1.2 3.6 2.7 7.1 4.5 10.4 1.8 3.3 3.9 6.5 6.3 9.5 1.2 1.5 2.5 2.9 4 4.3 1.4 1.3 2.9 2.5 4.5 3.7 3.2 2.2 6.8 3.9 10.5 5.2 7.3 2.5 15 3 22.3 2.7 7.4-.3 14.6-1.5 21.6-2.8 7.1-1.4 14-3.1 20.9-4.6 3.4-.7 6.8-1.4 10.2-1.9 3.6-.6 7.1-1.2 10.6-1.9 28-5.3 55.4-12.7 82.9-19.2 13.8-3.2 27.6-6.2 41.5-8.6 1.7-.3 3.5-.6 5.3-.9 1.7-.4 3.5-.8 5.2-1.1 3.6-.8 7-1.7 10.5-2.7 6.9-2 13.7-4.2 20.4-6.5 6.7-2.3 13.4-4.6 20.1-6.6 3.3-1 6.7-1.9 10.1-2.7 3.4-.9 6.8-1.5 10.3-2.2 6.9-1.4 13.8-2.6 20.7-3.1 6.9-.5 13.8-.2 20.5 1.3 1.7.3 3.3.8 5 1.3l2.5.8c.9.3 1.7.5 2.6.8 3.6.9 7.2 1.4 10.8 1.7 7.2.7 14.3.7 21.1 1.7 1.8.2 3.5.5 5.1.9 1.7.3 3.4.8 5.1 1.2l10.3 2.7c6.9 1.8 13.7 3.5 20.5 5.4 6.8 1.9 13.6 3.9 20.3 6.2 6.7 2.3 13.4 4.6 20.1 6.8 13.5 4.5 27 8.8 40.5 13l10.1 3.2c3.4 1 6.7 2.2 10.1 3.4 6.6 2.5 13.1 5.2 19.7 7.9 13.1 5.4 26 11.2 39.2 16.4-13.1-5.4-25.9-11.5-38.9-17.2-6.5-2.8-13-5.6-19.6-8.2-3.3-1.3-6.6-2.6-10-3.7l-10.1-3.3c-13.5-4.4-26.9-9-40.3-13.6-6.6-2.3-13.3-4.7-20-7.2-6.7-2.3-13.4-4.5-20.3-6.5-6.8-2-13.6-3.9-20.4-5.8l-10.3-2.8c-1.7-.4-3.4-1-5.2-1.4-1.8-.4-3.5-.7-5.3-1-7.2-1.1-14.3-1.2-21.3-2-3.4-.3-6.8-.9-10.1-1.8-.8-.2-1.6-.5-2.4-.7l-2.6-.9c-1.7-.6-3.5-1.1-5.2-1.5-7.2-1.7-14.6-2.1-21.8-1.7-7.2.5-14.3 1.7-21.3 2.9-3.5.7-7 1.3-10.5 2.1-3.5.9-7 1.8-10.4 2.8-6.9 1.9-13.7 4.1-20.4 6.3-13.5 4.4-26.8 8.5-40.7 10.5-14.1 2.2-28 5.1-41.9 8.3-27.7 6.2-55.1 13.4-82.8 18.4-3.5.6-6.9 1.2-10.4 1.7s-7.1 1.2-10.6 1.9c-7 1.5-13.9 3.1-20.8 4.4-6.8 1.3-13.7 2.3-20.5 2.5-6.7.2-13.5-.3-19.5-2.4-3.1-1.1-5.9-2.5-8.5-4.3-1.3-.9-2.5-1.9-3.7-3-1.1-1.1-2.2-2.3-3.2-3.6-4.1-5.1-7.3-11.1-9.3-17.3-1-3.1-1.6-6.3-1.6-9.3 0-3 .6-5.8 1.9-8.1.7-1.2 1.6-2.2 2.6-3.1.5-.4 1.1-.8 1.7-1.2.3-.2.5-.3.9-.6-.3.2 0 0 0 .1l.1-.1.3-.2.6-.3c1.7-.8 3.3-1.7 4.9-2.6.8-.5 1.7-1 2.5-1.6.4-.3.9-.6 1.4-1 .2-.2.5-.4.8-.8l.2-.2c.1-.2.2-.3.3-.4.2-.3.5-.6.8-1.5l-2.9 2.7c2.4-.5 4.5-1.8 6.1-3.5 1.6-1.6 2.7-3.7 3.3-5.8.6-2.2.7-4.5.2-6.7-.5-2.2-1.5-4.2-2.7-5.9l-1.2-1.6-1.9-.1c-12.9-.8-26.3-2-39.8-.5-3.4.4-6.9 1-10.3 1.9-3.4.9-6.8 2.1-10.1 4.1-3.3 1.8-6.4 4.5-8.6 8-1 1.8-1.8 3.7-2.4 5.6-.5 2-.8 3.9-.9 5.9-.1 7.2 1.2 14.1 2.9 20.5 1.7 6.5 3.5 12.5 4.3 18.6.2 1.5.4 3 .5 4.5 0 1.5.1 3.1 0 4.6 0 3.1-.2 6.2-.6 9.3-.7 6.2-2.1 12.4-3.7 18.7l-2.4 9.4-.6 2.3-.7 2.3-1.4 4.7c-.9 3.1-1.9 6.4-2.5 10-.6 3.5-.9 7.4 0 11.4s3.1 7.8 5.8 10.6c.7.7 1.4 1.3 2.1 2l1.2.9.5.4.5.4c1.6 1.1 3.2 2.1 4.9 2.9 3.3 1.7 7.1 2.7 10.8 3.1 3.8.4 7.5.1 11-.5 6.9-1.1 13.2-3.3 19.4-5.1 3.1-.9 6.1-1.7 9.1-2.3.8-.2 1.5-.3 2.3-.4l2.3-.4c1.5-.2 3.1-.4 4.7-.5 12.5-1.2 25.5-.6 38.7-.6 3.2.1 6.6 0 9.9-.1 1.7 0 3.3-.1 5-.2l2.5-.2 2.5-.2c6.5-.5 13.1-1.1 19.6-1.8 13-1.3 26.1-3 39-4.9 26-3.7 51.8-8.4 77.4-13.4l19.3-3.8 19.1-3.9c12.7-2.4 25.5-4.3 38.4-5.5 12.8-1.2 25.7-1.8 38.6-1.6 6.5.1 12.9.4 19.3.9 1.7.1 3.1.3 4.7.5 1.5.2 3 .4 4.6.7 3 .6 6 1.4 9.1 2.3 6 1.9 12 4.2 17.9 6.7l18 7.6c11.7 5.1 22.7 11.7 33.5 18.9 5.4 3.5 10.8 7.3 16.2 10.9 5.4 3.7 10.8 7.4 16 11.1 10.6 7.5 20.9 15.3 30.3 24.1 9.6 8.9 19.4 17.6 29.2 26.2 4.8 4.4 9.8 8.7 14.4 13.1 4.7 4.4 9 9.1 13.4 14 4.3 4.8 8.6 9.8 13.2 14.5 2.3 2.4 4.7 4.8 7.1 7 2.3 2.3 4.7 4.5 7 6.8 9.4 9 18.5 18.4 28.1 27.4 9.5 9 19.8 17.1 28.5 26.5 2.2 2.4 4.3 4.8 6.3 7.3l3 3.9c1 1.3 2 2.6 3.1 3.8 4.2 5.1 8.5 10 12.5 15 4.1 5.1 7.9 10.2 11 15.8 3.3 5.6 6.6 11.4 10.2 16.9 3.5 5.5 7.4 10.9 11.4 16.1l3.1 3.8 1.5 1.9.4.4.3.5.7 1c2 2.6 3.8 5.3 5.6 8 3.7 5.4 7.2 10.88 10.7 16.37 3.54 5.48 7.09 11 11.05 16.26 3.95 5.26 8.19 10.28 12.57 15.15 4.41 4.85 8.88 9.61 13.57 14.2 9.37 9.14 19.49 17.64 30.83 24.24 5.65 3.21 10.68 7.4 15.83 11.42C-11.32-6.544-6.022-2.58 0 0"
         style="fill:#353535;fill-opacity:1;fill-rule:nonzero;stroke:none"
         transform="translate(941 1078)"
         id="path4214" />
    </g>
    <g
       style="fill:#353535;fill-opacity:1"
       id="g4220">
      <path
         d="M0 0c.26-2.313.438-4.63.658-6.942.19-2.313.373-4.618.607-6.918.465-4.58.984-9.12 2.277-13.32a31.652 31.652 0 0 1 5.979-11.28c2.709-3.32 6.009-6.25 9.529-8.99 1.75-1.39 3.43-2.53 5.29-3.58a44.95 44.95 0 0 1 5.74-2.71c3.98-1.52 8.2-2.56 12.54-3.23 4.34-.67 8.78-1.05 13.29-1.23 4.5-.2 9.07-.25 13.68-.27 18.52-.16 36.81-.78 54.71 1.86 4.4.67 8.8 1.51 13.2 2.67 4.2 1.14 8.5 2.74 12.7 4.51C158.7-45.96 167-41.6 176-39c-8.2-4.44-15.7-9.69-23.8-14.4-4.1-2.32-8.3-4.47-12.9-6.19-4.5-1.65-9.1-2.94-13.7-3.98-9.3-2.08-18.8-3.06-28.14-3.55-4.69-.25-9.37-.33-14.03-.39-4.66 0-9.3 0-13.92.1-9.26.11-18.79.27-28.37 2.11-4.77.93-9.56 2.25-14.12 4.32-2.27 1.02-4.5 2.2-6.61 3.58-2.09 1.36-4.14 2.99-5.9 4.61-3.55 3.22-6.971 6.75-9.741 10.9-2.798 4.12-4.726 8.95-5.51 13.78-.773 4.84-.744 9.59-.475 14.25C-.941-9.24-.493-4.629 0 0"
         style="fill:#353535;fill-opacity:1;fill-rule:nonzero;stroke:none"
         transform="translate(673 706)"
         id="path4218" />
    </g>
    <g
       style="fill:#353535;fill-opacity:1"
       id="g4224">
      <path
         d="M0 0c4.233 8.423 9.954 15.99 16.16 22.99 6.23 6.99 13.01 13.39 19.9 19.51l5.2 4.55 2.59 2.22c.47.41.77.67 1.17 1.04l1.14 1.09c3.04 2.98 5.93 6.47 8.95 9.95 3.02 3.48 6.14 7.04 9.7 10.25 1.78 1.59 3.66 3.11 5.7 4.4 2.01 1.31 4.21 2.38 6.49 3-3.63-3-6.33-6.58-8.87-10.32-2.52-3.74-4.85-7.64-7.34-11.55-2.5-3.92-5.13-7.85-8.42-11.59-.41-.47-.84-.94-1.28-1.39-.42-.43-.97-.96-1.35-1.32l-2.56-2.41-5.15-4.65c-6.91-6.12-13.97-11.95-20.95-17.84C14.04 12.08 7.183 6.084 0 0"
         style="fill:#353535;fill-opacity:1;fill-rule:nonzero;stroke:none"
         transform="translate(938 716)"
         id="path4222" />
    </g>
    <g
       style="fill:#353535;fill-opacity:1"
       id="g4228">
      <path
         d="M0 0c8.029 2.566 15.85 4.773 23.51 7.343a378.755 378.755 0 0 1 22.62 8.277c1.87.73 3.73 1.5 5.58 2.28 1.87.74 3.72 1.55 5.58 2.33 3.36 1.37 6.93 3.47 10.53 5.34 7.19 3.87 14.5 7.68 22.18 11.1-2.67-3.29-5.7-6.19-8.76-9.02-3.08-2.81-6.27-5.47-9.58-8.02-1.65-1.27-3.34-2.51-5.09-3.71-.88-.6-1.76-1.2-2.7-1.77-.9-.56-2.08-1.2-2.95-1.64-1.86-.97-3.75-1.86-5.65-2.759a183.12 183.12 0 0 0-5.8-2.485C41.66 4.139 33.48 1.809 25.16.486 16.83-.797 8.357-1.181 0 0"
         style="fill:#353535;fill-opacity:1;fill-rule:nonzero;stroke:none"
         transform="translate(771 808)"
         id="path4226" />
    </g>
    <g
       style="fill:#353535;fill-opacity:1"
       id="g4232">
      <path
         d="M0 0a477.782 477.782 0 0 1 14.67 4.809c4.89 1.651 9.71 3.347 14.53 5.183 4.82 1.818 9.78 3.518 14.98 4.568 1.29.26 2.63.47 3.92.65 1.26.17 2.51.36 3.78.57l7.61 1.25c5.11.82 10.3 1.52 15.59 1.78 5.29.24 10.74.1 16.2-1.38 2.71-.75 5.43-1.85 7.89-3.53 1.33-.91 2.13-1.59 3.23-2.34l3.1-2.203c4.2-2.918 8.5-5.802 12.7-9.24 4.1-3.418 8.1-7.497 11-12.357.8-1.21 1.4-2.44 2-3.76.6-1.11 1.2-2.46 1.7-3.7 1-2.52 1.9-5.13 2.6-7.78 1.4-5.33 2-10.91 1.9-16.45-.2-5.54-1.2-11-2.8-16.22-.7-2.61-1.6-5.18-2.5-7.55-.9-2.46-1.9-4.9-2.8-7.32-2-4.83-4-9.62-6.1-14.37-4.3-9.49-8.8-18.81-13.4-28.01-4.6-9.3-9.3-18.4-13.76-27.6-2.25-4.6-4.45-9.2-6.57-13.9-2.12-4.6-4.26-9.4-6.5-14-4.46-9.3-9.03-18.6-13.55-27.8l-6.74-13.9-6.88-13.8c-4.6-9.2-9.14-18.4-13.62-27.7a347.2 347.2 0 0 1-12.24-28.1c-1.87-4.7-3.63-9.6-5.26-14.4-1.61-4.7-2.56-9.7-3.17-14.7-.59-5.1-.76-10.2-.64-15.3.1-5.2.51-10.3 1.13-15.4-2.22 10.1-3.42 20.4-2.98 30.8.21 5.3.94 10.5 2.31 15.6 1.38 5 2.85 10 4.45 14.9 3.23 9.9 6.94 19.6 11.03 29.1 4.06 9.5 8.4 18.8 12.66 28.2l6.37 14.1 6.46 14c4.34 9.3 8.71 18.7 12.94 28l6.32 14c2.12 4.8 4.33 9.5 6.56 14.1 4.48 9.4 9.11 18.6 13.68 27.8 4.6 9.2 9.1 18.33 13.4 27.61 2.1 4.64 4.1 9.32 6 14.02 1 2.35 1.9 4.72 2.8 7.07l1.3 3.56c.5 1.15.9 2.3 1.2 3.46 1.5 4.62 2.4 9.35 2.7 14.1.2 4.75-.2 9.51-1.3 14.16-.6 2.32-1.3 4.63-2.2 6.89-.4 1.16-.9 2.16-1.4 3.39-.5 1.03-1 2.08-1.6 3.09-2.2 4.04-5.4 7.609-9.1 10.848-3.6 3.249-7.8 6.201-11.9 9.314l-3.13 2.376c-1.01.772-2.16 1.742-2.95 2.318-1.76 1.284-3.81 2.284-6.02 3.004-4.44 1.44-9.41 1.86-14.38 1.86-5 0-10.06-.47-15.15-1l-7.69-.79c-1.28-.13-2.58-.25-3.88-.35-1.27-.1-2.49-.22-3.73-.39-4.96-.69-9.86-2.076-14.79-3.502A376.686 376.686 0 0 0 0 0"
         style="fill:#353535;fill-opacity:1;fill-rule:nonzero;stroke:none"
         transform="translate(974 887)"
         id="path4230" />
    </g>
    <g
       style="fill:#353535;fill-opacity:1"
       id="g4236">
      <path
         d="M0 0c-3.427-21.56-6.198-43.16-9.508-64.77-.822-5.4-1.792-10.79-2.662-16.15a709.83 709.83 0 0 1-2.4-16.11c-1.49-10.77-2.93-21.57-4.32-32.37l-2.17-16.2c-.72-5.4-1.3-10.7-1.69-16.1-.8-10.7-.98-21.5-.96-32.3l.1-16.4c0-2.7 0-5.5-.1-8.3-.1-2.8-.22-5.5-.43-8.3-.2-2.8-.47-5.6-.84-8.4-.37-2.8-.82-5.7-1.57-8.6-1.47-5.6-3.28-10.6-4.5-15.7-1.27-5-1.94-9.9-1.49-14.7.1-1.2.3-2.3.53-3.7l.65-4 1.3-8.1c1.71-10.8 3.35-21.7 4.55-32.6.6-5.4 1.15-10.9 1.62-16.4l1.36-16.3c.47-5.4 1.03-10.7 1.75-16 .71-5.4 1.61-10.6 2.83-15.8 1.19-5.5 2.15-10.8 3.11-16.2.94-5.4 1.87-10.8 2.75-16.2l2.752-16.1c.939-5.4 1.758-10.8 2.579-16.2 1.599-10.7 3.353-21.4 6.292-31.8l1.157-4c.38-1.3.715-2.6 1.037-4l1.867-7.9c.624-2.7 1.287-5.3 2.11-7.9.845-2.6 1.776-5.1 3.326-7.4-1.76 2.1-2.937 4.6-3.986 7.2-1.041 2.5-1.921 5.1-2.761 7.7l-2.416 7.8c-.409 1.3-.829 2.6-1.283 3.9l-1.427 3.8c-3.711 10.4-6.024 21.2-8.267 31.9-1.1 5.3-2.13 10.6-3.3 15.9l-3.47 16c-2.3 10.7-4.3 21.5-6.9 31.9-1.42 5.3-2.57 10.8-3.47 16.3-.88 5.4-1.54 10.9-2.13 16.4l-1.68 16.2c-.56 5.4-1.21 10.8-1.91 16.2-1.37 10.7-2.97 21.4-4.77 32.2l-1.35 8-.68 4.1c-.22 1.2-.49 2.8-.63 4.3-.61 6.1.22 12.2 1.62 17.7 1.4 5.6 3.3 10.8 4.63 15.7 1.21 4.8 1.82 10.2 2.25 15.4.21 2.7.36 5.3.46 8 .11 2.7.13 5.3.13 8 0 5.5 0 11 .13 16.4.19 11 .59 22 1.62 33 .53 5.5 1.19 11 2.09 16.5l2.68 16.1c1.78 10.8 3.46 21.5 5.45 32.31.99 5.38 2.03 10.74 3.15 16.12l3.39 15.99C-9.326-42.68-5.375-21.17 0 0"
         style="fill:#353535;fill-opacity:1;fill-rule:nonzero;stroke:none"
         transform="translate(888 995)"
         id="path4234" />
    </g>
    <g
       style="fill:#353535;fill-opacity:1"
       id="g4240">
      <path
         d="M0 0c5.557-4.325 9.407-10.54 12.03-17.06 2.64-6.55 4.14-13.51 5.07-20.5.94-6.99 1.25-14.07 1.28-21.08 0-7.03-.19-14.08-.8-21.11-.31-3.52-.7-7.03-1.2-10.53l-.4-2.63-.18-1.26-.14-1.23c-.17-1.66-.25-3.36-.29-5.1-.1-3.4 0-6.9-.21-10.5-.1-1.8-.24-3.6-.52-5.5-.14-.9-.3-1.8-.51-2.7l-.59-2.6c-3.1-13.6-5.915-27.3-9.609-41a253.52 253.52 0 0 0-6.36-20.2c-2.428-6.7-4.949-13.2-7.442-19.7-4.989-13.1-9.859-26.1-13.699-39.3-3.88-13.3-6.7-26.8-7.31-40.3-.48-13.9-.67-27.9-.72-41.8-.1-14 0-28 0-42s-.16-28-.44-42l-.48-21c-.17-6.9-.13-13.8.15-20.7.56-13.8 2.03-27.5 4.75-41 .69-3.3 1.45-6.7 2.3-10l.66-2.4.34-1.3.17-.6.17-.5c.38-1.3.98-2.6 1.72-3.7 2.95-4.7 8.57-8.1 14.607-10.6 6.095-2.4 12.726-4.2 19.433-5.7 6.73-1.4 13.58-2.7 20.48-4 3.45-.7 6.91-1.4 10.37-2.2 3.45-.7 6.97-1.6 10.31-2.4l20.38-5c13.61-3.4 27.28-6.9 40.68-11.8l.8-.3.5-.6c.8-.9 1.5-1.8 2.1-3 .6-1.1 1.2-2.5 1.2-4.3 0-.9-.2-1.8-.5-2.6-.4-.8-.9-1.5-1.4-2.1-1-1.2-2.1-1.9-3.2-2.4-2.1-1.1-4.1-1.7-6.1-2.1-2-.5-4-.8-5.9-1-3.94-.5-7.82-.7-11.66-.8l-5.66-.1c-1.89 0-3.8-.1-5.73-.1-15.28-.3-30.46.3-45.59.5-7.58.1-15.19.2-22.81.6-7.629.3-15.265 1-22.81 2.2-7.51 1.3-14.99 2.6-22.45 4.2-3.72.7-7.43 1.6-11.11 2.6-3.67 1.1-7.34 2.2-10.79 4l-.16.1-.1.1c-1.65 3.1-2.86 6.5-3.58 10-.36 1.7-.61 3.5-.78 5.2-.2 1.8-.25 3.5-.61 5.2.45-1.7.59-3.4.87-5.2.26-1.7.59-3.4 1.03-5.1.88-3.4 2.23-6.6 3.99-9.6l-.23.2c3.4-1.5 7.07-2.5 10.72-3.3 3.67-.9 7.38-1.6 11.11-2.2 7.45-1.3 14.97-2.2 22.47-3.2 7.472-1 14.981-1.4 22.52-1.5 7.53-.1 15.1.1 22.69.2 15.2.2 30.37 0 45.41.7 1.86.1 3.74.2 5.64.3l5.71.2c3.73.2 7.44.5 11.01 1 1.8.2 3.6.6 5.3 1 1.7.4 3.3.9 4.6 1.6.6.3 1.1.7 1.3 1 .2.3.2.3.2.5 0 .1-.1.5-.4 1-.3.5-.8 1.1-1.3 1.7l1.4-.9c-13.02 4.5-26.56 7.7-40.15 10.8l-20.47 4.7c-3.45.8-6.73 1.6-10.13 2.3-3.38.7-6.79 1.3-10.21 1.9-6.86 1.3-13.78 2.5-20.74 3.9-6.946 1.5-13.948 3.2-20.86 5.9-3.45 1.4-6.89 3-10.14 5.2-3.24 2.2-6.33 5-8.61 8.6-1.14 1.8-2.04 3.7-2.71 5.8l-.22.7-.18.7-.36 1.3-.7 2.6c-.9 3.4-1.71 6.9-2.44 10.4-2.89 14-4.45 28.1-5.08 42.3-.31 7.1-.39 14.2-.24 21.3l.55 21c.33 13.9.57 27.9.6 41.8 0 14 0 28 .2 42.1.21 14 .55 28 1.21 42.1.82 14.4 3.95 28.5 8.1 42 4.19 13.6 9.41 26.7 14.64 39.7 2.62 6.5 5.27 13 7.782 19.4 2.48 6.5 4.633 13 6.634 19.7 3.986 13.3 7.15 26.9 10.632 40.5l.655 2.5c.202.8.367 1.6.511 2.4.286 1.6.466 3.3.606 5 .25 3.4.32 6.8.53 10.4.11 1.78.26 3.57.5 5.38l.2 1.37.24 1.33.47 2.55c.61 3.41 1.12 6.84 1.53 10.28.84 6.88 1.29 13.83 1.5 20.78.26 6.97.24 13.91-.4 20.83-.64 6.91-1.85 13.79-4.1 20.36C8.796-10.9 5.332-4.597 0 0"
         style="fill:#353535;fill-opacity:1;fill-rule:nonzero;stroke:none"
         transform="translate(961 1014)"
         id="path4238" />
    </g>
    <g
       style="fill:#353535;fill-opacity:1"
       id="g4244">
      <path
         d="M0 0c5.681-3.794 11.44-7.22 17.37-10.43l17.8-9.63c5.94-3.26 11.87-6.63 17.68-10.36.72-.47 1.45-.93 2.17-1.42l2.04-1.35c1.36-.88 2.77-1.74 4.19-2.59 2.83-1.71 5.71-3.39 8.64-5.05l8.76-5.05c2.92-1.73 5.86-3.44 8.76-5.24 2.9-1.81 5.81-3.63 8.65-5.61 2.86-1.97 5.64-4.03 8.34-6.44 1.4-1.21 2.7-2.51 4-4.11.6-.81 1.2-1.69 1.7-2.82.3-.57.5-1.2.6-1.96.1-.37.1-.78.1-1.19v-.64s-.1-.32 0-.2h-.1v-.26c-.5-2.64-2.2-4.57-3.9-5.79-1.7-1.23-3.5-1.94-5.3-2.47-3.6-.97-7.1-1.27-10.57-1.26-3.47 0-6.89.32-10.26.89 1.69.23 3.38.42 5.05.7 1.67.25 3.33.53 4.96.89 3.24.71 6.47 1.55 9.25 2.92 1.37.67 2.67 1.46 3.57 2.37.9.88 1.3 1.89 1.3 2.62l.1.16v.1c0 .14-.1-.15 0-.13h-.1v.1c-.1.1-.1.24-.3.42-.2.39-.6.87-1.1 1.35-.9.97-2.2 1.93-3.42 2.86-5.16 3.67-11.05 6.92-16.88 10.17l-8.84 4.88-8.86 4.99c-2.94 1.72-5.89 3.45-8.82 5.29-1.46.93-2.91 1.89-4.36 2.89l-2.14 1.52-2.01 1.45c-5.4 3.86-11.01 7.57-16.59 11.39-5.58 3.83-11.18 7.74-16.55 11.99C9.603-9.8 4.362-5.285 0 0"
         style="fill:#353535;fill-opacity:1;fill-rule:nonzero;stroke:none"
         transform="translate(996.3 541.7)"
         id="path4242" />
    </g>
    <g
       style="fill:#353535;fill-opacity:1"
       id="g4248">
      <path
         d="M0 0c9.2 1.104 18.49 1.124 27.73.896C36.97.615 46.2-.091 55.39-1.113a341.262 341.262 0 0 0 27.47-4.18c4.56-.937 9.12-1.895 13.68-3.172 2.29-.638 4.56-1.315 6.86-2.165 1.2-.43 2.4-.91 3.6-1.52.7-.32 1.3-.66 2.1-1.16.3-.24.7-.52 1.2-.94.4-.42.9-.92 1.5-1.97l.3-.71.1-.85c.1-.88 0-1.83-.3-2.7-.2-.88-.6-1.66-1.1-2.3-.9-1.28-1.8-2.1-2.8-2.73-1.8-1.24-3.6-1.89-5.3-2.46-3.36-1.1-6.61-1.65-9.85-2.09-6.47-.86-12.85-1.06-19.2-1.03-6.36.1-12.68.38-18.98 1.07-3.15.32-6.29.69-9.41 1.22s-6.27 1.07-9.26 2.13c6.27-.4 12.53.1 18.76.36 6.23.41 12.44.82 18.61 1.45 6.16.61 12.3 1.37 18.2 2.53 2.94.59 5.85 1.31 8.39 2.25 1.24.48 2.44 1.06 3.14 1.6.4.27.6.51.5.52 0 0-.1-.34-.1-.56l.4-1.55c.3-.54.5-.61.5-.65 0 0-.1 0-.2.11-.2.14-.6.33-1 .52-.8.38-1.8.73-2.8 1.08-1.95.7-4.07 1.32-6.21 1.89-4.31 1.12-8.7 2.18-13.13 3.11-8.86 1.93-17.83 3.59-26.8 5.248-8.97 1.64-17.98 3.196-27.01 4.681-4.52.717-9.04 1.511-13.58 2.143C9.136-1.229 4.586-.607 0 0"
         style="fill:#353535;fill-opacity:1;fill-rule:nonzero;stroke:none"
         transform="translate(998 544)"
         id="path4246" />
    </g>
    <g
       style="fill:#353535;fill-opacity:1"
       id="g4252">
      <path
         d="M0 0c1.61-.138 3.222-.466 4.814-.876a33.557 33.557 0 0 0 4.67-1.694c3.046-1.372 5.866-3.268 8.466-5.424 5.17-4.376 9.2-9.926 12.48-15.716 3.28-5.81 5.8-11.95 7.94-18.13 1.09-3.11 2.01-6.16 2.97-9.33.95-3.3 1.58-6.69 2.02-10.02.84-6.69.91-13.31.6-19.85-.33-6.54-1.02-12.99-1.95-19.36-1.85-12.8-4.58-25.3-7.34-37.9-.57 6.4-.46 12.9-.38 19.3.13 6.5.43 12.9.67 19.22.24 6.36.48 12.68.46 18.95 0 3.13 0 6.25-.21 9.34-.13 3.09-.37 6.15-.77 9.16-.37 3.02-.9 5.94-1.66 8.82-.78 2.99-1.66 6.09-2.52 9.08-1.76 6.02-3.7 11.92-6.14 17.58-2.44 5.64-5.39 11.04-9.28 15.75C10.99-6.349 5.982-2.51 0 0"
         style="fill:#353535;fill-opacity:1;fill-rule:nonzero;stroke:none"
         transform="translate(1032 1041)"
         id="path4250" />
    </g>
    <g
       style="fill:#353535;fill-opacity:1"
       id="g4256">
      <path
         d="M0 0c-1.492-10.39-3.781-20.5-5.347-30.5-.734-4.97-1.484-9.98-1.027-14.34.431-4.99 1.103-10.25.895-15.91-.132-2.82-.506-5.72-1.267-8.57a35.616 35.616 0 0 0-1.44-4.18c-.28-.68-.587-1.36-.907-2.01a39.56 39.56 0 0 0-.917-1.79c-2.58-4.87-5.59-9.23-8.69-13.42-3.09-4.18-6.21-8.2-9.11-12.38-2.91-4.2-5.52-8.5-7.86-13.2.44 5.2 1.96 10.4 3.97 15.3 2.02 4.94 4.56 9.59 7.05 14.11 2.48 4.51 4.99 8.91 6.97 13.33l.75 1.71c.23.51.44 1.03.62 1.55.39 1.04.7 2.1.95 3.19.54 2.15.81 4.4.89 6.75.22 4.68-.27 9.73-.41 15.05v2.18c0 .75.1 1.48.14 2.19.13 1.43.36 2.8.61 4.15.5 2.7 1.17 5.29 1.91 7.84 1.51 5.09 3.331 10.01 5.371 14.83C-4.802-9.308-2.564-4.59 0 0"
         style="fill:#353535;fill-opacity:1;fill-rule:nonzero;stroke:none"
         transform="translate(1059 1141)"
         id="path4254" />
    </g>
    <g
       style="fill:#353535;fill-opacity:1"
       id="g4260">
      <path
         d="M0 0c4.098-3.45 8.917-5.163 13.8-5.787 4.89-.63 9.87-.331 14.77.452 4.91.792 9.75 2.044 14.45 3.662 2.34.821 4.66 1.692 6.89 2.712 1.11.505 2.22 1.013 3.29 1.567.53.278 1.06.559 1.57.852l1.71.97a267.35 267.35 0 0 1 6.73 3.799c2.23 1.262 4.41 2.593 6.58 3.923 4.34 2.67 8.56 5.49 12.46 8.58 1.94 1.54 3.8 3.17 5.44 4.91 1.63 1.75 3.08 3.63 3.95 5.65.88 2 1.08 4.18.23 6.38-.84 2.18-2.57 4.22-4.54 6 2.47-.97 4.93-2.37 6.72-4.76.89-1.18 1.55-2.62 1.86-4.16.32-1.55.25-3.15 0-4.66-.58-3.04-1.96-5.7-3.53-8.08-1.61-2.39-3.43-4.52-5.36-6.51-3.85-3.97-8.12-7.354-12.52-10.471-2.2-1.556-4.46-3.006-6.73-4.432a233.369 233.369 0 0 0-6.91-4.031l-1.72-.946c-.63-.349-1.27-.673-1.9-.993a56.364 56.364 0 0 0-3.84-1.746c-2.59-1.041-5.2-1.961-7.87-2.69-5.31-1.471-10.78-2.381-16.32-2.551-5.52-.15-11.18.41-16.48 2.3-2.63.955-5.167 2.247-7.375 3.944C3.142-4.437 1.285-2.336 0 0"
         style="fill:#353535;fill-opacity:1;fill-rule:nonzero;stroke:none"
         transform="translate(985 1135)"
         id="path4258" />
    </g>
    <g
       style="fill:#353535;fill-opacity:1"
       id="g4264">
      <path
         d="m0 0-.265 4.973c-.118 1.646-.34 3.275-.923 4.755-.568 1.482-1.481 2.802-2.5 4.052-1.023 1.25-2.17 2.41-3.35 3.55l.207-.17c-5.549 3-10.819 6.41-15.989 9.95-5.16 3.55-10.26 7.19-15.26 10.94l-3.75 2.84c-1.28.96-2.56 2.03-3.76 3.14a46.08 46.08 0 0 0-6.54 7.46c-3.86 5.45-6.31 11.62-8.3 17.64-.99 3.05-1.93 5.97-2.76 9.18-.81 3.15-1.43 6.34-1.9 9.55-.94 6.42-1.14 12.94-.68 19.44.48 6.5 1.65 13 3.77 19.3 2.09 6.3 5.04 12.2 8.62 17.7 3.56 5.5 7.65 10.6 12.05 15.3 4.56 4.8 9.54 9 14.89 12.7 5.34 3.7 11.06 6.9 17.064 9.5 6.006 2.6 12.338 4.6 18.906 5.7 3.28.5 6.62.8 9.98.8 3.24 0 6.34-.1 9.53-.2 6.34-.3 12.75-.8 19.16-2 6.39-1.2 12.85-3.1 18.79-6.4 5.92-3.3 11.11-8 14.93-13.5l-.66.7c3.45-2.9 8.03-4.5 12.94-5.5 2.45-.6 4.99-1 7.6-1.4l3.9-.6 1.9-.4h.5l.3-.1.9-.1c2.4-.1 5.1-.1 7.9-.3 1.4-.2 2.9-.4 4.4-.9.8-.2 1.6-.6 2.4-1.2.2-.1.4-.3.6-.5l.3-.3.1-.1.1-.1c.1-.1.3-.4.4-.6.1-.2.3-.4.4-.6.4-.8.8-1.7.9-2.6.1-.9 0-1.8-.1-2.6-.3-1.6-.9-2.9-1.4-4.1-1-2.5-2.1-4.7-2-6.7l-.6 1.1c3.2-2.7 6.8-5 10.4-7.4 1.8-1.2 3.6-2.4 5.3-3.8 1.7-1.4 3.3-3 4.7-4.7l-.4.1c1.1-.1 1.9-.7 2.5-1.3.7-.7 1.2-1.4 1.7-2.1l1.4-2.2c.5-.7 1-1.4 1.7-1.9-.8.4-1.4 1.1-1.9 1.7-.6.7-1.1 1.4-1.7 2-.5.7-1.1 1.3-1.7 1.9-.7.5-1.4.8-2.1.9h-.2l-.1.1c-3 3.1-6.6 5.3-10.4 7.4-1.8 1-3.8 2-5.7 3.1-1.9 1.1-3.7 2.3-5.5 3.6l-.6.4-.1.7c-.2 1.7.1 3.2.5 4.6.3 1.4.8 2.7 1.2 3.9.5 1.2.8 2.3.9 3.3.1 1-.1 1.7-.5 2.4 0 .1-.1.1-.2.2l-.2.3c-.1.1-.2.1-.3.2-.3.2-.7.4-1.2.5-.9.3-2.1.4-3.3.4-2.5.1-5-.1-7.8-.1-.4 0-.7 0-1.1.1h-.6l-.6.1-1.9.2-3.9.4c-2.61.3-5.27.6-7.97 1-2.69.5-5.43 1.1-8.14 2.1-2.71.9-5.4 2.3-7.81 4.1l-.34.2-.32.5c-3.49 4.6-7.91 8.3-13 10.8-5.07 2.6-10.75 4.2-16.61 5.2-5.87.9-11.93 1.3-18.04 1.4-3.04.1-6.18.1-9.17.1-2.87-.1-5.75-.4-8.62-.9-11.471-2-22.54-7.1-32.29-13.9-4.88-3.3-9.49-7.2-13.53-11.4-4.15-4.4-7.98-9-11.26-14-13.65-19.5-15.13-45.38-8.03-68.41 1.69-5.86 3.71-11.48 6.78-16.43a40.13 40.13 0 0 1 5.39-6.89c1.04-1.06 2.1-2.05 3.25-3.04l3.55-3c9.5-8 19.06-15.99 29.323-22.89l.153-.11.05-.1c1.108-1.27 2.19-2.57 3.16-3.98.972-1.4 1.809-2.96 2.272-4.64.473-1.638.526-3.36.479-5.025C.232 3.314.09 1.661 0 0"
         style="fill:#353535;fill-opacity:1;fill-rule:nonzero;stroke:none"
         transform="translate(919 1065)"
         id="path4262" />
    </g>
    <g
       style="fill:#353535;fill-opacity:1"
       id="g4268">
      <path
         d="M0 0c-.188-2.288-.864-4.57-1.755-6.717-.882-2.159-1.97-4.203-3.049-6.203-1.091-1.98-2.185-3.91-3.134-5.8-.936-1.88-1.736-3.78-2.112-5.49-.77-3.5-.34-7.39.796-11.1.579-1.85 1.295-3.68 2.207-5.39.887-1.73 1.917-3.37 3.095-4.78.29-.36.581-.7.883-1.03l.226-.24.06-.1h.05c.02 0-.162.15-.07.1l.151-.15c.182-.17.455-.45.532-.49.198-.18.533-.45.855-.67.323-.23.666-.44 1.019-.64 1.406-.83 3.073-1.37 4.851-1.71 3.572-.67 7.555-.34 11.365.7 1.89.54 3.86 1.26 5.44 2.14 1.62.91 3.01 2.09 4.17 3.68 2.37 3.14 3.67 7.89 6.43 11.59-.47-2.25-.66-4.45-.95-6.71-.27-2.25-.64-4.6-1.59-6.98-.93-2.36-2.55-4.64-4.57-6.36-.5-.43-1.01-.84-1.55-1.21l-.78-.53-.82-.51c-1.07-.64-2.17-1.24-3.31-1.74a30.33 30.33 0 0 0-7.23-2.23 26.972 26.972 0 0 0-7.789-.29 22.899 22.899 0 0 0-7.88 2.33c-.633.33-1.248.7-1.847 1.11-.604.41-1.156.82-1.803 1.38-.36.3-.476.43-.705.63l-.153.15-.27.26-.354.37c-.469.49-.919.99-1.329 1.5-3.28 4.12-5.4 8.75-6.56 13.7-.56 2.47-.88 5.03-.79 7.64.1 2.6.53 5.25 1.52 7.77 1.02 2.55 2.39 4.6 3.85 6.49 1.46 1.89 3.016 3.57 4.54 5.22C-5.318-7.047-2.267-3.981 0 0"
         style="fill:#353535;fill-opacity:1;fill-rule:nonzero;stroke:none"
         transform="translate(863.7 1126)"
         id="path4266" />
    </g>
    <g
       style="fill:#353535;fill-opacity:1"
       id="g4272">
      <path
         d="M0 0c-2.304-.582-4.621-1.028-6.909-1.445-2.289-.41-4.551-.812-6.761-1.247l2.02 1.235c-1.17-2.797-1.89-5.655-1.69-8 .1-1.173.43-2.183.92-3.103.52-.91 1.22-1.76 2.12-2.56.902-.79 1.979-1.53 3.162-2.21a38.628 38.628 0 0 1 3.827-1.83c1.35-.56 2.763-1.05 4.2-1.54 1.423-.48 2.966-.92 4.353-1.32 2.934-.77 6.028-1.45 9.088-2.04 3.06-.59 6.14-1.07 9.18-1.38 3.03-.27 6.1-.4 8.8.23 1.33.34 2.54.87 3.39 1.91.88 1.02 1.28 2.62 1.3 4.3.77-1.46 1.24-3.32.67-5.25-.57-1.94-2.13-3.5-3.73-4.49-3.3-2.02-6.88-2.69-10.33-3.11-3.46-.4-6.9-.38-10.29-.15-3.405.23-6.736.68-10.14 1.4-1.78.37-3.362.85-5.04 1.36a46.135 46.135 0 0 0-4.961 1.85c-1.65.71-3.289 1.55-4.879 2.58-1.59 1.02-3.16 2.22-4.55 3.74-1.41 1.5-2.65 3.33-3.42 5.42-.78 2.08-1.03 4.35-.81 6.43.45 4.208 2.37 7.542 4.48 10.328l1 1.309 1.02-.07c1.2-.09 2.38-.193 3.56-.345a84.963 84.963 0 0 0 3.499-.519c1.16-.207 2.316-.421 3.467-.668C-2.304.554-1.152.304 0 0"
         style="fill:#353535;fill-opacity:1;fill-rule:nonzero;stroke:none"
         transform="translate(947 1153)"
         id="path4270" />
    </g>
  </g>
</svg>
