<?xml version="1.0" encoding="UTF-8" standalone="no"?>
<svg
   width="148mm"
   height="105mm"
   viewBox="0 0 148 105"
   xml:space="preserve"
   version="1.1"
   id="svg1295"
   sodipodi:docname="Line_Shanmukhi_mudra-min.svg"
   inkscape:version="1.2.1 (9c6d41e410, 2022-07-14)"
   xmlns:inkscape="http://www.inkscape.org/namespaces/inkscape"
   xmlns:sodipodi="http://sodipodi.sourceforge.net/DTD/sodipodi-0.dtd"
   xmlns="http://www.w3.org/2000/svg"
   xmlns:svg="http://www.w3.org/2000/svg"><defs
     id="defs1299" /><sodipodi:namedview
     id="namedview1297"
     pagecolor="#505050"
     bordercolor="#eeeeee"
     borderopacity="1"
     inkscape:showpageshadow="0"
     inkscape:pageopacity="0"
     inkscape:pagecheckerboard="0"
     inkscape:deskcolor="#505050"
     inkscape:document-units="mm"
     showgrid="false"
     inkscape:zoom="0.5947"
     inkscape:cx="-1.682"
     inkscape:cy="199.3"
     inkscape:window-width="1620"
     inkscape:window-height="1058"
     inkscape:window-x="-6"
     inkscape:window-y="-6"
     inkscape:window-maximized="1"
     inkscape:current-layer="svg1295" /><path
     style="fill:#353535;stroke:none;stroke-width:0.392884;fill-opacity:1"
     d="M460.7 237v.4l3.5.8c-1.2-1.2-2-1.4-3.5-1.2m-8.3 8.6h.4l6.7-6.7-4.3 1.8 1.5-1.2 3.2-1.6c-4.4-1.5-7.2 4.2-7.5 7.7m12-7.4v.4l1.8.9v-.6l-1.8-.7m-4.2.7 4.8 6.4h.4l-.4-1.6.7.4v-.4h-1.3l-1-1.2.4-1.2-3.6-2.4m1.2 1.2 2 2-2-2m5.5 0 1.2 6.3-1.2.8h-.3c-1.7-1.7-7-2.1-8.7-.4h.8l-1.6 3.1v.6c1.7 2.7 3.4 1.9 6.3 2.7 5.2 1.3 11.8 1.3 17.3 1.6v.6c-4.4.6-10.3 3.5-14.1 6.1v.4l6.7-3.1-.9 3.1h.4l.5-2.5.7.9 6.3-4.3-2 3 3.1-3.9c2 .9 4.6 1.1 6.3 2.2 2.3 1.4 1.8 3.8 5.2 3.3-5.2 4.5-16.2 4.7-16.9 12.9h.4c2.2-6.8 9.6-7.1 14.8-10.6 2-1.3 4.3-5.1 5.5-6.9l-3.8 1.8-2 2.5-1.6-3.3 3.2-.6v-.4l-13-2-21.2-1.9.6-1.3h.6l3.1.9v-.9h-3.1v-.3l4.3-1.3v-.3l-5.9 1.9c1.5-1.9 3.1-2.6 5.5-2.8v-.4l-5.1 1.3c3.2-4.5 7.4-.7 11.4 0v-.5l-2.8-8.3m-11.7.6-.6.2.6-.2m-11.6 8.2v.3c4.1-.3 7.8-3.7 11.6-.8h-4.3v.5l5 1.9-5.5-.3v.3l5.1.3v.6l-5.8.4v.2h1.9v.9c-3.9-.6-8.1-.6-11.7.3-4.1 1.1-8.5 5.2-11.4-.3h-.5c2 9 15.1 7.9 18.1 16.5h.6c-1.4-6-9.2-9.2-14.5-10.9l5.5-3.4.6 1.2h.4l-1-1.5 1.6-.3c.4 1.8.8 3.3 2.5 4.2l-2.5-4.8c2.7-.4 4.9.8 6.1 3.4h.3V256c1.7.4 4.1.6 4.7 2.8l1.2-.6c-1.9-2.1-6.6-3.7-9.4-4.3v-.4h9.9v-1.2l5.4.9-1.2-.9c3.1-9.6-8-4.5-12.7-3.4m15.3-2.3.4.1c-.4.1-.6-.1-.4-.1m-4.3.2 1.7.8v.4l-1.9-.8.2-.4m13.5 0 .4 1.2-1.1-.8.7-.4m-14.9 1.6v.5h-1.6l1.6-.5m3.1 0-1.1 1.2 1.1-1.2m19.7.5v.3l17.2 1.6c-4.6-3.6-11.9-1.9-17.2-1.9m-47.5 3.2c5-2.3 9.4-2.5 14.8-2.5-4-1.7-11.9-1.1-14.8 2.5m41.4-3.2v.3h1.3l-1.3-.3m23.7 1.6v.3c2.8.4 3.9 1.9 3.1 4.6 2.5-2.7-.1-4.8-3.1-4.9m-65.9 1.8.3.4-.3-.4m25.8.4 2.4 5.1-3.8-.2v.2l3.8.4 2.8 3.3-.4.6v.4l.6-.6h.6l-.6 1.2h-.2v3.3h.2l2.5-4.3h-1.5v-.2l7-3.1 1.6.6v-.4c-1.6-.8-2.5-1.7-2.8-3.6h-.3c0 5.6-6.5 7.1-9.1 2.4 3.2 1.4 7.1.2 8.7-3h-.6c-4.4 5.5-7.3 1.9-10.9-2.1m11.9 1.9.1.3-.1-.3m-34.6 1.8 2 .2-.6 1.2-1.8-1.2.4-.2m26.7 2.6.4.4-.4-.4m.8.7.4.6-.4-.6m8.6.6.5.3-.5-.3m-6.7 2.2-.3.6.3-.6m-2.7 2v.7h.8v-.7h-.8m.9 3 .2.2-.2-.2m-1.3 1.1v.6h.8v-.6h-.8m-10.4 3.3v1.6h.2l-.2-1.6m-.6 2.2.8 14.5-2.4 12.2-8 7 2.5-.4c0-2 4-3.3 5.5-3.9l-1.2-.9c2-2.5 1.7-4.1 2.5-7.1 1.7-6.8 3.1-14.7.3-21.4m29.4.2-3.1 8.7v7h.4c0-2.2-.4-4.8.4-7 .8-2.8 3.3-5.6 2.3-8.7m-28.2 16.9.4.4-.4-.4m25.1.4 1.8 3.9-1.8-3.9m-1.2 3.2.4.5-.4-.5m1.2 0 1.6 7.2h.2l.6-4.9h-.6l-.2 1.5c-.8-1.1-1.7-2.1-.7-3.3l-.9-.5m1.8 7.5 2.1 7.3-1.1 6.7h-.4l-.8-2.3.2 1.6h-1.4v.5l1.4.6-3.7.9v.3h2.3v.5l-7.4 2.6c1.7-3.4 4.4-8 7.9-10.2l.7 2.5h.2l-.6-4.3-3.1 2.2-1.7 1.7c-.2 3.7-4.4 7.7-6.2 10.9h-.4c-1.5-2.6-3.3-5.4-6.3-6.2v.3l5.1 5.2-1.5-.4v.4h.7v.3l-3.5.4v.5l6.3.4c1.2-2 2.4-2.9 4.7-3.1l-2 4.9h.5l1.5-4.3h.4v2.1h.4V321h.8l-.5 4.9h.5l1.9-4.3 5.2-7.2h.3l-2.5 7.8h.6c.3-4 6-1.8 9-1.8v.3c-4.4 1.1-7.5 3.1-12.2 1.1 3.2 3.6 9.5.5 13-1.1v-.3l-9.1-1.2c2.9-6.9 1.9-10.2-1.3-16.9m-32.4 2.3.4.5-.4-.5m32.2 1.7.2.2-.2-.2m0 1.5-.4.7.4-.7m-37.7.3-2.8 2v.5c1.3-.5 2.9-.9 2.8-2.5m40.4 0-.3.4.3-.4m-39.2.4.2.5-.2-.5m36.7.5.6.4-.6-.4m3 1.1v4.3h-.5l.5-4.3m-46.8 3.9 5.9-3.2c-2.1-.7-4.7 1.4-5.9 3.2m6.7-3.4v.2l5.9 1.6-5.9-1.8m33.8 0 .3.2-.3-.2m-33.4 1.2v.2l8.6 4.7v.6l-1.6 1.5 2.4-3.2c-2.8 1.2-6.6-3.2-9.4-3.8m-7.1 5.5h.4v-1.7l1.2 1.1c.2-2.8 2.6-4.3 5.1-4.3-2.5-1-7.1 2.2-6.7 4.9m11.8-4 .4.3-.4-.3m-12.2 1.1.4.5-.4-.5m19.1.7v.5h1.3l-1.3-.5m-1.4.5.4.5-.4-.5m3.9 0 .5.5-.5-.5m-21.2 2v1.9h.4l-.4-1.9m38.4.3v.5h1.1l-1.1-.5m-24.6 1.3-.6 3-3-.6 2.4 1.5-.8.3v.4l1.4-.4c1.7 3.5 2.7 5.4 6.4 6.3v-.4c-5.1-2.1-4.7-5.7-5.8-10.1m26.3 1.2-.8 1.2.8-1.2m-39.5.3c1 3.6 3.3 5.8 6.7 6.4v-.6c-3.3-.8-4.4-3.2-6.7-5.8m22.2.3 3.5 1.2v-.4l-3.5-.8m4.1 1.3.4.3-.4-.3m-14 .6c.2 0 .1.2 0 .2v-.2m20.5 1.8-3.1 5.8 4.7-3.4v-.6l-1.6.6v-2.4m3.6.7.3.5-.3-.5m-25.6.5.4.4-.4-.4m19.2.4-2.7 1.9c0 1.5-4.2 1.8-5.5 2v.3l7.4.4-.7-1.6c1.2-.6 1.9-1.7 1.5-3m-22 .2.3.6-.3-.6m13.8 2.1.4.3-.4-.3m6.1.3-.2.4.2-.4m0 .8v.5l-3.4.3 3.4-.8m-.6.8-.4.4z"
     transform="translate(-388.7 -231.4)"
     id="path1293" /></svg>
