<?xml version="1.0" encoding="UTF-8" standalone="no"?>
<svg
   width="148mm"
   height="105mm"
   viewBox="0 0 148 105"
   xml:space="preserve"
   version="1.1"
   id="svg2792"
   sodipodi:docname="Line_Nadi Vibhajan - D0015-min.svg"
   inkscape:version="1.2.1 (9c6d41e410, 2022-07-14)"
   xmlns:inkscape="http://www.inkscape.org/namespaces/inkscape"
   xmlns:sodipodi="http://sodipodi.sourceforge.net/DTD/sodipodi-0.dtd"
   xmlns="http://www.w3.org/2000/svg"
   xmlns:svg="http://www.w3.org/2000/svg"><sodipodi:namedview
     id="namedview2794"
     pagecolor="#505050"
     bordercolor="#eeeeee"
     borderopacity="1"
     inkscape:showpageshadow="0"
     inkscape:pageopacity="0"
     inkscape:pagecheckerboard="0"
     inkscape:deskcolor="#505050"
     inkscape:document-units="mm"
     showgrid="false"
     inkscape:zoom="0.5947"
     inkscape:cx="-1.682"
     inkscape:cy="199.3"
     inkscape:window-width="1620"
     inkscape:window-height="1058"
     inkscape:window-x="-6"
     inkscape:window-y="-6"
     inkscape:window-maximized="1"
     inkscape:current-layer="g2790" /><defs
     id="defs2732"><clipPath
       clipPathUnits="userSpaceOnUse"
       id="a"><path
         d="M0 0h1240v1754H0z"
         id="path2729" /></clipPath></defs><g
     clip-path="url(#a)"
     style="fill:#fff"
     transform="matrix(.1079 0 0 -.1079 8.65 151.1)"
     id="g2790"><g
       style="fill:#353535;fill-opacity:1"
       id="g2736"><path
         d="M0 0c1.129 3.267 2.882 6.303 4.887 9.128 2.012 2.832 4.297 5.462 6.703 7.962 4.81 5 10.11 9.51 15.49 13.85 2.68 2.18 5.4 4.32 8.01 6.52 2.6 2.16 5.04 4.58 7.57 6.94 5.01 4.75 10.1 9.52 15.78 13.72 5.65 4.17 11.94 7.92 19.17 9.66.9.21 1.82.39 2.74.53.46.1.92.14 1.38.19l1.31.14c1.75.18 3.5.34 5.26.45 3.52.23 7.09.3 10.68.1 3.62-.22 7.22-.71 10.72-1.63 3.6-.9 7-2.19 10.3-3.76 3.3-1.57 6.4-3.42 9.4-5.41.7-.5 1.5-1 2.2-1.52l2.1-1.5 4.2-3.01c11.3-8.04 22.5-16.26 33.1-25.56 5.2-4.64 10.3-9.68 15-14.68 4.8-4.997 9.5-10.017 14.3-14.711 4.8-4.701 9.9-8.779 15.4-12.289 5.6-3.49 11.6-6.64 17.7-9.5 6.1-2.85 12.3-5.41 18.7-7.65 3.1-1.13 6.4-2.18 9.6-3.17 3.2-1 6.4-1.87 9.9-2.87 13.3-3.95 26.2-8.35 39.2-10.25 6.5-.99 12.6-1.09 18.4.39 5.8 1.43 11.5 4.37 17.2 7.83 5.5 3.26 10.4 7.41 15.5 11.98 5.1 4.53 10.4 9.47 16.9 13.5 1.6 1.01 3.3 1.95 5 2.81l1.3.61 1.2.56 2.5 1.102c3.2 1.445 6.5 2.813 10 4.034 6.8 2.478 13.9 4.174 20.8 5.516 3.4.682 6.8 1.304 10.3 1.934 3.4.632 6.9 1.191 10.3 1.697 6.9 1.017 13.7 1.958 20.4 3.111 6.6 1.16 13.2 2.493 19.2 4.476 1.6.51 2.9 1.02 4.4 1.66 1.6.67 3.1 1.32 4.7 2.02 3.1 1.38 6.1 2.83 9.2 4.3 6.3 2.93 12.5 5.96 18.9 8.83 3.2 1.43 6.5 2.85 9.8 4.12 3 1.18 5.9 2.53 8.8 4.06 5.8 3.03 11.4 6.79 17.5 10.43 6.1 3.65 12.8 7.04 19.8 9.29l-3.7-4.17c.8 2.57 2 3.22 1.7 3 .3.23.4.32.4.35l.2.17.2.11.4.31.7.45 1.3.8 2.5 1.5 4.9 2.91 9.9 5.78c6.5 3.85 13 7.71 19.3 11.69 12.7 8.07 24.9 16.71 35.9 26.56 5.5 4.8 10.4 10.3 15.6 16 2.6 2.8 5.2 5.7 8 8.4 2.7 2.8 5.5 5.4 8 8 2.6 2.6 5 5.3 7.1 8.1.5.8.9 1.4 1.5 2.2l1.6 2.4c1.1 1.6 2.3 3.2 3.4 4.8 2.4 3.1 4.9 6.2 7.7 9.1.7.7 1.5 1.5 2.2 2.1.7.7 1.4 1.4 2.2 2 1.5 1.3 3 2.6 4.5 3.8 6.1 4.9 12.4 9.1 18.3 13.6 3 2.3 5.8 4.7 8.5 7.2 2.9 2.7 6 5.2 9.2 7.4 6.4 4.5 13 8.2 19.1 12.5 1.5 1.1 2.9 2.2 4.4 3.3l4.4 3.6c2.9 2.4 5.8 4.8 8.7 7.3 11.6 9.8 22.8 19.9 33.5 30.6 2.7 2.7 5.4 5.4 8 8.2 2.6 2.7 5.2 5.5 7.7 8.3 5 5.7 9.5 11.8 12.8 18.7-2.9-7.1-7.1-13.5-11.8-19.5-4.7-6-9.8-11.7-14.9-17.4-10.3-11.2-21.1-22-32.3-32.3-2.8-2.5-5.7-5.1-8.5-7.6l-4.3-3.8c-1.5-1.3-3-2.5-4.6-3.7-6.2-4.7-12.6-8.7-18.6-13.2-2.9-2.2-5.7-4.5-8.3-7.1-2.8-2.8-5.7-5.4-8.7-7.8-6-5-12.2-9.3-17.8-14.1-1.4-1.2-2.8-2.5-4.1-3.7-.7-.6-1.3-1.2-2-1.9s-1.2-1.3-1.9-1.9c-2.3-2.6-4.6-5.6-6.7-8.5-1.1-1.5-2.1-3.1-3.1-4.6l-1.5-2.4c-.5-.7-1.1-1.7-1.7-2.5-2.4-3.3-5-6.4-7.7-9.2-2.6-2.9-5.4-5.6-7.9-8.3-2.6-2.6-5.1-5.4-7.5-8.3-5-5.6-10.1-11.6-15.9-16.98-5.7-5.3-11.7-10.29-17.8-14.95-6.2-4.66-12.6-9.03-19-13.26-6.5-4.23-13-8.16-19.5-12.13l-9.7-5.91-4.9-2.95-2.4-1.47-1.1-.72-.5-.32-.1-.1.1.1s0 .1.2.23c-.3-.26.9.35 1.6 2.86l-1-3.25-2.7-.92c-6.1-2.03-11.7-4.98-17.4-8.49-5.7-3.5-11.6-7.48-18-10.89-3.2-1.72-6.6-3.29-10-4.64-3.1-1.24-6.1-2.55-9.2-3.95-6.2-2.8-12.4-5.82-18.6-8.815-3.2-1.497-6.3-2.988-9.5-4.439-1.6-.718-3.2-1.451-4.9-2.137-1.6-.731-3.5-1.431-5.2-2.017-7.1-2.345-14.1-3.749-21-4.998-6.9-1.229-13.8-2.211-20.6-3.247-3.4-.525-6.7-1.025-10-1.616-3.4-.611-6.8-1.211-10.1-1.861-6.7-1.27-13-2.76-19.2-4.96-3.1-1.09-6.1-2.33-9.2-3.67l-2.3-1.02-1.1-.53-1.1-.5c-1.3-.67-2.7-1.41-4-2.22-5.3-3.25-10.2-7.66-15.4-12.26-2.6-2.29-5.3-4.64-8.2-6.88-1.4-1.12-2.9-2.22-4.4-3.27l-1.2-.79-1.2-.79-1.1-.7-1.2-.72c-3-1.83-6.2-3.62-9.6-5.2-3.4-1.58-7-2.96-10.8-3.85-3.8-.9-7.8-1.31-11.6-1.3-1.9 0-3.8.1-5.7.28-.9.1-1.8.19-2.8.32l-1.3.18-1.4.21c-14.3 2.31-27.6 7.12-40.6 11.12-3.2.98-6.6 1.95-9.9 3.04-3.4 1.07-6.7 2.21-10 3.43-6.7 2.45-13.2 5.2-19.5 8.34-6.4 3.17-12.6 6.53-18.6 10.51-6 3.96-11.7 8.76-16.6 13.832C184 .991 175.4 11.62 165.4 20.71c-9.9 9.25-20.7 17.69-31.6 26.03l-4.2 3.12-2 1.56-2 1.48c-2.7 1.94-5.5 3.7-8.4 5.2-5.8 3.03-12.1 4.8-18.66 5.43-3.28.32-6.63.38-10 .3-1.68 0-3.38-.13-5.06-.24l-1.27-.1c-.4 0-.79-.1-1.19-.11-.79-.1-1.57-.22-2.36-.37-6.3-1.27-12.29-4.45-17.84-8.24-5.57-3.82-10.79-8.25-16.01-12.75-2.62-2.23-5.2-4.56-8.01-6.69-2.77-2.11-5.57-4.12-8.34-6.17-5.54-4.09-11.03-8.23-16.06-12.9-2.507-2.34-4.906-4.8-7.049-7.482C3.214 6.099 1.312 3.198 0 0"
         style="fill:#353535;fill-opacity:1;fill-rule:nonzero;stroke:none"
         transform="translate(171 958)"
         id="path2734" /></g><g
       style="fill:#353535;fill-opacity:1"
       id="g2740"><path
         d="M0 0c-.375 3.782-1.146 7.456-1.631 11.28-.223 1.91-.335 3.86-.269 5.83.03.98.152 2.06.393 3.08.237 1.02.581 2.02 1.017 2.97 1.748 3.86 4.776 6.79 7.808 9.28 1.549 1.24 3.042 2.41 4.782 3.55a30.94 30.94 0 0 0 5.58 2.79c3.89 1.49 7.95 2.15 11.88 2.54 1.97.2 3.92.3 5.85.38l1.4.1 1.33.1c.89.1 1.77.14 2.65.25 3.5.41 6.84 1.18 10.14 2.34.82.28 1.65.59 2.47.92l1.2.5.66.28.57.26c1.58.72 3.18 1.52 4.75 2.37 3.16 1.7 6.27 3.64 9.41 5.66l9.47 6.07c6.03 4.03 11.84 8.49 17.05 13.4.66.62 1.27 1.22 1.94 1.88l2.05 2.01c1.4 1.35 2.9 2.77 4.7 4.14 1.7 1.37 3.7 2.7 5.9 3.73 2.2 1.04 4.6 1.76 6.9 2.15 4.7.82 9.3.36 13.4-.47 2.1-.42 4-.93 5.9-1.45 1-.29 1.7-.41 3.2-.95 1.3-.47 2.6-1.1 3.9-1.98 1.2-.87 2.5-2.02 3.4-3.37 1-1.34 1.7-2.84 2.1-4.31.9-2.96.9-5.66.6-8.04-.6-4.77-2.1-8.69-3.6-12.42-.8-1.86-1.6-3.64-2.4-5.37-.7-1.71-1.5-3.43-2.1-4.83-1.6-4.27-3.9-7.85-6-11.02-1-1.6-2-3.12-2.9-4.6-1-1.52-1.6-2.79-2.6-4.65-1.9-3.64-3.9-6.99-6.2-10.27-1.2-1.63-2.3-3.23-3.6-4.798-.6-.783-1.2-1.556-1.8-2.323l-1.8-2.144c-2.4-2.861-4.7-5.854-7.2-8.835-1.3-1.498-2.5-2.954-3.9-4.441l-.9-1.036-1.1-1.083c-.7-.73-1.4-1.41-2.1-2.09-2.79-2.72-5.63-5.28-8.44-7.79-2.81-2.51-5.54-5.02-8.12-7.61l-4.01-4.05c-1.36-1.35-2.72-2.69-4.12-4C66.45-46.58 54.58-56.16 42-64.67c10.89 10.58 21.59 21.23 31.36 32.62L77-27.77l3.59 4.37c2.5 3.02 5.15 5.83 7.77 8.59 2.61 2.77 5.22 5.441 7.67 8.173.6.679 1.22 1.377 1.79 2.049l.85 1.013.9 1.099c1.13 1.371 2.23 2.844 3.33 4.312 2.2 2.95 4.4 6.039 6.6 9.154l1.8 2.32c.5.71 1 1.44 1.6 2.17 1 1.46 2 2.95 3 4.46 1.9 3.02 3.6 6.19 5.2 9.31.7 1.53 1.7 3.67 2.7 5.41 1 1.78 2 3.44 3 5.04 2 3.19 3.7 6.09 4.7 8.94.8 2.14 1.6 3.86 2.3 5.6.8 1.73 1.5 3.4 2.1 5.05 1.3 3.26 2.4 6.55 2.8 9.3.1 1.36 0 2.53-.2 3.2-.2.69-.4.9-1 1.31-.2.2-.6.41-1.1.6-.3.11-1.5.43-2.3.67-1.7.49-3.4.94-5.1 1.28-3.3.7-6.3.92-9.1.48-2.8-.42-5.1-1.45-7.6-3.37-1.3-.95-2.5-2.1-3.9-3.34l-2-1.91c-.7-.64-1.5-1.35-2.2-1.99-6.01-5.27-12.37-9.9-19.12-13.95l-1.29-.77-1.22-.71-2.47-1.41-4.93-2.85c-3.33-1.89-6.76-3.77-10.36-5.46a67.187 67.187 0 0 0-11.33-4.22c-3.92-1.09-8.06-1.75-12.1-1.88-1.01 0-2.02-.1-3.01-.1h-2.94c-1.86.1-3.7.11-5.5.11-3.62.12-7.12-.18-10.43-1.06a26.25 26.25 0 0 1-4.79-1.78c-1.52-.78-3.14-1.76-4.66-2.73-3.027-1.96-5.79-4.23-7.614-7.09a12.589 12.589 0 0 1-1.788-4.76c-.303-1.79-.428-3.63-.477-5.5C.044 7.627.32 3.789 0 0"
         style="fill:#353535;fill-opacity:1;fill-rule:nonzero;stroke:none"
         transform="translate(1011 1258)"
         id="path2738" /></g><g
       style="fill:#353535;fill-opacity:1"
       id="g2744"><path
         d="M0 0c3.915 1.833 7.926 3.468 11.71 5.47 1.89.994 3.73 2.081 5.44 3.279 1.71 1.203 3.3 2.561 4.51 4.111v.1l.16.14c4.26 3.66 7.29 8.71 9.94 13.8a93.323 93.323 0 0 1 6.31 16.08c.38 1.35.74 2.77.92 3.96v1.71l-.1 2.19c-.1 2.93-.21 5.85-.4 8.76-.37 5.81-.99 11.59-1.95 17.27-.97 5.68-2.28 11.26-4.03 16.65a85.07 85.07 0 0 1-6.76 15.38c-5.5 9.7-13.26 17.8-22.401 24.3-4.567 3.2-9.46 6-14.539 8.5-5.06 2.5-10.25 4.6-15.6 6.1-10.67 3.2-21.86 4.3-33.04 3.4-2.8-.1-5.59-.5-8.39-.9-.67-.1-1.45-.2-2.03-.3-.41 0-.62-.1-.9-.1l-.89-.2c-1.2-.3-2.41-.7-3.61-1.1-4.82-1.8-9.51-4.6-13.9-7.8-4.4-3.3-8.51-7.1-12.25-11.2-3.8-4.1-7.2-8.5-10-13.2l-1.5-2.4-2.7-.4c-5.3-.7-10.6-2-16.1-3.3-5.4-1.3-11-2.7-16.7-3.9l4 3.4c-.2-.5-.3-.8-.3-1.1 0-.3 0-.5.1-.8.1-.7.8-1.8 2-3.2.6-.7 1.2-1.5 2-2.4.7-1 1.4-2.1 2.1-3.57.6-1.45 1.1-3.31 1-5.14 0-.91-.1-1.8-.3-2.61l-.2-.6-.2-.71-.2-.4c-.1-.24-.2-.56-.3-.73-.9-1.62-1.9-2.8-2.8-3.72-1-.93-1.9-1.63-2.7-2.26-.8-.61-1.5-1.14-1.9-1.55l-.3-.26h-.1v-.1l-.3-.27-.8-1.03c-1.2-1.4-2.4-2.88-3.6-4.4l-3.6-4.67c-2.7-3.35-5.4-6.12-7.8-8.91-2.3-2.78-4.3-5.54-5.1-8.3-.5-1.37-.6-2.74-.5-4.17 0-.69.1-1.48.3-2.12l.2-.7.1-.55c.1-.33.3-.75.4-1.12 1.1-2.99 3-5.66 5.6-8.18 2.5-2.53 5.6-4.94 8.6-7.69 1.5-1.35 3-2.9 4.4-4.55 1.3-1.65 2.5-3.41 3.6-5.23 2.1-3.65 3.6-7.58 4.7-11.511 1-3.939 1.7-7.898 2.2-11.825.5-3.928.9-7.834 1.3-11.704.3-3.88.7-7.73 1.3-11.54 1.1-7.6 3.1-15.18 7.1-21.84l-.1.1c.5.1 1.1 0 1.6-.34.4-.29.7-.76 1.2-1.02-.5.21-.9.64-1.3.85-.5.24-1 .24-1.5.13h-.1l-.1.1c-2.4 3.1-4.3 6.59-5.9 10.23-1.5 3.65-2.6 7.47-3.6 11.3-.9 3.84-1.6 7.71-2.4 11.56-.6 3.85-1.3 7.679-2.1 11.441-1.5 7.507-3.7 14.809-7.7 20.789-1 1.49-2 2.89-3.2 4.18-1.3 1.31-2.5 2.43-4 3.63-2.9 2.36-6.1 4.57-9.3 7.38-3.1 2.76-6.2 6.36-8 10.63-.2.54-.4 1.03-.6 1.63l-.3.84-.3.69c-.3 1.25-.6 2.37-.7 3.62-.3 2.46-.1 5.04.5 7.41 1.3 4.81 3.9 8.59 6.4 11.84 2.6 3.25 5.2 6.13 7.3 8.96l3.4 4.72c1.1 1.61 2.3 3.23 3.6 4.85l1 1.23.2.28.4.42c.3.28.5.54.7.78 1 .94 1.9 1.6 2.6 2.2 1.5 1.16 2.4 2.2 2.5 2.51 0 0-.1 0-.1-.1l.1.28c-.1-.27 0-.1 0-.12v.2c.1.13.1.22.1.29-.1.12-.1.2-.2.52-.3.65-1.4 1.9-2.7 3.45-1.3 1.58-3.1 3.6-4.2 6.8-.5 1.5-.7 3.3-.6 4.9.1 1.7.5 3.2 1 4.5l1.1 2.8 2.9.6c5.4 1.3 10.8 2.8 16.3 4.2 5.6 1.4 11.2 2.8 17.1 3.7l-4.1-2.8c3.2 5.6 7.1 10.6 11.3 15.2 4.2 4.7 8.8 9 13.89 12.8 5.08 3.8 10.69 7.1 17.02 9.4 1.58.6 3.21 1.1 4.89 1.5l1.27.2c.45.1.97.2 1.29.3.87.1 1.56.2 2.35.3 3.07.5 6.16.8 9.27 1 12.42.8 25.19-.5 37.17-4.3 5.98-1.9 11.77-4.4 17.258-7.2 5.481-2.9 10.793-6.1 15.787-9.9 4.995-3.8 9.675-8 13.805-12.8 4.12-4.7 7.69-10 10.58-15.6 5.8-11.1 8.84-23.37 10.14-35.44.67-6.05.95-12.09.99-18.1 0-3.01 0-6.01-.12-9l-.1-2.25-.1-1.11v-.43l-.1-.44c0-.27-.1-.5-.14-.72-.39-1.72-.89-3.13-1.41-4.6a97.659 97.659 0 0 0-7.89-16.42c-1.57-2.6-3.29-5.12-5.26-7.48-1.96-2.35-4.13-4.58-6.7-6.39l.2.19c-1.44-1.783-3.31-3.085-5.23-4.2-1.93-1.117-3.93-2.013-5.96-2.825C8.249 2.564 4.108 1.334 0 0"
         style="fill:#353535;fill-opacity:1;fill-rule:nonzero;stroke:none"
         transform="translate(297 1016)"
         id="path2742" /></g><g
       style="fill:#353535;fill-opacity:1"
       id="g2748"><path
         d="M0 0c-1.165-1.992-1.708-4.226-2.049-6.455-.325-2.242-.43-4.515-.522-6.805-.103-2.29-.195-4.6-.499-6.96-.308-2.4-.95-4.65-1.516-6.9-1.167-4.48-2.576-8.84-3.545-13.19-.92-4.36-1.705-8.92-2.419-13.39-1.43-8.98-2.56-17.99-3.06-26.95-.51-9.6-2.71-18.88-4.85-27.75-1.08-4.5-2.14-8.9-2.99-13.2-.42-2.2-.81-4.4-1.12-6.6-.15-1-.3-2.1-.41-3.2-.1-.9-.14-2-.17-3-.15-4.2.24-9.1-.61-14.4l-.17-1-.16-.9-.33-1.6-.66-3.5-1.34-6.7-1.26-6.7-.61-3.3-.34-1.8-.36-1.8c-.98-4.6-2.16-9.1-3.1-13.4-.94-4.3-1.69-8.5-1.88-12.6l-.1-1.5v-5.1l-.1-7-.38-13.7-.15-6.8V-242.9c.1-4.2.53-8.6 1.13-13 .59-4.5 1.3-9.2 1.65-14 .17-2.4.26-4.9.23-7.4l-.13-6.9c-.11-4.6-.28-9.3-.58-13.9-.56-9.3-1.48-18.6-3.04-27.8-1.53-9.3-3.74-18.5-6.66-27.4-2.9-8.6-5.33-17.3-7.35-26.1-2.04-8.9-3.66-17.8-4.87-26.9-1.28-9-2.13-18.1-2.75-27.3h-.51l.26 3.6.25-3.6h-.51c-.62 9.2-.73 18.4-.42 27.7.38 9.2 1.19 18.4 2.51 27.6.68 4.6 1.48 9.2 2.41 13.7.49 2.3.98 4.6 1.53 6.9l.84 3.4.86 3.3c2.3 8.7 3.86 17.5 4.94 26.4 1.06 8.9 1.62 17.9 1.85 27 .11 4.5.15 9 .15 13.5v6.9c0 2.1-.15 4.2-.36 6.3-.78 8.6-2.96 17.7-3.25 27.7v7.1l.11 7 .34 13.7.13 6.8v5.2c0 .7 0 1.3.1 1.9.28 5.1 1.17 10 2.26 14.6 1.09 4.6 2.32 9 3.29 13.3l.36 1.6.33 1.6.66 3.4c.47 2.3.97 4.6 1.47 6.8l1.51 6.7.74 3.4.36 1.6.19.9.13.7c.72 3.7.63 8.1.92 13 .1 1.2.19 2.5.36 3.8.18 1.3.37 2.4.59 3.6.43 2.4.93 4.7 1.49 7 1.12 4.6 2.43 9.1 3.71 13.5 2.59 8.77 5.06 17.32 6.11 26.03 1.11 9.32 2.94 18.43 5.14 27.43 1.14 4.51 2.3 8.92 3.68 13.43 1.45 4.51 3.216 8.76 4.859 13 .79 2.13 1.64 4.24 2.141 6.35.524 2.16.846 4.42 1.219 6.69.379 2.26.777 4.561 1.398 6.808C-2.303-4.026-1.417-1.802.03 0"
         style="fill:#353535;fill-opacity:1;fill-rule:nonzero;stroke:none"
         transform="translate(273.7 932)"
         id="path2746" /></g><g
       style="fill:#353535;fill-opacity:1"
       id="g2752"><path
         d="M0 0c-1.323-1.771-1.909-3.905-2.313-6.011-.379-2.126-.52-4.289-.552-6.449-.09-4.33.225-8.67.672-12.99.467-4.33 1.012-8.65 1.568-13.02.289-2.18.494-4.47.714-6.59.229-2.15.489-4.32.769-6.47 1.08-8.63 2.458-17.29 3.492-26.09.533-4.4.954-8.84 1.225-13.32.138-2.22.228-4.51.288-6.71.07-2.16.153-4.25.263-6.45.445-8.6 1.265-17.3 1.886-26.1.658-8.8 1.101-17.7.855-26.8-.242-9.1-1.314-18.3-3.662-27.3l-.431-1.6-.173-.7-.158-.7c-.206-.9-.382-1.8-.539-2.8-.314-2-.547-4.1-.815-6.3-.271-2.2-.578-4.6-1.083-7-.249-1.2-.555-2.5-.921-3.7l-.521-1.7-.555-1.6c-1.512-4.4-3.133-8.4-4.176-12.1-1.034-3.7-1.458-7.5-1.538-11.5-.194-8.1 1.159-16.5 2.266-25.3 2.187-17.4 4.501-34.8 6.195-52.3.868-8.8 1.553-17.6 2.098-26.3.61-8.7 1.4-17.6 1.335-26.5-.02-2.2-.124-4.6-.203-6.7-.06-2.1-.07-4.3-.08-6.5 0-4.3.06-8.8-.119-13.2-.161-4.4-.439-8.8-1.12-13.2-.744-4.4-1.776-8.8-4.005-12.7 1.584 4.1 2.062 8.5 2.198 12.8.154 4.4-.06 8.7-.398 13-.363 4.4-.779 8.7-1.201 13.1-.206 2.2-.406 4.4-.551 6.6-.129 2.3-.231 4.4-.414 6.6-.665 8.5-2.087 17.1-3.294 25.9l-1.741 13-1.874 12.9-8.107 51.9c-1.29 8.6-2.88 17.5-2.85 27 0 4.8.56 9.7 1.89 14.5 1.29 4.7 2.99 8.9 4.34 12.9l.49 1.4.45 1.5c.27.8.499 1.7.697 2.7.4 1.8.683 3.8.952 5.9.27 2.2.527 4.4.913 6.8.194 1.2.421 2.4.701 3.6l.225.9.243.9.443 1.6c2.221 7.9 3.28 16.2 3.743 24.7.908 16.9-.77 34.3-.796 52.2 0 2.2.01 4.42.08 6.65.07 2.19.108 4.28.101 6.44-.01 4.28-.174 8.59-.379 12.93-.442 8.67-1.157 17.43-1.509 26.27-.08 2.21-.135 4.42-.163 6.65-.02 2.25 0 4.34-.09 6.53-.132 4.37-.325 8.79-.259 13.22.05 4.43.22 8.88.834 13.29.328 2.21.767 4.406 1.446 6.536C-2.531-3.675-1.589-1.55 0 0"
         style="fill:#353535;fill-opacity:1;fill-rule:nonzero;stroke:none"
         transform="translate(174.3 947.3)"
         id="path2750" /></g><g
       style="fill:#353535;fill-opacity:1"
       id="g2756"><path
         d="M0 0c-5.703-.643-11.14-2.068-16.4-4.043-5.25-1.978-10.5-4.246-16.04-6.097-5.5-1.86-11.21-3.36-17.02-4.34-5.78-1.02-11.72-1.5-17.43-1.79-5.71-.3-11.24-.55-16.43-1.37-2.62-.41-5.06-.99-7.5-1.75-2.56-.81-5.09-1.71-7.44-2.74-1.17-.51-2.34-1.07-3.34-1.63-1-.55-1.9-1.17-2.5-1.69-.3-.24-.5-.47-.5-.52 0-.1.2.15.3.73.1.58-.1 1.28-.2 1.46-.2.22-.1.12.1 0 .8-.77 3.4-2.06 5.52-2.83 2.26-.83 4.68-1.44 7.22-1.88 5.08-.95 10.67-1.27 16.53-1.95l8.46-1.11 8.36-.96c5.59-.62 11.22-1.11 16.86-1.66l8.48-.78 8.55-.9c11.34-1.27 22.477-2.74 33.638-3.08 5.582-.17 11.152 0 16.712.62 2.78.31 5.56.77 8.3 1.4 2.74.61 5.56 1.51 8.44 1.63-2.76-.81-5.23-2.14-7.87-3.35-2.66-1.16-5.4-2.11-8.2-2.94-5.59-1.66-11.37-2.64-17.157-3.25-11.6-1.18-23.193-.8-34.543-.44-11.25.35-22.75.59-34.21 1.42-2.88.18-5.75.45-8.63.72l-8.48.9c-5.45.58-11.25.84-17.38 1.92-3.05.57-6.17 1.35-9.2 2.51-.8.3-1.6.6-2.3.94l-1.2.54-1.1.54c-1.5.81-3.1 1.7-4.8 3.27-.9.79-1.8 1.78-2.6 3.25-.3.74-.7 1.61-.9 2.58-.2.96-.2 2.02-.1 3 .3 2 1.2 3.52 2 4.61.8 1.1 1.6 1.88 2.4 2.55 1.6 1.31 3.1 2.18 4.6 2.97 1.5.77 3 1.39 4.4 1.96 2.94 1.13 5.82 2.022 8.73 2.804 3.02.834 6.17 1.346 9.2 1.652 6.11.627 11.98.437 17.64.307 2.84-.05 5.61-.148 8.37-.122 2.76.02 5.51.129 8.26.3 5.49.369 10.96 1.125 16.45 2.216 5.47 1.03 10.97 2.553 16.68 3.619 2.85.527 5.74.939 8.634 1.113C-5.736.389-2.845.348 0 0"
         style="fill:#353535;fill-opacity:1;fill-rule:nonzero;stroke:none"
         transform="translate(165.7 526.7)"
         id="path2754" /></g><g
       style="fill:#353535;fill-opacity:1"
       id="g2760"><path
         d="M0 0c.542-5.292.168-10.59.024-15.85-.191-5.27-.529-10.53-.868-15.77l-1.14-15.69-.263-3.88-.114-1.9c-.03-.61-.06-1.26-.05-1.72l.05-7.82c.115-10.4.371-20.83.589-31.3.02-1.33.07-2.57.08-3.97l-.01-2.09-.06-2.11c-.107-2.8-.336-5.5-.641-8.3-.641-5.4-1.644-10.7-2.698-15.9l-3.344-15.5c-.703-2.9-1.504-5.4-2.315-8-.83-2.5-1.65-5-2.54-7.5-3.51-10-7.27-19.8-11.1-29.6l-1.4-3.6c-.48-1.2-.88-2.3-1.32-3.6l-2.56-7.4c-.88-2.5-1.78-5-2.81-7.5-.52-1.3-1.05-2.5-1.62-3.7l-1.65-3.6c-2.25-4.8-4.62-9.8-8.13-14.1-1.76-2.1-3.82-4.1-6.29-5.4-2.47-1.3-5.32-1.9-7.93-1.4 2.64.2 5.06 1.3 6.92 2.9 1.9 1.6 3.36 3.6 4.55 5.8 2.37 4.4 3.88 9.3 5.37 14.3l1.15 3.8c.38 1.2.71 2.4 1.04 3.6.65 2.5 1.25 5 1.82 7.5.57 2.6 1.15 5.1 1.79 7.7.31 1.3.67 2.7 1.03 4 .36 1.3.74 2.5 1.11 3.8 2.98 10.1 6.18 20 9.21 30l2.23 7.4c.7 2.5 1.41 5 1.87 7.2l.76 3.8.81 3.9 1.61 7.6c1.08 5.1 2.03 10.1 2.7 15 .34 2.5.61 5 .77 7.4l.11 1.84.1 1.84.1 3.89c.21 10.51.57 21.05 1.36 31.61.19 2.63.44 5.3.69 7.9.1.84.17 1.5.27 2.19l.32 2.01c.21 1.32.469 2.62.707 3.92.967 5.2 2.034 10.34 3.117 15.49 1.106 5.14 2.216 10.27 3.401 15.39l1.727 7.692C-.956-5.161-.315-2.608 0 0"
         style="fill:#353535;fill-opacity:1;fill-rule:nonzero;stroke:none"
         transform="translate(281.1 789.9)"
         id="path2758" /></g><g
       style="fill:#353535;fill-opacity:1"
       id="g2764"><path
         d="m0 0-19.48-5.845c-3.25-.951-6.51-1.898-9.81-2.755-3.31-.876-6.57-1.68-10.12-2.35-3.48-.59-6.88-1.06-10.22-1.45-3.33-.42-6.59-.82-9.74-1.32-3.15-.53-6.2-1.13-9.02-2-2.81-.88-5.41-1.95-7.53-3.39l2.46 3.36c-.1-.25 0-.31 0-.21s-.1.25-.1.19c0-.12.79-.8 1.91-1.31 2.28-1.09 5.49-1.94 8.72-2.51 3.26-.62 6.67-1.02 10.13-1.37 3.49-.38 6.94-.57 10.72-1 7.26-.83 14.39-2.01 21.47-3.32l10.61-2L.677-29.33c-7.195-1.3-14.507-1.75-21.747-1.98-7.24-.21-14.42-.15-21.51-.23-.93 0-1.69 0-2.6-.1l-2.7-.1h-5.51c-3.71 0-7.46.26-11.3.73-1.92.26-3.86.59-5.85 1.05-1.99.48-4.03 1.06-6.16 2.05-1.07.5-2.17 1.09-3.29 1.89-1.12.8-2.28 1.82-3.3 3.23-1.02 1.39-1.84 3.25-2.08 5.13-.26 1.88 0 3.65.41 5.11l.62 2.17 1.84 1.195c3.51 2.277 7.25 3.755 10.92 4.703 3.67.966 7.28 1.519 10.81 1.834 7.06.695 13.87.511 20.32.821 3.15.117 6.53.486 9.86.735 3.34.297 6.72.572 10.1.816C-13.72.242-6.842.566 0 0"
         style="fill:#353535;fill-opacity:1;fill-rule:nonzero;stroke:none"
         transform="translate(174.3 577.3)"
         id="path2762" /></g><g
       style="fill:#353535;fill-opacity:1"
       id="g2768"><path
         d="M0 0c3.027-2.995 6.684-5.16 10.37-7.179 3.7-2.017 7.51-3.821 11.37-5.491 3.88-1.65 7.77-3.26 11.71-4.7 3.91-1.44 7.93-2.66 11.98-3.91C61.62-26.25 77.88-31.14 94.11-36c4.05-1.21 8.09-2.42 12.09-3.55l1.5-.41 1.4-.34c.9-.23 1.9-.43 2.9-.63 2-.39 4-.73 6.1-1.06 8.2-1.26 16.6-2.3 25-3.21 8.3-.9 16.7-1.76 25.1-2.44 8.4-.7 16.8-1.37 25.1-1.62 2.1-.1 4-.1 6.2-.1l6.4-.1 12.7-.26c8.4-.19 16.7-.17 24.8.54 4.1.35 8.1.89 12 1.68 2 .39 3.9.86 5.8 1.36 2 .51 3.8 1.1 5.9 1.77 8.3 2.63 16.7 4.64 24.9 6.58 8.3 1.95 16.5 3.8 24.6 6.04l3 .85c.8.22 1.8.58 2.7.95 1.9.73 3.8 1.56 5.7 2.38 3.9 1.65 7.8 3.4 11.6 5.16 7.7 3.46 15.4 7.12 23 10.79 3.8 1.832 7.6 3.703 11.4 5.631 1.9.954 3.8 1.922 5.7 2.934 1.8 1.032 3.7 2.025 5.4 3.289-1.5-1.527-3.2-2.806-4.9-4.079-1.8-1.268-3.5-2.494-5.3-3.705-3.5-2.389-7.1-4.7-10.7-6.98-7.2-4.55-14.5-8.86-21.9-13.13-3.7-2.11-7.5-4.17-11.3-6.18-1.9-1.01-3.8-1.99-5.8-2.94-1-.47-2-.94-3.2-1.39l-3-1.11c-8.2-2.87-16.4-5.27-24.6-7.63-8.1-2.37-16.2-4.74-23.9-7.48-2-.7-4.1-1.5-6.3-2.15-2.1-.67-4.3-1.23-6.5-1.74-4.3-1.01-8.8-1.72-13.1-2.23-8.8-1-17.6-1.09-26.1-1.06l-12.8.18-6.3.1c-2 0-4.3 0-6.5.1-8.7.33-17.2 1.02-25.8 1.83-8.5.86-17 1.8-25.4 2.95-8.5 1.17-17 2.41-25.5 4.1-2.1.42-4.2.86-6.4 1.38-1.1.25-2.1.52-3.2.83-.6.15-1.2.32-1.7.5l-1.6.52c-4.1 1.37-8.1 2.79-12.12 4.21-16.03 5.76-31.94 11.71-47.73 18.14-3.93 1.64-7.9 3.27-11.8 5.16-3.88 1.87-7.69 3.84-11.4 6-3.7 2.16-7.35 4.42-10.842 6.926A55.001 55.001 0 0 0 4.372-4.69C2.766-3.272 1.233-1.741 0 0"
         style="fill:#353535;fill-opacity:1;fill-rule:nonzero;stroke:none"
         transform="translate(259 810.7)"
         id="path2766" /></g><g
       style="fill:#353535;fill-opacity:1"
       id="g2772"><path
         d="M0 0c1.452.182 2.837.703 4.233 1.131 1.394.449 2.781.919 4.163 1.401 2.764.965 5.524 1.971 8.264 2.994 5.5 2.022 10.98 4.102 16.42 6.254 5.44 2.17 10.88 4.31 16.24 6.59 2.68 1.14 5.34 2.31 7.94 3.55 1.29.62 2.57 1.25 3.77 1.92.59.33 1.17.67 1.63 1l1.67 1.25c9.39 7.02 18.86 14.03 28.71 20.63 2.47 1.64 4.95 3.28 7.46 4.84 2.4 1.49 4.8 3.06 7.1 4.71 4.6 3.29 9 6.93 13.5 10.71 4.5 3.77 9.2 7.61 14.1 11.15 1.2.89 2.4 1.76 3.7 2.6l.8.56.8.57 1.6 1.25c2.2 1.72 4.4 3.59 6.6 5.47 8.8 7.58 17.4 15.52 26 23.42l6.4 6 .7.6.7.7 1.4 1.5 2.9 3.2c2 2.1 3.9 4.2 5.8 6.4 2 2.2 3.9 4.4 5.6 6.5l.6.8.3.3.3.4 1.3 1.8c1 1.3 1.9 2.5 3 3.7 1 1.3 2.2 2.6 3.5 3.8.7.5 1.4 1.1 1.9 1.6l1.6 1.3c1.9 1.6 3.6 3.5 5.4 5.7l1.3 1.6 1.3 1.6 2.4 3.3c6.4 9.1 11.2 19.4 16.4 30.1 2.6 5.2 5.3 10.6 8.5 15.9 1.5 2.6 3.2 5.2 4.9 7.7.9 1.3 1.8 2.5 2.8 3.8.9 1.1 1.9 2.4 2.8 3.5 3.9 4.7 8 9.1 12 13.4 2 2.2 4.1 4.3 6 6.4 1.9 2.1 3.8 4.2 5.7 6.4 3.9 4.4 7.6 8.9 11.6 13.4 4 4.4 8.2 8.7 12.7 12.8 4.3 3.9 8.5 7.9 12.6 12s8.2 8.3 12.3 12.4c4.2 4.2 8.3 8.4 12.6 12.5 2.2 2 4.3 4 6.5 6s4.3 3.9 6.5 5.9c8.4 7.9 16.5 16.6 25.4 24.3 2.3 2 4.5 3.9 6.8 5.7 2.4 1.8 4.6 3.6 6.9 5.5 4.6 3.6 9.2 7.3 13.9 10.8-4.3-4-8.5-8.1-12.7-12.2-2.1-2-4.2-4.1-6.4-6-2.1-2-4.1-4.1-6.2-6.2-4-4.2-7.9-8.5-11.8-12.9-3.9-4.4-7.7-8.8-11.8-13.1-2-2.2-4.1-4.4-6.2-6.4l-6-6.3c-4-4.2-7.9-8.6-11.7-12.9-7.8-8.8-15.8-17.6-24.3-25.9-4-3.9-7.8-8.2-11.5-12.6-3.7-4.5-7.3-9-11.1-13.6-1.9-2.3-3.8-4.6-5.7-6.8-2.1-2.4-4-4.5-6-6.6-3.9-4.4-7.7-8.7-11.2-13.1-.9-1.1-1.7-2.1-2.6-3.4-.8-1-1.6-2.2-2.4-3.3-1.5-2.3-3-4.7-4.4-7.1-2.8-4.9-5.3-10-7.9-15.2-5-10.5-10-21.5-17.1-31.7-.9-1.3-1.9-2.6-2.8-3.8l-1.4-1.8-1.5-1.8c-2-2.4-4.2-4.8-6.8-7-.6-.6-1.3-1.1-1.8-1.5-.6-.5-1-.9-1.4-1.3-.9-.7-1.7-1.6-2.6-2.6-.8-1-1.7-2-2.5-3.1l-1.3-1.7-.4-.5-.4-.6-.7-.9c-2-2.4-4-4.6-6-6.8s-4-4.4-6-6.5l-3.1-3.3-1.6-1.6-.9-.9-.9-.9-6.6-5.8c-8.8-7.83-17.6-15.62-26.8-23.12-2.3-1.87-4.7-3.73-7.1-5.56-.6-.46-1.3-.92-1.9-1.38l-1-.69-1-.65c-1.2-.76-2.4-1.52-3.6-2.31-4.7-3.13-9.3-6.59-13.9-10.18-4.7-3.59-9.4-7.25-14.5-10.56-2.5-1.66-5.1-3.24-7.8-4.72-2.5-1.43-4.99-2.86-7.49-4.33-9.98-5.9-19.71-12.37-29.52-18.81l-1.94-1.25c-.78-.47-1.49-.81-2.2-1.15a74.47 74.47 0 0 0-4.21-1.78c-2.78-1.1-5.57-2.09-8.36-3.05-5.58-1.92-11.18-3.74-16.82-5.408a667.41 667.41 0 0 0-16.95-4.844c-2.85-.749-5.69-1.481-8.551-2.169a165.16 165.16 0 0 0-4.3-.984C2.918.385 1.476.019 0 0"
         style="fill:#353535;fill-opacity:1;fill-rule:nonzero;stroke:none"
         transform="translate(641 818.7)"
         id="path2770" /></g><g
       style="fill:#353535;fill-opacity:1"
       id="g2776"><path
         d="M0 0c-.068-5.161.568-10.27 1.257-15.36.682-5.1 1.497-10.18 2.367-15.25l1.302-7.63c.393-2.38 1.063-4.89 1.678-7.36 1.269-4.97 2.615-9.94 3.966-14.91 5.27-19.93 10.73-39.79 15.62-59.89 1.22-5.1 2.42-10.1 3.51-15.2.28-1.3.54-2.6.78-3.9l.35-2.1c.11-.7.2-1.5.27-2.1.3-2.4.66-4.9 1.09-7.3 1.73-9.7 4.71-18.9 10.19-26.2 1.36-1.7 2.89-3.5 4.38-4.8 1.52-1.3 3.24-2.5 5.14-3.4 3.79-1.8 8.27-2.8 13-3.4 4.74-.6 9.73-.7 14.9-.9 2.59-.1 5.23-.2 7.95-.4 2.87-.2 5.11-.5 7.66-.6 9.99-.7 20.19-.7 30.49-.7 5.1 0 10.3 0 15.5-.1 5.3-.1 10.4-.3 15.6-.5 20.6-.7 41.2-1.8 61.7-2.6 2.6-.1 5.1-.2 7.8-.3 2.7-.2 5.3-.4 7.9-.6 5.2-.5 10.3-1 15.4-1.7 10.3-1.2 20.4-2.3 30.5-2.4 2.5-.1 5 0 7.6.1l7.7.4c5.1.3 10.3.6 15.5.7 5.1.1 10.3.2 15.5.2 5.1-.1 10.3-.2 15.5-.5-5.2-.4-10.3-.8-15.4-1.3-5.2-.5-10.3-1.1-15.4-1.7l-15.3-2-7.7-1.1c-2.6-.3-5.2-.5-7.9-.7-10.5-.6-20.9 0-31.2.5-5.2.3-10.3.6-15.4.8-2.5.1-5.1.1-7.6.2l-7.6-.1c-20.7-.1-41.4.5-61.9.8-5.1 0-10.3.1-15.4.1s-10.2 0-15.4-.1c-10.3 0-20.7-.1-31.31.6-2.59.2-5.48.5-7.74.7-2.42.2-4.93.3-7.49.4-5.13.2-10.46.3-15.95 1.1-5.47.7-11.2 2-16.67 4.7-2.72 1.4-5.34 3.1-7.66 5.2-.53.5-1.29 1.2-1.65 1.6-.58.6-1.01 1.1-1.51 1.7-.95 1.1-1.85 2.2-2.69 3.4-3.4 4.7-5.9 9.9-7.71 15.2-1.83 5.3-2.96 10.7-3.75 16-.38 2.7-.68 5.3-.92 8-.1.7-.1 1.1-.17 1.7l-.24 1.8-.59 3.7c-.86 5-1.84 10-2.84 15.1-4.03 20.1-8.189 40.32-12.153 60.57-.952 5.08-1.9 10.16-2.779 15.27-.421 2.57-.895 5.09-1.131 7.83l-.606 7.72c-.374 5.16-.713 10.32-.882 15.5-.066 2.59-.095 5.18-.042 7.77C-.53-5.152-.403-2.554 0 0"
         style="fill:#353535;fill-opacity:1;fill-rule:nonzero;stroke:none"
         transform="translate(531.6 755.4)"
         id="path2774" /></g><g
       style="fill:#353535;fill-opacity:1"
       id="g2780"><path
         d="M0 0c-4.258-3.094-9.595-4.618-14.81-5.471-5.26-.861-10.57-1.082-15.78-1.233l-7.75-.185-3.79-.153-3.87-.212c-5.25-.263-10.47-.392-15.73-.373-5.25.02-10.53.185-15.8.563-2.64.183-5.28.399-7.92.696l-7.81.963c-5.17.664-10.34 1.463-15.64 2.404-2.6.482-5.2 1.045-7.9 1.71l-7.6 1.993c-4.9 1.352-9.9 2.669-14.9 3.942-4.9 1.321-9.9 2.552-14.9 3.775-9.9 2.411-19.9 4.731-29.8 6.141-2.4.31-4.9.59-7.1.65-2.2 0-4.8-.22-7.3-.47-5-.56-10-1.34-15.1-2.18-10.2-1.71-20.4-3.528-30.5-5.893 4.6 2.458 9.4 4.503 14.3 6.403 4.9 1.9 9.8 3.62 14.8 5.22 5 1.58 10 3.04 15.2 4.22 2.7.6 5.2 1.12 8.2 1.4 3 .22 5.6.18 8.4 0 5.4-.27 10.6-.89 15.9-1.67 5.2-.76 10.3-1.74 15.5-2.75 5.1-1.03 10.2-2.2 15.3-3.39 5.1-1.23 10.1-2.52 15.1-3.85l7.5-2.03c2.3-.613 4.8-1.132 7.2-1.65 4.9-1.048 9.99-1.895 15.05-2.789 5.12-.912 10.03-1.713 15.07-2.389 5.03-.649 10.09-1.216 15.18-1.666C-56.21 1.26-51.08.895-45.97.559l3.9-.241c1.34-.086 2.66-.193 3.97-.33 2.62-.268 5.21-.567 7.77-.871 5.13-.613 10.2-1.189 15.27-1.31 2.54-.04 5.077.02 7.599.331C-4.932-1.539-2.433-.952 0 0"
         style="fill:#353535;fill-opacity:1;fill-rule:nonzero;stroke:none"
         transform="translate(879.7 617.3)"
         id="path2778" /></g><g
       style="fill:#353535;fill-opacity:1"
       id="g2784"><path
         d="M0 0c1.075 1.755 2.394 3.371 3.817 4.877a54.58 54.58 0 0 0 4.538 4.274C11.57 11.8 15.02 14.18 18.81 16.14c1.91.95 3.88 1.85 6.2 2.33.63.11 1.01.19 1.6.27.56.1 1.11.16 1.64.21 1.09.1 2.19.18 3.3.17 4.42 0 8.89-.97 12.96-2.64 4.09-1.67 7.79-3.96 11.28-6.33 3.59-2.405 6.85-5.254 9.93-8.046 3.1-2.809 6.04-5.688 8.99-8.456 2.95-2.766 5.89-5.438 8.9-7.718 6.11-4.61 13.11-8.15 20.39-11.49 7.4-3.31 15-6.58 22.5-10.5 3.8-1.95 7.5-4.1 11.1-6.45 3.7-2.42 7.1-5.04 10.3-7.64 3.3-2.61 6.4-5.18 9.5-7.5.8-.59 1.5-1.12 2.4-1.71.8-.63 1.7-1.26 2.6-1.92 1.7-1.33 3.5-2.75 5.2-4.34 1.7-1.59 3.3-3.36 4.8-5.38 1.5-2.03 2.8-4.34 3.7-6.96 1-2.6 1.4-5.5 1.2-8.32v-.8l-.1-.4v-.38l-.1-.75c-.2-.95-.5-1.79-.9-2.68-.7-1.75-1.9-3.35-3.2-4.53-1.3-1.21-2.8-2.03-4.1-2.64-1.4-.62-2.7-1.02-4-1.33-2.5-.61-4.9-.81-7.1-.91-4.6-.2-8.9.1-13 .4l-3 .2c-1.2.1-2.3.22-3.4.34-2.1.26-4.3.6-6.3.96-4.2.73-8.2 1.63-12.1 2.36-2 .36-3.9.68-5.8.93-1 .13-1.9.23-2.9.32l-3 .24c-4.5.43-8.71 1.29-12.84 2.31-4.11 1.01-8.08 2.23-11.98 3.37-1.95.56-3.88 1.11-5.8 1.61-1.91.48-3.97 1-5.97 1.55-8.02 2.14-15.9 4.64-23.7 7.25l-23.27 7.98-5.82 1.96c-1.94.65-3.86 1.2-5.84 1.74-3.931 1.12-7.999 2.1-11.738 3.84 3.972-1.08 8.015-1.53 12.098-2.06 2.03-.27 4.12-.62 6.14-1.03l6.04-1.24c8.06-1.71 16.03-3.7 24.01-5.53 7.96-1.88 15.9-3.7 23.85-5.23l6.03-1.11c2.08-.4 4.12-.85 6.14-1.3 4.03-.91 7.98-1.82 11.86-2.59 3.89-.75 7.79-1.32 11.39-1.46h1.5l1.6-.1c1.1 0 2.2-.13 3.3-.23 2.2-.19 4.3-.46 6.4-.76 4.2-.61 8.2-1.33 12.1-1.91 2-.29 3.9-.53 5.8-.7 1-.1 1.9-.16 2.8-.2l3.1-.13c4.1-.19 8-.41 11.6-.17 1.8.11 3.6.34 5 .71 1.4.37 2.6.95 2.9 1.34.2.19.3.27.3.41 0 .1.1.21.1.26v.39c.1.17 0-.13 0-.1v.22l.1.24c0 1.27-.2 2.49-.6 3.75-.9 2.52-2.9 5.14-5.5 7.55-1.3 1.22-2.7 2.4-4.2 3.55-.8.58-1.6 1.15-2.4 1.72-.8.59-1.7 1.26-2.6 1.9-3.4 2.6-6.6 5.29-9.7 7.86-3.1 2.57-6.2 5.02-9.3 7.14-3.2 2.19-6.6 4.2-10 6.14-7 3.86-14.3 7.22-21.75 10.98-7.44 3.74-14.99 8-21.71 13.66-3.39 2.84-6.31 5.91-9.17 8.92l-8.34 8.981c-2.78 2.928-5.54 5.671-8.57 8.107-3.08 2.509-6.24 4.796-9.6 6.562-3.35 1.78-6.94 2.98-10.72 3.34-.94.1-1.89.13-2.85.14h-1.42c-.43 0-1.07-.1-1.45-.1-1.73-.19-3.64-.73-5.48-1.4-3.7-1.44-7.31-3.326-10.719-5.486C5.999 5.54 2.724 3.08 0 0"
         style="fill:#353535;fill-opacity:1;fill-rule:nonzero;stroke:none"
         transform="translate(881 620.7)"
         id="path2782" /></g><g
       style="fill:#353535;fill-opacity:1"
       id="g2788"><path
         d="M0 0c1.671-3.413 2.886-7.068 3.884-10.74 1.012-3.68 1.795-7.41 2.479-11.15 1.345-7.48 2.199-15.01 2.82-22.53.612-7.53.937-15.05 1.107-22.56.11-3.75.1-7.5.15-11.23v-5.69c0-1.92-.1-3.83-.16-5.74-.19-3.81-.464-7.6-.784-11.36-.372-3.8-.75-7.5-1.236-11.3-.969-7.5-2.141-14.9-3.637-22.3-1.49-7.4-3.248-14.9-5.649-22.1-2.41-7.3-5.391-14.3-9.214-20.9 1.365 7.5 2.605 14.8 3.46 22.2.883 7.3 1.487 14.6 2.058 22.1 1.132 14.7 2.291 29.6 3.014 44.2.09 1.83.172 3.66.224 5.46l.111 5.53c.118 3.75.188 7.47.331 11.19l.844 22.3c.297 7.42.572 14.84.733 22.26C.646-14.93.769-7.525 0 0"
         style="fill:#353535;fill-opacity:1;fill-rule:nonzero;stroke:none"
         transform="translate(648.6 804.9)"
         id="path2786" /></g></g></svg>
