<svg width="148mm" height="105mm" viewBox="0 0 148 105" xml:space="preserve" xmlns="http://www.w3.org/2000/svg"><defs><clipPath clipPathUnits="userSpaceOnUse" id="a"><path d="M0 0h1240v1754H0z"/></clipPath></defs><g clip-path="url(#a)" style="fill:#fff" transform="matrix(.1185 0 0 -.1185 .876 156.5)"><g style="fill:#fff"><path d="M0 0c8.108 1.568 16.3 2.611 24.41 3.945 8.1 1.333 16.17 2.903 23.81 5.59.96.342 1.89.675 2.8 1.065.86.38 1.74.83 2.58 1.32 1.71.98 3.34 2.11 4.92 3.34 3.13 2.45 6.02 5.26 8.6 8.3 2.56 3.04 4.83 6.33 6.45 9.82 1.61 3.46 2.56 7.25 1.82 10.45l1.64-1.87c-11.88 4.06-24.55 5.78-37.13 5.45-12.57-.38-25.14-2.74-36.748-7.46a87.077 87.077 0 0 1-8.482-3.99c-2.814-1.53-5.68-3.08-8.55-4.58-5.75-2.99-11.61-5.85-17.65-8.35-6.04-2.51-12.27-4.66-18.65-6.26a110.76 110.76 0 0 0-19.5-3.09c-12.92-.66-25.67-1.53-38.52-2.59-6.4-.53-12.8-1.07-19.2-1.652-3.2-.306-6.5-.594-9.8-.636-3.3-.06-6.6.02-9.8.2-13.1.754-25.9 2.978-38.6 5.238-6.3 1.14-12.6 2.35-18.9 3.4-3.2.55-6.3.95-9.6 1.5-3.2.56-6.5 1.3-9.6 2.26-6.4 1.88-12.4 4.72-18.1 7.77l-8.5 4.6-4.2 2.26c-1.4.74-2.8 1.42-4.3 2.06-5.7 2.54-11.8 4.27-18.1 5.08-6.2.82-12.6.74-18.8 0-12.7-1.52-24.9-5.55-36.9-10.12-12-4.56-23.8-9.69-36.1-13.8-3.1-1.02-6.2-1.96-9.3-2.8-3.2-.81-6.2-1.67-9.3-2.64-6.1-1.9-12.1-4.153-18.2-6.339-6-2.187-12.2-4.313-18.5-5.979-6.2-1.667-12.7-2.867-19.2-3.384-3.3-.258-6.6-.35-9.8-.278-3.3.09-6.5.25-9.8.449-6.4.408-12.9 1-19.3 1.866-12.9 1.708-25.6 4.653-38.1 7.461l-9.4 2.087-2.4.507c-.8.17-1.5.31-2.3.45-1.5.27-3 .49-4.6.67-6.2.72-12.6.9-18.9.86-6.4-.1-12.8-.33-19.2-.75l-4.8-.34c-.7-.1-1.6-.13-2.3-.21-.7-.1-1.5-.18-2.2-.28-3.1-.44-6.2-1.057-9.3-1.766-6.1-1.423-12.3-3.178-18.5-4.833-3.2-.83-6.3-1.638-9.6-2.353a94.45 94.45 0 0 0-4.9-.967l-2.4-.393-2.4-.36c-13-1.857-26.1-2.488-39-2.76-6.5-.121-12.9-.201-19.4-.15-6.5.05-13 .231-19.5.511-12.9.564-25.9 1.516-38.8 2.906-6.4.7-12.9 1.511-19.3 2.493-3.3.499-6.4 1.012-9.7 1.641-3.3.65-6.5 1.431-9.7 2.276-6.4 1.69-12.5 3.615-18.6 5.235-3.1.81-6.1 1.54-9.1 2.14-3 .58-6.2 1.05-9.3 1.48-12.5 1.72-25.2 2.46-37.9 2.77-6.4.16-12.8.22-19.3.25h-9.6c-3-.1-6.2-.18-9.3-.4-12.5-.86-25.2-2.98-38.2-4.28-6.6-.63-13.2-1.08-20-.7-3.4.2-6.9.62-10.4 1.44-3.4.83-6.9 2.08-10.2 3.96-5.5 3.21-11 6.45-16.6 9.06-2.7 1.28-5.7 2.4-7.7 2.72-1 .17-2 .13-3-.12s-2-.77-3-1.51c-3-1.49-5-3.62-8-5.63-2-2.03-5-4.04-8-5.92l-2-1.39v-.35l-1-.17v-.28l-1-.6-4-2.39-9-4.759-1-.595v-.298l-1-.151v-.273c-1-.386-2-.709-2-1.027-2-.626-4-1.192-5-1.75-3-1.111-6-2.182-9-3.31-6-2.253-12-4.693-17-7.743-3-1.524-5-3.214-8-5.114-2-1.89-4-4.02-5-6.38-2-2.36-2-4.93-2-7.59 0-2.67 1-5.41 2-8.02l-1 1.38c0-.35 2-.6 3-.74s2-.19 4-.19 5 .17 8 .41c5 .49 11 1.24 17 2.07 11 1.66 22 3.7 33 5.58 11 1.91 22 3.8 33.6 5.39 11.2 1.58 22.5 2.94 33.9 3.05v-.9c-5.6-.32-11.2-.99-16.8-1.8-5.6-.8-11.1-1.73-16.7-2.74-11-2.04-22-4.36-33-6.71-11-2.35-22-4.66-34-6.73-5-1.01-11-1.97-17-2.64-2-.32-5-.59-8-.66-2 0-3 0-5 .11-1 .14-3 .34-5 1.06l-1 .38v1c-2 3.11-3 6.64-3 10.43-1 3.77 0 7.68 2 10.95 2 3.29 4 6.01 7 8.33 3 2.328 5 4.269 8 6.011 6 3.47 12 6.147 18 8.598 3 1.222 6 2.375 9 3.531 2 .58 3 1.16 5 1.76 0 .3 1 .61 2 .91l1 1.07 9 4.93 4 2.47 1 .61c0-.19 0 0 0 0v.17l1 .33 2 1.34c2 1.8 5 3.71 7 5.72 3 1.99 5 4.13 8 6.21 2 1.02 3 2.04 5 2.64 3 .62 5 .7 7 .44 4-.55 7.2-1.93 10.3-3.29 6.2-2.81 11.8-6.01 17.5-9.17 4.7-2.64 10.5-3.76 16.6-4.05 6-.29 12.2.16 18.5.82 12.6 1.35 25.4 3.61 38.5 4.63 3.3.25 6.6.42 10 .46h9.7c6.4 0 12.9-.11 19.4-.27 13-.35 26-1.08 39.1-2.95 3.3-.5 6.4-.99 9.7-1.67 3.3-.68 6.6-1.5 9.7-2.37 6.4-1.75 12.5-3.74 18.6-5.42 3-.84 6-1.61 9-2.22 3.1-.62 6.2-1.17 9.4-1.68 6.2-1.02 12.6-1.881 18.9-2.632 12.7-1.493 25.5-2.561 38.2-3.244 6.4-.34 12.8-.577 19.2-.694 6.3-.105 12.8-.112 19.2-.08 12.8.08 25.5.586 38.1 2.126l2.3.299 2.4.331c1.5.231 3 .509 4.6.814 3 .619 6.1 1.34 9.2 2.1 6.2 1.53 12.5 3.17 18.9 4.48 3.3.66 6.5 1.23 9.8 1.63.9.1 1.7.18 2.6.25.9.1 1.6.12 2.5.17l4.8.22c6.5.27 13 .4 19.5.29 6.5-.12 13-.45 19.6-1.37 1.6-.23 3.3-.49 4.9-.82.8-.17 1.7-.35 2.4-.54l2.4-.57 9.4-2.3c12.5-3.097 24.9-6.281 37.5-8.243 6.3-1.002 12.7-1.725 19.1-2.208 3.2-.244 6.4-.449 9.6-.589 3.1-.117 6.3-.08 9.4.124 6.4.39 12.6 1.474 18.8 3.064 6.2 1.575 12.2 3.618 18.3 5.742 6.1 2.13 12.1 4.32 18.3 6.25 3.1.97 6.3 1.86 9.4 2.64 3.1.82 6.1 1.74 9.2 2.74 12.1 4 23.9 9.16 36 13.79 12 4.59 24.4 8.86 37.4 10.55 6.5.84 13.1.99 19.6.2 6.6-.78 13-2.53 19.1-5.14 1.5-.65 3-1.37 4.4-2.11l4.3-2.22 8.6-4.48c5.7-2.94 11.4-5.56 17.5-7.27 3-.87 6-1.53 9.1-2.03 3.1-.47 6.4-.86 9.6-1.37 6.4-.99 12.7-2.09 19.1-3.17 12.6-2.16 25.3-4.23 38-4.86 3.2-.15 6.3-.2 9.5-.11 3.2.1 6.2.36 9.4.7 6.5.64 12.9 1.25 19.3 1.8 12.83 1.09 25.78 2 38.58 2.66 12.57.84 24.86 4.13 36.53 9.04 5.85 2.44 11.58 5.24 17.24 8.2 2.84 1.49 5.64 3.01 8.476 4.56a91.159 91.159 0 0 0 8.978 4.24c12.256 5 25.406 7.53 38.566 7.84 13.15.3 26.39-1.54 38.89-5.87l1.39-.48.25-1.38c.45-2.46.24-4.89-.3-7.13-.53-2.24-1.39-4.32-2.4-6.27-2.02-3.91-4.63-7.34-7.5-10.48-2.89-3.13-6.06-5.97-9.51-8.45-1.73-1.23-3.54-2.38-5.45-3.377-.96-.5-1.93-.954-2.97-1.359a51.47 51.47 0 0 0-3.02-1.012c-8.04-2.455-16.28-3.69-24.47-4.693C16.48 1.037 8.281.338.149-.888z" style="fill:#fff;fill-opacity:1;fill-rule:nonzero;stroke:none" transform="translate(1127 1102)"/></g><g style="fill:#fff"><path d="M0 0c11.29.927 22.66.66 33.95-.016 2.82-.183 5.64-.374 8.45-.596l8.44-.75c5.62-.505 11.21-1.132 16.8-1.796l8.37-1.037c2.8-.348 5.66-.771 8.45-1.249 2.81-.477 5.59-1.007 8.36-1.562l8.28-1.6c5.6-1.02 11.1-1.954 16.7-2.544 5.5-.62 11.1-.81 16.6-.6 5.6.22 11.1 1.05 16.5 2.1 5.5 1.073 10.9 2.491 16.2 4.122 10.6 3.268 21 7.487 31.6 11.519 10.6 3.973 21.2 7.639 31.7 11.559 5.3 1.96 10.5 3.99 15.7 6.16 5.1 2.18 10.2 4.48 15.1 7.31l.5-.74a69.66 69.66 0 0 0-7.1-4.81c-2.4-1.48-4.9-2.89-7.4-4.2-5-2.64-10.2-5.04-15.3-7.32-10.4-4.601-21-8.581-31.4-12.682-10.5-4.063-21.2-8.027-32.2-11.106-10.9-3.062-22.3-5.242-33.8-5.212-11.5 0-22.7 1.91-33.8 3.65-2.83.43-5.61.84-8.4 1.22-2.78.356-5.57.687-8.35.963-2.79.279-5.53.489-8.34.638-2.83.17-5.65.362-8.46.592-5.63.47-11.24 1.055-16.83 1.731L33.57-4.274A907.324 907.324 0 0 1-.004-.9z" style="fill:#fff;fill-opacity:1;fill-rule:nonzero;stroke:none" transform="translate(863.1 1069)"/></g><g style="fill:#fff"><path d="M0 0c7.937 6.082 17.86 9.817 28.02 10.2 10.18.45 20.27-2.159 29.5-6.352a71.162 71.162 0 0 0 3.42-1.682 38.402 38.402 0 0 0 3.37-2.01 39.923 39.923 0 0 0 6.04-4.999c3.67-3.737 6.77-8.117 8.8-12.967 2.01-4.85 3.03-10.05 3.16-15.22.12-5.17-.59-10.36-2.45-15.1l-.88.19c.51 9.9-1.02 19.48-4.65 28.13-1.78 4.31-4 8.51-7.13 12.028a35.052 35.052 0 0 1-5.13 4.811c-.93.721-1.9 1.393-2.89 2.014A62.991 62.991 0 0 1 56.02.854c-8.51 4.655-18.21 7.259-27.93 7.077-4.85-.11-9.71-.841-14.36-2.308C9.068 4.153 4.637 1.972.514-.738z" style="fill:#fff;fill-opacity:1;fill-rule:nonzero;stroke:none" transform="translate(915.6 1163)"/></g><g style="fill:#fff"><path d="M0 0c-1.856-.302-3.726-.519-5.64-.577-1.912-.065-3.877.031-5.86.491-1.98.447-4.02 1.342-5.67 2.875-1.67 1.508-2.73 3.606-3.2 5.653-.25 1.03-.36 2.058-.4 3.078 0 1.03 0 1.93.17 3.12.38 2.19 1.5 4.12 2.83 5.67 2.7 3.11 6.22 5.06 9.866 6.43 1.831.71 3.725 1.24 5.716 1.61 2.235.39 4.381 0 6.441-.4 2.062-.48 4.137-1.1 6.157-2.12 2-1.03 4-2.45 5.46-4.63a11.51 11.51 0 0 0 1.65-3.72c.33-1.37.39-2.84.19-4.24-.39-2.84-1.81-5.207-3.41-6.898-1.63-1.715-3.48-2.894-5.397-3.732-1.924-.826-3.912-1.339-6.007-1.447l-.446.782c1.129 1.731 2.273 3.234 3.266 4.707.992 1.463 1.856 2.866 2.42 4.158.571 1.3.782 2.43.754 3.3-.07.88-.225 1.65-.614 2.72-.735 2.1-2.701 5.14-5.597 6.69-1.43.79-3.018 1.21-4.492 1.2-1.702 0-3.446-.33-5.131-.82-3.326-1.02-6.606-2.75-8.726-5.34-1.04-1.29-1.67-2.81-1.74-4.32 0-.66.1-1.63.16-2.44.11-.83.28-1.65.51-2.413.45-1.54 1.13-2.876 2.15-3.958 1.01-1.075 2.4-1.879 3.98-2.457C-7.425 1.804-3.694 1.516.002.9z" style="fill:#fff;fill-opacity:1;fill-rule:nonzero;stroke:none" transform="translate(903.6 1142)"/></g><g style="fill:#fff"><path d="M0 0c.475-2.254.679-4.584.729-6.906C.769-9.229.63-11.54.595-13.73c-.074-2.19.011-4.25.411-6.19.354-1.96 1.015-3.83 1.844-5.69L.815-23.66c4.706-1.21 9.495-1.56 14.345-1.26 4.86.28 9.74 1.29 14.81 2.23s10.36 1.88 15.83 2.17c5.45.3 11.11-.1 16.41-1.63.66-.19 1.31-.41 1.96-.62l1.86-.63c1.23-.42 2.47-.77 3.72-1.15 2.5-.71 5.02-1.33 7.57-1.87 5.08-1.06 10.25-1.7 15.42-1.99 10.36-.55 20.66.3 30.86 1.2l-3.5-5.52c-2.6 6.07-9.8 9.39-17.5 11.83-3.85 1.29-7.91 2.43-12.04 3.83-2.07.72-4.17 1.46-6.28 2.38l-1.58.73-.81.39-.73.38c-1.08.56-2.04 1.11-3.03 1.69C70.45-6.733 63.89-1.074 57.7 4.944 51.54 10.97 45.79 17.36 40.64 24.25l.64.63c6.87-5.11 13.6-10.26 20.42-15.187 3.43-2.423 6.82-4.881 10.31-7.116 3.46-2.27 6.96-4.446 10.51-6.218 3.44-1.819 7.05-3.058 11.02-4.29 3.93-1.23 8.06-2.429 12.26-3.939 4.1-1.57 8.3-3.37 12.4-6.14 1.9-1.39 3.9-3.05 5.5-5.03 1.7-1.97 3-4.29 3.9-6.73l2-5.34-5.5-.18c-10.7-.35-21.4.84-31.85 2.86-5.23.97-10.39 2.14-15.53 3.33-2.57.6-5.13 1.23-7.69 1.86l-3.85.94-1.91.47c-.6.15-1.22.26-1.83.37-2.45.43-4.95.46-7.43.29-2.48-.2-4.94-.65-7.39-1.22-4.9-1.16-9.79-2.78-14.95-4.06-5.15-1.3-10.61-2.2-16.23-2.28-5.617-.1-11.374.85-16.63 2.9l-1.619.63-.417 1.32c-.747 2.35-1.228 4.87-1.307 7.41-.06 2.54.309 5 .797 7.28.523 2.28 1.132 4.413 1.622 6.575A68.626 68.626 0 0 1-.899-.027z" style="fill:#fff;fill-opacity:1;fill-rule:nonzero;stroke:none" transform="translate(598 617.4)"/></g><g style="fill:#fff"><path d="M0 0c.795-14.82 1.589-29.58 1.854-44.43.07-3.71.07-7.44 0-11.2l-.282-11.08C1.393-74.1 1.057-81.52.408-88.92c-1.306-14.78-3.49-29.38-3.636-44.18-.09-7.4.255-14.8 1.013-22.1.201-1.8.408-3.7.647-5.5l.826-5.5 1.63-11c1.024-7.4 2.045-14.7 2.861-22.1l2.408-22c.855-7.3 1.844-14.5 3.023-21.8 1.2-7.2 2.42-14.4 3.7-21.7l3.82-21.8 1.96-10.9c.63-3.7 1.17-7.3 1.76-11 .59-3.6 1.14-7.3 1.77-10.9.65-3.6 1.32-7.2 2.1-10.7.8-3.6 1.66-7.1 2.78-10.6 1.12-3.5 2.42-6.9 4.34-10l-.71-.5c-2.63 2.7-4.64 6-6.37 9.4-1.71 3.3-3.19 6.8-4.46 10.4-1.3 3.5-2.45 7.1-3.48 10.7-1.05 3.6-2.04 7.2-2.92 10.8-3.538 14.3-7.258 28.8-10.046 43.4-2.828 14.6-4.738 29.5-5.737 44.4-.524 7.5-.913 14.9-1.143 22.3-.261 7.4-.3 14.8-.565 22.2-.138 3.7-.259 7.4-.515 11l-.369 5.6c-.142 1.8-.254 3.7-.356 5.6-.425 7.4-.65 14.8-.87 22.3-.398 14.8-1.098 29.7-.959 44.54.06 7.38.267 14.76.661 22.16.17 3.7.403 7.41.637 11.11.261 3.63.419 7.31.638 11 .185 3.69.438 7.38.672 11.08l.365 5.55.456 5.55C-3.022-14.71-2.303-7.288-.897.066z" style="fill:#fff;fill-opacity:1;fill-rule:nonzero;stroke:none" transform="translate(606.4 993)"/></g><g style="fill:#fff"><path d="M0 0c1.732-16.12 2.711-32.2 3.947-48.24.585-8.01 1.183-16.01 1.872-23.98l1.137-11.91.628-5.92.683-5.98c.842-8.07 1.429-16.17 1.773-24.27.15-4.1.32-8.1.36-12.2.1-4 .25-8 .6-12 .66-8 2.2-15.9 3.74-23.8l1.22-5.9c.44-2 .9-3.9 1.37-5.9.93-3.9 2.01-7.8 3.11-11.6 2.19-7.8 4.73-15.4 7.29-22.9 2.58-7.6 5.24-15.2 8.02-22.7 5.56-15 11.62-30.1 16.51-45.6 1.22-3.8 2.39-7.8 3.51-11.5 1.18-3.8 2.45-7.6 3.69-11.4l3.77-11.5c1.23-3.9 2.4-7.8 3.52-11.7 1.14-3.9 2.14-7.9 3.04-11.9.92-4 1.67-8 2.23-12.1 1.12-8.1 1.5-16.5 0-24.5h-.9c-.1 8.1-1.57 15.9-3.59 23.6-1.03 3.8-2.22 7.6-3.46 11.4-1.26 3.8-2.65 7.5-4.03 11.3-1.39 3.7-2.87 7.4-4.35 11.2l-4.42 11.2c-1.49 3.8-2.93 7.6-4.29 11.5l-1.01 2.9-.94 2.9-1.89 5.6-7.73 22.8c-2.58 7.7-5.2 15.3-7.68 23-2.49 7.7-4.88 15.5-6.91 23.4-2.05 7.9-3.68 15.9-5.16 23.8-1.47 8-2.68 16.1-3.91 24.1-.54 3.9-1.29 7.9-1.893 11.9-.613 4-1.215 8-1.722 12.1-.515 4-.969 8-1.399 12.1-.448 3.9-.965 7.9-1.621 11.9-1.288 7.9-2.811 15.8-4.259 23.7-.722 3.91-1.422 8.03-1.891 12.08-.492 4.06-.839 8.12-1.109 12.18-.56 8.11-.821 16.22-.892 24.32-.05 4.05 0 8.1.07 12.15l.12 6.07.231 6.06C-2.304-16.15-1.783-8.067-.9 0z" style="fill:#fff;fill-opacity:1;fill-rule:nonzero;stroke:none" transform="translate(526.5 998)"/></g><g style="fill:#fff"><path d="M0 0c15.28 1.747 30.87 1.262 46.2-1.088 7.66-1.191 15.24-2.851 22.7-4.849l21.93-6.023c14.57-4.02 29.27-8.07 44.37-10.14 7.6-1.06 15.2-1.65 22.8-2.25 7.6-.63 15.3-1.09 23-2.15 7.7-1.05 15.4-2.65 22.8-5.08 1.9-.59 3.8-1.22 5.6-1.91l2.7-1.05c.9-.35 1.7-.66 2.6-.97 3.5-1.23 7-2.39 10.7-3.49 14.4-4.39 29.2-8.26 43.8-12.64 7.3-2.2 14.6-4.42 21.9-6.76l10.9-3.5 10.9-3.64c3.6-1.21 7.2-2.5 10.8-3.79 3.6-1.27 7.2-2.61 10.8-3.99 3.6-1.35 7.2-2.8 10.7-4.28 3.5-1.51 7.1-3.08 10.5-4.93l-.4-.83c-7.3 2.15-14.8 3.83-22.2 5.65L322-75.04c-3.7.89-7.4 1.76-11.1 2.69l-11.1 2.74-11.1 2.83c-7.4 1.88-14.8 3.86-22.2 5.9-7.3 2.07-14.7 4.21-21.9 6.54-7.4 2.31-14.6 4.68-21.9 7.26-3.6 1.3-7.3 2.61-10.9 4.15-.9.39-1.9.82-2.7 1.21l-2.6 1.15c-1.7.74-3.4 1.49-5.1 2.2-3.5 1.42-7 2.72-10.5 3.92-3.6 1.18-7.2 2.21-10.8 3.11-7.3 1.78-14.8 3.04-22.4 3.95-7.6.94-15.2 1.66-22.8 2.41-15.2 1.53-30.6 2.75-45.78 5.71-3.78.73-7.55 1.58-11.28 2.53-3.73.93-7.5 2.04-11.08 3.09-7.25 2.08-14.53 4.021-21.86 5.676-3.68.816-7.36 1.613-11.06 2.307-1.86.342-3.72.662-5.58.971-1.86.33-3.72.633-5.6.914C15.18-2.653 7.622-1.788-.004-.9z" style="fill:#fff;fill-opacity:1;fill-rule:nonzero;stroke:none" transform="translate(171.6 1086)"/></g><g style="fill:#fff"><path d="M0 0c1.665-1.287 3.384-2.378 5.192-3.5.893-.573 1.851-1.236 2.622-2.145.773-.897 1.332-1.919 1.764-2.929C11.26-12.66 12.06-16.8 13.42-20.65c.34-.95.71-1.88 1.16-2.69.5-.89 1.02-1.75 1.57-2.57 1.1-1.62 2.4-3.05 3.95-3.84.39-.19.8-.35 1.21-.46.2-.1.43-.1.62-.13.29 0 .46-.1.7-.1.92-.1 1.89-.1 2.86.1 1.94.27 3.93.77 5.88 1.44 3.94 1.29 7.69 3.23 11.66 4.77 1.89.74 3.61 1.94 5.26 3.22 1.66 1.27 3.12 2.76 4.84 4.06.22.16.45.32.73.44h.5c.19 0 .37-.1.51-.19.51-.41.73-.9 1.01-1.35.52-.91 1.05-1.82 1.84-2.4.39-.3.84-.5 1.31-.58.24 0 .48-.1.73 0 .28 0 .4 0 .59.16.74.56 1.29 1.53 1.84 2.39 1.08 1.79 2.09 3.66 3.29 5.41 1.2 1.75 2.53 3.456 4.26 4.793l.54-.724c-1.65-1.189-3.04-2.769-4.24-4.459-1.21-1.7-2.26-3.51-3.36-5.32-.58-.88-1.07-1.83-2.01-2.56-.23-.19-.65-.28-.9-.25-.28 0-.56 0-.84.1-.56.1-1.09.34-1.54.68-.91.69-1.47 1.66-2 2.56-.26.44-.54.92-.86 1.16-.1.1-.15.1-.22.1h-.2c-.2-.1-.41-.23-.61-.38-3.22-2.57-6.07-5.89-10.08-7.7-1.93-.79-3.76-1.81-5.63-2.8-1.87-.97-3.73-2-5.69-2.87-1.96-.87-4-1.69-6.21-2.09-1.11-.2-2.25-.32-3.43-.27-.28 0-.64 0-.87.1-.33 0-.62.1-.93.17-.61.14-1.19.35-1.75.62-2.26 1.07-3.86 2.9-5.09 4.74-.64.93-1.17 1.89-1.66 2.85-.54 1.06-.91 2.11-1.24 3.15-.65 2.08-1.141 4.14-1.612 6.19-.476 2.04-.935 4.09-1.606 5.956-.351.938-.743 1.82-1.29 2.567-.535.752-1.276 1.375-2.102 2.004C2.638-3.412.925-2.056-.574-.565z" style="fill:#fff;fill-opacity:1;fill-rule:nonzero;stroke:none" transform="translate(900 1066)"/></g><g style="fill:#fff"><path d="M0 0c-.326 1.099.008 2.227.406 3.122.467.889 1.037 1.675 1.455 2.464.186.363.402.828.601 1.273.196.449.349.926.592 1.365.51.844 1.207 1.69 2.281 2.116l.564-.698c-.38-.805-.72-1.595-1.162-2.382-.228-.385-.514-.75-.737-1.154-.229-.403-.372-.818-.619-1.3-.457-.896-.896-1.722-1.277-2.534C1.674 1.477 1.229.803.9-.016z" style="fill:#fff;fill-opacity:1;fill-rule:nonzero;stroke:none" transform="translate(886.7 1133)"/></g><g style="fill:#fff"><path d="M0 0c3.79-1.481 7.746-2.155 11.74-2.535 4-.409 8.05-.447 12.14-.588l6.18-.209 6.08-.234 12.24-.275c4.1-.08 8.2-.218 12.33-.386 4.1-.19 8.31-.456 12.37-.82 8.09-.655 16.18-1.193 24.31-1.795C113.6-8.028 130-9.349 146.4-9.386c8.2-.04 16.4.165 24.6.426l6.1.207 6.2.26c4.1.144 8.2.349 12.2.636 8.1.566 16.2 1.543 24.4 2.397 8.1.885 16.3 1.707 24.5 2.396 8.2.703 16.5 1.222 24.8 1.362 8.3.164 16.3-.201 23.7 1.051 3.7.595 7.1 1.64 10.3 3.216 3.1 1.585 5.8 3.782 8.1 6.486l15.2 19.109c2.5 3.22 5.1 6.41 7.5 9.61l.9 1.18.9 1.3c.7.92 1.4 1.74 2.1 2.54 1.4 1.58 2.9 3.08 4.3 4.56 2.9 2.97 5.9 5.8 8.8 8.68 1.4 1.43 2.9 2.85 4.4 4.3 1.4 1.45 2.9 2.88 4 4.46l.8-.38c-.4-1.05-1-1.91-1.6-2.8-.5-.88-1.1-1.74-1.7-2.57-1.2-1.69-2.4-3.35-3.7-4.98l-7.5-9.73c-1.3-1.61-2.5-3.24-3.6-4.86-.6-.81-1.1-1.62-1.6-2.38l-.7-1.3-.9-1.37c-2.1-3.57-4.4-7.01-6.7-10.43-2.3-3.41-4.6-6.82-6.9-10.2l-3.5-5.047-1.8-2.519c-.6-.853-1.2-1.63-1.9-2.605-2.8-3.718-6.4-6.931-10.5-9.222-4.1-2.331-8.6-3.692-13-4.517-8.8-1.57-17.4-1.1-25.4-.99-8 .11-16.1-.11-24.3-.44-8.1-.35-16.3-.85-24.5-1.12-8.2-.3-16.5-.3-24.8-.11-8.3.23-16.4.76-24.6.76-8.2.1-16.4 0-24.6-.27-16.4-.5-32.8-2.08-49.29-2.05-8.26 0-16.53.44-24.76 1.32-8.1.88-16.15 1.48-24.35 2.18-4.09.34-8.19.76-12.3 1.245-2.04.246-4.14.489-6.16.789l-6.07.91c-4.07.563-8.2 1.242-12.27 2.258C7.144-4.591 3.07-3.15-.409-.802z" style="fill:#fff;fill-opacity:1;fill-rule:nonzero;stroke:none" transform="translate(533.7 1002)"/></g></g></svg>