<?xml version="1.0" encoding="UTF-8" standalone="no"?>
<!-- Created with Inkscape (http://www.inkscape.org/) -->

<svg
   width="148mm"
   height="105mm"
   viewBox="0 0 148 105"
   version="1.1"
   id="svg1602"
   xml:space="preserve"
   inkscape:version="1.2.1 (9c6d41e410, 2022-07-14)"
   sodipodi:docname="Shanmukhi_mudra-min.svg"
   xmlns:inkscape="http://www.inkscape.org/namespaces/inkscape"
   xmlns:sodipodi="http://sodipodi.sourceforge.net/DTD/sodipodi-0.dtd"
   xmlns="http://www.w3.org/2000/svg"
   xmlns:svg="http://www.w3.org/2000/svg"><sodipodi:namedview
     id="namedview1604"
     pagecolor="#505050"
     bordercolor="#eeeeee"
     borderopacity="1"
     inkscape:showpageshadow="0"
     inkscape:pageopacity="0"
     inkscape:pagecheckerboard="0"
     inkscape:deskcolor="#505050"
     inkscape:document-units="mm"
     showgrid="false"
     inkscape:zoom="0.7653"
     inkscape:cx="-26.79"
     inkscape:cy="238.5"
     inkscape:window-width="1620"
     inkscape:window-height="1058"
     inkscape:window-x="-6"
     inkscape:window-y="-6"
     inkscape:window-maximized="1"
     inkscape:current-layer="layer1" /><defs
     id="defs1599"><inkscape:path-effect
       effect="bspline"
       id="path-effect2054"
       is_visible="true"
       lpeversion="1"
       weight="33.33"
       steps="2"
       helper_size="0"
       apply_no_weight="true"
       apply_with_weight="true"
       only_selected="false" /><inkscape:path-effect
       effect="bspline"
       id="path-effect2050"
       is_visible="true"
       lpeversion="1"
       weight="33.33"
       steps="2"
       helper_size="0"
       apply_no_weight="true"
       apply_with_weight="true"
       only_selected="false" /><inkscape:path-effect
       effect="bspline"
       id="path-effect2046"
       is_visible="true"
       lpeversion="1"
       weight="33.33"
       steps="2"
       helper_size="0"
       apply_no_weight="true"
       apply_with_weight="true"
       only_selected="false" /><inkscape:path-effect
       effect="bspline"
       id="path-effect2042"
       is_visible="true"
       lpeversion="1"
       weight="33.33"
       steps="2"
       helper_size="0"
       apply_no_weight="true"
       apply_with_weight="true"
       only_selected="false" /><inkscape:path-effect
       effect="bspline"
       id="path-effect2038"
       is_visible="true"
       lpeversion="1"
       weight="33.33"
       steps="2"
       helper_size="0"
       apply_no_weight="true"
       apply_with_weight="true"
       only_selected="false" /><inkscape:path-effect
       effect="bspline"
       id="path-effect2034"
       is_visible="true"
       lpeversion="1"
       weight="33.33"
       steps="2"
       helper_size="0"
       apply_no_weight="true"
       apply_with_weight="true"
       only_selected="false" /><inkscape:path-effect
       effect="bspline"
       id="path-effect2030"
       is_visible="true"
       lpeversion="1"
       weight="33.33"
       steps="2"
       helper_size="0"
       apply_no_weight="true"
       apply_with_weight="true"
       only_selected="false" /><inkscape:path-effect
       effect="bspline"
       id="path-effect2026"
       is_visible="true"
       lpeversion="1"
       weight="33.33"
       steps="2"
       helper_size="0"
       apply_no_weight="true"
       apply_with_weight="true"
       only_selected="false" /><inkscape:path-effect
       effect="bspline"
       id="path-effect2022"
       is_visible="true"
       lpeversion="1"
       weight="33.33"
       steps="2"
       helper_size="0"
       apply_no_weight="true"
       apply_with_weight="true"
       only_selected="false" /><inkscape:path-effect
       effect="bspline"
       id="path-effect1890"
       is_visible="true"
       lpeversion="1"
       weight="33.33"
       steps="2"
       helper_size="0"
       apply_no_weight="true"
       apply_with_weight="true"
       only_selected="false" /><inkscape:path-effect
       effect="bspline"
       id="path-effect1872"
       is_visible="true"
       lpeversion="1"
       weight="33.33"
       steps="2"
       helper_size="0"
       apply_no_weight="true"
       apply_with_weight="true"
       only_selected="false" /><clipPath
       clipPathUnits="userSpaceOnUse"
       id="clipPath1874"><path
         style="fill:none;stroke:#000000;stroke-width:0.264599px;stroke-linecap:butt;stroke-linejoin:miter;stroke-opacity:1"
         d="m 513,-2.114 c 3.4,-8.376 3.8,-28.926 2.2,-44.436 -1.7,-15.52 -5.5,-26.06 -7.4,-35.07 -1.9,-9 -1.9,-16.54 4.6,-28.08 6.5,-11.4 19.6,-27.2 30.1,-32.6 10.5,-5.4 18.4,-0.8 25.9,6.4 7.6,7.1 14.8,16.8 21.5,27.8 6.6,11.14 12.9,23.73 18.6,33.6 5.6,9.88 10.6,17 22,23.1 11.4,6.11 28.8,11.08 41.3,13 12.4,1.91 19.6,0.65 24.2,6.73 4.5,6.09 6.6,19.5 7,30.611 0.4,11.109 -0.9,19.929 -28.9,25.389 -28,5.45 -83,7.54 -120.7,7.35 -37.7,-0.2 -58.4,-2.73 -64.9,-8.63 -6.5,-5.9 1.1,-15.029 8,-17.766 7,-2.736 13.1,0.98 16.5,-7.398 z"
         id="path1876"
         inkscape:path-effect="#path-effect1872"
         inkscape:original-d="m 515.9,10.07 c 0.6,-20.56 0.8,-41.11 1.4,-61.66 -3.7,-10.51 -7.7,-20.99 -11.4,-31.46 0,-7.57 0,-15.11 0,-22.65 12.9,-15.5 26.2,-31.1 39.1,-46.6 8,4.6 15.9,9.2 23.9,13.9 7.1,9.6 14.2,19.3 21.4,28.9 6.1,12.61 12.4,25.18 18.8,37.77 5,7.12 10,14.26 15.1,21.38 17.7,5.05 35.1,10.08 52.9,15.11 7.1,-1.27 14.3,-2.52 21.4,-3.76 2.1,13.41 4,26.84 6.1,40.258 -1.1,8.812 -2.4,17.622 -3.7,26.442 -54.8,2.09 -109.8,4.18 -164.9,6.27 -20.3,-2.51 -41,-5.02 -61.6,-7.54 7.7,-9.23 15.1,-18.458 22.8,-27.688 6.3,3.776 12.4,7.552 18.7,11.328 z" /></clipPath><clipPath
       clipPathUnits="userSpaceOnUse"
       id="clipPath1892"><path
         style="fill:none;stroke:#000000;stroke-width:0.264599px;stroke-linecap:butt;stroke-linejoin:miter;stroke-opacity:1"
         d="m 75.64,509.9 c -32.31,5.6 -64.67,11.3 -79.178,20.8 -14.512,9.6 -11.272,22.8 0.299,34.9 11.572,12.1 31.389,23.2 43.529,34.8 12.14,11.6 16.68,24.3 15.99,37.9 -0.68,13.7 -6.7,29 -10.58,48.9 -3.89,19.8 -5.67,44.1 -5.09,62.4 0.58,18.2 3.59,30.9 21.8,43.7 18.21,12.7 51.69,25.8 84.29,29.9 32.5,4.1 63.9,-0.6 79.6,-6.8 15.7,-6.2 15.7,-13.9 14.2,-23.3 -1.5,-9.4 -4.5,-20.5 -9.4,-31.2 -5,-10.8 -12.2,-21.6 -17.7,-30.7 -5.5,-9.2 -9.3,-16.8 -12.6,-28.7 -3.3,-11.9 -6,-28.1 -6.5,-43.4 -0.6,-15.4 0.9,-30.2 7.1,-42.2 6.2,-12 17.2,-21.3 29.1,-32.3 11.9,-11 24.6,-23.7 31.8,-32.3 7.1,-8.6 8.6,-13.1 8.3,-15.5 -0.2,-2.4 -1.8,-2.6 -6.1,-4 -4.4,-1.3 -11.2,-3.6 -25.1,-5.7 -14,-2.1 -35,-3.8 -49.1,-6 -14.1,-2.2 -21.2,-4.9 -25.1,-10.7 -3.8,-5.8 -4.4,-14.6 -7.9,-20.8 -3.4,-6.1 -9.6,-9.4 -17.5,-11 -7.8,-1.6 -17.3,-1.6 -28.2,3.9 -11,5.4 -23.53,16.5 -35.96,27.4"
         id="path1894"
         inkscape:path-effect="#path-effect1890"
         inkscape:original-d="m 75.64,509.9 c -32.33,5.5 -64.66,11.3 -97,16.9 3.26,13.5 6.53,26.7 9.79,39.9 19.875,11.1 39.75,22 59.62,33.1 4.44,12.2 8.91,24.9 13.36,37.3 -5.95,14.8 -11.88,30.2 -17.81,45.5 -1.77,24.4 -3.57,48.7 -5.34,72.8 2.96,12.4 5.95,25.1 8.89,37.6 33.52,12.9 67.05,25.9 100.55,39.1 31.5,-4.7 62.9,-9.5 94.3,-14.3 0,-7.6 0,-15.3 0,-23 -2.9,-11.1 -5.9,-22.2 -8.9,-33.1 -7.1,-10.5 -14.2,-21.4 -21.3,-32 -3.9,-7.7 -7.7,-15.3 -11.6,-23 -2.6,-16.1 -5.3,-32.3 -8,-48.2 1.5,-14.8 3,-29.6 4.5,-44.4 10.9,-9.3 21.9,-18.5 32.9,-27.8 12.7,-12.9 25.5,-25.4 38.4,-38.1 1.3,-4.5 2.7,-9 4.3,-13.5 -1.9,-0.2 -3.5,-0.5 -5.3,-0.8 -6.9,-2.4 -13.7,-4.7 -20.5,-7.1 -21.1,-1.9 -42.1,-3.7 -63.2,-5.3 -7.1,-2.7 -14.2,-5.3 -21.3,-7.9 -0.6,-9 -1.2,-17.8 -1.8,-26.8 -6.3,-3.4 -12.5,-6.6 -18.7,-9.8 -9.5,0 -19,0 -28.5,0 -12.4,10.9 -24.89,22 -37.36,32.9" /></clipPath></defs><g
     inkscape:label="Layer 1"
     inkscape:groupmode="layer"
     id="layer1"
     transform="translate(-388.7,-231.4)"><path
       style="fill:#ffffff;stroke:none;stroke-width:0.392884"
       d="m 460.7,237 v 0.4 l 3.5,0.8 c -1.2,-1.2 -2,-1.4 -3.5,-1.2 m -8.3,8.6 h 0.4 l 6.7,-6.7 -4.3,1.8 1.5,-1.2 3.2,-1.6 c -4.4,-1.5 -7.2,4.2 -7.5,7.7 m 12,-7.4 v 0.4 l 1.8,0.9 v -0.6 l -1.8,-0.7 m -4.2,0.7 4.8,6.4 h 0.4 l -0.4,-1.6 0.7,0.4 v -0.4 h -1.3 l -1,-1.2 0.4,-1.2 -3.6,-2.4 m 1.2,1.2 2,2 -2,-2 m 5.5,0 1.2,6.3 -1.2,0.8 h -0.3 c -1.7,-1.7 -7,-2.1 -8.7,-0.4 h 0.8 l -1.6,3.1 v 0.6 c 1.7,2.7 3.4,1.9 6.3,2.7 5.2,1.3 11.8,1.3 17.3,1.6 v 0.6 c -4.4,0.6 -10.3,3.5 -14.1,6.1 v 0.4 l 6.7,-3.1 -0.9,3.1 h 0.4 l 0.5,-2.5 0.7,0.9 6.3,-4.3 -2,3 3.1,-3.9 c 2,0.9 4.6,1.1 6.3,2.2 2.3,1.4 1.8,3.8 5.2,3.3 -5.2,4.5 -16.2,4.7 -16.9,12.9 h 0.4 c 2.2,-6.8 9.6,-7.1 14.8,-10.6 2,-1.3 4.3,-5.1 5.5,-6.9 l -3.8,1.8 -2,2.5 -1.6,-3.3 3.2,-0.6 V 256 l -13,-2 -21.2,-1.9 0.6,-1.3 h 0.6 l 3.1,0.9 v -0.9 h -3.1 v -0.3 l 4.3,-1.3 v -0.3 l -5.9,1.9 c 1.5,-1.9 3.1,-2.6 5.5,-2.8 v -0.4 l -5.1,1.3 c 3.2,-4.5 7.4,-0.7 11.4,0 v -0.5 l -2.8,-8.3 m -11.7,0.6 -0.6,0.2 0.6,-0.2 m -11.6,8.2 v 0.3 c 4.1,-0.3 7.8,-3.7 11.6,-0.8 h -4.3 v 0.5 l 5,1.9 -5.5,-0.3 v 0.3 l 5.1,0.3 v 0.6 l -5.8,0.4 v 0.2 h 1.9 v 0.9 c -3.9,-0.6 -8.1,-0.6 -11.7,0.3 -4.1,1.1 -8.5,5.2 -11.4,-0.3 H 428 c 2,9 15.1,7.9 18.1,16.5 h 0.6 c -1.4,-6 -9.2,-9.2 -14.5,-10.9 l 5.5,-3.4 0.6,1.2 h 0.4 l -1,-1.5 1.6,-0.3 c 0.4,1.8 0.8,3.3 2.5,4.2 l -2.5,-4.8 c 2.7,-0.4 4.9,0.8 6.1,3.4 h 0.3 V 256 c 1.7,0.4 4.1,0.6 4.7,2.8 l 1.2,-0.6 c -1.9,-2.1 -6.6,-3.7 -9.4,-4.3 v -0.4 h 9.9 v -1.2 l 5.4,0.9 -1.2,-0.9 c 3.1,-9.6 -8,-4.5 -12.7,-3.4 m 15.3,-2.3 0.4,0.1 c -0.4,0.1 -0.6,-0.1 -0.4,-0.1 m -4.3,0.2 1.7,0.8 v 0.4 l -1.9,-0.8 0.2,-0.4 m 13.5,0 0.4,1.2 -1.1,-0.8 0.7,-0.4 m -14.9,1.6 v 0.5 h -1.6 l 1.6,-0.5 m 3.1,0 -1.1,1.2 1.1,-1.2 m 19.7,0.5 v 0.3 l 17.2,1.6 c -4.6,-3.6 -11.9,-1.9 -17.2,-1.9 m -47.5,3.2 c 5,-2.3 9.4,-2.5 14.8,-2.5 -4,-1.7 -11.9,-1.1 -14.8,2.5 m 41.4,-3.2 v 0.3 h 1.3 l -1.3,-0.3 m 23.7,1.6 v 0.3 c 2.8,0.4 3.9,1.9 3.1,4.6 2.5,-2.7 -0.1,-4.8 -3.1,-4.9 m -65.9,1.8 0.3,0.4 -0.3,-0.4 m 25.8,0.4 2.4,5.1 -3.8,-0.2 v 0.2 l 3.8,0.4 2.8,3.3 -0.4,0.6 v 0.4 l 0.6,-0.6 h 0.6 l -0.6,1.2 h -0.2 v 3.3 h 0.2 l 2.5,-4.3 h -1.5 v -0.2 l 7,-3.1 1.6,0.6 V 259 c -1.6,-0.8 -2.5,-1.7 -2.8,-3.6 h -0.3 c 0,5.6 -6.5,7.1 -9.1,2.4 3.2,1.4 7.1,0.2 8.7,-3 h -0.6 c -4.4,5.5 -7.3,1.9 -10.9,-2.1 m 11.9,1.9 0.1,0.3 -0.1,-0.3 m -34.6,1.8 2,0.2 -0.6,1.2 -1.8,-1.2 0.4,-0.2 m 26.7,2.6 0.4,0.4 -0.4,-0.4 m 0.8,0.7 0.4,0.6 -0.4,-0.6 m 8.6,0.6 0.5,0.3 -0.5,-0.3 m -6.7,2.2 -0.3,0.6 0.3,-0.6 m -2.7,2 v 0.7 h 0.8 v -0.7 h -0.8 m 0.9,3 0.2,0.2 -0.2,-0.2 m -1.3,1.1 v 0.6 h 0.8 v -0.6 h -0.8 m -10.4,3.3 v 1.6 h 0.2 l -0.2,-1.6 m -0.6,2.2 0.8,14.5 -2.4,12.2 -8,7 2.5,-0.4 c 0,-2 4,-3.3 5.5,-3.9 l -1.2,-0.9 c 2,-2.5 1.7,-4.1 2.5,-7.1 1.7,-6.8 3.1,-14.7 0.3,-21.4 m 29.4,0.2 -3.1,8.7 v 7 h 0.4 c 0,-2.2 -0.4,-4.8 0.4,-7 0.8,-2.8 3.3,-5.6 2.3,-8.7 m -28.2,16.9 0.4,0.4 -0.4,-0.4 m 25.1,0.4 1.8,3.9 -1.8,-3.9 m -1.2,3.2 0.4,0.5 -0.4,-0.5 m 1.2,0 1.6,7.2 h 0.2 l 0.6,-4.9 h -0.6 l -0.2,1.5 c -0.8,-1.1 -1.7,-2.1 -0.7,-3.3 l -0.9,-0.5 m 1.8,7.5 2.1,7.3 -1.1,6.7 h -0.4 l -0.8,-2.3 0.2,1.6 h -1.4 v 0.5 l 1.4,0.6 -3.7,0.9 v 0.3 h 2.3 v 0.5 l -7.4,2.6 c 1.7,-3.4 4.4,-8 7.9,-10.2 l 0.7,2.5 h 0.2 l -0.6,-4.3 -3.1,2.2 -1.7,1.7 c -0.2,3.7 -4.4,7.7 -6.2,10.9 h -0.4 c -1.5,-2.6 -3.3,-5.4 -6.3,-6.2 v 0.3 l 5.1,5.2 -1.5,-0.4 v 0.4 h 0.7 v 0.3 l -3.5,0.4 v 0.5 l 6.3,0.4 c 1.2,-2 2.4,-2.9 4.7,-3.1 l -2,4.9 h 0.5 l 1.5,-4.3 h 0.4 v 2.1 h 0.4 V 321 h 0.8 l -0.5,4.9 h 0.5 l 1.9,-4.3 5.2,-7.2 h 0.3 l -2.5,7.8 h 0.6 c 0.3,-4 6,-1.8 9,-1.8 v 0.3 c -4.4,1.1 -7.5,3.1 -12.2,1.1 3.2,3.6 9.5,0.5 13,-1.1 v -0.3 l -9.1,-1.2 c 2.9,-6.9 1.9,-10.2 -1.3,-16.9 m -32.4,2.3 0.4,0.5 -0.4,-0.5 m 32.2,1.7 0.2,0.2 -0.2,-0.2 m 0,1.5 -0.4,0.7 0.4,-0.7 m -37.7,0.3 -2.8,2 v 0.5 c 1.3,-0.5 2.9,-0.9 2.8,-2.5 m 40.4,0 -0.3,0.4 0.3,-0.4 m -39.2,0.4 0.2,0.5 -0.2,-0.5 m 36.7,0.5 0.6,0.4 -0.6,-0.4 m 3,1.1 v 4.3 h -0.5 l 0.5,-4.3 m -46.8,3.9 5.9,-3.2 c -2.1,-0.7 -4.7,1.4 -5.9,3.2 m 6.7,-3.4 v 0.2 l 5.9,1.6 -5.9,-1.8 m 33.8,0 0.3,0.2 -0.3,-0.2 m -33.4,1.2 v 0.2 l 8.6,4.7 v 0.6 l -1.6,1.5 2.4,-3.2 c -2.8,1.2 -6.6,-3.2 -9.4,-3.8 m -7.1,5.5 h 0.4 v -1.7 l 1.2,1.1 c 0.2,-2.8 2.6,-4.3 5.1,-4.3 -2.5,-1 -7.1,2.2 -6.7,4.9 m 11.8,-4 0.4,0.3 -0.4,-0.3 m -12.2,1.1 0.4,0.5 -0.4,-0.5 m 19.1,0.7 v 0.5 h 1.3 l -1.3,-0.5 m -1.4,0.5 0.4,0.5 -0.4,-0.5 m 3.9,0 0.5,0.5 -0.5,-0.5 m -21.2,2 v 1.9 h 0.4 l -0.4,-1.9 m 38.4,0.3 v 0.5 h 1.1 l -1.1,-0.5 m -24.6,1.3 -0.6,3 -3,-0.6 2.4,1.5 -0.8,0.3 v 0.4 l 1.4,-0.4 c 1.7,3.5 2.7,5.4 6.4,6.3 v -0.4 c -5.1,-2.1 -4.7,-5.7 -5.8,-10.1 m 26.3,1.2 -0.8,1.2 0.8,-1.2 m -39.5,0.3 c 1,3.6 3.3,5.8 6.7,6.4 v -0.6 c -3.3,-0.8 -4.4,-3.2 -6.7,-5.8 m 22.2,0.3 3.5,1.2 v -0.4 l -3.5,-0.8 m 4.1,1.3 0.4,0.3 -0.4,-0.3 m -14,0.6 c 0.2,0 0.1,0.2 0,0.2 v -0.2 m 20.5,1.8 -3.1,5.8 4.7,-3.4 v -0.6 l -1.6,0.6 v -2.4 m 3.6,0.7 0.3,0.5 -0.3,-0.5 m -25.6,0.5 0.4,0.4 -0.4,-0.4 m 19.2,0.4 -2.7,1.9 c 0,1.5 -4.2,1.8 -5.5,2 v 0.3 l 7.4,0.4 -0.7,-1.6 c 1.2,-0.6 1.9,-1.7 1.5,-3 m -22,0.2 0.3,0.6 -0.3,-0.6 m 13.8,2.1 0.4,0.3 -0.4,-0.3 m 6.1,0.3 -0.2,0.4 0.2,-0.4 m 0,0.8 v 0.5 l -3.4,0.3 3.4,-0.8 m -0.6,0.8 -0.4,0.4 z"
       id="path2117" /></g></svg>
