<?xml version="1.0" encoding="UTF-8" standalone="no"?>
<svg
   width="148mm"
   height="105mm"
   viewBox="0 0 148 105"
   xml:space="preserve"
   version="1.1"
   id="svg57"
   sodipodi:docname="Line_Padhahastasana - D0017-min.svg"
   inkscape:version="1.2.1 (9c6d41e410, 2022-07-14)"
   xmlns:inkscape="http://www.inkscape.org/namespaces/inkscape"
   xmlns:sodipodi="http://sodipodi.sourceforge.net/DTD/sodipodi-0.dtd"
   xmlns="http://www.w3.org/2000/svg"
   xmlns:svg="http://www.w3.org/2000/svg"><sodipodi:namedview
     id="namedview59"
     pagecolor="#505050"
     bordercolor="#eeeeee"
     borderopacity="1"
     inkscape:showpageshadow="0"
     inkscape:pageopacity="0"
     inkscape:pagecheckerboard="0"
     inkscape:deskcolor="#505050"
     inkscape:document-units="mm"
     showgrid="false"
     inkscape:zoom="0.5947"
     inkscape:cx="-1.682"
     inkscape:cy="199.3"
     inkscape:window-width="1620"
     inkscape:window-height="1058"
     inkscape:window-x="-6"
     inkscape:window-y="-6"
     inkscape:window-maximized="1"
     inkscape:current-layer="svg57" /><defs
     id="defs5"><clipPath
       clipPathUnits="userSpaceOnUse"
       id="a"><path
         d="M0 0h1240v1754H0z"
         id="path2" /></clipPath></defs><g
     clip-path="url(#a)"
     style="fill:#353535;fill-opacity:1"
     transform="matrix(.0865 0 0 -.0865 23.94 119.9)"
     id="g55"><g
       style="fill:#353535;fill-opacity:1"
       id="g9"><path
         d="M0 0c4.121-4.741 7.863-9.837 11.23-15.22 3.3-5.42 6.32-11.11 8.36-17.37.51-1.56.97-3.14 1.35-4.8.38-1.66.64-3.34.84-4.99.36-3.32.42-6.59.36-9.82-.15-6.47-.81-12.79-1.58-19.02-.74-6.23-1.69-12.39-2.21-18.34l-.4-4.65-.45-4.7c-.29-3.09-.66-6.19-1-9.29-1.35-12.4-2.91-24.6-3.32-36.6-.47-12.1.41-24.1 3.48-35.9 3.11-11.8 7.44-23.4 13.67-34 6.2-10.6 14.22-20.2 23.9-27.6 9.61-7.6 20.87-12.8 32.57-15.6 5.86-1.5 11.84-2.4 17.8-2.8 3-.2 6.1-.3 9.1-.3 3-.1 6 0 9 .2s6 .5 9 .8c3 .3 5.8.8 8.7 1.4 5.9 1.2 11.6 2.9 17.3 4.9 5.7 2 11.3 4.3 16.7 6.9 5.5 2.5 10.8 5.4 15.9 8.5 5.1 3.1 10 6.5 14.6 10.2 4.6 3.6 9 7.6 12.7 11.9 1.8 2.1 3.6 4.4 5 6.7.8 1.1 1.5 2.4 2.1 3.5.5 1 1 2.2 1.4 3.5.9 2.5 1.6 5.4 2.2 8.3.7 2.9 1.2 5.8 1.7 8.8 1 6 1.7 12.1 2.3 18.2.6 6.1 1.1 12.2 1.4 18.4.3 6.1.6 12.3.7 18.5v9.2c0 3.1 0 6.2-.1 9.3-.2 6.2-.5 12.34-1.2 18.46-.3 3.06-.7 6.12-1.2 9.15-.6 3.02-1.2 6.03-2.3 8.93l1.1.49c3-5.61 4.8-11.77 6.3-17.9 1.5-6.15 2.6-12.33 3.4-18.63.9-6.2 1.5-12.5 1.9-18.8.4-6.3.8-12.6.8-18.9.1-6.3.1-12.6-.1-18.9-.3-6.4-.8-12.7-1.5-19.1-.7-6.3-1.6-12.7-3.6-19.4-.5-1.6-1.1-3.3-2-5.2-.8-1.6-1.6-3.1-2.5-4.6-1.9-3-3.9-5.7-6.1-8.3-4.3-5.2-9.2-9.7-14.4-13.8-5.2-4-10.6-7.6-16.2-10.8-11.3-6.4-23.1-11.6-35.4-15.4-6.2-1.9-12.5-3.5-18.9-4.5-3.2-.6-6.5-1-9.8-1.1-3.2-.3-6.4-.3-9.6-.3-3.3 0-6.5.1-9.7.4-3.2.2-6.4.6-9.6 1.1-6.37 1.1-12.66 2.6-18.76 4.7-6.1 2-11.97 4.7-17.56 7.8-2.79 1.6-5.49 3.3-8.11 5.1-2.63 1.8-5.17 3.7-7.6 5.8-9.75 8.2-17.91 18.1-24.65 28.8-6.73 10.7-12.24 22.1-16.67 34-2.245 6-3.967 12.3-5.168 18.6-1.182 6.4-1.814 12.9-2.009 19.3-.365 12.9 1.096 25.5 2.725 37.8l1.19 9.28.576 4.59.543 4.65c.837 6.44 2.013 12.56 3.113 18.65 1.08 6.09 2.14 12.12 2.72 18.1.31 2.98.47 5.95.42 8.86 0 1.45-.1 2.88-.27 4.28-.18 1.4-.44 2.86-.75 4.3-1.32 5.75-3.41 11.51-5.923 17.1C5.021-11.58 2.13-6.098-.979-.693z"
         style="fill:#353535;fill-opacity:1;fill-rule:nonzero;stroke:none"
         transform="translate(392.8 647)"
         id="path7" /></g><g
       style="fill:#353535;fill-opacity:1"
       id="g13"><path
         d="M0 0c-8.236 1.506-15.72.508-22.76-1.832-3.5-1.179-6.86-2.719-10.06-4.526-3.18-1.857-6.22-3.892-9.22-6.082-2.98-2.21-5.97-4.58-8.57-7.45-2.61-2.85-4.79-6.2-6.1-9.91-1.34-3.71-1.87-7.7-1.66-11.62.2-3.94 1.23-7.79 2.71-11.38.75-1.82 1.58-3.52 2.52-5.08.95-1.55 2.01-2.99 3.15-4.31 2.28-2.64 4.88-4.88 7.87-6.61 6-3.44 13.19-4.77 20.49-5.3 7.34-.52 14.964 0 22.514 1.58 7.564 1.58 15.016 4.1 22.296 8.16l.83-.87c-2.31-3.64-5.41-6.79-8.84-9.51-3.44-2.71-7.265-4.96-11.294-6.78C-4.187-85.14-13.1-87.08-22.2-86.9c-9.07.21-18.47 2.95-26.23 8.67-3.85 2.84-7.26 6.44-9.57 10.64-2.35 4.15-3.53 8.84-4.03 13.16-1.06 8.76-.49 17.41 1.61 25.74 1.05 4.17 2.39 8.34 4.25 12.4 1.88 4.03 4.29 7.951 7.41 11.269 3.09 3.334 6.83 6.069 10.92 8.084A43.607 43.607 0 0 0-24.9 7.266c4.5.705 9.14.668 13.57-.327C-6.926 5.951-2.694 4.029.523 1.08z"
         style="fill:#353535;fill-opacity:1;fill-rule:nonzero;stroke:none"
         transform="translate(398.1 487.5)"
         id="path11" /></g><g
       style="fill:#353535;fill-opacity:1"
       id="g17"><path
         d="M0 0c-12.07-23.8-27.42-45.78-41.95-67.93-3.64-5.54-7.22-11.1-10.7-16.71-3.48-5.6-6.83-11.26-10.23-16.96L-83.12-136c-6.74-11.4-13.45-22.9-20.08-34.3-6.5-11.4-12.5-23.1-17.8-35-10.7-24-19.4-48.9-26.4-74.2-3.5-12.7-6.7-25.5-9.3-38.5-2.7-12.9-5-25.9-6.8-39-.8-6.5-1.6-13.1-2.3-19.6-.7-6.6-1.2-13.2-1.7-19.8-.4-6.6-.8-13.3-1-19.9-.3-6.6-.4-13.2-.4-19.8-.1-6.7.1-13.3.3-19.9.3-6.6.7-13.2 1.2-19.8.6-6.6 1.3-13.2 2.1-19.8.9-6.5 1.9-13 3.6-19.3 1.7-6.3 4.1-12.3 7.3-17.9 3.2-5.6 7.3-10.6 12.1-14.9 9.6-8.7 21.3-14.8 33.2-20.2 6-2.8 12.04-5.2 18.24-7.2 6.19-2 12.51-3.7 18.9-5.3 12.78-3 25.91-5.3 38.98-8.8 3.27-.9 6.53-1.8 9.77-2.8 3.23-1 6.53-2.1 9.63-3.2 6.333-2.2 12.572-4.6 18.808-7 12.462-4.7 24.802-9.7 37.122-14.6 12.33-4.9 24.65-9.7 37.07-14.1 12.39-4.3 24.98-8.2 37.68-12 12.7-3.9 25.5-7.7 38.2-12 12.7-4.3 25.4-9 37.8-14.7 3.1-1.4 6.1-2.9 9.2-4.5l4.5-2.4 4.3-2.4c5.8-3.1 11.7-6.1 17.6-9.1 5.9-3.1 11.9-6.2 17.8-9.5s11.8-6.7 17.5-10.7c2.8-2 5.7-4.1 8.4-6.6 2.7-2.4 5.4-5.1 7.6-8.7 1.1-1.7 2.1-3.8 2.7-6.1.2-.6.3-1.2.4-1.8.1-.4 0-.2.1-.5v-.6c0-.3.1-.6.1-.9 0-1.1-.1-2-.1-2.9-.2-3.6-.6-6.9-1-10.3-1.6-13.3-3.6-26.4-5.6-39.6l-6-39.4c-1-6.5-1.9-13.1-2.7-19.6-.7-6.4-1.1-13.1-1.7-19.7-1.2-13.3-2.5-26.6-5.1-39.9-1.4-6.6-3-13.1-5.4-19.5-1.2-3.2-2.6-6.3-4.4-9.3-1.8-2.9-4.1-5.8-7-7.8l.5 1.2c.1-1-.3-1.6-.6-2.1-.3-.4-.6-.8-1-1.1-.7-.7-1.4-1.2-2.1-1.7-1.5-1.1-2.9-1.9-4.4-2.8l-4.5-2.4-2.3-1.2-1.1-.6c-.3-.2-.7-.5-.9-.7l-.9.8c.4.5.8.7 1.1.9l1.1.8 2.2 1.3c1.4 1 2.8 1.9 4.2 2.8 1.4.9 2.8 1.9 4.1 2.9.6.5 1.2 1.1 1.7 1.6.3.3.5.6.6.8.2.3.2.5.2.3l.1 1 .4.3c2.4 1.9 4.2 4.6 5.7 7.4 1.5 2.8 2.6 5.8 3.6 8.9 1.9 6.2 3.1 12.6 4.1 19.1 1.8 13 2.5 26.2 3 39.4.3 6.7.5 13.3 1 20 .5 6.8 1.2 13.4 1.9 20 1.4 13.3 3.1 26.5 4.6 39.7l2.4 19.7c.8 6.6 1.5 13.2 2.2 19.7.3 3.3.6 6.6.7 9.6v2.5s-.1 0 0 0c0-.1-.1.3-.1.1 0 .2-.1.4-.1.6-.3.9-.8 1.9-1.4 2.9-1.4 2.1-3.4 4.2-5.7 6.1-2.3 1.9-4.8 3.8-7.4 5.5-5.2 3.5-10.9 6.7-16.6 9.8-5.8 3.1-11.7 6.1-17.6 9-5.9 3-11.9 6-17.9 9.1l-4.4 2.4c-1.5.8-2.9 1.5-4.3 2.3-2.9 1.5-5.8 2.9-8.7 4.2-5.9 2.7-11.9 5.2-18 7.6-6.1 2.3-12.3 4.6-18.5 6.7-12.5 4.2-25.1 8.3-37.7 12.3-12.7 4-25.49 8-38.09 12.7-12.58 4.7-24.95 9.7-37.25 14.9-12.3 5.1-24.51 10.3-36.75 15.3-6.116 2.5-12.28 4.9-18.4 7.3-3.14 1.2-6.08 2.3-9.18 3.4-3.07 1.1-6.18 2-9.31 3-12.53 3.7-25.48 6.6-38.43 10.2-6.46 1.8-12.92 3.9-19.26 6.2-6.34 2.4-12.53 5.2-18.53 8.2-6 3-12 6.2-17.7 9.9-5.7 3.6-11.2 7.6-16.2 12.4-4.9 4.8-9.2 10.3-12.5 16.3-3.3 6-5.7 12.5-7.4 19-1.6 6.6-2.7 13.3-3.5 19.9-.8 6.6-1.5 13.2-2 19.9-1.1 13.3-1.7 26.6-1.9 39.9-.4 13.4-.1 26.7.2 40 .5 13.4 1.2 26.7 2.4 40s2.8 26.6 5 39.8c2.2 13.3 4.8 26.4 8.1 39.4 6.5 26.1 15.2 51.6 26.5 76 5.6 12.3 11.9 24.2 18.8 35.8 6.9 11.4 13.85 22.7 20.88 34 6.99 11.4 14.19 22.5 21.34 33.75 3.58 5.57 7.15 11.26 10.95 16.77 3.79 5.52 7.66 10.95 11.57 16.35C-31.5-42.77-15.09-21.96-1.043.594z"
         style="fill:#353535;fill-opacity:1;fill-rule:nonzero;stroke:none"
         transform="translate(480.2 1230)"
         id="path15" /></g><g
       style="fill:#353535;fill-opacity:1"
       id="g21"><path
         d="M0 0c2.312-2.696 4.865-5.146 7.501-7.514 2.629-2.373 5.389-4.606 8.169-6.806 5.55-4.41 11.36-8.51 17.17-12.59 2.92-2.02 5.87-4.01 8.84-5.96 2.96-1.97 5.92-3.94 8.92-5.86 5.97-3.85 12.03-7.57 18.09-11.28 6.08-3.66 12.18-7.31 18.34-10.72 3-1.67 6.33-3.46 9.44-5.29 3.15-1.82 6.23-3.74 9.33-5.66 12.2-7.67 23.9-15.81 35.8-23.49 11.9-7.73 24-15.03 36.6-21.43 3.2-1.6 6.5-3.3 9.7-5 3.1-1.8 6.3-3.6 9.3-5.5 6.2-3.7 12.3-7.5 18.4-11.3l36.3-23 9.1-5.8 9.1-5.6c6.1-3.8 12.2-7.5 18.4-11.1l1.2-.7c.3-.2.9-.5 1.3-.8.9-.6 1.7-1.3 2.5-2.1 1.5-1.5 2.8-3.1 3.9-4.9 2.1-3.5 3.4-7.3 4.3-11.1 1.8-7.5 2.2-15 2.1-22.4-.2-14.7-2.4-29.1-4.4-43.2-2-14.4-4.5-28.5-6.9-42.6-1.1-7-2.3-14-3.4-21l-1.5-10.5-.4-2.7-.4-2.7c-.2-1.8-.5-3.6-.9-5.4-2.5-14.4-6.1-28.6-10.6-42.4-2.2-6.9-4.7-13.7-7.2-20.5-2.6-6.7-5.4-13.4-8.3-20.1-11.5-26.5-25.5-51.7-40.8-76l-1 .6c5.8 13.1 11.7 26.2 17.3 39.3 2.8 6.5 5.5 13.1 8.2 19.7 2.6 6.6 5.1 13.3 7.6 19.9 2.4 6.7 4.7 13.4 6.9 20.2 2.2 6.7 4.3 13.5 6.2 20.3 3.7 13.6 6.9 27.3 9.1 41.1l.8 5.2.4 2.6.3 2.6c.5 3.6 1 7.2 1.6 10.8 1.1 7.1 2.4 14.2 3.8 21.3 2.7 14.1 5.6 28 8 42 2.4 14.1 5 28.1 6 41.9.2 3.5.4 6.9.3 10.3 0 3.4-.3 6.8-.8 10.1-.5 3.2-1.4 6.4-2.8 9.1-.6 1.3-1.5 2.6-2.4 3.7-.5.5-1 1-1.6 1.5-.3.2-.4.3-.9.6l-1 .8c-11.9 8.1-23.5 16.5-35.3 24.6-11.8 8-23.8 15.9-36.1 23.1-12.3 7.3-24.9 13.9-38.1 19.1-6.7 2.7-13.4 5.6-19.9 8.7-6.5 3.2-12.9 6.6-19.2 10.2-12.6 7.17-24.5 15.27-36.4 23.02-2.94 1.93-5.93 3.81-8.92 5.67-3.01 1.87-5.94 3.55-9.15 5.44-6.23 3.76-12.31 7.64-18.28 11.69-5.99 4.03-11.85 8.23-17.64 12.53-2.9 2.15-5.78 4.31-8.62 6.54-2.83 2.24-5.64 4.51-8.41 6.82-5.57 4.59-10.95 9.44-16.1 14.53C7.8-12.31 2.818-6.932-.972-.703z"
         style="fill:#353535;fill-opacity:1;fill-rule:nonzero;stroke:none"
         transform="translate(546.5 757.4)"
         id="path19" /></g><g
       style="fill:#353535;fill-opacity:1"
       id="g25"><path
         d="M0 0c-13.28-2.069-25.71-6.119-38.97-9.224-1.66-.399-3.35-.729-4.92-1.086l-4.76-1.11c-3.19-.76-6.37-1.6-9.55-2.43l-9.54-2.63-9.51-2.73-4.76-1.35-2.37-.67-1.19-.34-.66-.18-.74-.19c-1.87-.45-3.61-.75-5.35-.98-1.73-.25-3.43-.43-5.12-.6-6.76-.63-13.36-1.03-19.86-1.97-6.5-.96-13-2.38-18.6-5.4-2.8-1.51-5.3-3.47-6.9-5.95-1.7-2.45-2.2-5.41-1.9-8.36l-1 1.58c1.8-.89 3.7-1.55 5.7-2.11 2-.51 4.1-.92 6.1-1.22 4.2-.62 8.4-.83 12.6-.91 4.3-.1 8.5 0 12.8.18 4.3.15 8.54.36 12.82.57 8.57.4 17.16.82 25.81 1.3 8.63.45 17.39.9 26.14.81 8.69-.1 17.28-.29 25.88-.58 8.591-.25 17.167-.51 25.726-.65 8.554-.12 17.104-.19 25.574.27 2.12.11 4.23.27 6.32.49 2.09.22 4.18.47 6.21.87 2.03.41 4.05.87 5.89 1.65 1.81.79 3.56 1.84 4.2 3.65l1.18-.2c0-1.24-.61-2.45-1.35-3.42-.74-.99-1.65-1.79-2.6-2.48-1.91-1.38-3.98-2.42-6.08-3.27-4.2-1.74-8.52-2.89-12.85-3.86-8.66-1.91-17.39-3.03-26.11-3.83-8.719-.79-17.436-1.23-26.13-1.45-8.7-.26-17.39-.2-26-.1-8.53.16-17.06.21-25.71.24-8.64.1-17.33 0-26.06.35-8.76.38-17.46 1.09-26.26 2.52-4.3.7-8.7 1.58-13 2.72-2.2.57-4.3 1.24-6.5 2.04-2.1.78-4.2 1.72-6.2 2.86l-1 .55-.1 1.03c-.1 1.86.1 3.76.5 5.61.5 1.84 1.3 3.59 2.4 5.14 2.1 3.11 5 5.37 8 7.18 3.1 1.81 6.2 3.22 9.5 4.46 3.2 1.23 6.4 2.35 9.7 3.32 6.6 1.98 13.2 3.59 19.65 5.19 3.19.8 6.43 1.57 9.17 2.5l2.2.82 2.41.85c1.6.576 3.22 1.074 4.84 1.595 3.24 1.008 6.51 1.929 9.8 2.76 3.28.85 6.59 1.64 9.92 2.34 3.32.731 6.67 1.34 10.05 1.903 3.35.55 6.9.964 10.08 1.318 6.54.799 13.25 1.71 20.03 2.206 6.78.445 13.688.634 20.44-.423z"
         style="fill:#353535;fill-opacity:1;fill-rule:nonzero;stroke:none"
         transform="translate(705 276.7)"
         id="path23" /></g><g
       style="fill:#353535;fill-opacity:1"
       id="g29"><path
         d="M0 0c1.271-5.277 1.604-10.74 1.587-16.11-.03-5.39-.488-10.75-1.191-16.04-.703-5.3-1.651-10.54-2.805-15.72-1.108-5.19-2.511-10.3-4.255-15.29-3.486-10.01-8.256-19.57-11.516-29.56-3.31-9.98-5.69-20.18-7.28-30.58-.82-5.2-1.52-10.4-2.24-15.5-.65-5.3-1.8-10.5-2.83-15.7-2.09-10.2-4.14-20.4-5.62-30.2-.38-2.5-.64-4.9-.87-7.3-.21-2.4-.28-4.7-.22-7.1.16-4.7.89-9.7 1.74-14.8.83-5.1 1.79-10.4 2.15-15.9.4-5.4.21-11-1.32-16.3l-1.2.1c-.58 5.3-1.89 10.2-3.5 15.1-1.66 4.8-3.56 9.6-5.32 14.7-1.75 5-3.37 10.3-4.16 16.1-.43 2.8-.56 5.8-.53 8.6 0 2.9.23 5.7.52 8.4 1.25 11 4.35 21.3 7.32 31.4l4.43 15c1.52 5.1 3.42 10.1 5.31 15.1 3.85 9.9 7.38 19.8 9.9 29.95 2.58 10.19 3.62 20.8 5.57 31.07.97 5.14 2.18 10.2 3.54 15.22l4.019 15.03C-6.09-20.29-3.373-10.41-1.199-.017z"
         style="fill:#353535;fill-opacity:1;fill-rule:nonzero;stroke:none"
         transform="translate(723.6 524)"
         id="path27" /></g><g
       style="fill:#353535;fill-opacity:1"
       id="g33"><path
         d="M0 0c1.51-7.789 2.243-15.71 2.744-23.62.453-7.92.513-15.86.308-23.79-.447-15.86-1.984-31.66-4.448-47.33A269.41 269.41 0 0 0-6.12-118.1c-1.946-7.6-4.2-15.3-6.73-22.8-1.25-3.8-2.56-7.5-3.93-11.2-1.34-3.8-2.72-7.5-4.18-11.2-2.86-7.3-5.82-14.7-9.02-21.9-3.22-7.2-6.71-14.4-10.83-21.2-4.08-6.9-8.62-13.5-13.51-19.8-4.89-6.3-10.14-12.4-15.6-18.2-2.74-2.8-5.56-5.7-8.39-8.4-2.84-2.8-5.75-5.5-8.65-8.2-2.89-2.7-5.83-5.3-8.74-7.9-1.47-1.3-2.89-2.6-4.5-4-1.6-1.4-3.2-2.7-4.8-3.9-6.5-5.1-13.5-9.3-20.4-13.3-13.7-7.9-27.4-14.7-38.4-24.4l1.3 1.7c-.3-.5-.5-1-.6-1.3 0-.4-.1-.5-.1-.6 0 0 0-.1.1-.4.2-.2.5-.6 1-.9 1-.8 2.5-1.5 4.1-2.1 1.7-.6 3.5-1.1 5.3-1.5 7.5-1.7 15.6-2.3 23.7-2.9 4-.2 8.1-.4 12.2-.5 4.1-.1 8.2-.2 12.3-.2l12.37-.1c4.13-.1 8.26-.1 12.44-.4v-1.2l-12.22-2-12.29-1.8c-4.1-.5-8.2-1-12.4-1.4-4.1-.3-8.3-.6-12.5-.8-4.2-.3-8.4-.3-12.6-.2-4.3.1-8.6.3-13 1-2.2.4-4.4.8-6.7 1.5-2.2.7-4.6 1.5-7.1 3.1-1.2.7-2.4 1.7-3.6 3.1-1.1 1.3-2.1 3.1-2.6 5-.5 2-.5 4-.2 5.6.4 1.7.9 3.2 1.5 4.5l.5.9.8.8c6.1 5.9 12.9 10.7 19.8 15 6.9 4.2 13.9 7.9 20.8 11.5 6.8 3.7 13.4 7.5 19.5 11.7 1.6 1.1 3.1 2.2 4.5 3.3 1.4 1.2 3 2.4 4.5 3.7l9.02 7.5c3.03 2.4 6.01 4.9 9 7.4 3 2.5 5.96 5 8.88 7.6 5.89 5 11.59 10.2 16.95 15.8 5.37 5.6 10.34 11.6 14.72 17.9 4.37 6.4 7.97 13.3 11.09 20.4 6.26 14.3 10.17 29.6 13.15 44.8 1.5 7.7 2.85 15.4 4.15 23l3.97 23.01c2.629 15.33 4.901 30.72 6.752 46.19C-3.461-31.33-2.011-15.82-1.237-.08z"
         style="fill:#353535;fill-opacity:1;fill-rule:nonzero;stroke:none"
         transform="translate(638.3 560.7)"
         id="path31" /></g><g
       style="fill:#353535;fill-opacity:1"
       id="g37"><path
         d="M0 0c.65-3.865.535-7.877.058-11.79-.491-3.93-1.386-7.79-2.533-11.56-2.307-7.55-5.593-14.74-9.515-21.56-3.94-6.82-8.55-13.25-13.94-19.17-2.7-2.95-5.68-5.7-9-8.18-1.68-1.23-3.43-2.39-5.34-3.42-1.91-1.02-3.95-1.93-6.26-2.54l2.96 3.35c-.1-.36-.2-.73-.36-1.07-.2-.4-.36-.62-.4-.67-.1-.11-.16-.22-.24-.32-.1-.1-.21-.23-.23-.25-.18-.18-.4-.38-.49-.44-.13-.11-.25-.19-.33-.25l-.26-.17c-.32-.21-.56-.34-.81-.47-.49-.26-.94-.47-1.38-.67-.88-.41-1.73-.78-2.59-1.14-1.7-.72-3.38-1.41-5.07-2.09-3.37-1.36-6.74-2.69-10.06-4.11-6.66-2.81-13.17-5.91-19.42-9.44L-104-107c-6.3-3.7-12.6-7.3-19.1-10.6-3.3-1.7-6.6-3.3-9.9-4.8-1.6-.8-3.3-1.5-5-2.3l-2.5-1.1-.6-.2-.8-.3c-.5-.2-1-.4-1.4-.6-3.9-1.2-7.6-2-11.2-2.8-3.5-.7-7-1.5-10.5-2.2-3.4-.8-6.7-1.6-9.9-2.6-3.1-1-6.1-2.2-8.5-3.6-1.2-.7-2.3-1.4-3.1-2.2-.8-.8-1.4-1.6-1.8-2.4-.4-.8-.7-1.7-.8-2.8-.1-1.1.1-2.4.3-3.7l-5.5 4.6c5.7-.5 11.4-1.2 17-1.8l16.9-1.9c5.6-.6 11.2-1.2 16.8-1.5 5.6-.4 11.2-.6 16.9-.3l.2-1.1c-5.4-2.2-11.2-3.2-16.9-4.1-5.8-.7-11.5-1.2-17.3-1.4-5.8-.3-11.5-.3-17.2-.3-5.7 0-11.4.2-17 .3h-4.4l-1.2 4.5c-.6 2.2-1 4.5-1 7s.5 5.2 1.6 7.7 2.7 4.7 4.4 6.4c1.8 1.7 3.7 3.1 5.6 4.2 1.9 1.1 3.8 2 5.8 2.7 1.9.7 3.8 1.4 5.7 1.9 3.7 1 7.4 1.7 11.1 2.3 3.7.6 7.3 1.1 10.8 1.6 3.5.5 7 1.1 10 1.9.4.1.8.2 1.1.3l.6.1.5.2 2.6.9 5.1 1.7 10.2 3.4c6.8 2.3 13.6 4.7 20.2 7.4 6.59 2.83 12.94 6.07 19.23 9.7 6.36 3.49 12.65 7.06 18.84 10.84 3.1 1.87 6.16 3.81 9.21 5.75l4.52 2.91c.74.49 1.48.98 2.17 1.46.34.24.67.48.95.7.13.11.27.22.32.28h-.1s-.15-.12-.24-.22l-.17-.18c-.1-.1-.14-.17-.2-.26 0 0-.16-.22-.35-.6-.15-.31-.26-.65-.33-.99l.42 2.16 2.54 1.19c2.62 1.22 5.36 3.3 7.93 5.58 2.61 2.28 5.09 4.83 7.56 7.45 4.91 5.25 9.43 11.04 13.65 17.04 4.2 6.02 8.07 12.3 11.418 18.87C-5.535-14.24-2.596-7.438-1.25.02z"
         style="fill:#353535;fill-opacity:1;fill-rule:nonzero;stroke:none"
         transform="translate(598.9 406)"
         id="path35" /></g><g
       style="fill:#353535;fill-opacity:1"
       id="g41"><path
         d="M0 0c7.602 9.154 15.89 17.72 24.45 25.99 4.3 4.13 8.66 8.18 13.1 12.16 4.47 3.94 9 7.82 13.62 11.6C60.39 57.35 70 64.5 80.16 71.02c5.1 3.25 10.35 6.34 15.96 8.96 2.81 1.32 5.68 2.53 8.78 3.53l8.5 2.72c5.7 1.78 11.4 3.5 17.2 5.12 5.7 1.59 11.5 3.09 17.3 4.49 11.7 2.77 23.5 5.16 35.4 6.86 11.9 1.6 24 2.5 36.2 2.4 12.1-.1 24.3-1.4 36.2-4.2H256c7.7-2.45 15.1-5.44 22.4-8.81 7.2-3.39 14.2-7.21 20.9-11.49 6.8-4.28 13.2-8.99 19.2-14.35 5.9-5.36 11.5-11.28 15.8-18.17 8.4-13.55 14.2-28.5 17.9-43.903 3.6-15.427 5.1-31.297 4.9-47.127-.1-7.91-.6-15.83-1.5-23.7-.9-7.87-2.3-15.77-4.1-23.45-3.3-15.2-6.2-30.6-8.8-46-5.2-30.7-9.7-61.7-14.5-92.7-2.4-15.4-5-30.9-7.7-46.4s-5.7-31-9.1-46.3c-6.9-30.5-13.1-61.1-19.6-91.8-3.2-15.3-6.4-30.6-9.9-45.9l-2.6-11.5c-.8-3.8-1.6-7.5-2.3-11.3-1.5-7.6-2.8-15.3-3.9-23l-3.5-23.2c-1.1-7.8-2.2-15.5-3.5-23.3-2.5-15.5-5.3-31-9.7-46.1l-1.1.3c2.8 15.3 4.4 30.9 5.9 46.4l2 23.4c.6 7.8 1.3 15.6 2.1 23.5.8 7.8 1.7 15.6 2.8 23.5.6 3.9 1.3 7.8 2 11.7l2.1 11.5 8.4 46.2c5.5 30.9 11.3 61.7 18.2 92.4 3.4 15.2 6.5 30.4 9.5 45.7 2.9 15.4 5.7 30.7 8.4 46.1 5.5 30.8 10.6 61.8 17.2 92.5 3.4 15.4 7 30.7 11.2 45.89 2.1 7.48 3.8 14.96 5 22.61 1.3 7.64 2 15.35 2.4 23.08.7 15.47-.4 31.07-3.9 46.162-3.4 15.088-9.3 29.668-17.8 42.488-4.2 6.27-9.6 11.8-15.5 16.63-6 4.83-12.4 9.08-19.1 12.83-13.5 7.45-27.9 13.21-42.6 17.04l.3-.1c-11.3 2.06-22.9 2.69-34.4 2.53-11.6-.17-23.2-1.24-34.7-2.8-11.6-1.6-23.1-3.68-34.5-6.28-5.7-1.28-11.4-2.68-17.1-4.17-5.7-1.44-11.4-2.97-17-4.56l-8.5-2.45c-2.6-.74-5.2-1.74-7.81-2.86-5.17-2.27-10.3-4.95-15.32-7.85-10.06-5.83-19.73-12.51-29.27-19.38a481.89 481.89 0 0 1-14.09-10.66c-4.66-3.61-9.26-7.29-13.81-11.06C18.32 15.15 9.395 7.403.88-.815z"
         style="fill:#353535;fill-opacity:1;fill-rule:nonzero;stroke:none"
         transform="translate(481.2 1234)"
         id="path39" /></g><g
       style="fill:#353535;fill-opacity:1"
       id="g45"><path
         d="M0 0c1.076 1.515 1.823 3.181 2.473 4.9.655 1.717 1.141 3.504 1.597 5.3.921 3.58 1.513 7.28 2.072 10.97 1.073 7.4 1.785 14.88 2.406 22.38.609 7.51 1.091 15.04 1.552 22.57.39 7.54.9 15.07 1.39 22.53.47 7.48.98 14.95.98 22.55 0 7.5-.43 15.1-1.57 22.6-1.117 7.5-2.804 14.9-4.799 22.2-.488 1.9-1.037 3.7-1.563 5.5L2.875 167c-1.06 3.7-2.172 7.4-3.153 11.2-2.008 7.4-3.798 15-5.043 22.7-1.312 7.6-2.031 15.4-2.434 23.2-.393 7.8-.426 15.7.09 23.5l.216 3c.07.9.181 2 .303 3 .237 2 .524 4 .848 5.9.664 4 1.489 7.8 2.415 11.6 3.782 15.2 8.905 29.5 13.316 43.9 1.087 3.6 2.187 7.2 3.167 10.8.49 1.8.95 3.6 1.39 5.5.46 1.8.89 3.6 1.27 5.4 1.53 7.3 2.58 14.8 2.48 22.4l1.19.2c2.2-7.5 2.7-15.5 2.42-23.3-.13-3.9-.45-7.8-.95-11.7-.48-3.9-1.05-7.7-1.75-11.5-2.77-15.3-6.85-30.1-10.055-44.6-.812-3.6-1.563-7.3-2.205-10.9-.331-1.8-.625-3.5-.871-5.3l-.354-2.7-.157-1.4-.149-1.3c-.764-7.4-1.213-14.8-1.274-22.2-.073-7.5.273-15 .665-22.4.459-7.5 1.012-15.1 1.92-22.6.89-7.5 2.255-14.9 3.86-22.4l4.68-22.5c1.53-7.6 3.12-15.1 4.36-22.8 1.24-7.6 2.18-15.41 2.43-23.19.28-7.78-.07-15.49-.76-23.17-.65-7.68-1.6-15.34-2.92-22.97-1.33-7.62-3-15.23-5.42-22.68-1.21-3.73-2.651-7.4-4.396-10.965a42.127 42.127 0 0 0-3.035-5.157C3.82 1.936 2.478.357.859-.838z"
         style="fill:#353535;fill-opacity:1;fill-rule:nonzero;stroke:none"
         transform="translate(589.7 725.8)"
         id="path43" /></g><g
       style="fill:#353535;fill-opacity:1"
       id="g49"><path
         d="M0 0c1.189-7.995 1.993-15.97 2.761-23.94.738-7.98 1.343-15.95 1.855-23.91.514-7.98.947-15.95 1.272-23.92.376-7.98.549-15.95.438-23.95-.218-15.98-1.504-31.98-1.198-47.98.137-8 .504-16 1.126-24 .625-7.9 1.62-15.9 2.639-23.8 1.037-7.9 2.147-15.9 2.967-23.9.89-8 1.44-16 1.92-24 .23-4.1.44-8.1.59-12.1l.19-6.1c.1-2 .11-3.8.21-5.8.39-7.7 1.1-15.5 1.98-23.3 1.67-15.6 4.08-31.4 5.42-47.5.35-4.1.57-8.1.73-12.2l.22-5.9c.1-2 .17-4 .29-6 .48-7.9 1.15-16 .59-24.1l-1.2-.1c-1.53 7.9-3.67 15.5-5.47 23.4-.45 1.9-.88 3.9-1.28 5.9-.4 2-.7 4.1-1.05 6-.69 3.9-1.47 7.8-2.22 11.6-3.079 15.6-6.588 31.2-8.758 47.4-1.049 8-1.756 16.2-1.821 24.4-.02 2.1-.02 4.2.04 6.2l.115 5.9c.06 4 .09 8 .08 11.9 0 8-.203 15.9-.194 23.9-.06 8 .04 16 .09 24 .07 16-.01 32.1-1.074 48-1.03 16-3.598 31.9-4.938 47.83-.672 7.98-1.015 15.98-1.106 23.99-.141 8-.118 16.01.06 24.02.173 8.02.501 16.03 1.056 24.04.583 8.01 1.285 16.027 2.471 24.018z"
         style="fill:#353535;fill-opacity:1;fill-rule:nonzero;stroke:none"
         transform="translate(611.7 1075)"
         id="path47" /></g><g
       style="fill:#353535;fill-opacity:1"
       id="g53"><path
         d="M0 0c-.328 1.232-.917 2.267-1.742 3.028-.82.761-1.84 1.252-2.941 1.498-2.207.514-4.635.157-6.857-.593-4.49-1.558-8.3-4.824-10.42-8.806l.31.71c-1.04-4.136-1.69-8.327-2.03-12.497-.33-4.17-.32-8.34.25-12.42 1.09-8.18 4.39-15.84 9.44-22.43l-.76.59c3.39-.82 6.367-1.54 8.999-1.31 1.313.1 2.574.43 3.753 1.12 1.175.68 2.272 1.68 3.247 2.89 1.928 2.46 3.282 5.68 4.119 9.07a39.3 39.3 0 0 1 1.041 10.71l1.177.23c1.299-3.6 1.88-7.52 1.722-11.47-.17-3.94-1.008-8.01-3.172-11.78-1.073-1.88-2.532-3.67-4.432-5.08-1.88-1.41-4.194-2.43-6.566-2.78-2.374-.36-4.731-.1-6.828.58-2.09.67-3.98 1.68-5.56 3l-.27.11-.5.48c-3.4 3.27-6.21 7.21-8.25 11.5-2.07 4.3-3.36 8.94-4.03 13.61-.66 4.69-.7 9.42-.17 14.05.54 4.64 1.67 9.145 3.12 13.497l.16.481.15.229c1.7 2.525 3.86 4.695 6.34 6.341 2.48 1.631 5.23 2.819 8.14 3.353 2.877.538 5.97.506 8.81-.698 1.397-.613 2.716-1.564 3.6-2.842.906-1.256 1.311-2.795 1.335-4.18z"
         style="fill:#353535;fill-opacity:1;fill-rule:nonzero;stroke:none"
         transform="translate(534 587.3)"
         id="path51" /></g></g></svg>
