<?xml version="1.0" encoding="UTF-8" standalone="no"?>
<!-- Created with Inkscape (http://www.inkscape.org/) -->

<svg
   width="148mm"
   height="105mm"
   viewBox="0 0 148 105"
   version="1.1"
   id="svg5"
   xml:space="preserve"
   inkscape:version="1.2.1 (9c6d41e410, 2022-07-14)"
   sodipodi:docname="Veerabadhrasana - D0021-min.svg"
   xmlns:inkscape="http://www.inkscape.org/namespaces/inkscape"
   xmlns:sodipodi="http://sodipodi.sourceforge.net/DTD/sodipodi-0.dtd"
   xmlns="http://www.w3.org/2000/svg"
   xmlns:svg="http://www.w3.org/2000/svg"><sodipodi:namedview
     id="namedview7"
     pagecolor="#505050"
     bordercolor="#eeeeee"
     borderopacity="1"
     inkscape:showpageshadow="0"
     inkscape:pageopacity="0"
     inkscape:pagecheckerboard="0"
     inkscape:deskcolor="#505050"
     inkscape:document-units="mm"
     showgrid="false"
     inkscape:zoom="0.2102"
     inkscape:cx="-549.5"
     inkscape:cy="-126.1"
     inkscape:window-width="1620"
     inkscape:window-height="1058"
     inkscape:window-x="-6"
     inkscape:window-y="-6"
     inkscape:window-maximized="1"
     inkscape:current-layer="svg5" /><defs
     id="defs2"><clipPath
       clipPathUnits="userSpaceOnUse"
       id="clipPath148"><path
         d="M 0,0 H 1240 V 1754 H 0 Z"
         id="path146" /></clipPath></defs><g
     inkscape:label="Layer 1"
     inkscape:groupmode="layer"
     id="layer1"
     transform="translate(-211.8,-183.7)" /><g
     id="g142"
     transform="matrix(0.1185,0,0,-0.1185,0.8764,156.5)"
     style="fill:#ffffff"><g
       id="g144"
       clip-path="url(#clipPath148)"
       style="fill:#ffffff"><g
         id="g150"
         transform="translate(1127,1102)"
         style="fill:#ffffff"><path
           d="m 0,0 c 8.108,1.568 16.3,2.611 24.41,3.945 8.1,1.333 16.17,2.903 23.81,5.59 0.96,0.342 1.89,0.675 2.8,1.065 0.86,0.38 1.74,0.83 2.58,1.32 1.71,0.98 3.34,2.11 4.92,3.34 3.13,2.45 6.02,5.26 8.6,8.3 2.56,3.04 4.83,6.33 6.45,9.82 1.61,3.46 2.56,7.25 1.82,10.45 v 0 l 1.64,-1.87 C 65.15,46.02 52.48,47.74 39.9,47.41 27.33,47.03 14.76,44.67 3.152,39.95 0.253,38.77 -2.584,37.44 -5.33,35.96 c -2.814,-1.53 -5.68,-3.08 -8.55,-4.58 -5.75,-2.99 -11.61,-5.85 -17.65,-8.35 -6.04,-2.51 -12.27,-4.66 -18.65,-6.26 -6.39,-1.6 -12.92,-2.65 -19.5,-3.09 -12.92,-0.66 -25.67,-1.53 -38.52,-2.59 -6.4,-0.53 -12.8,-1.07 -19.2,-1.652 -3.2,-0.306 -6.5,-0.594 -9.8,-0.636 -3.3,-0.06 -6.6,0.02 -9.8,0.2 -13.1,0.754 -25.9,2.978 -38.6,5.238 -6.3,1.14 -12.6,2.35 -18.9,3.4 -3.2,0.55 -6.3,0.95 -9.6,1.5 -3.2,0.56 -6.5,1.3 -9.6,2.26 -6.4,1.88 -12.4,4.72 -18.1,7.77 l -8.5,4.6 -4.2,2.26 c -1.4,0.74 -2.8,1.42 -4.3,2.06 -5.7,2.54 -11.8,4.27 -18.1,5.08 -6.2,0.82 -12.6,0.74 -18.8,0 -12.7,-1.52 -24.9,-5.55 -36.9,-10.12 -12,-4.56 -23.8,-9.69 -36.1,-13.8 -3.1,-1.02 -6.2,-1.96 -9.3,-2.8 -3.2,-0.81 -6.2,-1.67 -9.3,-2.64 -6.1,-1.9 -12.1,-4.153 -18.2,-6.339 -6,-2.187 -12.2,-4.313 -18.5,-5.979 -6.2,-1.667 -12.7,-2.867 -19.2,-3.384 -3.3,-0.258 -6.6,-0.35 -9.8,-0.278 -3.3,0.09 -6.5,0.25 -9.8,0.449 -6.4,0.408 -12.9,1 -19.3,1.866 -12.9,1.708 -25.6,4.653 -38.1,7.461 l -9.4,2.087 -2.4,0.507 c -0.8,0.17 -1.5,0.31 -2.3,0.45 -1.5,0.27 -3,0.49 -4.6,0.67 -6.2,0.72 -12.6,0.9 -18.9,0.86 -6.4,-0.1 -12.8,-0.33 -19.2,-0.75 l -4.8,-0.34 c -0.7,-0.1 -1.6,-0.13 -2.3,-0.21 -0.7,-0.1 -1.5,-0.18 -2.2,-0.28 -3.1,-0.44 -6.2,-1.057 -9.3,-1.766 -6.1,-1.423 -12.3,-3.178 -18.5,-4.833 -3.2,-0.83 -6.3,-1.638 -9.6,-2.353 -1.6,-0.354 -3.2,-0.683 -4.9,-0.967 l -2.4,-0.393 -2.4,-0.36 c -13,-1.857 -26.1,-2.488 -39,-2.76 -6.5,-0.121 -12.9,-0.201 -19.4,-0.15 -6.5,0.05 -13,0.231 -19.5,0.511 -12.9,0.564 -25.9,1.516 -38.8,2.906 -6.4,0.7 -12.9,1.511 -19.3,2.493 -3.3,0.499 -6.4,1.012 -9.7,1.641 -3.3,0.65 -6.5,1.431 -9.7,2.276 -6.4,1.69 -12.5,3.615 -18.6,5.235 -3.1,0.81 -6.1,1.54 -9.1,2.14 -3,0.58 -6.2,1.05 -9.3,1.48 -12.5,1.72 -25.2,2.46 -37.9,2.77 -6.4,0.16 -12.8,0.22 -19.3,0.25 h -9.6 c -3,-0.1 -6.2,-0.18 -9.3,-0.4 -12.5,-0.86 -25.2,-2.98 -38.2,-4.28 -6.6,-0.63 -13.2,-1.08 -20,-0.7 -3.4,0.2 -6.9,0.62 -10.4,1.44 -3.4,0.83 -6.9,2.08 -10.2,3.96 -5.5,3.21 -11,6.45 -16.6,9.06 -2.7,1.28 -5.7,2.4 -7.7,2.72 -1,0.17 -2,0.13 -3,-0.12 -1,-0.25 -2,-0.77 -3,-1.51 -3,-1.49 -5,-3.62 -8,-5.63 -2,-2.03 -5,-4.04 -8,-5.92 l -2,-1.39 V 15.6 l -1,-0.17 c 0,-0.11 0,0 0,-0.28 l -1,-0.6 -4,-2.39 -9,-4.759 -1,-0.595 V 6.508 l -1,-0.151 c 0,-0.335 0,-0.165 0,-0.273 -1,-0.386 -2,-0.709 -2,-1.027 -2,-0.626 -4,-1.192 -5,-1.75 -3,-1.111 -6,-2.182 -9,-3.31 -6,-2.253 -12,-4.693 -17,-7.743 -3,-1.524 -5,-3.214 -8,-5.114 -2,-1.89 -4,-4.02 -5,-6.38 -2,-2.36 -2,-4.93 -2,-7.59 0,-2.67 1,-5.41 2,-8.02 l -1,1.38 c 0,-0.35 2,-0.6 3,-0.74 1,-0.14 2,-0.19 4,-0.19 2,0 5,0.17 8,0.41 5,0.49 11,1.24 17,2.07 11,1.66 22,3.7 33,5.58 11,1.91 22,3.8 33.6,5.39 11.2,1.58 22.5,2.94 33.9,3.05 v -0.9 c -5.6,-0.32 -11.2,-0.99 -16.8,-1.8 -5.6,-0.8 -11.1,-1.73 -16.7,-2.74 -11,-2.04 -22,-4.36 -33,-6.71 -11,-2.35 -22,-4.66 -34,-6.73 -5,-1.01 -11,-1.97 -17,-2.64 -2,-0.32 -5,-0.59 -8,-0.66 -2,0 -3,0 -5,0.11 -1,0.14 -3,0.34 -5,1.06 l -1,0.38 v 1 c -2,3.11 -3,6.64 -3,10.43 -1,3.77 0,7.68 2,10.95 2,3.29 4,6.01 7,8.33 3,2.328 5,4.269 8,6.011 6,3.47 12,6.147 18,8.598 3,1.222 6,2.375 9,3.531 2,0.58 3,1.16 5,1.76 0,0.3 1,0.61 2,0.91 l 1,1.07 9,4.93 4,2.47 1,0.61 c 0,-0.19 0,0 0,0 v 0.17 l 1,0.33 2,1.34 c 2,1.8 5,3.71 7,5.72 3,1.99 5,4.13 8,6.21 2,1.02 3,2.04 5,2.64 3,0.62 5,0.7 7,0.44 4,-0.55 7.2,-1.93 10.3,-3.29 6.2,-2.81 11.8,-6.01 17.5,-9.17 4.7,-2.64 10.5,-3.76 16.6,-4.05 6,-0.29 12.2,0.16 18.5,0.82 12.6,1.35 25.4,3.61 38.5,4.63 3.3,0.25 6.6,0.42 10,0.46 h 9.7 c 6.4,0 12.9,-0.11 19.4,-0.27 13,-0.35 26,-1.08 39.1,-2.95 3.3,-0.5 6.4,-0.99 9.7,-1.67 3.3,-0.68 6.6,-1.5 9.7,-2.37 6.4,-1.75 12.5,-3.74 18.6,-5.42 3,-0.84 6,-1.61 9,-2.22 3.1,-0.62 6.2,-1.17 9.4,-1.68 6.2,-1.02 12.6,-1.881 18.9,-2.632 12.7,-1.493 25.5,-2.561 38.2,-3.244 6.4,-0.34 12.8,-0.577 19.2,-0.694 6.3,-0.105 12.8,-0.112 19.2,-0.08 12.8,0.08 25.5,0.586 38.1,2.126 l 2.3,0.299 2.4,0.331 c 1.5,0.231 3,0.509 4.6,0.814 3,0.619 6.1,1.34 9.2,2.1 6.2,1.53 12.5,3.17 18.9,4.48 3.3,0.66 6.5,1.23 9.8,1.63 0.9,0.1 1.7,0.18 2.6,0.25 0.9,0.1 1.6,0.12 2.5,0.17 l 4.8,0.22 c 6.5,0.27 13,0.4 19.5,0.29 6.5,-0.12 13,-0.45 19.6,-1.37 1.6,-0.23 3.3,-0.49 4.9,-0.82 0.8,-0.17 1.7,-0.35 2.4,-0.54 l 2.4,-0.57 9.4,-2.3 c 12.5,-3.097 24.9,-6.281 37.5,-8.243 6.3,-1.002 12.7,-1.725 19.1,-2.208 3.2,-0.244 6.4,-0.449 9.6,-0.589 3.1,-0.117 6.3,-0.08 9.4,0.124 6.4,0.39 12.6,1.474 18.8,3.064 6.2,1.575 12.2,3.618 18.3,5.742 6.1,2.13 12.1,4.32 18.3,6.25 3.1,0.97 6.3,1.86 9.4,2.64 3.1,0.82 6.1,1.74 9.2,2.74 12.1,4 23.9,9.16 36,13.79 12,4.59 24.4,8.86 37.4,10.55 6.5,0.84 13.1,0.99 19.6,0.2 6.6,-0.78 13,-2.53 19.1,-5.14 1.5,-0.65 3,-1.37 4.4,-2.11 l 4.3,-2.22 8.6,-4.48 c 5.7,-2.94 11.4,-5.56 17.5,-7.27 3,-0.87 6,-1.53 9.1,-2.03 3.1,-0.47 6.4,-0.86 9.6,-1.37 6.4,-0.99 12.7,-2.09 19.1,-3.17 12.6,-2.16 25.3,-4.23 38,-4.86 3.2,-0.15 6.3,-0.2 9.5,-0.11 3.2,0.1 6.2,0.36 9.4,0.7 6.5,0.64 12.9,1.25 19.3,1.8 12.83,1.09 25.78,2 38.58,2.66 12.57,0.84 24.86,4.13 36.53,9.04 5.85,2.44 11.58,5.24 17.24,8.2 2.84,1.49 5.64,3.01 8.476,4.56 2.915,1.58 5.917,2.99 8.978,4.24 12.256,5 25.406,7.53 38.566,7.84 13.15,0.3 26.39,-1.54 38.89,-5.87 l 1.39,-0.48 0.25,-1.38 v 0 C 80.75,42.35 80.54,39.92 80,37.68 79.47,35.44 78.61,33.36 77.6,31.41 75.58,27.5 72.97,24.07 70.1,20.93 67.21,17.8 64.04,14.96 60.59,12.48 58.86,11.25 57.05,10.1 55.14,9.103 54.18,8.603 53.21,8.149 52.17,7.744 51.16,7.361 50.14,7.039 49.15,6.732 41.11,4.277 32.87,3.042 24.68,2.039 16.48,1.037 8.281,0.338 0.149,-0.888 Z"
           style="fill:#ffffff;fill-opacity:1;fill-rule:nonzero;stroke:none"
           id="path152" /></g><g
         id="g154"
         transform="translate(863.1,1069)"
         style="fill:#ffffff"><path
           d="m 0,0 c 11.29,0.927 22.66,0.66 33.95,-0.016 2.82,-0.183 5.64,-0.374 8.45,-0.596 l 8.44,-0.75 c 5.62,-0.505 11.21,-1.132 16.8,-1.796 l 8.37,-1.037 c 2.8,-0.348 5.66,-0.771 8.45,-1.249 2.81,-0.477 5.59,-1.007 8.36,-1.562 l 8.28,-1.6 c 5.6,-1.02 11.1,-1.954 16.7,-2.544 5.5,-0.62 11.1,-0.81 16.6,-0.6 5.6,0.22 11.1,1.05 16.5,2.1 5.5,1.073 10.9,2.491 16.2,4.122 10.6,3.268 21,7.487 31.6,11.519 10.6,3.973 21.2,7.639 31.7,11.559 5.3,1.96 10.5,3.99 15.7,6.16 5.1,2.18 10.2,4.48 15.1,7.31 l 0.5,-0.74 c -2.3,-1.77 -4.6,-3.33 -7.1,-4.81 -2.4,-1.48 -4.9,-2.89 -7.4,-4.2 -5,-2.64 -10.2,-5.04 -15.3,-7.32 C 221.5,9.349 210.9,5.369 200.5,1.268 190,-2.795 179.3,-6.759 168.3,-9.838 157.4,-12.9 146,-15.08 134.5,-15.05 c -11.5,0 -22.7,1.91 -33.8,3.65 -2.83,0.43 -5.61,0.84 -8.4,1.22 -2.78,0.356 -5.57,0.687 -8.35,0.963 -2.79,0.279 -5.53,0.489 -8.34,0.638 -2.83,0.17 -5.65,0.362 -8.46,0.592 -5.63,0.47 -11.24,1.055 -16.83,1.731 L 33.57,-4.274 C 22.4,-2.943 11.25,-1.819 -0.004,-0.9 Z"
           style="fill:#ffffff;fill-opacity:1;fill-rule:nonzero;stroke:none"
           id="path156" /></g><g
         id="g158"
         transform="translate(915.6,1163)"
         style="fill:#ffffff"><path
           d="m 0,0 c 7.937,6.082 17.86,9.817 28.02,10.2 10.18,0.45 20.27,-2.159 29.5,-6.352 1.15,-0.531 2.29,-1.085 3.42,-1.682 1.16,-0.615 2.29,-1.287 3.37,-2.01 2.17,-1.456 4.19,-3.14 6.04,-4.999 3.67,-3.737 6.77,-8.117 8.8,-12.967 2.01,-4.85 3.03,-10.05 3.16,-15.22 0.12,-5.17 -0.59,-10.36 -2.45,-15.1 l -0.88,0.19 c 0.51,9.9 -1.02,19.48 -4.65,28.13 -1.78,4.31 -4,8.51 -7.13,12.028 -1.54,1.768 -3.26,3.38 -5.13,4.811 -0.93,0.721 -1.9,1.393 -2.89,2.014 -1.03,0.634 -2.09,1.235 -3.16,1.811 C 47.51,5.509 37.81,8.113 28.09,7.931 23.24,7.821 18.38,7.09 13.73,5.623 9.068,4.153 4.637,1.972 0.514,-0.738 Z"
           style="fill:#ffffff;fill-opacity:1;fill-rule:nonzero;stroke:none"
           id="path160" /></g><g
         id="g162"
         transform="translate(903.6,1142)"
         style="fill:#ffffff"><path
           d="m 0,0 c -1.856,-0.302 -3.726,-0.519 -5.64,-0.577 -1.912,-0.065 -3.877,0.031 -5.86,0.491 -1.98,0.447 -4.02,1.342 -5.67,2.875 -1.67,1.508 -2.73,3.606 -3.2,5.653 -0.25,1.03 -0.36,2.058 -0.4,3.078 0,1.03 0,1.93 0.17,3.12 0.38,2.19 1.5,4.12 2.83,5.67 2.7,3.11 6.22,5.06 9.866,6.43 1.831,0.71 3.725,1.24 5.716,1.61 2.235,0.39 4.381,0 6.441,-0.4 2.062,-0.48 4.137,-1.1 6.157,-2.12 2,-1.03 4,-2.45 5.46,-4.63 0.73,-1.08 1.32,-2.35 1.65,-3.72 0.33,-1.37 0.39,-2.84 0.19,-4.24 C 17.32,10.4 15.9,8.033 14.3,6.342 12.67,4.627 10.82,3.448 8.903,2.61 6.979,1.784 4.991,1.271 2.896,1.163 L 2.45,1.945 c 1.129,1.731 2.273,3.234 3.266,4.707 0.992,1.463 1.856,2.866 2.42,4.158 0.571,1.3 0.782,2.43 0.754,3.3 -0.07,0.88 -0.225,1.65 -0.614,2.72 -0.735,2.1 -2.701,5.14 -5.597,6.69 -1.43,0.79 -3.018,1.21 -4.492,1.2 -1.702,0 -3.446,-0.33 -5.131,-0.82 -3.326,-1.02 -6.606,-2.75 -8.726,-5.34 -1.04,-1.29 -1.67,-2.81 -1.74,-4.32 0,-0.66 0.1,-1.63 0.16,-2.44 0.11,-0.83 0.28,-1.65 0.51,-2.413 0.45,-1.54 1.13,-2.876 2.15,-3.958 1.01,-1.075 2.4,-1.879 3.98,-2.457 C -7.425,1.804 -3.694,1.516 0.002,0.9 Z"
           style="fill:#ffffff;fill-opacity:1;fill-rule:nonzero;stroke:none"
           id="path164" /></g><g
         id="g166"
         transform="translate(598,617.4)"
         style="fill:#ffffff"><path
           d="m 0,0 c 0.475,-2.254 0.679,-4.584 0.729,-6.906 0.04,-2.323 -0.099,-4.634 -0.134,-6.824 -0.074,-2.19 0.011,-4.25 0.411,-6.19 0.354,-1.96 1.015,-3.83 1.844,-5.69 l -2.035,1.95 c 4.706,-1.21 9.495,-1.56 14.345,-1.26 4.86,0.28 9.74,1.29 14.81,2.23 5.07,0.94 10.36,1.88 15.83,2.17 5.45,0.3 11.11,-0.1 16.41,-1.63 0.66,-0.19 1.31,-0.41 1.96,-0.62 l 1.86,-0.63 c 1.23,-0.42 2.47,-0.77 3.72,-1.15 2.5,-0.71 5.02,-1.33 7.57,-1.87 5.08,-1.06 10.25,-1.7 15.42,-1.99 10.36,-0.55 20.66,0.3 30.86,1.2 l -3.5,-5.52 c -2.6,6.07 -9.8,9.39 -17.5,11.83 -3.85,1.29 -7.91,2.43 -12.04,3.83 -2.07,0.72 -4.17,1.46 -6.28,2.38 l -1.58,0.73 -0.81,0.39 -0.73,0.38 c -1.08,0.56 -2.04,1.11 -3.03,1.69 C 70.45,-6.733 63.89,-1.074 57.7,4.944 51.54,10.97 45.79,17.36 40.64,24.25 l 0.64,0.63 C 48.15,19.77 54.88,14.62 61.7,9.693 65.13,7.27 68.52,4.812 72.01,2.577 c 3.46,-2.27 6.96,-4.446 10.51,-6.218 3.44,-1.819 7.05,-3.058 11.02,-4.29 3.93,-1.23 8.06,-2.429 12.26,-3.939 4.1,-1.57 8.3,-3.37 12.4,-6.14 1.9,-1.39 3.9,-3.05 5.5,-5.03 1.7,-1.97 3,-4.29 3.9,-6.73 l 2,-5.34 -5.5,-0.18 c -10.7,-0.35 -21.4,0.84 -31.85,2.86 -5.23,0.97 -10.39,2.14 -15.53,3.33 -2.57,0.6 -5.13,1.23 -7.69,1.86 l -3.85,0.94 -1.91,0.47 c -0.6,0.15 -1.22,0.26 -1.83,0.37 -2.45,0.43 -4.95,0.46 -7.43,0.29 -2.48,-0.2 -4.94,-0.65 -7.39,-1.22 -4.9,-1.16 -9.79,-2.78 -14.95,-4.06 -5.15,-1.3 -10.61,-2.2 -16.23,-2.28 -5.617,-0.1 -11.374,0.85 -16.63,2.9 l -1.619,0.63 -0.417,1.32 c -0.747,2.35 -1.228,4.87 -1.307,7.41 -0.06,2.54 0.309,5 0.797,7.28 0.523,2.28 1.132,4.413 1.622,6.575 0.516,2.158 0.904,4.339 1.215,6.588 z"
           style="fill:#ffffff;fill-opacity:1;fill-rule:nonzero;stroke:none"
           id="path168" /></g><g
         id="g170"
         transform="translate(606.4,993)"
         style="fill:#ffffff"><path
           d="m 0,0 c 0.795,-14.82 1.589,-29.58 1.854,-44.43 0.07,-3.71 0.07,-7.44 0,-11.2 L 1.572,-66.71 C 1.393,-74.1 1.057,-81.52 0.408,-88.92 c -1.306,-14.78 -3.49,-29.38 -3.636,-44.18 -0.09,-7.4 0.255,-14.8 1.013,-22.1 0.201,-1.8 0.408,-3.7 0.647,-5.5 l 0.826,-5.5 1.63,-11 c 1.024,-7.4 2.045,-14.7 2.861,-22.1 l 2.408,-22 c 0.855,-7.3 1.844,-14.5 3.023,-21.8 1.2,-7.2 2.42,-14.4 3.7,-21.7 l 3.82,-21.8 1.96,-10.9 c 0.63,-3.7 1.17,-7.3 1.76,-11 0.59,-3.6 1.14,-7.3 1.77,-10.9 0.65,-3.6 1.32,-7.2 2.1,-10.7 0.8,-3.6 1.66,-7.1 2.78,-10.6 1.12,-3.5 2.42,-6.9 4.34,-10 l -0.71,-0.5 c -2.63,2.7 -4.64,6 -6.37,9.4 -1.71,3.3 -3.19,6.8 -4.46,10.4 -1.3,3.5 -2.45,7.1 -3.48,10.7 -1.05,3.6 -2.04,7.2 -2.92,10.8 -3.538,14.3 -7.258,28.8 -10.046,43.4 -2.828,14.6 -4.738,29.5 -5.737,44.4 -0.524,7.5 -0.913,14.9 -1.143,22.3 -0.261,7.4 -0.3,14.8 -0.565,22.2 -0.138,3.7 -0.259,7.4 -0.515,11 l -0.369,5.6 c -0.142,1.8 -0.254,3.7 -0.356,5.6 -0.425,7.4 -0.65,14.8 -0.87,22.3 -0.398,14.8 -1.098,29.7 -0.959,44.54 0.06,7.38 0.267,14.76 0.661,22.16 0.17,3.7 0.403,7.41 0.637,11.11 0.261,3.63 0.419,7.31 0.638,11 0.185,3.69 0.438,7.38 0.672,11.08 l 0.365,5.55 0.456,5.55 c 0.639,7.4 1.358,14.822 2.764,22.176 z"
           style="fill:#ffffff;fill-opacity:1;fill-rule:nonzero;stroke:none"
           id="path172" /></g><g
         id="g174"
         transform="translate(526.5,998)"
         style="fill:#ffffff"><path
           d="m 0,0 c 1.732,-16.12 2.711,-32.2 3.947,-48.24 0.585,-8.01 1.183,-16.01 1.872,-23.98 l 1.137,-11.91 0.628,-5.92 0.683,-5.98 c 0.842,-8.07 1.429,-16.17 1.773,-24.27 0.15,-4.1 0.32,-8.1 0.36,-12.2 0.1,-4 0.25,-8 0.6,-12 0.66,-8 2.2,-15.9 3.74,-23.8 l 1.22,-5.9 c 0.44,-2 0.9,-3.9 1.37,-5.9 0.93,-3.9 2.01,-7.8 3.11,-11.6 2.19,-7.8 4.73,-15.4 7.29,-22.9 2.58,-7.6 5.24,-15.2 8.02,-22.7 5.56,-15 11.62,-30.1 16.51,-45.6 1.22,-3.8 2.39,-7.8 3.51,-11.5 1.18,-3.8 2.45,-7.6 3.69,-11.4 l 3.77,-11.5 c 1.23,-3.9 2.4,-7.8 3.52,-11.7 1.14,-3.9 2.14,-7.9 3.04,-11.9 0.92,-4 1.67,-8 2.23,-12.1 1.12,-8.1 1.5,-16.5 0,-24.5 h -0.9 c -0.1,8.1 -1.57,15.9 -3.59,23.6 -1.03,3.8 -2.22,7.6 -3.46,11.4 -1.26,3.8 -2.65,7.5 -4.03,11.3 -1.39,3.7 -2.87,7.4 -4.35,11.2 l -4.42,11.2 c -1.49,3.8 -2.93,7.6 -4.29,11.5 l -1.01,2.9 -0.94,2.9 -1.89,5.6 -7.73,22.8 c -2.58,7.7 -5.2,15.3 -7.68,23 -2.49,7.7 -4.88,15.5 -6.91,23.4 -2.05,7.9 -3.68,15.9 -5.16,23.8 -1.47,8 -2.68,16.1 -3.91,24.1 -0.54,3.9 -1.29,7.9 -1.893,11.9 -0.613,4 -1.215,8 -1.722,12.1 -0.515,4 -0.969,8 -1.399,12.1 -0.448,3.9 -0.965,7.9 -1.621,11.9 -1.288,7.9 -2.811,15.8 -4.259,23.7 -0.722,3.91 -1.422,8.03 -1.891,12.08 -0.492,4.06 -0.839,8.12 -1.109,12.18 -0.56,8.11 -0.821,16.22 -0.892,24.32 -0.05,4.05 0,8.1 0.07,12.15 l 0.12,6.07 0.231,6.06 C -2.304,-16.15 -1.783,-8.067 -0.9,0 Z"
           style="fill:#ffffff;fill-opacity:1;fill-rule:nonzero;stroke:none"
           id="path176" /></g><g
         id="g178"
         transform="translate(171.6,1086)"
         style="fill:#ffffff"><path
           d="m 0,0 c 15.28,1.747 30.87,1.262 46.2,-1.088 7.66,-1.191 15.24,-2.851 22.7,-4.849 l 21.93,-6.023 c 14.57,-4.02 29.27,-8.07 44.37,-10.14 7.6,-1.06 15.2,-1.65 22.8,-2.25 7.6,-0.63 15.3,-1.09 23,-2.15 7.7,-1.05 15.4,-2.65 22.8,-5.08 1.9,-0.59 3.8,-1.22 5.6,-1.91 l 2.7,-1.05 c 0.9,-0.35 1.7,-0.66 2.6,-0.97 3.5,-1.23 7,-2.39 10.7,-3.49 14.4,-4.39 29.2,-8.26 43.8,-12.64 7.3,-2.2 14.6,-4.42 21.9,-6.76 l 10.9,-3.5 10.9,-3.64 c 3.6,-1.21 7.2,-2.5 10.8,-3.79 3.6,-1.27 7.2,-2.61 10.8,-3.99 3.6,-1.35 7.2,-2.8 10.7,-4.28 3.5,-1.51 7.1,-3.08 10.5,-4.93 l -0.4,-0.83 c -7.3,2.15 -14.8,3.83 -22.2,5.65 l -11.1,2.67 c -3.7,0.89 -7.4,1.76 -11.1,2.69 l -11.1,2.74 -11.1,2.83 c -7.4,1.88 -14.8,3.86 -22.2,5.9 -7.3,2.07 -14.7,4.21 -21.9,6.54 -7.4,2.31 -14.6,4.68 -21.9,7.26 -3.6,1.3 -7.3,2.61 -10.9,4.15 -0.9,0.39 -1.9,0.82 -2.7,1.21 l -2.6,1.15 c -1.7,0.74 -3.4,1.49 -5.1,2.2 -3.5,1.42 -7,2.72 -10.5,3.92 -3.6,1.18 -7.2,2.21 -10.8,3.11 -7.3,1.78 -14.8,3.04 -22.4,3.95 -7.6,0.94 -15.2,1.66 -22.8,2.41 -15.2,1.53 -30.6,2.75 -45.78,5.71 -3.78,0.73 -7.55,1.58 -11.28,2.53 -3.73,0.93 -7.5,2.04 -11.08,3.09 -7.25,2.08 -14.53,4.021 -21.86,5.676 -3.68,0.816 -7.36,1.613 -11.06,2.307 -1.86,0.342 -3.72,0.662 -5.58,0.971 -1.86,0.33 -3.72,0.633 -5.6,0.914 -7.48,1.129 -15.038,1.994 -22.664,2.882 z"
           style="fill:#ffffff;fill-opacity:1;fill-rule:nonzero;stroke:none"
           id="path180" /></g><g
         id="g182"
         transform="translate(900,1066)"
         style="fill:#ffffff"><path
           d="m 0,0 c 1.665,-1.287 3.384,-2.378 5.192,-3.5 0.893,-0.573 1.851,-1.236 2.622,-2.145 0.773,-0.897 1.332,-1.919 1.764,-2.929 1.682,-4.086 2.482,-8.226 3.842,-12.076 0.34,-0.95 0.71,-1.88 1.16,-2.69 0.5,-0.89 1.02,-1.75 1.57,-2.57 1.1,-1.62 2.4,-3.05 3.95,-3.84 0.39,-0.19 0.8,-0.35 1.21,-0.46 0.2,-0.1 0.43,-0.1 0.62,-0.13 0.29,0 0.46,-0.1 0.7,-0.1 0.92,-0.1 1.89,-0.1 2.86,0.1 1.94,0.27 3.93,0.77 5.88,1.44 3.94,1.29 7.69,3.23 11.66,4.77 1.89,0.74 3.61,1.94 5.26,3.22 1.66,1.27 3.12,2.76 4.84,4.06 0.22,0.16 0.45,0.32 0.73,0.44 v 0 h 0.1 v 0 h 0.1 c 0.1,0 0.21,0 0.3,0 0.19,0 0.37,-0.1 0.51,-0.19 0.51,-0.41 0.73,-0.9 1.01,-1.35 0.52,-0.91 1.05,-1.82 1.84,-2.4 0.39,-0.3 0.84,-0.5 1.31,-0.58 0.24,0 0.48,-0.1 0.73,0 0.28,0 0.4,0 0.59,0.16 0.74,0.56 1.29,1.53 1.84,2.39 1.08,1.79 2.09,3.66 3.29,5.41 1.2,1.75 2.53,3.456 4.26,4.793 l 0.54,-0.724 c -1.65,-1.189 -3.04,-2.769 -4.24,-4.459 -1.21,-1.7 -2.26,-3.51 -3.36,-5.32 -0.58,-0.88 -1.07,-1.83 -2.01,-2.56 -0.23,-0.19 -0.65,-0.28 -0.9,-0.25 -0.28,0 -0.56,0 -0.84,0.1 -0.56,0.1 -1.09,0.34 -1.54,0.68 -0.91,0.69 -1.47,1.66 -2,2.56 -0.26,0.44 -0.54,0.92 -0.86,1.16 -0.1,0.1 -0.15,0.1 -0.22,0.1 0,0 0,0 -0.1,0 h -0.1 v 0 c 0,0 0,0 0,0 v 0 c -0.2,-0.1 -0.41,-0.23 -0.61,-0.38 -3.22,-2.57 -6.07,-5.89 -10.08,-7.7 -1.93,-0.79 -3.76,-1.81 -5.63,-2.8 -1.87,-0.97 -3.73,-2 -5.69,-2.87 -1.96,-0.87 -4,-1.69 -6.21,-2.09 -1.11,-0.2 -2.25,-0.32 -3.43,-0.27 -0.28,0 -0.64,0 -0.87,0.1 -0.33,0 -0.62,0.1 -0.93,0.17 -0.61,0.14 -1.19,0.35 -1.75,0.62 -2.26,1.07 -3.86,2.9 -5.09,4.74 -0.64,0.93 -1.17,1.89 -1.66,2.85 -0.54,1.06 -0.91,2.11 -1.24,3.15 -0.65,2.08 -1.141,4.14 -1.612,6.19 -0.476,2.04 -0.935,4.09 -1.606,5.956 -0.351,0.938 -0.743,1.82 -1.29,2.567 -0.535,0.752 -1.276,1.375 -2.102,2.004 -1.672,1.241 -3.385,2.597 -4.884,4.088 z"
           style="fill:#ffffff;fill-opacity:1;fill-rule:nonzero;stroke:none"
           id="path184" /></g><g
         id="g186"
         transform="translate(886.7,1133)"
         style="fill:#ffffff"><path
           d="m 0,0 c -0.326,1.099 0.008,2.227 0.406,3.122 0.467,0.889 1.037,1.675 1.455,2.464 0.186,0.363 0.402,0.828 0.601,1.273 0.196,0.449 0.349,0.926 0.592,1.365 0.51,0.844 1.207,1.69 2.281,2.116 L 5.899,9.642 C 5.519,8.837 5.179,8.047 4.737,7.26 4.509,6.875 4.223,6.51 4,6.106 3.771,5.703 3.628,5.288 3.381,4.806 2.924,3.91 2.485,3.084 2.104,2.272 1.674,1.477 1.229,0.803 0.9,-0.016 Z"
           style="fill:#ffffff;fill-opacity:1;fill-rule:nonzero;stroke:none"
           id="path188" /></g><g
         id="g190"
         transform="translate(533.7,1002)"
         style="fill:#ffffff"><path
           d="m 0,0 c 3.79,-1.481 7.746,-2.155 11.74,-2.535 4,-0.409 8.05,-0.447 12.14,-0.588 l 6.18,-0.209 6.08,-0.234 12.24,-0.275 c 4.1,-0.08 8.2,-0.218 12.33,-0.386 4.1,-0.19 8.31,-0.456 12.37,-0.82 8.09,-0.655 16.18,-1.193 24.31,-1.795 16.21,-1.186 32.61,-2.507 49.01,-2.544 8.2,-0.04 16.4,0.165 24.6,0.426 l 6.1,0.207 6.2,0.26 c 4.1,0.144 8.2,0.349 12.2,0.636 8.1,0.566 16.2,1.543 24.4,2.397 8.1,0.885 16.3,1.707 24.5,2.396 8.2,0.703 16.5,1.222 24.8,1.362 8.3,0.164 16.3,-0.201 23.7,1.051 3.7,0.595 7.1,1.64 10.3,3.216 3.1,1.585 5.8,3.782 8.1,6.486 l 15.2,19.109 c 2.5,3.22 5.1,6.41 7.5,9.61 l 0.9,1.18 0.9,1.3 c 0.7,0.92 1.4,1.74 2.1,2.54 1.4,1.58 2.9,3.08 4.3,4.56 2.9,2.97 5.9,5.8 8.8,8.68 1.4,1.43 2.9,2.85 4.4,4.3 1.4,1.45 2.9,2.88 4,4.46 l 0.8,-0.38 c -0.4,-1.05 -1,-1.91 -1.6,-2.8 -0.5,-0.88 -1.1,-1.74 -1.7,-2.57 -1.2,-1.69 -2.4,-3.35 -3.7,-4.98 l -7.5,-9.73 c -1.3,-1.61 -2.5,-3.24 -3.6,-4.86 -0.6,-0.81 -1.1,-1.62 -1.6,-2.38 l -0.7,-1.3 -0.9,-1.37 c -2.1,-3.57 -4.4,-7.01 -6.7,-10.43 -2.3,-3.41 -4.6,-6.82 -6.9,-10.2 L 321.8,8.743 320,6.224 c -0.6,-0.853 -1.2,-1.63 -1.9,-2.605 -2.8,-3.718 -6.4,-6.931 -10.5,-9.222 -4.1,-2.331 -8.6,-3.692 -13,-4.517 -8.8,-1.57 -17.4,-1.1 -25.4,-0.99 -8,0.11 -16.1,-0.11 -24.3,-0.44 -8.1,-0.35 -16.3,-0.85 -24.5,-1.12 -8.2,-0.3 -16.5,-0.3 -24.8,-0.11 -8.3,0.23 -16.4,0.76 -24.6,0.76 -8.2,0.1 -16.4,0 -24.6,-0.27 -16.4,-0.5 -32.8,-2.08 -49.29,-2.05 -8.26,0 -16.53,0.44 -24.76,1.32 -8.1,0.88 -16.15,1.48 -24.35,2.18 -4.09,0.34 -8.19,0.76 -12.3,1.245 -2.04,0.246 -4.14,0.489 -6.16,0.789 l -6.07,0.91 c -4.07,0.563 -8.2,1.242 -12.27,2.258 -4.056,1.047 -8.13,2.488 -11.609,4.836 z"
           style="fill:#ffffff;fill-opacity:1;fill-rule:nonzero;stroke:none"
           id="path192" /></g></g></g></svg>
