<?xml version="1.0" encoding="UTF-8" standalone="no"?>
<!-- Created with Inkscape (http://www.inkscape.org/) -->

<svg
   width="148mm"
   height="105mm"
   viewBox="0 0 148 105"
   version="1.1"
   id="svg5"
   xml:space="preserve"
   inkscape:version="1.2.1 (9c6d41e410, 2022-07-14)"
   sodipodi:docname="Nadi Vibhajan - D0015-min.svg"
   xmlns:inkscape="http://www.inkscape.org/namespaces/inkscape"
   xmlns:sodipodi="http://sodipodi.sourceforge.net/DTD/sodipodi-0.dtd"
   xmlns="http://www.w3.org/2000/svg"
   xmlns:svg="http://www.w3.org/2000/svg"><sodipodi:namedview
     id="namedview7"
     pagecolor="#505050"
     bordercolor="#eeeeee"
     borderopacity="1"
     inkscape:showpageshadow="0"
     inkscape:pageopacity="0"
     inkscape:pagecheckerboard="0"
     inkscape:deskcolor="#505050"
     inkscape:document-units="mm"
     showgrid="false"
     inkscape:zoom="0.2102"
     inkscape:cx="116.6"
     inkscape:cy="73.74"
     inkscape:window-width="1620"
     inkscape:window-height="1058"
     inkscape:window-x="-6"
     inkscape:window-y="-6"
     inkscape:window-maximized="1"
     inkscape:current-layer="svg5" /><defs
     id="defs2"><clipPath
       clipPathUnits="userSpaceOnUse"
       id="clipPath148"><path
         d="M 0,0 H 1240 V 1754 H 0 Z"
         id="path146" /></clipPath></defs><g
     inkscape:label="Layer 1"
     inkscape:groupmode="layer"
     id="layer1"
     transform="translate(-216.1,-129)" /><g
     id="g142"
     transform="matrix(0.1079,0,0,-0.1079,8.65,151.1)"
     style="fill:#ffffff"><g
       id="g144"
       clip-path="url(#clipPath148)"
       style="fill:#ffffff"><g
         id="g150"
         transform="translate(171,958)"
         style="fill:#ffffff"><path
           d="m 0,0 c 1.129,3.267 2.882,6.303 4.887,9.128 2.012,2.832 4.297,5.462 6.703,7.962 4.81,5 10.11,9.51 15.49,13.85 2.68,2.18 5.4,4.32 8.01,6.52 2.6,2.16 5.04,4.58 7.57,6.94 5.01,4.75 10.1,9.52 15.78,13.72 5.65,4.17 11.94,7.92 19.17,9.66 0.9,0.21 1.82,0.39 2.74,0.53 0.46,0.1 0.92,0.14 1.38,0.19 l 1.31,0.14 c 1.75,0.18 3.5,0.34 5.26,0.45 3.52,0.23 7.09,0.3 10.68,0.1 3.62,-0.22 7.22,-0.71 10.72,-1.63 3.6,-0.9 7,-2.19 10.3,-3.76 3.3,-1.57 6.4,-3.42 9.4,-5.41 0.7,-0.5 1.5,-1 2.2,-1.52 l 2.1,-1.5 4.2,-3.01 C 149.2,44.32 160.4,36.1 171,26.8 c 5.2,-4.64 10.3,-9.68 15,-14.68 4.8,-4.997 9.5,-10.017 14.3,-14.711 4.8,-4.701 9.9,-8.779 15.4,-12.289 5.6,-3.49 11.6,-6.64 17.7,-9.5 6.1,-2.85 12.3,-5.41 18.7,-7.65 3.1,-1.13 6.4,-2.18 9.6,-3.17 3.2,-1 6.4,-1.87 9.9,-2.87 13.3,-3.95 26.2,-8.35 39.2,-10.25 6.5,-0.99 12.6,-1.09 18.4,0.39 5.8,1.43 11.5,4.37 17.2,7.83 5.5,3.26 10.4,7.41 15.5,11.98 5.1,4.53 10.4,9.47 16.9,13.5 1.6,1.01 3.3,1.95 5,2.81 l 1.3,0.61 1.2,0.56 2.5,1.102 c 3.2,1.445 6.5,2.813 10,4.034 6.8,2.478 13.9,4.174 20.8,5.516 3.4,0.682 6.8,1.304 10.3,1.934 3.4,0.632 6.9,1.191 10.3,1.697 6.9,1.017 13.7,1.958 20.4,3.111 6.6,1.16 13.2,2.493 19.2,4.476 1.6,0.51 2.9,1.02 4.4,1.66 1.6,0.67 3.1,1.32 4.7,2.02 3.1,1.38 6.1,2.83 9.2,4.3 6.3,2.93 12.5,5.96 18.9,8.83 3.2,1.43 6.5,2.85 9.8,4.12 3,1.18 5.9,2.53 8.8,4.06 5.8,3.03 11.4,6.79 17.5,10.43 6.1,3.65 12.8,7.04 19.8,9.29 l -3.7,-4.17 c 0.8,2.57 2,3.22 1.7,3 0.3,0.23 0.4,0.32 0.4,0.35 l 0.2,0.17 0.2,0.11 0.4,0.31 0.7,0.45 1.3,0.8 2.5,1.5 4.9,2.91 9.9,5.78 c 6.5,3.85 13,7.71 19.3,11.69 12.7,8.07 24.9,16.71 35.9,26.56 5.5,4.8 10.4,10.3 15.6,16 2.6,2.8 5.2,5.7 8,8.4 2.7,2.8 5.5,5.4 8,8 2.6,2.6 5,5.3 7.1,8.1 0.5,0.8 0.9,1.4 1.5,2.2 l 1.6,2.4 c 1.1,1.6 2.3,3.2 3.4,4.8 2.4,3.1 4.9,6.2 7.7,9.1 0.7,0.7 1.5,1.5 2.2,2.1 0.7,0.7 1.4,1.4 2.2,2 1.5,1.3 3,2.6 4.5,3.8 6.1,4.9 12.4,9.1 18.3,13.6 3,2.3 5.8,4.7 8.5,7.2 2.9,2.7 6,5.2 9.2,7.4 6.4,4.5 13,8.2 19.1,12.5 1.5,1.1 2.9,2.2 4.4,3.3 l 4.4,3.6 c 2.9,2.4 5.8,4.8 8.7,7.3 11.6,9.8 22.8,19.9 33.5,30.6 2.7,2.7 5.4,5.4 8,8.2 2.6,2.7 5.2,5.5 7.7,8.3 5,5.7 9.5,11.8 12.8,18.7 -2.9,-7.1 -7.1,-13.5 -11.8,-19.5 -4.7,-6 -9.8,-11.7 -14.9,-17.4 -10.3,-11.2 -21.1,-22 -32.3,-32.3 -2.8,-2.5 -5.7,-5.1 -8.5,-7.6 l -4.3,-3.8 c -1.5,-1.3 -3,-2.5 -4.6,-3.7 C 760.4,204 754,200 748,195.5 c -2.9,-2.2 -5.7,-4.5 -8.3,-7.1 -2.8,-2.8 -5.7,-5.4 -8.7,-7.8 -6,-5 -12.2,-9.3 -17.8,-14.1 -1.4,-1.2 -2.8,-2.5 -4.1,-3.7 -0.7,-0.6 -1.3,-1.2 -2,-1.9 -0.7,-0.7 -1.2,-1.3 -1.9,-1.9 -2.3,-2.6 -4.6,-5.6 -6.7,-8.5 -1.1,-1.5 -2.1,-3.1 -3.1,-4.6 l -1.5,-2.4 c -0.5,-0.7 -1.1,-1.7 -1.7,-2.5 -2.4,-3.3 -5,-6.4 -7.7,-9.2 -2.6,-2.9 -5.4,-5.6 -7.9,-8.3 -2.6,-2.6 -5.1,-5.4 -7.5,-8.3 -5,-5.6 -10.1,-11.6 -15.9,-16.98 -5.7,-5.3 -11.7,-10.29 -17.8,-14.95 -6.2,-4.66 -12.6,-9.03 -19,-13.26 -6.5,-4.23 -13,-8.16 -19.5,-12.13 l -9.7,-5.91 -4.9,-2.95 -2.4,-1.47 -1.1,-0.72 -0.5,-0.32 -0.1,-0.1 v 0 l 0.1,0.1 c 0,0 0,0.1 0.2,0.23 -0.3,-0.26 0.9,0.35 1.6,2.86 l -1,-3.25 -2.7,-0.92 c -6.1,-2.03 -11.7,-4.98 -17.4,-8.49 -5.7,-3.5 -11.6,-7.48 -18,-10.89 -3.2,-1.72 -6.6,-3.29 -10,-4.64 -3.1,-1.24 -6.1,-2.55 -9.2,-3.95 -6.2,-2.8 -12.4,-5.82 -18.6,-8.815 -3.2,-1.497 -6.3,-2.988 -9.5,-4.439 -1.6,-0.718 -3.2,-1.451 -4.9,-2.137 -1.6,-0.731 -3.5,-1.431 -5.2,-2.017 -7.1,-2.345 -14.1,-3.749 -21,-4.998 -6.9,-1.229 -13.8,-2.211 -20.6,-3.247 -3.4,-0.525 -6.7,-1.025 -10,-1.616 -3.4,-0.611 -6.8,-1.211 -10.1,-1.861 -6.7,-1.27 -13,-2.76 -19.2,-4.96 -3.1,-1.09 -6.1,-2.33 -9.2,-3.67 l -2.3,-1.02 -1.1,-0.53 -1.1,-0.5 c -1.3,-0.67 -2.7,-1.41 -4,-2.22 -5.3,-3.25 -10.2,-7.66 -15.4,-12.26 -2.6,-2.29 -5.3,-4.64 -8.2,-6.88 -1.4,-1.12 -2.9,-2.22 -4.4,-3.27 l -1.2,-0.79 -1.2,-0.79 -1.1,-0.7 -1.2,-0.72 c -3,-1.83 -6.2,-3.62 -9.6,-5.2 -3.4,-1.58 -7,-2.96 -10.8,-3.85 -3.8,-0.9 -7.8,-1.31 -11.6,-1.3 -1.9,0 -3.8,0.1 -5.7,0.28 -0.9,0.1 -1.8,0.19 -2.8,0.32 l -1.3,0.18 -1.4,0.21 c -14.3,2.31 -27.6,7.12 -40.6,11.12 -3.2,0.98 -6.6,1.95 -9.9,3.04 -3.4,1.07 -6.7,2.21 -10,3.43 -6.7,2.45 -13.2,5.2 -19.5,8.34 -6.4,3.17 -12.6,6.53 -18.6,10.51 -6,3.96 -11.7,8.76 -16.6,13.832 C 184,0.991 175.4,11.62 165.4,20.71 155.5,29.96 144.7,38.4 133.8,46.74 l -4.2,3.12 -2,1.56 -2,1.48 c -2.7,1.94 -5.5,3.7 -8.4,5.2 -5.8,3.03 -12.1,4.8 -18.66,5.43 -3.28,0.32 -6.63,0.38 -10,0.3 -1.68,0 -3.38,-0.13 -5.06,-0.24 l -1.27,-0.1 c -0.4,0 -0.79,-0.1 -1.19,-0.11 -0.79,-0.1 -1.57,-0.22 -2.36,-0.37 C 72.36,61.74 66.37,58.56 60.82,54.77 55.25,50.95 50.03,46.52 44.81,42.02 42.19,39.79 39.61,37.46 36.8,35.33 34.03,33.22 31.23,31.21 28.46,29.16 22.92,25.07 17.43,20.93 12.4,16.26 9.893,13.92 7.494,11.46 5.351,8.778 3.214,6.099 1.312,3.198 0,0"
           style="fill:#ffffff;fill-opacity:1;fill-rule:nonzero;stroke:none"
           id="path152" /></g><g
         id="g154"
         transform="translate(1011,1258)"
         style="fill:#ffffff"><path
           d="m 0,0 c -0.375,3.782 -1.146,7.456 -1.631,11.28 -0.223,1.91 -0.335,3.86 -0.269,5.83 0.03,0.98 0.152,2.06 0.393,3.08 0.237,1.02 0.581,2.02 1.017,2.97 1.748,3.86 4.776,6.79 7.808,9.28 1.549,1.24 3.042,2.41 4.782,3.55 1.76,1.12 3.64,2.05 5.58,2.79 3.89,1.49 7.95,2.15 11.88,2.54 1.97,0.2 3.92,0.3 5.85,0.38 l 1.4,0.1 1.33,0.1 c 0.89,0.1 1.77,0.14 2.65,0.25 3.5,0.41 6.84,1.18 10.14,2.34 0.82,0.28 1.65,0.59 2.47,0.92 l 1.2,0.5 0.66,0.28 0.57,0.26 c 1.58,0.72 3.18,1.52 4.75,2.37 3.16,1.7 6.27,3.64 9.41,5.66 l 9.47,6.07 c 6.03,4.03 11.84,8.49 17.05,13.4 0.66,0.62 1.27,1.22 1.94,1.88 l 2.05,2.01 c 1.4,1.35 2.9,2.77 4.7,4.14 1.7,1.37 3.7,2.7 5.9,3.73 2.2,1.04 4.6,1.76 6.9,2.15 4.7,0.82 9.3,0.36 13.4,-0.47 2.1,-0.42 4,-0.93 5.9,-1.45 1,-0.29 1.7,-0.41 3.2,-0.95 1.3,-0.47 2.6,-1.1 3.9,-1.98 1.2,-0.87 2.5,-2.02 3.4,-3.37 1,-1.34 1.7,-2.84 2.1,-4.31 0.9,-2.96 0.9,-5.66 0.6,-8.04 -0.6,-4.77 -2.1,-8.69 -3.6,-12.42 -0.8,-1.86 -1.6,-3.64 -2.4,-5.37 -0.7,-1.71 -1.5,-3.43 -2.1,-4.83 -1.6,-4.27 -3.9,-7.85 -6,-11.02 -1,-1.6 -2,-3.12 -2.9,-4.6 -1,-1.52 -1.6,-2.79 -2.6,-4.65 -1.9,-3.64 -3.9,-6.99 -6.2,-10.27 -1.2,-1.63 -2.3,-3.23 -3.6,-4.798 -0.6,-0.783 -1.2,-1.556 -1.8,-2.323 l -1.8,-2.144 c -2.4,-2.861 -4.7,-5.854 -7.2,-8.835 -1.3,-1.498 -2.5,-2.954 -3.9,-4.441 l -0.9,-1.036 -1.1,-1.083 c -0.7,-0.73 -1.4,-1.41 -2.1,-2.09 -2.79,-2.72 -5.63,-5.28 -8.44,-7.79 -2.81,-2.51 -5.54,-5.02 -8.12,-7.61 l -4.01,-4.05 c -1.36,-1.35 -2.72,-2.69 -4.12,-4 C 66.45,-46.58 54.58,-56.16 42,-64.67 c 10.89,10.58 21.59,21.23 31.36,32.62 l 3.64,4.28 3.59,4.37 c 2.5,3.02 5.15,5.83 7.77,8.59 2.61,2.77 5.22,5.441 7.67,8.173 0.6,0.679 1.22,1.377 1.79,2.049 l 0.85,1.013 0.9,1.099 c 1.13,1.371 2.23,2.844 3.33,4.312 2.2,2.95 4.4,6.039 6.6,9.154 l 1.8,2.32 c 0.5,0.71 1,1.44 1.6,2.17 1,1.46 2,2.95 3,4.46 1.9,3.02 3.6,6.19 5.2,9.31 0.7,1.53 1.7,3.67 2.7,5.41 1,1.78 2,3.44 3,5.04 2,3.19 3.7,6.09 4.7,8.94 0.8,2.14 1.6,3.86 2.3,5.6 0.8,1.73 1.5,3.4 2.1,5.05 1.3,3.26 2.4,6.55 2.8,9.3 0.1,1.36 0,2.53 -0.2,3.2 -0.2,0.69 -0.4,0.9 -1,1.31 -0.2,0.2 -0.6,0.41 -1.1,0.6 -0.3,0.11 -1.5,0.43 -2.3,0.67 -1.7,0.49 -3.4,0.94 -5.1,1.28 -3.3,0.7 -6.3,0.92 -9.1,0.48 -2.8,-0.42 -5.1,-1.45 -7.6,-3.37 -1.3,-0.95 -2.5,-2.1 -3.9,-3.34 l -2,-1.91 c -0.7,-0.64 -1.5,-1.35 -2.2,-1.99 C 98.19,60.25 91.83,55.62 85.08,51.57 L 83.79,50.8 82.57,50.09 80.1,48.68 75.17,45.83 C 71.84,43.94 68.41,42.06 64.81,40.37 61.22,38.65 57.38,37.21 53.48,36.15 49.56,35.06 45.42,34.4 41.38,34.27 c -1.01,0 -2.02,-0.1 -3.01,-0.1 h -1.51 -1.43 c -1.86,0.1 -3.7,0.11 -5.5,0.11 C 26.31,34.4 22.81,34.1 19.5,33.22 17.85,32.78 16.24,32.19 14.71,31.44 13.19,30.66 11.57,29.68 10.05,28.71 7.023,26.75 4.26,24.48 2.436,21.62 1.984,20.9 1.604,20.14 1.306,19.35 1.004,18.56 0.797,17.76 0.648,16.86 0.345,15.07 0.22,13.23 0.171,11.36 0.044,7.627 0.32,3.789 0,0"
           style="fill:#ffffff;fill-opacity:1;fill-rule:nonzero;stroke:none"
           id="path156" /></g><g
         id="g158"
         transform="translate(297,1016)"
         style="fill:#ffffff"><path
           d="m 0,0 c 3.915,1.833 7.926,3.468 11.71,5.47 1.89,0.994 3.73,2.081 5.44,3.279 1.71,1.203 3.3,2.561 4.51,4.111 v 0.1 l 0.16,0.14 c 4.26,3.66 7.29,8.71 9.94,13.8 2.59,5.14 4.73,10.59 6.31,16.08 0.38,1.35 0.74,2.77 0.92,3.96 0,0.15 0,0.28 0,0.38 0,0 0,0.1 0,0.1 v 0 0.12 1.11 l -0.1,2.19 c -0.1,2.93 -0.21,5.85 -0.4,8.76 -0.37,5.81 -0.99,11.59 -1.95,17.27 -0.97,5.68 -2.28,11.26 -4.03,16.65 -1.75,5.38 -4.01,10.48 -6.76,15.38 -5.5,9.7 -13.26,17.8 -22.401,24.3 -4.567,3.2 -9.46,6 -14.539,8.5 -5.06,2.5 -10.25,4.6 -15.6,6.1 -10.67,3.2 -21.86,4.3 -33.04,3.4 -2.8,-0.1 -5.59,-0.5 -8.39,-0.9 -0.67,-0.1 -1.45,-0.2 -2.03,-0.3 -0.41,0 -0.62,-0.1 -0.9,-0.1 l -0.89,-0.2 c -1.2,-0.3 -2.41,-0.7 -3.61,-1.1 -4.82,-1.8 -9.51,-4.6 -13.9,-7.8 -4.4,-3.3 -8.51,-7.1 -12.25,-11.2 -3.8,-4.1 -7.2,-8.5 -10,-13.2 l -1.5,-2.4 -2.7,-0.4 c -5.3,-0.7 -10.6,-2 -16.1,-3.3 -5.4,-1.3 -11,-2.7 -16.7,-3.9 l 4,3.4 c -0.2,-0.5 -0.3,-0.8 -0.3,-1.1 0,-0.3 0,-0.5 0.1,-0.8 0.1,-0.7 0.8,-1.8 2,-3.2 0.6,-0.7 1.2,-1.5 2,-2.4 0.7,-1 1.4,-2.1 2.1,-3.57 0.6,-1.45 1.1,-3.31 1,-5.14 0,-0.91 -0.1,-1.8 -0.3,-2.61 l -0.2,-0.6 -0.2,-0.71 -0.2,-0.4 c -0.1,-0.24 -0.2,-0.56 -0.3,-0.73 -0.9,-1.62 -1.9,-2.8 -2.8,-3.72 -1,-0.93 -1.9,-1.63 -2.7,-2.26 -0.8,-0.61 -1.5,-1.14 -1.9,-1.55 l -0.3,-0.26 h -0.1 c 0,0 0,0 0,0 v -0.1 l -0.3,-0.27 -0.8,-1.03 c -1.2,-1.4 -2.4,-2.88 -3.6,-4.4 l -3.6,-4.67 c -2.7,-3.35 -5.4,-6.12 -7.8,-8.91 -2.3,-2.78 -4.3,-5.54 -5.1,-8.3 -0.5,-1.37 -0.6,-2.74 -0.5,-4.17 0,-0.69 0.1,-1.48 0.3,-2.12 l 0.2,-0.7 0.1,-0.55 c 0.1,-0.33 0.3,-0.75 0.4,-1.12 1.1,-2.99 3,-5.66 5.6,-8.18 2.5,-2.53 5.6,-4.94 8.6,-7.69 1.5,-1.35 3,-2.9 4.4,-4.55 1.3,-1.65 2.5,-3.41 3.6,-5.23 2.1,-3.65 3.6,-7.58 4.7,-11.511 1,-3.939 1.7,-7.898 2.2,-11.825 0.5,-3.928 0.9,-7.834 1.3,-11.704 0.3,-3.88 0.7,-7.73 1.3,-11.54 1.1,-7.6 3.1,-15.18 7.1,-21.84 l -0.1,0.1 c 0.5,0.1 1.1,0 1.6,-0.34 0.4,-0.29 0.7,-0.76 1.2,-1.02 -0.5,0.21 -0.9,0.64 -1.3,0.85 -0.5,0.24 -1,0.24 -1.5,0.13 h -0.1 l -0.1,0.1 c -2.4,3.1 -4.3,6.59 -5.9,10.23 -1.5,3.65 -2.6,7.47 -3.6,11.3 -0.9,3.84 -1.6,7.71 -2.4,11.56 -0.6,3.85 -1.3,7.679 -2.1,11.441 -1.5,7.507 -3.7,14.809 -7.7,20.789 -1,1.49 -2,2.89 -3.2,4.18 -1.3,1.31 -2.5,2.43 -4,3.63 -2.9,2.36 -6.1,4.57 -9.3,7.38 -3.1,2.76 -6.2,6.36 -8,10.63 -0.2,0.54 -0.4,1.03 -0.6,1.63 l -0.3,0.84 -0.3,0.69 c -0.3,1.25 -0.6,2.37 -0.7,3.62 -0.3,2.46 -0.1,5.04 0.5,7.41 1.3,4.81 3.9,8.59 6.4,11.84 2.6,3.25 5.2,6.13 7.3,8.96 l 3.4,4.72 c 1.1,1.61 2.3,3.23 3.6,4.85 l 1,1.23 0.2,0.28 0.4,0.42 c 0.3,0.28 0.5,0.54 0.7,0.78 1,0.94 1.9,1.6 2.6,2.2 1.5,1.16 2.4,2.2 2.5,2.51 0,0 -0.1,0 -0.1,-0.1 l 0.1,0.28 c -0.1,-0.27 0,-0.1 0,-0.12 v 0 0 0.1 0.1 c 0.1,0.13 0.1,0.22 0.1,0.29 -0.1,0.12 -0.1,0.2 -0.2,0.52 -0.3,0.65 -1.4,1.9 -2.7,3.45 -1.3,1.58 -3.1,3.6 -4.2,6.8 -0.5,1.5 -0.7,3.3 -0.6,4.9 0.1,1.7 0.5,3.2 1,4.5 l 1.1,2.8 2.9,0.6 c 5.4,1.3 10.8,2.8 16.3,4.2 5.6,1.4 11.2,2.8 17.1,3.7 l -4.1,-2.8 c 3.2,5.6 7.1,10.6 11.3,15.2 4.2,4.7 8.8,9 13.89,12.8 5.08,3.8 10.69,7.1 17.02,9.4 1.58,0.6 3.21,1.1 4.89,1.5 l 1.27,0.2 c 0.45,0.1 0.97,0.2 1.29,0.3 0.87,0.1 1.56,0.2 2.35,0.3 3.07,0.5 6.16,0.8 9.27,1 12.42,0.8 25.19,-0.5 37.17,-4.3 5.98,-1.9 11.77,-4.4 17.258,-7.2 5.481,-2.9 10.793,-6.1 15.787,-9.9 4.995,-3.8 9.675,-8 13.805,-12.8 4.12,-4.7 7.69,-10 10.58,-15.6 5.8,-11.1 8.84,-23.37 10.14,-35.44 0.67,-6.05 0.95,-12.09 0.99,-18.1 0,-3.01 0,-6.01 -0.12,-9 l -0.1,-2.25 -0.1,-1.11 v -0.43 l -0.1,-0.44 c 0,-0.27 -0.1,-0.5 -0.14,-0.72 -0.39,-1.72 -0.89,-3.13 -1.41,-4.6 -2.13,-5.76 -4.76,-11.2 -7.89,-16.42 -1.57,-2.6 -3.29,-5.12 -5.26,-7.48 -1.96,-2.35 -4.13,-4.58 -6.7,-6.39 l 0.2,0.19 C 22.05,9.427 20.18,8.125 18.26,7.01 16.33,5.893 14.33,4.997 12.3,4.185 8.249,2.564 4.108,1.334 0,0"
           style="fill:#ffffff;fill-opacity:1;fill-rule:nonzero;stroke:none"
           id="path160" /></g><g
         id="g162"
         transform="translate(273.7,932)"
         style="fill:#ffffff"><path
           d="m 0,0 c -1.165,-1.992 -1.708,-4.226 -2.049,-6.455 -0.325,-2.242 -0.43,-4.515 -0.522,-6.805 -0.103,-2.29 -0.195,-4.6 -0.499,-6.96 -0.308,-2.4 -0.95,-4.65 -1.516,-6.9 -1.167,-4.48 -2.576,-8.84 -3.545,-13.19 -0.92,-4.36 -1.705,-8.92 -2.419,-13.39 -1.43,-8.98 -2.56,-17.99 -3.06,-26.95 -0.51,-9.6 -2.71,-18.88 -4.85,-27.75 -1.08,-4.5 -2.14,-8.9 -2.99,-13.2 -0.42,-2.2 -0.81,-4.4 -1.12,-6.6 -0.15,-1 -0.3,-2.1 -0.41,-3.2 -0.1,-0.9 -0.14,-2 -0.17,-3 -0.15,-4.2 0.24,-9.1 -0.61,-14.4 l -0.17,-1 -0.16,-0.9 -0.33,-1.6 -0.66,-3.5 -1.34,-6.7 -1.26,-6.7 -0.61,-3.3 -0.34,-1.8 -0.36,-1.8 c -0.98,-4.6 -2.16,-9.1 -3.1,-13.4 -0.94,-4.3 -1.69,-8.5 -1.88,-12.6 l -0.1,-1.5 v -1.6 -3.5 l -0.1,-7 -0.38,-13.7 -0.15,-6.8 v -3.4 c 0,-1.2 0,-2.3 0,-3.3 0.1,-4.2 0.53,-8.6 1.13,-13 0.59,-4.5 1.3,-9.2 1.65,-14 0.17,-2.4 0.26,-4.9 0.23,-7.4 l -0.13,-6.9 c -0.11,-4.6 -0.28,-9.3 -0.58,-13.9 -0.56,-9.3 -1.48,-18.6 -3.04,-27.8 -1.53,-9.3 -3.74,-18.5 -6.66,-27.4 -2.9,-8.6 -5.33,-17.3 -7.35,-26.1 -2.04,-8.9 -3.66,-17.8 -4.87,-26.9 -1.28,-9 -2.13,-18.1 -2.75,-27.3 h -0.51 l 0.26,3.6 0.25,-3.6 h -0.51 c -0.62,9.2 -0.73,18.4 -0.42,27.7 0.38,9.2 1.19,18.4 2.51,27.6 0.68,4.6 1.48,9.2 2.41,13.7 0.49,2.3 0.98,4.6 1.53,6.9 l 0.84,3.4 0.86,3.3 c 2.3,8.7 3.86,17.5 4.94,26.4 1.06,8.9 1.62,17.9 1.85,27 0.11,4.5 0.15,9 0.15,13.5 v 6.9 c 0,2.1 -0.15,4.2 -0.36,6.3 -0.78,8.6 -2.96,17.7 -3.25,27.7 0,1.3 0,2.5 0,3.6 v 3.5 l 0.11,7 0.34,13.7 0.13,6.8 v 3.4 1.8 c 0,0.7 0,1.3 0.1,1.9 0.28,5.1 1.17,10 2.26,14.6 1.09,4.6 2.32,9 3.29,13.3 l 0.36,1.6 0.33,1.6 0.66,3.4 c 0.47,2.3 0.97,4.6 1.47,6.8 l 1.51,6.7 0.74,3.4 0.36,1.6 0.19,0.9 0.13,0.7 c 0.72,3.7 0.63,8.1 0.92,13 0.1,1.2 0.19,2.5 0.36,3.8 0.18,1.3 0.37,2.4 0.59,3.6 0.43,2.4 0.93,4.7 1.49,7 1.12,4.6 2.43,9.1 3.71,13.5 2.59,8.77 5.06,17.32 6.11,26.03 1.11,9.32 2.94,18.43 5.14,27.43 1.14,4.51 2.3,8.92 3.68,13.43 1.45,4.51 3.216,8.76 4.859,13 0.79,2.13 1.64,4.24 2.141,6.35 0.524,2.16 0.846,4.42 1.219,6.69 0.379,2.26 0.777,4.561 1.398,6.808 0.62,2.236 1.506,4.46 2.953,6.262"
           style="fill:#ffffff;fill-opacity:1;fill-rule:nonzero;stroke:none"
           id="path164" /></g><g
         id="g166"
         transform="translate(174.3,947.3)"
         style="fill:#ffffff"><path
           d="m 0,0 c -1.323,-1.771 -1.909,-3.905 -2.313,-6.011 -0.379,-2.126 -0.52,-4.289 -0.552,-6.449 -0.09,-4.33 0.225,-8.67 0.672,-12.99 0.467,-4.33 1.012,-8.65 1.568,-13.02 0.289,-2.18 0.494,-4.47 0.714,-6.59 0.229,-2.15 0.489,-4.32 0.769,-6.47 1.08,-8.63 2.458,-17.29 3.492,-26.09 0.533,-4.4 0.954,-8.84 1.225,-13.32 0.138,-2.22 0.228,-4.51 0.288,-6.71 0.07,-2.16 0.153,-4.25 0.263,-6.45 0.445,-8.6 1.265,-17.3 1.886,-26.1 0.658,-8.8 1.101,-17.7 0.855,-26.8 -0.242,-9.1 -1.314,-18.3 -3.662,-27.3 l -0.431,-1.6 -0.173,-0.7 -0.158,-0.7 c -0.206,-0.9 -0.382,-1.8 -0.539,-2.8 -0.314,-2 -0.547,-4.1 -0.815,-6.3 -0.271,-2.2 -0.578,-4.6 -1.083,-7 -0.249,-1.2 -0.555,-2.5 -0.921,-3.7 l -0.521,-1.7 -0.555,-1.6 c -1.512,-4.4 -3.133,-8.4 -4.176,-12.1 -1.034,-3.7 -1.458,-7.5 -1.538,-11.5 -0.194,-8.1 1.159,-16.5 2.266,-25.3 2.187,-17.4 4.501,-34.8 6.195,-52.3 0.868,-8.8 1.553,-17.6 2.098,-26.3 0.61,-8.7 1.4,-17.6 1.335,-26.5 -0.02,-2.2 -0.124,-4.6 -0.203,-6.7 -0.06,-2.1 -0.07,-4.3 -0.08,-6.5 0,-4.3 0.06,-8.8 -0.119,-13.2 -0.161,-4.4 -0.439,-8.8 -1.12,-13.2 -0.744,-4.4 -1.776,-8.8 -4.005,-12.7 1.584,4.1 2.062,8.5 2.198,12.8 0.154,4.4 -0.06,8.7 -0.398,13 -0.363,4.4 -0.779,8.7 -1.201,13.1 -0.206,2.2 -0.406,4.4 -0.551,6.6 -0.129,2.3 -0.231,4.4 -0.414,6.6 -0.665,8.5 -2.087,17.1 -3.294,25.9 l -1.741,13 -1.874,12.9 -8.107,51.9 c -1.29,8.6 -2.88,17.5 -2.85,27 0,4.8 0.56,9.7 1.89,14.5 1.29,4.7 2.99,8.9 4.34,12.9 l 0.49,1.4 0.45,1.5 c 0.27,0.8 0.499,1.7 0.697,2.7 0.4,1.8 0.683,3.8 0.952,5.9 0.27,2.2 0.527,4.4 0.913,6.8 0.194,1.2 0.421,2.4 0.701,3.6 l 0.225,0.9 0.243,0.9 0.443,1.6 c 2.221,7.9 3.28,16.2 3.743,24.7 0.908,16.9 -0.77,34.3 -0.796,52.2 0,2.2 0.01,4.42 0.08,6.65 0.07,2.19 0.108,4.28 0.101,6.44 -0.01,4.28 -0.174,8.59 -0.379,12.93 -0.442,8.67 -1.157,17.43 -1.509,26.27 -0.08,2.21 -0.135,4.42 -0.163,6.65 -0.02,2.25 0,4.34 -0.09,6.53 -0.132,4.37 -0.325,8.79 -0.259,13.22 0.05,4.43 0.22,8.88 0.834,13.29 0.328,2.21 0.767,4.406 1.446,6.536 C -2.531,-3.675 -1.589,-1.55 0,0"
           style="fill:#ffffff;fill-opacity:1;fill-rule:nonzero;stroke:none"
           id="path168" /></g><g
         id="g170"
         transform="translate(165.7,526.7)"
         style="fill:#ffffff"><path
           d="m 0,0 c -5.703,-0.643 -11.14,-2.068 -16.4,-4.043 -5.25,-1.978 -10.5,-4.246 -16.04,-6.097 -5.5,-1.86 -11.21,-3.36 -17.02,-4.34 -5.78,-1.02 -11.72,-1.5 -17.43,-1.79 -5.71,-0.3 -11.24,-0.55 -16.43,-1.37 -2.62,-0.41 -5.06,-0.99 -7.5,-1.75 -2.56,-0.81 -5.09,-1.71 -7.44,-2.74 -1.17,-0.51 -2.34,-1.07 -3.34,-1.63 -1,-0.55 -1.9,-1.17 -2.5,-1.69 -0.3,-0.24 -0.5,-0.47 -0.5,-0.52 0,-0.1 0.2,0.15 0.3,0.73 0.1,0.58 -0.1,1.28 -0.2,1.46 -0.2,0.22 -0.1,0.12 0.1,0 0.8,-0.77 3.4,-2.06 5.52,-2.83 2.26,-0.83 4.68,-1.44 7.22,-1.88 5.08,-0.95 10.67,-1.27 16.53,-1.95 l 8.46,-1.11 8.36,-0.96 c 5.59,-0.62 11.22,-1.11 16.86,-1.66 l 8.48,-0.78 8.55,-0.9 c 11.34,-1.27 22.477,-2.74 33.638,-3.08 5.582,-0.17 11.152,0 16.712,0.62 2.78,0.31 5.56,0.77 8.3,1.4 2.74,0.61 5.56,1.51 8.44,1.63 -2.76,-0.81 -5.23,-2.14 -7.87,-3.35 -2.66,-1.16 -5.4,-2.11 -8.2,-2.94 -5.59,-1.66 -11.37,-2.64 -17.157,-3.25 -11.6,-1.18 -23.193,-0.8 -34.543,-0.44 -11.25,0.35 -22.75,0.59 -34.21,1.42 -2.88,0.18 -5.75,0.45 -8.63,0.72 l -8.48,0.9 c -5.45,0.58 -11.25,0.84 -17.38,1.92 -3.05,0.57 -6.17,1.35 -9.2,2.51 -0.8,0.3 -1.6,0.6 -2.3,0.94 l -1.2,0.54 -1.1,0.54 c -1.5,0.81 -3.1,1.7 -4.8,3.27 -0.9,0.79 -1.8,1.78 -2.6,3.25 -0.3,0.74 -0.7,1.61 -0.9,2.58 -0.2,0.96 -0.2,2.02 -0.1,3 0.3,2 1.2,3.52 2,4.61 0.8,1.1 1.6,1.88 2.4,2.55 1.6,1.31 3.1,2.18 4.6,2.97 1.5,0.77 3,1.39 4.4,1.96 2.94,1.13 5.82,2.022 8.73,2.804 3.02,0.834 6.17,1.346 9.2,1.652 6.11,0.627 11.98,0.437 17.64,0.307 2.84,-0.05 5.61,-0.148 8.37,-0.122 2.76,0.02 5.51,0.129 8.26,0.3 5.49,0.369 10.96,1.125 16.45,2.216 5.47,1.03 10.97,2.553 16.68,3.619 2.85,0.527 5.74,0.939 8.634,1.113 C -5.736,0.389 -2.845,0.348 0,0"
           style="fill:#ffffff;fill-opacity:1;fill-rule:nonzero;stroke:none"
           id="path172" /></g><g
         id="g174"
         transform="translate(281.1,789.9)"
         style="fill:#ffffff"><path
           d="m 0,0 c 0.542,-5.292 0.168,-10.59 0.024,-15.85 -0.191,-5.27 -0.529,-10.53 -0.868,-15.77 l -1.14,-15.69 -0.263,-3.88 -0.114,-1.9 c -0.03,-0.61 -0.06,-1.26 -0.05,-1.72 l 0.05,-7.82 c 0.115,-10.4 0.371,-20.83 0.589,-31.3 0.02,-1.33 0.07,-2.57 0.08,-3.97 l -0.01,-2.09 -0.06,-2.11 c -0.107,-2.8 -0.336,-5.5 -0.641,-8.3 -0.641,-5.4 -1.644,-10.7 -2.698,-15.9 l -3.344,-15.5 c -0.703,-2.9 -1.504,-5.4 -2.315,-8 -0.83,-2.5 -1.65,-5 -2.54,-7.5 -3.51,-10 -7.27,-19.8 -11.1,-29.6 l -1.4,-3.6 c -0.48,-1.2 -0.88,-2.3 -1.32,-3.6 l -2.56,-7.4 c -0.88,-2.5 -1.78,-5 -2.81,-7.5 -0.52,-1.3 -1.05,-2.5 -1.62,-3.7 l -1.65,-3.6 c -2.25,-4.8 -4.62,-9.8 -8.13,-14.1 -1.76,-2.1 -3.82,-4.1 -6.29,-5.4 -2.47,-1.3 -5.32,-1.9 -7.93,-1.4 2.64,0.2 5.06,1.3 6.92,2.9 1.9,1.6 3.36,3.6 4.55,5.8 2.37,4.4 3.88,9.3 5.37,14.3 l 1.15,3.8 c 0.38,1.2 0.71,2.4 1.04,3.6 0.65,2.5 1.25,5 1.82,7.5 0.57,2.6 1.15,5.1 1.79,7.7 0.31,1.3 0.67,2.7 1.03,4 0.36,1.3 0.74,2.5 1.11,3.8 2.98,10.1 6.18,20 9.21,30 l 2.23,7.4 c 0.7,2.5 1.41,5 1.87,7.2 l 0.76,3.8 0.81,3.9 1.61,7.6 c 1.08,5.1 2.03,10.1 2.7,15 0.34,2.5 0.61,5 0.77,7.4 l 0.11,1.84 0.1,1.84 0.1,3.89 c 0.21,10.51 0.57,21.05 1.36,31.61 0.19,2.63 0.44,5.3 0.69,7.9 0.1,0.84 0.17,1.5 0.27,2.19 l 0.32,2.01 c 0.21,1.32 0.469,2.62 0.707,3.92 0.967,5.2 2.034,10.34 3.117,15.49 1.106,5.14 2.216,10.27 3.401,15.39 l 1.727,7.692 C -0.956,-5.161 -0.315,-2.608 0,0"
           style="fill:#ffffff;fill-opacity:1;fill-rule:nonzero;stroke:none"
           id="path176" /></g><g
         id="g178"
         transform="translate(174.3,577.3)"
         style="fill:#ffffff"><path
           d="m 0,0 -19.48,-5.845 c -3.25,-0.951 -6.51,-1.898 -9.81,-2.755 -3.31,-0.876 -6.57,-1.68 -10.12,-2.35 -3.48,-0.59 -6.88,-1.06 -10.22,-1.45 -3.33,-0.42 -6.59,-0.82 -9.74,-1.32 -3.15,-0.53 -6.2,-1.13 -9.02,-2 -2.81,-0.88 -5.41,-1.95 -7.53,-3.39 l 2.46,3.36 c -0.1,-0.25 0,-0.31 0,-0.21 0,0.1 -0.1,0.25 -0.1,0.19 0,-0.12 0.79,-0.8 1.91,-1.31 2.28,-1.09 5.49,-1.94 8.72,-2.51 3.26,-0.62 6.67,-1.02 10.13,-1.37 3.49,-0.38 6.94,-0.57 10.72,-1 7.26,-0.83 14.39,-2.01 21.47,-3.32 l 10.61,-2 10.677,-2.05 c -7.195,-1.3 -14.507,-1.75 -21.747,-1.98 -7.24,-0.21 -14.42,-0.15 -21.51,-0.23 -0.93,0 -1.69,0 -2.6,-0.1 l -2.7,-0.1 c -1.82,0 -3.66,0 -5.51,0 -3.71,0 -7.46,0.26 -11.3,0.73 -1.92,0.26 -3.86,0.59 -5.85,1.05 -1.99,0.48 -4.03,1.06 -6.16,2.05 -1.07,0.5 -2.17,1.09 -3.29,1.89 -1.12,0.8 -2.28,1.82 -3.3,3.23 -1.02,1.39 -1.84,3.25 -2.08,5.13 -0.26,1.88 0,3.65 0.41,5.11 l 0.62,2.17 1.84,1.195 c 3.51,2.277 7.25,3.755 10.92,4.703 3.67,0.966 7.28,1.519 10.81,1.834 7.06,0.695 13.87,0.511 20.32,0.821 3.15,0.117 6.53,0.486 9.86,0.735 3.34,0.297 6.72,0.572 10.1,0.816 C -13.72,0.242 -6.842,0.566 0,0"
           style="fill:#ffffff;fill-opacity:1;fill-rule:nonzero;stroke:none"
           id="path180" /></g><g
         id="g182"
         transform="translate(259,810.7)"
         style="fill:#ffffff"><path
           d="m 0,0 c 3.027,-2.995 6.684,-5.16 10.37,-7.179 3.7,-2.017 7.51,-3.821 11.37,-5.491 3.88,-1.65 7.77,-3.26 11.71,-4.7 3.91,-1.44 7.93,-2.66 11.98,-3.91 16.19,-4.97 32.45,-9.86 48.68,-14.72 4.05,-1.21 8.09,-2.42 12.09,-3.55 l 1.5,-0.41 1.4,-0.34 c 0.9,-0.23 1.9,-0.43 2.9,-0.63 2,-0.39 4,-0.73 6.1,-1.06 8.2,-1.26 16.6,-2.3 25,-3.21 8.3,-0.9 16.7,-1.76 25.1,-2.44 8.4,-0.7 16.8,-1.37 25.1,-1.62 2.1,-0.1 4,-0.1 6.2,-0.1 l 6.4,-0.1 12.7,-0.26 c 8.4,-0.19 16.7,-0.17 24.8,0.54 4.1,0.35 8.1,0.89 12,1.68 2,0.39 3.9,0.86 5.8,1.36 2,0.51 3.8,1.1 5.9,1.77 8.3,2.63 16.7,4.64 24.9,6.58 8.3,1.95 16.5,3.8 24.6,6.04 l 3,0.85 c 0.8,0.22 1.8,0.58 2.7,0.95 1.9,0.73 3.8,1.56 5.7,2.38 3.9,1.65 7.8,3.4 11.6,5.16 7.7,3.46 15.4,7.12 23,10.79 3.8,1.832 7.6,3.703 11.4,5.631 1.9,0.954 3.8,1.922 5.7,2.934 1.8,1.032 3.7,2.025 5.4,3.289 -1.5,-1.527 -3.2,-2.806 -4.9,-4.079 -1.8,-1.268 -3.5,-2.494 -5.3,-3.705 -3.5,-2.389 -7.1,-4.7 -10.7,-6.98 -7.2,-4.55 -14.5,-8.86 -21.9,-13.13 -3.7,-2.11 -7.5,-4.17 -11.3,-6.18 -1.9,-1.01 -3.8,-1.99 -5.8,-2.94 -1,-0.47 -2,-0.94 -3.2,-1.39 l -3,-1.11 c -8.2,-2.87 -16.4,-5.27 -24.6,-7.63 -8.1,-2.37 -16.2,-4.74 -23.9,-7.48 -2,-0.7 -4.1,-1.5 -6.3,-2.15 -2.1,-0.67 -4.3,-1.23 -6.5,-1.74 -4.3,-1.01 -8.8,-1.72 -13.1,-2.23 -8.8,-1 -17.6,-1.09 -26.1,-1.06 l -12.8,0.18 -6.3,0.1 c -2,0 -4.3,0 -6.5,0.1 -8.7,0.33 -17.2,1.02 -25.8,1.83 -8.5,0.86 -17,1.8 -25.4,2.95 -8.5,1.17 -17,2.41 -25.5,4.1 -2.1,0.42 -4.2,0.86 -6.4,1.38 -1.1,0.25 -2.1,0.52 -3.2,0.83 -0.6,0.15 -1.2,0.32 -1.7,0.5 l -1.6,0.52 c -4.1,1.37 -8.1,2.79 -12.12,4.21 -16.03,5.76 -31.94,11.71 -47.73,18.14 -3.93,1.64 -7.9,3.27 -11.8,5.16 -3.88,1.87 -7.69,3.84 -11.4,6 -3.7,2.16 -7.35,4.42 -10.842,6.926 C 7.676,-7.437 5.979,-6.115 4.372,-4.69 2.766,-3.272 1.233,-1.741 0,0"
           style="fill:#ffffff;fill-opacity:1;fill-rule:nonzero;stroke:none"
           id="path184" /></g><g
         id="g186"
         transform="translate(641,818.7)"
         style="fill:#ffffff"><path
           d="m 0,0 c 1.452,0.182 2.837,0.703 4.233,1.131 1.394,0.449 2.781,0.919 4.163,1.401 2.764,0.965 5.524,1.971 8.264,2.994 5.5,2.022 10.98,4.102 16.42,6.254 5.44,2.17 10.88,4.31 16.24,6.59 2.68,1.14 5.34,2.31 7.94,3.55 1.29,0.62 2.57,1.25 3.77,1.92 0.59,0.33 1.17,0.67 1.63,1 l 1.67,1.25 c 9.39,7.02 18.86,14.03 28.71,20.63 2.47,1.64 4.95,3.28 7.46,4.84 2.4,1.49 4.8,3.06 7.1,4.71 4.6,3.29 9,6.93 13.5,10.71 4.5,3.77 9.2,7.61 14.1,11.15 1.2,0.89 2.4,1.76 3.7,2.6 l 0.8,0.56 0.8,0.57 1.6,1.25 c 2.2,1.72 4.4,3.59 6.6,5.47 8.8,7.58 17.4,15.52 26,23.42 l 6.4,6 0.7,0.6 0.7,0.7 1.4,1.5 2.9,3.2 c 2,2.1 3.9,4.2 5.8,6.4 2,2.2 3.9,4.4 5.6,6.5 l 0.6,0.8 0.3,0.3 0.3,0.4 1.3,1.8 c 1,1.3 1.9,2.5 3,3.7 1,1.3 2.2,2.6 3.5,3.8 0.7,0.5 1.4,1.1 1.9,1.6 l 1.6,1.3 c 1.9,1.6 3.6,3.5 5.4,5.7 l 1.3,1.6 1.3,1.6 c 0.8,1.1 1.6,2.2 2.4,3.3 6.4,9.1 11.2,19.4 16.4,30.1 2.6,5.2 5.3,10.6 8.5,15.9 1.5,2.6 3.2,5.2 4.9,7.7 0.9,1.3 1.8,2.5 2.8,3.8 0.9,1.1 1.9,2.4 2.8,3.5 3.9,4.7 8,9.1 12,13.4 2,2.2 4.1,4.3 6,6.4 1.9,2.1 3.8,4.2 5.7,6.4 3.9,4.4 7.6,8.9 11.6,13.4 4,4.4 8.2,8.7 12.7,12.8 4.3,3.9 8.5,7.9 12.6,12 4.1,4.1 8.2,8.3 12.3,12.4 4.2,4.2 8.3,8.4 12.6,12.5 2.2,2 4.3,4 6.5,6 2.2,2 4.3,3.9 6.5,5.9 8.4,7.9 16.5,16.6 25.4,24.3 2.3,2 4.5,3.9 6.8,5.7 2.4,1.8 4.6,3.6 6.9,5.5 4.6,3.6 9.2,7.3 13.9,10.8 -4.3,-4 -8.5,-8.1 -12.7,-12.2 -2.1,-2 -4.2,-4.1 -6.4,-6 -2.1,-2 -4.1,-4.1 -6.2,-6.2 -4,-4.2 -7.9,-8.5 -11.8,-12.9 -3.9,-4.4 -7.7,-8.8 -11.8,-13.1 -2,-2.2 -4.1,-4.4 -6.2,-6.4 -2,-2.1 -4,-4.2 -6,-6.3 -4,-4.2 -7.9,-8.6 -11.7,-12.9 -7.8,-8.8 -15.8,-17.6 -24.3,-25.9 -4,-3.9 -7.8,-8.2 -11.5,-12.6 -3.7,-4.5 -7.3,-9 -11.1,-13.6 -1.9,-2.3 -3.8,-4.6 -5.7,-6.8 -2.1,-2.4 -4,-4.5 -6,-6.6 -3.9,-4.4 -7.7,-8.7 -11.2,-13.1 -0.9,-1.1 -1.7,-2.1 -2.6,-3.4 -0.8,-1 -1.6,-2.2 -2.4,-3.3 -1.5,-2.3 -3,-4.7 -4.4,-7.1 -2.8,-4.9 -5.3,-10 -7.9,-15.2 -5,-10.5 -10,-21.5 -17.1,-31.7 -0.9,-1.3 -1.9,-2.6 -2.8,-3.8 l -1.4,-1.8 -1.5,-1.8 c -2,-2.4 -4.2,-4.8 -6.8,-7 -0.6,-0.6 -1.3,-1.1 -1.8,-1.5 -0.6,-0.5 -1,-0.9 -1.4,-1.3 -0.9,-0.7 -1.7,-1.6 -2.6,-2.6 -0.8,-1 -1.7,-2 -2.5,-3.1 l -1.3,-1.7 -0.4,-0.5 -0.4,-0.6 -0.7,-0.9 c -2,-2.4 -4,-4.6 -6,-6.8 -2,-2.2 -4,-4.4 -6,-6.5 l -3.1,-3.3 -1.6,-1.6 -0.9,-0.9 c -0.3,-0.3 -0.7,-0.7 -0.9,-0.9 l -6.6,-5.8 c -8.8,-7.83 -17.6,-15.62 -26.8,-23.12 -2.3,-1.87 -4.7,-3.73 -7.1,-5.56 -0.6,-0.46 -1.3,-0.92 -1.9,-1.38 l -1,-0.69 -1,-0.65 c -1.2,-0.76 -2.4,-1.52 -3.6,-2.31 C 136.2,66.76 131.6,63.3 127,59.71 122.3,56.12 117.6,52.46 112.5,49.15 110,47.49 107.4,45.91 104.7,44.43 102.2,43 99.71,41.57 97.21,40.1 87.23,34.2 77.5,27.73 67.69,21.29 L 65.75,20.04 C 64.97,19.57 64.26,19.23 63.55,18.89 62.13,18.23 60.74,17.66 59.34,17.11 56.56,16.01 53.77,15.02 50.98,14.06 45.4,12.14 39.8,10.32 34.16,8.652 28.53,6.969 22.88,5.341 17.21,3.808 14.36,3.059 11.52,2.327 8.659,1.639 7.229,1.296 5.799,0.96 4.359,0.655 2.918,0.385 1.476,0.019 0,0"
           style="fill:#ffffff;fill-opacity:1;fill-rule:nonzero;stroke:none"
           id="path188" /></g><g
         id="g190"
         transform="translate(531.6,755.4)"
         style="fill:#ffffff"><path
           d="m 0,0 c -0.068,-5.161 0.568,-10.27 1.257,-15.36 0.682,-5.1 1.497,-10.18 2.367,-15.25 l 1.302,-7.63 c 0.393,-2.38 1.063,-4.89 1.678,-7.36 1.269,-4.97 2.615,-9.94 3.966,-14.91 5.27,-19.93 10.73,-39.79 15.62,-59.89 1.22,-5.1 2.42,-10.1 3.51,-15.2 0.28,-1.3 0.54,-2.6 0.78,-3.9 l 0.35,-2.1 c 0.11,-0.7 0.2,-1.5 0.27,-2.1 0.3,-2.4 0.66,-4.9 1.09,-7.3 1.73,-9.7 4.71,-18.9 10.19,-26.2 1.36,-1.7 2.89,-3.5 4.38,-4.8 1.52,-1.3 3.24,-2.5 5.14,-3.4 3.79,-1.8 8.27,-2.8 13,-3.4 4.74,-0.6 9.73,-0.7 14.9,-0.9 2.59,-0.1 5.23,-0.2 7.95,-0.4 2.87,-0.2 5.11,-0.5 7.66,-0.6 9.99,-0.7 20.19,-0.7 30.49,-0.7 5.1,0 10.3,0 15.5,-0.1 5.3,-0.1 10.4,-0.3 15.6,-0.5 20.6,-0.7 41.2,-1.8 61.7,-2.6 2.6,-0.1 5.1,-0.2 7.8,-0.3 2.7,-0.2 5.3,-0.4 7.9,-0.6 5.2,-0.5 10.3,-1 15.4,-1.7 10.3,-1.2 20.4,-2.3 30.5,-2.4 2.5,-0.1 5,0 7.6,0.1 l 7.7,0.4 c 5.1,0.3 10.3,0.6 15.5,0.7 5.1,0.1 10.3,0.2 15.5,0.2 5.1,-0.1 10.3,-0.2 15.5,-0.5 -5.2,-0.4 -10.3,-0.8 -15.4,-1.3 -5.2,-0.5 -10.3,-1.1 -15.4,-1.7 l -15.3,-2 -7.7,-1.1 c -2.6,-0.3 -5.2,-0.5 -7.9,-0.7 -10.5,-0.6 -20.9,0 -31.2,0.5 -5.2,0.3 -10.3,0.6 -15.4,0.8 -2.5,0.1 -5.1,0.1 -7.6,0.2 l -7.6,-0.1 c -20.7,-0.1 -41.4,0.5 -61.9,0.8 -5.1,0 -10.3,0.1 -15.4,0.1 -5.1,0 -10.2,0 -15.4,-0.1 -10.3,0 -20.7,-0.1 -31.31,0.6 -2.59,0.2 -5.48,0.5 -7.74,0.7 -2.42,0.2 -4.93,0.3 -7.49,0.4 -5.13,0.2 -10.46,0.3 -15.95,1.1 -5.47,0.7 -11.2,2 -16.67,4.7 -2.72,1.4 -5.34,3.1 -7.66,5.2 -0.53,0.5 -1.29,1.2 -1.65,1.6 -0.58,0.6 -1.01,1.1 -1.51,1.7 -0.95,1.1 -1.85,2.2 -2.69,3.4 -3.4,4.7 -5.9,9.9 -7.71,15.2 -1.83,5.3 -2.96,10.7 -3.75,16 -0.38,2.7 -0.68,5.3 -0.92,8 -0.1,0.7 -0.1,1.1 -0.17,1.7 l -0.24,1.8 -0.59,3.7 c -0.86,5 -1.84,10 -2.84,15.1 -4.03,20.1 -8.189,40.32 -12.153,60.57 -0.952,5.08 -1.9,10.16 -2.779,15.27 -0.421,2.57 -0.895,5.09 -1.131,7.83 l -0.606,7.72 c -0.374,5.16 -0.713,10.32 -0.882,15.5 -0.066,2.59 -0.095,5.18 -0.042,7.77 C -0.53,-5.152 -0.403,-2.554 0,0"
           style="fill:#ffffff;fill-opacity:1;fill-rule:nonzero;stroke:none"
           id="path192" /></g><g
         id="g194"
         transform="translate(879.7,617.3)"
         style="fill:#ffffff"><path
           d="m 0,0 c -4.258,-3.094 -9.595,-4.618 -14.81,-5.471 -5.26,-0.861 -10.57,-1.082 -15.78,-1.233 l -7.75,-0.185 -3.79,-0.153 -3.87,-0.212 c -5.25,-0.263 -10.47,-0.392 -15.73,-0.373 -5.25,0.02 -10.53,0.185 -15.8,0.563 -2.64,0.183 -5.28,0.399 -7.92,0.696 l -7.81,0.963 c -5.17,0.664 -10.34,1.463 -15.64,2.404 -2.6,0.482 -5.2,1.045 -7.9,1.71 l -7.6,1.993 c -4.9,1.352 -9.9,2.669 -14.9,3.942 -4.9,1.321 -9.9,2.552 -14.9,3.775 -9.9,2.411 -19.9,4.731 -29.8,6.141 -2.4,0.31 -4.9,0.59 -7.1,0.65 -2.2,0 -4.8,-0.22 -7.3,-0.47 -5,-0.56 -10,-1.34 -15.1,-2.18 -10.2,-1.71 -20.4,-3.528 -30.5,-5.893 4.6,2.458 9.4,4.503 14.3,6.403 4.9,1.9 9.8,3.62 14.8,5.22 5,1.58 10,3.04 15.2,4.22 2.7,0.6 5.2,1.12 8.2,1.4 3,0.22 5.6,0.18 8.4,0 5.4,-0.27 10.6,-0.89 15.9,-1.67 5.2,-0.76 10.3,-1.74 15.5,-2.75 5.1,-1.03 10.2,-2.2 15.3,-3.39 5.1,-1.23 10.1,-2.52 15.1,-3.85 l 7.5,-2.03 c 2.3,-0.613 4.8,-1.132 7.2,-1.65 4.9,-1.048 9.99,-1.895 15.05,-2.789 5.12,-0.912 10.03,-1.713 15.07,-2.389 5.03,-0.649 10.09,-1.216 15.18,-1.666 5.09,-0.466 10.22,-0.831 15.33,-1.167 l 3.9,-0.241 c 1.34,-0.086 2.66,-0.193 3.97,-0.33 2.62,-0.268 5.21,-0.567 7.77,-0.871 5.13,-0.613 10.2,-1.189 15.27,-1.31 2.54,-0.04 5.077,0.02 7.599,0.331 C -4.932,-1.539 -2.433,-0.952 0,0"
           style="fill:#ffffff;fill-opacity:1;fill-rule:nonzero;stroke:none"
           id="path196" /></g><g
         id="g198"
         transform="translate(881,620.7)"
         style="fill:#ffffff"><path
           d="M 0,0 C 1.075,1.755 2.394,3.371 3.817,4.877 5.24,6.389 6.765,7.808 8.355,9.151 11.57,11.8 15.02,14.18 18.81,16.14 c 1.91,0.95 3.88,1.85 6.2,2.33 0.63,0.11 1.01,0.19 1.6,0.27 0.56,0.1 1.11,0.16 1.64,0.21 1.09,0.1 2.19,0.18 3.3,0.17 4.42,0 8.89,-0.97 12.96,-2.64 4.09,-1.67 7.79,-3.96 11.28,-6.33 3.59,-2.405 6.85,-5.254 9.93,-8.046 3.1,-2.809 6.04,-5.688 8.99,-8.456 2.95,-2.766 5.89,-5.438 8.9,-7.718 6.11,-4.61 13.11,-8.15 20.39,-11.49 7.4,-3.31 15,-6.58 22.5,-10.5 3.8,-1.95 7.5,-4.1 11.1,-6.45 3.7,-2.42 7.1,-5.04 10.3,-7.64 3.3,-2.61 6.4,-5.18 9.5,-7.5 0.8,-0.59 1.5,-1.12 2.4,-1.71 0.8,-0.63 1.7,-1.26 2.6,-1.92 1.7,-1.33 3.5,-2.75 5.2,-4.34 1.7,-1.59 3.3,-3.36 4.8,-5.38 1.5,-2.03 2.8,-4.34 3.7,-6.96 1,-2.6 1.4,-5.5 1.2,-8.32 v -0.53 -0.27 l -0.1,-0.4 v -0.38 l -0.1,-0.75 c -0.2,-0.95 -0.5,-1.79 -0.9,-2.68 -0.7,-1.75 -1.9,-3.35 -3.2,-4.53 -1.3,-1.21 -2.8,-2.03 -4.1,-2.64 -1.4,-0.62 -2.7,-1.02 -4,-1.33 -2.5,-0.61 -4.9,-0.81 -7.1,-0.91 -4.6,-0.2 -8.9,0.1 -13,0.4 l -3,0.2 c -1.2,0.1 -2.3,0.22 -3.4,0.34 -2.1,0.26 -4.3,0.6 -6.3,0.96 -4.2,0.73 -8.2,1.63 -12.1,2.36 -2,0.36 -3.9,0.68 -5.8,0.93 -1,0.13 -1.9,0.23 -2.9,0.32 l -3,0.24 c -4.5,0.43 -8.71,1.29 -12.84,2.31 -4.11,1.01 -8.08,2.23 -11.98,3.37 -1.95,0.56 -3.88,1.11 -5.8,1.61 -1.91,0.48 -3.97,1 -5.97,1.55 -8.02,2.14 -15.9,4.64 -23.7,7.25 l -23.27,7.98 -5.82,1.96 c -1.94,0.65 -3.86,1.2 -5.84,1.74 -3.931,1.12 -7.999,2.1 -11.738,3.84 3.972,-1.08 8.015,-1.53 12.098,-2.06 2.03,-0.27 4.12,-0.62 6.14,-1.03 l 6.04,-1.24 c 8.06,-1.71 16.03,-3.7 24.01,-5.53 7.96,-1.88 15.9,-3.7 23.85,-5.23 l 6.03,-1.11 c 2.08,-0.4 4.12,-0.85 6.14,-1.3 4.03,-0.91 7.98,-1.82 11.86,-2.59 3.89,-0.75 7.79,-1.32 11.39,-1.46 h 1.5 l 1.6,-0.1 c 1.1,0 2.2,-0.13 3.3,-0.23 2.2,-0.19 4.3,-0.46 6.4,-0.76 4.2,-0.61 8.2,-1.33 12.1,-1.91 2,-0.29 3.9,-0.53 5.8,-0.7 1,-0.1 1.9,-0.16 2.8,-0.2 l 3.1,-0.13 c 4.1,-0.19 8,-0.41 11.6,-0.17 1.8,0.11 3.6,0.34 5,0.71 1.4,0.37 2.6,0.95 2.9,1.34 0.2,0.19 0.3,0.27 0.3,0.41 0,0.1 0.1,0.21 0.1,0.26 0,0 0,0 0,0 v 0.39 c 0.1,0.17 0,-0.13 0,-0.1 v 0.1 0.12 l 0.1,0.24 c 0,1.27 -0.2,2.49 -0.6,3.75 -0.9,2.52 -2.9,5.14 -5.5,7.55 -1.3,1.22 -2.7,2.4 -4.2,3.55 -0.8,0.58 -1.6,1.15 -2.4,1.72 -0.8,0.59 -1.7,1.26 -2.6,1.9 -3.4,2.6 -6.6,5.29 -9.7,7.86 -3.1,2.57 -6.2,5.02 -9.3,7.14 -3.2,2.19 -6.6,4.2 -10,6.14 -7,3.86 -14.3,7.22 -21.75,10.98 -7.44,3.74 -14.99,8 -21.71,13.66 -3.39,2.84 -6.31,5.91 -9.17,8.92 l -8.34,8.981 c -2.78,2.928 -5.54,5.671 -8.57,8.107 -3.08,2.509 -6.24,4.796 -9.6,6.562 -3.35,1.78 -6.94,2.98 -10.72,3.34 -0.94,0.1 -1.89,0.13 -2.85,0.14 -0.48,0 -0.96,0 -1.42,0 -0.43,0 -1.07,-0.1 -1.45,-0.1 -1.73,-0.19 -3.64,-0.73 -5.48,-1.4 C 16.44,11.74 12.83,9.854 9.421,7.694 5.999,5.54 2.724,3.08 0,0"
           style="fill:#ffffff;fill-opacity:1;fill-rule:nonzero;stroke:none"
           id="path200" /></g><g
         id="g202"
         transform="translate(648.6,804.9)"
         style="fill:#ffffff"><path
           d="m 0,0 c 1.671,-3.413 2.886,-7.068 3.884,-10.74 1.012,-3.68 1.795,-7.41 2.479,-11.15 1.345,-7.48 2.199,-15.01 2.82,-22.53 0.612,-7.53 0.937,-15.05 1.107,-22.56 0.11,-3.75 0.1,-7.5 0.15,-11.23 0,-1.87 0,-3.69 0,-5.69 0,-1.92 -0.1,-3.83 -0.16,-5.74 -0.19,-3.81 -0.464,-7.6 -0.784,-11.36 -0.372,-3.8 -0.75,-7.5 -1.236,-11.3 -0.969,-7.5 -2.141,-14.9 -3.637,-22.3 -1.49,-7.4 -3.248,-14.9 -5.649,-22.1 -2.41,-7.3 -5.391,-14.3 -9.214,-20.9 1.365,7.5 2.605,14.8 3.46,22.2 0.883,7.3 1.487,14.6 2.058,22.1 1.132,14.7 2.291,29.6 3.014,44.2 0.09,1.83 0.172,3.66 0.224,5.46 l 0.111,5.53 c 0.118,3.75 0.188,7.47 0.331,11.19 l 0.844,22.3 c 0.297,7.42 0.572,14.84 0.733,22.26 C 0.646,-14.93 0.769,-7.525 0,0"
           style="fill:#ffffff;fill-opacity:1;fill-rule:nonzero;stroke:none"
           id="path204" /></g></g></g></svg>
