<?xml version="1.0" encoding="UTF-8" standalone="no"?>
<svg
   width="148mm"
   height="105mm"
   viewBox="0 0 148 105"
   xml:space="preserve"
   version="1.1"
   id="svg61"
   sodipodi:docname="Line_Konasana - D0013-min.svg"
   inkscape:version="1.2.1 (9c6d41e410, 2022-07-14)"
   xmlns:inkscape="http://www.inkscape.org/namespaces/inkscape"
   xmlns:sodipodi="http://sodipodi.sourceforge.net/DTD/sodipodi-0.dtd"
   xmlns="http://www.w3.org/2000/svg"
   xmlns:svg="http://www.w3.org/2000/svg"><sodipodi:namedview
     id="namedview63"
     pagecolor="#505050"
     bordercolor="#eeeeee"
     borderopacity="1"
     inkscape:showpageshadow="0"
     inkscape:pageopacity="0"
     inkscape:pagecheckerboard="0"
     inkscape:deskcolor="#505050"
     inkscape:document-units="mm"
     showgrid="false"
     inkscape:zoom="0.5947"
     inkscape:cx="-1.682"
     inkscape:cy="199.3"
     inkscape:window-width="1620"
     inkscape:window-height="1058"
     inkscape:window-x="-6"
     inkscape:window-y="-6"
     inkscape:window-maximized="1"
     inkscape:current-layer="svg61" /><defs
     id="defs5"><clipPath
       clipPathUnits="userSpaceOnUse"
       id="a"><path
         d="M0 0h2480v3508H0z"
         id="path2" /></clipPath></defs><g
     clip-path="url(#a)"
     style="fill:#353535;fill-opacity:1"
     transform="matrix(.0559 0 0 -.0559 -2.849 157.5)"
     id="g59"><g
       style="fill:#353535;fill-opacity:1"
       id="g9"><path
         d="M0 0a173.432 173.432 0 0 1 15.52-10.51c5.35-3.23 10.86-6.15 16.45-8.92 11.19-5.53 22.77-10.24 34.45-14.78 11.66-4.59 23.43-9.02 35.08-13.92 5.9-2.45 11.7-5.02 17.4-7.79l16.9-8.34c11.2-5.52 22.5-10.81 34-14.96 2.8-1.04 5.7-2 8.6-2.88 3-.88 5.9-1.65 8.9-2.4 6-1.53 12-2.93 18.1-4.16 6-1.24 12.1-2.28 18.3-3.3 3.1-.53 6.2-1.02 9.6-1.8 1.7-.41 3.5-.88 5.6-1.74 1-.44 2-.99 3.1-1.77s2.3-1.84 3.1-3.03c.9-1.3 1.5-2.6 1.9-3.9.4-1.2.6-2.4.8-3.4.2-2.2.2-4 .2-5.8l-.1-1.3v-.6l-.1-.4v-.4c-.2-1.4-.5-2.6-.9-3.8-.9-2.5-2.5-4.7-4.3-6.3-1.7-1.7-3.5-2.8-5.3-3.8-1.8-.9-3.6-1.6-5.3-2.1-3.4-1.2-6.7-1.9-9.8-2.6l-.5-.1h-.6c-16.6-.8-33.3-1.8-50.2-2.3-16.8-.5-33.9-.4-50.9 1.3-8.5.8-17 2.1-25.48 3.8-4.22.8-8.42 1.8-12.59 2.8-2.08.6-4.16 1.1-6.24 1.7l-3.01.9-1.51.4-1.38.4c-15.18 3.9-31.23 5-47.09 3.7-3.97-.3-7.93-.8-11.87-1.4-1.97-.3-3.934-.7-5.896-1l-5.985-1.2c-8.028-1.7-16.099-3.6-24.249-5.5l-12.3-2.7c-4.13-.8-8.28-1.7-12.47-2.4-4.19-.8-8.43-1.5-12.7-2-2.15-.3-4.29-.5-6.45-.7l-3.25-.3c-1.09-.1-2.2-.1-3.2-.2-4.13-.2-8.35-.4-12.59-.6-4.24-.2-8.51-.3-12.84-.2-4.2 0-8.6.2-12.9.6-4.3.4-8.6 1-12.9 2-4.3.9-8.6 2.2-12.7 4.1-4.1 1.8-8.1 4.3-11.2 7.8-3.2 3.4-5.4 7.7-6.1 12.1-.8 4.5-.4 8.8.6 13l1-.2c-.1-4.1.3-8.2 1.7-11.9 1.3-3.7 3.6-6.8 6.5-9.1s6.4-3.9 10.1-5c3.7-1.1 7.6-1.8 11.5-2.2 7.9-.8 16-.5 24.1.1 8.13.6 16.22 1.6 24.57 2.7 15.98 1.8 31.79 6 48.01 10 8.09 2 16.26 4 24.56 5.8l3.093.6 1.589.4 1.601.3c2.143.4 4.287.7 6.443 1.1 4.304.6 8.644 1.1 12.994 1.5 17.41 1.3 35.15.2 52.28-4.4l1.64-.5 1.51-.4 2.99-.9c1.95-.5 3.9-1.1 5.85-1.6 3.92-1 7.86-1.9 11.82-2.8 7.95-1.6 15.95-2.9 24.05-3.8 32.3-3.7 65.5-1.5 99-.5l-1.1-.1c3 .6 5.9 1.2 8.5 2 2.5.7 4.7 1.8 5.8 2.8.6.5.9.9 1.1 1.4.1.2.2.6.2.8l.1.1v.2s0 .2 0 0v.5l.1 1.1c.1 1.3.1 2.7 0 3.6 0 .5-.1.9-.2 1.2 0 .2-.1.3-.1.4l-.2.2c-.2.2-.5.4-.9.6-.9.4-2.1.8-3.5 1.1-2.7.7-5.8 1.3-8.8 1.9-6.2 1.2-12.5 2.4-18.7 3.86-6.2 1.44-12.3 3.03-18.5 4.78-3 .87-6.1 1.82-9.2 2.87-3.1 1.05-6.1 2.18-9.1 3.39-12 4.8-23.3 10.67-34.4 16.63l-16.5 8.96c-5.5 2.94-11 5.72-16.67 8.4-11.26 5.35-22.79 10.3-34.28 15.45-11.46 5.21-22.9 10.62-33.91 16.85C19.35-16.27 8.793-9.154-.631-.775z"
         style="fill:#353535;fill-opacity:1;fill-rule:nonzero;stroke:none"
         transform="translate(1444 1299)"
         id="path7" /></g><g
       style="fill:#353535;fill-opacity:1"
       id="g13"><path
         d="M0 0c3.116-7.563 4.412-15.78 4.943-23.93.474-8.18.05-16.4-1.008-24.54-.539-4.07-1.24-8.12-2.152-12.15-.465-2.01-.978-4.02-1.558-6.01a70.35 70.35 0 0 0-2.104-6c-3.113-7.79-7.317-14.91-10.701-21.94-1.6-3.41-2.82-7.03-3.83-10.73-1.01-3.7-1.79-7.6-2.67-11.6-.43-2-.91-4-1.38-6-.47-1.9-.91-3.8-1.26-5.7-.72-3.7-1.04-7.3-.83-10.8.1-.9.13-1.8.23-2.7 0-.3.14-1.1.19-1.3.1-.3.15-.7.25-1.1.39-1.5.98-3.1 1.74-4.5 1.52-3 3.72-5.8 6.24-8.3 5.102-5.2 11.534-9.4 18.279-12.7.846-.4 1.697-.8 2.554-1.2l2.755-1.3c1.982-.9 3.812-1.8 5.662-2.7 3.69-1.8 7.25-3.7 10.78-5.4 1.76-.9 3.51-1.7 5.26-2.5l1.31-.5 1.51-.7c1.07-.5 2.01-.9 2.96-1.4 1.89-.9 3.64-1.9 5.29-2.6.83-.4 1.63-.8 2.41-1.1.86-.3 1.35-.5 2.1-.7 1.52-.4 3.59-.8 5.88-1.4 1.17-.3 2.41-.7 3.75-1.3 1.33-.5 2.78-1.3 4.23-2.5.35-.3.71-.6 1.06-.9.17-.2.34-.4.51-.5l.24-.3c-.1.1.37-.5.35-.5l.12-.1.2-.3.31-.4c.11-.2.19-.4.25-.5.27-.4.49-.9.69-1.3.76-1.7 1.07-3.1 1.32-4.4.47-2.5.63-4.6.92-6.1.14-.7.31-1.3.39-1.4l.54-1.2.6-1.3c.8-1.6 1.64-3.2 2.47-4.5.4-.6.82-1.1 1.07-1.4.29-.3.78-.7 1.19-1 .86-.6 1.67-.9 2.67-1 1.97-.4 4.97.2 8.19 1.4 3.23 1.2 6.65 2.9 10.22 4.8 3.59 1.8 7.36 3.7 11.66 5.4 2.1.8 4.4 1.6 7 2.1 1.2.3 2.6.5 4 .5.7.1 1.5.1 2.2.1.4-.1.7-.1 1.1-.1l1-.1c5.5-.7 10.3-2.9 14.2-5.2 4-2.4 7.3-4.9 10.4-6.9 1.5-1 2.9-1.8 4.5-2.6s3.2-1.5 4.9-2.2c3.4-1.4 7-2.5 10.8-3.6l11.5-3.4c3.7-1 7.4-1.9 11.2-2.6 7.5-1.4 15.2-2.3 22.8-2.6 7.7-.2 15.4.1 22.9 1.1 7.6 1 15 2.7 22.1 5.1 7.2 2.4 14 5.6 20.2 9.6 6.3 4 12.1 8.9 17.6 14.3 5.5 5.4 10.6 11.3 15.4 17.5 2.4 3.1 4.7 6.2 7 9.5l.8 1.1.8 1.3c.5.7 1 1.5 1.5 2.3 1 1.6 1.9 3.2 2.8 4.9 3.6 6.7 6.5 13.9 9.1 21.3 2.5 7.5 4.6 15.1 6.7 22.9 1 3.9 2 7.8 3.3 11.9.3 1 .7 2 1.1 3.1l.5 1.4.5 1.3c.6 1.8 1.1 3.6 1.6 5.4 2 7.42 3 15.17 3.3 22.97.7 15.63-1.2 31.53-5.7 46.74-2.2 7.62-5 15.07-8.6 22.17-3.6 7.118-7.9 13.872-13.1 20.008l.7.688c5.9-5.592 11-12.11 15.3-19.06 4.3-6.986 7.9-14.426 10.8-22.126 2.9-7.71 5-15.7 6.6-23.81 1.5-8.12 2.5-16.39 2.5-24.73.1-8.33-.5-16.74-2.3-25.05-.4-2.1-.9-4.2-1.5-6.3l-.5-1.5-.5-1.5c-.2-.8-.5-1.7-.7-2.6-1-3.7-1.8-7.7-2.7-11.6-3.5-15.8-7.5-32.1-15-47.4-1-1.9-2-3.8-3.1-5.7-.5-1-1.1-1.9-1.7-2.8l-.8-1.3-.9-1.4c-2.2-3.5-4.6-6.9-7.1-10.2-4.9-6.7-10.2-13.2-16.1-19.3-5.9-6-12.4-11.7-19.6-16.5-7.3-4.9-15.2-8.7-23.3-11.5-16.3-5.8-33.4-7.9-50.4-7.4-8.4.3-16.9 1.2-25.2 2.8-4.2.8-8.3 1.8-12.4 2.9l-11.7 3.5c-4 1.1-8.1 2.4-12.2 4.1-2 .8-4.1 1.8-6.1 2.8-2 1-4.1 2.3-5.9 3.5-3.7 2.4-6.8 4.8-9.8 6.6-2.9 1.8-5.8 2.9-8.3 3.3H118.7h.1l-.4.1h-.8c-.6-.1-1.3-.1-2-.3-1.4-.2-2.9-.7-4.6-1.3-3.2-1.2-6.7-3-10.3-4.7-3.68-1.8-7.5-3.7-11.86-5.3-2.19-.7-4.52-1.4-7.1-1.8-2.57-.5-5.43-.6-8.42-.1s-6 1.8-8.43 3.6c-1.23.9-2.27 1.8-3.37 2.9-1.11 1.3-1.87 2.4-2.55 3.5-1.35 2.1-2.34 4.1-3.25 6.1l-.66 1.5-.68 1.6c-.69 1.7-.95 3.1-1.16 4.4-.39 2.5-.51 4.5-.76 5.9-.12.7-.27 1.3-.33 1.4 0 .1 0 .1 0 0v-.1s.1 0 .11-.1c.1-.1 0 0 0 0l-.11.2c-.1.1.25-.3.11-.1h-.1c-.21.3-1.37.9-2.94 1.3-1.59.5-3.5.9-5.87 1.5-1.2.4-2.59.9-3.6 1.3-1.08.5-2.12 1-3.1 1.5-1.97 1-3.77 2-5.46 2.9-.84.5-1.7.9-2.46 1.3l-1.25.6-1.44.7c-1.92.9-3.79 1.9-5.63 2.8-3.67 2-7.2 4-10.683 5.8-1.726 1-3.503 1.9-5.162 2.7l-2.731 1.4c-.968.4-1.926.9-2.875 1.4-7.556 4.1-14.699 9.1-20.819 15.6-3.04 3.3-5.78 7-7.77 11.3-.98 2.2-1.77 4.5-2.25 6.9-.13.6-.23 1.2-.32 1.8-.1.8-.11 1-.18 1.8-.1 1.1-.13 2.2-.15 3.4-.1 4.4.59 8.9 1.59 13.1.49 2.1 1.05 4.1 1.62 6.1.57 1.9 1.08 3.8 1.6 5.7 1.03 3.9 2.02 7.9 3.31 11.9 1.27 4.02 2.93 8 4.98 11.8 4.05 7.29 8.47 13.89 11.759 20.95a66.46 66.46 0 0 1 2.216 5.31c.656 1.85 1.252 3.73 1.804 5.62 1.123 3.78 2.08 7.64 2.867 11.53C.773-39.91 1.698-31.96 1.847-24c.142 7.96-.531 15.993-2.86 23.668z"
         style="fill:#353535;fill-opacity:1;fill-rule:nonzero;stroke:none"
         transform="translate(1318 1804)"
         id="path11" /></g><g
       style="fill:#353535;fill-opacity:1"
       id="g17"><path
         d="M0 0c14.61.764 29.35-.333 43.86-2.433a534.218 534.218 0 0 0 21.67-3.612L87-10.14c7.14-1.3 14.3-2.57 21.4-3.63 7.1-1.06 14.2-1.88 21.4-2.37 3.5-.25 7.1-.38 10.7-.49 1.7-.1 3.5-.1 5.3-.1l5.4.1c7.4 0 14.7-.1 22.1-.28 14.6-.4 29.2-1.38 43.8-2.23 7.2-.46 14.5-.89 21.7-1.23l5.4-.25 5.5-.29c3.7-.22 7.4-.47 11.1-.76 14.7-1.19 29.3-3 43.9-5.86 7.3-1.44 14.5-3.16 21.7-5.29 1.8-.53 3.6-1.09 5.4-1.69l2.7-.91 2.5-.89c3.3-1.14 6.8-2.21 10.2-3.21 13.7-4.04 27.9-7.04 42.1-10.38 7.2-1.67 14.3-3.43 21.5-5.5 7.1-2.07 14.1-4.47 21-7.04 13.8-5.16 27.2-11.09 40.6-16.45 6.8-2.69 13.5-5.24 20.3-7.54 6.8-2.3 13.7-4.31 20.7-6.15 13.9-3.66 28.1-6.36 42.4-8.22 3.6-.5 7.2-.9 10.8-1.3 3.6-.3 7.2-.6 10.9-1.1 7.4-.8 14.6-2.1 21.8-3.5 7.2-1.4 14.3-2.9 21.4-4.4 7.2-1.4 14.3-2.8 21.4-3.9 14.4-2 28.9-4.1 43.4-5l-.1-1c-7.3 0-14.6.4-21.8.9-7.3.6-14.6 1.2-21.9 1.9-7.3.8-14.5 1.9-21.7 3.1-7.2 1.2-14.4 2.5-21.6 3.6-7.1 1.1-14.3 2.1-21.5 2.7-3.5.3-7.2.4-10.8.7-3.7.2-7.3.6-11 .9-14.6 1.5-29.2 3.9-43.6 7.22-7.1 1.65-14.2 3.61-21.3 5.83-7 2.21-14 4.69-20.9 7.27-13.7 5.18-27.1 10.76-40.7 15.58-6.8 2.42-13.6 4.67-20.5 6.56-6.9 1.91-13.9 3.55-21 5.11-14.1 3.14-28.5 5.99-42.8 10.01-3.6 1.02-7.2 2.12-10.7 3.33l-2.6.89-2.5.84c-1.7.55-3.4 1.07-5.1 1.57-6.8 1.99-13.7 3.6-20.8 4.96-14 2.7-28.3 4.41-42.7 5.51-3.6.28-7.2.51-10.8.71l-10.8.52c-7.4.38-14.7.84-21.9 1.33-14.6 1.01-29.1 2.07-43.6 2.86-7.2.38-14.4.66-21.6.77l-5.5.1c-1.9.1-3.7.11-5.6.2-3.7.18-7.4.51-11.1.9-7.4.78-14.7 1.92-22 3.27-3.6.68-7.21 1.41-10.8 2.18-3.59.78-7.15 1.63-10.71 2.48l-21.25 5.22c-7.06 1.73-14.11 3.47-21.2 4.967-7.09 1.451-14.2 2.813-21.38 3.848C14.49-2.148 7.27-1.384-.006-1z"
         style="fill:#353535;fill-opacity:1;fill-rule:nonzero;stroke:none"
         transform="translate(1525 2056)"
         id="path15" /></g><g
       style="fill:#353535;fill-opacity:1"
       id="g21"><path
         d="M0 0c6.324-2.161 12.86-3.477 19.47-4.2 6.6-.76 13.25-.994 19.92-.997 6.67.01 13.36.179 20.08.325 6.72.142 13.51.243 20.3-.01 13.56-.522 27.03-1.855 40.33-3.06 13.4-1.2 26.6-2.478 39.9-2.778 53.7-1.51 107.3-3.84 160.8-4.61 13.4-.21 26.8-.3 40.2-.23h10c3.5 0 6.9-.1 10.3-.19 6.9-.26 13.7-.72 20.5-1.48 13.6-1.46 27-3.78 40.3-6.6 6.6-1.41 13.2-2.93 19.8-4.56 6.5-1.65 13-3.38 19.5-5.14l38.8-10.62c12.9-3.46 25.9-6.54 39-9.14 26.2-5.34 52.8-8.49 79.6-9.7v-1c-26.9-1.27-54 .45-80.7 4.35-13.4 1.99-26.6 4.54-39.8 7.46-13.2 2.93-26.2 6.23-39.3 9.29-6.5 1.54-13 3.05-19.5 4.47-6.5 1.44-13 2.84-19.5 4.09-13.1 2.51-26.2 4.5-39.3 5.66-6.6.57-13.2 1.01-19.7 1.18-3.3.1-6.6.12-9.9.1l-10.1-.12c-13.4-.11-26.9-.1-40.4.11-53.8.77-107.5 3.96-161 7.09-13.6.79-27.1 2.38-40.4 4.2-13.3 1.82-26.57 3.68-39.82 4.84-13.18 1.25-26.63 1.09-40.13 2.029-6.74.468-13.51 1.155-20.18 2.409C12.41-5.539 5.805-3.72-.361-.933z"
         style="fill:#353535;fill-opacity:1;fill-rule:nonzero;stroke:none"
         transform="translate(1420 2012)"
         id="path19" /></g><g
       style="fill:#353535;fill-opacity:1"
       id="g25"><path
         d="M0 0c14.62 1.985 28.62 6.219 43.85 7.63 3.8.347 7.66.527 11.58.372 3.92-.13 7.89-.595 11.84-1.503 1.97-.455 3.95-1 5.87-1.696 1.86-.66 3.72-1.409 5.53-2.221C82.3.967 85.77-.991 89.09-3.184a71.695 71.695 0 0 0 9.37-7.376c2.94-2.71 5.64-5.66 8.04-8.85 2.5-3.19 4.7-6.6 6.5-10.21.9-1.8 1.8-3.66 2.5-5.56.8-1.89 1.4-3.88 1.9-5.74 4.4-15.3 4.1-31.61 0-46.66-2-7.54-5-14.82-8.8-21.62-3.7-6.8-8.3-13.2-13.66-18.8-5.34-5.7-11.4-10.6-18.06-14.7-3.32-2-6.8-3.8-10.38-5.3-3.6-1.5-7.31-2.7-11.08-3.6-7.45-1.8-15.62-2.7-23.5-.9-3.92.9-7.68 2.4-11.09 4.4-3.41 1.9-6.49 4.3-9.33 6.8-5.692 5.1-10.47 10.7-15.632 15.9-2.581 2.5-5.237 5-8.058 7.3-2.82 2.3-5.83 4.4-9.02 6.2l.43.9c6.9-2.9 13.14-7.3 18.802-12.1 5.698-4.8 10.99-10 16.638-14.3 2.84-2.2 5.78-4.2 8.87-5.7 3.09-1.5 6.33-2.5 9.64-3 3.31-.6 6.71-.6 10.1-.2 1.69.2 3.39.4 5.06.8 1.71.4 3.4.8 5.07 1.3 3.33 1 6.58 2.3 9.72 3.8 3.14 1.5 6.17 3.2 9.07 5.1 5.79 3.9 11.04 8.6 15.61 13.8 4.56 5.3 8.52 11 11.74 17.2 3.26 6.18 5.66 12.72 7.36 19.45 3.3 13.43 3.3 27.65-.6 40.69-3.5 12.79-12.59 23.73-23.65 31.54-2.77 1.96-5.71 3.688-8.72 5.24a63.658 63.658 0 0 1-4.63 2.123 50.131 50.131 0 0 1-4.66 1.665c-3.18.953-6.52 1.59-9.94 2.024-3.43.407-6.95.617-10.51.672-7.13.121-14.44-.32-21.84-.59-3.69-.14-7.42-.243-11.16-.192C7.465-1.653 3.711-1.473.01-1z"
         style="fill:#353535;fill-opacity:1;fill-rule:nonzero;stroke:none"
         transform="translate(2221 1942)"
         id="path23" /></g><g
       style="fill:#353535;fill-opacity:1"
       id="g29"><path
         d="M0 0c2.242-4.154 5.306-7.784 8.701-11.04C12.1-14.3 15.85-17.2 19.75-19.85c7.83-5.3 16.28-9.62 24.92-13.47 4.32-1.91 8.71-3.67 13.16-5.26 4.39-1.6 8.88-2.79 13.47-3.66 9.17-1.75 18.58-2.24 27.98-2.13 9.42.11 18.82.86 28.22 1.87 9.5 1.04 19 2.19 28.4 3.38 9.4 1.2 18.9 2.48 28.3 3.84 9.4 1.34 18.8 2.79 28.2 4.35C249.8-24.69 286.9-16.3 323-4.923c18.1 5.91 36.5 11.205 54.4 17.193 8.8 2.86 17.2 6.65 26 10.53 8.8 3.87 17.8 7.74 27.5 10.52 9.7 2.77 19.8 4.33 29.9 4.52 10.1.22 20.2-.91 29.9-2.76 4.8-.91 9.6-2 14.3-3.17 2.4-.58 4.7-1.18 7-1.8l6.9-1.81c8.9-2.23 18.1-3.89 27.3-5.05 18.4-2.32 37.2-2.95 56-2.72 18.9.24 37.8 1.33 56.8 2.54l28.6 1.78 14.3.77 14.3.83c19 1.13 38.1 2.44 57.3 2.68 4.8.1 9.6.1 14.5 0 2.4 0 4.8-.1 7.2-.12l3.6-.11c1.3-.1 2.5-.11 3.7-.18 9.9-.58 19.6-2.07 29.1-3.93 19-3.8 37.1-9.02 55.9-12.56v-1c-9.6-.62-19.3-.21-28.9.51-9.6.73-19.1 1.78-28.5 2.57-9.4.82-18.7 1.38-27.9 1.3-1.2 0-2.3 0-3.4-.1l-3.5-.12-7.1-.27c-4.8-.17-9.5-.44-14.2-.65-18.9-.96-37.9-2.02-56.9-3.1l-14.4-.71-14.2-.722-28.6-1.676c-19-1.141-38.2-2.193-57.5-2.369-19.3-.166-38.7.489-58.1 3.183-9.7 1.334-19.3 3.164-29 5.684l-6.9 1.9c-2.3.63-4.5 1.24-6.8 1.82-4.5 1.17-9 2.25-13.6 3.15-9 1.81-18 2.9-27 2.8-8.9-.1-17.9-1.36-26.5-3.74-8.7-2.38-17.3-5.93-26-9.6-4.4-1.847-8.9-3.733-13.4-5.528-2.2-.898-4.5-1.773-6.9-2.607-1.1-.412-2.3-.822-3.5-1.227L381.2.609c-18.4-5.804-36.7-10.739-54.9-16.319-36.9-11.06-74.7-18.5-112.6-23.92-9.5-1.36-19-2.59-28.5-3.71s-19-2.1-28.5-3.02c-9.5-.91-19-1.77-28.6-2.53-9.5-.73-19.2-1.21-28.84-1.03-9.66.2-19.38 1.09-28.89 3.25-4.75 1.09-9.45 2.52-13.96 4.35-4.48 1.8-8.88 3.75-13.2 5.85-8.66 4.2-17.02 9.04-24.77 14.78-3.86 2.88-7.55 6-10.894 9.5C4.219-8.709 1.223-4.819-.885-.466z"
         style="fill:#353535;fill-opacity:1;fill-rule:nonzero;stroke:none"
         transform="translate(1302 1825)"
         id="path27" /></g><g
       style="fill:#353535;fill-opacity:1"
       id="g33"><path
         d="M0 0c2.323-5.703 5.266-11.06 8.711-16.07 3.389-5.04 7.229-9.76 11.329-14.24 8.19-8.98 17.3-17.1 26.68-24.94 18.79-15.67 38.8-30.12 57.68-46.65 4.7-4.1 9.4-8.4 13.9-12.9s8.9-9.2 13-14.2 7.9-10.3 11.3-16.1c1.7-2.8 3.3-5.8 4.7-8.9.3-.7.6-1.5 1-2.3l.9-2.3c.6-1.5 1.2-3.1 1.7-4.6 2.2-6 4-12.1 5.7-18.2 1.6-6.2 3.1-12.3 4.4-18.4 2.6-12.3 4.7-24.5 7.2-36.4 2.4-12 5-23.8 8.6-35.1 3.6-11.3 8.1-22.2 14.1-32 6-9.9 13.7-18.7 22.5-26.8 8.6-8.1 18.3-15.5 28-23.3 4.9-3.9 9.7-7.8 14.5-12 4.7-4.1 9.3-8.5 13.7-13.2 2.2-2.3 4.3-4.7 6.3-7.2s3.9-5.2 5.7-7.6l10.8-15c3.7-5 7.4-9.8 11.3-14.4 4-4.6 8.2-8.8 12.7-13.1 4.4-4.3 9-8.6 13.1-13.3 4.1-4.8 7.8-10 10.1-15.8l-.9-.5c-2.9 5.4-7 10-11.5 14.1-4.4 4.2-9.2 8-14.1 11.8-2.4 1.9-4.8 3.9-7.2 5.9-2.4 2.1-4.7 4.2-7 6.4-4.5 4.5-8.7 9.1-12.7 13.9-4.1 4.7-8 9.5-12 14.2-2 2.4-3.8 4.7-5.9 6.8-2 2.2-4.1 4.3-6.2 6.4-4.3 4.1-8.9 8-13.7 11.7-4.7 3.7-9.6 7.3-14.6 10.9-9.9 7.2-20.1 14.5-29.8 22.9-9.7 8.3-18.8 18-25.9 29.1-7.1 11-12.4 23-16.4 35.2-4.1 12.2-7 24.5-9.5 36.7l-7.3 36.3c-1.2 5.9-2.5 11.8-4 17.6-1.5 5.8-3.2 11.6-5.1 17.2-.4 1.4-.9 2.7-1.4 4.1l-.8 2-.8 2c-1.1 2.5-2.3 5.1-3.7 7.5-2.7 5-6 9.8-9.6 14.5-7.1 9.3-15.5 17.9-24.27 26.4-17.55 16.8-36.7 32.54-54.53 50-8.89 8.75-17.5 17.93-24.95 28.08-3.7 5.09-7.121 10.4-10.03 15.98C2.871-12.24.489-6.377-.949-.314z"
         style="fill:#353535;fill-opacity:1;fill-rule:nonzero;stroke:none"
         transform="translate(953.5 2297)"
         id="path31" /></g><g
       style="fill:#353535;fill-opacity:1"
       id="g37"><path
         d="M0 0c1.703-10.89 2.713-21.75 3.612-32.59.877-10.85 1.54-21.67 2.152-32.49 1.104-21.63 2.825-43.22 5.816-64.62 1.49-10.7 3.28-21.3 5.45-31.9 1.08-5.3 2.26-10.5 3.51-15.8 1.26-5.2 2.64-10.4 4.16-15.5 6.06-20.7 13.94-40.9 22.39-60.8 8.42-20 17.4-39.9 26.04-59.9 4.3-10.1 8.57-20.1 12.42-30.4 3.81-10.3 7.11-20.8 10.25-31.2 6.3-20.9 11.8-42 19.2-62.3 3.7-10.2 7.9-20.2 12.9-29.8 4.9-9.6 10.7-18.9 17.5-27.4l-.8-.6c-7.2 8.2-13.5 17.2-18.9 26.8-5.5 9.5-10.1 19.5-14.2 29.6-4.1 10.2-7.7 20.5-11.1 30.9-3.46 10.3-6.72 20.7-10.09 31-3.38 10.4-6.91 20.6-10.91 30.6-1.98 5-4.14 10-6.33 15-2.17 4.9-4.38 9.9-6.61 14.8-8.95 19.9-18.33 39.5-27.13 59.5-8.74 20.1-16.97 40.4-23.41 61.5-1.61 5.3-3.1 10.7-4.45 16-1.35 5.3-2.565 10.7-3.691 16.1-2.247 10.8-4.112 21.6-5.667 32.5-3.09 21.7-5.013 43.58-6.063 65.44-.464 10.94-.503 21.88-.06 32.82.465 10.93 1.309 21.85 3.012 32.739z"
         style="fill:#353535;fill-opacity:1;fill-rule:nonzero;stroke:none"
         transform="translate(1271 1814)"
         id="path35" /></g><g
       style="fill:#353535;fill-opacity:1"
       id="g41"><path
         d="M0 0c.385.672.899 1.364 1.613 1.873.704.523 1.653.795 2.547.744 1.809-.12 3.261-1.038 4.528-1.971 2.522-1.95 4.522-4.315 6.432-6.714 3.76-4.842 7.04-9.992 10.11-15.222 6.11-10.49 11.58-21.3 16.86-32.18 5.19-10.92 10.14-21.95 14.95-33.03 2.4-5.54 4.77-11.09 7.11-16.7 2.32-5.5 4.58-11.1 6.84-16.7 4.5-11.2 8.86-22.5 13.04-33.9l12.16-33.9 12.41-33.9 12.5-33.8c8.3-22.6 16.6-45.1 25.1-67.6 8.4-22.5 16.9-45.1 25.6-67.3l3.3-8.3 3.4-8.3c2.3-5.6 4.5-11.1 6.8-16.5 4.7-10.9 9.6-21.4 15.4-31.1 2.9-4.9 6.1-9.5 9.5-13.9l2.7-3.4c1-1.3 2-2.5 2.9-3.8 1.9-2.5 3.8-5 5.6-7.6 7.1-10.2 13.5-20.7 19.7-31.2 12.5-21.5 22.4-44.3 30.2-67.7 7.7-23.4 13.5-47.2 18.1-71.2 2.2-11.9 4.2-24 6-35.9 1.8-11.6 4-23.2 6.6-34.7 5.4-23 12.7-45.4 21.5-67.5 1.1-2.7 2.2-5.5 3.3-8.2l1.8-4 1.7-4.1c2.4-5.4 5-10.7 7.6-16.1 5.2-10.7 10.7-21.5 15.8-32.5 2.6-5.6 5.1-11.2 7.4-16.8 1.2-2.9 2.3-5.7 3.4-8.6.5-1.5 1.1-2.9 1.6-4.4l1.5-4.3c3.8-11.1 8.5-22 13.3-33 4.8-11 9.7-22 14.4-33.2 4.6-11.2 9-22.6 12.2-34.4 3.3-12 5.5-24 6.1-36 .1-3 .1-6 0-9l-.3-9c-.3-6-.5-12-.8-18h-1c-.3 6-.5 12-.8 18l-.3 9c-.2 3-.4 6-.8 9-1.4 11-4.3 23-8.3 34.1-7.8 22.4-19.2 43.4-30.1 65-5.4 10.8-10.7 21.8-15.2 33.2l-1.7 4.2-1.7 4c-1.1 2.7-2.3 5.4-3.6 8.1-2.4 5.3-5.1 10.6-7.8 15.9-5.5 10.6-11.3 21.1-16.9 31.8-2.9 5.4-5.7 10.8-8.4 16.3l-2 4.1-1.9 4.2c-1.3 2.8-2.5 5.6-3.7 8.4-4.9 11.2-9.4 22.6-13.4 34.2-4.1 11.6-7.6 23.3-10.7 35.2-3 11.9-5.6 23.9-7.6 36-2 11.9-4.1 23.6-6.5 35.2-4.8 23.3-10.5 46.3-18.1 68.5-7.6 22.2-17 43.8-28.7 63.8-6 10.2-12.2 20.4-18.8 29.9-1.6 2.4-3.3 4.7-5 7-.9 1.1-1.8 2.3-2.6 3.3l-2.9 3.7c-4 5.1-7.6 10.5-10.8 16-6.5 10.9-11.7 22.3-16.4 33.6-2.4 5.7-4.6 11.3-6.8 17l-3.3 8.4-3.3 8.5c-8.6 22.6-16.7 45.3-24.7 68-8 22.7-16 45.5-23.7 68.3l-11.6 34.2-11.31 34.3c-1.86 5.8-3.73 11.5-5.54 17.2l-5.33 17.3c-1.79 5.7-3.64 11.4-5.52 17-1.87 5.7-3.76 11.4-5.68 17.1-7.76 22.7-15.64 45.39-24.51 67.66-4.37 11.15-8.94 22.24-14.13 33-2.61 5.36-5.29 10.7-8.5 15.673-1.6 2.463-3.33 4.892-5.417 6.831-1.038.94-2.21 1.797-3.431 1.993C2.823 1.385 1.65.638.833-.554z"
         style="fill:#353535;fill-opacity:1;fill-rule:nonzero;stroke:none"
         transform="translate(894.6 2263)"
         id="path39" /></g><g
       style="fill:#353535;fill-opacity:1"
       id="g45"><path
         d="M0 0c-1.518 13.59-1.251 27.43.762 41.05 2.041 13.61 5.9 26.97 11.278 39.7 5.36 12.74 12.31 24.85 20.37 36.05 8.07 11.2 17.26 21.7 27.24 31.3 20.03 19.1 43.15 34.8 67.95 47.3 12.3 6.2 25.2 11.6 38.3 16 13.1 4.5 26.6 8 40.3 10.6 27.4 5.1 55.5 5.7 83.1 3 27.7-2.6 54.9-8.6 81.3-16.9 6.6-2 13.1-4.3 19.6-6.6 6.5-2.4 13-4.9 19.3-7.5 12.8-5.3 25.4-11 37.7-17.2 24.7-12.3 48.5-26.3 71.5-41.4 22.9-15.2 44.9-31.8 66.1-49.28 21.2-17.52 41.6-36.02 61-55.55 19.3-19.59 37.4-40.299 54.7-61.67 8.6-10.7 16.9-21.56 25.1-32.58 8.1-11.05 16-22.25 23.7-33.57 15.4-22.65 30.1-45.85 43.9-69.45 13.8-23.7 26.8-47.8 38.9-72.3 6-12.3 11.9-24.6 17.4-37.1 2.8-6.3 5.6-12.5 8.1-19 2.5-6.4 4.8-12.9 6.9-19.4 4.1-13.1 7.6-26.3 10.9-39.6 3.2-13.2 6.3-26.5 9.6-39.7l-1-.3c-4.1 13-7.7 26.2-11.6 39.2-3.8 13.1-7.8 26.1-12.4 38.9-2.3 6.3-4.8 12.6-7.5 18.8-2.6 6.2-5.6 12.3-8.6 18.4-5.9 12.3-12.1 24.4-18.5 36.4-12.8 24-26.3 47.6-40.6 70.7s-29.1 45.8-44.9 67.9c-7.8 11.09-15.8 22.02-24.1 32.79-8.2 10.79-16.6 21.43-25.2 31.89-17.2 20.89-35.3 41.056-54.5 60.04-38.3 38.13-80.3 72.69-125.3 102.58-44.9 29.9-93.2 55.1-144.3 71.8-25.6 8.3-51.9 14.3-78.5 17.2-13.3 1.5-26.7 2.1-40 1.9-6.7-.1-13.4-.5-20-1-6.7-.6-13.3-1.4-19.9-2.5-26.3-4.4-52-12.8-76.3-24.2-24.3-11.4-47.13-26.1-67.08-44.1-9.99-9-19.23-18.8-27.42-29.4-8.18-10.7-15.28-22.17-21.03-34.34C4.748 54.55-.629 27.25.997.079z"
         style="fill:#353535;fill-opacity:1;fill-rule:nonzero;stroke:none"
         transform="translate(632.5 2471)"
         id="path43" /></g><g
       style="fill:#353535;fill-opacity:1"
       id="g49"><path
         d="M0 0c-1.734-6.542-3.024-13.19-4.166-19.85-1.129-6.68-2.06-13.38-2.885-20.1-1.628-13.45-2.92-26.94-4.119-40.45-2.44-27-4.18-54.1-8.32-81.2-.54-3.4-1.12-6.8-1.8-10.2l-2.06-10-4.22-19.9c-2.8-13.3-5.65-26.5-8.17-39.8-2.51-13.2-4.75-26.5-6.31-39.8-1.47-13.2-1.89-26.6-2.02-40.1-.11-13.5 0-27.1-.32-40.8-.1-3.4-.15-6.8-.4-10.4-.25-3.5-.62-7.1-1.09-10.5-.94-7-2.27-13.8-3.72-20.5-2.91-13.5-6.28-26.5-8.29-39.5-.5-3.2-.92-6.5-1.23-9.7l-.22-2.4-.19-2.5-.22-2.7-.25-2.6c-.74-7-1.78-13.9-3.1-20.7-5.31-27.3-14.18-53.1-20.44-79.1-1.57-6.5-2.99-13-4.16-19.5-1.18-6.5-2.03-13-2.82-19.7-.81-6.7-1.53-13.5-2.83-20.6-1.29-7.1-3.32-14.3-6.25-21.1-.7-1.7-1.5-3.4-2.3-5l-1.1-2.3-1.1-2.2c-1.4-2.9-2.7-5.9-4-9-2.6-6-4.9-12.2-7-18.4-4.1-12.5-7.2-25.3-8.9-38.2-3.4-26.5-5.4-53.5-6.8-80.4-2.7-54-3.4-108.4-8.4-162.9-2.5-27.2-6.2-53.9-11.9-80.9-1.4-7-3-14-4.5-20-1.4-7-2.8-13-3.9-20-2.4-13-4.1-26-5.7-40-1.5-13-2.9-27-4.3-40l-1-10c-.4-4-.6-7-.9-10-.4-7-.7-14-1.1-21-.6-13-1.4-27-3.2-40-.8-7-2-14-3.6-21-1.7-6-3.7-13-6.7-19h-.9c4.7 13 6.2 27 7.1 40 .8 13 .7 27 .6 40v21c.1 3 .2 7 .3 10 .2 4 .4 7 .6 10 .7 14 1.4 28 2.5 41 1 14 2.3 27 4.3 41 .9 7 2 14 3.4 20 1.3 7 2.7 14 3.9 20 4.8 27 7.9 53.4 10 80.2 4.1 53.8 4.4 108 7.4 162.4 1.5 27.3 3.6 54.5 7.2 81.8 1.9 14 5.3 27.6 9.8 40.9 2.2 6.7 4.7 13.2 7.4 19.6 1.4 3.2 2.9 6.4 4.4 9.6l1.1 2.4 1.2 2.3c.7 1.4 1.3 2.8 2 4.2 2.5 5.7 4.2 11.6 5.4 17.8 1.2 6.3 2 12.9 2.9 19.7.4 3.4.9 6.8 1.4 10.2.5 3.4 1.1 6.9 1.8 10.3 1.3 6.9 2.81 13.6 4.5 20.3 6.77 26.7 15.8 52.3 21.09 78.3 1.33 6.5 2.45 13 3.24 19.5l.27 2.4.25 2.5.24 2.5.28 2.7c.4 3.5.91 7 1.5 10.4 2.38 13.8 6.04 27.1 9.09 40.1 1.52 6.5 2.89 13 3.87 19.5.5 3.2.9 6.5 1.17 9.7.27 3.1.4 6.6.55 9.9.54 13.4.61 27 1.07 40.6.45 13.7 1.17 27.4 3.04 41.2 1.91 13.6 4.49 27 7.34 40.4 2.85 13.3 5.99 26.5 9.22 39.7l4.79 19.8 2.34 9.9c.75 3.2 1.41 6.5 2.04 9.8 2.46 13.2 4.23 26.6 5.93 40.1l4.95 40.36c1.68 13.47 3.42 26.96 5.65 40.38C-7.529-26.16-5.03-12.73-.961.276z"
         style="fill:#353535;fill-opacity:1;fill-rule:nonzero;stroke:none"
         transform="translate(633.5 2471)"
         id="path47" /></g><g
       style="fill:#353535;fill-opacity:1"
       id="g53"><path
         d="M0 0a50.031 50.031 0 0 1-17.97-1.773c-5.79-1.665-11.21-4.385-16.16-7.77-9.9-6.837-18.02-15.977-25.04-25.797-7.02-9.85-12.99-20.47-18.42-31.34-5.47-10.87-10.37-22.04-14.98-33.32-9.23-22.7-17.13-45.9-25.53-69-2.1-5.8-4.3-11.6-6.5-17.4-2.2-5.8-4.5-11.5-6.8-17.2l-13.7-34.3c-9-22.9-18.2-45.7-26.9-68.6-4.3-11.4-8.5-22.9-12.7-34.4l-3-8.6-.8-2.2-.8-2.3-1.6-4.5c-2.3-5.9-4.8-11.7-7.3-17.4-10.3-22.8-22-44.6-32.5-66.5-5.2-10.9-10.1-21.9-13.5-32.8-.8-2.7-1.5-5.4-2-8l-.2-1-.2-1.1-.1-.6-.2-.8-.3-1.4c-.5-1.8-1-3.5-1.5-5.2-2.3-6.6-5-12.4-7.8-18.1-5.6-11.3-11.6-22.1-16.8-32.8-2.6-5.3-5-10.7-6.8-15.8-.8-2.5-1.5-5-1.8-7.1-.1-.3-.1-.5-.1-.8l-.1-.9-.2-2.3-.4-4.8c-1.1-12.5-2.9-25.2-5.6-37.6-2.6-12.4-6-24.5-9.4-36.4-3.4-11.8-6.7-23.5-9.7-35.2-3.1-12-6.4-24-9.7-35.9-3.5-11.9-7-23.7-10.6-35.5l-5.4-17.7-5.5-17.6c-14.7-47-29.9-93.4-41.7-140.7-5.9-23.7-10.9-47.5-14.5-71.5-.9-6-1.6-12-2.5-18-.8-6-1.7-13-3-19-1.2-6-2.9-12-5-18-2.2-6-4.9-11-8.2-17l-.9 1c4.7 11 6.9 23 7.8 35 .9 12 .7 24 1.4 37 1.2 24.8 4.4 49.5 8.8 73.9 9.1 49 23.1 96.6 37.5 143.6l10.9 35.2c3.5 11.7 7.1 23.4 10.5 35.2 3.3 11.7 6.6 23.4 9.6 35.3 3.2 12 6.7 24 10.2 35.7 3.5 11.8 6.8 23.4 9.4 35 2.6 11.6 4.5 23.3 5.8 35.2l.4 4.5.2 2.2.1 1.4c.1.5.2 1 .2 1.5.6 4 1.7 7.5 2.8 10.7 2.3 6.6 5 12.4 7.9 18.1 5.6 11.3 11.7 22 17.1 32.7 2.7 5.3 5.3 10.6 7 15.7.5 1.2.9 2.4 1.1 3.6l.2.8.1.3.1.6.2 1.2.3 1.2c.7 3.4 1.6 6.7 2.6 9.8 2.1 6.3 4.4 12.3 7 18.1 2.5 5.9 5.2 11.5 7.9 17.2 11.1 22.3 23.1 43.7 33.3 65.6 2.5 5.5 4.9 11 7.2 16.5l1.6 4.1 1.6 4.2 3.2 8.8c4.4 11.6 8.9 23 13.5 34.5 9.3 22.9 18.9 45.6 28.6 68.2l14.6 33.9 7.2 16.9c2.4 5.6 4.7 11.2 7 16.9 9.1 22.8 18.2 45.8 28.5 68.29 5.22 11.26 10.71 22.4 16.79 33.25 6.13 10.81 12.84 21.36 20.64 31.15 3.9 4.89 8.08 9.57 12.65 13.89 4.55 4.32 9.53 8.236 14.95 11.463 5.41 3.222 11.3 5.719 17.44 7.074C-12.39 1.798-6.017 1.942.109.994z"
         style="fill:#353535;fill-opacity:1;fill-rule:nonzero;stroke:none"
         transform="translate(952.9 2297)"
         id="path51" /></g><g
       style="fill:#353535;fill-opacity:1"
       id="g57"><path
         d="M0 0c-.342-3.775-1.533-7.414-2.764-10.95-1.292-3.53-2.786-6.95-4.28-10.36-2.986-6.8-6.216-13.41-8.956-20.07-2.73-6.62-5.12-13.39-5.86-19.77-.36-3.17-.21-6.18.54-8.68.37-1.26.9-2.39 1.57-3.42.34-.51.71-1 1.13-1.46.42-.48.83-.87 1.44-1.44 2.12-1.97 4.71-3.7 7.512-5.09 2.817-1.4 5.868-2.55 9.046-3.48 3.182-.93 6.497-1.64 9.877-2.18 3.375-.57 6.825-.98 10.305-1.27 6.97-.55 14.08-.71 21.24-.62 7.16.13 14.38.41 21.69.81l5.51.3c1.84.1 3.53.17 5.25.31 3.44.26 6.8.66 10.01 1.28 3.19.64 6.24 1.45 8.94 2.56 2.7 1.12 5.01 2.52 6.87 4.27 1.83 1.74 3.43 3.85 4.63 6.45 1.2 2.59 2.1 5.61 2.8 8.81 1.3 6.45 1.8 13.59 2.2 20.78.2 3.64.4 7.19.4 10.65 0 3.5-.2 7.01-.4 10.53-.3 3.53-.7 7.06-1.2 10.59-.6 3.542-1.2 7.085-1.9 10.624-1.4 7.092-3.2 14.176-5 21.296-.91 3.56-1.86 7.13-2.83 10.69-.9 3.59-1.88 7.15-2.73 10.77l.94.35c1.73-3.29 3.34-6.61 5.02-9.92 1.6-3.34 3.2-6.69 4.7-10.07 3.1-6.75 6-13.666 8.4-20.783 1.3-3.566 2.4-7.176 3.4-10.843 1-3.674 1.8-7.394 2.6-11.164.7-3.78 1.2-7.6 1.5-11.46.4-3.9.5-7.71.6-11.44.2-7.52.2-15.16-1-23.23-.6-4.03-1.6-8.19-3.3-12.36-1.7-4.15-4.3-8.33-7.7-11.71-3.4-3.4-7.5-5.93-11.56-7.73-4.07-1.77-8.16-2.97-12.17-3.77-4.02-.8-7.98-1.3-11.88-1.7-1.95-.1-3.94-.2-5.77-.3l-5.52-.3c-7.4-.3-14.9-.6-22.47-.5-7.56.1-15.2.4-22.88 1.4-7.67.9-15.42 2.4-23.062 5.12-3.818 1.35-7.608 3.01-11.238 5.19-3.63 2.16-7.08 4.79-10.13 8.07-.68.74-1.51 1.71-2.21 2.69a25.004 25.004 0 0 0-4.34 9.97c-.93 4.69-.51 9.19.37 13.26.9 4.09 2.27 7.85 3.86 11.41 1.6 3.56 3.36 6.96 5.26 10.23 3.78 6.55 7.89 12.71 11.96 18.83 2.037 3.06 4.012 6.13 5.86 9.267C-3.851-6.438-2.142-3.24-.979.207z"
         style="fill:#353535;fill-opacity:1;fill-rule:nonzero;stroke:none"
         transform="translate(441.5 1163)"
         id="path55" /></g></g></svg>
