<?xml version="1.0" encoding="UTF-8" standalone="no"?>
<svg
   width="150mm"
   height="75mm"
   viewBox="0 0 150 75"
   version="1.1"
   id="svg21139"
   sodipodi:docname="Line_upayoga_lotus-min.svg"
   inkscape:version="1.2.1 (9c6d41e410, 2022-07-14)"
   xmlns:inkscape="http://www.inkscape.org/namespaces/inkscape"
   xmlns:sodipodi="http://sodipodi.sourceforge.net/DTD/sodipodi-0.dtd"
   xmlns="http://www.w3.org/2000/svg"
   xmlns:svg="http://www.w3.org/2000/svg">
  <defs
     id="defs21143" />
  <sodipodi:namedview
     id="namedview21141"
     pagecolor="#505050"
     bordercolor="#eeeeee"
     borderopacity="1"
     inkscape:showpageshadow="0"
     inkscape:pageopacity="0"
     inkscape:pagecheckerboard="0"
     inkscape:deskcolor="#505050"
     inkscape:document-units="mm"
     showgrid="false"
     inkscape:zoom="0.8438"
     inkscape:cx="238.2"
     inkscape:cy="140.4"
     inkscape:window-width="1620"
     inkscape:window-height="1058"
     inkscape:window-x="-6"
     inkscape:window-y="-6"
     inkscape:window-maximized="1"
     inkscape:current-layer="svg21139" />
  <g
     id="g23535"
     transform="matrix(-1,0,0,1,105,-1.254)">
    <path
       style="fill:none;stroke:#ffffff;stroke-width:0.465;stroke-linecap:butt;stroke-linejoin:miter;stroke-dasharray:none;stroke-opacity:1"
       d="m 73.22,28.3 c 0.19,7.1 0.39,14.2 5.48,19.8 5.2,5.6 15.2,9.8 21.8,16.7 6.6,6.9 9.8,16.5 12.9,26.1"
       id="path21047" />
    <path
       style="fill:none;stroke:#ffffff;stroke-width:0.465;stroke-linecap:butt;stroke-linejoin:miter;stroke-dasharray:none;stroke-opacity:1"
       d="m 25.7,38.3 c 3.37,8.1 6.69,16.1 16.64,18.9 9.96,2.7 26.49,0.2 40.36,4.1 13.9,3.9 25.1,14.3 36.4,24.8"
       id="path21049" />
    <g
       style="fill:#ffcc3f;fill-opacity:1"
       id="g21095">
      <path
         style="opacity:1;fill:#ffcc3f;fill-opacity:1;stroke:#ffffff;stroke-width:1.0648;stroke-linecap:butt;stroke-linejoin:round;stroke-miterlimit:4;stroke-dasharray:none;stroke-dashoffset:0;stroke-opacity:1;paint-order:normal"
         d="m 26.45,276.4 c -2.91,18.8 20.45,35.4 37.05,25.2"
         transform="matrix(0.4629,0,0,0.4629,43.71,-111.4)"
         id="path21051" />
      <path
         style="opacity:1;fill:#ffcc3f;fill-opacity:1;stroke:#ffffff;stroke-width:1.065;stroke-linecap:butt;stroke-linejoin:round;stroke-miterlimit:4;stroke-dasharray:none;stroke-dashoffset:0;stroke-opacity:1;paint-order:normal"
         d="m 100.5,276.5 c 2.9,18.8 -20.41,35.4 -37.01,25.2"
         transform="matrix(0.4629,0,0,0.4629,43.71,-111.4)"
         id="path21053" />
      <g
         style="fill:#ffcc3f;fill-opacity:1;stroke:#ffffff"
         id="g21059">
        <path
           style="opacity:1;fill:#ffcc3f;fill-opacity:1;stroke:#ffffff;stroke-width:1.0648;stroke-linecap:butt;stroke-linejoin:round;stroke-miterlimit:4;stroke-dasharray:none;stroke-dashoffset:0;stroke-opacity:1;paint-order:normal"
           d="m 62.1,86.82 c 17.18,8.14 17.84,36.78 0.1,44.78"
           transform="matrix(0.349,0.3041,-0.3041,0.349,91.43,-36.64)"
           id="path21055" />
        <path
           style="opacity:1;fill:#ffcc3f;fill-opacity:1;stroke:#ffffff;stroke-width:1.0648;stroke-linecap:butt;stroke-linejoin:round;stroke-miterlimit:4;stroke-dasharray:none;stroke-dashoffset:0;stroke-opacity:1;paint-order:normal"
           d="M 62.26,86.82 C 45.08,94.96 44.41,123.6 62.18,131.6"
           transform="matrix(0.349,0.3041,-0.3041,0.349,91.43,-36.64)"
           id="path21057" />
      </g>
      <g
         style="fill:#ffcc3f;fill-opacity:1;stroke:#ffffff"
         id="g21065">
        <path
           style="opacity:1;fill:#ffcc3f;fill-opacity:1;stroke:#ffffff;stroke-width:1.0648;stroke-linecap:butt;stroke-linejoin:round;stroke-miterlimit:4;stroke-dasharray:none;stroke-dashoffset:0;stroke-opacity:1;paint-order:normal"
           d="m 62.1,86.82 c 17.18,8.14 17.84,36.78 0.1,44.78"
           transform="matrix(-0.349,0.304,0.304,0.349,54.9,-36.64)"
           id="path21061" />
        <path
           style="opacity:1;fill:#ffcc3f;fill-opacity:1;stroke:#ffffff;stroke-width:1.0648;stroke-linecap:butt;stroke-linejoin:round;stroke-miterlimit:4;stroke-dasharray:none;stroke-dashoffset:0;stroke-opacity:1;paint-order:normal"
           d="M 62.26,86.82 C 45.08,94.96 44.41,123.6 62.18,131.6"
           transform="matrix(-0.349,0.304,0.304,0.349,54.9,-36.64)"
           id="path21063" />
      </g>
      <g
         style="fill:#ffcc3f;fill-opacity:1;stroke:#ffffff"
         id="g21071">
        <path
           style="opacity:1;fill:#ffcc3f;fill-opacity:1;stroke:#ffffff;stroke-width:1.0648;stroke-linecap:butt;stroke-linejoin:round;stroke-miterlimit:4;stroke-dasharray:none;stroke-dashoffset:0;stroke-opacity:1;paint-order:normal"
           d="m 62.1,86.82 c 17.18,8.14 17.84,36.78 0.1,44.78"
           transform="matrix(0.4629,0,0,0.4629,44.32,-32.71)"
           id="path21067" />
        <path
           style="opacity:1;fill:#ffcc3f;fill-opacity:1;stroke:#ffffff;stroke-width:1.0648;stroke-linecap:butt;stroke-linejoin:round;stroke-miterlimit:4;stroke-dasharray:none;stroke-dashoffset:0;stroke-opacity:1;paint-order:normal"
           d="M 62.26,86.82 C 45.08,94.96 44.41,123.6 62.18,131.6"
           transform="matrix(0.4629,0,0,0.4629,44.32,-32.71)"
           id="path21069" />
      </g>
      <path
         style="opacity:1;fill:#ffcc3f;fill-opacity:1;stroke:#ffffff;stroke-width:1.0648;stroke-linecap:butt;stroke-linejoin:round;stroke-miterlimit:4;stroke-dasharray:none;stroke-dashoffset:0;stroke-opacity:1;paint-order:normal"
         d="m 26.45,276.4 c -2.91,18.8 20.45,35.4 37.05,25.2"
         transform="matrix(0.4629,0,0,0.4629,43.71,-111.4)"
         id="path21073" />
      <path
         style="opacity:1;fill:#ffcc3f;fill-opacity:1;stroke:#ffffff;stroke-width:1.065;stroke-linecap:butt;stroke-linejoin:round;stroke-miterlimit:4;stroke-dasharray:none;stroke-dashoffset:0;stroke-opacity:1;paint-order:normal"
         d="m 100.5,276.5 c 2.9,18.8 -20.41,35.4 -37.01,25.2"
         transform="matrix(0.4629,0,0,0.4629,43.71,-111.4)"
         id="path21075" />
      <g
         style="fill:#ffcc3f;fill-opacity:1;stroke:#ffffff"
         id="g21081">
        <path
           style="opacity:1;fill:#ffcc3f;fill-opacity:1;stroke:#ffffff;stroke-width:1.0648;stroke-linecap:butt;stroke-linejoin:round;stroke-miterlimit:4;stroke-dasharray:none;stroke-dashoffset:0;stroke-opacity:1;paint-order:normal"
           d="m 62.1,86.82 c 17.18,8.14 17.84,36.78 0.1,44.78"
           transform="matrix(0.349,0.3041,-0.3041,0.349,91.43,-36.64)"
           id="path21077" />
        <path
           style="opacity:1;fill:#ffcc3f;fill-opacity:1;stroke:#ffffff;stroke-width:1.0648;stroke-linecap:butt;stroke-linejoin:round;stroke-miterlimit:4;stroke-dasharray:none;stroke-dashoffset:0;stroke-opacity:1;paint-order:normal"
           d="M 62.26,86.82 C 45.08,94.96 44.41,123.6 62.18,131.6"
           transform="matrix(0.349,0.3041,-0.3041,0.349,91.43,-36.64)"
           id="path21079" />
      </g>
      <g
         style="fill:#ffcc3f;fill-opacity:1;stroke:#ffffff"
         id="g21087">
        <path
           style="opacity:1;fill:#ffcc3f;fill-opacity:1;stroke:#ffffff;stroke-width:1.0648;stroke-linecap:butt;stroke-linejoin:round;stroke-miterlimit:4;stroke-dasharray:none;stroke-dashoffset:0;stroke-opacity:1;paint-order:normal"
           d="m 62.1,86.82 c 17.18,8.14 17.84,36.78 0.1,44.78"
           transform="matrix(-0.349,0.304,0.304,0.349,54.9,-36.64)"
           id="path21083" />
        <path
           style="opacity:1;fill:#ffcc3f;fill-opacity:1;stroke:#ffffff;stroke-width:1.0648;stroke-linecap:butt;stroke-linejoin:round;stroke-miterlimit:4;stroke-dasharray:none;stroke-dashoffset:0;stroke-opacity:1;paint-order:normal"
           d="M 62.26,86.82 C 45.08,94.96 44.41,123.6 62.18,131.6"
           transform="matrix(-0.349,0.304,0.304,0.349,54.9,-36.64)"
           id="path21085" />
      </g>
      <g
         style="fill:#ffcc3f;fill-opacity:1;stroke:#ffffff"
         id="g21093">
        <path
           style="opacity:1;fill:#ffcc3f;fill-opacity:1;stroke:#ffffff;stroke-width:1.0648;stroke-linecap:butt;stroke-linejoin:round;stroke-miterlimit:4;stroke-dasharray:none;stroke-dashoffset:0;stroke-opacity:1;paint-order:normal"
           d="m 62.1,86.82 c 17.18,8.14 17.84,36.78 0.1,44.78"
           transform="matrix(0.4629,0,0,0.4629,44.32,-32.71)"
           id="path21089" />
        <path
           style="opacity:1;fill:#ffcc3f;fill-opacity:1;stroke:#ffffff;stroke-width:1.0648;stroke-linecap:butt;stroke-linejoin:round;stroke-miterlimit:4;stroke-dasharray:none;stroke-dashoffset:0;stroke-opacity:1;paint-order:normal"
           d="M 62.26,86.82 C 45.08,94.96 44.41,123.6 62.18,131.6"
           transform="matrix(0.4629,0,0,0.4629,44.32,-32.71)"
           id="path21091" />
      </g>
    </g>
    <g
       style="fill:#ffcc3f;fill-opacity:1;stroke-width:1.0001;stroke-dasharray:none"
       id="g21137">
      <path
         style="opacity:1;fill:#ffcc3f;fill-opacity:1;stroke:#ffffff;stroke-width:1.0001;stroke-linecap:butt;stroke-linejoin:round;stroke-miterlimit:4;stroke-dasharray:none;stroke-dashoffset:0;stroke-opacity:1;paint-order:normal"
         d="m 26.45,276.4 c -2.91,18.8 20.45,35.4 37.05,25.2 m 37,-25.1 c 2.9,18.8 -20.41,35.4 -37.01,25.2"
         transform="matrix(0.4167,-0.2017,0.2017,0.4167,-61.39,-74.4)"
         id="path21097" />
      <g
         style="fill:#ffcc3f;fill-opacity:1;stroke:#ffffff;stroke-width:1.0001;stroke-dasharray:none"
         id="g21103">
        <path
           style="opacity:1;fill:#ffcc3f;fill-opacity:1;stroke:#ffffff;stroke-width:1.0001;stroke-linecap:butt;stroke-linejoin:round;stroke-miterlimit:4;stroke-dasharray:none;stroke-dashoffset:0;stroke-opacity:1;paint-order:normal"
           d="m 62.1,86.82 c 17.18,8.14 17.84,36.78 0.1,44.78"
           transform="matrix(0.4467,0.1216,-0.1216,0.4467,14.15,-27.89)"
           id="path21099" />
        <path
           style="opacity:1;fill:#ffcc3f;fill-opacity:1;stroke:#ffffff;stroke-width:1.0001;stroke-linecap:butt;stroke-linejoin:round;stroke-miterlimit:4;stroke-dasharray:none;stroke-dashoffset:0;stroke-opacity:1;paint-order:normal"
           d="M 62.26,86.82 C 45.08,94.96 44.41,123.6 62.18,131.6"
           transform="matrix(0.4467,0.1216,-0.1216,0.4467,14.15,-27.89)"
           id="path21101" />
      </g>
      <g
         style="fill:#ffcc3f;fill-opacity:1;stroke:#ffffff;stroke-width:1.0001;stroke-dasharray:none"
         id="g21109">
        <path
           style="opacity:1;fill:#ffcc3f;fill-opacity:1;stroke:#ffffff;stroke-width:1.0001;stroke-linecap:butt;stroke-linejoin:round;stroke-miterlimit:4;stroke-dasharray:none;stroke-dashoffset:0;stroke-opacity:1;paint-order:normal"
           d="m 62.1,86.82 c 17.18,8.14 17.84,36.78 0.1,44.78"
           transform="matrix(-0.1817,0.4259,0.4259,0.1817,-18.74,-11.98)"
           id="path21105" />
        <path
           style="opacity:1;fill:#ffcc3f;fill-opacity:1;stroke:#ffffff;stroke-width:1.0001;stroke-linecap:butt;stroke-linejoin:round;stroke-miterlimit:4;stroke-dasharray:none;stroke-dashoffset:0;stroke-opacity:1;paint-order:normal"
           d="M 62.26,86.82 C 45.08,94.96 44.41,123.6 62.18,131.6"
           transform="matrix(-0.1817,0.4259,0.4259,0.1817,-18.74,-11.98)"
           id="path21107" />
      </g>
      <g
         style="fill:#ffcc3f;fill-opacity:1;stroke:#ffffff;stroke-width:1.0001;stroke-dasharray:none"
         id="g21115">
        <path
           style="opacity:1;fill:#ffcc3f;fill-opacity:1;stroke:#ffffff;stroke-width:1.0001;stroke-linecap:butt;stroke-linejoin:round;stroke-miterlimit:4;stroke-dasharray:none;stroke-dashoffset:0;stroke-opacity:1;paint-order:normal"
           d="m 62.1,86.82 c 17.18,8.14 17.84,36.78 0.1,44.78"
           transform="matrix(0.4167,-0.2017,0.2017,0.4167,-26.55,-3.827)"
           id="path21111" />
        <path
           style="opacity:1;fill:#ffcc3f;fill-opacity:1;stroke:#ffffff;stroke-width:1.0001;stroke-linecap:butt;stroke-linejoin:round;stroke-miterlimit:4;stroke-dasharray:none;stroke-dashoffset:0;stroke-opacity:1;paint-order:normal"
           d="M 62.26,86.82 C 45.08,94.96 44.41,123.6 62.18,131.6"
           transform="matrix(0.4167,-0.2017,0.2017,0.4167,-26.55,-3.827)"
           id="path21113" />
      </g>
      <path
         style="opacity:1;fill:#ffcc3f;fill-opacity:1;stroke:#ffffff;stroke-width:1.0001;stroke-linecap:butt;stroke-linejoin:round;stroke-miterlimit:4;stroke-dasharray:none;stroke-dashoffset:0;stroke-opacity:1;paint-order:normal"
         d="m 26.45,276.4 c -2.91,18.8 20.45,35.4 37.05,25.2 m 37,-25.1 c 2.9,18.8 -20.41,35.4 -37.01,25.2"
         transform="matrix(0.4167,-0.2017,0.2017,0.4167,-61.39,-74.4)"
         id="path21117" />
      <g
         style="fill:#ffcc3f;fill-opacity:1;stroke:#ffffff;stroke-width:1.0001;stroke-dasharray:none"
         id="g21123">
        <path
           style="opacity:1;fill:#ffcc3f;fill-opacity:1;stroke:#ffffff;stroke-width:1.0001;stroke-linecap:butt;stroke-linejoin:round;stroke-miterlimit:4;stroke-dasharray:none;stroke-dashoffset:0;stroke-opacity:1;paint-order:normal"
           d="m 62.1,86.82 c 17.18,8.14 17.84,36.78 0.1,44.78"
           transform="matrix(0.4467,0.1216,-0.1216,0.4467,14.15,-27.89)"
           id="path21119" />
        <path
           style="opacity:1;fill:#ffcc3f;fill-opacity:1;stroke:#ffffff;stroke-width:1.0001;stroke-linecap:butt;stroke-linejoin:round;stroke-miterlimit:4;stroke-dasharray:none;stroke-dashoffset:0;stroke-opacity:1;paint-order:normal"
           d="M 62.26,86.82 C 45.08,94.96 44.41,123.6 62.18,131.6"
           transform="matrix(0.4467,0.1216,-0.1216,0.4467,14.15,-27.89)"
           id="path21121" />
      </g>
      <g
         style="fill:#ffcc3f;fill-opacity:1;stroke:#ffffff;stroke-width:1.0001;stroke-dasharray:none"
         id="g21129">
        <path
           style="opacity:1;fill:#ffcc3f;fill-opacity:1;stroke:#ffffff;stroke-width:1.0001;stroke-linecap:butt;stroke-linejoin:round;stroke-miterlimit:4;stroke-dasharray:none;stroke-dashoffset:0;stroke-opacity:1;paint-order:normal"
           d="m 62.1,86.82 c 17.18,8.14 17.84,36.78 0.1,44.78"
           transform="matrix(-0.1817,0.4259,0.4259,0.1817,-18.74,-11.98)"
           id="path21125" />
        <path
           style="opacity:1;fill:#ffcc3f;fill-opacity:1;stroke:#ffffff;stroke-width:1.0001;stroke-linecap:butt;stroke-linejoin:round;stroke-miterlimit:4;stroke-dasharray:none;stroke-dashoffset:0;stroke-opacity:1;paint-order:normal"
           d="M 62.26,86.82 C 45.08,94.96 44.41,123.6 62.18,131.6"
           transform="matrix(-0.1817,0.4259,0.4259,0.1817,-18.74,-11.98)"
           id="path21127" />
      </g>
      <g
         style="fill:#ffcc3f;fill-opacity:1;stroke:#ffffff;stroke-width:1.0001;stroke-dasharray:none"
         id="g21135">
        <path
           style="opacity:1;fill:#ffcc3f;fill-opacity:1;stroke:#ffffff;stroke-width:1.0001;stroke-linecap:butt;stroke-linejoin:round;stroke-miterlimit:4;stroke-dasharray:none;stroke-dashoffset:0;stroke-opacity:1;paint-order:normal"
           d="m 62.1,86.82 c 17.18,8.14 17.84,36.78 0.1,44.78"
           transform="matrix(0.4167,-0.2017,0.2017,0.4167,-26.55,-3.827)"
           id="path21131" />
        <path
           style="opacity:1;fill:#ffcc3f;fill-opacity:1;stroke:#ffffff;stroke-width:1.0001;stroke-linecap:butt;stroke-linejoin:round;stroke-miterlimit:4;stroke-dasharray:none;stroke-dashoffset:0;stroke-opacity:1;paint-order:normal"
           d="M 62.26,86.82 C 45.08,94.96 44.41,123.6 62.18,131.6"
           transform="matrix(0.4167,-0.2017,0.2017,0.4167,-26.55,-3.827)"
           id="path21133" />
      </g>
    </g>
  </g>
</svg>
