<?xml version="1.0" encoding="UTF-8" standalone="no"?>
<!-- Created with Inkscape (http://www.inkscape.org/) -->

<svg
   version="1.1"
   id="svg2"
   width="148mm"
   height="105mm"
   viewBox="0 0 559.4 396.9"
   sodipodi:docname="Ashwa Sanchalana - D0011-min.svg"
   inkscape:version="1.2.1 (9c6d41e410, 2022-07-14)"
   xmlns:inkscape="http://www.inkscape.org/namespaces/inkscape"
   xmlns:sodipodi="http://sodipodi.sourceforge.net/DTD/sodipodi-0.dtd"
   xmlns="http://www.w3.org/2000/svg"
   xmlns:svg="http://www.w3.org/2000/svg">
  <defs
     id="defs6">
    <clipPath
       clipPathUnits="userSpaceOnUse"
       id="clipPath18">
      <path
         d="M 0,0 H 1240 V 1754 H 0 Z"
         id="path16" />
    </clipPath>
  </defs>
  <sodipodi:namedview
     id="namedview4"
     pagecolor="#505050"
     bordercolor="#eeeeee"
     borderopacity="1"
     inkscape:showpageshadow="0"
     inkscape:pageopacity="0"
     inkscape:pagecheckerboard="0"
     inkscape:deskcolor="#505050"
     showgrid="false"
     inkscape:zoom="0.2854"
     inkscape:cx="597.4"
     inkscape:cy="611.4"
     inkscape:window-width="1620"
     inkscape:window-height="1058"
     inkscape:window-x="-6"
     inkscape:window-y="-6"
     inkscape:window-maximized="1"
     inkscape:current-layer="g10"
     inkscape:document-units="mm">
    <inkscape:page
       x="0"
       y="0"
       id="page8"
       width="559.4"
       height="396.9" />
  </sodipodi:namedview>
  <g
     id="g10"
     inkscape:groupmode="layer"
     inkscape:label="Page 1"
     transform="matrix(1.333,0,0,-1.333,-86.95,1671)">
    <g
       id="g12"
       style="fill:#ffffff;fill-opacity:1"
       inkscape:export-filename="SK_lineart.png"
       inkscape:export-xdpi="200"
       inkscape:export-ydpi="200"
       transform="matrix(0.3252,0,0,0.3252,83.73,828.8)">
      <g
         id="g14"
         clip-path="url(#clipPath18)"
         style="fill:#ffffff;fill-opacity:1">
        <g
           id="g20"
           transform="translate(941,1078)"
           style="fill:#ffffff;fill-opacity:1">
          <path
             d="m 0,0 c -5.962,-2.715 -11.14,-6.778 -16.18,-10.9 -5.04,-4.12 -10,-8.45 -15.64,-11.83 -5.56,-3.39 -10.79,-7.27 -15.78,-11.44 -4.99,-4.18 -9.75,-8.61 -14.32,-13.25 -4.56,-4.63 -8.93,-9.47 -13.21,-14.37 -4.27,-4.91 -8.37,-9.96 -12.16,-15.21 -3.8,-5.25 -7.22,-10.78 -10.66,-16.32 -3.45,-5.55 -6.85,-11.08 -10.45,-16.58 -1.8,-2.8 -3.6,-5.5 -5.5,-8.2 l -0.7,-1 -0.4,-0.5 -0.4,-0.5 -1.5,-2 -3,-3.8 c -3.9,-5.2 -7.6,-10.5 -11,-16 -3.4,-5.5 -6.6,-11.2 -9.8,-16.9 -3.2,-5.8 -7.1,-11.3 -11.1,-16.4 -4.1,-5.2 -8.3,-10.2 -12.4,-15.3 -1,-1.2 -2,-2.5 -3,-3.8 l -2.9,-3.9 c -2.1,-2.6 -4.2,-5.1 -6.5,-7.6 -4.4,-4.9 -9.2,-9.5 -14.1,-13.9 -4.8,-4.4 -9.6,-8.8 -14.3,-13.2 -9.4,-9 -18.3,-18.5 -27.6,-27.7 -2.4,-2.3 -4.7,-4.7 -7.1,-6.9 -2.3,-2.3 -4.5,-4.5 -6.7,-6.9 -4.4,-4.7 -8.7,-9.6 -13,-14.5 -4.3,-5 -8.8,-9.9 -13.5,-14.5 -4.9,-4.6 -9.7,-8.9 -14.5,-13.4 -9.7,-8.7 -19.5,-17.4 -28.9,-26.3 -9.6,-9.2 -20.1,-17.3 -30.8,-25 -5.3,-3.8 -10.7,-7.5 -16,-11.3 -5.4,-3.7 -10.7,-7.4 -16.2,-11.1 -10.9,-7.4 -22.3,-14.3 -34.5,-19.8 l -18.1,-7.7 c -6.1,-2.5 -12.3,-5 -18.7,-7 -3.2,-1 -6.5,-1.9 -9.9,-2.5 -1.6,-0.4 -3.3,-0.7 -5,-0.9 -1.7,-0.2 -3.5,-0.4 -5.1,-0.6 -6.6,-0.6 -13.2,-0.9 -19.8,-1 -13.3,-0.3 -26.5,0.2 -39.6,1.4 -13.2,1.2 -26.2,3 -39.2,5.5 l -19.2,3.8 -19.2,3.8 c -25.6,4.9 -51.3,9.5 -77,13.2 -12.9,1.8 -25.8,3.5 -38.7,4.8 -6.5,0.7 -12.9,1.2 -19.4,1.8 l -2.4,0.1 -2.4,0.2 c -1.6,0.1 -3.2,0.1 -4.8,0.2 -3.2,0.1 -6.4,0.1 -9.6,0.1 -12.9,-0.1 -26.1,-0.8 -39.6,0.5 -1.7,0.2 -3.4,0.4 -5.1,0.7 l -2.5,0.3 c -0.8,0.2 -1.7,0.3 -2.5,0.5 -3.4,0.7 -6.7,1.6 -9.9,2.5 -6.4,1.9 -12.5,4 -18.4,4.9 -2.9,0.5 -5.8,0.7 -8.6,0.5 -2.7,-0.3 -5.4,-1.1 -7.8,-2.3 -2.5,-1.2 -4.9,-2.9 -6.7,-4.7 -1.8,-1.9 -3,-4 -3.5,-6.4 -0.6,-2.4 -0.5,-5.2 0,-8 0.5,-2.9 1.3,-5.9 2.3,-9 l 1.4,-4.7 0.7,-2.5 0.6,-2.4 2.4,-9.5 c 1.6,-6.4 3.1,-13 3.9,-19.7 0.4,-3.4 0.6,-6.9 0.7,-10.3 0,-1.7 -0.1,-3.4 -0.1,-5.2 -0.1,-1.7 -0.3,-3.5 -0.6,-5.2 -0.9,-6.9 -2.9,-13.4 -4.5,-19.6 -1.6,-6.1 -2.8,-12.2 -2.6,-18.1 0.1,-2.6 0.7,-5.1 2,-7.1 1.3,-2.1 3.2,-3.9 5.5,-5.3 2.4,-1.4 5.1,-2.4 8,-3.2 2.9,-0.8 5.9,-1.3 9,-1.7 6.2,-0.7 12.6,-0.8 19,-0.6 6.4,0.1 12.8,0.6 19.4,1 l -3.1,-1.7 c 1.3,1.8 1.8,3.7 1.3,5.5 -0.3,0.9 -0.7,1.7 -1.3,2.4 -0.6,0.6 -1.4,1 -2.1,1.2 l -2.2,0.5 -0.8,2.2 c 0.3,-0.6 0.4,-0.8 0.5,-0.9 0.1,-0.1 0.1,-0.1 0.1,-0.1 0,0 0,0 0,0 l -0.1,0.1 c -0.2,0.2 -0.5,0.4 -0.8,0.6 -0.6,0.4 -1.3,0.8 -2,1.3 -1.4,0.8 -2.9,1.6 -4.5,2.4 l -1.3,0.7 c -0.3,0.2 -0.9,0.5 -1.3,0.8 -0.9,0.6 -1.8,1.2 -2.6,1.9 -1.7,1.5 -3.1,3.2 -4.2,5.1 -2.3,3.9 -3,8.3 -3,12.3 0.1,4.1 0.9,7.9 2,11.6 1.2,3.6 2.7,7.1 4.5,10.4 1.8,3.3 3.9,6.5 6.3,9.5 1.2,1.5 2.5,2.9 4,4.3 1.4,1.3 2.9,2.5 4.5,3.7 3.2,2.2 6.8,3.9 10.5,5.2 7.3,2.5 15,3 22.3,2.7 7.4,-0.3 14.6,-1.5 21.6,-2.8 7.1,-1.4 14,-3.1 20.9,-4.6 3.4,-0.7 6.8,-1.4 10.2,-1.9 3.6,-0.6 7.1,-1.2 10.6,-1.9 28,-5.3 55.4,-12.7 82.9,-19.2 13.8,-3.2 27.6,-6.2 41.5,-8.6 1.7,-0.3 3.5,-0.6 5.3,-0.9 1.7,-0.4 3.5,-0.8 5.2,-1.1 3.6,-0.8 7,-1.7 10.5,-2.7 6.9,-2 13.7,-4.2 20.4,-6.5 6.7,-2.3 13.4,-4.6 20.1,-6.6 3.3,-1 6.7,-1.9 10.1,-2.7 3.4,-0.9 6.8,-1.5 10.3,-2.2 6.9,-1.4 13.8,-2.6 20.7,-3.1 6.9,-0.5 13.8,-0.2 20.5,1.3 1.7,0.3 3.3,0.8 5,1.3 l 2.5,0.8 c 0.9,0.3 1.7,0.5 2.6,0.8 3.6,0.9 7.2,1.4 10.8,1.7 7.2,0.7 14.3,0.7 21.1,1.7 1.8,0.2 3.5,0.5 5.1,0.9 1.7,0.3 3.4,0.8 5.1,1.2 l 10.3,2.7 c 6.9,1.8 13.7,3.5 20.5,5.4 6.8,1.9 13.6,3.9 20.3,6.2 6.7,2.3 13.4,4.6 20.1,6.8 13.5,4.5 27,8.8 40.5,13 l 10.1,3.2 c 3.4,1 6.7,2.2 10.1,3.4 6.6,2.5 13.1,5.2 19.7,7.9 13.1,5.4 26,11.2 39.2,16.4 -13.1,-5.4 -25.9,-11.5 -38.9,-17.2 -6.5,-2.8 -13,-5.6 -19.6,-8.2 -3.3,-1.3 -6.6,-2.6 -10,-3.7 l -10.1,-3.3 c -13.5,-4.4 -26.9,-9 -40.3,-13.6 -6.6,-2.3 -13.3,-4.7 -20,-7.2 -6.7,-2.3 -13.4,-4.5 -20.3,-6.5 -6.8,-2 -13.6,-3.9 -20.4,-5.8 l -10.3,-2.8 c -1.7,-0.4 -3.4,-1 -5.2,-1.4 -1.8,-0.4 -3.5,-0.7 -5.3,-1 -7.2,-1.1 -14.3,-1.2 -21.3,-2 -3.4,-0.3 -6.8,-0.9 -10.1,-1.8 -0.8,-0.2 -1.6,-0.5 -2.4,-0.7 l -2.6,-0.9 c -1.7,-0.6 -3.5,-1.1 -5.2,-1.5 -7.2,-1.7 -14.6,-2.1 -21.8,-1.7 -7.2,0.5 -14.3,1.7 -21.3,2.9 -3.5,0.7 -7,1.3 -10.5,2.1 -3.5,0.9 -7,1.8 -10.4,2.8 -6.9,1.9 -13.7,4.1 -20.4,6.3 -13.5,4.4 -26.8,8.5 -40.7,10.5 -14.1,2.2 -28,5.1 -41.9,8.3 -27.7,6.2 -55.1,13.4 -82.8,18.4 -3.5,0.6 -6.9,1.2 -10.4,1.7 -3.5,0.5 -7.1,1.2 -10.6,1.9 -7,1.5 -13.9,3.1 -20.8,4.4 -6.8,1.3 -13.7,2.3 -20.5,2.5 -6.7,0.2 -13.5,-0.3 -19.5,-2.4 -3.1,-1.1 -5.9,-2.5 -8.5,-4.3 -1.3,-0.9 -2.5,-1.9 -3.7,-3 -1.1,-1.1 -2.2,-2.3 -3.2,-3.6 -4.1,-5.1 -7.3,-11.1 -9.3,-17.3 -1,-3.1 -1.6,-6.3 -1.6,-9.3 0,-3 0.6,-5.8 1.9,-8.1 0.7,-1.2 1.6,-2.2 2.6,-3.1 0.5,-0.4 1.1,-0.8 1.7,-1.2 0.3,-0.2 0.5,-0.3 0.9,-0.6 -0.3,0.2 0,0 0,0.1 l 0.1,-0.1 0.3,-0.2 0.6,-0.3 c 1.7,-0.8 3.3,-1.7 4.9,-2.6 0.8,-0.5 1.7,-1 2.5,-1.6 0.4,-0.3 0.9,-0.6 1.4,-1 0.2,-0.2 0.5,-0.4 0.8,-0.8 l 0.2,-0.2 c 0.1,-0.2 0.2,-0.3 0.3,-0.4 0.2,-0.3 0.5,-0.6 0.8,-1.5 l -2.9,2.7 c 2.4,-0.5 4.5,-1.8 6.1,-3.5 1.6,-1.6 2.7,-3.7 3.3,-5.8 0.6,-2.2 0.7,-4.5 0.2,-6.7 -0.5,-2.2 -1.5,-4.2 -2.7,-5.9 l -1.2,-1.6 -1.9,-0.1 c -12.9,-0.8 -26.3,-2 -39.8,-0.5 -3.4,0.4 -6.9,1 -10.3,1.9 -3.4,0.9 -6.8,2.1 -10.1,4.1 -3.3,1.8 -6.4,4.5 -8.6,8 -1,1.8 -1.8,3.7 -2.4,5.6 -0.5,2 -0.8,3.9 -0.9,5.9 -0.1,7.2 1.2,14.1 2.9,20.5 1.7,6.5 3.5,12.5 4.3,18.6 0.2,1.5 0.4,3 0.5,4.5 0,1.5 0.1,3.1 0,4.6 0,3.1 -0.2,6.2 -0.6,9.3 -0.7,6.2 -2.1,12.4 -3.7,18.7 l -2.4,9.4 -0.6,2.3 -0.7,2.3 -1.4,4.7 c -0.9,3.1 -1.9,6.4 -2.5,10 -0.6,3.5 -0.9,7.4 0,11.4 0.9,4 3.1,7.8 5.8,10.6 0.7,0.7 1.4,1.3 2.1,2 0.4,0.3 0.8,0.6 1.2,0.9 l 0.5,0.4 0.5,0.4 c 1.6,1.1 3.2,2.1 4.9,2.9 3.3,1.7 7.1,2.7 10.8,3.1 3.8,0.4 7.5,0.1 11,-0.5 6.9,-1.1 13.2,-3.3 19.4,-5.1 3.1,-0.9 6.1,-1.7 9.1,-2.3 0.8,-0.2 1.5,-0.3 2.3,-0.4 l 2.3,-0.4 c 1.5,-0.2 3.1,-0.4 4.7,-0.5 12.5,-1.2 25.5,-0.6 38.7,-0.6 3.2,0.1 6.6,0 9.9,-0.1 1.7,0 3.3,-0.1 5,-0.2 l 2.5,-0.2 2.5,-0.2 c 6.5,-0.5 13.1,-1.1 19.6,-1.8 13,-1.3 26.1,-3 39,-4.9 26,-3.7 51.8,-8.4 77.4,-13.4 l 19.3,-3.8 19.1,-3.9 c 12.7,-2.4 25.5,-4.3 38.4,-5.5 12.8,-1.2 25.7,-1.8 38.6,-1.6 6.5,0.1 12.9,0.4 19.3,0.9 1.7,0.1 3.1,0.3 4.7,0.5 1.5,0.2 3,0.4 4.6,0.7 3,0.6 6,1.4 9.1,2.3 6,1.9 12,4.2 17.9,6.7 l 18,7.6 c 11.7,5.1 22.7,11.7 33.5,18.9 5.4,3.5 10.8,7.3 16.2,10.9 5.4,3.7 10.8,7.4 16,11.1 10.6,7.5 20.9,15.3 30.3,24.1 9.6,8.9 19.4,17.6 29.2,26.2 4.8,4.4 9.8,8.7 14.4,13.1 4.7,4.4 9,9.1 13.4,14 4.3,4.8 8.6,9.8 13.2,14.5 2.3,2.4 4.7,4.8 7.1,7 2.3,2.3 4.7,4.5 7,6.8 9.4,9 18.5,18.4 28.1,27.4 9.5,9 19.8,17.1 28.5,26.5 2.2,2.4 4.3,4.8 6.3,7.3 l 3,3.9 c 1,1.3 2,2.6 3.1,3.8 4.2,5.1 8.5,10 12.5,15 4.1,5.1 7.9,10.2 11,15.8 3.3,5.6 6.6,11.4 10.2,16.9 3.5,5.5 7.4,10.9 11.4,16.1 l 3.1,3.8 1.5,1.9 0.4,0.4 0.3,0.5 0.7,1 c 2,2.6 3.8,5.3 5.6,8 3.7,5.4 7.2,10.88 10.7,16.37 3.54,5.48 7.09,11 11.05,16.26 3.95,5.26 8.19,10.28 12.57,15.15 4.41,4.85 8.88,9.61 13.57,14.2 9.37,9.14 19.49,17.64 30.83,24.24 5.65,3.21 10.68,7.4 15.83,11.42 C -11.32,-6.544 -6.022,-2.58 0,0"
             style="fill:#ffffff;fill-opacity:1;fill-rule:nonzero;stroke:none"
             id="path22" />
        </g>
        <g
           id="g24"
           transform="translate(673,706)"
           style="fill:#ffffff;fill-opacity:1">
          <path
             d="m 0,0 c 0.26,-2.313 0.438,-4.63 0.658,-6.942 0.19,-2.313 0.373,-4.618 0.607,-6.918 0.465,-4.58 0.984,-9.12 2.277,-13.32 1.232,-4.2 3.256,-7.97 5.979,-11.28 2.709,-3.32 6.009,-6.25 9.529,-8.99 1.75,-1.39 3.43,-2.53 5.29,-3.58 1.84,-1.03 3.75,-1.94 5.74,-2.71 3.98,-1.52 8.2,-2.56 12.54,-3.23 4.34,-0.67 8.78,-1.05 13.29,-1.23 4.5,-0.2 9.07,-0.25 13.68,-0.27 18.52,-0.16 36.81,-0.78 54.71,1.86 4.4,0.67 8.8,1.51 13.2,2.67 4.2,1.14 8.5,2.74 12.7,4.51 8.5,3.47 16.8,7.83 25.8,10.43 -8.2,-4.44 -15.7,-9.69 -23.8,-14.4 -4.1,-2.32 -8.3,-4.47 -12.9,-6.19 -4.5,-1.65 -9.1,-2.94 -13.7,-3.98 -9.3,-2.08 -18.8,-3.06 -28.14,-3.55 -4.69,-0.25 -9.37,-0.33 -14.03,-0.39 -4.66,0 -9.3,0 -13.92,0.1 -9.26,0.11 -18.79,0.27 -28.37,2.11 -4.77,0.93 -9.56,2.25 -14.12,4.32 -2.27,1.02 -4.5,2.2 -6.61,3.58 -2.09,1.36 -4.14,2.99 -5.9,4.61 -3.55,3.22 -6.971,6.75 -9.741,10.9 -2.798,4.12 -4.726,8.95 -5.51,13.78 -0.773,4.84 -0.744,9.59 -0.475,14.25 C -0.941,-9.24 -0.493,-4.629 0,0"
             style="fill:#ffffff;fill-opacity:1;fill-rule:nonzero;stroke:none"
             id="path26" />
        </g>
        <g
           id="g28"
           transform="translate(938,716)"
           style="fill:#ffffff;fill-opacity:1">
          <path
             d="m 0,0 c 4.233,8.423 9.954,15.99 16.16,22.99 6.23,6.99 13.01,13.39 19.9,19.51 l 5.2,4.55 2.59,2.22 c 0.47,0.41 0.77,0.67 1.17,1.04 l 1.14,1.09 c 3.04,2.98 5.93,6.47 8.95,9.95 3.02,3.48 6.14,7.04 9.7,10.25 1.78,1.59 3.66,3.11 5.7,4.4 2.01,1.31 4.21,2.38 6.49,3 C 73.37,76 70.67,72.42 68.13,68.68 65.61,64.94 63.28,61.04 60.79,57.13 58.29,53.21 55.66,49.28 52.37,45.54 51.96,45.07 51.53,44.6 51.09,44.15 50.67,43.72 50.12,43.19 49.74,42.83 L 47.18,40.42 42.03,35.77 C 35.12,29.65 28.06,23.82 21.08,17.93 14.04,12.08 7.183,6.084 0,0"
             style="fill:#ffffff;fill-opacity:1;fill-rule:nonzero;stroke:none"
             id="path30" />
        </g>
        <g
           id="g32"
           transform="translate(771,808)"
           style="fill:#ffffff;fill-opacity:1">
          <path
             d="m 0,0 c 8.029,2.566 15.85,4.773 23.51,7.343 7.66,2.523 15.17,5.287 22.62,8.277 1.87,0.73 3.73,1.5 5.58,2.28 1.87,0.74 3.72,1.55 5.58,2.33 3.36,1.37 6.93,3.47 10.53,5.34 7.19,3.87 14.5,7.68 22.18,11.1 -2.67,-3.29 -5.7,-6.19 -8.76,-9.02 -3.08,-2.81 -6.27,-5.47 -9.58,-8.02 -1.65,-1.27 -3.34,-2.51 -5.09,-3.71 -0.88,-0.6 -1.76,-1.2 -2.7,-1.77 -0.9,-0.56 -2.08,-1.2 -2.95,-1.64 C 59.06,11.54 57.17,10.65 55.27,9.751 53.35,8.892 51.42,8.059 49.47,7.266 41.66,4.139 33.48,1.809 25.16,0.486 16.83,-0.797 8.357,-1.181 0,0"
             style="fill:#ffffff;fill-opacity:1;fill-rule:nonzero;stroke:none"
             id="path34" />
        </g>
        <g
           id="g36"
           transform="translate(974,887)"
           style="fill:#ffffff;fill-opacity:1">
          <path
             d="m 0,0 c 4.92,1.528 9.811,3.126 14.67,4.809 4.89,1.651 9.71,3.347 14.53,5.183 4.82,1.818 9.78,3.518 14.98,4.568 1.29,0.26 2.63,0.47 3.92,0.65 1.26,0.17 2.51,0.36 3.78,0.57 l 7.61,1.25 c 5.11,0.82 10.3,1.52 15.59,1.78 5.29,0.24 10.74,0.1 16.2,-1.38 2.71,-0.75 5.43,-1.85 7.89,-3.53 1.33,-0.91 2.13,-1.59 3.23,-2.34 l 3.1,-2.203 c 4.2,-2.918 8.5,-5.802 12.7,-9.24 4.1,-3.418 8.1,-7.497 11,-12.357 0.8,-1.21 1.4,-2.44 2,-3.76 0.6,-1.11 1.2,-2.46 1.7,-3.7 1,-2.52 1.9,-5.13 2.6,-7.78 1.4,-5.33 2,-10.91 1.9,-16.45 -0.2,-5.54 -1.2,-11 -2.8,-16.22 -0.7,-2.61 -1.6,-5.18 -2.5,-7.55 -0.9,-2.46 -1.9,-4.9 -2.8,-7.32 -2,-4.83 -4,-9.62 -6.1,-14.37 -4.3,-9.49 -8.8,-18.81 -13.4,-28.01 -4.6,-9.3 -9.3,-18.4 -13.76,-27.6 -2.25,-4.6 -4.45,-9.2 -6.57,-13.9 -2.12,-4.6 -4.26,-9.4 -6.5,-14 -4.46,-9.3 -9.03,-18.6 -13.55,-27.8 l -6.74,-13.9 -6.88,-13.8 c -4.6,-9.2 -9.14,-18.4 -13.62,-27.7 -4.49,-9.2 -8.56,-18.5 -12.24,-28.1 -1.87,-4.7 -3.63,-9.6 -5.26,-14.4 -1.61,-4.7 -2.56,-9.7 -3.17,-14.7 -0.59,-5.1 -0.76,-10.2 -0.64,-15.3 0.1,-5.2 0.51,-10.3 1.13,-15.4 -2.22,10.1 -3.42,20.4 -2.98,30.8 0.21,5.3 0.94,10.5 2.31,15.6 1.38,5 2.85,10 4.45,14.9 3.23,9.9 6.94,19.6 11.03,29.1 4.06,9.5 8.4,18.8 12.66,28.2 l 6.37,14.1 6.46,14 c 4.34,9.3 8.71,18.7 12.94,28 l 6.32,14 c 2.12,4.8 4.33,9.5 6.56,14.1 4.48,9.4 9.11,18.6 13.68,27.8 4.6,9.2 9.1,18.33 13.4,27.61 2.1,4.64 4.1,9.32 6,14.02 1,2.35 1.9,4.72 2.8,7.07 l 1.3,3.56 c 0.5,1.15 0.9,2.3 1.2,3.46 1.5,4.62 2.4,9.35 2.7,14.1 0.2,4.75 -0.2,9.51 -1.3,14.16 -0.6,2.32 -1.3,4.63 -2.2,6.89 -0.4,1.16 -0.9,2.16 -1.4,3.39 -0.5,1.03 -1,2.08 -1.6,3.09 -2.2,4.04 -5.4,7.609 -9.1,10.848 -3.6,3.249 -7.8,6.201 -11.9,9.314 L 98.57,6.488 C 97.56,7.26 96.41,8.23 95.62,8.806 93.86,10.09 91.81,11.09 89.6,11.81 c -4.44,1.44 -9.41,1.86 -14.38,1.86 -5,0 -10.06,-0.47 -15.15,-1 L 52.38,11.88 C 51.1,11.75 49.8,11.63 48.5,11.53 47.23,11.43 46.01,11.31 44.77,11.14 39.81,10.45 34.91,9.064 29.98,7.638 20.08,4.685 10.09,2.127 0,0"
             style="fill:#ffffff;fill-opacity:1;fill-rule:nonzero;stroke:none"
             id="path38" />
        </g>
        <g
           id="g40"
           transform="translate(888,995)"
           style="fill:#ffffff;fill-opacity:1">
          <path
             d="m 0,0 c -3.427,-21.56 -6.198,-43.16 -9.508,-64.77 -0.822,-5.4 -1.792,-10.79 -2.662,-16.15 -0.86,-5.34 -1.66,-10.73 -2.4,-16.11 -1.49,-10.77 -2.93,-21.57 -4.32,-32.37 l -2.17,-16.2 c -0.72,-5.4 -1.3,-10.7 -1.69,-16.1 -0.8,-10.7 -0.98,-21.5 -0.96,-32.3 l 0.1,-16.4 c 0,-2.7 0,-5.5 -0.1,-8.3 -0.1,-2.8 -0.22,-5.5 -0.43,-8.3 -0.2,-2.8 -0.47,-5.6 -0.84,-8.4 -0.37,-2.8 -0.82,-5.7 -1.57,-8.6 -1.47,-5.6 -3.28,-10.6 -4.5,-15.7 -1.27,-5 -1.94,-9.9 -1.49,-14.7 0.1,-1.2 0.3,-2.3 0.53,-3.7 l 0.65,-4 1.3,-8.1 c 1.71,-10.8 3.35,-21.7 4.55,-32.6 0.6,-5.4 1.15,-10.9 1.62,-16.4 l 1.36,-16.3 c 0.47,-5.4 1.03,-10.7 1.75,-16 0.71,-5.4 1.61,-10.6 2.83,-15.8 1.19,-5.5 2.15,-10.8 3.11,-16.2 0.94,-5.4 1.87,-10.8 2.75,-16.2 l 2.752,-16.1 c 0.939,-5.4 1.758,-10.8 2.579,-16.2 1.599,-10.7 3.353,-21.4 6.292,-31.8 l 1.157,-4 c 0.38,-1.3 0.715,-2.6 1.037,-4 l 1.867,-7.9 c 0.624,-2.7 1.287,-5.3 2.11,-7.9 0.845,-2.6 1.776,-5.1 3.326,-7.4 -1.76,2.1 -2.937,4.6 -3.986,7.2 -1.041,2.5 -1.921,5.1 -2.761,7.7 l -2.416,7.8 c -0.409,1.3 -0.829,2.6 -1.283,3.9 l -1.427,3.8 c -3.711,10.4 -6.024,21.2 -8.267,31.9 -1.1,5.3 -2.13,10.6 -3.3,15.9 l -3.47,16 c -2.3,10.7 -4.3,21.5 -6.9,31.9 -1.42,5.3 -2.57,10.8 -3.47,16.3 -0.88,5.4 -1.54,10.9 -2.13,16.4 l -1.68,16.2 c -0.56,5.4 -1.21,10.8 -1.91,16.2 -1.37,10.7 -2.97,21.4 -4.77,32.2 l -1.35,8 -0.68,4.1 c -0.22,1.2 -0.49,2.8 -0.63,4.3 -0.61,6.1 0.22,12.2 1.62,17.7 1.4,5.6 3.3,10.8 4.63,15.7 1.21,4.8 1.82,10.2 2.25,15.4 0.21,2.7 0.36,5.3 0.46,8 0.11,2.7 0.13,5.3 0.13,8 0,5.5 0,11 0.13,16.4 0.19,11 0.59,22 1.62,33 0.53,5.5 1.19,11 2.09,16.5 l 2.68,16.1 c 1.78,10.8 3.46,21.5 5.45,32.31 0.99,5.38 2.03,10.74 3.15,16.12 l 3.39,15.99 C -9.326,-42.68 -5.375,-21.17 0,0"
             style="fill:#ffffff;fill-opacity:1;fill-rule:nonzero;stroke:none"
             id="path42" />
        </g>
        <g
           id="g44"
           transform="translate(961,1014)"
           style="fill:#ffffff;fill-opacity:1">
          <path
             d="m 0,0 c 5.557,-4.325 9.407,-10.54 12.03,-17.06 2.64,-6.55 4.14,-13.51 5.07,-20.5 0.94,-6.99 1.25,-14.07 1.28,-21.08 0,-7.03 -0.19,-14.08 -0.8,-21.11 -0.31,-3.52 -0.7,-7.03 -1.2,-10.53 l -0.4,-2.63 -0.18,-1.26 -0.14,-1.23 c -0.17,-1.66 -0.25,-3.36 -0.29,-5.1 -0.1,-3.4 0,-6.9 -0.21,-10.5 -0.1,-1.8 -0.24,-3.6 -0.52,-5.5 -0.14,-0.9 -0.3,-1.8 -0.51,-2.7 l -0.59,-2.6 c -3.1,-13.6 -5.915,-27.3 -9.609,-41 -1.833,-6.8 -3.94,-13.5 -6.36,-20.2 -2.428,-6.7 -4.949,-13.2 -7.442,-19.7 -4.989,-13.1 -9.859,-26.1 -13.699,-39.3 -3.88,-13.3 -6.7,-26.8 -7.31,-40.3 -0.48,-13.9 -0.67,-27.9 -0.72,-41.8 -0.1,-14 0,-28 0,-42 0,-14 -0.16,-28 -0.44,-42 l -0.48,-21 c -0.17,-6.9 -0.13,-13.8 0.15,-20.7 0.56,-13.8 2.03,-27.5 4.75,-41 0.69,-3.3 1.45,-6.7 2.3,-10 l 0.66,-2.4 0.34,-1.3 0.17,-0.6 0.17,-0.5 c 0.38,-1.3 0.98,-2.6 1.72,-3.7 2.95,-4.7 8.57,-8.1 14.607,-10.6 6.095,-2.4 12.726,-4.2 19.433,-5.7 6.73,-1.4 13.58,-2.7 20.48,-4 3.45,-0.7 6.91,-1.4 10.37,-2.2 3.45,-0.7 6.97,-1.6 10.31,-2.4 l 20.38,-5 c 13.61,-3.4 27.28,-6.9 40.68,-11.8 l 0.8,-0.3 0.5,-0.6 c 0.8,-0.9 1.5,-1.8 2.1,-3 0.6,-1.1 1.2,-2.5 1.2,-4.3 0,-0.9 -0.2,-1.8 -0.5,-2.6 -0.4,-0.8 -0.9,-1.5 -1.4,-2.1 -1,-1.2 -2.1,-1.9 -3.2,-2.4 -2.1,-1.1 -4.1,-1.7 -6.1,-2.1 -2,-0.5 -4,-0.8 -5.9,-1 -3.94,-0.5 -7.82,-0.7 -11.66,-0.8 l -5.66,-0.1 c -1.89,0 -3.8,-0.1 -5.73,-0.1 -15.28,-0.3 -30.46,0.3 -45.59,0.5 -7.58,0.1 -15.19,0.2 -22.81,0.6 -7.629,0.3 -15.265,1 -22.81,2.2 -7.51,1.3 -14.99,2.6 -22.45,4.2 -3.72,0.7 -7.43,1.6 -11.11,2.6 -3.67,1.1 -7.34,2.2 -10.79,4 l -0.16,0.1 -0.1,0.1 c -1.65,3.1 -2.86,6.5 -3.58,10 -0.36,1.7 -0.61,3.5 -0.78,5.2 -0.2,1.8 -0.25,3.5 -0.61,5.2 0.45,-1.7 0.59,-3.4 0.87,-5.2 0.26,-1.7 0.59,-3.4 1.03,-5.1 0.88,-3.4 2.23,-6.6 3.99,-9.6 l -0.23,0.2 c 3.4,-1.5 7.07,-2.5 10.72,-3.3 3.67,-0.9 7.38,-1.6 11.11,-2.2 7.45,-1.3 14.97,-2.2 22.47,-3.2 7.472,-1 14.981,-1.4 22.52,-1.5 7.53,-0.1 15.1,0.1 22.69,0.2 15.2,0.2 30.37,0 45.41,0.7 1.86,0.1 3.74,0.2 5.64,0.3 l 5.71,0.2 c 3.73,0.2 7.44,0.5 11.01,1 1.8,0.2 3.6,0.6 5.3,1 1.7,0.4 3.3,0.9 4.6,1.6 0.6,0.3 1.1,0.7 1.3,1 0.2,0.3 0.2,0.3 0.2,0.5 0,0.1 -0.1,0.5 -0.4,1 -0.3,0.5 -0.8,1.1 -1.3,1.7 l 1.4,-0.9 c -13.02,4.5 -26.56,7.7 -40.15,10.8 l -20.47,4.7 c -3.45,0.8 -6.73,1.6 -10.13,2.3 -3.38,0.7 -6.79,1.3 -10.21,1.9 -6.86,1.3 -13.78,2.5 -20.74,3.9 -6.946,1.5 -13.948,3.2 -20.86,5.9 -3.45,1.4 -6.89,3 -10.14,5.2 -3.24,2.2 -6.33,5 -8.61,8.6 -1.14,1.8 -2.04,3.7 -2.71,5.8 l -0.22,0.7 -0.18,0.7 -0.36,1.3 -0.7,2.6 c -0.9,3.4 -1.71,6.9 -2.44,10.4 -2.89,14 -4.45,28.1 -5.08,42.3 -0.31,7.1 -0.39,14.2 -0.24,21.3 l 0.55,21 c 0.33,13.9 0.57,27.9 0.6,41.8 0,14 0,28 0.2,42.1 0.21,14 0.55,28 1.21,42.1 0.82,14.4 3.95,28.5 8.1,42 4.19,13.6 9.41,26.7 14.64,39.7 2.62,6.5 5.27,13 7.782,19.4 2.48,6.5 4.633,13 6.634,19.7 3.986,13.3 7.15,26.9 10.632,40.5 l 0.655,2.5 c 0.202,0.8 0.367,1.6 0.511,2.4 0.286,1.6 0.466,3.3 0.606,5 0.25,3.4 0.32,6.8 0.53,10.4 0.11,1.78 0.26,3.57 0.5,5.38 l 0.2,1.37 0.24,1.33 0.47,2.55 c 0.61,3.41 1.12,6.84 1.53,10.28 0.84,6.88 1.29,13.83 1.5,20.78 0.26,6.97 0.24,13.91 -0.4,20.83 -0.64,6.91 -1.85,13.79 -4.1,20.36 C 8.796,-10.9 5.332,-4.597 0,0"
             style="fill:#ffffff;fill-opacity:1;fill-rule:nonzero;stroke:none"
             id="path46" />
        </g>
        <g
           id="g48"
           transform="translate(996.3,541.7)"
           style="fill:#ffffff;fill-opacity:1">
          <path
             d="m 0,0 c 5.681,-3.794 11.44,-7.22 17.37,-10.43 l 17.8,-9.63 c 5.94,-3.26 11.87,-6.63 17.68,-10.36 0.72,-0.47 1.45,-0.93 2.17,-1.42 l 2.04,-1.35 c 1.36,-0.88 2.77,-1.74 4.19,-2.59 2.83,-1.71 5.71,-3.39 8.64,-5.05 l 8.76,-5.05 c 2.92,-1.73 5.86,-3.44 8.76,-5.24 2.9,-1.81 5.81,-3.63 8.65,-5.61 2.86,-1.97 5.64,-4.03 8.34,-6.44 1.4,-1.21 2.7,-2.51 4,-4.11 0.6,-0.81 1.2,-1.69 1.7,-2.82 0.3,-0.57 0.5,-1.2 0.6,-1.96 0.1,-0.37 0.1,-0.78 0.1,-1.19 0,-0.21 0,-0.43 0,-0.64 0,0 -0.1,-0.32 0,-0.2 h -0.1 v -0.1 -0.16 c -0.5,-2.64 -2.2,-4.57 -3.9,-5.79 -1.7,-1.23 -3.5,-1.94 -5.3,-2.47 -3.6,-0.97 -7.1,-1.27 -10.57,-1.26 -3.47,0 -6.89,0.32 -10.26,0.89 1.69,0.23 3.38,0.42 5.05,0.7 1.67,0.25 3.33,0.53 4.96,0.89 3.24,0.71 6.47,1.55 9.25,2.92 1.37,0.67 2.67,1.46 3.57,2.37 0.9,0.88 1.3,1.89 1.3,2.62 l 0.1,0.16 v 0.1 0 c 0,0.14 -0.1,-0.15 0,-0.13 -0.1,0 -0.1,0 -0.1,0 0,0 0,0 0,0.1 -0.1,0.1 -0.1,0.24 -0.3,0.42 -0.2,0.39 -0.6,0.87 -1.1,1.35 -0.9,0.97 -2.2,1.93 -3.42,2.86 -5.16,3.67 -11.05,6.92 -16.88,10.17 l -8.84,4.88 -8.86,4.99 c -2.94,1.72 -5.89,3.45 -8.82,5.29 -1.46,0.93 -2.91,1.89 -4.36,2.89 l -2.14,1.52 -2.01,1.45 c -5.4,3.86 -11.01,7.57 -16.59,11.39 C 25.9,-22.21 20.3,-18.3 14.93,-14.05 9.603,-9.8 4.362,-5.285 0,0"
             style="fill:#ffffff;fill-opacity:1;fill-rule:nonzero;stroke:none"
             id="path50" />
        </g>
        <g
           id="g52"
           transform="translate(998,544)"
           style="fill:#ffffff;fill-opacity:1">
          <path
             d="m 0,0 c 9.2,1.104 18.49,1.124 27.73,0.896 9.24,-0.281 18.47,-0.987 27.66,-2.009 9.19,-1.014 18.34,-2.412 27.47,-4.18 4.56,-0.937 9.12,-1.895 13.68,-3.172 2.29,-0.638 4.56,-1.315 6.86,-2.165 1.2,-0.43 2.4,-0.91 3.6,-1.52 0.7,-0.32 1.3,-0.66 2.1,-1.16 0.3,-0.24 0.7,-0.52 1.2,-0.94 0.4,-0.42 0.9,-0.92 1.5,-1.97 l 0.3,-0.71 0.1,-0.85 c 0.1,-0.88 0,-1.83 -0.3,-2.7 -0.2,-0.88 -0.6,-1.66 -1.1,-2.3 -0.9,-1.28 -1.8,-2.1 -2.8,-2.73 -1.8,-1.24 -3.6,-1.89 -5.3,-2.46 -3.36,-1.1 -6.61,-1.65 -9.85,-2.09 -6.47,-0.86 -12.85,-1.06 -19.2,-1.03 -6.36,0.1 -12.68,0.38 -18.98,1.07 -3.15,0.32 -6.29,0.69 -9.41,1.22 -3.12,0.53 -6.27,1.07 -9.26,2.13 6.27,-0.4 12.53,0.1 18.76,0.36 6.23,0.41 12.44,0.82 18.61,1.45 6.16,0.61 12.3,1.37 18.2,2.53 2.94,0.59 5.85,1.31 8.39,2.25 1.24,0.48 2.44,1.06 3.14,1.6 0.4,0.27 0.6,0.51 0.5,0.52 0,0 -0.1,-0.34 -0.1,-0.56 l 0.4,-1.55 c 0.3,-0.54 0.5,-0.61 0.5,-0.65 0,0 -0.1,0 -0.2,0.11 -0.2,0.14 -0.6,0.33 -1,0.52 -0.8,0.38 -1.8,0.73 -2.8,1.08 -1.95,0.7 -4.07,1.32 -6.21,1.89 -4.31,1.12 -8.7,2.18 -13.13,3.11 -8.86,1.93 -17.83,3.59 -26.8,5.248 -8.97,1.64 -17.98,3.196 -27.01,4.681 -4.52,0.717 -9.04,1.511 -13.58,2.143 C 9.136,-1.229 4.586,-0.607 0,0"
             style="fill:#ffffff;fill-opacity:1;fill-rule:nonzero;stroke:none"
             id="path54" />
        </g>
        <g
           id="g56"
           transform="translate(1032,1041)"
           style="fill:#ffffff;fill-opacity:1">
          <path
             d="m 0,0 c 1.61,-0.138 3.222,-0.466 4.814,-0.876 1.584,-0.442 3.147,-1.013 4.67,-1.694 3.046,-1.372 5.866,-3.268 8.466,-5.424 5.17,-4.376 9.2,-9.926 12.48,-15.716 3.28,-5.81 5.8,-11.95 7.94,-18.13 1.09,-3.11 2.01,-6.16 2.97,-9.33 0.95,-3.3 1.58,-6.69 2.02,-10.02 0.84,-6.69 0.91,-13.31 0.6,-19.85 -0.33,-6.54 -1.02,-12.99 -1.95,-19.36 -1.85,-12.8 -4.58,-25.3 -7.34,-37.9 -0.57,6.4 -0.46,12.9 -0.38,19.3 0.13,6.5 0.43,12.9 0.67,19.22 0.24,6.36 0.48,12.68 0.46,18.95 0,3.13 0,6.25 -0.21,9.34 -0.13,3.09 -0.37,6.15 -0.77,9.16 -0.37,3.02 -0.9,5.94 -1.66,8.82 -0.78,2.99 -1.66,6.09 -2.52,9.08 -1.76,6.02 -3.7,11.92 -6.14,17.58 -2.44,5.64 -5.39,11.04 -9.28,15.75 C 10.99,-6.349 5.982,-2.51 0,0"
             style="fill:#ffffff;fill-opacity:1;fill-rule:nonzero;stroke:none"
             id="path58" />
        </g>
        <g
           id="g60"
           transform="translate(1059,1141)"
           style="fill:#ffffff;fill-opacity:1">
          <path
             d="m 0,0 c -1.492,-10.39 -3.781,-20.5 -5.347,-30.5 -0.734,-4.97 -1.484,-9.98 -1.027,-14.34 0.431,-4.99 1.103,-10.25 0.895,-15.91 -0.132,-2.82 -0.506,-5.72 -1.267,-8.57 -0.393,-1.42 -0.874,-2.82 -1.44,-4.18 -0.28,-0.68 -0.587,-1.36 -0.907,-2.01 -0.28,-0.58 -0.568,-1.15 -0.917,-1.79 -2.58,-4.87 -5.59,-9.23 -8.69,-13.42 -3.09,-4.18 -6.21,-8.2 -9.11,-12.38 -2.91,-4.2 -5.52,-8.5 -7.86,-13.2 0.44,5.2 1.96,10.4 3.97,15.3 2.02,4.94 4.56,9.59 7.05,14.11 2.48,4.51 4.99,8.91 6.97,13.33 l 0.75,1.71 c 0.23,0.51 0.44,1.03 0.62,1.55 0.39,1.04 0.7,2.1 0.95,3.19 0.54,2.15 0.81,4.4 0.89,6.75 0.22,4.68 -0.27,9.73 -0.41,15.05 0,0.59 0,1.44 0,2.18 0,0.75 0.1,1.48 0.14,2.19 0.13,1.43 0.36,2.8 0.61,4.15 0.5,2.7 1.17,5.29 1.91,7.84 1.51,5.09 3.331,10.01 5.371,14.83 C -4.802,-9.308 -2.564,-4.59 0,0"
             style="fill:#ffffff;fill-opacity:1;fill-rule:nonzero;stroke:none"
             id="path62" />
        </g>
        <g
           id="g64"
           transform="translate(985,1135)"
           style="fill:#ffffff;fill-opacity:1">
          <path
             d="m 0,0 c 4.098,-3.45 8.917,-5.163 13.8,-5.787 4.89,-0.63 9.87,-0.331 14.77,0.452 4.91,0.792 9.75,2.044 14.45,3.662 2.34,0.821 4.66,1.692 6.89,2.712 1.11,0.505 2.22,1.013 3.29,1.567 0.53,0.278 1.06,0.559 1.57,0.852 l 1.71,0.97 c 2.28,1.251 4.52,2.502 6.73,3.799 2.23,1.262 4.41,2.593 6.58,3.923 4.34,2.67 8.56,5.49 12.46,8.58 1.94,1.54 3.8,3.17 5.44,4.91 1.63,1.75 3.08,3.63 3.95,5.65 0.88,2 1.08,4.18 0.23,6.38 -0.84,2.18 -2.57,4.22 -4.54,6 2.47,-0.97 4.93,-2.37 6.72,-4.76 0.89,-1.18 1.55,-2.62 1.86,-4.16 0.32,-1.55 0.25,-3.15 0,-4.66 -0.58,-3.04 -1.96,-5.7 -3.53,-8.08 C 90.77,19.62 88.95,17.49 87.02,15.5 83.17,11.53 78.9,8.146 74.5,5.029 72.3,3.473 70.04,2.023 67.77,0.597 65.48,-0.797 63.16,-2.14 60.86,-3.434 L 59.14,-4.38 C 58.51,-4.729 57.87,-5.053 57.24,-5.373 55.97,-6.002 54.7,-6.592 53.4,-7.119 50.81,-8.16 48.2,-9.08 45.53,-9.809 40.22,-11.28 34.75,-12.19 29.21,-12.36 23.69,-12.51 18.03,-11.95 12.73,-10.06 10.1,-9.105 7.563,-7.813 5.355,-6.116 3.142,-4.437 1.285,-2.336 0,0"
             style="fill:#ffffff;fill-opacity:1;fill-rule:nonzero;stroke:none"
             id="path66" />
        </g>
        <g
           id="g68"
           transform="translate(919,1065)"
           style="fill:#ffffff;fill-opacity:1">
          <path
             d="m 0,0 -0.265,4.973 c -0.118,1.646 -0.34,3.275 -0.923,4.755 -0.568,1.482 -1.481,2.802 -2.5,4.052 -1.023,1.25 -2.17,2.41 -3.35,3.55 l 0.207,-0.17 c -5.549,3 -10.819,6.41 -15.989,9.95 -5.16,3.55 -10.26,7.19 -15.26,10.94 l -3.75,2.84 c -1.28,0.96 -2.56,2.03 -3.76,3.14 -2.42,2.23 -4.64,4.74 -6.54,7.46 -3.86,5.45 -6.31,11.62 -8.3,17.64 -0.99,3.05 -1.93,5.97 -2.76,9.18 -0.81,3.15 -1.43,6.34 -1.9,9.55 -0.94,6.42 -1.14,12.94 -0.68,19.44 0.48,6.5 1.65,13 3.77,19.3 2.09,6.3 5.04,12.2 8.62,17.7 3.56,5.5 7.65,10.6 12.05,15.3 4.56,4.8 9.54,9 14.89,12.7 5.34,3.7 11.06,6.9 17.064,9.5 6.006,2.6 12.338,4.6 18.906,5.7 3.28,0.5 6.62,0.8 9.98,0.8 3.24,0 6.34,-0.1 9.53,-0.2 6.34,-0.3 12.75,-0.8 19.16,-2 6.39,-1.2 12.85,-3.1 18.79,-6.4 5.92,-3.3 11.11,-8 14.93,-13.5 l -0.66,0.7 c 3.45,-2.9 8.03,-4.5 12.94,-5.5 2.45,-0.6 4.99,-1 7.6,-1.4 l 3.9,-0.6 1.9,-0.4 h 0.5 l 0.3,-0.1 0.9,-0.1 c 2.4,-0.1 5.1,-0.1 7.9,-0.3 1.4,-0.2 2.9,-0.4 4.4,-0.9 0.8,-0.2 1.6,-0.6 2.4,-1.2 0.2,-0.1 0.4,-0.3 0.6,-0.5 l 0.3,-0.3 0.1,-0.1 0.1,-0.1 c 0.1,-0.1 0.3,-0.4 0.4,-0.6 0.1,-0.2 0.3,-0.4 0.4,-0.6 0.4,-0.8 0.8,-1.7 0.9,-2.6 0.1,-0.9 0,-1.8 -0.1,-2.6 -0.3,-1.6 -0.9,-2.9 -1.4,-4.1 -1,-2.5 -2.1,-4.7 -2,-6.7 l -0.6,1.1 c 3.2,-2.7 6.8,-5 10.4,-7.4 1.8,-1.2 3.6,-2.4 5.3,-3.8 1.7,-1.4 3.3,-3 4.7,-4.7 l -0.4,0.1 c 1.1,-0.1 1.9,-0.7 2.5,-1.3 0.7,-0.7 1.2,-1.4 1.7,-2.1 l 1.4,-2.2 c 0.5,-0.7 1,-1.4 1.7,-1.9 -0.8,0.4 -1.4,1.1 -1.9,1.7 -0.6,0.7 -1.1,1.4 -1.7,2 -0.5,0.7 -1.1,1.3 -1.7,1.9 -0.7,0.5 -1.4,0.8 -2.1,0.9 h -0.2 l -0.1,0.1 c -3,3.1 -6.6,5.3 -10.4,7.4 -1.8,1 -3.8,2 -5.7,3.1 -1.9,1.1 -3.7,2.3 -5.5,3.6 l -0.6,0.4 -0.1,0.7 c -0.2,1.7 0.1,3.2 0.5,4.6 0.3,1.4 0.8,2.7 1.2,3.9 0.5,1.2 0.8,2.3 0.9,3.3 0.1,1 -0.1,1.7 -0.5,2.4 0,0.1 -0.1,0.1 -0.2,0.2 l -0.2,0.3 c -0.1,0.1 -0.2,0.1 -0.3,0.2 -0.3,0.2 -0.7,0.4 -1.2,0.5 -0.9,0.3 -2.1,0.4 -3.3,0.4 -2.5,0.1 -5,-0.1 -7.8,-0.1 -0.4,0 -0.7,0 -1.1,0.1 h -0.6 l -0.6,0.1 -1.9,0.2 -3.9,0.4 c -2.61,0.3 -5.27,0.6 -7.97,1 -2.69,0.5 -5.43,1.1 -8.14,2.1 -2.71,0.9 -5.4,2.3 -7.81,4.1 l -0.34,0.2 -0.32,0.5 c -3.49,4.6 -7.91,8.3 -13,10.8 -5.07,2.6 -10.75,4.2 -16.61,5.2 -5.87,0.9 -11.93,1.3 -18.04,1.4 -3.04,0.1 -6.18,0.1 -9.17,0.1 -2.87,-0.1 -5.75,-0.4 -8.62,-0.9 -11.471,-2 -22.54,-7.1 -32.29,-13.9 -4.88,-3.3 -9.49,-7.2 -13.53,-11.4 -4.15,-4.4 -7.98,-9 -11.26,-14 -13.65,-19.5 -15.13,-45.38 -8.03,-68.41 1.69,-5.86 3.71,-11.48 6.78,-16.43 1.53,-2.48 3.34,-4.78 5.39,-6.89 1.04,-1.06 2.1,-2.05 3.25,-3.04 l 3.55,-3 c 9.5,-8 19.06,-15.99 29.323,-22.89 l 0.153,-0.11 0.05,-0.1 c 1.108,-1.27 2.19,-2.57 3.16,-3.98 0.972,-1.4 1.809,-2.96 2.272,-4.64 C 0.271,8.372 0.324,6.65 0.277,4.985 0.232,3.314 0.09,1.661 0,0"
             style="fill:#ffffff;fill-opacity:1;fill-rule:nonzero;stroke:none"
             id="path70" />
        </g>
        <g
           id="g72"
           transform="translate(863.7,1126)"
           style="fill:#ffffff;fill-opacity:1">
          <path
             d="m 0,0 c -0.188,-2.288 -0.864,-4.57 -1.755,-6.717 -0.882,-2.159 -1.97,-4.203 -3.049,-6.203 -1.091,-1.98 -2.185,-3.91 -3.134,-5.8 -0.936,-1.88 -1.736,-3.78 -2.112,-5.49 -0.77,-3.5 -0.34,-7.39 0.796,-11.1 0.579,-1.85 1.295,-3.68 2.207,-5.39 0.887,-1.73 1.917,-3.37 3.095,-4.78 0.29,-0.36 0.581,-0.7 0.883,-1.03 l 0.226,-0.24 0.06,-0.1 h 0.03 0.02 c 0.02,0 -0.162,0.15 -0.07,0.1 l 0.151,-0.15 c 0.182,-0.17 0.455,-0.45 0.532,-0.49 0.198,-0.18 0.533,-0.45 0.855,-0.67 0.323,-0.23 0.666,-0.44 1.019,-0.64 1.406,-0.83 3.073,-1.37 4.851,-1.71 3.572,-0.67 7.555,-0.34 11.365,0.7 1.89,0.54 3.86,1.26 5.44,2.14 1.62,0.91 3.01,2.09 4.17,3.68 2.37,3.14 3.67,7.89 6.43,11.59 -0.47,-2.25 -0.66,-4.45 -0.95,-6.71 -0.27,-2.25 -0.64,-4.6 -1.59,-6.98 -0.93,-2.36 -2.55,-4.64 -4.57,-6.36 -0.5,-0.43 -1.01,-0.84 -1.55,-1.21 l -0.78,-0.53 -0.82,-0.51 c -1.07,-0.64 -2.17,-1.24 -3.31,-1.74 -2.29,-1.03 -4.71,-1.79 -7.23,-2.23 -2.515,-0.47 -5.134,-0.57 -7.789,-0.29 -2.651,0.29 -5.341,1.04 -7.88,2.33 -0.633,0.33 -1.248,0.7 -1.847,1.11 -0.604,0.41 -1.156,0.82 -1.803,1.38 -0.36,0.3 -0.476,0.43 -0.705,0.63 l -0.153,0.15 -0.27,0.26 -0.354,0.37 c -0.469,0.49 -0.919,0.99 -1.329,1.5 -3.28,4.12 -5.4,8.75 -6.56,13.7 -0.56,2.47 -0.88,5.03 -0.79,7.64 0.1,2.6 0.53,5.25 1.52,7.77 1.02,2.55 2.39,4.6 3.85,6.49 1.46,1.89 3.016,3.57 4.54,5.22 C -5.318,-7.047 -2.267,-3.981 0,0"
             style="fill:#ffffff;fill-opacity:1;fill-rule:nonzero;stroke:none"
             id="path74" />
        </g>
        <g
           id="g76"
           transform="translate(947,1153)"
           style="fill:#ffffff;fill-opacity:1">
          <path
             d="m 0,0 c -2.304,-0.582 -4.621,-1.028 -6.909,-1.445 -2.289,-0.41 -4.551,-0.812 -6.761,-1.247 l 2.02,1.235 c -1.17,-2.797 -1.89,-5.655 -1.69,-8 0.1,-1.173 0.43,-2.183 0.92,-3.103 0.52,-0.91 1.22,-1.76 2.12,-2.56 0.902,-0.79 1.979,-1.53 3.162,-2.21 1.193,-0.66 2.483,-1.27 3.827,-1.83 1.35,-0.56 2.763,-1.05 4.2,-1.54 1.423,-0.48 2.966,-0.92 4.353,-1.32 2.934,-0.77 6.028,-1.45 9.088,-2.04 3.06,-0.59 6.14,-1.07 9.18,-1.38 3.03,-0.27 6.1,-0.4 8.8,0.23 1.33,0.34 2.54,0.87 3.39,1.91 0.88,1.02 1.28,2.62 1.3,4.3 0.77,-1.46 1.24,-3.32 0.67,-5.25 -0.57,-1.94 -2.13,-3.5 -3.73,-4.49 -3.3,-2.02 -6.88,-2.69 -10.33,-3.11 -3.46,-0.4 -6.9,-0.38 -10.29,-0.15 -3.405,0.23 -6.736,0.68 -10.14,1.4 -1.78,0.37 -3.362,0.85 -5.04,1.36 -1.663,0.51 -3.315,1.13 -4.961,1.85 -1.65,0.71 -3.289,1.55 -4.879,2.58 -1.59,1.02 -3.16,2.22 -4.55,3.74 -1.41,1.5 -2.65,3.33 -3.42,5.42 -0.78,2.08 -1.03,4.35 -0.81,6.43 0.45,4.208 2.37,7.542 4.48,10.328 l 1,1.309 1.02,-0.07 c 1.2,-0.09 2.38,-0.193 3.56,-0.345 C -9.249,1.86 -8.081,1.673 -6.921,1.483 -5.761,1.276 -4.605,1.062 -3.454,0.815 -2.304,0.554 -1.152,0.304 0,0"
             style="fill:#ffffff;fill-opacity:1;fill-rule:nonzero;stroke:none"
             id="path78" />
        </g>
      </g>
    </g>
  </g>
</svg>
