<svg width="148mm" height="105mm" viewBox="0 0 148 105" xml:space="preserve" xmlns="http://www.w3.org/2000/svg"><path style="fill:#540;stroke:none;stroke-width:.0306588" d="M254.6-183.2c.8.4-.6 0 1 .5.5-.3.1-.5-1-.5zm-1.3 1.1c.1.2-.7.9.1 1.4 0-.2 0 .7-.1.7-1.8.8 1.7-.6 1.4.4.3 0 .4.8.5.8-.1-.7 1.9 2.3 1 1.7 0 0-1 .1-.6.6.6.4.7.7 1.5.7.4.8.5.9.4 1.4-.3.7 0 .9.3 1.6.4 0 1.1.3.8.9.6.7-.8 1.7-.9 2.3-.2.1-.6.3-1.4.6-.9.3-1.2 1-1.7 2 .6-.2 0 1.1.1 1-.3.1-.7.6-1.3 1.2.2-.8-.5.4-.5.1-.6 0-1 0-1.5-.1-.6.4-.4.4-1 0 0 0-1.2.4-2 .4-.6 0-2.3-.4-2.3.6 1.1 1.2 5.2 3.3 5.3 4.8 0 .6.6 1.4 1.1 2.5.1.5-2-3.6-.1.1 2.2 2.6 8.3-3.8 8-1.7-.8.5.3 1.7.4 1.6.5.2-4.2 3.7-5.2 2.2-.2-1.3 2.8-3.1-.1-1.7 1.6-.4 0 .2-.9.5-1-.4-.4-.1.4 1.2 0 1.9-.4 0 .7 2 .9 2.8-.1 9.5 1.4 10.2-.5-3.3-.5-7.4-.8-11.2.3-.6.3.9.4-.5 2-.9 3.8-1.8 4.2-1.6.9-.5 2-4.1 3.1-2.5-2-.5-.6-2.2 0-2.6 1-.1 1.5.8 2.6 1 .5.9 2.2 0 .6-.6-3.6-.7-1.3-1.7.9-.6-3.1-.5 1.9-1.9.7-4.1-1-2.1.4-.8.5-1.7 2.5-.5.5 0 2.2-1.6-.1-.9-1.1 1.2-1.2 1.1-1.6 1.7-2.7-1.7-1.2-1 0 0 1.1-.5.9-.1.3-1 .4 0 .9-.9.2-.6-.1-1.6.9-1.6.3.5 0-2.1.2-1.3.5-.3-.5.2-.7-1.9.2-1.6-.3-1.6-.5-2.1-.8-.6-.9-1.2-2-1.2-1.1.2-3.6-1.4-3.3-.8-.6-.1-4.8-4.5-3.8-2.4-1.9-.8-3.3-1.4-4.5-1.4-2 0-3 0-3 1.1-.8-1.1-.6.6-.8-1.3-.8 0 2.8-2.9-.1-.4m2.4-.9c0 .2.6 0 0 0zm1.1 0v.2zm-.5.2zm-1.8.2s.7-.4 0 0zm2-.2zm.3 0zm-2.7.2h.1zm.1 0c.2.4.5-.6 0 0zm.9 0zm1 0zm1 0c0 .9.1.4 0 0zm-3 0c-1.1 2.1-.6 1.1 0 0zm2.1.1c0 .6 0 .4 0 0zm-.5.3c0 .1.5 0 0 0zm1.6 0c-.1.1.3 0 0 0zm42 32.9c-.7 0-2.6-.2-2.8-.6-1.4-1-3.1-2.3-4.8-1.3-.8.1-1.3 1.2-2 1.2-1.1 1-3.5.1-4.2.1-1.1 0-2.5.1-3.1.1-1.5.5-3 .3-4.6.5.4 4.4 4.2 3 5.8 5.6 2.6-1.5 3.6 2.9 4.2 2.7.8.2.9 0 1.1.6-.1-.7.4-.5.8-.7.7 0 .5-.4 1.3-.6 1 .2.9 0 1.3.1.7 0-.3.5.6.5-.4.1-.4.7-.6 1.3-.3-.7-.4.4-.4.4-.5.4-.2.9-.9.6-.3.9-.2-.5-.3-.1-.8.1-.8.4 0 1.3 1.3 1.2 2 4.4 3.8 3.5h2.6c.6 0 2.6.5 3.9.4 1.4-.4 3-.4 4.1 0m-51.6-47.8c-.1 0 .1-.2 0 0zm4.3 0s.4 0 0 0zm1.6 0c0 .1.9 0 0 0zm-6 0v.1zm2.7 0c-2.1.4 1.1.5 0 0zm2.5.1s.2 0 0 0zm-5.2 0c-.1 0 .1.3 0 0zm3.1 0c0 .4.6 0 0 0zm-1.8.3c0 .1.4-.3 0 0zm4 0c.2.2.2-.3 0 0zm-4.1 0c0 .2.6-.4 0 0zm2.1 0c0 .1.4 0 0 0zm.4 0c-.3.1.1.1 0 0zm-4.1 0h.1zm5.8 0 .1.1zm-5.8.1c-.4.3.4.3 0 0zm2.6 0zm1.9 0c0 .1.3 0 0 0zm1.4 0v.1zm0 .1h.3zm-1.1.2-.2-.2zm1.4-.2zm-5.9.2v.2zm8.2 0zm-8 0v.2zm1.5 0-.3.2zm4.4.2zm-5 0c-.3 0 .1 0 0 0zm-.8 0zm1.1 0zm.3 0c.1.4-.4 0 0 0zm4.4 0h.2zm-6 0c-.1.1.2.1 0 0zm.7 0v.1zm.1.1c.4.3-.2 1 0 0zm.2 0v.3zm.2 0c0 1-.4 0 0 0zm-.6 0zm.7 0c0 .3-.1 0 0 0zm-1.2 0v.3zm.5.3c0 .3.2-.3 0 0zm0 .1zm-.6 0c-.1.2.1 0 0 0zm.2 0 .4.2zm-.1.2zm.9 0c0 .2-.3-.2 0 0zm-.4 0 .1.2zm-1 .2h.1zm1.5.2h.1zm.5 0zm-1.4 0zm.8.1.1-.1zm-.9-.1v.1zm1.6.1c0 .3-.1 0 0 0zm-2.6.3v.1zm2 .4zm1 0-.1.2zm-1.4.2h.1zm-.5 0h.4zm1.9.1zm-.4 0c-.4.6.1 0 0 0zm.5.3c.1.2-.4.2 0 0zm9 0 .1.2zm-9.6 0c0 .3.1.2 0 0zm14.3.2h.1zm-15.9 0v.1zm1.3 0h.3zm-1.3.1.1.4zm2.7 0c.1.2-.4 0 0 0zm12.6 0 .1.2zm-14.2.2s.1 0 0 0zm14.2 0zm-15.6 0h.2zm12.4 0zm2.7.2h-.1zm-15.2 0zm1 .5c-.7-.7.4 1.4.2-.4l-.1.3zm13.6 0c.5-.5.7-.9 0 0zm-11.5-.5c.6 1 .2.5 0 0zm-.7.1c0 .9.2.9 0 0zm1.3 0zm-3.8 0-.3.3zm3.9 0h-.1zm.3.3s-.3 0 0 0zm-4.6 0zm.9 0h.1zm3.4 0zm-4.3.1zm-.2.1v.2zm1.2.2h.1zm15.8 0zm-15.9 0zm2.8 0zm13.2 0c-.2.2.3.2 0 0zm-1.1.2c0 .1-.2 0 0 0zm-14.8 0c-1 2.1-2.2 0-2.5.9-.7.2-1.1 2.9 0 3.1 2.3 1.4 4.1-.8 5.5-.4-.2-.8-.9-.4.2-1.1-.4-.4-1-.8-1.6-1.3-.6-.8-2.2-.6-1.6-1.6m16.4.2zm-13.7 0h-.1zm0 0v.2zm-.1.2c0 .1-.5-.2 0 0zm-.5 0c-.1 0 .1 0 0 0zm.7 0c.3.6-.1 0 0 0zm-3.8 0zm17.7 0v.1zm-13.9.1c.2.5-.2.5 0 0zm-4 .3zm4.2 0c0 .2-.2-.3 0 0zm-.4 0v.2zm14.3 0c-.1.2.4 0 0 0zm-13.9.2zm9.7.1zm-9 .2c-.1.2-.1-.3 0 0zm-6.3 0zm5.9 0v.2zm-6 .2c.1 0-.3 0 0 0zm-2 0c-.6 1-.6 3.1.6 1 .9-1-.2-1-.6-1zm8.5 0v.1zm14 0-.2.1zm-17.1.4c1 .4 1.3.6 0 .4-.8-.7-.8 1.1-1.7.9-1.2 1-.2-1.9.9-1.3 0-.4.6 0 .8 0zm3.4-.3v.3zm-.4 0zm.3 0v.3zm0 0v.3zm-4.1.3v.1zm3.7 0 .1.1zm.6 0c-.1.2-.2-.3 0 0zm-4.7 0c0 .1.4 0 0 0zm.6 0c-.2.6.5 0 0 0zm3.9 0zm-.7.1h.3zm-.1.1zm.1 0c.3.8.4-.1 0 0zm.4 0zm-4.8.2zm4.8 0c-.1.2.5.2 0 0zm1.2 0zm0 0c0 .2-.2 0 0 0zm-6.1.2h.1zm-4.1 0c.1 0 0 0 0 0zm8.9 0zm-1.7 0c.2.4-.4.1 0 0zm1.4 0zm.4 0v.1zm-2.1 0v.1zm1.6.1c.1.3.1-.1 0 0zm.1 0c-.2 1 .7.3 0 0zm-6.5 0zm6.9 0c0 .6.3 0 0 0zm-1.6 0h-.1zm0 0c.1.3-.1 0 0 0zm.9 0c.2.3-.3.6 0 0zm-.8 0v.3zm.4.3c.1.2-.5 0 0 0zm.6 0c-.1.3.1 0 0 0zm.4 0c0 .3-.4 0 0 0zm-4.5.2h.3zm3.5 0c-.4.3-.4-.5 0 0zm.2 0c0 .1-.1-.2 0 0zm-3.7 0c-.2.1.3.1 0 0zm4 0v.1zm14.8.1zm-14.7 0c-.2.8.4.9 0 0zm.9.2zm-.5 0zm-.8 0zm.9 0c-.1.2.1.2 0 0zm-.1 0c-.3.2.1.2 0 0zm0 .2zm1.1 0h-.4zm-10 0s.1 0 0 0zm10.1 0zm.1.1c.3-1.7.2-1.2 0 0zm-1.3-.1v.1zm1.1 0c.1.1-.5.1 0 0zm.1 0-.1.1zm-2.1.1v.3zm1.4.3c0 .2.6-.4 0 0zm-2.4 0h-.1zm0 0zm16.6 0zm-14.3 0zm1.1 0v.1zm0 0 .1.1zm13.2 0 .1.1zm-13.4.1h-.1zm-7.6 0h-.3zm4.4 0h-.1zm3.4.1c0 .2-.2-.2 0 0zm13.3 0c-.1.2.1 0 0 0zm-.4.2v-.2zm-22.3-.2c-1 .2-.9 1.1-1.4.4-.7.1-1.7.9-1 1.5.3 1.8 4.6.1 2.4-1.5.1-.2.2 0 0-.4zm22.2.2c.1 0 .7.8 0 0zm-13.2 0zm.4 0h-.2zm-9.3.2c.1.1.1-.2 0 0zm8.9 0s.4 0 0 0zm13.2 0h-.1zm-24.1 0zm.6 0zm10.5 0c0 .1.2 0 0 0zm13.1 0 .3.1zm-23.2.4c0 .2-.1 0 0 0zm10.4 0c0 .2-.1-.3 0 0zm-9.8.2c.9.9-1.7 0 0 0zm22.9 0c.1.6.1.5 0 0zm.3 0zm0 .1c0 .2.2 0 0 0zm-.6 0 .3.2zm-12.9.2v.2zm13.7 0v.2zm.1 0c.5.6.1.3 0 0zm-.6.2h-.3zm-23.1 0c-.3.1 0-.2 0 0zm23.3 0c-.1.1.4.6 0 0zm-.2.1c-.3.7-.4 0 0 0zm.7 0c.4 1 .7 1 0 0zm-.6 0c0 .4-.4 0 0 0zm-13.5.3zm13.4.1-.3-.1zm.3 0v-.1zm-.7 0zm.5 0c-.1.1.1-.1 0 0zm-24.8 0 .1.1zm24.3 0h-.1zm0 .1-.1.2zm-.3 0c.2.4-.2-.1 0 0zm-12.8.2zm12.7 0h-.1zm.1 0c.2.3-.2.2 0 0zm.2 0c0 .2-.3 0 0 0zm.7 0zm-1 .2h-.1zm.3 0c.1.1.1 0 0 0zm-16.3 0 .1.1zm-7.8.1zm24.7 0zm-16.8 0c0 .5.1 0 0 0zm15.7 0zm1.1 0v.3zm-16.8 0v.3zm15.8.3h-.5zm.4 0c-.2.2.2 0 0 0zm-.4 0c.1.3-.1.3 0 0zm-.1.2s.6.5 0 0zm.7 0 .3.1zm-15.3.1h.1zm1.5 0h-.1zm-1.5 0h.1zm1.3 0v.2zm13.5 0-.1.2zm-14.4.2c0 .2.1-.2 0 0zm.2 0h.3zm-10 .2c-1.8 1.6 3.2.6-.6 1.9-.1 1.9.4 1.3 1.1.7 1.1-.1.9.9 1.9.5.8-.2.7-1 1.1-2-1-1.5-1.5-.5-3.2-1.1zm9.7-.2v.2zm.3.2c-.5.5-.2-.4 0 0zm.4 0zm-.1.1c.1 0-.3-.1 0 0zm-1.4 0c-.1 0 .4-.1 0 0zm1 0zm-.4 0c0 .3-.1 0 0 0zm-7.6 0c-.3.3.1 0 0 0zm6.5 0zm.4 0c-.1.3.5.3 0 0zm15.9 0c-.1.4.4.4 0 0zm-24.7.3c.3.1-.5.1 0 0zm8.9 0h.4zm15.2 0v.1zm.4 0c0 .1.1 0 0 0zm-22.4 0zm6.7 0zm.5 0c.1.2-.6.1 0 0zm7.5.1s-.1 0 0 0zm7.9 0c-.2.3.4.5 0 0zm-1.6 0c.1.1.1.6 0 0zm-6 .6c-.4-.5-.3-1 0 0zm-8.4-.5zm14.4-.1v.3zm.3.1h-.2zm-14.6 0v.2zm.1 0v.2zm15.1.2.1.2zm-1.4 0c-.1.3-.2-.2 0 0zm-14 0c.1.3-.2 0 0 0zm14.6 0c0 .2-.1.2 0 0zm-14.5.2zm13.7 0c.1.1-.1 0 0 0zm.2 0zm-19 0c-.4 1.2.5 1.2.5.1h-.1zm18.7 0c-.2.1.2 0 0 0zm.2 0c.1.1-.2.1 0 0zm-13.7.1zm-.9 0zm.9 0c0 .3-.2 0 0 0zm13.1 0c-.4.3.4 0 0 0zm2.2 0zm-20.1 0h-.3zm-3.6 0zm8.4 0zm15.9 0h.3zm-16 0zm13.4 0c-.1.3.3 0 0 0zm-18.1 0zm5.3 0zm12.2 0 .4.3zm-12.6 0zm15.3 0zm-16.3 0c-.1.5.5.3 0 0zm8.2 0c.1 2.1-3.1 3.2-.4 1.4-.5-1.4-1.2-.9.4-1.4zm1 0c.2.5-.3.5 0 0zm-12.9.3h.3zm17.8 0c0 .2 0-.3 0 0zm0 0h.1zm-20.6 0c-.3 0-1 0 0 0zm.1 0c0 .2-.5 0 0 0zm2.6 0zm17.8 0c-.4 0 .1 0 0 0zm-20.5 0zm23.2 0h-.1zm-16.2 0 .2.2zm.3 0-.1.2zm12.8 0v.2zm3.6.2h.1zm-21.5 0zm4.3 0zm16.1 0c-.4.3.1 0 0 0zm-16.2 0v.1zm.5.1c.1.2-.1-.1 0 0zm-.5 0zm17.3 0-.1.2zm-16.8 0v.2zm.5.2c.5.2-.1.2 0 0zm15.9.2.3-.2zm-21.1-.2c.1.2-.1.2 0 0zm5.3 0zm14.6 0zm-21.5 0v.2zm1.5 0c0 .2 0 0 0 0zm13.5 0v.2zm-15.5.2c.1.1-.1-.2 0 0zm.4 0c0 .4-.5-.2 0 0zm6.5 0h-.1zm13.1 0c.4.1-.2.1 0 0zm1.9 0c0 .1.1-.2 0 0zm1.2 0zm-22.2 0c0 .1-.4-.2 0 0zm.7 0zm5.8 0zm-6.9 0c0 .1-.1 0 0 0zm5.7 0zm-5.7 0zm1.5 0h-.3zm13.3 0c.3.1-.6.8 0 0zm7.4.1c.3.3.4-.3 0 0zm-16.5-.1v.1zm.9 0c.1.4-.3 0 0 0zm.1.1c0 .3-.1-.1 0 0zm.1 0c.5.3-.2 0 0 0zm-5.6 0h.3zm5.7 0c.4.3-.2 0 0 0zm.4 0zm.1 0zm-1 0h-.1zm5.8 0c.3.4-.2.9 0 0zm9 0-.2.3zm-15.3 0c0 .3.3 0 0 0zm.7 0zm.2 0zm.6 0zm7.4 0zm-13.3 0zm0 0c0 .3.1 0 0 0zm5.3 0-.1.3zm-.4.3zm15 0h-.2zm-15 .1c.9.3-.7 0 0 0zm8.3-.1c-.1.7-.5.7 0 0zm-8.9.1c0 .1.1-.1 0 0zm.1 0zm-.2 0zm15.3.1.2-.1zm-8.5-.1h-.3zm-13.1.1c-.3.2 0 0 0 0zm2.6 0c-.4.2.5 0 0 0zm3.3 0c-.1.2.1-.1 0 0zm7.4.4c-.6 0-.1-.6 0 0zm-11.1-.4h.1zm2.9 0zm15.4 0-.4.2zm-15.3 0 .1.2zm1.8 0v.2zm13.9 0c0 .4-.2 0 0 0zm-13.7.2c-.2 0 0-.2 0 0zm13.8 0c0 .3.1-.2 0 0zm.1 0h.1zm-20.9 0h-.1zm11.5 0c0 .2-.1 0 0 0zm9.2 0c-.4 0-.4 0 0 0zm-8.7 0c-.1.3-.6-.3 0 0zm8.3 0c0 .2-.5 0 0 0zm-18.3 0c0 .3.1 0 0 0zm3.2 0c.6.3.5.2 0 0zm.5 0v.2zm.9.2h.1zm-6.1 0h-.1zm5.5 0h.1zm5.4 0c1 1.2-1.6.4 0 0zm.9 0zm8 0c0 .1-.5 0 0 0zm.1 0zm-18.3 0c-.1.4.4-.2 0 0zm3.1 0c-.1.4.5.1 0 0zm.6 0c0 .1.2 0 0 0zm6.5 0 .1.1zm2.4 0-.1.1zm-3.5 0 .1.1zm-.2.1c0 .6.3 0 0 0zm1.5 0zm-1.2 0h.1zm-5.1 0c.1 0-.1 0 0 0zm-.6 0h.1zm.1 0zm8.9 0s-.2 0 0 0zm5.3 0zm-14.1 0s.2 0 0 0zm14.5 0zm.5 0c-.1 1.1 0 1.5 0 0zm-9.6 0zm8.7 0c0 .3.4 0 0 0zm-18 0c0 .3 0 0 0 0zm4.1 0v.3zm8.4.3zm-4 0c.1 0 0 .2 0 0zm1.6 0-.1.2zm8.3 0zm-14.7 0c0 .2.2.2 0 0zm4.9.2c.8.3-.2.7 0 0zm1.5 0v.1zm-7 0c.1.1.1 0 0 0zm9 0c.1.1-.4 0 0 0zm-12.4.1c-.1.2.3-.1 0 0zm.3 0zm4.4 0h-.1zm6 .2c-.4.3-1.3-.5 0 0zm-9.2-.2zm10.4 0c.1.2-.1 0 0 0zm-8.5 0c-.1.2.1 0 0 0zm8.1 0c-.2.5-.6-.6 0 0zm-10 0zm.4 0v.2zm2.3 0v.2zm7.5 0v.2zm-11.4.2s.1 0 0 0zm-.9 0c.4.3.5-.2 0 0zm.9 0zm3.3 0zm5.8 0c.3.3-.5.1 0 0zm-8.6 0v.1zm2.5.1c.1.2.2-.4 0 0zm6.5-.1-.1.1zm-5.7.1h-.1zm-2.6 0zm.9 0zm7.5 0c-.1.2-.1-.1 0 0zm-7.8 0v.2zm1.9 0v.2zm-1.7.2zm1.9 0h-.1zm-2.3 0h.1zm1.2 0c0 .4-.1 0 0 0zm.9 0c.6 0-.6.4 0 0zm0 0h-.4zm-1.7 0c-.2 0 .1 0 0 0zm1.1 0zm-2 0zm.1 0h.4zm1.8 0zm.8 0zm-2.7 0zm-1.1 0zm1.2 0zm.6 0zm.4 0zm-4.3.1h.1zm2.2 0zm.1 0zm1.5 0c.1.3-.5 0 0 0zm2 0c.1-.1.1.3 0 0zm-.9 0c.2.3-.1-.1 0 0zm.9 0-.4.3zm-2 0 .1.3zm2.2 0c.2.3-.1 0 0 0zm-1.2.3zm-1.1-.4v.1zm.1 0zm-3.3.1c.1.3-.3 0 0 0zm20.1 0c.1.3-.1.3 0 0zm-17.9.3h-.1zm17.9 0c0 .1-.1.1 0 0zm0 .3c0 .1-.1 0 0 0zm0 .1c.3.2-.6.2 0 0zm-.5 1.1h-.1zm-.1.2c-.1.1-.6.9 0 0zm-.1.4c-.1.1.1.1 0 0zm-.3.1-.1.2zm1.9 0v.2zm-2.1.2v.1zm-.3.1c.3.1-.3.1 0 0zm-2.4.1h-.2zm.7.6zm-.1 0c0 .1.2 0 0 0zm3.9.4zm-.7 0c.5 0 .4 0 0 0zm-4.2.1.1.1zm.1 0 .1.1zm.3 0c0 .1-.3 0 0 0zm-.3.1zm-.7.4zm-.3.1zm-12.6 0zm13.7 0c-.1.3.2 0 0 0zm-1.2.1h.1zm2.4 0c.3.3-.4.3 0 0zm-14.6.2zm0 .1zm9.5.1c.1.9-.1.1 0 0zm-.1.1h-.2zm.3 0-.1.4zm-.3 0c.2.6-.4.6 0 0zm-.3.4c-.1.1-.1-.4 0 0zm-9 0zm9.3 0c.1.4 0 .4 0 0zm6.4 0h.1zm-3.2 0 .1.1zm-3 0c-.1.2-.1 0 0 0zm-1.1.2.1-.1zm3.7-.1c0 .3.1 0 0 0zm-2.8.1c.1 1.3-.3 0 0 0zm-9.3 0zm9.6.2c.4 0 .4.3 0 0zm2.6 0h.2zm-3.9 0c0 .1.2-.2 0 0zm1.1 0zm-1.2.1.1-.1zm.2 0zm.7 0h-.1zm-8.6 0zm9 0c.4.6-.2.1 0 0zm-9.5 0 .1.1zm0 0v.1zm.1 0v.1zm.4 0v.1zm7.4.1h.1zm1.5 0c.2.1-.1.1 0 0zm-1 0 .1.1zm1.5 0h-.3zm-2 0c-.1.1.1 0 0 0zm-7.9.1zm12.1 0h.1zm-2.8 0h-.2zm0 0c.1.3-.2.3 0 0zm-9.3 0 .1.3zm7.5 0c0 .4.3 0 0 0zm-7.4.3c-.1.1.4.1 0 0zm12.4.1c-.1.1.1-.1 0 0zm-5.3 0c0 .3.3-.1 0 0m1.7 0c.1.1-.4 0 0 0zm.4 0zm-9.8.4c-.6 1.7-1 2.2-1.7 2.9-2.4 1.4-.5 1.5.2-.1 2.5-2.2-.7 4.3-.2 5.8 0-2.2 3.8-8 1.7-8.6zm.6-.4c-.1.3.6.3 0 0zm8.9 0v.1zm3.5 0 .1.1zm.6 0 .1.1zm-6.1.1c-.1 0-.1.3 0 .2m6.2 0c-.1.2.4 0 0-.2m-4.8.2c0 .1.5-.2 0 0zm-1.6.2c.1.5.2-.1 0 0m-6.3 0c-.6.6.4.6 0 0zm13 0c.2.9.6.5 0 0zm-6.7 0c-1.1.6-.7.9 0 0zm2.1 0h.1zm.5 0zm-1 .1h.1zm.6 0c-.1.4.3.4 0 0zm-.1 0zm-.7.4c-.2.2 1.1 0 0 0zm1.3 0c0 .2-.1-.4 0 0zm4.3 0c.5.4.3.2 0 0zm-13.2 0v.1zm5.3.1h.2zm3.6 0zm-2.2 0c-.4.3-.1.5 0 0zm-1.6.1.1-.1zm-5 0c-.1.2.2 0 0 0zm5 0-.3.2zm-5 .2zm13.9 0s.1 0 0 0zm-4.7.1zm4.8 0zm-13.8 0zm13.9 0c-.1.1.4 0 0 0zm-5.2 0v.1zm-1.6.5h.2zm-7 0h.1zm-2.4 0c-.7.7-1.2 1.8-.2.4zm5.4 0c0 .2.2 0 0 0zm5 0c-.6.2.1.2 0 0zm-5.2.2.2-.1zm-.2 0h.1zm5.3 0h-.4zm-5.6.2.3-.2zm5.1 0zm-4.6.1zm-.1 0c-.7.7-.1.1 0 0zm4.6 0zm1.8 0v.1zm4.4 0zm-5.4.1c.2.1-.1.1 0 0zm-1.2 0c0 .1.1 0 0 0zm-5.9.1c-1 .4 2.2 2.6 1 .4-.2-.5-.8-.4-1-.4zm.1 0zm12.2 0v.4zm-9.2 0 .1.4zm-6.6.4-.1.1zm10.9 0zm4.3 1.4c.8-1 .1-2.4 0 .1m-11.5-1.4c.4.1-.2-.1 0 0zm10 0zm-10.5 0v.3zm10.4.1zm-10.1 0c0 .2-.1 0 0 0zm.1 0-.1.2zm.1 0c.4.3-.3 0 0 0zm1.1 0v.2zm3.1.2h.4zm2-.2v.2zm3.6.2.1-.2zm-3.6 0zm-4.8 0v.1zm-5.8.1zm8.4 0v.1zm-2.5.1zm0 .1zm12 0c-1.4 1.4-1.5 1.6-2.5 4.2-.8 2.1 2.5 7.3-1.1 6.7-1.1-.4-2-.1-3.1 0-5.2 1.7 5.1-.4 5.8 1.4 1.1.7 1.9 3.9 1.4 3.9-.4-.7.1 2.5.2 4.6.4 1.6.9 3.8 1.3 5.9.7 0 .8 3 .7 3.7.4 3.2 2.7 7 .6 9.6-1.7.3 1.1 5.5 3.7 5.2 1.6 3.1 1.6 7.4 1.6 11.26 0 .32-1.1.21-.7 0-1 .32-1.5 1.05-1.5.53-.6.84.9-1.73-1 .73 1.1-1.93-.7.83 0-.94-1.1 1.9.6-1.2-1.5 1.3 2-2.61-1.6 1.52.4-1.3-.6.52-2.7 3.4-.6.21-1.4 1.33-2.5 2.85-.5.21-1.5 1.59-1.5 1.59-.3-.21-2.3 2.96 1-1.52-1.3 1.33-.6.47 1-1.65-.7.36 2.9-3.21-2.3 2.1.8-1.48-2.2 2.4-1 .99-.7.31-2.4 2.78.2-.94-1.3.81-1.2 1.28 1.9-2.38-.7.23.7.13-1.2-2.76-.5-5.95-.4-3.1-1.1-7.4 1.6-3.7 3 1.1 4.1-5.8 2.8-2.1-1.3.8-4.3.8-4.5-.6-.3-3.4 0-2.3-1.7-.9 2.9-.7.2 3.8-2.5 3.1-2.7.8-1.5 2-1.7 2 .1 1.2-.4.6-.8 1.9.1.2-1.2 2.96 0 1.91.4 1.05-1 .74-1 1.73-.2.31-1.2.63-1 1.26.3.31-2.4 2.4-.6.52-.7-.21-1.8-.42-2-.21-.6-.31-.9.11-1.2-.21-2.6-.84 1.1-8.2 1-11.3.5-5.3.7-9.9 1.5-14.7.6-3.2-3-5.8-1.3-9.5-1.7-2.4-3.9-5.7-3.9-9.3-.3-2.5-.4 2.1-.9-1.1 0-.6.9-.2.6-1 0-1.3 0-2.2.3-3.3 0-1.4-1 .2-1 1.2-.1 1.7-.6 2-.1 3.7 0 1.5-.5-4.3-.5-5.9-.3-2.1.5-3.7 0-4.6-.4.6-.8 2.6-.8 3.6 1 3.2-.8-2-.7-.4.1.9 1 1.9.7 2.6.8.9.4 2 .4 2.7.4 2-1.6-2.9-.6.3 1.5 3.8-2.1-3.6-.5.6 1.7 2.7-2.5-2.6-2.7-3.2-1.9-.7 4.3 4.7 2.3 4.3-1 0 2.4 1.5 1.1 1.6.9 1.4-.6-.1-.6 1.1 0 .9 4.2-.4.5 1-1.5.7.1 1.1.5.9-.1 1 0 0 .6 1.8-.5.3 1 .9.3 1.3 1.8 1.7 1.2 1.1.2.8.4-.2.6 1.9-.1 2.6-.5-.5-1-1.3-1.4-2.1-.1-.2-.8-1.6-1.3-2.1-.3-1.1-.5-1.3-.9-2.5-.7 0-.7-2.1-.7 0 .6 1.4 1.1 3.5 2.1 5.2 1.1 1.5 1.7 3.4 3.4 4 .5.6-.7-.1-1.1 0-.2.6-.1 0-.2 1.3 0 .7-1.5.9 1.1.8 1-.4 3.9.1 2.3.4-.3.8-3.4 1.1-3.8 2.1 1.5.6 2.7 1.3 0 .2-.6-.6-2.7.9-1.6.7 1.5.2 2.6.4 3.6.7.1.5 2.1.1.7 1.2-2.2 0-5.4 1.6-1.2 1 0-.6 1.2.2.2.6-.1.5.3.9.5.7-.7 1.2-5.9-.3-3.2 3.5.9 3.6.9 7.9 1 11.1.5 1.7-.1 3.2-.5 4.31 1.7-.11-.4.53-1.1 1.26-1.6.68-6.1 2.85-2.2.78-1 .21-4.2 1.05-6.3 1.37-1.3-.11 5.3 1.51 6.4 1.17 1.2.81 1.1 0 1.6.45.4-.11.6.13 1.5-.11-.9 1.05-.5.47 1-.23-1.4 1.39-6.2 5.25-2.1 1.98 4.2-3.68 0 .12-1 1.4 1.6-1.63 5.4-4.77 1.2-1.28-1.6 1.87 5.3-4.54.9-.35-2 1.74 4.9-4.19.6-.23-3.7 2.91-3.1 2.91-.4.46 4.2-3.68-1.2.94-1.7 1.76 1.7-1.64 6.2-5.34 2.1-1.64-5.1 4.66 5.2-4.43.4-.12-2.4 1.99-3.5 3.61-.4.59 3.7-3.28.5-.47-1.1 1.17-1.6 1.74 1.6-1.3 2.3-1.86 4.2-3.79-4.9 4.42-.1.45 4.7-4.45-4.6 4.2 0 .24 3.4-2.92 0 0-1.2 1.4-.5.46 5.7-5.04 1.6-1.4-4.2 4.08-.3.46 1.8-1.52-1.2 1.05-5.4 5.25-2.1 2.33 1.3-1.4 3.3-2.91.8-.69-1.9 1.74-1.4 1.51.5-.12 4.4-4.48-5.5 5.36-1 1.17 1.8-1.86 4.8-4.45 1.6-1.3-2.1 1.76-3.1 3.15-.6.59.7-.7 4.1-3.61 2.7-2.33-1.5.82.7 1.18-1 1.63-1 1.16-.7-.45-1.6.59-2.7 2.92-2.1 2.21.6-.23-2.2 2.33.6-.25-1.6 1.98 2.2-1.98.4.12 1-.47 2.1-2.1-2.1 2.33 1.2-.82-2.1 2.21-1.3 1.64-.3.82-1.9 2.1 2.2-2.1-.2.82 3-3.04-1.2 1.51.9-.59 1.7-1.51-2.2 2.45 1.1-.46-.8 1.05-1.1 1.87.5.23-.5.82 1.7-1.05-.2.82-2.3 2.57 2.4-2.58.8-.48-1.9 1.76-.6 1.05.3-.34 1.2-.71-2.4 3.39-.8 1.51 2.8-2.33.9-1.04.3.35 1.1-.93 1.2-.93-.4.82.1 0 1.6-1.4 1.6-.58 3-3.38-1.1 1.4 1.3-.82-2.4 2.33 1.1-.94-.4.7-1.7 1.98 0-.47-1.5 1.05-.1-.12-1 0-2 .47-.3-.59-.7 0-1.3.11-.3-.58-1 0-1.9.12-1-.12-1.2 0-2.2 0 0 0-1-.23-1.1 0-.8-.34 0-.34-1 0-1.1 0-1.4.23-1.4-.34-.7.69-1.1.11-.6 0 .5-.83-7.8 0-3.6 1.16 4.5.88 8.9 1.05 13.6-.13 5.1-.82 10.5-1.28 15.1-1.99 4.3-.81 8.9-1.52 12.8-1.98 1.6-.58 57.2-15.85 56.4-16.15-1.3-.1-2.9.7-3.5-.8-2.6-3.8 3.7-9.4-.1-11.7-1.9-.5-4.1.2-5.2 1-.7.3-1.3.3-2.1.8.1 1.1.4 3.6.6 4.1-.2-1.1-5.5 3.9-3.2 1.2.7-.6 0-2.2-.4-1.1-1.1 2.6-2.5 2.3-3.5 3.8-2.4 2.7-.9-.6 0-.1-1.1-.6-.7-1.5-1.8.6-3.2 3.2.1 1.4 2.8 0 3.2-1.7 7.8-5.4 8.6.9-.8 1.5-1 5.5-2.5 4.4-.8 0-1.5 0-1.6.4-1.1-.2-1.3.1-1.3.1-.8.3-1.8.5-3 .6-1.2-.1-1.5.7-3 .2-1.4.3-2.7 0-4.3.3-1 .3-2.3-.3-3 .4-1.8 1.71-5.2 1.4-6.8.4-.1 0-1.7-.6-2.6-1.1-1.1-1.8-3.9-7.8-5.7-11.5-2.1-5.1-3.3-10.6-5.6-15.7-1-3.2-6.1-6.2-1-1.9 1 3.3 4.4 7.2 2.1 10.9-.6 4.6-4.7 8.5-9.5 9.5-2.4.5-1.5.9-1.2 1.3.4.8.9 1.2.4 1.4-.7-.6-.5-.5-1.5-.6-.6-3.2-1-7.6-1.1-10.1.3-.5-2.3.6-2.1-1-.6-.1-.6 1.8-3.2.5-2.7-.2-1.1-.5-1.8-1-1.3-.6 2.3 0 .6-.6.1-.6-.4 0-.8-1.1.9-.5 1.9.5 3.2.5-.1-1.5-7-2.5-3-3.4 2.1-.2 4.4.4 6.3.2-.3-1.9-5.1-2.4-6.2-4.2.6-.2-1.1-1.1-1.3-.9-.1-1-.2-1.7-.8-2.1.1-2.1 3.1 4.9 5.4 4.2.8 0 3.1 1.6 2.5 0-.1-1-1.1-2.1-2.5-2.7 0-.6-1.8-1.9-1.6-2.5-.2-.5-.5-.2-1-.6-1-.7-.8-1-2-1.7-.8-.2-.8-.9-.2-1.4-1.7.1-2.6-.7-1.2-1.1-3.8-2.1-.5-9.6-2.7-6.8-.3-1-.8 1.5-1-1.7-1.1 2.6-.8-6.8 1.1-7.8m-6.1 0c-.1.4.3 0 0 0zm3.9 0c-.8 1.9-5 6.7-1.3 3 .9-.8 1.6-2 1.3-3m-8.3 0c0 .4.1 0 0 0zm-.4.1c-.1.3.3 0 0 0zm.3 0c-.2.3.1-.1 0 0zm-1.4 0 .1.3zm1.2 0zm-8 .5zm17.9 0zm-13.2 0c-.1 2 1.2 2.1 1 3.5 1.1 2.6 0-.9-.4-2.2-.3-1 .4-.3-.3-1.1.3 1.1-.2.3-.3 0m2.1 0c-.4.2.4.2 0 0zm1.5 0 .1.1zm-.5 0c.2 1.3.6 11.8.4 7.1 0-2.7-.4-4.8-.4-7.1zm-1.4.1c0 .1.3-.1 0 0zm-.7.1c-.4.7.7 1.2.5 0-.3 0-.1.5-.5 0zm-5.8.1zm7.3 0c0 .4-.4 0 0 0zm5.3 0c-.3.4.2.5 0 0zm-5.6.4zm7.4 0h.2zm-7.1 0c0 .1-.1 0 0 0zm-7.2 0v.1zm8.3 0v.1zm-8.8.1c-.5.3.1-.1 0 0zm7.3 0c-.4.5.3 0 0 0zm-7.9.4c.6-.4.5-.4 0 0zm1.1-.3v.2zm7.2 0c-.1.2.2.2 0 0zm5.2 0zm-5.6.2c0 .2.3 0 0 0zm1.4.2.1-.2zm-2.5-.1c0 .2.2 0 0 0zm-5.6 0v.1zm-1.2 0-.1.1zm8 0c-.1.2.3.1 0 0m-.8 0v.1zm-.8.1.4.1zm4.6 0c-.4.1.1.8 0 0zm4.3.1c-.1.3.1 0 0 0zm-9.6 0c0 .3.1.3 0 0zm0 .3c0 1.2.6.2 0 0zm1.6 0v.1zm-.5.1v.1zm-5.2 0c0 .3-.4 0 0 0zm4.2 0c.1.3-.4 0 0 0zm-6.2.1c-.5.3.4.3 0 0m1.9 0zm4.2 0v.2zm-8.9 18.4c.5-.6 0-.7 0-.7 0-.9.3-.9 0-1.1.3.1.5-.3.7-.7.3-.7-.7-1.7-.4-2.3-.6-.1-.3-.6-1.1-.6.4 0-1.2-1.1-.7-1 .4-.1.4-.5.7-.6.5-.5.9-.9.8-1.9-.4-2.3-.3-5.1 0-7.5 1.1-2-.8-.9-1.6-1.6m11.6-.6zm-5.2 0c.1.4-.4.5 0 0zm44.9.1c0 .1.3-.1 0 0zm-40.7.1c-.1 1.5 1.1.9 0 0zm1.1 0zm2.5 0v.2zm1 0c-.1.2.1.2 0 0zm4.8 0c-.4 0 0 .2 0 0zm2.7 0c.1.2-.1.2 0 0zm-20.6.2zm3.8 0v.1zm5 .1c.1.2-.3 0 0 0zm0 0v.1zm-7.1.1zm8 0zm-.9 0 .1.1zm-6.2 0v.1zm10.5.1zm-10.5 0c.1.6.1.6 0 0zm7.5 0v.4zm-6.4 0zm5.2 0c.2 1 .2 2 0 2.1-.4.9.8 1.5.6.6 0-.2.5-1.8-.6-2.7m21.8.4c1 .6 3.6 5.2 2.6 1.5-.5-.9-1.6-1.9-2.6-1.5zm-28.9 0zm7.9 0c.2.2.2-.4 0 0zm.8.1c1.2 3.5 1.1-.8 0 0zm.5-.1v.1zm-.8 0c-.2.2.5.5 0 .1m8.4 0zm-14.3 0v.1zm5.6.1zm9.1 0c-.7.5-.7 1.2 0 0zm-9.1 0c-.2.3.2.3 0 0zm-6.5 0v.2zm7.7 0h-.1zm29.5.3zm-30.7 0c0 .1.2 0 0 0zm31.4 0h-.1zm11.3 0h.1zm-43.5 0c0 .1 0 0 0 0zm9.5 0v.1zm25.8 0v.1zm-2.3.1c0 .1.2 0 0 0zm-5.2 0zm-19.6 0c.1.4.1 0 0 0zm27 0v.1zm8.9 0v.1zm-9.1.1zm-11 0h.2zm10.7 0h-.2zm0 0zm0 0zm-26.5.3zm-8.2 0-.1.1zm.9 0c-.1.1.2.1 0 0zm8.5.4c.5.2.5-1 0 0zm-9.4-.3c0 .3-.2-.1 0 0zm9.9 0c-.4 1.2.1.3 0 0zm-9.9.1v.2zm4 0c0 .2.2-.1 0 0zm-8.8 0-.1.2zm4.3 0c0 .3.2 0 0 0m-5.3.2c.1.2.1-.3 0 0zm9.7 0c-.3.1.2.1 0 0zm-8.8 0v.1zm8.9.1zm-4.3 0zm.9.1v-.1zm8.8-.1c-.1.6.5 0 0 0zm-5.5.2.1-.1zm11.8 0c-2.2 3.2-.5 2.9.1 0zm-15.7 0c.4.5-.5 0 0 0m3.7 0c-.6.4.3.5 0 0m5.8 0zm-9 0v.4zm8.7 0h.1zm6.6 0v.4zm-11.9.4h.1zm5.9 0c-.5 0 .2.1 0 0zm-.6 0zm-5.6.1c-.4 1.3.4 0 0 0m-2.6 0c-.2.4.6.4 0 0zm3.7.3c-.5.7-1.1 4.3-.7 3.3.2 1.1 1.3-3.3.7-3.3zm-4.8.1c-.1 0-.1-.1 0 0zm-3.2 0zm3.1 0c.1 0-.1 0 0 0zm-5.2 0c.2.2-.3.2 0 0zm2.1.1c0 .1 0 0 0 0zm2.7.1c.3.3.3-.3 0 0zm1-.1c-.5.4.2.4 0 0zm-.7.1c-.4.7.3.3 0 .3m-5.1 0zm8.6 0c-.1 1.1.5.6 0 0zm-8.5 0v.1zm5.3 0c0 .2.4 0 0 0zm-4.4 0c-.3.1 0 .1 0 0zm-.3.1c-.2.3.3.1 0-.1m1.1.1c0 .3-.1-.1 0 0zm3.1 0c-.2.1.2 0 0 0m.5 0zm-.2.1h.2zm24 0c.2.3.4-.2 0 0zm-28.2 0zm-.9 0c.4.3-.1.3 0 0zm.4 0v.2zm4.9.2c-.6.7-.2.8-.3 1.4.1.3.7.4.7-.5-.6.4.2-.6-.4-.8m-.2 0zm24.2 0c0 .7.2.2 0 0zm-27.6 0c.3.1-.1 0 0 0zm3.3 0zm-4.5.1zm1.5 0zm-1.9 0v.1zm5.2 0c0 .1-.2 0 0 0zm-.5.1zm-.1 0v.4zm.5 0c0 .4-.1 0 0 0zm-.1.4c-.3.4-.1-.4 0 0zm0 0v.1zm.1 0c.5.1-.1.6 0 0zm.5 0zm-3.7.1zm6.4 0zm-7.8 0zm4.7 0zm3.1 0c0 .1-.1.1 0 0zm-3.7.1c-.1.2.1-.1 0 0zm-4.3 0zm19 0c-.7.8-.5 2.4-.1.5zm-14.7 0c-.4.4.4 0 0 0m.1 0c-.1.2.2 0 0 0zm19 0c-.7.3.4.4 0 0zm-18.8 0v.2zm0 .2v.1zm-6.2.2h.1zm6.5.1zm20.5.4c-1.8-.4-4.2 3.2-4.8 2.6-3.2 1.8 1 .7 1 1.8.7-.2 1.8-.2 1.5.9.1 1.1-1 0 0 1.2.7 1.1 2.6.2 2.4.3 1.5.5 1.8.5 1.5-.5-1.2 0 .6-3-1.7-2.7.2-1-1.1.7-1.5 0-.4-.3-3.1-.4-2.2-1 .6.5 2-.6 2.6.1 2.3 1.4 1.7-.3 1.2-2.8.5 2.1.4-.5 0 0m-20.7.2c.2.5-.1-1.1 0 0m.2-.6.4.4zm27.3.1c-1 1.5 1.6 2 0 0zm-27.6 0c0 .3 0-.1 0 0zm-3 0v.3zm2.8.3c-.2 1.5.4 1.5.2.2-.2.2.1-.6-.2-.2m21.4-.3c-.1.4.1.3 0 .3m-23.2 0s.1 0 0 0zm19.6.7c-3.8 3.2 3.6-2.1.2-.3l-.2.1zm-20.9-.7h.3zm2.9 0zm21.1 0zm-25.8.1.1-.1zm1.2-.1-.2.1zm6.2 1.2c1.5-.7-1.1-2.1 0 0zm-1.6-1.2v.1zm20.5 0h.1zm4.3 0c-.2.5.4.4 0 0zm-32.1.1zm4.6 0c0 .1.1-.1 0-.1m6.2 0c-.3.1.1.1 0 0zm-3.9.1c.5.3 0-.1 0 0zm21.4 0zm-26.7 0c0 .3.4 0 0 0zm3 0c-.5.6-1.4 7.6-.3 4.4.5-.9.4-3 .3-4.4zm-4.6 0zm9.8 0h-.2zm14.9.1c.4.2-.1.2 0 0zm-17.8.2c-.1 0 .4 0 0 0zm-6.9 0zm6.3 0c-.1.1.1-.2 0 0zm.5 0h.1zm20.9 0c0 .1 0-.2 0 0zm-27.6 0c0 .1-.2 0 0 0zm6.5 0c0 .1-.2-.2 0-.2m.3.2c0 .1.5-.2 0 0zm-4.9 0c0 .7 0-.3 0 0zm4.8.1c-.1.6.5-.1 0 0zm25.3 0c-.5.7.4.1 0 0zm-25.5 0h-.2zm4.5 0c0 .2.4 0 0 0zm13.2 0zm-19.7 0h-.3zm2 0c0 .2-.3 0 0 0zm4.4 0c.1.7-.2 0 0 0zm7.8 0zm-14.2.1c.1.1.2.5 0 0zm2.1 0c0 .5.7 0 0 0zm3.2 0c.1.1-.1.1 0 0zm17.8.1c.2 1.5.8-.1 0 0m-21.5 0c0 .4.1.4 0 0zm0 .4h.1zm22.2 0c.1.1.2-.4 0 0zm-23.8.1.1-.1zm0 0-.3.3zm5.3 0v.1zm18.6.1zm3.4-.1zm-25.7.1c0 .2.1-.1 0 0m22.2 0c0 .2.1-.1 0 0zm-.5 0zm4.2 0c0 .2.5 0 0 0zm-29.9 0h.3zm8.7 0h.1zm-5.1 0zm4.1 0c.1.2-.1.2 0 0zm10.1 0v.2zm-13.7.2zm.4 0c-.1.1.2.1 0 0zm20.5 0h-.3zm-22.9 0c0 .1-.2-.2 0 0zm1.9 0zm.4 0c-.4.1.1.1 0 0zm0 0zm25.5 0c-.6 1 0 2.3.4.8-.4-.2.1-.6-.4-.8zm-25.9 0c0 .2.1 0 0 0zm3.7 0v.1zm17 0v.1zm-22.6.1zm1.6 0c.3.1.3 0 0 0zm.7 0c-.2.2.2 0 0 0m21.8 0h.1zm-24.1 0v.1zm2 0c-.6 1.8.3.7 0 0zm.1 0c-.2.2.3.1 0 0zm-2.2.1zm2.5 0zm8.3 0c0 .1.2 0 0 0zm-5.1 0c0 .5 0 .5 0 0zm-7.4 0v.4zm12.7 0v.1zm13.1 0c-.5 1.7 1.1.6.7.8-.5-.7 0-.3-.7-.8zm-21.7.1zm-3.3 0c0 .3-.2 0 0 0zm30.9 0zm-5.6 0c0 .4.2 0 0 0zm5.6 0c-.5.3-2.6 2.9-1.7 3.5-.8 3.4 5.5 2.6 7.4 4.5-.4-.3.4-1.3-.9-1.4-1.6-.5-4.3-.9-.6-1 5.3.1.6-1.4-1.2-.8 1.2-.2-5.1.3-1.3-1.3 4.1-2.8-.2-.4-1.2.5 2.2-1.6 1.6-3.5.1-1.6-1 .7-1.6.5-1.6.7-1.8.6.6-1.1 1-2.3v-.5m-31.6 0zm1.7 0c-.2.1 0-.3 0 0zm24.1 0zm.1 0h-.1zm-27 0v.1zm1 .1zm.6 0zm25.9 0c-.2.1.3.1 0 0zm-15.3 0c0 .1-.5 0 0 0zm15.3 0zm0 0c.4.4.4.1 0 0zm-26.5 0c0 .6-.4.3 0 0zm.8 0v.1zm25.2 0c.1.3-.2 0 0 0m.1 0c-.1.4-.1-.1 0 0zm-27 0c0 .4-.1 0 0 0zm1.7 0c0 .1-.6 0 0 0zm3.1 0h.2zm22.4 0h-.2zm-22.6.1zm.2 0c-.1.9.3 0 0 0zm22.4 0zm-18.8 0c.1.2-.2.2 0 0zm16.9 0-.2.2zm-23.6 0c-.1.3.4.5 0 0m25.1 0c.1-.1.1.3 0 0zm.2.2zm-24.5.1c.2.1-.5.7 0-.1m24.7 0h-.2zm9.6 0c0 1.1.4.1 0 0zm-15.7.1h.3zm3.6 0zm3.1 0c0 .2.2-.1 0 0m9.4 0-.4.1zm-32.4 0zm19.8 0v.1zm3.3 0v.1zm-23.6.1c.3.6.8 0 0 0m20.3 0h.1zm2.8.1c-.6.5 1.7 1.5.8.8-1.3-.3.2-1.1-.8-.8zm-29.6-.1c-.3.6.6.1 0 0zm6.8 0c0 .5-.3 0 0 0zm.2 0c0 .1.2 0 0 0zm19.3 0zm3.9 0c0 .1.2 0 0 0zm-30 0zm6.7 0zm16.7 0h.1zm2.7.1c0 .4.1-.1 0 0zm3.8 0h.1zm-25.9 0zm-1 0c.1.5-.1 0 0 0zm4 0c-.3.4.1.4 0 0zm16.5 0h-.1zm-18.4 0h-.1zm1.2 0c0 1.7-.1.6 0 0zm21.4 0c0 .8-.5-.1 0 0zm2.2 0c-.2.6.3 0 0 0zm-3.7 0h.4zm-25.4 0v.4zm22.7 0c-.1.6-.1 0 0 0zm6.3 0c0 .4.1.4 0 0zm.2 0c0 .5.4.5 0 0zm-2.8.4v.1zm1.1 0c0 .1-.4 0 0 0zm-26.4 0h-.3zm2.1 0v.2zm15.6 0h.1zm4.4 0zm.1 0h.4zm-23.8.1zm6.5 0h.2zm1.5 0c-.2.3.5.3 0 0zm11.5 0c-.1.1.5 0 0 0zm7.4 0c-.1 0 .4.1 0 0m.5.1.1-.1zm18-.1c0 .1-.1.1 0 0zm-33.8.1.1-.1zm18.5 0c.4.3 0-.2 0 0zm14.5-.1c0 .1-.3 0 0 0zm-43.5.1s-.4 0 0 0m.1 0c0 .3-.5 0 0 0zm43 0c0 .3-.4 0 0 0zm0 0zm1.6 0v.2zm-16.4 0zm15.7 0zm.3 0c0 .3-.1 0 0 0zm-1 .2c0 .3.4 0 0 0zm.4 0c0 .1.3 0 0 0zm.6 0c0 .2.4 0 0 0zm-1.1.1h.1zm1.4 0zm.1 0zm-2-.1v.1zm.3 0v.1-.1m-17.1 0c-.1 0-.1.1 0 0zm13.6 0zm5.2 0c-.1.1-.1 0 0 0zm-16.3.1c0 1 1.2 1.6.6.8-.5.2 0-.3-.6-.8zm14.8 0c0 .1.1 0 0 0zm.5 0c-.2.1 0 0 0 0zm-38.4 0c0 .2.3 0 0 0zm37.7 0v.1zm1.2 0zm-19.4.1zm18.5 0zm1 0c-.1.1 0-.1 0 0zm-1.1 0c-.1.1.1 0 0 0zm-.2 0v.1zm-36 0c-.1.4.3 0 0 0zm-2.2 0 .1.1zm23.6 0c-.1.4.1 0 0 0zm-6.8.1zm20.5 0c0 .4-.5 0 0 0zm.1 0zm1 0zm1.5 0v.3zm-39.5 0c-.4.5.1 0 0 0zm37.3 0c-.2.4.2 0 0 0zm0 0c0 .4.2 0 0 0zm2.7 0c0 .3-.2.3 0 0zm-43.5.3zm27.3 0c.4.2.5-.3 0 0zm-22 0c-.5.5.5.2 0 0zm34.6 0zm-38 0h-.3zm36.4 0zm4.7 0h.1zm-39.9 0c0 .6.5 0 0 0zm2.5 0h.1zm17.9 0zm19.5 0zm-2.4 0 .2.1zm.8 0c0 .1.2.1 0 0zm1.6.1.1-.1zm.6-.1c0 .2-.3 0 0 0zm-15.8.1zm11.1 0zm.3 0c0 .1-.3.1 0 0zm1.8 0v.1zm2 0v.1zm-36.1.2c.5-.2-.2-.2 0 0zm32.4-.2v.1zm.6.4c-.5.2.7-.8 0-.2m3.6 0c.1 0-.2.3 0 0zm-2.7 0h.2zm-33.7.2.2.1zm31.1 0c.3.6.1-.3 0 0zm.1-.2v.2zm3 0v.2zm2.3 0c0 .2-.1 0 0 0zm-5.4-.1zm.7 0zm1.5 0-.1.1zm.2 0c0 .1.2 0 0 0zm-41.3-.1v.1zm3.8 0c-.1.2.9.4 0 .1m23.6 0c0 .1 0-.1 0 0zm16.3 0c0 .1.1-.1 0 0zm-40 0c-.3.1.5.1 0 0zm19.4 0v.1zm18.6 0zm-41.7 0zm28.7 0v.1zm10.7 0c0 .3.2 0 0 0zm2.3 0c0 .3.3 0 0 0zm2.5 0h-.2zm.1.1c-.3.2 0-.2 0 0zm-38.5-.1v.1zm1.8 0c-.8 2.4.9 1.9 0 0zm32 0v.1zm.5 0c.3.4-.2 0 0 0zm1 0zm.1.1c-.1 0 .1.2 0 0zm2.6 0zm-4.2 0h.3zm1 0v.2zm3.6 0c.1.2-.2 0 0 0m-40.5 0c0 .3.2 0 0 0zm2.6 0c-1.4 2-.5 4.2-.9 6 .1 1.6.3-1 .9-2.1 1.1-1.5-.6-2.4 0-3.9m.1 0c0 .2.1 0 0 0zm32.7 0h.1zm.5 0zm4 0zm.2 0c-.1.3.2 0 0 0zm.2 0c.2.3-.2 0 0 0zm-44.9.2zm4.6 0zm35.5 0c-.2.1.4.1 0 0zm.2 0zm.8 0c-.2.2.4.2 0 0zm.8 0h.1zm.1 0c0 .1.1-.2 0 0zm-37.2 0c-.1 0 .4.1 0 0zm35.3 0c.4.7.9.6 0 0zm1.4 0c-.2.2.5.1 0 0zm.6 0zm1.3 0zm.8 0zm-3.3-.2c-.1.2.1 0 0 0zm3.7 0c-.1.4.3 0 0 0zm-33.1.8c-1-1.6-2.6.3 0 0zm-15.3-.6c-.3.1.3.1 0 0zm45.1 0h.2zm.2 0c0 .6.6 0 0 0zm-42 0v.1zm5.6 0h.1zm2.2 0c0 .6.1-.2 0 0zm33.2 0zm4 0zm.7 0zm-40.6.1zm37.4.1v-.1zm2.9-.1v.1zm-39.8.1c-.4.4.4.4 0 0zm39.1 0zm.9 0c.1 0-.2 0 0 0zm-45.7 0c.5.7.1.5 0 0zm41.1 0zm.6.4c0-.4.4-.6 0 0zm1-.4zm2.4.4v-.4zm.2-.4v.4zm-40.1 0c0 .4.1.4 0 0zm39.6 0c-.1.5 0 .4 0 0zm-39.5 0c-.2.9-.4 1.6 0 .7-.1-.7.5-.1 0-.3m35.8 0zm1.5 0s.2.1 0 0m-47.2 0c0 .2-.2 0 0 0zm.9 0h.1zm8.8 0c0 .3.2-.4 0 0zm24.4.6c1.7.6-1-1.6 0 0zm12.1-.6c-.2.1.1.1 0 0zm.1 0c-.1.1.2 0 0 0zm.4 0c-.4-.5-.4.3 0 0zm.5 0v.1zm-36.9 0zm19.2 0h-.1zm17.2 0c0 .3.6.2 0 0m1.1 0zm2.6 0h-.1zm-4.3 0v.1zm3 0 .2.1zm-48.1 0v.1zm49.1 0-.2.1zm-50.8.1zm1.1 0c-.1.4-.5-.5 0 0zm-.5 0-.1.1h.1m47.2 0c-.4.1.2 0 0 0zm-13.5-.1.1.1zm3 0v.1zm-37.3.1zm47.4 0c-.5 0 0 .1 0 0m3.2 0zm-3.7 0c.3.1 0 .1 0 0m.1 0s.4.1 0 0m-33.8 0c0 .3.3 0 0 0zm16.8 0c1.2.8.2.1 0 0m.2 0zm19.9 0c.4.5-.3 0 0 0zm-49.5.1c0 .3-.3 0 0 0zm10-.1.1.1zm37.3 0v.1zm-46.9 0v.1zm47.9 0 .1.1zm1.5 0v.1zm-.6.1c.3.3.2 0 0 0m-49.1 0zm2 0v.3zm8 0c0 .3.4 0 0 0zm36.3.2c-.2-.2.4.1 0 0zm.4-.2zm0 0c0 .3.6.2 0 0zm-47.3 0v.2zm29.9 0v.2zm19.5 0v.3zm-48.8.2h-.1zm28.9 0c.3.1-.1-.2 0 0zm1 0zm18.4 0zm-1.8 0c0 .1.2-.2 0 0zm3.3 0-.1.1zm-2.2 0h.2zm-43 .1h.1zm5.3 0h-.1zm36.8 0c0 .1.4 0 0 0zm.4 0h.1zm.1 0zm.4 0zm2.1 0h.1zm-37.1 0zm16.9 0c0 .4-.3 0 0 0zm17.8 0c-.1.1.3.1 0 0zm1.5 0v.1zm.9 0c0 .4-.3 0 0 0zm-49.4 0 .1.1zm32.6 0c-.2.1.2.1 0 0zm1.8 0v.1zm13.5 0 .1.1zm.9 0v.1zm.3 0v.1zm.5 0c.2.1-.1.1 0 0zm-43.8 0c.5.5-.4 0 0 0zm28.4 0c-.4.5.3.7 0 .1m12.2 0c-.2.4.5-.1 0 0zm.5 0c-.1.3.1-.1 0 0zm1.6 0h.3zm-46.8 0c-.5.3.4.5 0 0zm32.7 0zm4.1 0c0 .3-.1 0 0 0zm8.8 0c-.4 0 .2.5 0 0zm.2 0zm0 0zm.3 0zm-48.5 0zm34.5 0h.4zm12.6 0c0 .3 0 .3 0 0zm.4 0h.1zm1.3 0c-.1.4.2.4 0 0zm-48.1 0v.3zm49.1 0c-.1.5-.1 0 0 .3m.4 0h-.1zm-2 0c0 .2.4-.3 0 0zm.3 0v.1zm.2 0 .1.1zm.5.1v-.1zm-16.3-.1c.6.1-1 .5 0 0m14.2 0v.1zm.5 0c-.1.1.1-.3 0 0zm.6 0zm-1.1 0c0 .1.5 0 0 0zm1.4.1v-.1zm1.3-.1c0 .1 0-.3 0 0zm.7 0h-.2zm-40.2-.3zm19 .3c.3 0 .3-.3 0 0zm18.3-.3c0 .3.1.3 0 0zm1 0c.1.5.1 0 0 0zm1.6.3c-.4.1-.4-.3 0 0zm-50.2-.3c0 .4-.2 0 0 0zm8.3 0c-.1.4.4.5 0 0m-8.1 0c.5.4-.5.3 0 0zm.5 0zm33.8 0c-.2.4.4.4 0 0zm13.3 0c-.9.9.8.4 0 0zm1.4 0c-.2.4 0 0 0 0zm0 0zm1.1 0h-.1zm-49.6 0c0 .4 0 0 0 0zm9.4.3c-.3.7.7-.4 0 0m25.1-.3c.4.8.4.9 0 0zm12.3 0c-.8-.1.1.4 0 0m.7 0v.3zm1.6 0c0 .4-.1 0 0 0zm.5.3c0 .1-.1-.3 0 0zm-2.7 0v.1zm.4 0c-.3.2-.3-.3 0 0zm.2 0c0 .1.4 0 0 0zm.6 0c0 .2.7-.3 0 0zm1.3 0zm.1 0h-.1zm-50.2 0v.1zm33.3 0v.1zm14.3.1.1-.1zm2.2-.1c0 .1-.3 0 0 0zm-49.6.1zm.5 0h-.3zm.3 0c-.2.1.4 0 0 0zm48.2 0c-.2.1.3.1 0 0zm-48.5 0h.1zm40.5 0h.1zm6.3 0h.1zm1.2 0h.1zm-47.9 0h.2zm2 0zm5.8 0zm25.9 0c.4 1.1.6 1.1 0 0zm13.7 0c.3.2-.4 0 0-.1m-17.3.1c-.6 0-.6 0 0 0zm2.2 0c-.1.1-.1-.1 0-.1m8.1.2c-.8.5-.8-.7 0 0zm8.6-.2zm-49.5 0 .1.1zm.7 0c-.2.1.4.1 0 0zm46.8.1-.1-.1zm.2-.1c-.2.1.2 0 0 0zm-47.3.1zm46.9 0v.1zm2.2 0c0 .4-.3 0 0 0zm-49 0-.1.1zm37.9 0c0 .1-.2.1 0 0zm-38 .1c-1.4-1.1.3 1 0 0zm12.7 0zm27 0c.2 0 0 0 0 0zm7.8 0c.4.4-.5.3 0 0zm.3 0s.1 0 0 0zm-48.1 0zm.9 0h.1zm33.7 0c0 .3.1.1 0 0zm5.8 0zm8.2 0zm-48.3 0h-.3zm.3 0zm.8 0c0 .4.3-.1 0 0zm45.9 0zm-37.8 0c0 .3.3 0 0 0zm39.3 0c0 .1-.2-.1 0 0zm-36 0v.3zm35.6 0zm0 0c.2.1-.2.1 0 0zm-.8 0c.2.1-.2.1 0 0zm-47.3 0v.1zm47.8 0v.1zm-47.8.1v.2zm1.2 0c-.1.2.2-.1 0 0zm46.1 0c.2.2-.2 0 0 0zm.2 0zm.5 0zm.3 0v.2zm.2.2h-.2zm-7 0zm-41.4 0zm.2 0zm-.6 0v.1zm1 .1v-.1zm11.8-.1.1.1zm-12.2.1c-.2.5-.2 0 0 0zm30.9 0c-.1.5-.1-.1 0-.1m-30.1.1h.1zm10.4 0zm1.3 0zm19.5 0zm-32.3 0c.1.1 0 0 0 0zm.7 0zm.1 0zm29.8 0c0 .1-.3 0 0 0zm3.7 0h.1zm-34 .1c0 .5-.2 0 0 0zm.8 0c0 .4-.4.4 0 0m-.4 0c0 .5-.4 0 0 0zm11.9.4v.1zm32.6 0c-2.4-.9-1.5 2.1-.3 1.7.5.5.5-.4 1.9-.4 0-.3-.9-.6-1.6-1 0-.2.2 0 0-.3zm-44.9 0zm.9 0c.2.3-.1 0 0 0zm42.1.1zm0 0zm-42.5 0v.1zm11.8.1c-.1.3.2-.1 0 0zm-12.5 0v.1zm1 0v.1zm.1.1c0 .2-.1-.1 0 0zm-.5 0zm42.6 0v.2zm-38.3.2zm38.1 0v.2zm-42 0v.2zm44.3.2zm-2.1 0zm0 0v.3zm-42.2 0zm.1 0zm3.2 0zm28.8 0zm-28.4 0v.3zm.5.3zm27.9 0c-.8.3-.8 1.4-1.1 1.4-1 1.4 0 1.4 1.1 1.9v-3.3m8.6 0zm-36.8 0zm1.5 0v.1zm-1.1 0v.1zm.9.1c.6.1 0 .1 0 0m27.5 0c0 .1.4-.1 0 0zm12.2 0zm-44.4 0v.1zm4.9 0c.9.4-.7.4-.2.6-.8.4-.5-.6.2-.5zm-1.1.1-.1.1zm.6 0h.3zm-4.4 0zm32.2 1c.7.4-.6-2 0 0m-28.8-1zm.8 0c.1.1-.3 0 0 0zm.5 0c0 .3-.4 0 0 0zm27.5.1c.4.4-.4 0 0 0m-32.4 0v.2zm.2.2zm9.9 0h-.2zm-6.5 0c-.2.6.3.2 0 0zm1 0c.3.2-.1 0 0 0m40.4 0zm-41 0zm37.9.6c-.4-.8.4-.4 0 0zm2.6-.4zm-39 0zm34.6.5c2.8 1.6 1.3-1.2 0 0zm-14.1-.5zm-20.9 0c-.1.6-.2-.2 0 0zm37.1.4c0 .1 0-.4 0 0zm-42.2 0c.2.1-.2-.4 0 0zm26.6 0zm4.6 0zm-4.7 0zm16.8 0zm-43.1 0v.1zm42 .1c.1.1-.3.1 0 0zm.5 0c0 .1.2 0 0 0zm-37.6 0c0 .1-.2-.1 0 0zm-5.1 0h.2zm.4 0c0 .2-.4 0 0 0m4.5 0c.1.1 0 0 0 0zm-.5 0c-.4.2.2.2 0 0m-.4 0c0 .2 0 0 0 0zm22.5 0c-.4.1.1.1 0 0zm4.9.1v-.1zm1-.1v.1zm11.1 0v.1zm-.6.1h.4zm-42.5 0c0 .1.3-.1 0 0zm42.9 0h.1zm-38.4 0c0 .3-.4 0 0 0m21.2 0c.4.1-.2 0 0 0zm6.1 0h.2zm-.8 0c.3.3 0 0 0 0zm.8.1c0 .2.6-.3 0 0zm11.4-.1h.2zm-43.2.3zm-.1 0-.1.2zm26.2 0c-.4.2-.4 0 0 0m15.7 0c0 .2-.3 0 0 0zm-40.9.2zm.7 0zm8.1 0zm22.3 0c-.4.4-.6 1.4.4.5.3 0-.4-.1-.4-.5m-32 0c-.1.3.3.3 0 0zm32.6 0c-.1.3.1 0 0 0zm9.5 0c-.1.5.4.3 0 0m-3.1 0c-1.7.8.2 1.5 0 0zm-39.2.3h-.2zm.2 0zm16.7 0c-.1.1.1.1 0 0zm-16.7.1c-.1.1.3 0 0 0zm4.2 0c.3 0-.1 0 0 0zm27.4 0zm16.1 0zm-47.7 0c0 .1.3-.1 0 0zm-.2 0c-.4.1 0-.1 0 0zm-.4 0c0 .1-.1.1 0 0zm.6 0v.1zm0 0c-.1.6.3 0 0 0zm-1 0h-.1zm17.8 0c.2 2 1 4.3 1.4 5.9-.1.6.9 1.6.6 2.5-.1.1.4.6.4 2.1 0 .1-.3 1.1-.1 1.7-.7.8 0 1-.3 2.3.1 1.8.5 3.9 1.1 5.5 1.6 6.2.6-4.2.6-6.5.7-5.2-1.4-8.7-3.7-13.3m-12.6 0v.2zm-2.1.2c0 .2-.2 0 0 0zm1.9 0v.2zm26.4 0c0 .2-.1-.2 0 0zm-31.1 0zm5.2 0zm0 0v.2zm22.6 0c-.3.2.1.2 0 0zm2.7 0v.2zm-25.1.2h-.1zm25.7 0h-.1zm-33.2-.2c.1.2.1 0 0 0zm1.7 0v.2zm.4.2v-.2.2m.1-.2v.2zm4.8 0v.2zm-7 0c0 .2 0 0 0 0m2.6 0c-.2.2.1.2 0 0zm4.7 0v.2zm-7.3.2s.1-.2 0 0zm29.9-.2v.2zm-27.8.2s-.5 0 0 0zm4.8 0h.1zm22.6 0s-.1-.2 0 0zm-27.1 0c-.2 0 .2 0 0 0zm4.9 0s.1-.2 0 0zm-.9 0zm26.9 0s-.1 0 0 0zm.3 0c0 .4-.2 0 0 0zm-3.7 0zm-23.1 0h-.3zm26.6 0zm-31.7 0s-.4 0 0 0zm.1 0zm.4 0h.2zm4.2 0c0 .4.1-.2 0 0m-6.4 0c0 .4-.4-.2 0 0m2.1 0c.3-.2-.5.6 0 0m.7 0zm2.4 0zm2.3 0c0 .4-.2 0 0 0zm.4 0h-.4zM242.2-134.3s-.3 0 0 0zm34.5 0c-.4-.5-.5.7 0 0zm-32.4 0c-.2 0 .2 0 0 0zm.4 0c-.1.4.3 0 0 0m5.2 0zm-1.6 0c.5.6.9 0 0 0zm-4.2 0h-.1zm27.8 0zm-29.7 0c0 .5 0 0 0 0zm7.2.4-.1-.4zm-5.9-.4zm.6 0v.4zm9.9 0v.4zm8.6.4c-.1 0 .2 0 0 0zm0 0h.2zm-18.9 0c.3 0-.1 0 0 0zm51.9 0zm-46.7.1c.4.2 0-.5 0 0zm-4.9-.1v.1zm0 0zm31.5 0c0 .1-.2 0 0 0zm19.5 0v.1zm2.9 0v.1zm-1.2.1zm2 0zm-54 0zm4.7 0zm4.6 0c0 .4.2 0 0 0zm49.8 0h.1zm-41.3 0zm-18.5.1.1-.1zm5.2-.1zm27.5 0c0 .6.6-.1 0 0m-28 .1.1.1zm27.8 0c0 .5.6-.1 0 0zm23.3 0h.2zm-51.1 0v.1zm-5 0c0 .5-.1 0 0 0zm5.5 0c-.5 1.3.7.5 0 0m-1.9.1c0 .2.5-.1 0 0m25.9 0zm-29.2 0v.2zm32 0v.2zm-22 0v.2zm19.9.2h.1zm6.6 0c-1 .5.2.2 0 0zm-31.8 0c-.3.2.2.2 0 0zm-5 0v.2zm35.7 0c0 .2.1.2 0 0zm-29.5.2zm-.7 0zm.6 0h-.4zm-6.1 0zm35.8 0 .2.3zm-35.4.3c-.1.1.2 0 0 0m-.4 0zm.8 0zm5.8 0c0 .5 0 .1 0 0m22.9 0v.1zm-10.1.5c.5 1.3.8-1.3 0 0m16.4-.4zm-30.8.1c.1.1.5-.2 0 0zm4.7-.1c0 .2-.1 0 0 0zm20.8 0c-.2.1.4 1 0 0m5.3 0v.1m-37.1 0zm7.4 0h.1zm.5 0zm3.3 0c-.1.1.4.1 0 0m16.6 0c.2-.1 0 .5 0 0zm9.2 0c0 .1.1 0 0 0zm-28.6.1c-.3.2-.3 0 0 0zm-4.7 0c-.8 1.9 0 2.5 0 .4v-.4m4.2 0c.1.2-.4.2 0 0zm0 0c.1.2 0 .2 0 0m3.2 0c-.1.4-.1 0 0 0zm-3.6-.2zm20.3 0h-.2zm-22 0zm-2.1.1zm0 0v.1zm17.5.5c.9.6.3-.6 0 0zm0-.4c.2.4-.1 0 0 0m4.6 0c0 .4-.2-.1 0 0zm6.2.2c0 .2.1 0 0 0m-25.2.2s.6 0 0 0zm-3.1 0zm1.8.4zm.3 0zm1.8.2v.1zm-.8 0c0 .5.2-.1 0 0zm2.1 0zm-5.2.1h-.3zm0 .2v.2zm3.1.2zm13.2 0zm-13.5 0zm-3.3 0h.1zm.1.3zm0 .1.1-.1zm16.7-.1v.1zm-16.7.1zm30 .1c.4.1-.2.3 0 0zm-30 0-.1.1zm-.1 0v.1zm25.7 0v.1zm0 .1c0 .4.1-.1 0 0zm4.8.2zm1.3.2c-.7 0 .4.5 0 0zm-32.1 0v.4zm17.6.5h-.1zm-17.6 0-.2.1zm34.2 0c-.1.2.2-.1 0 0m-8.2 0c-.3.4-.3-.1 0 0m5.8 0v.1zm.2.1c.5.5.8-.2 0 0m-5.4.1c.1.4-.5-.1 0 0zm.1 0zm5.1 0v.4zm-14.3.4h.1zm.2 0zm16.5 0c-.2 1.9.4.5 0 0m-6.6.3c0 .1.5 0 0 0m4.9.1v.1zm-28.6.2c0 .4.6 0 0 0m13.8 0h.1zm-13.6.2v.2zm1.5.2c.1.4-.4-.2 0 0zm.1 0v.4zm12.1 0v.4zm-11.8.4zm-.3 0zm12.5.1zm-.4 0c0 .4.5 0 0 0zm-13.9.1zm3.1.1c.1.2-.2 0 0 0zm23.9 0h-.1zm-12.4 0c.1.4-.2 0 0 0zm-14.5.4h-.1zm13.8.3.3-.3zm15-.3c.1.3-.3 0 0 0m-15 .3c.3.1 0-.3 0 0zm28.9 0v.1zm-42.7.2h-.1zm23.9.1c5-.2-3.3 1.9-1.8.4.4 0 .6-.6 1.8-.5m-1.3 0c-.1.3-.1 0 0 0zm-.1 0-.3.1zm-8 .5c.1.4-.2.4 0 0zm.1 0c0 .4-.3.4 0 0zm5.3 0 .1.4zm1.8 0v.4zm-7.5.4c-.4.5.4-.4 0 0m3.8.1h.3zm-3.4 0c.7.6-.4.2 0 0m.1.4zm0 0v.2zm8.9.2zm-1 0zm-25.1 0c-.1.3.3.3 0 0zm25.2 0v.3zm3.2 0v.3zm1.5 0c0 .4 0 0 0 0zm.9.3zm-7.9 0v.1zm8.6.1c-1 .1-1.8.1-2.2.6 0-.5-1.6.9-1.6.9.1.6 2.9 1 2.6 1.7 0-.6-.8 0-1.4.4-2.1 0-.6.6 1.6 1.1 1-.5.8-3.5 1-4.6m-8.4 0h-.1zm8.5 0h.2zm-8.7 0c0 .5.1 0 0 0zm24.8 0zm-30.5 0zm-.1 0c0 .5-.1 0 0 0m12.8 0c0 .4.4 0 0 0zm-7 .4c0 .1.2-.1 0 0zm6.6-.1c-.1.1.2.1 0 0zm.2.1zm-12.5 0c.1.4-.4.1 0 0m11.2.1c-.2.5.8.5 0 0zm.1 0c.2.3.2 0 0 0zm3.3.3c.2.3.6 0 0 0zm15.9 0c-.1.7.2.6 0 0zm-15.9 0c0 .2.2 0 0 0zm-3.5.2h.1zm3.5 0c-.2 0 .2 0 0 0zm-30.4 0c0 .1 0 0 0 0zm46.4.5c-.1.6.1.3 0 0zm-30.6.3zm.1.2c-.3.6-.3-.2 0 0m30.9 0c-.5.5.1 0 0 0zm-44.1 0c.1.1-.4-.2 0 0zm12.9 0h-.2zm30.7.1.1.3zm-30.6 0c-.1.4-.1 0 0 0zm8.2.3v-.3zm0 0c-.1.5-.1 0 0 0zm-8.2.1zm-15.2 0zm23.6 0h-.2zm6 0c.1.4.1 0 0 0zm16.3.4c.1 1.8 1.5 5 .8 3.7.2-.4 0-2.4-.4-2.4.1.4 0-1.3-.4-1.3m-16.2 0h.2zm-.1 0h.1zm.3 0v.2zm-5.2.2zm-1.6 0c.1.1-.3 0 0 0zm-.3.1zm21.5 0zm-41.7 0c0 .3-.3 0 0 0zm20.2 0zm-8 .3c.1 0 .1-.4 0 0zm16.7-.3c-.3.4.1 0 0 0zm-28.7.3c0 .2.5 0 0 0zm31.1 0c-.1.2.2 0 0 0zm12.4 0v.1zm-43.6.1h.1zm.6 0c0 .1.1-.1 0 0zm20.9 0zm-20.5 0v.1zm23.9 0v.1zm3.2 0v.1zm14.9.1zm-46.6 0c.5.4.1-.1 0 0zm28.9 0c-.2.2.4.2 0 0zm-28.8.2h.3zm29.2-.2-.4.2zm-28.8.2v.2zm.4 0c.1.3.1 0 0 0zm23.8 0c0 .3-.2-.2 0 0zm3.6 0h.1zm-27.4 0v.2zm.1 0 .1.2zm.1.2c-.1.1.3 0 0 0m27.2 0zm.6 0c0 .1.4-.2 0 0m-28.3 0h.3zm29.8.1.1-.1zm-.8-.1zm1.2 0zm-29.4 0zm29.1 0h.1zm-29.1 0c.6.5.6-.4 0 0zm25.2 0v.1zm1.6 0c.1.4-.5.4 0 0zm1.1.5c-.8.6-.9-1 0 0m18-.4zm-22.7 0v.3zm3.3 0c.3 1-.5-.1 0 0m.3.3c.3 0-.3.2 0 0m-4.1.1c-.5.4-.4-.4 0 0m-.5 0zm2.2 0zm.8 0zm1.7 0c.1.6-.1.1 0 0zm.6 0v.1zm-13.1.1zm31.4 0v.3zm-16.9.3v.2zm-5.8 0c.2.2-.4.2 0 0m0 .2c-.2 0 .1-.2 0 0zm.1 0c.1 0-.1 0 0 0zm-22.1 0v.1zm22.2 0c0 .1-.2.1 0 0zm4.2.1zm15.3 0c0 .5 0 .5 0 0zm-12.5.3zm.2 0v.1zm12.6 0v.1zm-20.4.1c0 .1-.1-.1 0-.1m0 0c0 .1-.1 0 0 0zm7.6 0c0 .2.2 0 0 0zm-29 .1s.3 0 0 0zm.8.1c.1.5-.5-.1 0 0zm25.4 0v.2zm.6 0-.1.2zm-4.3.2zm6.5 0h.2zm-6.3 0zm6.3 0v.2zm.2.2c0 .1.2-.2 0 0m-32.4 0c1 .1.9 0 0 0zm3.7 0zm-1.2-1.2c0 .2.2 0 0 0zm.2 0h.3zm.9 0c.4.2-.5.2 0 0zm44.7 0v.2zm38.2 0v.2zm-38.4.2zm-18.2 0h-.1zm.2 0c0 .1 0 0 0 0zm57.8 0zm-58.5 0zm2.7 0zm.3.1zm-.4 0c.2 0-.1.9 0 0m.2 0v.3zm-28.2.3c0 .2-.3 0 0 0zm28.2.1h.2zm0 0zm12.5.1v.2zm-40.6 0v.2zm-.1.2c0 .2-.5-.2 0 0m44.5.2c0 .1.3 0 0 0zm33.8 0v.1zm-.2.1c.2.3 0-.1 0 0zm-.2 0c0 .3-.3 0 0 0zm-.5.3zm.7 0zm-32.9 0c1.4 1.1 3.3 5.4 2.2 1.2-.8-.4-1.6-.8-2.2-1.2m-28.2.2c.8 3.6 2.1 1 0 0zm59.3.2zm-42.1.3h.1zm-18.7.4c-.6 2.2-.6 4.5-.7 6.6.1-1.1.7-3.5.7-4.2 0-.3.4-1.4 0-2.4zm61.5.3c0 .8-.4 0 0 0zm-58.5 1.8c0 .1.1 0 0 0zm51.8 0c1.5 2.4 2.1 1 0 0zm.2.1zm2.3.5s.3 0 0 0m-53.7 0c0 .1-.2.1 0 0m-3.6.1zm0 .3zm-8.4 0c-1.6 1.1 0 .8 0 0m9.3.2c0 .9 0 3.5.4 2.3.2-.3.1-1.3-.4-2.3m-3.2.2.1.3zm-.4.3zm2.6 0zm-3.6.6zm56.8.1zm6.1 0zm-.2 0zm-5.9 0c-.2 1.8 1.1 1.5 0 0zm-54.4 0c-1.4.8.5 1.8 0 0zm-2.1.3zm-.4 0c0 .4.5 0 0 0zm-1.5 1.5c-.6 1.4 3.6-3.6 0 0zm6.6-1.4c.1.3-.1.3 0 0zm-3 .4zm-.5.3c.6.4.1-.7 0 0zm3.6 0zm-.1 0v.3zm-2.6.3c-.4.1.2.2 0 0zm2.3.1h-.1zm.3 0zm56 0h-.2zm-56.4 0h.1zm-3.6 0c-.1.3.4 0 0 0zm-.1 0c-.1.1.5.3 0 0zm3.7.1c0 .2.3.2 0 0zm-3.7.2zm-.1 0h.1zm0 0zm3.9.1c0 .1.2 0 0 0zm12.6-.3c.1.3.9-.2 0 0m.9.2c-.4.5-.6-.4 0 0zm-17.8.1h.1zm0 .1zm1 0h.1zm16.8 0zm-20.3 0h.3zm3.1 0c-.1.1.4-.1 0 0zm16.8 0zm-20.6.8c1-.5.7-1.2 0 0zm3.1-.8c-.6.5.2 0 0 0zm18.2.3c.2 0-.1 0 0 0zm-.1.2h.1zm0 .1c0 .5.3.2 0 0zm.9 0v.2zm-21.5.2c-2.2 1.2-3.2 4.3-.5 1.4.3-.1 1.6-1.7.5-1.4m59.8 0zm.3 0c0 .1.3-.2 0-.2m-39 0c.4.3-.5.3 0 0m.3.2zm-1.6.1v.2zm.6 0v.2zm-.6.2zm-16.6 0v.1zm18.5.1c.2 0-.2 0 0 0zm.4 0v.2zm31.9 0h.1zm-34 .2zm1.9 0v-.2m-.8.3c0-.3-.2-.1 0 0zm.5-.3c.1.3-.1-.1 0 .2m-1.6 0zm33.5 3.1c.7-.7 2.4-1.8.7-3.1-.4.3-.1 2.4-.7 3.1m-32-3.4h-.1zm.2-.2c1 .3-.2.6 0 0zm.4 0c0 .3-.4 0 0 0zm-.5 0c-.1.5-.5-.1 0 0m.3 0zm32.3 0zm-51.6.3c-2.7 1.8.5-.1 0 0m18.1 0h.2zm.8 0zm-.1 0c.1 0-.3 0 0 0zm.2 0v.2zm-.9 0c.2.3.4 0 0 0m1.4 0c.4.2 0 0 0 0zm.5 0zm-.1 0v.2zm-.8 0c.4.5 1.1.3.4.8.7-.5-1.4-.1-.4-.6m-1 0h.2zm.9 0zm-23.2 0c0 .1.1 0 0 0zm21.6 0v.1zm1.1.1v.2zm1 .2zm.6 0zm31.5 0zm-32.8 0zm-.8.2-.1-.2zm1.1-.2-.1.2zm.8 0v.2zm.1.2c0 .2-.5 0 0 0zm-1.1 0zm.1 0zm-16.9 0h-.1zm16 0h-.1zm1 0c.4.3 0 .1 0 0zm1 0v.1zm-21.1.1h.1zm20.9 0c.1.1-.4.1 0 0zm.3 0zm.2 0zm-21.5.1h.1zm20.6 0zm0 0c0 .1-.2-.1 0 0zm.5 0c.2.4-.5-.1 0 0m.2 0zm0 0c.4 0 .2.4 0 0zm-21.8.1h.1zm21.8 0zm-.3.2c.1 0-.4 0 0 0zm-.4 0v.1zm.4 0v.1zm1.3 0v.1zm-22.1.1c-.1.2.2 0 0 0zm1.3.2zm4.1 0zm-4.2 0h.1zm16.7 0v.2zm-17 .2v.1zm-1.6.4c.1.5 2-.8 0 0zm1.1-.3c0 .3.9-.3 0 0m52.9 0v.2zm-35.2 0v.2zm-.2 0v.2zm.2.2h-.2zm-14.5 0h-.1zm.4.1-.4-.1zm14.1 0h-.2zm-20.4.3c2.3-.1 1.4-.4 0 0zm20.4-.3zm0-.3c4.4 3.3 10.2 4.7 15.5 6.3-3.9.3-8.4.3-11.7 1.23-.4-.1-1.5.63-1.5.11-1.6 1.05-2.3 0-2.1-2.94 0-1.5-.4-3.2-.2-4.7m.2 0c-.2.3-.2-.1 0 0zm57.9.3.2.2zm-78.9.2c-.1 0 .4 0 0 0zm.4 0zm55.7.3h.1zm19.5 0v.2zm-19.1.3zm19.1 0-.3.1zm-18.7 0zm-.4 0c-.5 0-4.9 3.6-1.7 2 .2-.5 2.9-1.8 1.7-2m-.5 0c0 .1.1-.1 0 0zm-.2 0h.2zm.3 0v.1zm19.5.1c-.3.3-.3-.1 0 0m-19.4 0-.1.1zm-56.7.1c-.1.2.3.5 0 0zm76.1 0v.2zm-75.6.2c.4.3-.1 0 0 0zm-11.1.1v.2zm.1.4h-.1zm65.1 0zm-54.4.1c.2.3-.3.6 0 0zm0 .5c.7.1-.2.3 0 0zm54 .1zm-54 .2c-.2.2.1-.2 0 0zm40.8.2zm-41 .1c-.1.7 0 .6 0 0zm37.1.4c.6.8 1.7 1.3 2.7 1.6 1.5.3.1 1.6-1.3.2-.8-.2-4.9-2.3-2.8-2.1.5 0 1 .1 1.4.3m32.7-.4zm-.9 0 .2.1zm.6.1zm-1.6 0zm1 0zm-.6 0 .2.1zm.8 0v.1zm.1.1zm-2.1 0zm1.8 0s0 .2 0 0m.2 0 .1.2zm1.2 0v.2zm-2.4.2zm.8 0h-.2zm.4 0h-.2zm1.1 0c-.4.9-1 .3 0 0zm-4.4 0c0 .2.3.2 0 0zm-65.8 0zm65.8.2c0 .1 0-.4 0 0zm1.3-.2v.2zm1.1 0zm1.1 0v.2zm-3.8.2h.3zm3.7 0zm-69.3 0c-.1.1.1 0 0 0zm66.3 0c0 .1-.2 0 0 0zm-.9 0zm-65.5.1h.1zm66.3 0zm-.1 0zm0 0zm-1.7 0v.2zm.2.2zm.2 0c-.2.1 0 0 0 0zm-.4 0 .2.1zm.4 0v.1zm.3 0zm-1.3.1c0 .2.2 0 0 0zm-.5 0zm.5 0 .2.2zm.6 0c.2.2-.2.2 0 0zm.4 0v.2zm-64.8.2c-.1.1.1 0 0 0zm61.7 0c-.3.3.2-.2 0 0zm1 0zm.6 0zm-63 0zm63.5 0v.1zm.3 0v.1zm-1.4.1h-.2zm-.8 0zm-61.9 0c.1.2-.5 0 0 0m61.4 0zm-61.5.2c.1.5-.5-.2 0 0m43.3 0zm18.5 0zm-61.7.2-.1.1zm.3 0c0 .1-.2-.2 0 0zm-.3.1zm0 .2c.1.2-.9-.2 0 0m-.1 0h.1zm.1 0c0 .2 0-.2 0 0zm39.9.1zm.1 0v.1zm0 0h.3zm-40.5.1c.4.4-.2.4 0 0zm-10.1 0 .1.1zm10.5.1-.3-.1.3.1m-10.4 0zm10 0-.1.3zm46.2 0v.3zm-46.1.5h-.2zm41.1-.2zm-41.2.3c.1.2-.2.2 0 0zm16.9 0zm-26.9 0v.2zm10 0-.1.2zm-9.9.3-.1-.1zm9.9-.1zm-9.6.3c-.5.4-1.3-.3 0 0m9.4-.1h-.2zm1 0v.1zm.2 0-.1.1zm.1 0v.1zm-.1.1zm.5 0c.1.2-.5 0 0 0zm-.6 0c.1.2-.3.2 0 0zm-1.3 0v.2zm.8 0v.4zm-10.8 0zm11 0v.2zm-.1 0v.2zm0 .2c0 .31 0-.2 0 0m-.4.2s0-.4 0 0zm0 0h.3zm25 .32h.2zm-25.7 0c0 .11.2.11 0 0m-10.3.11h.3zm10.7 0zm-10.9.21c.7 0 .7-.32 0 0zm11.1-.21c.1.1-.2.1 0 0zm-.6.21c-.4.21.1 0 0 0m24.3.21h.1zm-24.7 0v.1zm.8 0v.1zm-9.9.1c.5.89-3.6 1.62-.5.21 0-.21.2-.21.5-.21m32.6.21c-.4.21.1-.21 0 .21m-23.6 0zm-.1 0v.11zm.8 0c.3.11-.2.21 0 0m22.9.11c.2.21-.6.21 0 0zm-23.6 0c-.2.21.5.21 0 0zm-12.7.1v.11zm3.7 0c.1.26-.3 0 0 0zm-3.4.11c-.2.25.8-.11 0 0m12.2 0v.25zm.2 0 .1.15zm-8.5.15c-1.4 1.36-2.4 1.05 0 0zm-3.5.1zm11.8 0 .1.21zm.3 0c.4.42-.2.21 0 0zm.4 0h-.4zm-10.5.21zm9.6 0c-.2.53.3-.21 0 0zm16.9 0zm-16.7 0c-.2.32.1 0 0 0zm-10.3.21h.1zm28.3-.21zm-18.2 0h.2zm15 0zm-15 .21zm15.9 0-.1.11zm-15.9 0c-.1 0 .2 0 0 0zm-14.4.11c0 .21.6-.32 0 .1m29-.1-.1.1zm-30.8.1c.4.42 1.8-.21 0 0m1.1-.21c0 .11.3.11 0 0m32.2.11c0 .42-1 1.05 0 0zm-4.2.1zm5.5 0c0 .11-.2-.1 0 0zm-28.4 0c-1.2.84-1.2 2.23-1.6 1.05.6-.21 1.1-1.05 1.6-1.05m27.8 0c-.5.42-.5.32 0 0zm-17.9.11-.1.21zm13.8 0c-.6.52.4.21 0 0m3.5.21-.1.31zm.7 0-.1.1zm.5 0zm-7.4.1c0 .21.4-.1 0 0zm1 0h.1zm4.7 0c.1.42-.5.42 0 0zm-5.9-.31zm-11 0zm18.4 0-.3.21zm-6.2 0c-.5.31 0 .52 0 0zm-12.5.21c.3.52-.2 0 0 0zm17.6 0zm.7 0c-.5.63-.5.1 0 0zm-1.2 0h-.3zm-31.4 0c-1.4.63-2 .73-3.7 1.08-1.7-.45 3.1-.77 3.7-1.08m24.6 0c-.1-.21 0 .1 0 0m.9 0c-.4.63-.4.63 0 0zm-.4.1.1-.1zm6.3.21c-.7.53-.7.32 0 0zm.3 0zm-.2-.21c.1.21-.1 0 0 0zm-17.4.21zm.1 0zm16.4 0c-1.2 1.82-.6.21 0 0zm1.4 0c.1.32-.5.32 0 0zm-32.1 0c.1-.21.1.21 0 0m13.7 0zm11.5 0c-.4.21.1 0 0 0m7.6 0zm-22.8 0c0 .32.1 0 0 0zm19.4 0c-.9 1.36-.4.21 0 0zm2.2 0c-.1.32-.1 0 0 0zm-18.3 0c0 .32.4 0 0 0zm-.5.21zm18.9 0-.1.11zm-19.7.11.2-.11zm.7-.11c0 .11.1.11 0 0zm.5 0c0 .21.5 0 0 0m1 0c0 .11.1.11 0 0zm9.6 0 .4.11zm.9 0zm5.4 0c-.1.21-.1 0 0 0zm-19 0c.6.11-.4.21 0 0m3.3 0c.3.11-.1 0 0 0zm14 0c-.4.11-.9.79 0 0zm2.3 0v.11zm.8 0c-.5.56-.4 0 0 0zm.5 0c-.2.32-.3-.21 0 0zm-18.7.11c0 .1.5-.11 0 0zm16.4 0c-.3.56-.2 0 0 0zm-31.3-.11c0 .21.1 0 0 0zm25.3.11.1-.11zm6.3 0-.3.1zm-32.5 0zm14.7 0c.1 0-.4.1 0-.11m-14.8.11h.1zm15.3 0-.4.1zm1.2 0zm15.5 0zm1.2 0s-.1.1 0 .1m-18.6 0zm1 0-.3.11zm15.6 0zm-15.5 0c-.1.46-.3-.1 0 0zm16 0c-.1.46-.5.46 0 0zm-17.3.11zm16.8 0c-1 1.07-.7.47 0 0zm-16.5 0c.2.24-.1.24 0 0zm16.3 0h-.4zm1.1 0zm1 0c.1 0-.4 0 0 0zm.3 0h-.1zm-18.5 0h-.1zm.9 0c.5.35-.4.35 0 0zm14.7 0-.4.47zm1 0-.2.24zm2.6 0h-.3zm.5 0zm-19 0c-.2.47-.2 0 0 0zm.8 0v.24zm.4 0c.1.47-.5 0 0 0zm13.8 0c-.1.95-.5.47 0 0zm1.7 0c0 .35-.1 0 0 0zm.8 0v.24zm.2.24c0 .11 0-.24 0 0zm.4 0h-.1.1m-1.1 0h-.1zm.5 0c-.5.59-.5-.24 0 0m-17.8.12zm18 0h-.1zm-18.5 0c0 .13-.1-.11 0 0zm17.7 0c.1 0-.2 0 0 0zm.9 0zm-16.5 0zm10.3 0c0 .49-1.5 1.41 0 0zm1.9 0c-.2.6-.7.6 0 0zm2.2 0h-.1zm.9 0zm0 0h-.1zm-18.5 0c.5.13-.2.13 0 0zm17.5 0c.1.36-.1 0 0 0zm.9 0-.1.36zm.4 0v.13zm-17.6.13v.23zm1.5 0c0 .23-.1.23 0 0zm15.6 0c-.5.81-.4 0 0 0zm-16.6-.13c0 .36-.5.13 0 .13m.3 0c-.4.47-.1-.24 0 0m15.8 0zm.8 0v.23zm.4 0zm-1.2 0v.23zm-16.7.23h.1-.1m15.3 0c0 .35-1.1 1.05 0 0zm1 0zm-15.8.13c-.4.22-.1-.13 0-.13m-1.7 0v.13zm2 .13c-1.2 1.05-1.4 1.05 0 0zm.8-.13c0 .13-.6.13 0 0zm15.1 0c-.3.35-.4-.23 0 0m-16.9 0-.2.13zm13.8 0c-.1.58-.5.35 0 0zm-14.9 0-.2.13zm17.6 0v.13zm-16.9 0c-.4.35-.4-.23 0 0zm.1 0-.1.13zm.5 0-.1.13zm13.4 0c0 .13-.2.13 0 .13m-13.8 0c.2.45-.6 0 0 0zm.8 0c-.4.11-.6.11 0 0m13.9 0-.1.11zm.5 0zm.6 0c-.7.69-.1.11 0 0zm-16.6-.13v.13zm1.1 0h-.1zm4.3 0c-.5 2.1-1 .58 0 0m9 0c-.2.58-.2.24 0 0m2.5 0c-.3.58-.3 0 0 0zm.5 0v.13zm-17.4 0v.13zm16 .13c0 .11-.3.11 0 0m1.4 0-.4.11zm.2 0c-.1.22-.1 0 0 0zm.3 0v.11zm-16.7 0v.11zm.8 0-.2.11zm12.2 0c-.6.56-.4.22 0 0zm1.5 0c-.2.45-.2 0 0 0zm-18.8 0-.3.11zm2.7 0c0 .11-.4.22 0 .11m.4 0c-.1.34-.3-.24 0-.11m.2 0c0 .11-.6.22 0 0zm15.7 0-.1.11zm1.1 0v.11zm-16.4 0v.11zm.1 0-.1.11zm.3.11h-.3.3m.8-.11v.11zm13.1.11c-.3.45-.1-.24 0 0m3.1 0zm-21.1 0zm.7 0-.1.11zm1.5 0c.4 0 0 .11 0 0zm2.7 0h-.1zm11.6 0-.1.11zm.3 0c.1.34-1 .45 0 0zm4 0c0 .11-.1-.11 0 0zm-18.1 0h-.1zm.3 0c0 .11-.4.11 0 0m4.2 0c0 .34-.4.11 0 0m11.2 0zm-16.7 0c-.5.34-.1 0 0 0zm-3.7.11c0 .23-.1-.11 0 0zm4.6 0c-.3.7-.5 0 0 0m1.1 0c0 .34-1 .23 0 0zm-9 .23h.1zm.6 0zm5.7 0-.3.11zm3.8 0h-.1zm13.6 0h-.4zm2.2 0h-.1zm-26.4.11.1-.11zm6.9-.11v.11zm.9 0c0 .11-.4.11 0 .11m.1 0c0 .13 0-.11 0 0zm15.4 0c.2.13-.1 0 0 0zm-21.6.13.1-.24zm6.9-.24c-.1.11-.5.11 0 0zm1.1.11c0 .13-.8-.11 0 0zm13.4-.11c-.4.6-.3 0 0 0zm-23 0h.1zm.1.24c.4-.47.3-.24 0 0zm6.7-.24h-.1zm15.3 0c-.5.6-.5-.23 0 0zm-21.4 0h.3zm1.8 0zm5 0c-.2 0-.7.71 0 0m-7.8 0v.11zm1 0c-.3.11-.3.47 0 0m6.2 0zm.9 0-.3.11zm1.6 0-.4.11zm.7 0c0 .6-.3.11 0 0m5.2 0c.4.47-.3-.23 0 0zm8.2 0h-.1zm-20.2 0c-.8.6-.8 1.16 0 0zm-.7 1.16c1.5-.92 2-1.74 0 0zm4.1-1.16v.11zm2 0c.1.24-.7.11 0 0m.3.11c-.7.71-1.2.94 0 0zm3.2-.11-.1.11zm-11.1.11zm5.3 0-.2.13zm-4.4.36c.6-.47.1-.23 0 0zm4.8-.23c0 .23 0-.13 0 0zm5.3 0zm12 0zm-24.1 0-.3.23zm.5 0zm1 0c-.5.58.5-.13 0 0m5.2 0c-.3.36-.8.47 0 0m1.2 0c0 .36-.2 0 0 0zm.4 0zm-7.3 0v.23zm7.5.23c0 .13-.7.58 0 0m4 0-.4.13zm-10-.47c0 .24.1 0 0 0zm.1.24c.7-.24 0-.24 0 0zm4.9-.24-.1.11zm4.4 0c.2.82-.9.47 0 .11m3.4 0h-.1zm8.1 0zm-17.2 0v.13zm1.6 0-.1.13zm.5 0c-.3.49-1.6.94 0 0zm-2.1 0v.13zm-3.7.13c-.8.47.1-.13 0 0zm19.7 0h.2zm-22.2 0h.1zm7.4 0-.1.23zm2.4 0c0 .36-1.1.47 0 0zm5.5 0c0 .47-.1 0 0 0zm-14.3 0c0 .36.2 0 0 0zm-1 .36h-.1zm.5 0c-.1 0 .5 0 0 0zm1 0h-.3zm-.3.22c.3 0 1-.71 0 0m1.4-.22zm4.3 0zm5.1 0c-.1.11.1-.13 0 0zm-12.5.11.2-.11zm.6-.11v.22zm.9 0c-.3.11.1.11 0 0zm10.5 0 .1.11zm2.2 0v.11zm-12 .45c0 .24.5-.34 0 0m.3.47c.2-.36 1.3-.92 0 0zm5.7-.47c-.2 0-.9.6 0 0zm7.5 0zm-14.8 0v.11zm7.9 0c-.5.6-.9.47 0 0zm-8.6-.45h.2zm1.4 0h.1zm.6 0c-1.6 1.15-2 1.86 0 0zm.4 0c-.6.22-.4.56 0 0m5.2 0-.4.11zm-6.9.11c-.3.11 0 .11 0 0zm.7 0v.11zm-.6.11c-.4.34 0 .47 0 0zm11 .23c-.5 1.16-1 .6 0-.23m.1-.11-.1.11zm-10.6-.11c-.6.56.5-.13 0 0zm1.5 0c-1.5 1.5-2.5 2.32-.3.22zm-3 0c-.4.45.2 0 0 0m.4 0c-.5.22.5-.13 0-.13m16.5.58c-.2-.58.8-.45 0 0zm-16.3-.58c-.6.24 0 .35 0 0zm1 0c-1 .69-1.1 1.4 0 0zm10 .13h.4zm5.1 0c0 .45-.5.92 0 .11m-15.5.11c-.7.47-2.4 2.1 0 0m1.3.7c.5 0 1.6-1.75 0 0zm-1.9-.47.3-.23zm1.6-.23c-1.3 1.28-1.6 1.98 0 0zm-.2.34c-2.1 1.53-.5 1.05 0 0zm-1.5 0h.1zm16.1 0zm-.2 0zm-16.2 0c0 .13.2 0 0 0zm1.9.71c-4.3 3.96 2.2-1.63.4-.22zm-2.1-.71c.2 0 .9-.45 0 0zm10.3.13c0 1.05-.8.46 0 0zm5.4 0v.23zm-.4.36v.1zm-15.3-.36v.23zm.6 0c-.2.36.3.23 0 0zm1.4.81c.7-.58.2-.94 0 0zm7.9-.35c0 .12-.4 0 0 0zm6.8 0c.5.46-.9.12 0 0m-16.2-.1c-.5.45-.9.69 0 0zm26.4 0c1.9 1.74-1.7-.49 0 0zm-15.5.1-.3.12zm14.5 0-.2.35zm1.8.46c-1.5-.56 0-.46 0 0zm-27.1-.34c-.6.47 0 .47 0 0zm.3.23zm10.2 0c.2.11-.5.7 0 0zm2.1 0h-.1zm-12.3.11c-.7.48-1.4 1.53 0 0m26.9-.11-.1.11zm-16.7.59c-1.1-.23 1.6-.94 0 0zm-9.5-.35c-1.1.92.9-.69 0 0m1 .46c-.5.59 2-1.64 0 0m-2.4-.59c0 .13.3.13 0 0zm10.8 0v.13zm-10.1.13zm12.6.46c-1.5.46 1.2-1.05 0 0zm1.8.35c-.7-.94 1.3-.94 0 0zm-15.3-.81c-.4.46.4 0 0 0zm.6.12c-.6.34.3.46 0 0m1.9.34c-.8.71.7-.7 0 0zm9.1-.11c-.1-.23-.5 0 0 0zm9.4-.23c-.1.46-1 1.05-1.2.69.6 0 .2-1.05 1.2-.69m-20.8.8c.7-.57.7-.92 0 0zm1-.8c-1.2.8-.8 1.28 0 0zm9.7 0c.2.34-.4.34 0 0zm-10.9.34c-.5.94 1-.93 0 0zm8-.11c.2.23-.1 0 0 0zm0 .46c-.1.11-.2-.23 0 0m-.1-.46c0 .57-.6 0 0 0zm5.3.11h.2zm-11.6.59c1-.59.5-1.05 0 0zm6.6-.59-.2.12zm-6 .35c-.1.24.3-.23 0 0zm-.6.11c-.7.71 0 .25 0 0m6.2 0c-.4.13-.4-.11 0 0zm14.3.59c-1.7 0 .5-1.05 0 0zm-14.1-.46c-.2.12-.2-.24 0-.13m-6 .25c.2.23.5-1.05 0 0zm24.1-.25c-1.5.48-.5-.92 0 0zm-25.2 0 .1-.11zm-.5-.11zm8.5 0zm-8 .11c0 .13.1.13 0 0zm7.9 0-.5.48zm-8.6.13c-.3 0-.3.58 0 0zm3 .58c1.1-.58.9-1.05 0 0zm5.8-.58zm-8.1-.13zm2.1 0c-.8.48-.3.25 0 0zm6.9 0zm.5 0zm-8.9.13.1.12zm.5 0-.3.35zm9.4 0zm-10.4.12-.1.23zm-.4-.12c-.1.35.3-.13 0 0zm.9 0v.12zm2.6 0c-.9.81-1.5 1.86 0 0zm9.3 0c.1.12-.3.35 0 0m-5.4.12zm2.6 0h-.1zm.9 0zm.6 0s-.5.34 0 0m.3 0c-.4 1.28-1.3.69 0-.12m2.9 0zm-4.3 0v.12zm-.7 0-.2.35zm-9.8 0c-.5.46.4 0 0 0m.5.35c.2 0 .6-.82 0 0zm12-.23h-.3zm.5 0zm-13.3.23c-.3 0 .2 0 0 0zm.7.11v-.11zm1.3-.11c-.6.57.3 0 0 0zm8.3 0c-.6 1.16-1.2.7 0 0zm2.7 0c-1 1.28-1 .57 0 0zm.3 0c.1.23-.9.23 0 0zm.8 0c-.6.57-.6.11 0 0zm2 0zm-3.6 0c-.5 1.16-.5.46 0 0zm2.1 0c0 .11-.1 0 0 0zm-1.1.11-.1.12zm-12.1-.11zm.9 0c-1.5 1.16-.3.57 0 0m2.2.57c1.1-.92 0 0 0 0zm11.6-.57h-.1zm-15.9 0h.1zm3.7.11.1-.11zm-2.6-.34c-.5.23-.3.34 0 0m13.6.34h-.3zm-.8 0zm-12.3 0zm7.4.12c-2.2 2.33.5-.12 0 0m4.2-.12c0 .35-.5.12 0 0m-11.6 0c-.3.12-.5.71 0 0zm4.4 0c-.6 0-.1.94 0 0zm6.8 0c-.2.46-.1.35 0 0zm2.1 0h-.1zm-12.1.12c-.5.34-.2.47 0 0zm11.1 0c.2 0-.1 0 0 0zm-13.9 0c.5-.12-.2-.12 0 0zm1.1 0 .1-.12zm13.1-.12zm-11.4.94c1.1-.59.9-1.28 0 0zm-3.2-.94c-.1.35.4 0 0 0m1 0c-.4.46 0 .12 0 0m12.7 0c0 .12-.5.59 0 0zm-.3 0c.1.12 0 .12 0 0zm-12.2 0c-.2.46.5-.34 0 0zm13.3 0c-.3.59-.2 0 0 0zm-7.6 0zm4.5 0c-1.5 1.17-.8 1.63 0 0zm-8.8.12c0 .34.4-.46 0 0zm10.5-.12-.1.12zm.3 0c-.3.46 0 .12 0 0m.8 0-.1.12zm-14 .12-.2.23zm6 0zm2.7 0zm6.3 0-.4.23zm-14.6.23zm1.6 0c-.5.59 0 .11 0 0zm-.6 0v.11zm1.4 0c-.5.36-.3.36 0 0zm9.2 0c0 .24 0 0 0 0zm-11.3.11c-.4.13 0 0 0 0m.1 0c-.4.48.6-.34 0 0zm4.8.25c.4.23.4-.71 0 0zm-3.3-.25c0 .13.2 0 0 0zm1.7 0c-1.1.71-.1.71 0 0zm.1.13c.4.12.4-.59 0 0zm7.9-.13c-.2.71-1.2 1.05 0 0m.8 0c-.8 1.17-1.9 1.52 0 0m.7 0c-.2.71-.1 0 0 0zm.9 0v.13zm-1.4-.11c-.8 1.41-1.9 1.63 0 0m-11.7 0zm5.2 0c0 .24.2 0 0 .11m.5 0zm-6.8 0c-.2.25.1 0 0 0zm1.3 0c0 .25.3-.11 0-.11m.8 0c0 .24 0 0 0 0zm.6 0c-.6.36.1 0 0 0zm5.2 0v.11zm1.8.11c-1.3 1.17.5-.11 0 0m2.3 0c-.2.59-.2-.11 0 0zm-5.5 0c-.5.25 0 .48 0 0zm-5.7 0c0 .13.3 0 0 0zm5.2 0c-1.3.71-.2.13-1.2 1.17.6-.23 1.2-.92 1.2-1.28m1.6 0c-.7.36.2.36 0 0zm1.3 0c.1.11-.1 0 0 0zm-9.1 0v.11zm14 0v.11zm-12.6.11zm.4 0c0 .13 0 0 0 0zm12.5 0c-.2.13-.2-.11 0 0zm-10.9.13c-.4.46.6-.24 0 0m2.6 0c0 .12 0 .12 0 0zm-5.2 0h.2zm2 0c-.9.35 0 .46 0 0zm-.5 0c0 .35.5-.13 0 0zm2.6 0zm8.4 0v.12zm.6 0c0 .46-.6.12 0 0m.2 0c-.7.81-.6.46 0 0m.4 0h-.1l.1-.13m1.5 0-.4.13zm-14.1.25h.1zm2.5 0c-.4.34.5 0 0-.12m2.3 0-.1.12zm8.4 0v.12zm-13.3-.13c-.3.25 0 0 0 0zm0 0c0 .25.2 0 0 0zm3.1 0v.13zm2.9 0c-.6.59.3.25 0 0zm17.1 0c.1.13-.1.13 0 0zm-20.9.13zm1.5 0c0 .12.2-.13 0 0zm.5 0c-.4.12 0 0 0 0m1.1.12h.1zm7.5-.12c.5 0-.5.58 0 0zm1.9 0zm-16.5 0c.2.35.2-.13 0 0zm.8 0v.12zm3.1.35s.6-.59 0 0zm4.3-.35c-.4.58-.1.58 0 0zm16.7 0c.1.35-.3.12 0 0zm-23.4.12c-.8.46.3.34 0 0zm1.5 0c0 .23.5.23 0 0zm6.1 0c-.1.23.2.23 0 0zm2.3 0zm14.2 0h-.1zm-24.6.23c-.7.57-.2.57 0 0m1 0h.3zm2.6 0h.3zm8.7 0c-.1.46-.4 0 0 0zm1.7 0zm2.5 0h-.1zm7.3 0c.2.23-.3 0 0 0m-21.9 0 .1.11zm2.2 0c-.5.46.5.23 0 0zm1.1 0c0 .46.3 0 0 0zm3.7 0v.11zm13.1 0v.11zm-23.2.23h.2zm3 0v.23zm4.4.23c-.2.11.6-.46 0-.23m7.1-.12c-.2 0 0 .46 0 0m1 0-.2.12zm.7 0c.1.12-.4-.11 0 0zm10.1 0h-.1zm-25.8 0zm.4 0zm1.1 0c0 .12 0-.11 0 0m.2 0c-.2 0 .3.35 0 0m1.5 0c-.5.35.4 0 0 0m.5 0c-.1.46.6-.11 0 0zm.4.12c-1 1.05.5-.23 0 0m3.4-.12zm1 0zm4.7 0h-.1zm1.5 0c-.6.58-.7.71 0 0m-12.1 0c-.1.46.5.12 0 0zm2 0c-.4.35.1.35 0 .12m1.3 0c-.6.34-.2.81 0 0zm.4 0zm1.1 0c-.7.59.3 0 0 0zm1 0c0 .23.3-.12 0 0zm.4 0zm3.8 0zm3.8 0h-.1zm6.3 0c-.1.34-.2-.12 0 0m-22.6 0v.23zm6.6 0c-.3.23.1.23 0 0m2 0c0 .34.2 0 0 0zm1.1 0c.2.23 0 .23 0 0zm3.3 0-.1.23zm11.4 0c0 .34-.3.59 0 0m-15.6.23c-.5.36.5.11 0 0m16.5 0c.2 0-.1.11 0 0zm-25.9-.46c-.5.46 0 .23 0 0zm.4 0v.11-.11m6.8 0c-.8.46-.3.46 0 0m7.1 0zm.4 0-.2.11zm-12.7 0zm.7 0c-.5.11.5-.35 0 0zm1.1 0 .3-.23zm2.9-.23v.23zm2.1 0c0 .34.2 0 0 0zm.4 0-.2.34zm0 0c-.2.23.1.23 0 0zm6.1 0-.1.23zm9.9 0c-.2.69-.1 0 0 0m-23.2.46c-.4.46-1 1.28.1 0h-.1m3.1 0zm9.2.23c-.8.82-.2-.23 0 0zm1.9-.23c.1.23-.5 0 0 0zm5.4 0zm2.5 0v.23zm-22.4.23c-.7.23-.7.82 0 0zm.5 0h.3zm1.4 0v-.23m.2 0v.23zm1.3 0 .1.23zm2.2 0c-.1.34.1.23 0 0m6.8 0h-.4zm-12.6.34zm.7 0zm.8 0h.1zm1.1 0c-.9.71.5-.34 0 0zm4.7 0c-.3.12.4.12 0 0m8.4 0h-.3zm6.3 0c0 .12-.3-.11 0 0zm-23.3.25c.2.22.7-1.05 0 0m1.5.22c.8-.35.9-.93 0 0zm2.5.12c.9-.59.9-1.05 0 0zm3.6-.47c-.4.82.6-.69 0 0zm.6-.12zm14.3 0c0 .12-.1-.11 0 0zm-21.5 0h.3zm2 0c-.1.12.4 0 0 0m3.2 0zm1.9 0c0 .12.1 0 0 0m5.4 0c-.1.47-.5.12 0 0m10.3 0c.1 0-.1 0 0 0zm.6 0c0 .25-.6 0 0 0m-24.6 0h.2zm5.1 0zm5.9 0h-.1zm4.5 0zm-11.8 0c-.7.47.1.12 0 0m3.5 0c-.8.47.2 0 0 0m.2 0c0 .12.4-.11 0 0zm3 0zm6.9 0c.1 0-.1 0 0 0zm-14.7 0h.1zm.1.12c.4-.46.3 0 0 0zm2.5 0 .1-.12zm2.8-.12zm.3 0zm.9 0c0 .12.3 0 0 0m5.3 0zm.7 0-.1.12zm.6 0h-.1zm.5 0c-.1 0-.1.59 0 0zm2.7 0zm-19 .12c-.4.35.2-.12 0 0zm1 0c-.1.35.5-.12 0 0m2.1 0c-.6.13.5.47 0 0m5.8 0zm9.8 0c-.2.47-.2-.12 0 0zm5.3 0c0 .35-.1-.12 0 0zm-18.9 0c0 .13.1 0 0 0zm1.6.13c0 .22.2 0 0 0zm.6-.13.1.13zm1.1.13.1-.13zm1.9-.13.1.13zm7.3 0-.2.13zm2.3 0v.13zm-19.3.35v-.22zm1.6 0c.3 0 .5-.47 0 0m8.1-.35c-.8.47.1.47 0 0zm4.2 0c-.2.94-1.1.94 0 0zm1 0c0 .13-.2.35 0 .13m4 0zm3.5 0zm-19.2-.13c-.1.35 0 .13 0 0zm1.3 0zm.1 0h.1zm4 0zm2.3 0zm6.3 0zm1.5 0zm3.6 0zm-17 0c-.8.59.5-.12 0 .13m2.1-.13c0 .13.3 0 0 0zm3 0zm3.6 0zm-13.7.13c-.7.34 0 .46 0 0zm6.4 0zm.5 0h-.4zm1.6 0c0 .22-.4.22 0 0zm1.7 0c-1 1.04-.8 1.51 0 0m4.2 0c0 .22-.1-.13 0 0zm.4 0c.1 0-.4.34 0 0m-10.9.22.3-.22zm.3.12c.1 0 .2-.59 0 0m1.3-.34c0 .34.5-.13 0 0zm.4.22.1-.22zm2.2-.22zm.9 0c-.4.22.2 0 0 0zm3.8 0c0 .46-.6.81 0 0zm3.5 0c-.6.81-.9.81 0 0m5.5 0zm-19.5.22zm10.3 0c-1.3 1.75-1.4 1.17 0-.22m1.1 0c-.9 1.75-1.9 1.51 0 0zm1.6 0c-.4.69-.7.34 0 0m.5 0c.1.46-.3.34 0 0zm4.1 0-.2.22zm.1 0v.22zm.5 0c-.5.46-.3.22 0 0m9.5 0v.22zm-30.9.22c-.4.47.2.24 0 0zm.5 0v.12zm1.7 0c-.5.24 0 .47 0 0m1.9 0c0 .47.1 0 0 0zm4.2.12c0 .35.2-.34 0 0zm7 0c-.1.35-.1-.12 0 0zm1.1 0c.2 0-.1 0 0 0zm.5 0zm.9 0c-.4.58-1.1.93 0 0zm.1 0c.4.12-.1 0 0 0zm.9 0c-.3.93-.5.47 0 0zm-16.3.12.2-.12zm.5-.12c-.3.12.1.12 0 0zm1.7 0zm3.3 0c-.1 0 0 0 0 0zm1 0h.2zm-4.3-.47v.13zm3.8.13.3-.13zm6.1-.13v.13zm1.7 0v.13zm1.1 0c-.5.94-.6.13 0 0m.5 0-.1.13zm1.1 0s-.5.59 0 0zm-15.3.13.1.22zm1 0c-.4.22.4.34 0 0m1.7 0h-.1zm.8 0zm.2 0zm1.5 0c-.6.34.3.34 0 0m.4 0c-.1.34.1 0 0 0zm8.1 0v.22zm3.2 0h-.1zm-20.2.22zm5.8 0c-.5.12-.3.59 0 0zm2 0c-.4.12.2.12 0 0m1 0c-.2.12.3-.22 0 0zm.3 0c-.2.24.6 0 0 0m6.1 0c-.3.47-.8.12 0 0zm-12 0c.2 0 .1-.35 0 0zm.5-.22v.22zm.1 0v.22zm4.2.22c0 .12.4-.22 0 0zm2.2-.22c-.5.22 0 .34 0 0zm.8 0c0 .22-.1 0 0 0zm3.8 0v.22zm4.5 0-.2.34zm.8 0-.1.22zm-17.4.34v.12zm6.9 0c-.1.12.1.12 0 0zm4.8 0c-.6.93-1.6 1.41 0 0m1.5 0c-.6.47-.6.47 0 0zm4.5 0c.1.12-.2 0 0 0zm-20.6 0zm1 0c-.2.35.3-.12 0 0zm1 .12.3-.12zm.5-.12c-.5.35.4 0 0 0zm7.2 0c-.5.35-.5.58 0 0zm6.7 0c.1 0-.3.12 0 0m1.2 0c.5.12-.2.35 0 0m.6 0v.12zm1 0c-.5.58-.4 0 0 0zM245-89c-.4.35.1 0 0 0m.7.23.1-.23zm2.6-.23zm.9 0h.1zm3.8 0c0 .46.4-.24 0 0zm2.6-.12c-.4.12.5.35 0 0m3.6 0c.1.47-.3 0 0 0zm-12.1 0c-.5.58-.3.58 0 0zm3.9.12.3-.12zm.4 0zm-6.8.23c-.5.23-.6.82 0 0zm.1 0zm3 0c-.9.35-.6.58 0 0zm.2 0zm5.6 0zm6.2 0c.1 0-.1 0 0 0zm.6 0zm.2 0c-.2.35-.1 0 0 0zm-16.2 0zm3.9 0zm2.3.12.3-.12zm1.9-.12c-.4.23.2.23 0 0zm2.1 0c-.4.58.5.23 0 0m2.2 0v.12zm5.8.12-.1-.12zm1.5-.12c0 .23 0 0 0 0zm-18.9.12h.2zm4.1 0zm6 0c.2.11-.2 0 0 0zm7.8 0c-.1.23-.2-.12 0 0zm-18.9-.47v.12zm.6 0c-.1.12.3.58 0 0zm1.5 0c-.1.35.1 0 0 0zm7.9.12c.1 0 .1-.24 0 0zm7.8-.12c-.5.47-.2.12 0 0zm.5 0c-.5.58-.4 0 0 0zm-16.8.35c.5-.23-.5-.23 0 0zm2.1-.23c-.4.35.5-.12 0 0m1.1-.12c-.1.12.1.12 0 0zm0 0 .1.12zm3.8 0-.1.35zm1.9 0v.12zm1 .12c-1.1 1.05-.1 0 0 0m.1.46c0 .83 1.2-1.17 0 0m3.3-.46c-.3.93-1.1.58 0 0m.8 0h-.1zm3.7 0zm-15.1.23zm.9 0zm1.7 0zm5.2 0zm1.5 0c-.9 1.17-1 .35 0 0m1.7 0-.1.12zm-13.5 0h.3zm2.9 0zm1.1 0h.1zm1.5 0zm1 0zm1.1 0-.1.12zm6.2 0c-.2.35-.7.23 0 0zm16.1 0s.6.12 0 0zm-27.4 0v.12zm4.7 0zm.6.23c.5.12.8-.7 0 0zm6.2-.23c.1.23-.5.12 0 0zm-12.1.12c-.5 0-.4.58 0 0zm2.1 0v.11zm.6.11h.1zm1-.11c-.1.58.1.11 0 0zm9.6 0c.3.11-.2.11 0 .11m-15.3 0v.35zm.4 0zm2.1 0c0 .35.1 0 0 0m.1.12c0 .35.9-.35 0 0m1.5-.12h.1zm.2 0c-.1.35.3 0 0 0zm2 0zm4.7 0zm2 0zm.6 0zm-8.3.12.3-.12zm1.4 0 .1-.12zm3.2-.12c-1.1 1.05-.1.94 0 0m2 0c-.5 1.05-.4.47 0 0m16.5 0c-.2.35.3 0 0 0m-29.5.12v-.12zm.7-.12c-.3.35-1 1.05 0 0m.8.12s0-.12 0 0zm.6-.12c-.1.35.1 0 0 0zm3.3 0h.3zm2.1.12v-.12zm8.2-.12zm.4 0h-.2zm-14.4-.23c-.2.35.3-.23 0 0zm3.1 0c-.2.23.4.12 0 0zm1.1 0h.3zm.5 0zm2.4 0v.12zm5.8 0c.1.35-.6 0 0-.23m-14.2.23v.12zm9.2.12c-.6.58.4-.35 0 0zm6.6-.12c.1.23-.1 0 0 0zm-16.3.12c-.5.23 0 .23 0 0zm4.7 0zm1.1 0v-.12m1.2.12h.4zm.9 0c-.5.23.6-.35 0 0m.2 0c-.6.7.7-.35 0 0zm-7 0c-.6.46.5 0 0 0zm1.2 0c0 .23.4-.12 0 0zm.4 0zm1.1 0c0 .23.4-.35 0 0zm2.2-.12c0 .23.3 0 0 0m6.2 0h-.1zm3.6 0c0 .23-.9 0 0 0zm-13.7.12zm.1 0zm.6.11.5-.11zm1.4-.11s.1 0 0 0zm.1 0zm1.1 0zm.4 0zm1 0c-.3.23.1-.12 0 0zm1.7 0c-.1.46.4-.12 0 .11m6.7-.11c0 .23-.1 0 0 0zm-9.4.11zm1.7.12v-.12zm5.8-.12zm-12-.11v.11zm3.4 0c-.4.11 0 .11 0 0zm9.7 0c0 .23-.5.11 0 0zm.4 0v.11zm-13.2.11c0 .12.2-.23 0 0zm.5-.11c0 .23.1 0 0 0zm2.7 0c-.1 0 0 .46 0 0m.6 0v.11zm.1 0v.11zm.4 0c-.1.11.1.11 0 0zm2.9 0c-.3.23.2 0 0 .11m-4.6 0v.12zm5.7 0c-.2.47.2 0 0 0m16.6 0c-.1.12.1 0 0 0m-24.2.12c-.5.35.3 0 0 0m1.4 0c0 .23.2 0 0 0m.7 0c-.1.23.3-.12 0 0zm.5 0c-.1.47.6-.12 0 0zm1.4 0c-.4.23.5 0 0 0zm.2 0c0 .23.3-.12 0 0zm-5.9.23c0 .48.6-.46 0 0m1.2-.23c0 .35.3 0 0 0zm2.1 0c-.2.71.4 0 0 0zm1.6 0 .3.23zm2.1 0c0 .23.3.23 0 0zm1.4 0c-.1.47.5 0 0 0zm-9.4.23c-.4.48.4 0 0 0m2 0c-.5.59.5-.23 0 0m3.9-.23c0 .35.3 0 0 0zm4 0c-.5.47.4 0 0 0m-9.5 0h.1zm1.2 0zm2.5 0zm1.2 0zm-3.1.23zm.8 0c0 .12.1-.23 0 0zm.1 0c0 .12.5.12 0 0zm.6 0c-.1.12.1-.23 0 0zm1 0c0 .24.1-.23 0 0m.4 0c-.9.48.2.12 0 0m.8 0zm1 0zm.5 0zm.6 0c-.1.12.2 0 0 0m16.2 0zm-21.2 0c-.9.24 0 .48 0 0m1.1 0zm4.8.12c.3.12.1-.58 0 0m3.3-.35v.23zm12.4 0zm-22.1 0c0 .23.2 0 0 0zm2.8 0zm.6.23c0 .48.5-.58 0 0zm.5-.23c-.2-.12 0 .71 0 0zm.4 0zm0 0c-.1.23.4.23 0 0zm-1.1 0c-.6.47.5.35 0 0zm-4.8 0v-.12zm1.6-.12v.12zm.6 0c0 .12.1 0 0 0zm.5.12.1-.12zm.5.23c.2 0 .1-.58 0 0zm3.2-.35c0 .35.5 0 0 0m.9 0c-.2.35.2-.11 0 0zm1 0zm.1 0zm.8 0zm.3 0zm2.2 0v.12zm-12.4 0-.2.12zm5.1 0v.12zm1.5 0c-.1 0-.1.47 0 0m1.6 0c.1 0 .4.47 0 .35m.9.12c.1.36.8-.58 0 0m.7-.12c-.5.24.3-.23 0 0zm3.1 0zm-9.3 0c0 .12.3 0 0 0zm.8 0v.24zm2.6 0c-.3.12 0 .12 0 0zm2.8 0v.12zm.3 0c-.2.24.3.12 0 0zm.3.12c-.1.12.4-.12 0 0zm-8.6.12s0 .24 0 0m.2 0h.3zm.8 0h.1zm5.8 0h.1zm-7.1 0c-.1.24.3 0 0 0zm4.5 0c-.5.58.5.24 0 0zm.2 0 .3.24zm.9 0c0 .24.1 0 0 0zm.7 0c0 .35.3 0 0 0zm.2 0zm.8.24.3-.24zm-5.8-.24c0 .35-.1.24 0 0zm5.2 0v.24zm-7.8-.12c-.1.36.3 0 0 0zm1 0c-.1-.12-.1.36 0 0m3.5 0c0 .12.1-.12 0 0zm1.8 0v.12zm3.1 0h.1zm-6.3 0h.1zm2.2 0zm5.7 0zm-9.9.12c.3.24.3-.47 0 0m1.3-.12-.3.12zm1.7 0h.1zm1.1 0c-.1 0 .1.12 0 0zm.6 0v.12zm.8.12.1-.12zm.8-.12zm-7.8 0c0 .12.3 0 0 0zm4.9 0c-.5.36 0 .12 0 0zm2.3 0c-.2.36.5 0 0 0m.6 0zm1.9 0c-.4.12.1 0 0 0zm0 0c0 .12.2-.12 0 0zm-7.4.12.1-.12zm1.7-.12v.12zm.5 0zm3.6 0c-.4.36.1.36 0 0zm.5 0zm1.3 0h.2zm-9.6.12s.1.24 0 0m5.2 0h.1zm5.3 0s-.1.24 0 0m-6.4 0zm1.7 0c.1.35.1-.12 0 0zm.5 0zm2.1 0h.1zm-7.3 0c-.7.46 0 .35 0 0m1.1 0v.24zm1.5 0c-.6.35.1.46 0 0zm-2.2 0c-.4 0 0 .81 0 0m.2 0h.3zm1.6 0zm.8 0c-.3.24.1 0 0 .24m.5 0zm.1 0h.1zm3.7 0zm12.1 0h.1zm-20.1-.24c-.3.24 0 .24 0 0zm4.8 0v.24zm1.1 0v.24zm.4 0v.24zm2.8 0v.24zm-5.7.24h.3zm1.6 0c0 .11.3-.24 0 0zm.8 0c-.3.22.1 0 0 0m.2 0zm-6.3 0c.3.22.3-.24 0 0m2.4 0c0 .11.1 0 0 0zm.2 0zm4.1 0h.1zm2.1 0-.1.11zm-5.1 0s.4 0 0 0m.3 0zm.5 0zm2.8 0s.3 0 0 0zm-7.5 0-.2.11zm.8 0zm.5 0zm2 0zm-2.8.11c-.4.23.3-.11 0 0zm2.1 0zm0 0zm3.9 0zm-3.2 0-.1.11zm2.7 0v.23zm.3 0c0 .11.1 0 0 0zm-5.1 0c-.1.23.4 0 0 0zm.4 0c0 .23.2 0 0 0zm5.8 0h-.4zm-4.7.11zm1.5 0h.1zm-.8 0h.3zm1 0c.3.12.3-.11 0 0zm-4.4.12.1-.12zm1.6 0s.1-.34 0 0zm2.2-.12c-.4.12.4.12 0 0m3.1 0zm.5 0zm-5.6 0zm4 0zm10.7 0zm-15.4 0 .1.12zm2.8 0c0 .35.4-.11 0 0m-2.8 0c-.5.47 0 .12 0 0zm1.2.12c-.5.35-.1-.23 0 0zm3.5 0c0 .23-.4-.12 0 0zm-2.4 0c.3.35-.7 0 0 0zm-1.6 0c-.1.35-.1 0 0 0zm2.6 0v.23zm.9 0c0 .23-.5.23 0 0zm-5.3 0c.1.23-.2.23 0 0zm3.2.23c-.6.24-.4-.35 0 0m-1.6 0h-.3zm.1 0c.1.12-.1 0 0 0zm1.1 0zm1 0zm-2.2.12c0 .12 0 0 0 0zm1.1 0zm.5 0h-.4zm.1 0h-.1zm-1 0c-.1.36-.1-.12 0 0zm-.5 0c.3.12-.1.12 0 0zm-12.2 2.85c-.3.45.4.15 0 .15" transform="translate(-212.5 186.1)"/></svg>