<?xml version="1.0" encoding="UTF-8" standalone="no"?>
<svg
   width="65mm"
   height="75mm"
   viewBox="0 0 65 75"
   version="1.1"
   id="svg73514"
   sodipodi:docname="logo_block_dark-min.svg"
   inkscape:version="1.2.1 (9c6d41e410, 2022-07-14)"
   inkscape:export-filename="logo_block_dark-min.webp"
   inkscape:export-xdpi="200"
   inkscape:export-ydpi="200"
   xmlns:inkscape="http://www.inkscape.org/namespaces/inkscape"
   xmlns:sodipodi="http://sodipodi.sourceforge.net/DTD/sodipodi-0.dtd"
   xmlns="http://www.w3.org/2000/svg"
   xmlns:svg="http://www.w3.org/2000/svg">
  <sodipodi:namedview
     id="namedview73516"
     pagecolor="#505050"
     bordercolor="#eeeeee"
     borderopacity="1"
     inkscape:showpageshadow="0"
     inkscape:pageopacity="0"
     inkscape:pagecheckerboard="0"
     inkscape:deskcolor="#505050"
     inkscape:document-units="mm"
     showgrid="false"
     inkscape:zoom="1.665"
     inkscape:cx="175.7"
     inkscape:cy="208.7"
     inkscape:window-width="1620"
     inkscape:window-height="1058"
     inkscape:window-x="-6"
     inkscape:window-y="-6"
     inkscape:window-maximized="1"
     inkscape:current-layer="g73512" />
  <defs
     id="defs73474">
    <pattern
       id="a"
       height="5.181"
       width="30.066"
       patternUnits="userSpaceOnUse">
      <path
         d="M7.597.061C5.079-.187 2.656.302-.01 1.788v1.273c2.783-1.63 5.183-2.009 7.482-1.781 2.298.228 4.497 1.081 6.781 1.938 4.567 1.713 9.551 3.458 15.813-.157l-.004-1.273c-6.44 3.709-10.816 1.982-15.371.273-2.278-.854-4.576-1.75-7.094-2z"
         style="fill:#000;stroke:none"
         id="path73471" />
    </pattern>
  </defs>
  <g
     transform="translate(3813 -4530)"
     style="opacity:1"
     id="g73512">
    <flowRoot
       xml:space="preserve"
       style="font-style:normal;font-variant:normal;font-weight:400;font-stretch:normal;font-size:40px;line-height:1.25;font-family:'MV Boli';-inkscape-font-specification:'MV Boli';letter-spacing:0;word-spacing:0;opacity:1;fill:#000;fill-opacity:1;stroke:none"
       transform="translate(-451.8 -2.874) scale(.2646)"
       id="flowRoot73482"><flowRegion
         id="flowRegion73478"><path
           d="M-2008 4330h1117v792h-1117z"
           id="path73476" /></flowRegion><flowPara
         id="flowPara73480" /></flowRoot>
    <path
       style="opacity:1;fill:none;fill-opacity:1;stroke:#b1b1b1;stroke-width:.245949;stroke-linecap:butt;stroke-linejoin:round;stroke-miterlimit:4;stroke-dasharray:none;stroke-dashoffset:0;stroke-opacity:1;paint-order:normal"
       d="M-3813 4530h65v75h-65z"
       id="path73484" />
    <g
       style="fill:#e6e6e6;fill-opacity:1;stroke:#e6e6e6;stroke-width:1.2512;stroke-miterlimit:4;stroke-dasharray:none;stroke-opacity:1"
       id="g73488">
      <path
         style="opacity:1;fill:#e6e6e6;fill-opacity:1;stroke:#e6e6e6;stroke-width:1.2514;stroke-linecap:butt;stroke-linejoin:miter;stroke-miterlimit:4;stroke-dasharray:none;stroke-opacity:1"
         d="M-281.9 66.46c12.4 0 24.8 0 32.9 5.39 8.1 5.38 12.1 16.98 8.3 34.05-3.9 17-15.9 40.3-13.4 45.9 2.6 5.7 15.9-3.9 33.6-9 17.6-5.1 30.9-1.5 33 4.8 2.1 6.2-4.7 18.2-16.8 24.2-12 6-30.2 7.8-44.2 8.7-13.9.9-23.7.9-33.4 1"
         transform="matrix(.187 0 0 .1927 -3727.569 4530.317)"
         id="path73486" />
    </g>
    <g
       style="fill:#fcb900;fill-opacity:1;stroke:#fcb900;stroke-width:1.2512;stroke-miterlimit:4;stroke-dasharray:none;stroke-opacity:1"
       id="g73492">
      <path
         style="fill:#fcb900;fill-opacity:1;stroke:#fcb900;stroke-width:1.2512;stroke-linecap:butt;stroke-linejoin:miter;stroke-miterlimit:4;stroke-dasharray:none;stroke-opacity:1"
         d="M-281.9 66.46c12.4 0 24.8 0 34.4 4.91 9.6 4.91 17.7 16.76 13.6 34.83-4.2 18.1-19.5 42.3-19.6 48-.2 5.6 11.9-5.3 29.7-11.2 17.7-5.9 32.9-1.9 35.6 4.4 2.8 6.4-4 18.4-16.1 24.4-12 6-30.2 7.8-44.2 8.7-13.9.9-23.7.9-33.4 1"
         transform="matrix(-.187 0 0 .1927 -3832.89 4530.317)"
         id="path73490" />
    </g>
    <path
       d="M-1554 1977c2 15-12 34-29 28-22-10-21-49 3-57 16-3 27 15 26 29z"
       style="opacity:1;fill:#fcb900;fill-opacity:1;stroke:#fcb900;stroke-width:7.035;stroke-linecap:butt;stroke-linejoin:round;stroke-miterlimit:4;stroke-dasharray:none;stroke-dashoffset:0;stroke-opacity:1;paint-order:normal"
       transform="translate(-3535 4229) scale(.1558)"
       id="path73494" />
    <g
       style="fill:#fcb900;fill-opacity:1;stroke:#fcb900;stroke-width:3.5261;stroke-miterlimit:4;stroke-dasharray:none;stroke-opacity:1"
       id="g73502">
      <g
         style="fill:#fcb900;fill-opacity:1;stroke:#fcb900;stroke-width:3.1244;stroke-miterlimit:4;stroke-dasharray:none;stroke-opacity:1"
         id="g73498">
        <path
           style="fill:#fcb900;fill-opacity:1;stroke:#fcb900;stroke-width:3.1244;stroke-linecap:butt;stroke-linejoin:miter;stroke-miterlimit:4;stroke-dasharray:none;stroke-opacity:1"
           d="M-312.2 191.3c-8.1-.8-17.4-2.5-24.7.7-7.3 3.6-9.4 11.7-1.2 15.4 7.3 3.9 17.4 5.5 23.6 10.1 1.5 1.1 1.4 4.1 2.2 1 3-3.7 9.8-5.2 15.2-7.3 6.8-2.2 15-5.4 14.5-10.9.1-4.7-5.1-10-13.4-10.2-5.7-.2-11.4.5-17 1.2"
           transform="matrix(.2765 0 0 .445 -3693.449 4483.961)"
           id="path73496" />
      </g>
      <path
         style="fill:#fcb900;fill-opacity:1;stroke:#fcb900;stroke-width:3.5261;stroke-linecap:butt;stroke-linejoin:miter;stroke-miterlimit:4;stroke-dasharray:none;stroke-opacity:1"
         d="M-267.1 187.1c-2.8 1.9-7.6 8.7-8.2 11.7-.6 3-.3 7.7 1.2 10.5 1.5 2.7 6.8 5.1 11.6 4.5 4.7-.7 11-3.6 15.9-4 5-.4 9.5 2.1 10.3-1.6.7-3.7-1.8-13.6-5.2-18.7-3.4-5.1-10.4-6.4-14.7-6-4.3.3-8.1 1.7-10.9 3.6zM-358.8 187.1c2.7 1.9 7.6 8.7 8.2 11.7.6 3 .3 7.7-1 10.3-1.2 2.5-7.4 4.8-11.6 4-4.1-.9-10-3.5-14.9-3.8-4.9-.4-12.6 2.9-12.4-1.2.2-4.2 2.7-13.8 6.1-18.8 3.4-4.9 10.4-6.2 14.7-5.8 4.3.3 8.1 1.7 10.9 3.6z"
         transform="matrix(.2765 0 0 .3493 -3693.449 4502.429)"
         id="path73500" />
    </g>
    <text
       xml:space="preserve"
       style="font-weight:300;font-size:12.7px;line-height:1.25;font-family:Poppins;-inkscape-font-specification:'Poppins Light';letter-spacing:0;word-spacing:0;fill:#fcb900;fill-opacity:1;stroke-width:0.15;stroke:none;stroke-dasharray:none;stroke-linejoin:round;stroke-linecap:round;stroke-opacity:1"
       x="-3810"
       y="4594"
       id="text73506"><tspan
         style="font-style:normal;font-variant:normal;font-weight:700;font-stretch:normal;font-size:12.7px;font-family:'Source Serif Pro';-inkscape-font-specification:'Source Serif Pro Bold';fill:#fcb900;fill-opacity:1;stroke-width:0.15;stroke:none;stroke-dasharray:none;stroke-linejoin:round;stroke-linecap:round;stroke-opacity:1"
         x="-3810"
         y="4594"
         id="tspan73504">Shivoham</tspan></text>
    <text
       xml:space="preserve"
       style="font-weight:300;font-size:5.2917px;line-height:1.25;font-family:Poppins;-inkscape-font-specification:'Poppins Light';letter-spacing:0;word-spacing:0;fill:#e6e6e6;fill-opacity:1;stroke:none;stroke-width:0.1;stroke-linecap:round;stroke-linejoin:round;stroke-dasharray:none;stroke-opacity:1"
       x="-3809"
       y="4601"
       id="text73510"><tspan
         style="font-style:normal;font-variant:normal;font-weight:500;font-stretch:normal;font-size:5.2917px;font-family:Poppins;-inkscape-font-specification:'Poppins Medium';fill:#e6e6e6;fill-opacity:1;stroke:none;stroke-width:0.1;stroke-linecap:round;stroke-linejoin:round;stroke-dasharray:none;stroke-opacity:1"
         x="-3809"
         y="4601"
         id="tspan73508">Conscious Company</tspan></text>
  </g>
</svg>
