<?xml version="1.0" encoding="UTF-8" standalone="no"?>
<svg
   id="svg8"
   version="1.1"
   viewBox="0 0 350.8 100"
   height="100mm"
   width="350.8mm"
   sodipodi:docname="logo_title_yw.svg"
   inkscape:version="1.2.1 (9c6d41e410, 2022-07-14)"
   inkscape:export-filename="logo_title_yw.webp"
   inkscape:export-xdpi="50.01"
   inkscape:export-ydpi="50.01"
   xmlns:inkscape="http://www.inkscape.org/namespaces/inkscape"
   xmlns:sodipodi="http://sodipodi.sourceforge.net/DTD/sodipodi-0.dtd"
   xmlns:xlink="http://www.w3.org/1999/xlink"
   xmlns="http://www.w3.org/2000/svg"
   xmlns:svg="http://www.w3.org/2000/svg"
   xmlns:rdf="http://www.w3.org/1999/02/22-rdf-syntax-ns#"
   xmlns:cc="http://creativecommons.org/ns#"
   xmlns:dc="http://purl.org/dc/elements/1.1/">
  <sodipodi:namedview
     pagecolor="#cdcdcd"
     bordercolor="#666666"
     borderopacity="1"
     objecttolerance="10"
     gridtolerance="10"
     guidetolerance="10"
     inkscape:pageopacity="0"
     inkscape:pageshadow="2"
     inkscape:window-width="1620"
     inkscape:window-height="1058"
     id="namedview53"
     showgrid="false"
     inkscape:zoom="0.742"
     inkscape:cx="570.1"
     inkscape:cy="136.8"
     inkscape:window-x="-6"
     inkscape:window-y="-6"
     inkscape:window-maximized="1"
     inkscape:current-layer="layer1"
     inkscape:showpageshadow="0"
     inkscape:pagecheckerboard="0"
     inkscape:deskcolor="#a5a5a5"
     inkscape:document-units="mm" />
  <defs
     id="defs2">
    <rect
       x="1643"
       y="529.9"
       width="1582"
       height="892"
       id="rect4847" />
    <rect
       x="76.24"
       y="-183"
       width="1075"
       height="667.1"
       id="rect4835" />
    <marker
       style="overflow:visible"
       id="EmptyDiamondLstart"
       refX="0"
       refY="0"
       orient="auto">
      <path
         transform="matrix(0.8,0,0,0.8,5.6,0)"
         style="fill:#ffffff;fill-opacity:1;fill-rule:evenodd;stroke:#000000;stroke-width:1pt;stroke-opacity:1"
         d="M 0,-7.071 -7.071,0 0,7.071 7.071,0 Z"
         id="path9160" />
    </marker>
    <pattern
       patternUnits="userSpaceOnUse"
       width="30.066020"
       height="5.1805778"
       id="Wavy-6">
      <path
         style="fill:black;stroke:none;"
         d="M 7.597,0.061 C 5.079,-0.187 2.656,0.302 -0.01,1.788 L -0.01,3.061 C 2.773,1.431 5.173,1.052 7.472,1.280 C 9.770,1.508 11.969,2.361 14.253,3.218 C 18.820,4.931 23.804,6.676 30.066,3.061 L 30.062,1.788 C 23.622,5.497 19.246,3.770 14.691,2.061 C 12.413,1.207 10.115,0.311 7.597,0.061 z "
         id="path6786-5" />
    </pattern>
    <pattern
       patternTransform="translate(140.10223,137.48024)"
       id="pattern5326"
       xlink:href="#Wavy-6" />
    <clipPath
       id="clipPath5415"
       clipPathUnits="userSpaceOnUse">
      <rect
         y="2610"
         x="-2828"
         height="59.45"
         width="25.73"
         id="rect5417"
         style="opacity:1;fill:#000000;fill-opacity:1;stroke:#000000;stroke-width:1;stroke-linecap:butt;stroke-linejoin:round;stroke-miterlimit:4;stroke-dasharray:none;stroke-dashoffset:0;stroke-opacity:1;paint-order:normal" />
    </clipPath>
  </defs>
  <metadata
     id="metadata5">
    <rdf:RDF>
      <cc:Work
         rdf:about="">
        <dc:format>image/svg+xml</dc:format>
        <dc:type
           rdf:resource="http://purl.org/dc/dcmitype/StillImage" />
      </cc:Work>
    </rdf:RDF>
  </metadata>
  <g
     style="opacity:1"
     transform="translate(929.6,-2692)"
     id="layer1">
    <flowRoot
       transform="translate(0,-7.406)"
       style="font-style:normal;font-variant:normal;font-weight:normal;font-stretch:normal;font-size:40px;line-height:1.25;font-family:'MV Boli';-inkscape-font-specification:'MV Boli';letter-spacing:0px;word-spacing:0px;fill:#000000;fill-opacity:1;stroke:none"
       id="flowRoot5377"
       xml:space="preserve"><flowRegion
         id="flowRegion5379"><rect
           y="4368"
           x="574.9"
           height="680.6"
           width="144.4"
           id="rect5381" /></flowRegion><flowPara
         id="flowPara5383" /></flowRoot>
    <flowRoot
       transform="matrix(0.2646,0,0,0.2646,-451.8,-10.28)"
       style="font-style:normal;font-variant:normal;font-weight:normal;font-stretch:normal;font-size:40px;line-height:1.25;font-family:'MV Boli';-inkscape-font-specification:'MV Boli';letter-spacing:0px;word-spacing:0px;fill:#000000;fill-opacity:1;stroke:none"
       id="flowRoot5523"
       xml:space="preserve"><flowRegion
         id="flowRegion5525"><rect
           y="4330"
           x="-2008"
           height="792"
           width="1117"
           id="rect5527" /></flowRegion><flowPara
         id="flowPara5529" /></flowRoot>
    <text
       xml:space="preserve"
       style="font-style:normal;font-variant:normal;font-weight:normal;font-stretch:normal;font-size:10.5833px;line-height:1.25;font-family:Sylfaen;-inkscape-font-specification:Sylfaen;letter-spacing:0px;word-spacing:0px;fill:#000000;fill-opacity:1;stroke:none;stroke-width:0.2646"
       x="-1390"
       y="1799"
       id="text5050"><tspan
         id="tspan5048"
         x="-1390"
         y="1808"
         style="font-style:normal;font-variant:normal;font-weight:normal;font-stretch:normal;font-size:50.8px;font-family:'Yu Gothic';-inkscape-font-specification:'Yu Gothic';fill:#000000;stroke-width:0.2646" /></text>
    <flowRoot
       transform="translate(0,-7.406)"
       style="font-style:normal;font-variant:normal;font-weight:normal;font-stretch:normal;font-size:40px;line-height:1.25;font-family:'Segoe Script';-inkscape-font-specification:'Segoe Script';letter-spacing:0px;word-spacing:0px;fill:#000000;fill-opacity:1;stroke:none"
       id="flowRoot5050"
       xml:space="preserve"><flowRegion
         id="flowRegion5052"><rect
           y="-7832"
           x="-2375"
           height="2931"
           width="2511"
           id="rect5054" /></flowRegion><flowPara
         id="flowPara5056" /></flowRoot>
    <text
       id="text5093"
       y="2108"
       x="-1199"
       style="font-style:normal;font-variant:normal;font-weight:normal;font-stretch:normal;font-size:10.5833px;line-height:1.25;font-family:'Segoe Script';-inkscape-font-specification:'Segoe Script';letter-spacing:0px;word-spacing:0px;fill:#000000;fill-opacity:1;stroke:none;stroke-width:0.2646"
       xml:space="preserve"><tspan
         style="stroke-width:0.2646"
         y="2117"
         x="-1199"
         id="tspan5091" /></text>
    <text
       id="text5226"
       y="2763"
       x="-1026"
       style="font-style:normal;font-variant:normal;font-weight:normal;font-stretch:normal;font-size:10.5833px;line-height:1.25;font-family:'Segoe Script';-inkscape-font-specification:'Segoe Script';letter-spacing:0px;word-spacing:0px;fill:#000000;fill-opacity:1;stroke:none;stroke-width:0.2646"
       xml:space="preserve"><tspan
         style="stroke-width:0.2646"
         y="2772"
         x="-1026"
         id="tspan5224" /><tspan
         id="tspan5228"
         style="stroke-width:0.2646"
         y="2786"
         x="-1026" /></text>
    <text
       id="text5269"
       y="2181"
       x="-3086"
       style="font-style:normal;font-variant:normal;font-weight:normal;font-stretch:normal;font-size:10.5833px;line-height:1.25;font-family:'Segoe Script';-inkscape-font-specification:'Segoe Script';letter-spacing:0px;word-spacing:0px;fill:#000000;fill-opacity:1;stroke:none;stroke-width:0.2646"
       xml:space="preserve"><tspan
         id="tspan5273"
         style="stroke-width:0.2646"
         y="2190"
         x="-3086" /></text>
    <g
       transform="matrix(0.2516,0,0,0.2513,-494.3,2217)"
       id="g8647"
       style="stroke-width:1.48461">
      <g
         id="g4978"
         transform="matrix(1.2,0,0,1.237,-1236,1934)"
         style="fill:#e6e6e6;fill-opacity:1;stroke:#e6e6e6;stroke-width:1.8574;stroke-miterlimit:4;stroke-dasharray:none;stroke-opacity:1">
        <g
           id="g4976"
           style="fill:#e6e6e6;fill-opacity:1;stroke:#e6e6e6;stroke-width:1.8574;stroke-miterlimit:4;stroke-dasharray:none;stroke-opacity:1">
          <path
             style="opacity:1;fill:#e6e6e6;fill-opacity:1;stroke:#e6e6e6;stroke-width:1.8574;stroke-linecap:butt;stroke-linejoin:miter;stroke-miterlimit:4;stroke-dasharray:none;stroke-opacity:1"
             id="path4974"
             d="m -281.9,66.46 c 12.4,0 24.8,0 32.9,5.39 8.1,5.38 12.1,16.98 8.3,34.05 -3.9,17 -15.9,40.3 -13.4,45.9 2.6,5.7 15.9,-3.9 33.6,-9 17.6,-5.1 30.9,-1.5 33,4.8 2.1,6.2 -4.7,18.2 -16.8,24.2 -12,6 -30.2,7.8 -44.2,8.7 -13.9,0.9 -23.7,0.9 -33.4,1" />
        </g>
      </g>
      <g
         style="fill:#fcb900;fill-opacity:1;stroke:#fcb900;stroke-width:1.85759;stroke-miterlimit:4;stroke-dasharray:none;stroke-opacity:1"
         transform="matrix(-1.2,0,0,1.237,-1912,1934)"
         id="g4984">
        <g
           style="fill:#fcb900;fill-opacity:1;stroke:#fcb900;stroke-width:1.85759;stroke-miterlimit:4;stroke-dasharray:none;stroke-opacity:1"
           id="g4982">
          <path
             style="fill:#fcb900;fill-opacity:1;stroke:#fcb900;stroke-width:1.85759;stroke-linecap:butt;stroke-linejoin:miter;stroke-miterlimit:4;stroke-dasharray:none;stroke-opacity:1"
             id="path4980"
             d="m -281.9,66.46 c 12.4,0 24.8,0 34.4,4.91 9.6,4.91 17.7,16.76 13.6,34.83 -4.2,18.1 -19.5,42.3 -19.6,48 -0.2,5.6 11.9,-5.3 29.7,-11.2 17.7,-5.9 32.9,-1.9 35.6,4.4 2.8,6.4 -4,18.4 -16.1,24.4 -12,6 -30.2,7.8 -44.2,8.7 -13.9,0.9 -23.7,0.9 -33.4,1" />
        </g>
      </g>
      <path
         id="path4986"
         d="m -1554,1977 c 2,15 -12,34 -29,28 -22,-10 -21,-49 3,-57 16,-3 27,15 26,29 z"
         style="opacity:1;fill:#fcb900;fill-opacity:1;stroke:#fcb900;stroke-width:10.4445;stroke-linecap:butt;stroke-linejoin:round;stroke-miterlimit:4;stroke-dasharray:none;stroke-dashoffset:0;stroke-opacity:1;paint-order:normal" />
      <g
         id="g4996"
         transform="matrix(1.775,0,0,2.242,-1017,1755)"
         style="fill:#fcb900;fill-opacity:1;stroke:#fcb900;stroke-width:5.23499;stroke-miterlimit:4;stroke-dasharray:none;stroke-opacity:1">
        <g
           id="g4990"
           transform="matrix(1,0,0,1.274,-6.248e-6,-52.87)"
           style="fill:#fcb900;fill-opacity:1;stroke:#fcb900;stroke-width:4.63861;stroke-miterlimit:4;stroke-dasharray:none;stroke-opacity:1">
          <path
             style="fill:#fcb900;fill-opacity:1;stroke:#fcb900;stroke-width:4.63861;stroke-linecap:butt;stroke-linejoin:miter;stroke-miterlimit:4;stroke-dasharray:none;stroke-opacity:1"
             d="m -312.2,191.3 c -8.1,-0.8 -17.4,-2.5 -24.7,0.7 -7.3,3.6 -9.4,11.7 -1.2,15.4 7.3,3.9 17.4,5.5 23.6,10.1 1.5,1.1 1.4,4.1 2.2,1 3,-3.7 9.8,-5.2 15.2,-7.3 6.8,-2.2 15,-5.4 14.5,-10.9 0.1,-4.7 -5.1,-10 -13.4,-10.2 -5.7,-0.2 -11.4,0.5 -17,1.2"
             id="path4988" />
        </g>
        <path
           style="fill:#fcb900;fill-opacity:1;stroke:#fcb900;stroke-width:5.23499;stroke-linecap:butt;stroke-linejoin:miter;stroke-miterlimit:4;stroke-dasharray:none;stroke-opacity:1"
           id="path4992"
           d="m -267.1,187.1 c -2.8,1.9 -7.6,8.7 -8.2,11.7 -0.6,3 -0.3,7.7 1.2,10.5 1.5,2.7 6.8,5.1 11.6,4.5 4.7,-0.7 11,-3.6 15.9,-4 5,-0.4 9.5,2.1 10.3,-1.6 0.7,-3.7 -1.8,-13.6 -5.2,-18.7 -3.4,-5.1 -10.4,-6.4 -14.7,-6 -4.3,0.3 -8.1,1.7 -10.9,3.6 z" />
        <path
           style="fill:#fcb900;fill-opacity:1;stroke:#fcb900;stroke-width:5.23499;stroke-linecap:butt;stroke-linejoin:miter;stroke-miterlimit:4;stroke-dasharray:none;stroke-opacity:1"
           id="path4994"
           d="m -358.8,187.1 c 2.7,1.9 7.6,8.7 8.2,11.7 0.6,3 0.3,7.7 -1,10.3 -1.2,2.5 -7.4,4.8 -11.6,4 -4.1,-0.9 -10,-3.5 -14.9,-3.8 -4.9,-0.4 -12.6,2.9 -12.4,-1.2 0.2,-4.2 2.7,-13.8 6.1,-18.8 3.4,-4.9 10.4,-6.2 14.7,-5.8 4.3,0.3 8.1,1.7 10.9,3.6 z" />
      </g>
    </g>
    <g
       aria-label="with Nanda"
       style="font-style:normal;font-weight:normal;font-size:50.8px;line-height:1.25;font-family:sans-serif;letter-spacing:0px;word-spacing:0px;fill:#e6e6e6;fill-opacity:1;stroke:#e6e6e6;stroke-width:0.265;stroke-opacity:1;stroke-dasharray:none;stroke-linejoin:round;stroke-linecap:round"
       id="text8655"
       transform="translate(-55.56,109.2)">
      <text
         xml:space="preserve"
         style="font-weight:600;font-size:23.9889px;line-height:1.25;font-family:Poppins;-inkscape-font-specification:'Poppins Semi-Bold';letter-spacing:0px;word-spacing:0px;stroke-width:0.265;fill:#e6e6e6;fill-opacity:1;stroke:#e6e6e6;stroke-opacity:1;stroke-dasharray:none;stroke-linejoin:round;stroke-linecap:round"
         x="-785.8"
         y="2670"
         id="text4462"><tspan
           sodipodi:role="line"
           id="tspan4460"
           style="font-size:23.9889px;stroke-width:0.265;fill:#e6e6e6;fill-opacity:1;stroke:#e6e6e6;stroke-opacity:1;stroke-dasharray:none;stroke-linejoin:round;stroke-linecap:round"
           x="-785.8"
           y="2670">Conscious Company</tspan></text>
      <text
         xml:space="preserve"
         transform="matrix(0.2646,0,0,0.2646,-874,2583)"
         id="text4833"
         style="font-weight:600;font-size:42.6667px;line-height:1.25;font-family:Poppins;-inkscape-font-specification:'Poppins Semi-Bold';letter-spacing:0px;word-spacing:0px;white-space:pre;shape-inside:url(#rect4835);display:inline;fill:#e6e6e6;fill-opacity:1;stroke:#e6e6e6;stroke-width:1.0015;stroke-linecap:round;stroke-linejoin:round;stroke-dasharray:none;stroke-opacity:1" />
      <text
         xml:space="preserve"
         transform="matrix(0.2646,0,0,0.2646,-874,2583)"
         id="text4845"
         style="font-weight:600;font-size:42.6667px;line-height:1.25;font-family:Poppins;-inkscape-font-specification:'Poppins Semi-Bold';letter-spacing:0px;word-spacing:0px;white-space:pre;shape-inside:url(#rect4847);display:inline;fill:#e6e6e6;fill-opacity:1;stroke:#e6e6e6;stroke-width:1.0015;stroke-linecap:round;stroke-linejoin:round;stroke-dasharray:none;stroke-opacity:1" />
    </g>
    <g
       aria-label="HATHA YOGA "
       style="font-style:normal;font-weight:normal;font-size:10.5833px;line-height:1.25;font-family:sans-serif;letter-spacing:0px;word-spacing:0px;fill:#fcb900;fill-opacity:1;stroke:#fcb900;stroke-width:0.3;stroke-opacity:1;stroke-dasharray:none;stroke-linejoin:round;stroke-linecap:round"
       id="text8663"
       transform="translate(-64.41,-24.26)">
      <text
         xml:space="preserve"
         style="font-weight:600;font-size:56.4444px;line-height:1.25;font-family:Poppins;-inkscape-font-specification:'Poppins Semi-Bold';letter-spacing:0px;word-spacing:0px;stroke-width:0.3;stroke:#fcb900;stroke-opacity:1;stroke-dasharray:none;stroke-linejoin:round;stroke-linecap:round"
         x="-779.9"
         y="2773"
         id="text4458"><tspan
           sodipodi:role="line"
           id="tspan4456"
           style="font-style:normal;font-variant:normal;font-weight:bold;font-stretch:normal;font-family:'Source Serif Pro';-inkscape-font-specification:'Source Serif Pro Bold';stroke-width:0.3;font-size:56.4444px;stroke:#fcb900;stroke-opacity:1;stroke-dasharray:none;stroke-linejoin:round;stroke-linecap:round"
           x="-779.9"
           y="2773">Shivoham</tspan></text>
    </g>
    <text
       id="text5006"
       y="2959"
       x="-598.6"
       style="font-style:normal;font-variant:normal;font-weight:normal;font-stretch:normal;font-size:22.5778px;line-height:1.25;font-family:sans-serif;-inkscape-font-specification:sans-serif;letter-spacing:0px;word-spacing:0px;fill:#000000;fill-opacity:1;stroke:none;stroke-width:0.2646"
       xml:space="preserve"><tspan
         style="stroke-width:0.2646"
         y="2979"
         x="-598.6"
         id="tspan5004" /></text>
    <g
       aria-label="with Nanda"
       style="font-style:normal;font-weight:normal;font-size:50.8px;line-height:1.25;font-family:sans-serif;letter-spacing:0px;word-spacing:0px;fill:#b1b1b1;fill-opacity:1;stroke:#b1b1b1;stroke-width:0.2646;stroke-opacity:1"
       id="text4827" />
  </g>
</svg>
