<?xml version="1.0" encoding="UTF-8" standalone="no"?>
<!-- Created with Inkscape (http://www.inkscape.org/) -->

<svg
   width="155.6mm"
   height="270.9mm"
   viewBox="0 0 155.6 270.9"
   version="1.1"
   id="svg5"
   xml:space="preserve"
   sodipodi:docname="lotus-min.svg"
   inkscape:version="1.2.1 (9c6d41e410, 2022-07-14)"
   xmlns:inkscape="http://www.inkscape.org/namespaces/inkscape"
   xmlns:sodipodi="http://sodipodi.sourceforge.net/DTD/sodipodi-0.dtd"
   xmlns="http://www.w3.org/2000/svg"
   xmlns:svg="http://www.w3.org/2000/svg"><sodipodi:namedview
     id="namedview7"
     pagecolor="#505050"
     bordercolor="#eeeeee"
     borderopacity="1"
     inkscape:showpageshadow="0"
     inkscape:pageopacity="0"
     inkscape:pagecheckerboard="0"
     inkscape:deskcolor="#505050"
     inkscape:document-units="mm"
     showgrid="false"
     inkscape:zoom="0.7825"
     inkscape:cx="288.8"
     inkscape:cy="510.6"
     inkscape:window-width="1620"
     inkscape:window-height="1058"
     inkscape:window-x="-6"
     inkscape:window-y="-6"
     inkscape:window-maximized="1"
     inkscape:current-layer="layer1" /><defs
     id="defs2" /><g
     inkscape:label="Layer 1"
     inkscape:groupmode="layer"
     id="layer1"
     transform="translate(-96.49,-12.05)"><path
       style="fill:#e6e6e6;stroke-width:0.264544;fill-opacity:1"
       d="m 128.6,282.8 c -0.3,-0.3 -0.1,-1.9 0.3,-2.4 0.7,-0.8 3.9,-7.2 3.7,-7.4 -0.1,0 -1.9,1 -4,2.3 -2.1,1.3 -4.1,2.4 -4.3,2.4 -0.9,0 0.4,-1.1 5.1,-4.5 2.7,-1.9 5,-3.8 5.1,-4.1 0.1,-0.3 0.6,-1.3 1,-2.2 3.8,-8.2 11.9,-29.1 11.2,-29.1 -0.4,0 -5.8,7.1 -9.8,13.1 -5.2,7.7 -8.6,13.7 -10.7,18.8 -1.4,3.4 -2.8,5.8 -4.4,7.5 -1.1,1.3 -2.7,2.4 -3.1,2.4 -0.4,-0.3 0.6,-3.6 1.4,-5.4 0.4,-0.8 1.6,-2.7 2.7,-4.3 2,-3 4.5,-7.4 8,-13.9 2.8,-5.1 5.9,-9.5 12.2,-17.2 2.4,-2.8 5.5,-6.9 5.5,-7.1 0,-0.1 0.3,-1.6 0.6,-3.3 0.5,-3.3 0.6,-5.2 0.3,-5.2 -0.5,0.1 -3.8,0.9 -5.8,1.5 -7,2.3 -12.7,7 -19.1,15.6 -3.8,5.1 -3.5,4.3 -3.5,7.8 0,3.5 -0.4,7.5 -0.8,8.4 -0.2,0.4 -0.6,0.7 -0.8,0.8 -0.7,0.1 -0.9,-1.8 -0.6,-5.8 0.2,-2.5 0.2,-3.3 0,-3.1 -0.2,0.1 -0.9,1.1 -1.6,2.3 -1.3,2 -1.3,2.1 -2.1,7.1 -1.5,8.7 -2.6,13.8 -3,14.2 -0.3,0.3 -0.5,0.4 -1,0.1 -0.4,-0.1 -0.7,-0.4 -0.7,-0.6 0,-0.2 0.6,-2.7 1.2,-5.6 2.2,-9.7 3.7,-19.1 4.7,-28.1 0.7,-7.2 0.7,-8.3 0,-10 -1.2,-2.9 -3.3,-6.9 -5.2,-9.8 -2.2,-3.2 -2.9,-4.1 -3.2,-3.5 -0.7,2.1 -3.7,16.5 -4.1,20 -0.6,5.4 -0.1,9.3 1.9,15.2 1.6,4.9 2.5,9.1 3.1,14.9 0.4,4.8 0.3,7.5 -0.4,7.8 -0.6,0.2 -0.6,0 -0.8,-2 -0.3,-5.8 -2.4,-16.3 -4.1,-21.1 -1.2,-3.3 -1.6,-6.4 -1.6,-11.5 0,-6 0.4,-8.6 2.8,-16.9 2.4,-8.7 2.4,-8.3 1.1,-9.7 -1,-1 -0.7,-0.9 0.6,0.2 0.5,0.5 0.6,0.5 0.7,0 0.5,-1.6 1,-6.4 1,-9.8 0,-11.5 -1.4,-17.1 -5.8,-23.8 -0.9,-1.4 -1.5,-2.5 -1.4,-2.5 0.5,0 3.2,3.3 4.2,5 2.9,4.9 3.6,8.7 4.2,21.6 l 0.2,4 0.7,-2.3 c 0.4,-1.2 1.5,-4.6 2.4,-7.5 l 1.7,-5.3 -1,-3.4 c -1.6,-5.5 -3,-9 -5.7,-13.4 -2.7,-4.7 -5,-7.6 -9.26,-12 -2.7,-2.7 -2.4,-2.9 0.6,-0.5 2.76,2.3 6.86,6.8 8.86,9.7 2,3.1 4.7,8.3 6.4,12.4 0.6,1.6 1.1,2.8 1.2,2.8 0,-0.1 1.5,-4.5 3.3,-9.9 l 3.4,-9.9 -1.7,-1.1 c -2,-1.4 -3.1,-1.8 -4.9,-1.8 -1.2,0 -1.3,-0.1 -1.3,-0.6 0,-0.2 0.7,-1.7 1.7,-3.1 1.3,-1.9 2.1,-2.8 3,-3.4 1.3,-0.8 3.6,-1.5 4.5,-1.3 0.8,0.2 1.3,-0.6 1.3,-2.2 0.3,-10.1 2.5,-25.2 5.6,-37.9 l 1,-4.2 -1.1,-4.1 c -1.8,-6.5 -3.8,-14.56 -4.2,-17.18 -1.2,-6.8 -1.3,-16.88 -0.2,-30.03 0.2,-3.57 0.4,-6.5 0.4,-6.56 0,0 -0.7,0.24 -1.5,0.61 -2.8,1.27 -8.6,2.01 -11.5,1.48 -3.4,-0.63 -7.2,-3.3 -9.5,-6.66 -0.5,-0.8 -1.6,-3.05 -2.5,-5 -0.9,-1.96 -1.76,-3.68 -1.86,-3.81 -0.1,-0.16 -0.2,-0.35 -0.2,-0.43 0,-0.1 2.96,-0.13 6.66,-0.13 6.5,0 6.7,0 8.6,0.72 2.5,0.84 4.5,2.03 5.9,3.33 0.8,0.74 1,0.85 0.9,0.45 -0.1,-0.29 -0.5,-1.54 -0.9,-2.78 -0.6,-1.98 -0.7,-2.68 -0.7,-6.08 0,-4.93 0.7,-7.54 2.7,-9.86 0.6,-0.68 0.7,-0.98 0.5,-1.34 -0.1,-0.26 -0.2,-0.66 -0.1,-0.89 0.2,-0.36 0.3,-0.36 0.8,0 0.7,0.41 0.7,0.4 1.4,-0.96 1.2,-2.24 2.1,-3.52 3.8,-5 0.9,-0.77 1.6,-1.52 1.6,-1.68 0,-0.16 0.2,-0.52 0.4,-0.8 0.4,-0.49 0.4,-0.49 0.8,-0.1 0.4,0.56 0.7,0.3 1.3,-1.21 0.5,-1.15 1.1,-1.26 1.3,-0.25 0.1,0.4 0.6,1.11 1,1.58 0.6,0.66 1,0.81 1.5,0.7 0.6,-0.11 0.8,0 1,0.48 0.2,0.34 0.8,1.21 1.4,1.93 1.4,1.79 3.8,6.45 4.5,8.87 0.4,1.1 0.9,2.4 1.3,2.91 0.8,1.21 1.6,3.99 1.6,5.46 0,0.63 0.1,1.16 0.1,1.16 0.1,0 0.7,-0.24 1.3,-0.53 2.4,-1.03 6.1,-0.98 8.8,0.12 l 1,0.43 -0.9,0.94 c -0.4,0.52 -0.7,0.99 -0.7,1.06 0.1,0.1 0.7,0 1.3,-0.16 1.8,-0.42 7.3,-0.34 8.9,0.13 l 1.4,0.4 -0.6,1.44 c -1.6,3.47 -4.1,6.25 -7.3,7.81 -2.8,1.43 -5,1.9 -9.2,2.03 -5.3,0.16 -5.2,0.1 -3.3,1.88 1.2,1.19 1.6,1.83 2,3.07 1.5,5.03 -2.3,9.82 -7.6,9.34 -3.5,-0.32 -8.7,-3.89 -11.5,-7.88 -1.2,-1.86 -1.3,-1.88 -1.5,-1.14 -0.1,0.42 -0.4,4.63 -0.7,9.36 -1,14.95 -0.5,21.75 2.9,35.85 0.6,2.32 1.1,4.62 1.2,5.02 0.1,0.5 0.3,1 0.4,1 0.1,0.1 0.5,-1 0.9,-2.4 4.3,-15.45 10,-26.66 18.8,-36.82 2.8,-3.15 7.3,-7.51 10.2,-9.9 3.8,-3.04 10,-6.95 14.4,-9.15 3.8,-1.88 9.1,-4.07 9.3,-3.86 0.1,0 -1,0.55 -2.3,1.16 -6.1,2.81 -14,7.89 -20.7,13.52 -4.7,3.89 -5.9,5.03 -8.8,8.33 -8.1,9.34 -15,23.42 -20.2,41.22 l -0.6,2 1.6,5.1 c 0.9,2.8 2.4,7.4 3.3,10.2 l 1.7,5 3.3,-0.1 c 1.8,-0.1 3.3,-0.1 3.4,-0.2 0,-0.1 -0.1,-1 -0.4,-2 -1.3,-5.4 -0.6,-12 1.9,-17.5 0.8,-1.9 0.9,-2.2 0.7,-3.6 -0.1,-1.6 -0.1,-1.6 0.5,-1.6 0.4,0 0.8,0.3 1.2,0.8 0.3,0.4 2.1,1.8 4.1,3.1 3.9,2.5 5.9,4.3 7.4,6.5 1.2,1.8 2.6,4.8 3.2,6.8 0.5,1.6 0.4,2.1 -0.1,0.6 -0.6,-1.7 -2.3,-5.1 -3.5,-6.6 -1.4,-1.9 -3.3,-3.4 -6.7,-5.4 -1.6,-0.9 -3.2,-1.9 -3.6,-2.2 -0.8,-0.5 -1.3,-0.4 -1.3,0.3 0,0.3 -0.3,0.9 -0.6,1.5 -0.4,0.5 -1,1.7 -1.3,2.7 -2.1,6 -2.1,13 0.1,19.7 0.8,2.3 0.4,2.2 -0.4,-0.1 l -0.8,-2 H 145 c -3.1,0 -5.2,0.5 -7.3,2 -2.2,1.4 -2.6,1.4 -4.3,-0.5 -1.3,-1.4 -1.8,-1.5 -2.3,-0.9 -0.5,0.6 0.1,1.7 2.8,5.6 l 1.9,2.8 1.8,0.1 c 1.1,0 2.5,0.3 3.6,0.7 1.9,0.7 5,2.4 5.5,3 0.4,0.4 1,0.5 1,0.1 0,-0.1 0.3,-0.3 0.6,-0.4 0.5,-0.1 0.5,-0.2 -0.4,-0.7 -0.5,-0.2 -1.3,-0.5 -1.7,-0.5 -0.9,0 -1.3,-0.4 -0.8,-0.9 0.4,-0.6 1.3,-0.5 1.5,0.1 0,0.2 0.9,0.9 1.9,1.3 l 1.7,0.9 -0.7,-0.8 c -0.5,-0.5 -1,-0.8 -1.3,-0.8 -0.7,0 -0.9,-0.8 -0.4,-1.2 0.4,-0.3 0.3,-0.5 -0.8,-1.7 -0.7,-0.8 -1.4,-1.4 -1.7,-1.4 -0.4,0 -0.5,-0.1 -0.4,-0.5 0.1,-0.8 1.1,-0.9 1.2,-0.1 0.1,1 1.2,1.8 2.4,1.7 0.9,0 1.1,0 1.3,0.6 0.2,0.6 3.5,3.1 3.5,2.6 0,-0.4 -2,-2.1 -2.5,-2.2 -0.3,-0.1 -0.6,-0.4 -0.7,-0.7 -0.1,-0.5 -0.5,-0.8 -1,-1.1 -0.9,-0.4 -1.1,-0.8 -0.5,-1.3 0.5,-0.4 1.2,-0.2 1.2,0.5 0,0.5 0.5,1 1.2,1.1 0.3,0.1 0.6,0.4 0.7,0.9 0.1,0.4 0.7,1.2 1.2,1.7 l 1,0.9 -1.3,-2.2 c -0.8,-1.3 -1.6,-2.3 -1.9,-2.4 -0.6,-0.3 -0.8,-1.2 -0.3,-1.5 0.4,-0.2 0.3,-0.6 -0.3,-0.6 -0.3,0 -0.5,-0.2 -0.6,-0.3 -0.2,-0.6 0.3,-1.3 0.9,-1.3 0.5,0 0.6,0.3 0.5,1 0,0.4 3.7,6.4 4,6.4 0.1,0 0,-0.5 -0.3,-1.1 -0.3,-0.6 -0.7,-1.6 -1,-2.1 -0.2,-0.5 -0.6,-1 -0.9,-1.1 -0.6,-0.2 -0.6,-0.8 -0.1,-1.2 0.6,-0.6 1.2,-0.2 1.1,0.8 0,0.5 0.4,1.6 0.9,2.5 0.8,1.6 1,1.9 1.4,1.5 0.2,-0.2 -0.8,-2.1 -1.3,-2.3 -0.3,-0.1 -0.4,-0.4 -0.3,-0.9 0.2,-0.9 -0.5,-2.1 -1.6,-2.4 -0.6,-0.3 -0.8,-0.9 -0.3,-1.2 0.1,-0.1 0.5,-0.1 0.9,0 0.5,0.1 0.7,0.3 0.7,0.8 0,0.4 0.3,1.1 0.7,1.7 0.4,0.5 1.1,1.5 1.5,2.2 0.8,1.1 1.2,1.5 1.2,1 0,-0.7 -2,-4.8 -2.6,-5.2 -0.5,-0.5 -0.6,-0.6 -0.2,-0.9 0.7,-0.6 1.3,-0.3 1.3,0.8 0,0.8 0.1,0.9 1,0.9 0.8,0 0.9,0.1 0.8,0.6 0,0.3 0.3,1.2 0.7,1.9 0.9,1.5 0.8,1.5 1,1.2 0.1,0 -0.2,-1.2 -0.6,-2.6 -0.7,-2 -1,-2.5 -1.5,-2.6 -0.4,-0.2 -0.5,-0.3 -0.2,-0.6 0.5,-0.6 1.5,-0.4 1.5,0.1 -0.1,0.3 0.1,0.4 0.7,0.3 0.8,-0.1 1.1,0.3 0.7,1 -0.2,0.3 -0.1,0.8 0.4,2.1 0.9,2.5 1.3,2.5 1.1,-0.1 -0.2,-2.9 -0.3,-3.3 -0.8,-3.2 -0.4,0 -0.6,-0.4 -1,-1.7 -0.3,-0.9 -0.7,-1.8 -0.9,-2 -0.4,-0.3 -0.4,-0.4 0,-0.8 0.5,-0.5 1.1,-0.2 0.9,0.5 -0.1,0.3 0,1 0.3,1.7 0.3,1 0.5,1.1 1.1,1.1 0.8,0 1.4,0.6 0.9,0.8 -0.7,0.2 -0.4,0.8 0.3,0.6 0.5,-0.1 0.7,-0.2 0.7,-0.9 0,-0.4 -0.2,-1.2 -0.5,-1.7 -0.3,-0.8 -0.4,-0.9 -0.1,-1.1 0.2,-0.2 0.6,-0.1 0.9,0 0.4,0.2 0.4,0.3 0.2,0.7 -0.3,0.3 -0.3,1.5 0.1,3.6 0.1,0.2 0.1,0.8 0.1,1.3 l 0.1,1.1 0.6,-0.7 c 0.7,-0.6 0.7,-0.7 0.5,-2.3 -0.1,-1.1 -0.3,-1.8 -0.5,-2 -0.5,-0.3 -0.2,-0.7 0.4,-0.7 0.5,0 0.5,0.2 0.5,1.9 0,1 0.1,1.8 0.2,1.8 0.4,0 1.2,-1.8 1.2,-2.6 0,-0.4 -0.2,-0.9 -0.4,-1.1 -0.5,-0.4 -0.3,-0.8 0.5,-0.8 0.7,0 0.9,0.6 0.4,1 -0.5,0.2 -0.3,2.1 0.3,2.6 0.5,0.5 0.5,0.5 0.5,-0.2 0,-0.4 -0.1,-1.4 -0.2,-2.3 -0.1,-1.4 -0.2,-1.6 -0.8,-1.7 -0.9,-0.3 -0.7,-1.1 0.3,-1.1 0.7,0 0.8,0.1 0.8,0.9 0.1,2.8 0.5,5.4 1,5.9 0.5,0.4 0.5,0.3 0.5,-2.8 0,-1.9 -0.1,-3.3 -0.3,-3.4 -0.4,-0.3 -0.3,-0.6 0.3,-0.8 0.3,-0.1 0.7,0 0.9,0.2 0.4,0.3 0.4,0.4 0,0.7 -0.3,0.4 -0.4,1.3 -0.4,3.8 -0.1,2.9 0,3.3 0.3,3.4 0.4,0 0.5,-0.2 0.5,-2 0,-1.2 -0.1,-2.2 -0.3,-2.4 -0.4,-0.4 -0.1,-0.9 0.6,-0.9 0.6,0 0.9,0.5 0.5,0.9 -0.1,0.2 -0.4,1.4 -0.4,2.7 -0.2,2.2 -0.2,2.4 0.3,2.9 0.6,0.5 0.6,0.5 1.4,-1.3 0.5,-1 0.8,-2 0.6,-2.3 0,-0.4 0,-0.5 0.3,-0.7 0.6,-0.2 1,-1.8 0.8,-2.7 -0.1,-0.8 -0.1,-0.8 0.4,-0.8 0.3,0 0.6,0 0.6,-0.1 0,-0.1 -0.2,-1.3 -0.5,-2.8 -0.4,-2.8 -0.3,-5 0.3,-7.5 0.6,-2 2.1,-3.6 4,-4.3 1.4,-0.5 1.4,-0.5 1.6,-1.7 0.2,-1.3 1,-3.3 1.6,-4 0.5,-0.6 0.4,-0.6 -1.2,-0.2 -2.6,0.6 -5.6,2.5 -8.1,5 -2.8,2.9 -4.8,6.3 -6.4,10.8 -0.7,2 -0.8,2.3 -0.7,1.4 0.2,-1.7 1.3,-4.9 2.4,-7 3.1,-6.2 8.2,-10.4 14.5,-12 1,-0.3 2.2,-0.7 2.6,-1 0.9,-0.6 1.5,-0.4 1.5,0.5 0,0.3 -0.4,3.8 -0.8,7.8 -0.4,4 -0.8,7.4 -0.8,7.5 0,0.1 0.7,-0.5 1.6,-1.5 1.8,-2 4.3,-3.4 7,-4 2.4,-0.6 8.8,-0.7 11.3,-0.2 2.9,0.6 3.4,1.9 1.1,2.7 l -1.2,0.3 v 3.4 c 0,4.4 -0.5,8 -1.5,10.7 -0.6,1.4 -0.5,0.6 0,-1.5 0.5,-1.8 0.6,-3.1 0.6,-7.7 0,-3 0,-5.5 -0.1,-5.6 -0.4,-0.2 -1.9,1.2 -2.4,2.4 -0.5,0.8 -0.6,1.5 -0.6,2.7 v 1.7 h -0.8 c -1.1,0 -2,0.5 -3.6,2.2 -1.3,1.3 -1.4,1.4 -0.8,1.6 0.4,0.1 0.9,0.1 1.1,0.1 0.3,0 0.9,0.2 1.4,0.5 1.1,0.5 1.2,1.2 0.3,2.2 -1,1 -2,3.2 -2.7,6 -0.3,1.4 -0.6,2.7 -0.6,2.8 0,0.2 1,-0.7 2.2,-1.9 3.4,-3.4 5.6,-4.6 8.8,-5 2.8,-0.3 6.8,1.2 9,3.4 1.3,1.3 1.4,2 0.5,2.9 -0.7,0.6 -0.7,0.7 -0.7,4.4 0,4.1 -0.2,6 -1.2,8.9 -0.8,2.5 -1.6,3.6 -3.7,5.3 -3.5,2.7 -6,4.2 -9.1,5.2 -1,0.3 -1.9,0.6 -2,0.7 -0.2,0 0.3,0.7 1,1.5 1.5,1.5 3,4.2 3.7,6.5 0.2,0.8 0.7,3.3 1.1,5.5 0.4,2.2 0.9,4.7 1.2,5.3 0.3,0.8 0.5,1.6 0.5,2 -0.1,0.5 -0.2,0.6 -1.8,0.6 -1,0 -3,0.3 -4.5,0.6 -1.5,0.3 -3.8,0.6 -5,0.7 -7.3,0.6 -16,-3.1 -23.1,-9.6 -1.2,-1.1 -2.1,-1.9 -2.2,-1.9 0,0.1 0.6,1.7 1.3,3.7 0.8,2 1.5,4.1 1.6,4.8 0.5,3.1 -1.4,10.8 -4.8,19.3 -1.4,3.5 -5.6,12.4 -7.4,15.4 -0.6,1.1 -1.2,2.1 -1.2,2.1 0,0.1 0.4,0.2 0.7,0.3 1.4,0.4 7,3.2 10.6,5.3 5,3 5.4,3.4 1.4,1.4 -1.8,-1 -4.3,-2.1 -5.6,-2.7 -2.4,-0.9 -7.1,-2.2 -7.9,-2.2 -0.2,0 -0.8,0.6 -1.4,1.5 -1.8,2.7 -4.2,5.7 -5.8,7.3 l -1.6,1.6 -1.4,4.6 c -1.9,6.2 -4.9,15 -7.4,22 -1.2,3.1 -2.1,5.7 -2,5.8 0.1,0.2 10.2,-6.5 14.2,-9.5 2.8,-2 2.5,-1.8 5.3,-4.9 12.9,-14.4 21,-20.6 33,-25.4 3.4,-1.3 10.8,-3.6 13.5,-4.1 1.8,-0.3 1.9,-0.5 3.3,-2 3.4,-4 6.3,-8.7 7.2,-12.3 0.5,-2.1 1,-5.8 0.7,-5.8 -0.1,0 -0.8,0.3 -1.7,0.8 -0.8,0.4 -2.4,1 -3.5,1.4 -1.1,0.4 -3,1.3 -4.3,1.9 -2.8,1.3 -6.5,2.5 -9.8,3.2 -2.3,0.5 -2.5,0.5 -3,1.4 -1.4,2.7 -6.1,2.3 -6.1,-0.5 0,-0.7 -0.1,-0.8 -0.9,-0.8 -1.3,0 -2.5,-1.5 -2.3,-2.9 0,-0.2 -0.2,-0.8 -0.4,-1.4 -0.6,-1.4 -0.5,-2.1 0.4,-3.4 0.9,-1.5 2.8,-2.8 4.4,-3.3 0.9,-0.2 1.3,-0.5 2.4,-1.8 0.7,-1 1.7,-1.9 2.4,-2.2 0.6,-0.3 2.1,-1.2 3.3,-2 3,-2 4.3,-2.7 6.4,-3.5 1.3,-0.5 2.3,-1.2 3.4,-2.1 2.1,-2.1 4.8,-3.3 8,-3.8 3.1,-0.5 3.8,-0.7 5.4,-1.8 1.6,-1.1 2.2,-1.4 5.1,-2 1.3,-0.3 3.3,-0.9 4.3,-1.4 1.1,-0.6 2.5,-1.1 3.1,-1.1 0.9,-0.2 1,-0.1 1.2,0.5 0.4,0.9 0.8,1.2 1.2,0.7 0.5,-0.8 2.3,-1.8 3.1,-1.8 2.2,0 3.9,1.2 3.9,2.7 0,0.5 0.1,1 0.1,1 0.1,0 0.8,-0.4 1.6,-0.6 0.8,-0.4 1.8,-0.5 2.2,-0.5 1.5,0 3,1.5 3.6,3.8 0.6,2.1 -0.5,4.4 -2.7,5.5 -1.2,0.6 -1.5,0.5 -2.4,-0.8 -0.8,-1.2 -1.6,-1.4 -1.6,-0.5 0,0.9 -1.6,3.6 -2.7,4.5 -0.9,0.9 -2.5,1.5 -3.6,1.5 -0.3,0 -0.9,0.4 -1.4,0.8 -2.3,1.9 -4.6,2.9 -6.9,2.9 -1.1,0 -1.6,0.2 -2.7,1 -1.7,1.1 -4.1,2.1 -5.6,2.4 l -1.1,0.1 -0.1,2.7 c -0.3,5.1 -1.8,9.1 -5.7,14.9 -1.2,1.8 -2.2,3.3 -2.2,3.4 0,0 1.4,-0.2 3.2,-0.4 13.4,-2.1 26.4,-3 33.3,-2.4 1.8,0.2 3.5,0.4 3.6,0.5 0.2,0.1 -1.5,0.2 -3.9,0.1 -8,-0.2 -20.7,1 -33,3.1 -4.6,0.9 -4.5,0.7 -7.3,3.5 -4.4,4.5 -13.6,11.7 -21.3,17 -1.7,1.1 -3.1,2.1 -3,2.1 0,0.1 0.9,0 1.9,-0.1 12.1,-2 25,0.4 34.6,6.4 3.6,2.1 5.5,3.8 8.5,6.6 2.8,2.7 4.5,4.8 2.1,2.5 -2,-1.8 -5.7,-4.6 -8.3,-6.4 -2.8,-1.9 -8.9,-4.9 -12.1,-6 -4.8,-1.6 -7.5,-2.1 -12.9,-2.3 -7.2,-0.2 -15.9,0.7 -17.7,1.9 -0.5,0.4 -1.1,0.7 -1.1,0.7 -0.2,0 -6.8,4 -8.9,5.5 -3.6,2.3 -14.8,13 -17.9,16.9 -3.5,4.7 -5.2,6.4 -6.7,7.5 -1.7,1.3 -3.2,2.2 -3.9,1.8 -0.5,-0.3 -0.1,-1.1 1.6,-2.8 0.8,-0.8 2.6,-3 4,-4.8 5.2,-6.4 14.9,-15.5 22.4,-21 2.6,-1.9 3.2,-2.5 2,-2.1 -1.2,0.3 -7.6,3.6 -10.7,5.5 l -3.3,2 -5.7,6.6 c -3.1,3.6 -6.3,7.3 -7.1,8.3 -3.3,4 -8.3,8.8 -9.2,8.8 -1,0 -0.2,-1 3.1,-4.3 3.7,-3.7 13.7,-15.3 13.7,-15.9 0,-0.1 -1.5,0.9 -3.2,2.1 -1.8,1.2 -4.3,2.9 -5.5,3.8 -4.4,3 -4.6,3.2 -5.7,5.9 -3.3,7.9 -5.8,11.6 -8,11.6 -0.4,0 -0.9,0 -1,-0.3 z m 42.3,-35.7 c 1.5,-0.5 3.5,-1 4.7,-1.2 1.9,-0.3 2.1,-0.5 7.4,-4.2 3.1,-2.1 6.6,-4.6 8,-5.6 4.3,-3.2 14.3,-12 14.1,-12.3 -0.4,-0.3 -9.9,2.9 -13.4,4.5 -0.9,0.4 -2,0.9 -2.5,1.1 -1.6,0.7 -6.3,3.4 -8.8,5 -3.1,2.1 -6.3,4.6 -9.2,7.2 -2.7,2.3 -9.4,9.1 -9.4,9.4 0,0.1 1.4,-0.6 3.2,-1.5 1.8,-0.8 4.4,-1.9 5.9,-2.4 z m -52.7,-0.5 1.3,-2.1 -0.2,-2.9 c -0.1,-2.7 -0.7,-6.6 -1,-6.9 -0.1,-0.1 -0.2,0.7 -0.3,1.7 -0.1,1 -0.5,4.1 -0.8,6.9 -0.4,2.8 -0.7,5.3 -0.7,5.5 0,0.6 0.3,0.3 1.7,-2.2 z m 4.4,-6.8 c 1.9,-2.8 3.7,-4.9 6.8,-8 5.6,-5.5 9.8,-7.8 19.4,-10.5 l 1.2,-0.3 0.2,-2 c 0.1,-1.1 0.2,-6.2 0.4,-11.4 0.1,-8.4 0.1,-9.3 -0.3,-9.2 -3.6,1.4 -4.5,1.9 -5.8,3.5 -1.1,1.1 -1.6,1.5 -2,1.4 -0.8,-0.3 -2.7,-4.7 -3.8,-9.2 -0.8,-3.6 -0.9,-8.6 0,-11.1 0.8,-2.3 2.9,-5.8 4.7,-7.6 1.4,-1.3 1.8,-1.9 1.2,-1.5 -0.2,0.1 -1.9,0.1 -3.9,0.1 -6,0.1 -10.1,-1.2 -14.9,-4.7 -1.3,-0.9 -2.5,-1.6 -2.7,-1.7 -0.1,0 -0.5,0.7 -0.9,1.9 -0.3,1.1 -1,3.1 -1.4,4.5 -0.4,1.4 -1.7,5.4 -2.8,9 l -2,6.4 0.8,3.6 c 2,9.2 2.7,18.7 2.1,30.4 -0.2,5.8 -0.2,6.5 0.2,7.7 0.7,2.1 1.4,5.9 1.6,8.6 0.1,1.4 0.2,2.5 0.3,2.4 0.1,-0.1 0.8,-1.1 1.6,-2.3 z m -2.5,-5.9 c -0.3,-0.6 1.1,-6.3 2.6,-10 1.9,-4.8 4.8,-9 7.7,-11 3.4,-2.3 8.5,-4.4 11.2,-4.7 0.9,-0.1 1.7,-0.1 1.7,0 0,0.1 -0.9,0.5 -2,0.9 -4.4,1.7 -8.9,4.2 -11.7,6.4 -3.4,2.7 -7.4,10.5 -8.4,16.4 -0.3,1.9 -0.7,2.6 -1.1,2 z m 33.7,-8.8 c 0.9,-1.2 1.6,-2.2 1.6,-2.2 0,-0.1 -0.6,-0.2 -1.4,-0.2 h -1.4 l -0.2,1.6 c -0.1,1 -0.3,2 -0.3,2.3 -0.1,0.3 -0.1,0.6 0,0.6 0.1,0 0.8,-1 1.7,-2.1 z m -36.6,-9.4 c -0.1,-7.7 -0.5,-12.4 -1.3,-17.5 -0.7,-3.9 -1,-5.2 -1.3,-4.8 -0.3,0.6 -4.2,12.7 -5.4,16.5 -0.9,3.3 -0.9,3.4 -0.4,3.9 0.2,0.4 1,1.3 1.7,2.2 1.7,2.1 4.1,5.6 5.4,7.9 l 1,1.8 0.2,-1 c 0.2,-0.6 0.2,-4.6 0.1,-9 z m 40.5,4 c 1.2,-1.3 5,-8.7 7.3,-13.9 1.7,-4.1 4,-10.4 4.9,-13.8 0.6,-2.3 0.7,-3.3 0.7,-5.8 0,-2.8 -0.1,-3.3 -1,-6.1 -0.6,-1.7 -1.1,-3.1 -1.2,-3.2 -0.1,-0.2 -0.3,0.6 -0.4,1.6 -0.2,2.5 -0.6,4 -1.5,6.1 -1.9,4.3 -7.1,9.5 -12.1,12.1 l -1.2,0.7 v 7.9 c 0,4.4 -0.1,9.6 -0.2,11.6 l -0.2,3.6 2.1,-0.1 c 1.9,-0.1 2.3,-0.2 2.8,-0.7 z m 36.2,-8.6 c 1.3,-1.2 1.8,-3.1 2,-6.8 0.1,-1.9 0.3,-3.8 0.5,-4.2 0.3,-0.7 0.3,-0.7 -0.4,-0.6 -0.4,0.1 -1.8,-0.1 -3.1,-0.4 -2.7,-0.7 -3.7,-0.5 -5.6,1.1 -1.8,1.7 -2.4,3.2 -1.7,4.5 0.2,0.5 0.3,0.5 0.7,0.2 0.4,-0.4 0.4,-0.1 -0.1,0.9 -0.4,0.8 -0.4,0.9 0,1.7 0.5,0.9 0.9,1.1 2.3,1.2 0.4,0.1 0.6,0.3 0.7,0.6 0,1.1 0.3,1.9 0.9,2.2 1,0.5 3.1,0.3 3.8,-0.4 z m 6.2,-3 c 2.8,-0.7 4.9,-1.5 6.9,-2.4 l 1.7,-0.9 -5.8,-0.1 c -3.2,-0.1 -5.9,-0.2 -6.1,-0.3 -0.2,-0.1 -0.3,0.3 -0.5,1.4 -0.1,0.9 -0.2,2 -0.3,2.5 l -0.2,0.7 1.2,-0.2 c 0.6,-0.1 2,-0.4 3.1,-0.7 z m 11.5,-4.4 c 2.5,-0.9 5.4,-2.4 5.7,-2.9 0.4,-0.7 0.2,-1.1 -0.7,-1.1 -1,0 -5.8,-1.7 -8.2,-2.9 -1.2,-0.6 -2.3,-1.1 -2.4,-1 -0.1,0 -1.1,-0.3 -2.1,-0.7 l -1.9,-0.8 -1,0.5 c -2.1,1.2 -4.3,4.8 -4.5,7.6 l -0.1,1.5 1.9,0.1 c 4.1,0.4 4.7,0.4 8.2,0.3 2.6,-0.1 4.1,-0.3 5.1,-0.6 z m -67.9,-8.4 c 0.6,-1.1 2.5,-2.8 4,-3.5 0.5,-0.3 0.5,-0.5 0.4,-1.7 -0.2,-1.8 0.2,-4.4 1,-6.4 1,-2.6 2.8,-4.2 7.5,-6.6 2.2,-1.1 4.5,-2.4 5.1,-2.9 0.9,-0.9 2.6,-3.5 2.3,-3.8 0,-0.1 -0.8,-0.3 -1.7,-0.5 -1,-0.2 -2.3,-0.7 -3.1,-1.2 l -1.3,-0.7 -4.2,2.2 c -5.6,2.8 -7.8,4.3 -10.2,6.7 -3.4,3.5 -4.6,6.8 -4.4,12.6 0.1,3.5 0.6,5.3 2.2,9 l 1,2.1 0.4,-2.1 c 0.2,-1.3 0.6,-2.6 1,-3.2 z m 5.3,2.2 c 10.3,-3.6 15.4,-8.1 17.8,-16.1 0.6,-1.6 0.7,-2.5 0.7,-5.3 0,-2 -0.2,-3.7 -0.4,-4.5 -0.4,-1.2 -0.4,-1.3 -1.2,-1.3 -0.7,0 -0.9,0.2 -1.5,1.4 -0.3,0.8 -1.3,2.1 -2.3,3.1 -1.5,1.5 -2.2,1.9 -4,2.6 -5.3,2.1 -8.2,5.1 -8.6,8.9 -0.1,0.8 -0.1,2.3 0.1,3.4 0.4,2.4 0.3,2.5 -1.9,3.6 -2.9,1.5 -3.9,2.9 -3.9,5.2 0,1.9 0.2,2.2 0.9,1.1 0.6,-0.8 1.1,-1.1 4.3,-2.1 z m 74.1,0.9 c 2.3,-0.9 4.3,-2.1 3.7,-2.3 -0.2,0 -0.8,-0.2 -1.4,-0.4 -1.6,-0.5 -4.1,-1.8 -5.6,-2.9 -0.8,-0.6 -1.5,-1.1 -1.6,-1.1 -0.1,0 -0.9,-0.4 -1.8,-0.9 -1.2,-0.7 -1.8,-0.9 -2.9,-0.9 -2.7,0 -4.9,1.7 -5.5,4.2 -0.1,0.6 -0.3,0.6 -1.1,0.4 -1.9,-0.3 -1,0.6 1.9,1.9 6.8,3.2 10.1,3.7 14.3,2 z m -26.8,0.6 c 0.3,-0.1 1,-0.7 1.4,-1.4 0.5,-0.7 1.5,-1.9 2.2,-2.6 l 1.4,-1.2 -2.5,0.1 c -3.3,0.2 -4.6,0.8 -6.1,2.7 -0.6,0.8 -1.1,1.5 -1,1.6 0,0 0.7,0.2 1.4,0.5 1.5,0.5 2.3,0.5 3.2,0.3 z m 36.9,-4.2 c 0.8,-0.4 1.9,-1 2.4,-1.5 0.8,-0.7 0.8,-0.7 0.3,-0.8 -1.5,0 -5,-1.2 -9.2,-3.2 l -4.6,-2.1 -1.2,0.4 c -1.8,0.7 -2.4,1.5 -2.3,3.1 0.1,0.8 1.9,2.2 4.4,3.5 2.4,1.2 3.7,1.5 6.4,1.4 1.9,0 2.6,-0.2 3.8,-0.8 z M 206.7,194 c 0.8,0 0.9,-0.1 1.2,-1.1 0.5,-1.2 2,-2.6 3.4,-3.1 1.2,-0.3 1.3,-0.6 0.2,-0.9 -2.7,-1 -5.2,-0.6 -8.5,1 -1.9,0.9 -5.8,3.3 -5.8,3.5 0,0 1,0.1 2.2,0.1 1.7,0 2.5,0.1 3.4,0.5 2.5,1.2 2.5,1.2 2.8,0.5 0.2,-0.3 0.6,-0.5 1.1,-0.5 z m 33.3,-2.5 c 1.6,-0.8 3,-2.9 3.6,-5.1 0.2,-0.7 0.2,-0.7 -1.2,-0.7 -0.9,0 -2.3,-0.3 -3.7,-0.8 -3.4,-1.2 -5,-1.4 -6.6,-1.1 -1.9,0.4 -3.7,1.8 -4.7,3.5 l -0.8,1.4 0.9,0.5 c 1.4,0.7 4.6,2 6,2.4 2.2,0.6 5.1,0.5 6.5,-0.1 z m -21.9,-0.9 c -0.1,-1.4 0,-1.8 1.1,-2.6 1.9,-1.3 2.7,-1.4 5,-0.4 l 1.9,0.9 0.9,-1.5 c 0.5,-0.8 0.8,-1.5 0.7,-1.6 -0.5,-0.4 -3.7,-1.6 -5.2,-1.8 -3.3,-0.6 -5.3,-0.6 -7.3,-0.2 -2.3,0.5 -5.2,1.9 -6.9,3.3 l -1.2,1.1 h 1.1 c 1.3,0 3.7,0.6 4.5,1.1 0.3,0.3 1,0.5 1.5,0.5 0.5,0 1.4,0.3 2.3,0.9 0.8,0.5 1.5,0.9 1.6,0.9 0,0 0,-0.2 0,-0.6 z m 30,-3.5 c 1.3,-0.7 2.3,-2.3 2.3,-3.7 0,-1.2 -0.9,-3.1 -1.8,-3.8 -1,-0.8 -2.3,-0.7 -5.4,0.6 -0.4,0.2 -0.5,0 -0.5,-1.2 -0.1,-1.6 -0.9,-2.3 -2.7,-2.5 -1.4,-0.2 -2.8,0.5 -3.5,1.6 -0.4,0.6 -0.5,0.6 -1.1,0.3 -0.3,-0.3 -0.7,-0.7 -0.7,-1 -0.3,-0.7 -1.3,-0.6 -3.5,0.5 l -2,1 1,0.4 c 1.4,0.6 1.9,1.4 1.9,2.8 v 1.2 h 1.6 c 1.1,0 2.5,0.3 4.4,0.9 1.9,0.6 3.4,0.9 4.3,0.9 1.8,0 2.9,0.6 3.7,1.8 0.3,0.5 0.7,0.9 0.8,0.9 0.1,0 0.6,-0.3 1.2,-0.7 z m -47.5,-1.7 c 1.2,-0.3 2.2,-0.7 2.2,-0.8 0,-0.1 -0.9,-0.4 -2,-0.6 l -2,-0.3 -0.7,-1.4 c -1.1,-2.4 -3.4,-3.5 -7.1,-3.6 -2.1,0 -4.2,0.5 -5.1,1.2 -1.1,0.8 -1.6,0.6 -4.2,-1.7 -3.5,-3.1 -6.1,-4.8 -10.1,-6.5 -2,-0.7 -3.6,-1.4 -3.7,-1.3 0,0.1 0.7,1.1 1.6,2.2 5.8,7.1 12.7,11.7 20,13.2 2.7,0.5 8.4,0.4 11.1,-0.4 z m 28.9,-1.1 c 0.6,-0.4 1.4,-0.8 1.6,-0.8 0.5,0 0.5,-0.1 0.5,-1.5 -0.1,-1.5 -0.2,-1.5 -1.2,-2 -2.3,-1.2 -6.2,-0.5 -9,1.5 l -1.5,1.1 2.4,0.5 c 1.4,0.2 3.2,0.8 4.1,1.2 0.9,0.4 1.7,0.8 1.8,0.8 0.2,0 0.7,-0.3 1.3,-0.8 z m -24.1,-2.9 c -0.1,-1.1 -0.4,-3.1 -0.5,-4.6 -0.1,-1.5 -0.5,-3.4 -0.8,-4.4 -1.2,-3.6 -3.8,-7 -6.4,-8.4 -2,-1 -5.5,-1.6 -8.9,-1.6 h -3 l -3.8,1.8 c -2,1 -3.8,1.9 -4,1.9 -0.1,0 -1.3,0.6 -2.4,1.4 -1.2,0.8 -2.9,1.6 -3.7,1.9 -2.8,0.8 -2.7,0.8 -0.7,1.4 3.6,1.2 7.7,3.7 11,6.7 2.1,1.8 2.4,1.8 4.8,1 2,-0.7 4.8,-0.9 6.5,-0.5 2.4,0.5 4.2,2 5.5,4.4 0.1,0.2 1.5,0.5 3.4,0.7 1.7,0.2 3.2,0.3 3.2,0.3 0.1,0 0,-0.9 -0.2,-2 z m -62.9,-7.9 3.5,-0.3 5.1,-2.5 c 2.7,-1.4 5.1,-2.7 5.2,-2.8 0.1,-0.1 -0.7,0 -1.9,0.2 -1.1,0.2 -3.3,0.4 -4.8,0.4 -3.5,0.1 -4.6,-0.4 -9.2,-3.4 -4.1,-2.8 -6.1,-3.7 -8.2,-3.9 -1.9,-0.2 -3.2,0.3 -5.4,2.1 -1.8,1.5 -2,1.5 -3.1,-0.4 -0.8,-1.4 -1.6,-1.8 -3.2,-1.8 -1.4,0 -2.5,0.3 -3.2,0.9 -0.4,0.4 -0.3,0.6 1.8,2 1.3,0.8 3.6,2.5 5.2,3.6 5.3,3.9 9.2,5.5 14.3,6.1 0.2,0 1.9,-0.1 3.9,-0.2 z m 26.7,-0.2 c 0,-0.2 -1.3,-1.7 -1.4,-1.7 -0.1,0 -0.1,0.5 0,1 0.1,1 0.2,1 0.7,0.9 0.4,0 0.7,-0.1 0.7,-0.2 z m 0.3,-4.2 c 3.3,-0.7 7,-2.8 8.1,-4.8 2.3,-3.9 2.8,-12.2 1.1,-16.9 -0.8,-2.2 -3.4,-5.9 -5.5,-7.8 -1.8,-1.7 -5.3,-4.5 -5.6,-4.5 -0.1,0 -0.4,0.4 -0.6,0.9 -0.3,0.5 -1.1,1.2 -1.9,1.7 -4.9,3 -8.8,10.6 -9.7,18.9 -0.7,6.1 1,10 5.2,11.9 0.9,0.4 1.9,0.8 2.2,0.8 1.5,0.3 5,0.2 6.7,-0.2 z m -15,-1.7 c 2.4,-0.5 2.4,-0.5 1.8,-1 -0.2,-0.3 -1.1,-0.7 -1.8,-1 -7.3,-2.6 -16.8,-10.1 -19.9,-15.7 -0.9,-1.6 -1.5,-1.8 -3.2,-1.2 -2.3,0.9 -4.6,3.6 -5.6,6.7 l -0.6,1.6 h -1.7 c -1,0 -2.3,0.2 -2.8,0.3 -1.1,0.3 -2.5,1.4 -3.2,2.6 l -0.4,0.7 2.1,-0.1 c 2.4,-0.1 3.8,0.3 5.2,1.5 l 0.9,0.7 2.1,-1 c 4.5,-2.3 7.4,-1.6 14.5,3.6 2.7,1.9 3.5,2.3 5.2,2.6 1.3,0.3 5.3,0.1 7.4,-0.3 z m 0.8,-3.5 c -0.5,-1.3 -0.6,-1.4 -1.8,-1.9 -0.7,-0.2 -1.6,-0.7 -2,-1 l -0.7,-0.7 0.5,-1.7 c 1.2,-4.6 0,-9.1 -3.2,-12.3 -1.3,-1.3 -2.2,-1.9 -4.8,-3.2 -3.9,-1.9 -4.6,-2.1 -6.4,-1.5 -1.7,0.5 -1.4,0.6 -3.7,-2.7 -0.9,-1.4 -1.7,-2.4 -1.8,-2.3 -0.5,0.5 1.8,8.3 3.4,11.6 3.3,6.8 7.7,10.5 19.7,16.7 0.6,0.3 1.1,0.5 1.1,0.5 0.1,0 -0.1,-0.7 -0.3,-1.5 z m 28.6,-1.6 c 3.4,-2.3 6,-5.2 7.6,-8.3 1.5,-2.9 3,-8.9 4.1,-16.5 0.3,-1.9 0.8,-4 1.1,-4.7 0.3,-0.6 0.5,-1.2 0.5,-1.3 0,0 -0.3,0 -0.7,0.1 -1.2,0.2 -2.2,1.1 -3.3,3.2 -0.6,1 -1.2,2 -1.4,2.1 -0.1,0.1 -0.5,-0.1 -0.8,-0.5 -0.6,-0.8 -2.1,-1.2 -3.4,-0.8 -2.5,0.7 -4.4,2.9 -6.9,7.8 l -1.5,2.9 0.6,2.3 c 0.4,1.6 0.6,3.2 0.7,5.7 0.1,4.2 -0.3,6.5 -1.7,9.2 -0.5,1 -0.9,1.9 -0.9,1.9 0,0.2 4.8,-2.4 6,-3.1 z m 18.8,0.5 c 4.1,-1.7 7.7,-4.1 9.5,-6.5 1.8,-2.2 3,-7.6 2.6,-11.8 -0.1,-1.3 -0.2,-2.9 -0.2,-3.6 -0.1,-1.5 -0.3,-1.6 -1.7,-0.7 -1.4,0.8 -1.8,1.7 -1.9,4.5 -0.2,2.3 -0.2,2.5 -0.7,2.4 -0.3,-0.1 -1.5,-0.1 -2.6,-0.1 -2.6,0 -3.6,0.4 -5.2,2 -1.4,1.6 -2.2,3.3 -3.1,6.8 -0.8,3.4 -1.6,5 -3,5.8 -1,0.5 -1.4,1 -0.7,1 0.2,0 0.9,0.3 1.7,0.7 1.5,0.7 2.4,0.6 5.3,-0.5 z m -7.1,-1.5 c 1.6,-1 2.2,-1.8 2.8,-4.3 1.7,-7 3.5,-9.8 7.2,-10.9 0.7,-0.2 1.9,-0.4 2.7,-0.4 h 1.5 L 210,144 c 0.3,-3.1 1.8,-5.1 4.1,-5.6 0.4,-0.1 0.8,-0.3 0.8,-0.4 0,-0.4 -1.8,-2 -2.8,-2.6 -4.2,-2.1 -9.1,-0.6 -14.4,4.7 -1.9,1.9 -2,2.1 -2.3,3.8 -1.5,7.8 -3.6,12.3 -7.4,16.2 l -1.8,1.7 3.3,0.1 c 1.8,0.1 3.6,0.1 4,0.2 0.4,0 1.3,-0.4 2.1,-0.8 z m -41,-2.2 -0.1,-2.7 -0.9,-0.8 c -0.8,-0.8 -1,-0.9 -1,-0.4 -0.1,0.2 -0.4,1.4 -0.6,2.6 -0.5,1.9 -0.5,2.3 -0.2,2.6 0.3,0.4 2.2,1.4 2.6,1.5 0.1,0 0.2,-1.3 0.2,-2.8 z m -0.4,-6.3 c -0.8,-0.8 -2,-1 -2,-0.3 0,0.2 0.4,0.5 0.7,0.6 0.6,0.2 0.7,0.4 0.6,0.9 -0.1,0.4 0,0.8 0.4,1.2 l 0.6,0.6 0.2,-1.1 c 0.2,-1 0.2,-1.2 -0.5,-1.9 z m 1.5,-1.8 c 0,-0.2 -0.5,-0.7 -1.1,-1.1 -1.2,-0.9 -1.3,-0.6 -0.2,0.4 0.4,0.5 0.8,0.9 0.8,1.1 0,0.1 -0.5,-0.2 -1,-0.7 -0.5,-0.4 -1.1,-0.9 -1.4,-0.9 -0.3,0 -0.6,-0.1 -0.7,-0.2 -0.2,-0.2 0.2,-1 0.6,-1 0.2,0 0.3,-0.1 0.3,-0.2 0,-0.2 -0.1,-0.3 -0.2,-0.3 -0.2,0 -0.8,-0.3 -1.4,-0.7 -0.6,-0.3 -1.1,-0.6 -1.3,-0.5 -0.2,0.2 1,2.3 1.4,2.3 0.1,0 0.2,0.3 0.3,0.8 0,0.8 0.1,0.9 0.8,0.8 0.5,-0.1 0.8,0 0.9,0.4 0.1,0.3 0.5,0.8 0.8,1.2 l 0.7,0.7 0.3,-0.8 c 0.2,-0.5 0.4,-1.1 0.4,-1.3 z m -24.3,-3.3 c 1.7,-0.6 1.7,-0.6 1.4,-1.2 -1.7,-3.4 -3.5,-10.7 -3.6,-14.2 0,-1.4 0.9,-2.2 2.5,-2.2 1.2,0 2.1,0.6 3,2.2 0.6,0.9 1.1,0.9 2.1,0.1 l 0.7,-0.6 -2,-6.6 c -1.1,-3.6 -2.2,-7.3 -2.4,-8.2 -0.8,-2.8 -0.8,-2.9 -2.1,3.1 -1.8,8.1 -2.9,14.2 -3.9,23.2 -0.3,2.7 -0.6,5.6 -0.8,6.5 -0.1,0.9 -0.2,1.8 -0.2,1.9 0,0.3 0.8,-0.4 1.7,-1.5 1.6,-1.7 2.1,-2 3.6,-2.5 z m 24.8,1.9 c 0,-0.1 0.1,-0.3 0.2,-0.6 0.1,-0.4 0.1,-0.4 -0.4,-0.2 -0.3,0 -0.8,0.1 -1.1,0 -0.4,-0.2 -0.5,-0.4 -0.5,-1.3 l 0.1,-1.1 h 1.5 c 1.7,0 1.9,-0.2 1,-0.7 -0.5,-0.4 -0.7,-0.4 -1.3,-0.1 -0.9,0.5 -1.6,0.2 -1.9,-0.5 -0.2,-0.6 -0.2,-0.5 -0.5,0.2 -0.6,1.5 1,4.4 2.4,4.4 0.3,0 0.5,-0.1 0.5,-0.1 z m -0.1,-1.5 c 0.4,-0.2 1,-1.3 0.8,-1.3 -0.1,0 -0.4,0.2 -0.6,0.4 -0.2,0.2 -0.6,0.4 -0.9,0.4 -0.3,0 -0.5,0.2 -0.5,0.4 0,0.4 0.7,0.5 1.2,0.1 z m -3.4,-1 c -0.1,-0.2 -0.2,-0.6 -0.2,-1 0,-0.5 -0.2,-0.6 -1.5,-0.9 -0.9,-0.1 -1.9,-0.3 -2.3,-0.3 h -0.8 l 0.6,0.7 c 0.6,0.6 0.7,0.6 1.3,0.2 0.5,-0.3 0.7,-0.4 1,-0.1 0.2,0.2 0.3,0.5 0.2,0.6 0,0.2 0.2,0.6 0.6,0.8 1,0.6 1.3,0.6 1.1,0 z m 27.4,-3.7 c 1.2,-2.9 2.4,-4.9 3.9,-6.3 1.7,-1.8 3.1,-2.3 5.7,-2.3 h 2.1 l 0.8,-1.2 c 0.7,-1.1 1.9,-2.2 3.5,-3.1 0.4,-0.3 0.4,-0.4 -0.3,-0.7 -2.4,-0.9 -6.2,-0.5 -9.8,1.2 -1.5,0.7 -2,1 -2.1,1.6 -0.5,2.1 -2.8,5.8 -5.1,8.5 -1.3,1.3 -1.3,1.1 -0.2,-0.5 2.2,-3 4,-6.7 5.2,-10.4 0.8,-2.8 1.4,-7.8 1.9,-18.5 0.2,-3.2 0.2,-3.4 -0.2,-3.1 -0.7,0.6 -1.4,2.2 -1.9,4.2 -0.5,2 -0.8,2.8 -1.3,2.8 -1,0 -3.1,0.9 -3.9,1.6 -1.1,1.1 -2.1,3.4 -2.1,5.1 0,0.7 0.4,3.5 0.8,6.2 0.7,4.1 0.8,5.4 0.7,8 0,1.6 -0.2,3.3 -0.3,3.6 -0.2,0.5 -0.3,-0.2 -0.2,-2.3 0.1,-1.6 0.1,-3.2 0,-3.6 -0.2,-0.6 -0.2,-0.7 -0.8,-0.3 -0.7,0.5 -0.7,1.3 0,1.5 0.5,0.2 0.9,1.3 0.4,1.3 -0.2,0 -0.3,0.7 -0.3,1.9 0,2.4 -0.5,2.4 -0.6,0 v -1.7 l -0.2,1.8 -0.2,1.9 1.4,2.1 c 0.7,1.1 1.5,2.4 1.6,2.7 0.2,0.8 0.4,0.6 1.5,-2 z m -24.4,1.8 c 0.5,-0.3 0.7,-1.1 0.3,-1.1 -0.6,0 -1.6,0.7 -1.6,1 0,0.4 0.6,0.5 1.3,0.1 z m 2.4,-0.3 c 0.3,-0.6 0.2,-0.6 -0.6,-0.2 -0.3,0.1 -0.4,0.4 -0.4,0.5 0.3,0.4 0.6,0.3 1,-0.3 z m -5.2,-0.2 c 0.1,-0.3 0.1,-0.7 0,-0.8 -0.2,-0.4 -3.3,-3 -3.3,-2.8 0,0 0.7,0.9 1.6,1.8 0.8,0.9 1.5,1.7 1.4,1.7 -0.1,0.1 -0.8,-0.5 -1.6,-1.3 l -1.5,-1.4 1.2,1.4 c 0.7,0.8 1.3,1.5 1.3,1.6 0,0.5 0.7,0.3 0.9,-0.2 z m -2.3,-0.2 c 0,0 -0.4,-0.2 -0.7,-0.4 -0.6,-0.3 -0.7,-0.3 -0.3,0.1 0.2,0.3 0.5,0.5 0.7,0.5 0.3,0 0.4,-0.1 0.3,-0.2 z m 7,-1.4 c 0.2,0 0.6,0 1,0 0.6,-0.1 0.6,-0.1 -0.2,-0.4 -0.9,-0.4 -1.2,-1.2 -0.6,-1.6 0.2,-0.1 0.3,-0.3 0.3,-0.4 0,-0.4 -1.4,0.5 -2.5,1.5 -0.5,0.5 -0.6,0.8 -0.4,1.1 0.1,0.1 0.5,0.3 0.8,0.3 0.2,0 0.5,0.1 0.6,0.3 0.2,0.2 0.3,0.1 0.5,-0.3 0.1,-0.3 0.4,-0.5 0.5,-0.5 z m -4.2,0 c -0.1,-0.3 -2.4,-1.9 -2.6,-1.9 -0.4,0 2.1,2.1 2.5,2.1 0.1,0 0.2,-0.1 0.1,-0.2 z m 6.4,-1.5 c 0.5,-0.8 0.3,-1.2 -0.3,-0.6 -0.3,0.2 -0.7,0.3 -1,0.3 -0.2,-0.1 -0.4,0 -0.4,0.3 0,0.9 1.1,0.9 1.7,0 z m -6,-1.6 c -0.6,-0.9 -1.2,-1.8 -1.4,-1.9 -0.2,-0.1 -0.1,0.1 0.1,0.5 0.3,0.3 0.8,1.2 1.2,1.9 0.4,0.7 0.8,1.2 1,1.2 0.1,0 -0.3,-0.7 -0.9,-1.7 z m 7.5,-0.8 c -0.1,-0.1 -0.6,0.1 -1.1,0.3 l -0.9,0.4 0.6,0.2 c 0.6,0.2 0.8,0.2 1.1,-0.3 0.3,-0.3 0.4,-0.6 0.3,-0.6 z m -4.3,0.7 c 0,-0.1 -0.2,-0.4 -0.4,-0.7 -0.4,-0.5 -0.4,-0.4 -0.1,0.2 0.3,0.8 0.5,0.9 0.5,0.5 z m 18.3,-2.9 c 0.2,-3.2 -0.1,-3.7 -0.6,-1 -0.3,1.7 -0.8,2.9 -0.8,2 0,-0.2 0.2,-1.1 0.4,-1.9 0.6,-2.3 0.5,-2.4 -0.5,-0.2 l -0.9,2 1.1,1.1 c 0.6,0.6 1.1,1.1 1.2,1.1 0,0 0.1,-1.4 0.1,-3.1 z m -16.9,0.6 c -0.4,-0.8 -0.9,-1.4 -1,-1.4 -0.3,0 -0.3,0.1 0,0.9 0.8,1.9 1,2.2 1.4,2.1 0.2,-0.1 0.1,-0.5 -0.4,-1.6 z m 2.5,0.7 c -0.1,-0.2 -0.4,-1.2 -0.7,-2.2 -0.3,-0.9 -0.7,-1.8 -0.9,-1.8 -0.3,-0.1 -0.1,0.4 0.3,1.7 0.8,2.6 0.8,2.6 1.1,2.6 0.2,0 0.3,-0.2 0.2,-0.3 z m 1.9,-2.2 c 0,-0.8 -0.1,-1.6 -0.2,-1.6 -0.2,-0.1 -0.3,0.4 -0.3,1.4 0,0.9 0.1,1.6 0.3,1.6 0.1,0 0.2,-0.6 0.2,-1.4 z m 0.8,-0.6 c 0,-0.7 -0.1,-1.1 -0.2,-1.1 -0.2,0.1 -0.1,2.3 0.1,2.3 0.1,0 0.1,-0.5 0.1,-1.2 z m 13.1,-3.8 c -0.4,-1.7 -0.6,-1.9 -0.9,-1 -0.7,1.8 -0.6,2 0.3,2.1 0.5,0.1 0.9,0.2 0.9,0.2 0,0 -0.1,-0.6 -0.3,-1.3 z m 8.8,-0.9 c 2.7,-1.6 4.2,-2 7.2,-2 h 2.6 l 1.4,-1.8 c 1.1,-1.4 1.9,-2.1 2.9,-2.5 l 1.3,-0.6 -0.2,-1.2 c -0.1,-1.1 0,-1.5 0.6,-2.5 0.4,-0.6 1.1,-1.5 1.6,-1.9 0.6,-0.5 0.9,-0.9 0.7,-1 -0.6,-0.4 -4.3,-0.7 -6.2,-0.6 -4.3,0.4 -7.1,1.7 -9.8,4.7 -1.7,1.8 -1.7,1.9 -2,4.1 -0.2,1.2 -0.6,3.1 -0.8,4.1 -0.3,1 -0.4,1.8 -0.4,1.8 0.1,0 0.6,-0.2 1.1,-0.6 z M 145.3,62.63 c 1,-0.48 2.4,-2.01 2.4,-2.62 0,-0.5 -1,-0.37 -2.5,0.35 l -1.4,0.63 v -1.32 c 0,-1.03 -0.2,-1.46 -0.6,-1.93 -1.1,-1.11 -4,-2.49 -6.7,-3.2 -2.8,-0.77 -6.8,-1.91 -7.4,-2.15 -0.8,-0.31 -0.4,0.58 1.3,2.83 2.9,3.84 6.3,6.54 9.5,7.54 1.6,0.51 4.1,0.45 5.4,-0.13 z m -0.1,-3.2 c 0.1,-0.13 0.9,-0.26 1.6,-0.26 1.4,0 1.5,-0.1 1.8,-0.72 0.5,-1.37 0.3,-3.7 -0.4,-4.95 -1.1,-1.8 -3.3,-3.28 -4.1,-2.8 -1,0.48 -5.7,1.56 -8.5,1.88 -1.4,0.18 -2.6,0.37 -2.6,0.42 0.1,0.1 1.6,0.45 3.3,0.87 3.6,0.88 5.2,1.59 6.9,3.05 0.9,0.79 1.1,1.13 1.1,1.87 0,0.88 0.5,1.27 0.9,0.64 z m -21.9,-5.98 c 2.6,-0.85 3,-1.03 2.4,-1.24 -0.3,-0.13 -1.7,-0.19 -3,-0.11 -2.7,0.13 -2.5,0.19 -5,-1.85 -2.4,-1.91 -6.7,-2.94 -8.6,-2.09 -0.4,0.16 -0.6,0 -0.8,-0.53 -1,-2.64 -2.2,-3.99 -4.7,-5.16 -2.6,-1.27 -2.7,-1.08 -0.8,2.54 2.5,5.05 5,7.78 8.3,8.84 2.3,0.76 2.6,0.79 6,0.69 2.6,-0.1 3.4,-0.24 6.2,-1.09 z m 15.6,-1.93 c 4.6,-0.98 8.5,-2.8 10.5,-4.97 1.7,-1.86 2.4,-2.86 4.6,-6.49 1.5,-2.58 1.8,-3.29 1.6,-3.46 -0.6,-0.28 -1.4,0.17 -2.8,1.54 -1.1,1 -1.4,1.13 -2.7,1.24 -1.2,0.1 -1.8,0.31 -2.9,1.03 -1.1,0.77 -1.5,1.24 -2.4,3.12 -1.9,4.05 -5.5,6.75 -10.5,7.86 -3.7,0.82 -3.7,0.9 -0.7,0.76 1.6,-0.1 4,-0.37 5.3,-0.63 z m -8.8,-0.74 c 1.6,-0.9 3.9,-3.02 4.9,-4.71 1.9,-2.88 2.2,-6.85 0.8,-9.71 -0.8,-1.53 -2.8,-3.98 -3.7,-4.46 -1.1,-0.57 -5.6,3.34 -6.9,6.03 -1.6,3.14 -1.4,7.27 0.6,11.13 1.2,2.51 -0.7,0.98 -2.7,-2.12 -1.3,-2.01 -3.6,-3.97 -6.2,-5.24 -3.5,-1.71 -4.5,-1.9 -10.2,-1.69 -2.8,0.11 -4.9,0.29 -4.8,0.42 0.1,0.11 0.7,0.53 1.5,0.93 2.6,1.32 3.5,2.09 4.4,3.92 l 0.9,1.74 1,-0.16 c 2.1,-0.37 6.1,1.22 8.7,3.44 l 1.4,1.27 2.2,-0.13 c 1.1,-0.1 2.4,-0.1 2.9,0 1.5,0.35 3.7,0.1 5.2,-0.71 z m 4.1,-0.11 c 2.6,-0.63 5.3,-1.93 7,-3.36 3.4,-2.96 5.5,-9.74 4.3,-14.27 -0.6,-2.38 -1.3,-3.67 -3.2,-5.62 -0.9,-0.95 -1.7,-1.96 -1.7,-2.25 -0.2,-0.45 -0.4,-0.27 -1.9,1.19 -1.8,1.88 -3,3.87 -3.3,5.91 -0.1,1.14 0,1.5 0.9,3.43 0.7,1.57 1,2.62 1.1,3.78 0.2,4.24 -2.1,8.89 -5.4,10.88 -0.7,0.37 -1.2,0.71 -1.2,0.76 0,0.24 1.2,0.1 3.4,-0.45 z m -9.4,-2.91 c -1.1,-2.25 -1.3,-2.62 -1.3,-4.76 -0.2,-3.41 0.8,-6.06 3.1,-8.59 l 1.1,-1.12 -0.5,-1.81 c -0.5,-1.98 -1.9,-5.13 -2.7,-6.17 l -0.5,-0.66 -0.7,0.61 c -0.9,0.83 -2.2,3.52 -2.7,5.6 -0.7,2.55 -0.6,6.7 0.2,9.52 0.6,2.41 2.4,6.14 4,8.41 0.6,0.75 1.1,1.38 1.1,1.38 0,0 -0.5,-1.08 -1.1,-2.41 z m 30.4,0.69 c 3,-0.69 5.6,-2.06 7.6,-4.1 2,-1.96 3.8,-5.05 3.3,-5.58 -0.5,-0.5 -1.6,0 -3,1.24 -1.3,1.17 -1.3,1.17 -2.4,0.93 -3.5,-0.82 -6.3,0.34 -8.6,3.57 -0.6,0.9 -1.9,2.33 -2.8,3.15 l -1.7,1.51 2.8,-0.14 c 1.5,-0.1 3.7,-0.34 4.8,-0.58 z m 2.7,-8.46 c 0.7,-0.11 1.9,-0.1 2.5,0.1 1.2,0.27 1.3,0.24 2.2,-0.71 l 1,-0.98 -1.6,-0.14 c -1.8,-0.15 -5.2,0.15 -6.2,0.53 -0.5,0.19 -1.7,2.2 -1.7,2.78 0,0.1 0.6,-0.24 1.2,-0.66 0.8,-0.45 1.8,-0.82 2.6,-0.92 z m -9,-1.33 c 0.7,-0.21 1.6,-0.4 2,-0.41 0.7,0 3.4,-2.24 3.1,-2.57 -0.1,-0.11 -1.3,-0.19 -2.5,-0.19 -2,0 -2.5,0.1 -3.6,0.67 -1.4,0.69 -1.5,0.92 -1.8,3.24 l -0.2,1.01 0.8,-0.66 c 0.4,-0.37 1.4,-0.85 2.2,-1.09 z M 136,28.8 c 0.3,-0.74 0.7,-1.42 0.9,-1.51 0.1,-0.1 0.3,-0.38 0.3,-0.64 0,-0.92 -1.9,-4.13 -3,-5.29 -1.2,-1.12 -1.3,-1.15 -1.8,-0.75 -1.3,0.88 -4.4,4.09 -5.1,5.29 l -0.8,1.26 0.6,1.65 c 0.3,0.91 0.7,2.16 0.8,2.78 0.2,0.61 0.4,1.12 0.5,1.12 0.1,0 0.9,-0.47 1.7,-1.04 l 1.6,-1.04 1.4,1.07 c 0.8,0.59 1.4,1.21 1.4,1.37 0,0.17 0.2,-0.42 0.4,-1.31 0.2,-0.89 0.7,-2.22 1.1,-2.96 z m 7,-2.17 c 0,-0.43 -1.5,-4.05 -2.2,-5.17 -0.8,-1.43 -3.7,-5.42 -3.9,-5.42 -0.3,0 -2.6,3.18 -2.6,3.57 0,0.19 0.4,0.97 0.9,1.74 0.5,0.76 1.3,2.15 1.8,3.07 l 0.7,1.67 1.4,-1.18 c 1.7,-1.48 2.3,-1.55 2.3,-0.29 0,0.56 0.2,1.16 0.6,1.58 0.6,0.71 1,0.87 1,0.43 z m -15.2,-2.62 c 0.6,-0.82 1.7,-2.02 2.5,-2.67 0.8,-0.66 1.8,-1.53 2.2,-1.96 l 0.7,-0.76 -1.1,-1.42 -1,-1.41 -0.8,0.59 c -1.9,1.62 -3.7,3.65 -4.6,5.5 l -1,1.99 0.7,1.29 c 0.7,1.13 0.8,1.23 1,0.81 0.2,-0.26 0.8,-1.14 1.4,-1.96 z m 7,-6.81 0.8,-1.21 -1,-1.03 -1,-1.04 -0.9,0.89 -0.9,0.9 0.9,1.34 c 0.5,0.74 0.9,1.35 1,1.35 0.1,0 0.6,-0.54 1.1,-1.2 z m 12.6,259.4 c 5.5,-7.7 11.9,-14.2 17.2,-17.9 2.2,-1.5 6.2,-3.4 9.5,-4.7 3,-1.1 8.9,-2.6 11.1,-2.9 1.5,-0.1 1.5,-0.1 -1.3,0.9 -6.7,2.3 -16.2,6.9 -20.7,9.9 -2.6,1.8 -6.3,5.3 -13.8,13.2 -1.5,1.6 -2.8,2.9 -2.8,2.9 -0.1,0 0.2,-0.5 0.8,-1.4 z m 25.4,-142.7 c 0.1,-0.8 0.2,-2.5 0.1,-3.7 0,-1.7 -0.1,-2.2 -0.6,-2.5 -0.6,-0.5 -0.4,-0.8 0.7,-0.8 1,0 1.5,0.5 0.8,0.7 -0.6,0.3 -0.5,0.9 0.1,0.9 0.8,0 1,0.6 0.4,1 -0.3,0.2 -0.5,1.1 -0.9,3 -0.5,2.8 -1,4.1 -0.6,1.4 z m 19.1,-91.93 c 0.4,-0.11 1,-0.21 1.3,-0.21 0.6,0 0.6,0 -0.1,0.21 -0.4,0.11 -1,0.21 -1.3,0.21 -0.4,0 -0.4,0 0.1,-0.21 z"
       id="path48120"
       inkscape:export-filename="lotus2.png"
       inkscape:export-xdpi="200"
       inkscape:export-ydpi="200" /></g></svg>
