<svg width="155.6mm" height="270.9mm" viewBox="0 0 155.6 270.9" xml:space="preserve" xmlns="http://www.w3.org/2000/svg"><path style="fill:#e6e6e6;stroke-width:.264544;fill-opacity:1" d="M128.6 282.8c-.3-.3-.1-1.9.3-2.4.7-.8 3.9-7.2 3.7-7.4-.1 0-1.9 1-4 2.3-2.1 1.3-4.1 2.4-4.3 2.4-.9 0 .4-1.1 5.1-4.5 2.7-1.9 5-3.8 5.1-4.1.1-.3.6-1.3 1-2.2 3.8-8.2 11.9-29.1 11.2-29.1-.4 0-5.8 7.1-9.8 13.1-5.2 7.7-8.6 13.7-10.7 18.8-1.4 3.4-2.8 5.8-4.4 7.5-1.1 1.3-2.7 2.4-3.1 2.4-.4-.3.6-3.6 1.4-5.4.4-.8 1.6-2.7 2.7-4.3 2-3 4.5-7.4 8-13.9 2.8-5.1 5.9-9.5 12.2-17.2 2.4-2.8 5.5-6.9 5.5-7.1 0-.1.3-1.6.6-3.3.5-3.3.6-5.2.3-5.2-.5.1-3.8.9-5.8 1.5-7 2.3-12.7 7-19.1 15.6-3.8 5.1-3.5 4.3-3.5 7.8s-.4 7.5-.8 8.4c-.2.4-.6.7-.8.8-.7.1-.9-1.8-.6-5.8.2-2.5.2-3.3 0-3.1-.2.1-.9 1.1-1.6 2.3-1.3 2-1.3 2.1-2.1 7.1-1.5 8.7-2.6 13.8-3 14.2-.3.3-.5.4-1 .1-.4-.1-.7-.4-.7-.6 0-.2.6-2.7 1.2-5.6 2.2-9.7 3.7-19.1 4.7-28.1.7-7.2.7-8.3 0-10-1.2-2.9-3.3-6.9-5.2-9.8-2.2-3.2-2.9-4.1-3.2-3.5-.7 2.1-3.7 16.5-4.1 20-.6 5.4-.1 9.3 1.9 15.2 1.6 4.9 2.5 9.1 3.1 14.9.4 4.8.3 7.5-.4 7.8-.6.2-.6 0-.8-2-.3-5.8-2.4-16.3-4.1-21.1-1.2-3.3-1.6-6.4-1.6-11.5 0-6 .4-8.6 2.8-16.9 2.4-8.7 2.4-8.3 1.1-9.7-1-1-.7-.9.6.2.5.5.6.5.7 0 .5-1.6 1-6.4 1-9.8 0-11.5-1.4-17.1-5.8-23.8-.9-1.4-1.5-2.5-1.4-2.5.5 0 3.2 3.3 4.2 5 2.9 4.9 3.6 8.7 4.2 21.6l.2 4 .7-2.3c.4-1.2 1.5-4.6 2.4-7.5l1.7-5.3-1-3.4c-1.6-5.5-3-9-5.7-13.4-2.7-4.7-5-7.6-9.26-12-2.7-2.7-2.4-2.9.6-.5 2.76 2.3 6.86 6.8 8.86 9.7 2 3.1 4.7 8.3 6.4 12.4.6 1.6 1.1 2.8 1.2 2.8 0-.1 1.5-4.5 3.3-9.9l3.4-9.9-1.7-1.1c-2-1.4-3.1-1.8-4.9-1.8-1.2 0-1.3-.1-1.3-.6 0-.2.7-1.7 1.7-3.1 1.3-1.9 2.1-2.8 3-3.4 1.3-.8 3.6-1.5 4.5-1.3.8.2 1.3-.6 1.3-2.2.3-10.1 2.5-25.2 5.6-37.9l1-4.2-1.1-4.1c-1.8-6.5-3.8-14.56-4.2-17.18-1.2-6.8-1.3-16.88-.2-30.03.2-3.57.4-6.5.4-6.56 0 0-.7.24-1.5.61-2.8 1.27-8.6 2.01-11.5 1.48-3.4-.63-7.2-3.3-9.5-6.66-.5-.8-1.6-3.05-2.5-5-.9-1.96-1.76-3.68-1.86-3.81-.1-.16-.2-.35-.2-.43 0-.1 2.96-.13 6.66-.13 6.5 0 6.7 0 8.6.72 2.5.84 4.5 2.03 5.9 3.33.8.74 1 .85.9.45-.1-.29-.5-1.54-.9-2.78-.6-1.98-.7-2.68-.7-6.08 0-4.93.7-7.54 2.7-9.86.6-.68.7-.98.5-1.34-.1-.26-.2-.66-.1-.89.2-.36.3-.36.8 0 .7.41.7.4 1.4-.96 1.2-2.24 2.1-3.52 3.8-5 .9-.77 1.6-1.52 1.6-1.68 0-.16.2-.52.4-.8.4-.49.4-.49.8-.1.4.56.7.3 1.3-1.21.5-1.15 1.1-1.26 1.3-.25.1.4.6 1.11 1 1.58.6.66 1 .81 1.5.7.6-.11.8 0 1 .48.2.34.8 1.21 1.4 1.93 1.4 1.79 3.8 6.45 4.5 8.87.4 1.1.9 2.4 1.3 2.91.8 1.21 1.6 3.99 1.6 5.46a7 7 0 0 0 .1 1.16c.1 0 .7-.24 1.3-.53 2.4-1.03 6.1-.98 8.8.12l1 .43-.9.94c-.4.52-.7.99-.7 1.06.1.1.7 0 1.3-.16 1.8-.42 7.3-.34 8.9.13l1.4.4-.6 1.44c-1.6 3.47-4.1 6.25-7.3 7.81-2.8 1.43-5 1.9-9.2 2.03-5.3.16-5.2.1-3.3 1.88 1.2 1.19 1.6 1.83 2 3.07 1.5 5.03-2.3 9.82-7.6 9.34-3.5-.32-8.7-3.89-11.5-7.88-1.2-1.86-1.3-1.88-1.5-1.14-.1.42-.4 4.63-.7 9.36-1 14.95-.5 21.75 2.9 35.85.6 2.32 1.1 4.62 1.2 5.02.1.5.3 1 .4 1 .1.1.5-1 .9-2.4 4.3-15.45 10-26.66 18.8-36.82 2.8-3.15 7.3-7.51 10.2-9.9 3.8-3.04 10-6.95 14.4-9.15 3.8-1.88 9.1-4.07 9.3-3.86.1 0-1 .55-2.3 1.16-6.1 2.81-14 7.89-20.7 13.52-4.7 3.89-5.9 5.03-8.8 8.33-8.1 9.34-15 23.42-20.2 41.22l-.6 2 1.6 5.1c.9 2.8 2.4 7.4 3.3 10.2l1.7 5 3.3-.1c1.8-.1 3.3-.1 3.4-.2 0-.1-.1-1-.4-2-1.3-5.4-.6-12 1.9-17.5.8-1.9.9-2.2.7-3.6-.1-1.6-.1-1.6.5-1.6.4 0 .8.3 1.2.8.3.4 2.1 1.8 4.1 3.1 3.9 2.5 5.9 4.3 7.4 6.5 1.2 1.8 2.6 4.8 3.2 6.8.5 1.6.4 2.1-.1.6-.6-1.7-2.3-5.1-3.5-6.6-1.4-1.9-3.3-3.4-6.7-5.4-1.6-.9-3.2-1.9-3.6-2.2-.8-.5-1.3-.4-1.3.3 0 .3-.3.9-.6 1.5-.4.5-1 1.7-1.3 2.7-2.1 6-2.1 13 .1 19.7.8 2.3.4 2.2-.4-.1l-.8-2H145c-3.1 0-5.2.5-7.3 2-2.2 1.4-2.6 1.4-4.3-.5-1.3-1.4-1.8-1.5-2.3-.9-.5.6.1 1.7 2.8 5.6l1.9 2.8 1.8.1c1.1 0 2.5.3 3.6.7 1.9.7 5 2.4 5.5 3 .4.4 1 .5 1 .1 0-.1.3-.3.6-.4.5-.1.5-.2-.4-.7-.5-.2-1.3-.5-1.7-.5-.9 0-1.3-.4-.8-.9.4-.6 1.3-.5 1.5.1 0 .2.9.9 1.9 1.3l1.7.9-.7-.8c-.5-.5-1-.8-1.3-.8-.7 0-.9-.8-.4-1.2.4-.3.3-.5-.8-1.7-.7-.8-1.4-1.4-1.7-1.4-.4 0-.5-.1-.4-.5.1-.8 1.1-.9 1.2-.1.1 1 1.2 1.8 2.4 1.7.9 0 1.1 0 1.3.6.2.6 3.5 3.1 3.5 2.6 0-.4-2-2.1-2.5-2.2-.3-.1-.6-.4-.7-.7-.1-.5-.5-.8-1-1.1-.9-.4-1.1-.8-.5-1.3.5-.4 1.2-.2 1.2.5 0 .5.5 1 1.2 1.1.3.1.6.4.7.9.1.4.7 1.2 1.2 1.7l1 .9-1.3-2.2c-.8-1.3-1.6-2.3-1.9-2.4-.6-.3-.8-1.2-.3-1.5.4-.2.3-.6-.3-.6-.3 0-.5-.2-.6-.3-.2-.6.3-1.3.9-1.3.5 0 .6.3.5 1 0 .4 3.7 6.4 4 6.4.1 0 0-.5-.3-1.1-.3-.6-.7-1.6-1-2.1-.2-.5-.6-1-.9-1.1-.6-.2-.6-.8-.1-1.2.6-.6 1.2-.2 1.1.8 0 .5.4 1.6.9 2.5.8 1.6 1 1.9 1.4 1.5.2-.2-.8-2.1-1.3-2.3-.3-.1-.4-.4-.3-.9.2-.9-.5-2.1-1.6-2.4-.6-.3-.8-.9-.3-1.2.1-.1.5-.1.9 0 .5.1.7.3.7.8 0 .4.3 1.1.7 1.7.4.5 1.1 1.5 1.5 2.2.8 1.1 1.2 1.5 1.2 1 0-.7-2-4.8-2.6-5.2-.5-.5-.6-.6-.2-.9.7-.6 1.3-.3 1.3.8 0 .8.1.9 1 .9.8 0 .9.1.8.6 0 .3.3 1.2.7 1.9.9 1.5.8 1.5 1 1.2.1 0-.2-1.2-.6-2.6-.7-2-1-2.5-1.5-2.6-.4-.2-.5-.3-.2-.6.5-.6 1.5-.4 1.5.1-.1.3.1.4.7.3.8-.1 1.1.3.7 1-.2.3-.1.8.4 2.1.9 2.5 1.3 2.5 1.1-.1-.2-2.9-.3-3.3-.8-3.2-.4 0-.6-.4-1-1.7-.3-.9-.7-1.8-.9-2-.4-.3-.4-.4 0-.8.5-.5 1.1-.2.9.5-.1.3 0 1 .3 1.7.3 1 .5 1.1 1.1 1.1.8 0 1.4.6.9.8-.7.2-.4.8.3.6.5-.1.7-.2.7-.9 0-.4-.2-1.2-.5-1.7-.3-.8-.4-.9-.1-1.1.2-.2.6-.1.9 0 .4.2.4.3.2.7-.3.3-.3 1.5.1 3.6.1.2.1.8.1 1.3l.1 1.1.6-.7c.7-.6.7-.7.5-2.3-.1-1.1-.3-1.8-.5-2-.5-.3-.2-.7.4-.7.5 0 .5.2.5 1.9 0 1 .1 1.8.2 1.8.4 0 1.2-1.8 1.2-2.6 0-.4-.2-.9-.4-1.1-.5-.4-.3-.8.5-.8.7 0 .9.6.4 1-.5.2-.3 2.1.3 2.6.5.5.5.5.5-.2 0-.4-.1-1.4-.2-2.3-.1-1.4-.2-1.6-.8-1.7-.9-.3-.7-1.1.3-1.1.7 0 .8.1.8.9.1 2.8.5 5.4 1 5.9.5.4.5.3.5-2.8 0-1.9-.1-3.3-.3-3.4-.4-.3-.3-.6.3-.8.3-.1.7 0 .9.2.4.3.4.4 0 .7-.3.4-.4 1.3-.4 3.8-.1 2.9 0 3.3.3 3.4.4 0 .5-.2.5-2 0-1.2-.1-2.2-.3-2.4-.4-.4-.1-.9.6-.9.6 0 .9.5.5.9-.1.2-.4 1.4-.4 2.7-.2 2.2-.2 2.4.3 2.9.6.5.6.5 1.4-1.3.5-1 .8-2 .6-2.3 0-.4 0-.5.3-.7.6-.2 1-1.8.8-2.7-.1-.8-.1-.8.4-.8.3 0 .6 0 .6-.1s-.2-1.3-.5-2.8c-.4-2.8-.3-5 .3-7.5.6-2 2.1-3.6 4-4.3 1.4-.5 1.4-.5 1.6-1.7.2-1.3 1-3.3 1.6-4 .5-.6.4-.6-1.2-.2-2.6.6-5.6 2.5-8.1 5-2.8 2.9-4.8 6.3-6.4 10.8-.7 2-.8 2.3-.7 1.4.2-1.7 1.3-4.9 2.4-7 3.1-6.2 8.2-10.4 14.5-12 1-.3 2.2-.7 2.6-1 .9-.6 1.5-.4 1.5.5 0 .3-.4 3.8-.8 7.8s-.8 7.4-.8 7.5c0 .1.7-.5 1.6-1.5 1.8-2 4.3-3.4 7-4 2.4-.6 8.8-.7 11.3-.2 2.9.6 3.4 1.9 1.1 2.7l-1.2.3v3.4c0 4.4-.5 8-1.5 10.7-.6 1.4-.5.6 0-1.5.5-1.8.6-3.1.6-7.7 0-3 0-5.5-.1-5.6-.4-.2-1.9 1.2-2.4 2.4-.5.8-.6 1.5-.6 2.7v1.7h-.8c-1.1 0-2 .5-3.6 2.2-1.3 1.3-1.4 1.4-.8 1.6.4.1.9.1 1.1.1.3 0 .9.2 1.4.5 1.1.5 1.2 1.2.3 2.2-1 1-2 3.2-2.7 6-.3 1.4-.6 2.7-.6 2.8 0 .2 1-.7 2.2-1.9 3.4-3.4 5.6-4.6 8.8-5 2.8-.3 6.8 1.2 9 3.4 1.3 1.3 1.4 2 .5 2.9-.7.6-.7.7-.7 4.4 0 4.1-.2 6-1.2 8.9-.8 2.5-1.6 3.6-3.7 5.3-3.5 2.7-6 4.2-9.1 5.2-1 .3-1.9.6-2 .7-.2 0 .3.7 1 1.5 1.5 1.5 3 4.2 3.7 6.5.2.8.7 3.3 1.1 5.5.4 2.2.9 4.7 1.2 5.3.3.8.5 1.6.5 2-.1.5-.2.6-1.8.6-1 0-3 .3-4.5.6s-3.8.6-5 .7c-7.3.6-16-3.1-23.1-9.6-1.2-1.1-2.1-1.9-2.2-1.9 0 .1.6 1.7 1.3 3.7.8 2 1.5 4.1 1.6 4.8.5 3.1-1.4 10.8-4.8 19.3-1.4 3.5-5.6 12.4-7.4 15.4-.6 1.1-1.2 2.1-1.2 2.1 0 .1.4.2.7.3 1.4.4 7 3.2 10.6 5.3 5 3 5.4 3.4 1.4 1.4-1.8-1-4.3-2.1-5.6-2.7-2.4-.9-7.1-2.2-7.9-2.2-.2 0-.8.6-1.4 1.5-1.8 2.7-4.2 5.7-5.8 7.3l-1.6 1.6-1.4 4.6c-1.9 6.2-4.9 15-7.4 22-1.2 3.1-2.1 5.7-2 5.8.1.2 10.2-6.5 14.2-9.5 2.8-2 2.5-1.8 5.3-4.9 12.9-14.4 21-20.6 33-25.4 3.4-1.3 10.8-3.6 13.5-4.1 1.8-.3 1.9-.5 3.3-2 3.4-4 6.3-8.7 7.2-12.3.5-2.1 1-5.8.7-5.8-.1 0-.8.3-1.7.8-.8.4-2.4 1-3.5 1.4-1.1.4-3 1.3-4.3 1.9-2.8 1.3-6.5 2.5-9.8 3.2-2.3.5-2.5.5-3 1.4-1.4 2.7-6.1 2.3-6.1-.5 0-.7-.1-.8-.9-.8-1.3 0-2.5-1.5-2.3-2.9 0-.2-.2-.8-.4-1.4-.6-1.4-.5-2.1.4-3.4.9-1.5 2.8-2.8 4.4-3.3.9-.2 1.3-.5 2.4-1.8.7-1 1.7-1.9 2.4-2.2.6-.3 2.1-1.2 3.3-2 3-2 4.3-2.7 6.4-3.5 1.3-.5 2.3-1.2 3.4-2.1 2.1-2.1 4.8-3.3 8-3.8 3.1-.5 3.8-.7 5.4-1.8 1.6-1.1 2.2-1.4 5.1-2 1.3-.3 3.3-.9 4.3-1.4 1.1-.6 2.5-1.1 3.1-1.1.9-.2 1-.1 1.2.5.4.9.8 1.2 1.2.7.5-.8 2.3-1.8 3.1-1.8 2.2 0 3.9 1.2 3.9 2.7 0 .5.1 1 .1 1 .1 0 .8-.4 1.6-.6.8-.4 1.8-.5 2.2-.5 1.5 0 3 1.5 3.6 3.8.6 2.1-.5 4.4-2.7 5.5-1.2.6-1.5.5-2.4-.8-.8-1.2-1.6-1.4-1.6-.5 0 .9-1.6 3.6-2.7 4.5-.9.9-2.5 1.5-3.6 1.5-.3 0-.9.4-1.4.8-2.3 1.9-4.6 2.9-6.9 2.9-1.1 0-1.6.2-2.7 1-1.7 1.1-4.1 2.1-5.6 2.4l-1.1.1-.1 2.7c-.3 5.1-1.8 9.1-5.7 14.9-1.2 1.8-2.2 3.3-2.2 3.4 0 0 1.4-.2 3.2-.4 13.4-2.1 26.4-3 33.3-2.4 1.8.2 3.5.4 3.6.5.2.1-1.5.2-3.9.1-8-.2-20.7 1-33 3.1-4.6.9-4.5.7-7.3 3.5-4.4 4.5-13.6 11.7-21.3 17-1.7 1.1-3.1 2.1-3 2.1 0 .1.9 0 1.9-.1 12.1-2 25 .4 34.6 6.4 3.6 2.1 5.5 3.8 8.5 6.6 2.8 2.7 4.5 4.8 2.1 2.5-2-1.8-5.7-4.6-8.3-6.4-2.8-1.9-8.9-4.9-12.1-6-4.8-1.6-7.5-2.1-12.9-2.3-7.2-.2-15.9.7-17.7 1.9-.5.4-1.1.7-1.1.7-.2 0-6.8 4-8.9 5.5-3.6 2.3-14.8 13-17.9 16.9-3.5 4.7-5.2 6.4-6.7 7.5-1.7 1.3-3.2 2.2-3.9 1.8-.5-.3-.1-1.1 1.6-2.8.8-.8 2.6-3 4-4.8 5.2-6.4 14.9-15.5 22.4-21 2.6-1.9 3.2-2.5 2-2.1-1.2.3-7.6 3.6-10.7 5.5l-3.3 2-5.7 6.6c-3.1 3.6-6.3 7.3-7.1 8.3-3.3 4-8.3 8.8-9.2 8.8-1 0-.2-1 3.1-4.3 3.7-3.7 13.7-15.3 13.7-15.9 0-.1-1.5.9-3.2 2.1-1.8 1.2-4.3 2.9-5.5 3.8-4.4 3-4.6 3.2-5.7 5.9-3.3 7.9-5.8 11.6-8 11.6-.4 0-.9 0-1-.3zm42.3-35.7c1.5-.5 3.5-1 4.7-1.2 1.9-.3 2.1-.5 7.4-4.2 3.1-2.1 6.6-4.6 8-5.6 4.3-3.2 14.3-12 14.1-12.3-.4-.3-9.9 2.9-13.4 4.5-.9.4-2 .9-2.5 1.1-1.6.7-6.3 3.4-8.8 5-3.1 2.1-6.3 4.6-9.2 7.2-2.7 2.3-9.4 9.1-9.4 9.4 0 .1 1.4-.6 3.2-1.5 1.8-.8 4.4-1.9 5.9-2.4zm-52.7-.5 1.3-2.1-.2-2.9c-.1-2.7-.7-6.6-1-6.9-.1-.1-.2.7-.3 1.7-.1 1-.5 4.1-.8 6.9-.4 2.8-.7 5.3-.7 5.5 0 .6.3.3 1.7-2.2zm4.4-6.8c1.9-2.8 3.7-4.9 6.8-8 5.6-5.5 9.8-7.8 19.4-10.5l1.2-.3.2-2c.1-1.1.2-6.2.4-11.4.1-8.4.1-9.3-.3-9.2-3.6 1.4-4.5 1.9-5.8 3.5-1.1 1.1-1.6 1.5-2 1.4-.8-.3-2.7-4.7-3.8-9.2-.8-3.6-.9-8.6 0-11.1.8-2.3 2.9-5.8 4.7-7.6 1.4-1.3 1.8-1.9 1.2-1.5-.2.1-1.9.1-3.9.1-6 .1-10.1-1.2-14.9-4.7-1.3-.9-2.5-1.6-2.7-1.7-.1 0-.5.7-.9 1.9-.3 1.1-1 3.1-1.4 4.5-.4 1.4-1.7 5.4-2.8 9l-2 6.4.8 3.6c2 9.2 2.7 18.7 2.1 30.4-.2 5.8-.2 6.5.2 7.7.7 2.1 1.4 5.9 1.6 8.6.1 1.4.2 2.5.3 2.4.1-.1.8-1.1 1.6-2.3zm-2.5-5.9c-.3-.6 1.1-6.3 2.6-10 1.9-4.8 4.8-9 7.7-11 3.4-2.3 8.5-4.4 11.2-4.7.9-.1 1.7-.1 1.7 0s-.9.5-2 .9c-4.4 1.7-8.9 4.2-11.7 6.4-3.4 2.7-7.4 10.5-8.4 16.4-.3 1.9-.7 2.6-1.1 2zm33.7-8.8c.9-1.2 1.6-2.2 1.6-2.2 0-.1-.6-.2-1.4-.2h-1.4l-.2 1.6c-.1 1-.3 2-.3 2.3-.1.3-.1.6 0 .6s.8-1 1.7-2.1zm-36.6-9.4c-.1-7.7-.5-12.4-1.3-17.5-.7-3.9-1-5.2-1.3-4.8-.3.6-4.2 12.7-5.4 16.5-.9 3.3-.9 3.4-.4 3.9.2.4 1 1.3 1.7 2.2 1.7 2.1 4.1 5.6 5.4 7.9l1 1.8.2-1c.2-.6.2-4.6.1-9zm40.5 4c1.2-1.3 5-8.7 7.3-13.9 1.7-4.1 4-10.4 4.9-13.8.6-2.3.7-3.3.7-5.8 0-2.8-.1-3.3-1-6.1-.6-1.7-1.1-3.1-1.2-3.2-.1-.2-.3.6-.4 1.6-.2 2.5-.6 4-1.5 6.1-1.9 4.3-7.1 9.5-12.1 12.1l-1.2.7v7.9c0 4.4-.1 9.6-.2 11.6l-.2 3.6 2.1-.1c1.9-.1 2.3-.2 2.8-.7zm36.2-8.6c1.3-1.2 1.8-3.1 2-6.8.1-1.9.3-3.8.5-4.2.3-.7.3-.7-.4-.6-.4.1-1.8-.1-3.1-.4-2.7-.7-3.7-.5-5.6 1.1-1.8 1.7-2.4 3.2-1.7 4.5.2.5.3.5.7.2.4-.4.4-.1-.1.9-.4.8-.4.9 0 1.7.5.9.9 1.1 2.3 1.2.4.1.6.3.7.6 0 1.1.3 1.9.9 2.2 1 .5 3.1.3 3.8-.4zm6.2-3c2.8-.7 4.9-1.5 6.9-2.4l1.7-.9-5.8-.1c-3.2-.1-5.9-.2-6.1-.3-.2-.1-.3.3-.5 1.4-.1.9-.2 2-.3 2.5l-.2.7 1.2-.2c.6-.1 2-.4 3.1-.7zm11.5-4.4c2.5-.9 5.4-2.4 5.7-2.9.4-.7.2-1.1-.7-1.1-1 0-5.8-1.7-8.2-2.9-1.2-.6-2.3-1.1-2.4-1-.1 0-1.1-.3-2.1-.7l-1.9-.8-1 .5c-2.1 1.2-4.3 4.8-4.5 7.6l-.1 1.5 1.9.1c4.1.4 4.7.4 8.2.3 2.6-.1 4.1-.3 5.1-.6zm-67.9-8.4c.6-1.1 2.5-2.8 4-3.5.5-.3.5-.5.4-1.7-.2-1.8.2-4.4 1-6.4 1-2.6 2.8-4.2 7.5-6.6 2.2-1.1 4.5-2.4 5.1-2.9.9-.9 2.6-3.5 2.3-3.8 0-.1-.8-.3-1.7-.5-1-.2-2.3-.7-3.1-1.2l-1.3-.7-4.2 2.2c-5.6 2.8-7.8 4.3-10.2 6.7-3.4 3.5-4.6 6.8-4.4 12.6.1 3.5.6 5.3 2.2 9l1 2.1.4-2.1c.2-1.3.6-2.6 1-3.2zm5.3 2.2c10.3-3.6 15.4-8.1 17.8-16.1.6-1.6.7-2.5.7-5.3 0-2-.2-3.7-.4-4.5-.4-1.2-.4-1.3-1.2-1.3-.7 0-.9.2-1.5 1.4-.3.8-1.3 2.1-2.3 3.1-1.5 1.5-2.2 1.9-4 2.6-5.3 2.1-8.2 5.1-8.6 8.9-.1.8-.1 2.3.1 3.4.4 2.4.3 2.5-1.9 3.6-2.9 1.5-3.9 2.9-3.9 5.2 0 1.9.2 2.2.9 1.1.6-.8 1.1-1.1 4.3-2.1zm74.1.9c2.3-.9 4.3-2.1 3.7-2.3-.2 0-.8-.2-1.4-.4-1.6-.5-4.1-1.8-5.6-2.9-.8-.6-1.5-1.1-1.6-1.1-.1 0-.9-.4-1.8-.9-1.2-.7-1.8-.9-2.9-.9-2.7 0-4.9 1.7-5.5 4.2-.1.6-.3.6-1.1.4-1.9-.3-1 .6 1.9 1.9 6.8 3.2 10.1 3.7 14.3 2zm-26.8.6c.3-.1 1-.7 1.4-1.4.5-.7 1.5-1.9 2.2-2.6l1.4-1.2-2.5.1c-3.3.2-4.6.8-6.1 2.7-.6.8-1.1 1.5-1 1.6 0 0 .7.2 1.4.5 1.5.5 2.3.5 3.2.3zm36.9-4.2c.8-.4 1.9-1 2.4-1.5.8-.7.8-.7.3-.8-1.5 0-5-1.2-9.2-3.2l-4.6-2.1-1.2.4c-1.8.7-2.4 1.5-2.3 3.1.1.8 1.9 2.2 4.4 3.5 2.4 1.2 3.7 1.5 6.4 1.4 1.9 0 2.6-.2 3.8-.8zm-26.5-.8c.8 0 .9-.1 1.2-1.1.5-1.2 2-2.6 3.4-3.1 1.2-.3 1.3-.6.2-.9-2.7-1-5.2-.6-8.5 1-1.9.9-5.8 3.3-5.8 3.5 0 0 1 .1 2.2.1 1.7 0 2.5.1 3.4.5 2.5 1.2 2.5 1.2 2.8.5.2-.3.6-.5 1.1-.5zm33.3-2.5c1.6-.8 3-2.9 3.6-5.1.2-.7.2-.7-1.2-.7-.9 0-2.3-.3-3.7-.8-3.4-1.2-5-1.4-6.6-1.1-1.9.4-3.7 1.8-4.7 3.5l-.8 1.4.9.5c1.4.7 4.6 2 6 2.4 2.2.6 5.1.5 6.5-.1zm-21.9-.9c-.1-1.4 0-1.8 1.1-2.6 1.9-1.3 2.7-1.4 5-.4l1.9.9.9-1.5c.5-.8.8-1.5.7-1.6-.5-.4-3.7-1.6-5.2-1.8-3.3-.6-5.3-.6-7.3-.2-2.3.5-5.2 1.9-6.9 3.3l-1.2 1.1h1.1c1.3 0 3.7.6 4.5 1.1.3.3 1 .5 1.5.5s1.4.3 2.3.9c.8.5 1.5.9 1.6.9v-.6zm30-3.5c1.3-.7 2.3-2.3 2.3-3.7 0-1.2-.9-3.1-1.8-3.8-1-.8-2.3-.7-5.4.6-.4.2-.5 0-.5-1.2-.1-1.6-.9-2.3-2.7-2.5-1.4-.2-2.8.5-3.5 1.6-.4.6-.5.6-1.1.3-.3-.3-.7-.7-.7-1-.3-.7-1.3-.6-3.5.5l-2 1 1 .4c1.4.6 1.9 1.4 1.9 2.8v1.2h1.6c1.1 0 2.5.3 4.4.9 1.9.6 3.4.9 4.3.9 1.8 0 2.9.6 3.7 1.8.3.5.7.9.8.9.1 0 .6-.3 1.2-.7zm-47.5-1.7c1.2-.3 2.2-.7 2.2-.8 0-.1-.9-.4-2-.6l-2-.3-.7-1.4c-1.1-2.4-3.4-3.5-7.1-3.6-2.1 0-4.2.5-5.1 1.2-1.1.8-1.6.6-4.2-1.7-3.5-3.1-6.1-4.8-10.1-6.5-2-.7-3.6-1.4-3.7-1.3 0 .1.7 1.1 1.6 2.2 5.8 7.1 12.7 11.7 20 13.2 2.7.5 8.4.4 11.1-.4zm28.9-1.1c.6-.4 1.4-.8 1.6-.8.5 0 .5-.1.5-1.5-.1-1.5-.2-1.5-1.2-2-2.3-1.2-6.2-.5-9 1.5l-1.5 1.1 2.4.5c1.4.2 3.2.8 4.1 1.2.9.4 1.7.8 1.8.8.2 0 .7-.3 1.3-.8zm-24.1-2.9c-.1-1.1-.4-3.1-.5-4.6-.1-1.5-.5-3.4-.8-4.4-1.2-3.6-3.8-7-6.4-8.4-2-1-5.5-1.6-8.9-1.6h-3l-3.8 1.8c-2 1-3.8 1.9-4 1.9-.1 0-1.3.6-2.4 1.4-1.2.8-2.9 1.6-3.7 1.9-2.8.8-2.7.8-.7 1.4 3.6 1.2 7.7 3.7 11 6.7 2.1 1.8 2.4 1.8 4.8 1 2-.7 4.8-.9 6.5-.5 2.4.5 4.2 2 5.5 4.4.1.2 1.5.5 3.4.7 1.7.2 3.2.3 3.2.3.1 0 0-.9-.2-2zm-62.9-7.9 3.5-.3 5.1-2.5c2.7-1.4 5.1-2.7 5.2-2.8.1-.1-.7 0-1.9.2-1.1.2-3.3.4-4.8.4-3.5.1-4.6-.4-9.2-3.4-4.1-2.8-6.1-3.7-8.2-3.9-1.9-.2-3.2.3-5.4 2.1-1.8 1.5-2 1.5-3.1-.4-.8-1.4-1.6-1.8-3.2-1.8-1.4 0-2.5.3-3.2.9-.4.4-.3.6 1.8 2 1.3.8 3.6 2.5 5.2 3.6 5.3 3.9 9.2 5.5 14.3 6.1.2 0 1.9-.1 3.9-.2zm26.7-.2c0-.2-1.3-1.7-1.4-1.7-.1 0-.1.5 0 1 .1 1 .2 1 .7.9.4 0 .7-.1.7-.2zm.3-4.2c3.3-.7 7-2.8 8.1-4.8 2.3-3.9 2.8-12.2 1.1-16.9-.8-2.2-3.4-5.9-5.5-7.8-1.8-1.7-5.3-4.5-5.6-4.5-.1 0-.4.4-.6.9-.3.5-1.1 1.2-1.9 1.7-4.9 3-8.8 10.6-9.7 18.9-.7 6.1 1 10 5.2 11.9.9.4 1.9.8 2.2.8 1.5.3 5 .2 6.7-.2zm-15-1.7c2.4-.5 2.4-.5 1.8-1-.2-.3-1.1-.7-1.8-1-7.3-2.6-16.8-10.1-19.9-15.7-.9-1.6-1.5-1.8-3.2-1.2-2.3.9-4.6 3.6-5.6 6.7l-.6 1.6h-1.7c-1 0-2.3.2-2.8.3-1.1.3-2.5 1.4-3.2 2.6l-.4.7 2.1-.1c2.4-.1 3.8.3 5.2 1.5l.9.7 2.1-1c4.5-2.3 7.4-1.6 14.5 3.6 2.7 1.9 3.5 2.3 5.2 2.6 1.3.3 5.3.1 7.4-.3zm.8-3.5c-.5-1.3-.6-1.4-1.8-1.9-.7-.2-1.6-.7-2-1l-.7-.7.5-1.7c1.2-4.6 0-9.1-3.2-12.3-1.3-1.3-2.2-1.9-4.8-3.2-3.9-1.9-4.6-2.1-6.4-1.5-1.7.5-1.4.6-3.7-2.7-.9-1.4-1.7-2.4-1.8-2.3-.5.5 1.8 8.3 3.4 11.6 3.3 6.8 7.7 10.5 19.7 16.7.6.3 1.1.5 1.1.5.1 0-.1-.7-.3-1.5zm28.6-1.6c3.4-2.3 6-5.2 7.6-8.3 1.5-2.9 3-8.9 4.1-16.5.3-1.9.8-4 1.1-4.7.3-.6.5-1.2.5-1.3 0 0-.3 0-.7.1-1.2.2-2.2 1.1-3.3 3.2-.6 1-1.2 2-1.4 2.1-.1.1-.5-.1-.8-.5-.6-.8-2.1-1.2-3.4-.8-2.5.7-4.4 2.9-6.9 7.8l-1.5 2.9.6 2.3c.4 1.6.6 3.2.7 5.7.1 4.2-.3 6.5-1.7 9.2-.5 1-.9 1.9-.9 1.9 0 .2 4.8-2.4 6-3.1zm18.8.5c4.1-1.7 7.7-4.1 9.5-6.5 1.8-2.2 3-7.6 2.6-11.8-.1-1.3-.2-2.9-.2-3.6-.1-1.5-.3-1.6-1.7-.7-1.4.8-1.8 1.7-1.9 4.5-.2 2.3-.2 2.5-.7 2.4-.3-.1-1.5-.1-2.6-.1-2.6 0-3.6.4-5.2 2-1.4 1.6-2.2 3.3-3.1 6.8-.8 3.4-1.6 5-3 5.8-1 .5-1.4 1-.7 1 .2 0 .9.3 1.7.7 1.5.7 2.4.6 5.3-.5zm-7.1-1.5c1.6-1 2.2-1.8 2.8-4.3 1.7-7 3.5-9.8 7.2-10.9.7-.2 1.9-.4 2.7-.4h1.5l.2-1.7c.3-3.1 1.8-5.1 4.1-5.6.4-.1.8-.3.8-.4 0-.4-1.8-2-2.8-2.6-4.2-2.1-9.1-.6-14.4 4.7-1.9 1.9-2 2.1-2.3 3.8-1.5 7.8-3.6 12.3-7.4 16.2l-1.8 1.7 3.3.1c1.8.1 3.6.1 4 .2.4 0 1.3-.4 2.1-.8zm-41-2.2-.1-2.7-.9-.8c-.8-.8-1-.9-1-.4-.1.2-.4 1.4-.6 2.6-.5 1.9-.5 2.3-.2 2.6.3.4 2.2 1.4 2.6 1.5.1 0 .2-1.3.2-2.8zm-.4-6.3c-.8-.8-2-1-2-.3 0 .2.4.5.7.6.6.2.7.4.6.9-.1.4 0 .8.4 1.2l.6.6.2-1.1c.2-1 .2-1.2-.5-1.9zm1.5-1.8c0-.2-.5-.7-1.1-1.1-1.2-.9-1.3-.6-.2.4.4.5.8.9.8 1.1 0 .1-.5-.2-1-.7-.5-.4-1.1-.9-1.4-.9-.3 0-.6-.1-.7-.2-.2-.2.2-1 .6-1 .2 0 .3-.1.3-.2 0-.2-.1-.3-.2-.3-.2 0-.8-.3-1.4-.7-.6-.3-1.1-.6-1.3-.5-.2.2 1 2.3 1.4 2.3.1 0 .2.3.3.8 0 .8.1.9.8.8.5-.1.8 0 .9.4.1.3.5.8.8 1.2l.7.7.3-.8c.2-.5.4-1.1.4-1.3zm-24.3-3.3c1.7-.6 1.7-.6 1.4-1.2-1.7-3.4-3.5-10.7-3.6-14.2 0-1.4.9-2.2 2.5-2.2 1.2 0 2.1.6 3 2.2.6.9 1.1.9 2.1.1l.7-.6-2-6.6c-1.1-3.6-2.2-7.3-2.4-8.2-.8-2.8-.8-2.9-2.1 3.1-1.8 8.1-2.9 14.2-3.9 23.2-.3 2.7-.6 5.6-.8 6.5-.1.9-.2 1.8-.2 1.9 0 .3.8-.4 1.7-1.5 1.6-1.7 2.1-2 3.6-2.5zm24.8 1.9c0-.1.1-.3.2-.6.1-.4.1-.4-.4-.2-.3 0-.8.1-1.1 0-.4-.2-.5-.4-.5-1.3l.1-1.1h1.5c1.7 0 1.9-.2 1-.7-.5-.4-.7-.4-1.3-.1-.9.5-1.6.2-1.9-.5-.2-.6-.2-.5-.5.2-.6 1.5 1 4.4 2.4 4.4.3 0 .5-.1.5-.1zm-.1-1.5c.4-.2 1-1.3.8-1.3-.1 0-.4.2-.6.4-.2.2-.6.4-.9.4-.3 0-.5.2-.5.4 0 .4.7.5 1.2.1zm-3.4-1c-.1-.2-.2-.6-.2-1 0-.5-.2-.6-1.5-.9-.9-.1-1.9-.3-2.3-.3h-.8l.6.7c.6.6.7.6 1.3.2.5-.3.7-.4 1-.1.2.2.3.5.2.6 0 .2.2.6.6.8 1 .6 1.3.6 1.1 0zm27.4-3.7c1.2-2.9 2.4-4.9 3.9-6.3 1.7-1.8 3.1-2.3 5.7-2.3h2.1l.8-1.2c.7-1.1 1.9-2.2 3.5-3.1.4-.3.4-.4-.3-.7-2.4-.9-6.2-.5-9.8 1.2-1.5.7-2 1-2.1 1.6-.5 2.1-2.8 5.8-5.1 8.5-1.3 1.3-1.3 1.1-.2-.5 2.2-3 4-6.7 5.2-10.4.8-2.8 1.4-7.8 1.9-18.5.2-3.2.2-3.4-.2-3.1-.7.6-1.4 2.2-1.9 4.2s-.8 2.8-1.3 2.8c-1 0-3.1.9-3.9 1.6-1.1 1.1-2.1 3.4-2.1 5.1 0 .7.4 3.5.8 6.2.7 4.1.8 5.4.7 8 0 1.6-.2 3.3-.3 3.6-.2.5-.3-.2-.2-2.3.1-1.6.1-3.2 0-3.6-.2-.6-.2-.7-.8-.3-.7.5-.7 1.3 0 1.5.5.2.9 1.3.4 1.3-.2 0-.3.7-.3 1.9 0 2.4-.5 2.4-.6 0v-1.7l-.2 1.8-.2 1.9 1.4 2.1c.7 1.1 1.5 2.4 1.6 2.7.2.8.4.6 1.5-2zm-24.4 1.8c.5-.3.7-1.1.3-1.1-.6 0-1.6.7-1.6 1 0 .4.6.5 1.3.1zm2.4-.3c.3-.6.2-.6-.6-.2-.3.1-.4.4-.4.5.3.4.6.3 1-.3zm-5.2-.2c.1-.3.1-.7 0-.8-.2-.4-3.3-3-3.3-2.8 0 0 .7.9 1.6 1.8.8.9 1.5 1.7 1.4 1.7-.1.1-.8-.5-1.6-1.3l-1.5-1.4 1.2 1.4c.7.8 1.3 1.5 1.3 1.6 0 .5.7.3.9-.2zm-2.3-.2s-.4-.2-.7-.4c-.6-.3-.7-.3-.3.1.2.3.5.5.7.5.3 0 .4-.1.3-.2zm7-1.4h1c.6-.1.6-.1-.2-.4-.9-.4-1.2-1.2-.6-1.6.2-.1.3-.3.3-.4 0-.4-1.4.5-2.5 1.5-.5.5-.6.8-.4 1.1.1.1.5.3.8.3.2 0 .5.1.6.3.2.2.3.1.5-.3.1-.3.4-.5.5-.5zm-4.2 0c-.1-.3-2.4-1.9-2.6-1.9-.4 0 2.1 2.1 2.5 2.1.1 0 .2-.1.1-.2zm6.4-1.5c.5-.8.3-1.2-.3-.6-.3.2-.7.3-1 .3-.2-.1-.4 0-.4.3 0 .9 1.1.9 1.7 0zm-6-1.6c-.6-.9-1.2-1.8-1.4-1.9-.2-.1-.1.1.1.5.3.3.8 1.2 1.2 1.9.4.7.8 1.2 1 1.2.1 0-.3-.7-.9-1.7zm7.5-.8c-.1-.1-.6.1-1.1.3l-.9.4.6.2c.6.2.8.2 1.1-.3.3-.3.4-.6.3-.6zm-4.3.7c0-.1-.2-.4-.4-.7-.4-.5-.4-.4-.1.2.3.8.5.9.5.5zm18.3-2.9c.2-3.2-.1-3.7-.6-1-.3 1.7-.8 2.9-.8 2 0-.2.2-1.1.4-1.9.6-2.3.5-2.4-.5-.2l-.9 2 1.1 1.1c.6.6 1.1 1.1 1.2 1.1 0 0 .1-1.4.1-3.1zm-16.9.6c-.4-.8-.9-1.4-1-1.4-.3 0-.3.1 0 .9.8 1.9 1 2.2 1.4 2.1.2-.1.1-.5-.4-1.6zm2.5.7c-.1-.2-.4-1.2-.7-2.2-.3-.9-.7-1.8-.9-1.8-.3-.1-.1.4.3 1.7.8 2.6.8 2.6 1.1 2.6.2 0 .3-.2.2-.3zm1.9-2.2c0-.8-.1-1.6-.2-1.6-.2-.1-.3.4-.3 1.4 0 .9.1 1.6.3 1.6.1 0 .2-.6.2-1.4zm.8-.6c0-.7-.1-1.1-.2-1.1-.2.1-.1 2.3.1 2.3.1 0 .1-.5.1-1.2zm13.1-3.8c-.4-1.7-.6-1.9-.9-1-.7 1.8-.6 2 .3 2.1.5.1.9.2.9.2s-.1-.6-.3-1.3zm8.8-.9c2.7-1.6 4.2-2 7.2-2h2.6l1.4-1.8c1.1-1.4 1.9-2.1 2.9-2.5l1.3-.6-.2-1.2c-.1-1.1 0-1.5.6-2.5.4-.6 1.1-1.5 1.6-1.9.6-.5.9-.9.7-1-.6-.4-4.3-.7-6.2-.6-4.3.4-7.1 1.7-9.8 4.7-1.7 1.8-1.7 1.9-2 4.1-.2 1.2-.6 3.1-.8 4.1-.3 1-.4 1.8-.4 1.8.1 0 .6-.2 1.1-.6zm-40.2-68.17c1-.48 2.4-2.01 2.4-2.62 0-.5-1-.37-2.5.35l-1.4.63v-1.32c0-1.03-.2-1.46-.6-1.93-1.1-1.11-4-2.49-6.7-3.2-2.8-.77-6.8-1.91-7.4-2.15-.8-.31-.4.58 1.3 2.83 2.9 3.84 6.3 6.54 9.5 7.54 1.6.51 4.1.45 5.4-.13zm-.1-3.2c.1-.13.9-.26 1.6-.26 1.4 0 1.5-.1 1.8-.72.5-1.37.3-3.7-.4-4.95-1.1-1.8-3.3-3.28-4.1-2.8-1 .48-5.7 1.56-8.5 1.88-1.4.18-2.6.37-2.6.42.1.1 1.6.45 3.3.87 3.6.88 5.2 1.59 6.9 3.05.9.79 1.1 1.13 1.1 1.87 0 .88.5 1.27.9.64zm-21.9-5.98c2.6-.85 3-1.03 2.4-1.24-.3-.13-1.7-.19-3-.11-2.7.13-2.5.19-5-1.85-2.4-1.91-6.7-2.94-8.6-2.09-.4.16-.6 0-.8-.53-1-2.64-2.2-3.99-4.7-5.16-2.6-1.27-2.7-1.08-.8 2.54 2.5 5.05 5 7.78 8.3 8.84 2.3.76 2.6.79 6 .69 2.6-.1 3.4-.24 6.2-1.09zm15.6-1.93c4.6-.98 8.5-2.8 10.5-4.97 1.7-1.86 2.4-2.86 4.6-6.49 1.5-2.58 1.8-3.29 1.6-3.46-.6-.28-1.4.17-2.8 1.54-1.1 1-1.4 1.13-2.7 1.24-1.2.1-1.8.31-2.9 1.03-1.1.77-1.5 1.24-2.4 3.12-1.9 4.05-5.5 6.75-10.5 7.86-3.7.82-3.7.9-.7.76 1.6-.1 4-.37 5.3-.63zm-8.8-.74c1.6-.9 3.9-3.02 4.9-4.71 1.9-2.88 2.2-6.85.8-9.71-.8-1.53-2.8-3.98-3.7-4.46-1.1-.57-5.6 3.34-6.9 6.03-1.6 3.14-1.4 7.27.6 11.13 1.2 2.51-.7.98-2.7-2.12-1.3-2.01-3.6-3.97-6.2-5.24-3.5-1.71-4.5-1.9-10.2-1.69-2.8.11-4.9.29-4.8.42.1.11.7.53 1.5.93 2.6 1.32 3.5 2.09 4.4 3.92l.9 1.74 1-.16c2.1-.37 6.1 1.22 8.7 3.44l1.4 1.27 2.2-.13c1.1-.1 2.4-.1 2.9 0 1.5.35 3.7.1 5.2-.71zm4.1-.11c2.6-.63 5.3-1.93 7-3.36 3.4-2.96 5.5-9.74 4.3-14.27-.6-2.38-1.3-3.67-3.2-5.62-.9-.95-1.7-1.96-1.7-2.25-.2-.45-.4-.27-1.9 1.19-1.8 1.88-3 3.87-3.3 5.91-.1 1.14 0 1.5.9 3.43.7 1.57 1 2.62 1.1 3.78.2 4.24-2.1 8.89-5.4 10.88-.7.37-1.2.71-1.2.76 0 .24 1.2.1 3.4-.45zm-9.4-2.91c-1.1-2.25-1.3-2.62-1.3-4.76-.2-3.41.8-6.06 3.1-8.59l1.1-1.12-.5-1.81c-.5-1.98-1.9-5.13-2.7-6.17l-.5-.66-.7.61c-.9.83-2.2 3.52-2.7 5.6-.7 2.55-.6 6.7.2 9.52.6 2.41 2.4 6.14 4 8.41.6.75 1.1 1.38 1.1 1.38s-.5-1.08-1.1-2.41zm30.4.69c3-.69 5.6-2.06 7.6-4.1 2-1.96 3.8-5.05 3.3-5.58-.5-.5-1.6 0-3 1.24-1.3 1.17-1.3 1.17-2.4.93-3.5-.82-6.3.34-8.6 3.57-.6.9-1.9 2.33-2.8 3.15l-1.7 1.51 2.8-.14c1.5-.1 3.7-.34 4.8-.58zm2.7-8.46c.7-.11 1.9-.1 2.5.1 1.2.27 1.3.24 2.2-.71l1-.98-1.6-.14c-1.8-.15-5.2.15-6.2.53-.5.19-1.7 2.2-1.7 2.78 0 .1.6-.24 1.2-.66.8-.45 1.8-.82 2.6-.92zm-9-1.33c.7-.21 1.6-.4 2-.41.7 0 3.4-2.24 3.1-2.57-.1-.11-1.3-.19-2.5-.19-2 0-2.5.1-3.6.67-1.4.69-1.5.92-1.8 3.24l-.2 1.01.8-.66c.4-.37 1.4-.85 2.2-1.09zM136 28.8c.3-.74.7-1.42.9-1.51.1-.1.3-.38.3-.64 0-.92-1.9-4.13-3-5.29-1.2-1.12-1.3-1.15-1.8-.75-1.3.88-4.4 4.09-5.1 5.29l-.8 1.26.6 1.65c.3.91.7 2.16.8 2.78.2.61.4 1.12.5 1.12.1 0 .9-.47 1.7-1.04l1.6-1.04 1.4 1.07c.8.59 1.4 1.21 1.4 1.37 0 .17.2-.42.4-1.31.2-.89.7-2.22 1.1-2.96zm7-2.17c0-.43-1.5-4.05-2.2-5.17-.8-1.43-3.7-5.42-3.9-5.42-.3 0-2.6 3.18-2.6 3.57 0 .19.4.97.9 1.74.5.76 1.3 2.15 1.8 3.07l.7 1.67 1.4-1.18c1.7-1.48 2.3-1.55 2.3-.29 0 .56.2 1.16.6 1.58.6.71 1 .87 1 .43zm-15.2-2.62c.6-.82 1.7-2.02 2.5-2.67.8-.66 1.8-1.53 2.2-1.96l.7-.76-1.1-1.42-1-1.41-.8.59c-1.9 1.62-3.7 3.65-4.6 5.5l-1 1.99.7 1.29c.7 1.13.8 1.23 1 .81.2-.26.8-1.14 1.4-1.96zm7-6.81.8-1.21-1-1.03-1-1.04-.9.89-.9.9.9 1.34c.5.74.9 1.35 1 1.35.1 0 .6-.54 1.1-1.2zm12.6 259.4c5.5-7.7 11.9-14.2 17.2-17.9 2.2-1.5 6.2-3.4 9.5-4.7 3-1.1 8.9-2.6 11.1-2.9 1.5-.1 1.5-.1-1.3.9-6.7 2.3-16.2 6.9-20.7 9.9-2.6 1.8-6.3 5.3-13.8 13.2-1.5 1.6-2.8 2.9-2.8 2.9-.1 0 .2-.5.8-1.4zm25.4-142.7c.1-.8.2-2.5.1-3.7 0-1.7-.1-2.2-.6-2.5-.6-.5-.4-.8.7-.8 1 0 1.5.5.8.7-.6.3-.5.9.1.9.8 0 1 .6.4 1-.3.2-.5 1.1-.9 3-.5 2.8-1 4.1-.6 1.4zm19.1-91.93c.4-.11 1-.21 1.3-.21.6 0 .6 0-.1.21-.4.11-1 .21-1.3.21-.4 0-.4 0 .1-.21z" transform="translate(-96.49 -12.05)"/></svg>
