<?xml version="1.0" encoding="UTF-8" standalone="no"?>
<svg
   width="324.8mm"
   height="325.2mm"
   version="1.1"
   viewBox="0 0 324.8 325.2"
   xml:space="preserve"
   id="svg6"
   sodipodi:docname="mandala1.svg"
   inkscape:version="1.2.1 (9c6d41e410, 2022-07-14)"
   xmlns:inkscape="http://www.inkscape.org/namespaces/inkscape"
   xmlns:sodipodi="http://sodipodi.sourceforge.net/DTD/sodipodi-0.dtd"
   xmlns="http://www.w3.org/2000/svg"
   xmlns:svg="http://www.w3.org/2000/svg"><defs
     id="defs10" /><sodipodi:namedview
     id="namedview8"
     pagecolor="#505050"
     bordercolor="#eeeeee"
     borderopacity="1"
     inkscape:showpageshadow="0"
     inkscape:pageopacity="0"
     inkscape:pagecheckerboard="0"
     inkscape:deskcolor="#505050"
     inkscape:document-units="mm"
     showgrid="false"
     inkscape:zoom="0.192"
     inkscape:cx="52.08"
     inkscape:cy="617.2"
     inkscape:window-width="1620"
     inkscape:window-height="1058"
     inkscape:window-x="-6"
     inkscape:window-y="-6"
     inkscape:window-maximized="1"
     inkscape:current-layer="g4" /><g
     transform="translate(558.2,-24.82)"
     id="g4"><path
       d="m-401.5 341.8c-5-4.7-8.8-8.7-9.4-9.5-2.3-3.2-3.2-6.6-3.3-10.6 0-3.7 1.1-7.4 3.4-10.5 0.6-0.8 15.6-16.7 16.6-17.5 0.3-0.3 16.8 15.9 17.8 17.5 2.4 3.4 3.3 6.6 3.3 10.5 0 4-1 7.2-3.2 10.6-0.8 1.1-1.9 2.4-11.9 12.7l-4.9 5zm-42.2 0.6c-1.4-2.4-10.7-20.1-11.1-21.5-0.7-2.1-1-5-0.7-7.6 0.4-4 2-7.4 4.8-10.6 2.4-2.4 1.3-1.9 19.8-11.6 2.2-1.1 4-2.2 4-2.2s1 1.9 2.2 4.3c1.1 2.1 3.5 6.6 5.3 9.8 3.5 6.6 4.2 8.2 4.6 11.6 0.6 5.3-1.4 11.1-5.2 14.8-2.3 2.4-1.7 2.1-20.3 11.9l-3.1 1.6zm89.4-6.6-10.7-5.3-2.3-2.4c-3.7-3.7-5.3-7.7-5.3-12.7-0.1-4.2 0.3-5.3 5.9-16.9 2.8-5.6 5.1-10.4 5.2-10.4 0.3-0.2 19 8.8 21.1 10.1 4.1 2.4 7.2 6.9 8.2 11.6 0.6 2.7 0.4 7.2-0.3 9.6-0.9 2.3-10.3 21.4-10.7 21.7-0.2 0-5.2-2.4-11.1-5.3zm-134.9-15.1c0-0.3-0.9-5.3-2-11.7-1.8-10-2-11.3-1.9-13.7 0.4-7.2 5.2-13.8 12-16.4 1.5-0.5 24.1-4.7 24.3-4.5 0.3 0.3 4.1 23 4.1 24.3 0 6.6-4.1 13.5-10 16.4-2.7 1.3-3.2 1.6-14.5 3.5-5.9 1-11 1.8-11.4 2.1h-0.6zm178.8-5c-11.2-1.6-13.2-2.2-15.7-3.7-5.6-3.2-8.8-8.5-9-14.9-0.2-2.3 0-4.2 1.4-13.7 0.8-5.8 1.6-10.9 1.7-11 0.2-0.2 21.1 2.7 23.2 3.3 3.5 0.8 7.4 3.2 9.5 5.8 1.6 2.1 3.2 5.3 3.7 7.7 0.8 2.9 0.6 5.3-1 16.9l-1.3 11.1h-0.8c-0.6 0-5.8-0.8-11.7-1.5zm-107.9-14.6c-5.8-7.7-6.5-9-7-12.4-0.5-3.7 0.9-8.2 3.4-10.9 1.2-1.3 14.4-11.4 14.9-11.4 0.3 0 10.5 13.8 11.2 15.1 0.9 1.9 1.4 4.5 1.2 6.9-0.2 3.4-1.5 6.4-3.9 8.7-1 1.1-10.7 8.5-13.6 10.6l-0.8 0.5zm36.5 1.6c-3.7-2.7-7.3-5.3-7.9-5.8-4.1-4-5.4-10.3-3-15.4 0.8-1.8 10.3-15.4 10.7-15.4 0.5 0 13.9 9.6 15.2 10.9 4 4 4.9 10.3 2.2 15.6-0.8 1.6-10 14.9-10.3 14.9-0.1 0-3.2-2.2-6.9-4.8zm-67.9-6.6c-0.2-0.8-1.5-4.5-2.9-8.5-2.3-6.6-2.5-7.4-2.7-9.5 0-1.3 0-2.9 0.2-3.7 0.8-3.4 3.3-7 6.4-8.9 1.1-0.6 13.6-5.2 17.5-6.4 0.5-0.1 0.6 0.2 4.2 10.8 2.1 6.3 2.2 6.3 2.1 8.7 0 4.3-1.5 7.7-4.4 10.3-0.9 0.8-2.1 1.6-2.8 2.2-0.8 0.2-4.9 1.8-9.3 3.4l-8 2.6zm109.3-1.3c-0.6-0.3-4.3-1.4-8.2-2.7-3.9-1-7.7-2.4-8.3-2.9-2.9-1.6-5.4-4.8-6.4-7.9-0.6-2.2-0.7-5.6-0.1-7.6 0.9-3.5 4.7-15.6 4.8-15.8 0.3-0.2 16.5 4.8 18 5.6 1.9 1 4.4 3.6 5.4 5.5 1.9 3.7 2.3 6.7 1.2 10.7-1.7 6.1-4.6 15.3-5 15.3-0.2 0-0.8-0.2-1.4-0.2zm-174.6-8c-5.7-0.8-10.4-1.6-10.5-1.6-0.3-0.2 3-22.7 3.4-24.2 2.5-7.6 9.7-12.8 17.6-12.8 1.3 0 6.9 0.7 13 1.6 9.7 1.3 10.7 1.5 10.7 2 0 0.3-0.6 5.5-1.5 11.6-1.6 11.8-1.9 13.1-3.7 16.3-0.5 0.8-1.8 2.4-2.9 3.4-1.6 1.6-2.5 2.4-4.5 3.2-5.2 2.6-7 2.6-21.6 0.5zm223.2-2.6c-5.9-1.6-10.9-6.1-12.7-12-0.6-1.3-4.5-23.7-4.5-23.9 0.2-0.1 21.6-3.8 23.2-3.9 1.6-0.3 4.5 0.1 6.9 0.9 5 1.6 9.8 6.3 11.7 11.6 0.5 1.4 4.5 23.6 4.5 23.8-0.3 0-4.8 0.8-10.6 1.9-11.9 2.1-15.1 2.4-18.5 1.6zm-107.5-10.1c-4.2-4-5.1-5-5.8-6.5-1.7-3.4-1.3-7.7 1-10.6 0.6-0.8 2.9-3.4 5.2-5.7l4-4.2 5 4.8c4.2 4.1 5 5 5.8 6.6s0.8 1.9 0.8 4.5c0 4.2-0.4 5-6.4 11.1l-4.7 4.8zm-81.5-7.4c-0.1-5.8 0-9.2 0.3-10.5 0.6-3.8 3.4-7.7 6.9-9.5 2.6-1.4 4.1-1.6 13.7-1.8l8.7-0.2 0.2 8.6c0.2 9.7 0.1 10.9-1.3 13.9-1.8 3.6-5.6 6.7-9.6 7.4-0.8 0.2-5.4 0.4-10.1 0.5l-8.6 0.1zm55.2 2.8c-3.7-7-3.9-7.5-3.8-10.6 0.1-1.8 0.3-2.7 0.8-3.8 1.2-2.7 2.4-3.7 7.4-6.4 2.5-1.3 5.3-2.8 6.2-3.3l1.6-0.9 3.1 5.9c1.8 3.4 3.3 6.5 3.6 7.4 0.9 3.8-0.7 8.2-3.9 10.5-0.8 0.6-11.8 6.6-12 6.6 0 0-1.4-2.4-3-5.4zm53.2 1.4c-3.1-1.5-6.2-3.2-6.8-3.6-2.9-2.4-4.2-6.6-3.4-10.4 0.2-0.6 1.6-3.8 3.2-7 2.8-5.8 2.9-5.9 3.5-5.7 2.1 0.8 11.9 6 12.8 6.8 1.6 1.4 3 4.3 3.2 6.7 0.1 1 0 2.4-0.2 3.1-0.4 1.6-5.9 13.1-6.2 13-0.2 0-2.9-1.3-6.1-2.9zm45.4 1.4c-4.2-0.8-8.1-3.7-10-7.6-1.2-2.3-1.4-3.8-1.6-13.1l-0.2-8.9 8.6-0.1c4.7-0.1 9.3 0 10.2 0.1 4.6 0.7 9 4.5 10.7 9.1 0.5 1.4 0.5 2.4 0.8 10.9 0.2 5.1 0.2 9.4 0.2 9.4-0.2 0.2-17.6 0.4-18.7 0.2zm-122.5-16.3c-1.3-7.5-1.3-9.1-0.1-11.7 0.9-1.9 3.1-4.1 4.9-5 1.2-0.5 9.8-2.2 13.9-2.8 0.7-0.1 0.7-0.1 1.8 6.3 0.6 3.5 1.1 6.8 1.1 7.4 0.1 4.1-3 8.4-6.9 9.6-0.9 0.3-4.1 1-7.1 1.5-3.1 0.5-5.8 1-6 1.1-0.4 0.1-0.6-1-1.6-6.4zm102.4 3.7c-7.4-1.1-8.2-1.3-10-2.5-2.9-1.8-4.6-5-4.6-8.4 0-1.7 1.5-13.3 1.7-13.5s10.5 1.2 12.6 1.7c4.6 1 7.8 4.7 8.1 9.2 0.1 1.9-1.3 13.8-1.7 14.2-0.1 0.1-2.8-0.2-6.1-0.7zm-61.4-8.3c-1.6-2.1-3.1-4.3-3.3-4.8-0.6-1.2-0.8-3.4-0.5-4.9 0.6-2.3 1.6-3.4 6-6.7l4.1-3.2 3.2 4.2c1.7 2.3 3.3 4.7 3.5 5.2 0.8 2.5 0.1 5.8-1.7 7.8-0.8 0.8-8 6.3-8.3 6.3 0 0-1.4-1.7-3-3.9zm20.3 0.8c-4.5-3.2-5.3-4-6-6.1-1.2-3.1-0.7-5 3-10.2 1.5-2.2 2.9-4 3-4.1 0.4-0.1 7.7 5 8.7 6.1 1.9 2 2.6 5.6 1.6 8-0.4 0.8-5.3 8.1-6 9-0.1 0-2-1.2-4.3-2.7zm-138.4-1c-0.9-0.2-4-1.6-7-3-6.7-3.2-15.7-7.6-15.8-7.8-0.2-0.2 10-20.9 10.9-22.2 3.4-4.6 9-7.4 14.8-7.4 4.2 0 5.3 0.4 17 6.1 5.8 2.8 10.5 5.2 10.5 5.3s-2.4 5-5.3 10.9c-4.9 9.8-5.5 10.9-7 12.5-3.7 4.1-8.2 6-13.7 6-1.6 0-3.5-0.2-4.4-0.4zm40.2-1.3c-1.9-0.5-16.7-5-16.9-5.1-0.3-0.3 4.4-15.7 5.5-17.8 1.6-3.3 5.4-6.3 9.2-7.1 3.1-0.7 5.2-0.4 14.1 2.3 4.5 1.4 8.3 2.6 8.3 2.6 0.2 0.2-4.8 16.1-5.6 17.7-1.5 3.1-4.4 5.6-7.7 6.8-1.6 0.5-5.7 0.9-6.9 0.6zm60-1.8c-0.9-2.3-3-9.2-3-10 0-2.4 1.5-5.3 3.5-6.5 1.1-0.7 10.1-4 10.3-3.8 0.1 0.1 0.9 2.3 1.8 4.9 2 6 2.1 7.8 0.3 10.4-1.3 1.9-2.4 2.5-7.4 4.3-2.6 0.9-4.8 1.6-4.9 1.6s-0.3-0.4-0.6-0.9zm57.6-1.6c-5-1.6-5.6-1.9-6.9-3.3-1.4-1.4-1.9-2.5-2.1-4.6-0.1-1.6 0-2.3 1.3-6.5 0.8-2.6 1.5-4.8 1.6-4.9 0.2-0.2 9.4 2.6 10.5 3.3 2.1 1.3 3.6 3.9 3.6 6.4 0 2.1-2.6 11-3.3 11-0.2 0-2.3-0.6-4.7-1.4zm98.1 0.6c-3.7-0.5-7.1-2.2-10-4.8-2.2-2.1-3.2-3.7-6.7-10.4-1.3-2.6-3.7-6.7-4.7-9.1-1.3-2.3-2.4-4.3-2.4-4.4 0 0 4.8-2.5 10.6-5.5 11.6-6.2 12.7-6.6 17.2-6.6 4.7 0 8.7 1.6 12.4 4.9 1.1 1.1 2.4 2.7 2.9 3.7 1.6 2.3 10.9 20.1 10.9 20.2 0 0-2.1 1.1-4.3 2.3-17.2 9.1-17.4 9.3-21.1 9.7-2.4 0.3-2.7 0.3-4.8 0zm-39.1-0.6c-3.2-0.9-6.6-3.5-8.3-6.5-0.7-1.2-6.4-17.4-6.2-17.7 0.1 0 4-1.4 8.6-2.9 8.2-2.8 8.8-3 10.6-3 2.7 0 4.8 0.5 6.9 1.7 1.9 0.9 4.2 3.2 5.3 5 0.5 0.7 2.1 5 3.7 9.6l2.9 8.2-1.1 0.4c-15.3 5.3-15.3 5.4-18.2 5.5-1.9 0-3.2-0.1-4.2-0.3zm-153.4-3.1c-4.6-0.7-5.6-0.9-5.6-1.3 0-0.2 0.4-3.3 0.9-6.8 1-7.1 1.4-8.2 3.4-10.4 2.1-2.2 4.4-3.2 7.3-3.2 1.7 0 13.3 1.5 13.5 1.8 0.1 0.1-1.1 9.8-1.6 12.3-0.6 3.2-2.9 6.2-6 7.6-2.2 1-4.9 1-11.9 0zm125.3-1.7c-2.8-1-5.1-3-6.2-5.5-0.4-0.9-1-3.6-1.8-7.8-1.2-6.5-1.2-6.5-0.6-6.7 0.3-0.1 3.4-0.7 6.8-1.3 5.5-1 6.4-1.1 7.8-0.8 2.2 0.3 4.3 1.4 5.8 2.9 2.1 2 2.6 3.6 3.9 10.9 0.7 3.5 1.2 6.5 1.1 6.5 0 0-2.8 0.5-6.1 1.1-6.4 1.1-9.1 1.3-10.7 0.7zm-60.1-5.6c-3-3.1-3.6-4.1-3.6-6.1 0-1.9 0.9-3.6 3.8-6.4l2.5-2.5 2.8 2.8c3 2.9 3.8 4.2 3.8 6 0 2-1 3.6-3.9 6.4l-2.6 2.6zm-45.7-4.5c0-6.2 0.3-7.4 2.2-9.3 2-2 2.8-2.2 8.9-2.5 2.9-0.1 5.4-0.2 5.4-0.2 0.1 0.1 0.2 2.5 0.2 5.3 0.1 6.2-0.1 7.1-1.9 9.1-2.1 2.3-2.9 2.5-9.3 2.7l-5.5 0.2zm30.7 1.2c-2-3.9-2.2-4.6-1.6-6.6 0.5-1.7 2-3 5.5-4.9 1.8-0.9 3.4-1.6 3.4-1.5 0.1 0.2 0.3 0.5 0.5 0.8 0.3 0.4 0.3 0.4 0.1-0.6-0.5-1.6 0.1-3.1 1.7-4.5 0.8-0.6 1.7-1.4 2-1.7 0.4-0.4 0-0.2-1.1 0.4-1 0.5-1.9 0.9-1.9 0.9 0-0.1-0.5-0.8-0.9-1.8-0.5-0.9-0.9-1.6-1-1.5-0.1 0 0.2 0.8 0.6 1.8 1 2.8 0.7 4.6-0.8 6-0.6 0.5-5.3 2.4-6.1 2.4-0.2 0-0.7-1.2-1.2-2.7-0.5-1.6-1-2.8-1-2.7-0.1 0 0.1 1.4 0.5 3.1 0.6 3.4 0.5 4.5-0.7 6.3-1 1.6-2.5 2.2-6.6 3-2.1 0.3-3.7 0.6-3.8 0.6 0-0.1-0.4-1.8-0.7-3.9-0.8-4.2-0.7-5 0.3-6.8 1-1.7 2.4-2.4 6.4-3.1 4.1-0.8 4.2-0.8 4.3-0.2 0.1 0.3 0.3 0 0.5-0.7 0.5-1.7 1.4-2.6 3.8-3.5 2.3-0.8 2.2-1-0.1-0.5-0.7 0.2-1.4 0.2-1.5 0.1-0.1 0-0.3-0.9-0.5-1.9l-0.3-1.8-0.1 2.2c0 2.6-0.7 4.1-2.3 5-0.9 0.5-1.4 0.6-4.1 0.6h-3.1v-3l-0.1-2.9-0.4 3.1c-0.8 4.8-2.3 6.7-5.5 7-1.2 0.1-7.5-0.6-8-0.9-0.1 0 0.1-1.8 0.4-3.9 0.6-4.4 1.3-5.8 3.1-6.9 1.6-0.9 2.6-1 6.2-0.6 4.4 0.6 4.3 0.6 4.3 1.5 0 0.6 0 0.6 0.5-0.4 0.9-1.8 2-2.3 4.9-2.5l2.4-0.1-2-0.3c-1.1-0.2-1.9-0.4-1.9-0.5 0-0.2 0.1-1.1 0.2-2l0.1-1.7-0.4 1.2c-0.9 2.8-1.2 3.5-2.3 4.2-0.8 0.6-1.3 0.8-2.2 0.8-1.1 0-5.8-1.2-6.2-1.6-0.1-0.1 0.1-1.3 0.5-2.6 0.5-1.4 0.8-2.6 0.8-2.7s-0.7 1.2-1.5 2.8c-1.4 2.7-1.6 3-3 3.8-1.3 0.8-1.6 0.8-3.1 0.8-1.4-0.1-2.2-0.4-5.1-1.8l-3.4-1.7c0-0.1 0.8-1.7 1.7-3.6 2-3.9 3.1-5.1 5.2-5.6 1.8-0.4 2.6-0.2 6.4 1.7 3.5 1.7 3.5 1.6 2.9 2.9-0.1 0.4 0.1 0.2 0.6-0.3 1.4-1.7 3.2-2 5.8-1.1 2.2 0.7 2.4 0.5 0.4-0.4-0.9-0.4-1.6-0.9-1.6-1 0-0.2 0.4-1.1 0.9-2.1s0.8-1.8 0.8-1.8-0.7 0.9-1.4 2c-1 1.4-1.7 2.1-2.5 2.5-2 1-3.1 0.7-6.5-1.7l-2.1-1.5 1.4-2c1.8-2.6 2.6-3.5 3.9-3.8 1.5-0.5 2.7-0.1 5.1 1.5l2.1 1.4-1.6-1.5c-0.9-0.9-1.7-1.7-1.7-1.8 0-0.2 0.7-0.9 1.5-1.7s1.5-1.5 1.5-1.7c0-0.1-0.3 0-0.5 0.3-0.6 0.7-2.4 2-3.4 2.6-1.9 0.9-4.4 0.3-5.6-1.5-0.4-0.6-1.2-1.8-1.8-2.6l-1.1-1.5 2.2-1.7c1.2-0.9 2.2-1.7 2.2-1.7 0-0.1-1.2 0.5-2.7 1.2-3.9 2-6.2 2-8.3-0.1-0.8-0.7-4.5-7.3-4.3-7.5l3.8-1.9c3.8-2 4.6-2.2 6.6-1.6 1.6 0.4 2.8 1.8 4.7 5.3 1 1.9 1.8 3.4 1.8 3.5s-0.3 0.3-0.7 0.6l-0.8 0.3 0.8-0.1c0.5-0.1 1.3-0.2 1.9-0.2l1 0.1-1-0.6c-0.5-0.3-1.2-0.9-1.5-1.3-0.5-0.9-2.2-5.8-2.1-5.9 0.1 0 1.3-0.4 2.7-0.9 4.8-1.6 6.6-0.9 7.9 3.1 0.7 2 1 1.9 0.6-0.3-0.2-0.8-0.3-1.4-0.2-1.5 0.1 0 0.9-0.2 1.8-0.4l1.6-0.4h-2c-2.6 0-4-0.7-4.9-2.4-0.6-1.1-0.7-1.1-0.5-0.3 0.1 0.4 0.1 0.8 0 0.8-0.2 0-1.9 0.3-3.9 0.7-4.3 0.7-5.2 0.7-7-0.5-1.6-1.1-2.3-2.5-3-6.8l-0.6-3.6 2.4-0.5c1.3-0.2 3.1-0.5 3.9-0.7 2-0.3 3.3 0 4.8 1.1 1.4 1 2.1 2.4 2.7 5.8l0.5 2.8 0.1-3v-2.9l3-0.1h3l-3.1-0.5c-4.4-0.6-6-1.6-6.8-4.2-0.2-0.5-0.3-1.3-0.3-1.8 0-0.9 0.7-6.7 0.9-7.4 0-0.2 1.3-0.1 4.1 0.3 4.8 0.7 5.8 1.3 6.9 3.6 0.9 1.6 0.9 2.2 0.3 6.6-0.5 3.3-0.5 3.3-1.2 3.4-0.8 0.1-0.8 0.1 0.3 0.6 1.8 0.9 2.3 2 2.4 5.5 0 1.9 0 3.1-0.2 3.3s-0.1 0.4 0.5 0.6c1 0.5 1.5 1.3 1.9 3.4l0.4 1.9v-1.7l0.1-1.6h1.9c1.9 0 2 0 2.7 0.8 0.5 0.6 0.7 1.1 0.7 2.2 0 1.3 0.1 1.3 0.1 0.2 0.2-1.1 0.2-1.1 1.1-1.1h1l-1.1-0.4c-1.3-0.5-1.9-1.3-2-2.5 0-0.8 0-0.9-0.1-0.2l-0.2 0.8-1.8-0.2c-2.3-0.2-3.4-0.7-4.2-1.6-0.5-0.8-0.6-1-0.4-2.9 0.3-3.3 0.2-3.3 1.7-3 2.3 0.3 2.6 0.1 0.6-0.5-2.3-0.7-3.3-1.4-3.8-2.6-0.6-1.3-0.6-2.5 0.4-5.5 0.7-2.4 0.8-2.6 1.3-2.4 5.4 1.6 6.1 2 7.1 3.7 0.2 0.4 0.2 0.3 0.1-0.6-0.2-1.4 0.2-2.3 2.1-5.1l1.6-2.2 2.4 1.7c2.9 2.1 3.7 3.1 3.5 5.1-0.1 1.1-0.3 1.7-1.5 3.4l-1.4 2.2 3.2-3.2 1.6 1.6c0.9 0.8 1.8 1.9 1.9 2.5l0.4 1 0.4-0.9c0.4-0.7 0.4-0.9 0.1-0.6-0.5 0.3-0.4 0.4-2.4-2.4-2.3-3-2.5-4.8-0.9-6.7 0.7-0.8 4.3-3.7 4.7-3.7s3.5 4.5 3.8 5.5c0.6 2-0.2 3.6-2.8 5.4-0.9 0.8-1.7 1.4-1.7 1.5 0 0 0.8-0.4 1.9-1l1.9-1 1 1.8c0.5 0.9 1 1.7 1 1.6s-0.3-1.1-0.7-2.1c-0.3-1.1-0.6-2.3-0.6-2.6 0-1.2 0.9-2.9 1.9-3.4 0.8-0.5 5.2-2.2 5.7-2.2 0.2 0 0.7 1.3 1.2 2.8 1 3.2 1.2 3.1 0.6 0-0.5-2.4-0.5-4.6-0.1-5.6 0.3-1.1 2.3-3 3.2-3.3 0.5-0.1 2.4-0.5 4.3-0.9 3.2-0.6 3.5-0.6 3.6-0.2 0.1 0.3 0.4 2.1 0.8 4 0.7 4.2 0.5 5.3-0.9 7-1.1 1.4-2 1.8-5.5 2.4l-3.1 0.6h3l3 0.1v3.1c0 2.7-0.1 3.2-0.6 4.1-0.9 1.6-2 2.1-4.9 2.3l-2.6 0.1 1.9 0.3c1 0.1 2 0.3 2.2 0.4s0.2 0.6 0 1.9c-0.2 1-0.2 1.9-0.2 1.9 0.1 0.1 0.4-0.8 0.7-1.9s0.8-2.3 1.1-2.6c0.8-1 2.2-1.7 3.3-1.7s6.2 1.5 6.2 1.8c0 0.1-0.3 1.3-0.8 2.7-1.4 4.7-3.2 5.8-7.4 4.5-0.9-0.3-1.7-0.5-1.8-0.5s0.6 0.4 1.7 0.9l1.7 0.9-0.9 1.9c-0.5 1-0.9 1.8-0.8 1.8s0.5-0.5 1-1.2c1-1.5 2.6-2.5 4.3-2.6 1.7-0.2 3.2 0.2 4.9 1.3 2.3 1.5 2.2 1.4 1.2 2.8-2.4 3.4-3.6 4.2-6 4.2-1.4 0-3.7-0.8-3.7-1.2 0-0.1-0.5-0.6-1.2-1-1.2-0.8-1.4-1.1-0.8-1.7 0.1-0.2-0.2 0-0.7 0.3-1.3 0.9-2.3 0.9-4.2 0.1-0.8-0.4-1.1-0.5-0.8-0.2 1.8 1.2 1.8 1.2 1.3 1.8-0.2 0.3-0.5 0.7-0.5 0.8 0 0.2-0.3 0.7-0.9 1.2-1.1 1.2-2.2 1.3-3.7 0.3l-1-0.7 0.7 0.7 0.7 0.8-1 1c-0.5 0.6-0.7 0.9-0.4 0.7 1-0.8 2.4-1.3 3.5-1.1 0.9 0.2 2.9 1.9 2.9 2.6 0 0.4-1.7 1.6-2.7 1.8-1 0.3-2.4-0.3-3.4-1.4-0.6-0.6-1-1.2-1-1.3 0-0.2-0.3-0.3-0.8-0.3-0.4 0-0.9-0.2-1.1-0.4-0.1-0.2-0.4-0.4-0.5-0.4-0.2 0-0.2 0.2 0 0.4 0.3 0.3 0.3 0.5-0.1 0.8-0.5 0.3-0.4 0.3 0.5 0.2 1.4-0.2 2.1 0.2 2.8 1.3s0.7 1.2-0.2 1.7c-0.4 0.2-0.5 0.3-0.2 0.2 1.5-0.5 2.3-0.4 3 0.1 0.5 0.4 0.8 0.4 0.7 0.3-0.2-0.5 3.8-2.6 4.7-2.6 0.4 0 1.1 0.2 1.6 0.5 0.7 0.3 0.9 0.4 0.7 0.1-0.2-0.2-0.3-0.4-0.2-0.5 2.1-1.6 4.6-3.3 5.1-3.6 2.2-0.8 4 0.1 6.4 3.3l1.7 2.3-2.2 1.6c-2.2 1.7-3.5 2.3-4.7 2.4-1.3 0-2.8-1-4.1-2.8-1.7-2.3-1.9-2.4-0.6-0.1 0.5 1 1 1.9 0.9 1.9 0 0.1-0.8 0.5-1.8 1-0.9 0.6-1.6 1-1.5 1s1-0.3 2.1-0.6c1-0.4 2.2-0.7 2.6-0.7 1 0 2.8 0.9 3.4 1.8 0.5 0.7 2.2 5.1 2.2 5.7 0 0.3-1 0.7-2.7 1.3-1.4 0.4-2.6 0.9-2.5 0.9 0 0.1 1.1-0.1 2.4-0.3 3.4-0.6 5.4-0.5 6.8 0.6 0.6 0.4 1.4 1.3 1.7 1.9 0.7 1.4 2 8.3 1.6 8.5-0.1 0.1-1.9 0.4-4 0.8-4 0.6-4.9 0.6-6.7-0.5-1.5-1-2.2-2.3-2.8-6.2-0.9-4.4-0.9-4.4-0.1-4.5 0.3 0 0-0.2-0.8-0.5-2-0.6-2.6-1.4-3.5-3.8-0.8-2-0.8-2.1-0.6-0.8 0.3 2.7 0.5 2.6-2 3-3.6 0.6-4.6 0-5.4-3.3l-0.5-2.1 0.1 1.7c0.1 1.8 0 1.9-1.6 1.9-1.2 0-0.9 0.1 0.8 0.4 1.5 0.2 2.7 1.1 3.1 2.3 0.2 0.6 0.2 0.7 0.2 0.3 0.1-0.5 0.3-0.6 2.6-0.7 3.1-0.1 4.5 0.1 5.5 1.1 1.2 1.1 1.5 2.1 1.5 5.3v2.9l-3.1 0.1h-3.1l3.3 0.5c4 0.6 5.2 1.2 6.3 3.2 1 1.7 1 2.4 0.4 7.2l-0.5 3.3-0.6-0.1c-0.4-0.1-2.1-0.3-3.8-0.5-4.5-0.7-6-1.6-7-4.3-0.5-1.2-0.5-1.4 0-4.7 0.6-4.6 0.6-4.7 1.3-4.7 0.5 0 0.4-0.1-0.4-0.5-1.6-0.8-2.1-2.1-2.3-5l-0.1-2.5-0.3 2.1c-0.3 2.4-0.1 2.2-2.9 1.9l-1.6-0.2 2 0.7c1.2 0.3 2.4 0.8 2.8 1.1 1 0.7 1.7 2.1 1.7 3.4 0 1-1.3 5.6-1.6 6-0.1 0.1-1.5-0.2-3-0.6-4.4-1.4-5.6-3-4.6-6.6 0.8-2.8 0.8-2.9-0.2-1l-1 1.8-1.9-1c-1.4-0.7-1.7-0.7-1.1-0.3 0.4 0.3 1.2 0.9 1.8 1.4 1.7 1.3 2.2 2.1 2.2 3.9 0 1.1 0 1.4 0.2 1 0.1-0.3 0.3-0.5 0.5-0.5 0.5 0 7.1 3.4 7.6 4 1 1 1.6 2.6 1.6 4.2 0 1.2-0.3 1.9-1.7 4.9-1 1.9-1.8 3.5-1.9 3.5-0.5 0-7-3.4-7.6-4.1-1.9-1.9-2.1-4.5-0.7-7.4 0.6-1 1.2-2.3 1.4-2.9 0.4-1 0.4-1 0-0.4-0.3 0.4-1.1 1.5-1.8 2.4l-1.2 1.9-2.5-1.7c-4-2.8-4.5-4.6-2.1-8.2l1.2-1.9-1.4 1.3-1.5 1.4-1.6-1.6c-0.9-0.9-1.7-2-2-2.5l-0.3-0.8-0.6 1c-0.6 0.9-0.6 0.9-0.1 0.4 0.4-0.3 0.7-0.4 0.8-0.3 0.6 0.7 2.7 3.6 3.2 4.4 0.6 1.1 0.7 2.8 0.1 4.1-0.2 0.5-1.3 1.6-2.9 2.7l-2.4 1.9-1.6-2.1c-2.1-2.9-2.1-2.8-0.5 0.5 1.8 3.5 1.9 4.7 0.8 6.8-0.3 0.8-0.8 1.5-1.1 1.8-0.5 0.4-6.9 3.9-7.2 3.9-0.1 0-1-1.7-2.1-3.8zm22-20.1c0.6 0.4 0.6 0.4 0.2-0.1-0.3-0.3-0.6-0.8-0.8-1.2l-0.2-0.6v0.6c-0.1 0.4-0.2 1-0.5 1.5l-0.3 0.8 0.5-0.7c0.5-0.5 0.6-0.6 1.1-0.3zm-15.5-2.6v-1.1c-0.1 0-0.4 0.4-0.7 0.8-0.5 0.5-0.5 0.6-0.2 0.5s0.5 0 0.6 0.4c0.2 0.7 0.3 0.6 0.3-0.6zm8.6-1.2c0.3-0.3 0.7-0.8 0.8-1 0.2-0.4 0-0.3-0.8 0.3l-1 0.8-0.9-1.2c-0.5-0.6-0.9-1.1-1-1.1 0 0 0.3 0.7 0.7 1.5 0.5 0.9 0.8 1.9 0.8 2.2 0.1 0.5 0.1 0.5 0.4-0.2 0.2-0.4 0.6-1 1-1.3zm7.1-1.4c0.4-0.9 0.4-1.1 0.1-0.6-0.3 0.4-0.7 0.9-1 1.3l-0.6 0.6-1-0.7-1.1-0.8 1.1 1.3c0.7 0.7 1.2 1.4 1.2 1.7 0 0.2 0.2 0 0.4-0.6 0.1-0.6 0.6-1.6 0.9-2.2zm7.3 2.4c0.3 0.1 0.2-0.1-0.3-0.4-0.4-0.4-0.8-0.6-0.8-0.6-0.1 0 0 0.4 0.1 0.7 0.1 0.5 0.2 0.7 0.3 0.5 0.2-0.2 0.4-0.3 0.7-0.2zm-20.4-3.1c1.6-0.8 1.5-0.8-0.2-0.2-0.7 0.2-1.3 0.3-1.4 0.3 0-0.1-0.2-0.6-0.4-1.3l-0.4-1.2v4.3l0.6-0.6c0.2-0.3 1.1-0.9 1.8-1.3zm18.9-0.2c0-0.7 0.1-1.7 0.1-2.2 0.2-0.7-0.2 0.3-0.7 1.9-0.1 0.3-0.4 0.3-1.4 0-0.7-0.3-1.3-0.4-1.3-0.3-0.1 0 0.5 0.3 1.2 0.7 0.7 0.3 1.5 0.8 1.6 0.9 0.2 0.2 0.3 0.4 0.4 0.4 0 0 0-0.6 0.1-1.4zm-10.3-0.5c-0.2-0.3-0.3-0.5-0.4-0.5 0 0-0.1 0.2-0.2 0.5s0.1 0.5 0.4 0.5 0.4-0.2 0.2-0.5zm-17.3-1.2c0-0.1-0.5 0.1-1 0.3-0.7 0.3-0.8 0.4-0.3 0.4 0.4 0 0.6 0.2 0.6 0.3 0 0.2 0.2 0.1 0.4-0.3s0.3-0.7 0.3-0.7zm11.3 0.9c0.1 0.1 0.2-0.2 0.2-0.6s0-0.7-0.1-0.6c0 0-0.3 0.4-0.7 0.8-0.6 0.7-0.6 0.8-0.1 0.5 0.3-0.1 0.6-0.2 0.7-0.1zm11.9-0.3c0.2 0.1 0.1 0-0.1-0.3-0.3-0.4-0.3-0.4-0.5 0.1-0.3 0.7-0.3 1 0 0.5 0.2-0.3 0.4-0.4 0.6-0.3zm-5.1-2.5 0.6-1-0.9 0.9-0.9 0.8-0.9-0.8-0.9-0.9 0.9 1.2c0.4 0.6 0.8 1.3 0.8 1.6 0 0.2 0.1 0.2 0.3-0.3 0.2-0.3 0.6-1 1-1.5zm4.4 0.7c0-0.5 0-1.2 0.2-1.7l0.2-0.8-0.5 0.9-0.4 0.8-1-0.5c-1.3-0.7-1.3-0.5 0 0.4 0.6 0.4 1.1 0.9 1.2 1.2 0.2 0.8 0.3 0.7 0.3-0.3zm-21.4 0.3c0.3-0.1 1.2-0.4 2.2-0.6l1.7-0.4h-3.3v-1.1c0-0.7-0.1-1-0.3-0.9-0.1 0-0.2 0.5-0.2 1s-0.2 1.1-0.4 1.5c-0.4 0.9-0.4 0.9 0.3 0.5zm12-1.3 0.6-0.6-0.8 0.5c-0.5 0.2-1 0.4-1 0.3s-0.3-0.4-0.5-0.9c-0.3-0.4-0.4-0.5-0.3-0.2s0.2 0.9 0.3 1.5c0.1 0.9 0.2 0.9 0.6 0.4 0.2-0.2 0.7-0.7 1.1-1zm-6.2-0.9c0.3-0.3 1-0.7 1.5-0.9l0.8-0.3-1 0.1c-0.9 0.2-0.9 0.1-1-0.6 0-0.6 0-0.6-0.2 0.2-0.2 1.2-0.7 2-1.3 2.4-0.2 0.1-0.3 0.3-0.1 0.3s0.4 0.2 0.4 0.5c0 0.4 0.1 0.3 0.1-0.2 0.1-0.5 0.4-1.1 0.8-1.5zm21 0.1c-0.6-0.5-0.9-1-1-2-0.3-1.2-0.3-1.2-0.3-0.3s0 0.9-1 0.8l-1-0.1 1 0.4c1.2 0.5 2 1.1 2 1.6 0 0.2 0.3 0.4 0.6 0.4 0.4 0 0.4-0.1-0.3-0.8zm-13-1c0-0.4 0.3-1 0.7-1.5l0.8-0.8-0.7 0.4c-0.6 0.4-0.7 0.4-1.2 0-0.4-0.4-0.4-0.4-0.1 0.2 0.4 0.7 0.3 2-0.1 2.4-0.2 0.3-0.2 0.3 0.1 0.2s0.5-0.5 0.5-0.9zm4.3 0.2c-0.1-0.7-0.2-0.7-0.4 0.1 0 0.4 0 0.6 0.2 0.5 0.2 0 0.3-0.3 0.2-0.6zm-8.5-1c0-0.2-0.1-0.3-0.3-0.2-0.1 0.1-0.2 0.3-0.1 0.4 0.2 0.4 0.4 0.3 0.4-0.2zm12.8 0c0.1-0.2 0-0.4-0.2-0.6-0.3-0.2-0.4-0.2-0.3 0.3 0.2 0.6 0.3 0.6 0.5 0.3zm-27.3-1.5c0.7-0.3 1.3-0.3 2.5-0.1 0.8 0.1 1.5 0.2 1.6 0.1 0 0-0.6-0.2-1.4-0.5-1.3-0.4-1.4-0.5-1.2-1 0.6-1.8 0.5-2.1-0.2-0.7-0.9 1.6-2 2.6-3.2 2.6-0.4 0-0.5 0.1-0.2 0.2 0.3 0 0.4 0.3 0.3 0.5-0.1 0.3 0 0.3 0.3-0.1 0.3-0.3 0.9-0.8 1.5-1zm5.4 0.9c-0.1-0.3-0.1-0.2-0.1 0.1-0.1 0.3 0 0.5 0.1 0.4s0.1-0.4 0-0.5zm17.8-0.3c0.3-0.9 0.3-0.9-0.2-0.3-0.4 0.6-0.5 0.6-1.1 0.2l-0.7-0.5 0.7 0.7c0.3 0.4 0.7 0.7 0.8 0.7s0.3-0.4 0.5-0.8zm20.2 0c-0.2-0.5-0.2-0.7 0.4-0.9s0.5-0.2-0.5-0.2c-1.6 0-2.5-0.7-3.4-2.6-0.5-0.8-0.9-1.5-0.9-1.5-0.1 0 0.1 0.6 0.4 1.3 0.6 1.5 0.6 1.8 0.1 1.8-0.1 0.1-0.6 0.2-1.1 0.4-0.7 0.4-0.7 0.4 1 0.3 1.4-0.1 1.8-0.1 2.6 0.4 0.4 0.3 1 0.8 1.1 1.2 0.4 0.8 0.6 0.7 0.3-0.2zm-27.3-1c0.1 0-0.1 0-0.4 0.1-0.4 0.1-0.7 0-0.8-0.4-0.2-0.4-0.3-0.5-0.2-0.3 0 0.2 0.1 0.7 0.1 1 0 0.7 0 0.7 0.5 0.2 0.4-0.2 0.7-0.5 0.8-0.6zm-9.9 0.2c0.3-0.3 1.1-0.6 1.8-0.7 1.1-0.2 1.2-0.2 0.5-0.3-0.8 0-0.9-0.1-0.9-0.9v-0.8l-0.3 0.8c-0.3 0.9-1.2 2-1.7 2-0.2 0-0.4 0.1-0.4 0.2 0 0.4 0.4 0.3 1-0.3zm20.4-0.4c0-0.6 0-0.8-0.1-0.4-0.1 0.3-0.3 0.6-0.6 0.6-0.4 0-0.3 0.1 0.1 0.4 0.7 0.5 0.7 0.5 0.6-0.6zm9.6 0.2c0-0.1-0.3-0.3-0.5-0.4-0.5-0.1-0.5 0-0.2 0.4 0.2 0.5 0.7 0.5 0.7 0zm-25.1-0.8c0-0.1-0.2-0.2-0.4-0.1-0.3 0.1-0.4 0.3-0.3 0.4 0.2 0.3 0.7 0 0.7-0.3zm20.1-0.1c0-0.1-0.3-0.2-0.5-0.2-0.4-0.1-0.5-0.1-0.4 0.2s0.9 0.3 0.9 0zm3.4 0c-0.1-0.2-0.5-0.8-0.7-1.4l-0.4-1 0.2 1c0.1 0.9 0.1 0.9-1 1.1l-1.1 0.3 1.5 0.1c0.9 0.1 1.7 0.2 1.7 0.2 0.1 0 0-0.1-0.2-0.3zm-13.4-0.9c0.3-0.4 0.2-0.4-0.3-0.1-0.3 0.3-0.5 0.6-0.4 0.8 0.2 0.4 0.2 0.4 0.3 0 0.1-0.2 0.3-0.5 0.4-0.7zm-8.3 0s-0.1-0.1-0.3-0.1c-0.3 0-0.5-0.1-0.5-0.2 0-0.5-0.5-0.3-0.6 0.2s-0.1 0.5 0.6 0.4c0.4-0.1 0.7-0.2 0.8-0.3zm10.9-0.1c0-0.3-0.2-0.5-0.3-0.4s-0.2 0.4-0.1 0.6c0.2 0.5 0.4 0.5 0.4-0.2zm-5.9-0.3c-0.4-0.2-0.6-0.1-0.4 0.3 0.1 0.2 0.3 0.2 0.5 0.1 0.1-0.1 0.1-0.2-0.1-0.4zm11.7-0.2c-0.2-0.5-0.3-0.5-0.3-0.2s-0.2 0.5-0.5 0.5-0.2 0.1 0.2 0.2c0.9 0.3 0.9 0.3 0.6-0.5zm-15 0.3c0.1-0.2 0-0.2-0.2-0.1-0.5 0.2-0.6 0.3-0.2 0.3 0.2 0 0.3-0.1 0.4-0.2zm12.5 0c0-0.2 0-0.3-0.1-0.3-0.2 0-0.3 0.1-0.3 0.3 0 0.1 0 0.2 0.1 0.2 0 0 0.2-0.1 0.3-0.2zm-11.7-1.2c-0.2-0.5-0.3-0.5-0.5 0.1 0 0.3 0 0.5 0.3 0.4 0.2-0.1 0.2-0.3 0.2-0.5zm6.8 0.5-0.3-0.3c-0.1 0-0.3 0-0.3 0.2 0 0.1 0.2 0.2 0.3 0.2s0.3 0 0.3-0.1zm4.2-0.4c0-0.1-0.3-0.2-0.6-0.2-0.6 0-0.6 0-0.1 0.2 0.3 0.1 0.6 0.3 0.6 0.3 0.1 0 0.1-0.2 0.1-0.3zm-6.6-0.6c0.3-0.4 0.2-0.4-0.1-0.3s-0.4 0.3-0.4 0.4c0 0.4 0.1 0.3 0.5-0.1zm2.1 0.1c0-0.1-0.2-0.3-0.4-0.4-0.4-0.1-0.4-0.1-0.1 0.3s0.5 0.5 0.5 0.1zm-13.6-0.3c0.1-0.1 0-0.2-0.1-0.2-0.2 0-0.3 0.1-0.3 0.2 0 0.2 0 0.3 0.1 0.3s0.2-0.1 0.3-0.3zm-5.6-0.8c-0.7-0.3-1.1-0.3-0.6 0.1 0.3 0.1 0.4 0.4 0.3 0.5-0.1 0.2 0 0.2 0.3 0 0.4-0.4 0.4-0.4 0-0.6zm9.4 0.6c0-0.2-0.2-0.3-0.5-0.3s-0.4 0 0 0.3c0.5 0.3 0.5 0.3 0.5 0zm5.4-0.4c-0.2-0.6-0.4-0.5-0.4 0.1 0 0.3 0.1 0.5 0.3 0.4 0.1-0.1 0.2-0.3 0.1-0.5zm6.5-0.2c0-0.4 0-0.5-0.4-0.2-0.2 0.3-0.2 0.4 0 0.5 0.4 0.3 0.4 0.3 0.4-0.3zm6.8-0.1c0.8-0.1 1.3-0.1 1.8 0.2 0.4 0.3 0.6 0.3 1.2 0l0.7-0.3h-0.8c-1 0-1.9-0.6-2.5-1.6-0.6-1.1-2.4-2.3-2.3-1.6 0 0.2 0.4 0.5 0.8 0.7 1 0.3 2 1.9 1.4 2.2-0.6 0.4-2.2 0.3-2.6-0.1-0.2-0.3-0.4-0.4-0.6-0.2-0.5 0.5-1.4 0.3-2-0.3-0.3-0.3-0.6-0.5-0.6-0.3 0 0.6 1 1.2 2 1.2 0.7 0 1.3 0.1 1.5 0.4 0.2 0.2 0.4 0.3 0.6 0.1 0.2-0.1 0.8-0.3 1.4-0.4zm-24.9 0c-0.8-0.5-0.7-0.4-0.4-1.4 0.3-0.7 0.3-0.7-0.5 0.2l-0.8 0.9 1 0.4c1.3 0.4 1.6 0.3 0.7-0.1zm4.4 0.1c-0.5-0.2-0.6-0.4-0.4-0.8 0.2-0.7 0.1-0.7-0.5 0.4l-0.5 0.7h1c0.9 0 0.9-0.1 0.4-0.3zm3-0.2c0-0.1 0-0.4-0.1-0.5-0.2-0.3-0.3-0.2-0.4 0.2-0.1 0.5 0.2 0.7 0.5 0.3zm-11.8-0.2s-0.5-0.4-1.2-0.9l-1.2-0.8 0.9-1.3 0.8-1.2-1.1 1.1c-0.7 0.6-1.5 1.2-1.7 1.4l-0.6 0.3h0.6c0.2 0 1.1 0.3 1.9 0.8 1.7 0.8 1.6 0.8 1.6 0.6zm-4.6-1.3s-0.4-0.1-0.9-0.2c-0.7-0.2-0.8-0.1-0.6 0.2 0.2 0.2 0.2 0.4 0 0.6s0.1 0.2 0.6-0.1c0.6-0.3 1-0.5 0.9-0.5zm19 0.4c-0.1-0.3-0.2-0.5-0.2-0.5-0.1 0-0.1 0.2-0.1 0.5s0.1 0.5 0.2 0.5 0.2-0.2 0.1-0.5zm8.3 0c-0.2-0.2-0.4-0.6-0.4-0.9 0-0.4-0.2-0.7-0.3-0.8-0.3-0.2 0 1.2 0.3 1.6 0.2 0.2 0.4 0.4 0.6 0.4 0.1 0 0.1-0.2-0.2-0.3zm-1.2-0.6c0-0.1-0.2-0.3-0.4-0.5-0.4-0.2-0.4-0.2-0.3 0.2 0.2 0.3 0.7 0.6 0.7 0.3zm-12.3-0.5c0-0.1 0-0.2-0.1-0.2-0.2 0-0.3 0.1-0.3 0.2 0 0.2 0 0.3 0.1 0.3 0 0 0.2-0.1 0.3-0.3zm17 0c0-0.1-0.2-0.2-0.4-0.2s-0.4-0.1-0.4-0.3c0-0.1-0.2-0.2-0.4-0.1-0.3 0.2-0.3 0.3 0.3 0.5l0.8 0.4c0.1 0 0.1-0.1 0.1-0.3zm-12.7-0.1c0-0.2-0.8-0.3-0.9-0.2s0.1 0.3 0.4 0.3 0.5 0 0.5-0.1zm10.1-0.2c-0.2-0.3-0.4-0.4-0.5-0.3s0 0.3 0.2 0.4c0.6 0.4 0.6 0.3 0.3-0.1zm-13.1-0.5c0.1-0.4 0-0.5-0.1-0.2-0.2 0.1-0.4 0.4-0.6 0.5-0.3 0.2-0.2 0.3 0.1 0.3 0.4 0 0.6-0.2 0.6-0.6zm-3-0.1c-0.5-0.4-0.6-0.5-0.1-1.1l0.4-0.7-0.7 0.6c-0.9 0.8-0.9 0.9 0 1.3 1 0.4 1.1 0.3 0.4-0.1zm-2-0.1c0.3-0.1 0.2-0.2-0.3-0.3-0.4-0.1-0.6-0.1-0.5 0.2 0.2 0.4 0.4 0.4 0.8 0.1zm-2-1.4-0.8-0.8 0.8-0.9 0.9-0.9-1.3 0.9-1.4 0.8 1.2 0.9c1.6 1 1.7 1 0.6 0zm7.8 0.3c0.1-0.1 0-0.2-0.1-0.2-0.2 0-0.3 0.1-0.3 0.2 0 0.2 0 0.3 0.1 0.3s0.2-0.1 0.3-0.3zm1.3 0c-0.1-0.1-0.4-0.2-0.6-0.2-0.4 0-0.4 0 0.1 0.2 0.7 0.3 0.7 0.3 0.5 0zm7 0c0-0.2 0.1-0.2 0.2-0.1 0.3 0.1 0.7-0.6 0.7-1.1 0-1-0.2-1.2-0.8-1.5-0.7-0.4-0.8-0.3-1.5 0-1.4 0.9-0.7 2.9 1.1 2.9 0.1 0 0.3-0.1 0.3-0.2zm6.6-0.4-0.3-0.3c-0.3-0.2-0.4-0.2-0.4 0.2 0 0.3 0.2 0.4 0.4 0.3 0.2 0 0.3-0.1 0.3-0.2zm-25.5-0.9c-0.3 0-0.7-0.2-0.9-0.4-0.4-0.2-0.4-0.2-0.1 0.2 0.2 0.2 0.3 0.6 0.2 0.7-0.1 0.2 0.1 0.2 0.6 0 0.6-0.3 0.6-0.4 0.2-0.5zm9.4 0.5c-0.2-0.3-0.2-0.4 0.1-0.7 0.2-0.3 0.2-0.4-0.3-0.1-0.6 0.3-0.6 0.4-0.2 0.7 0.6 0.5 0.9 0.5 0.4 0.1zm18.5-0.6s-0.2-0.2-0.3-0.4c-0.3-0.2-0.4-0.1-0.4 0.2s0.2 0.5 0.4 0.4c0.1-0.1 0.3-0.2 0.3-0.2zm-30.1-1.7c-0.8-1-1.1-1.9-0.7-1.9 0.2 0 0.7-0.4 1.2-0.8l0.9-0.8-1.6 0.8c-0.8 0.4-1.8 0.8-2.2 0.8h-0.7l0.6 0.3c0.4 0.1 1.2 0.8 1.9 1.4 0.6 0.7 1.3 1.2 1.3 1.2s-0.3-0.5-0.7-1zm13.8 0.8c0.1-0.2 0.1-0.3-0.1-0.3-0.1 0-0.3 0.1-0.3 0.3 0 0.1 0.1 0.2 0.1 0.2 0.1 0 0.3-0.1 0.3-0.2zm13.7-0.3c0-0.2-0.1-0.3-0.3-0.3-0.1 0-0.2 0.2-0.2 0.4s0.1 0.3 0.2 0.3c0.2-0.1 0.3-0.3 0.3-0.4zm-18.8-0.1c-0.2-0.2-0.2-0.4 0.2-0.8 0.4-0.5 0.4-0.5-0.1-0.2-0.8 0.4-2.1 0.4-2.5-0.1-0.2-0.2-0.3-0.2-0.1 0.2 0.1 0.3 0.4 0.5 0.9 0.5 0.3 0 0.9 0.1 1.1 0.4 0.7 0.4 1 0.5 0.5 0zm23.6-1.4c-0.8-0.8-1-0.8-0.6-0.1 0.1 0.3 0.4 0.5 0.6 0.5 0.1 0 0.1 0.3-0.2 0.7l-0.5 0.8 0.7-0.7 0.7-0.6zm-20.3 0c0-0.7-0.3-0.8-0.6-0.4-0.1 0.2 0 0.5 0.2 0.7 0.4 0.5 0.4 0.5 0.4-0.3zm22.7 0.1c-0.1-0.3-0.2-0.4-0.3-0.3-0.1 0.2-0.3 0.4-0.5 0.4-0.3 0-0.2 0.1 0.2 0.2 0.3 0.1 0.7 0.2 0.7 0.3 0 0 0-0.3-0.1-0.6zm-5.3-0.3c0.4-0.6 0.4-0.7 0-0.7s-0.5 0.2-0.5 0.7v0.6c0.1 0 0.3-0.3 0.5-0.6zm-15 0c-0.1-0.2 0-0.5 0.2-0.5 0.2-0.1 0.1-0.2-0.2-0.2-0.2 0-0.4 0.1-0.4 0.1 0 0.3 0.3 1 0.4 1s0.1-0.2 0-0.4zm-18.3-1c-0.3-0.2-0.8-0.5-1.1-0.7-0.5-0.4-0.5-0.4 0 0.1 0.4 0.5 0.4 0.7 0.2 1-0.3 0.4-0.2 0.4 0.5 0.1 0.8-0.2 0.8-0.3 0.4-0.5zm14.4 0.6c0-0.2 0-0.3-0.1-0.3s-0.2 0.1-0.3 0.3c-0.1 0.1 0 0.2 0.1 0.2 0.2 0 0.3-0.1 0.3-0.2zm-5.1-0.9c-0.3-0.4-0.4-0.8-0.4-0.8 0.1-0.1 0.4-0.3 0.9-0.6 0.4-0.2 0.5-0.3 0.3-0.2-0.3 0.1-1 0.2-1.5 0.3l-0.9 0.1 0.9 1c1.1 1.3 1.2 1.3 0.7 0.2zm19.3 0.7c0-0.1-0.3-0.1-0.5 0s-0.1 0.1 0.2 0.1c0.3 0.1 0.4 0 0.3-0.1zm11.6-1.8 0.5-0.6-1.2-0.3c-1.6-0.4-1.9-0.3-0.7 0.2 0.9 0.4 0.9 0.5 0.4 1.7-0.4 0.8-0.4 0.8 0 0.2 0.3-0.4 0.7-0.9 1-1.2zm-19.1 0.6c-0.2-0.2-0.2-0.1-0.1 0.3s0.2 0.5 0.2 0.3c0.1-0.2 0-0.5-0.1-0.6zm-7.5-0.3c-0.2-0.6-0.1-0.7 0.2-0.8s0.2-0.1-0.2-0.1c-0.8-0.1-0.8-0.1-0.4 0.7 0.5 1 0.8 1.1 0.4 0.2zm3.4 0.1c-0.1-0.3 0-0.6 0.2-0.7 0.1 0 0.1-0.1-0.2-0.1-0.4 0-0.5 0.1-0.4 0.4s0.2 0.5 0.2 0.7c0 0.1 0.1 0.2 0.2 0.2s0.1-0.2 0-0.5zm3.2-0.2s-0.2-0.1-0.5-0.1-0.5 0.1-0.5 0.3c0 0.1 0.2 0.1 0.5 0.1 0.3-0.1 0.5-0.2 0.5-0.3zm15.2-0.5 0.4-0.8h-1c-0.8-0.1-0.9 0-0.3 0.2 0.5 0.2 0.6 0.4 0.4 1-0.2 0.8-0.1 0.7 0.5-0.4zm-37.7-1.4-1-1.8 1.9-0.9c1-0.5 1.7-0.9 1.7-1l-2 0.6c-1.1 0.4-2.4 0.7-2.9 0.7h-1l0.8 0.5c0.5 0.4 1.4 1.3 2 2.2 0.6 0.8 1.2 1.5 1.2 1.5 0.1 0-0.2-0.8-0.7-1.8zm34.2 1.3c0.1-0.4 0.1-0.4-0.5-0.3-0.5 0.1-0.6 0.2-0.3 0.2 0.3 0.1 0.5 0.2 0.5 0.4 0 0.4 0.2 0.2 0.3-0.3zm-24.6 0.2c-0.1-0.1-0.4-0.3-0.7-0.5-0.5-0.5-0.5-0.5-0.5 0 0 0.4 0.1 0.6 0.6 0.6 0.4 0 0.6-0.1 0.6-0.1zm20.3-1.1c-0.1-0.2-0.2-0.1-0.2 0.2s0.1 0.5 0.1 0.3c0.1 0 0.2-0.3 0.1-0.5zm14.9 0.5c-0.1-0.1-0.2-0.4-0.1-0.6 0.2-0.5 0-0.4-0.6 0.2-0.5 0.5-0.4 0.5 0.3 0.5 0.4 0 0.6-0.1 0.4-0.1zm-30.5-0.2c0-0.1-0.1-0.3-0.2-0.3-0.2-0.1-0.3-0.1-0.3 0.1 0 0.1 0.1 0.3 0.3 0.3 0.1 0 0.2-0.1 0.2-0.1zm20.9-0.6c-0.1-0.1-0.2 0.1-0.3 0.3-0.2 0.4-0.2 0.4 0.1 0.2 0.2-0.2 0.3-0.4 0.2-0.5zm3.9 0.1c0.3-0.4 0-0.5-0.4-0.1-0.1 0.2-0.2 0.4 0 0.4 0.1 0 0.3-0.1 0.4-0.3zm-13.3-0.3c-0.1-0.1-0.2-0.2-0.4-0.2-0.1 0-0.2 0.1-0.2 0.2s0.2 0.3 0.4 0.3 0.3-0.2 0.2-0.3zm-4.2-0.5c0.1-0.1 0-0.2-0.3-0.3-0.4-0.1-0.5 0-0.4 0.4 0.1 0.3 0.2 0.4 0.3 0.3l0.4-0.4zm-14-1c-0.2-0.7-0.4-1.2-0.3-1.2 0 0 0.6-0.2 1.2-0.5l1.2-0.4-2.2 0.1h-2.1l0.6 0.5c0.4 0.3 0.9 1.1 1.2 1.7 0.7 1.4 0.9 1.3 0.4-0.2zm24.7 0.5c0.1-0.2 0-0.2-0.5 0-0.9 0.5-1 0.6-0.3 0.5 0.4-0.1 0.7-0.3 0.8-0.5zm-18.8-0.6c-0.2-0.9-0.1-1 0.5-1 0.6-0.1 0.5-0.2-0.5-0.4l-1.1-0.2 0.4 0.9c0.3 0.5 0.5 1 0.5 1.2s0.1 0.4 0.1 0.4c0.1 0 0.1-0.4 0.1-0.9zm14.5 0.6c0-0.1 0-0.3-0.1-0.3-0.2 0-0.3 0.2-0.3 0.3s0 0.3 0.1 0.3 0.2-0.2 0.3-0.3zm19.4-3.1c0.5-0.2 1.2-0.3 1.8-0.4 0.9 0 0.9 0 0.4-0.2s-0.6-0.4-0.5-1c0.2-0.7 0.2-0.7-0.4 0.2-0.7 1.1-2 1.7-3.9 1.5l-1.5-0.2 1.3 0.4c0.7 0.3 1.2 0.5 1.2 0.5 0 0.1-0.2 0.6-0.4 1.2-0.6 1.7-0.4 1.7 0.5 0 0.5-0.9 1.1-1.7 1.5-2zm-29.2 2.6c0.5 0 0.2-0.4-0.4-0.6-0.4-0.1-0.4 0-0.3 0.6 0 0.3 0.1 0.5 0.2 0.3s0.3-0.3 0.5-0.3zm5.9-0.2c0.5 0.3 0.3 0.1-0.2-0.4s-0.6-0.5-0.6 0.3c0 0.5 0.1 0.6 0.3 0.3 0.1-0.2 0.3-0.3 0.5-0.2zm11.9-1c0.2-0.2 0.6-0.4 0.9-0.4 0.4 0 0.5-0.1 0.2-0.2-0.2-0.1-0.5-0.3-0.6-0.4-0.1-0.2-0.2-0.2-0.2 0 0 0.6-0.8 1.4-1.4 1.4-0.4 0-0.4 0 0 0.5 0.4 0.4 0.5 0.4 0.6 0 0-0.2 0.2-0.6 0.5-0.9zm4.6-0.9c0.3-0.3 0.3-0.4-0.3-0.1-0.3 0.2-1 0.4-1.7 0.4h-1.1l1.1 0.2c1 0.1 1 0.2 1 1l-0.1 1 0.4-1.1c0.2-0.5 0.5-1.2 0.7-1.4zm-10.9 1.6c0-0.2-0.1-0.3-0.3-0.3-0.1 0-0.3 0.1-0.5 0.3-0.2 0.3-0.1 0.4 0.3 0.4 0.2 0 0.5-0.2 0.5-0.4zm-2.8-0.3c-0.2-0.4-0.6-0.3-0.7 0.1-0.1 0.3 0 0.3 0.3 0.2s0.5-0.2 0.4-0.3zm6.9 0.4c0-0.1-0.3-0.2-0.5-0.1s-0.1 0.2 0.2 0.2 0.4-0.1 0.3-0.1zm-17-1.2c-0.1-0.4-0.2-0.5-0.4-0.2s0 0.7 0.3 0.7c0.1 0 0.2-0.2 0.1-0.5zm4.8-0.6c0.6 0.1 0.6 0.1-0.4-0.5l-0.6-0.4-0.1 1.1c0 1 0 1 0.2 0.3 0.3-0.6 0.4-0.7 0.9-0.5zm10.8-0.2c-0.2-0.8-0.2-0.8-0.7-0.4s-0.5 0.4-0.1 0.3c0.3-0.1 0.5 0 0.6 0.5 0.1 0.4 0.2 0.6 0.3 0.6 0.1-0.1 0-0.5-0.1-1zm-20.8 0c-0.1-0.3-0.3-0.4-0.4-0.3 0 0.2-0.3 0.3-0.6 0.3-0.4 0.1-0.3 0.1 0.3 0.3l1 0.2s-0.1-0.2-0.3-0.5zm-7.1-0.5c-0.3-0.4-0.7-0.7-0.7-0.8-0.1-0.1 0 0.1 0.1 0.5s0 0.6-0.5 0.8-0.4 0.2 0.6 0.2h1.1zm38.1 0c-0.5 0-0.7-0.2-0.8-0.6-0.1-0.5-0.1-0.4-0.4 0.2l-0.2 0.8 1-0.2c0.9 0 1-0.1 0.4-0.2zm-17.4-0.3 0.7 0.4-0.7-0.7c-0.7-0.8-0.9-0.8-1.1 0.1-0.2 0.5-0.2 0.5 0.1 0.2 0.3-0.4 0.4-0.4 1 0zm3.5 0c0.5 0.4 0.5 0.4 0.2-0.2-0.2-0.4-0.3-1.1-0.2-1.5 0.1-0.5 0.1-0.9-0.1-0.9-0.1 0-0.2 0.3-0.2 0.7s-0.3 1.1-0.6 1.5c-0.4 0.6-0.4 0.7-0.1 0.4 0.5-0.5 0.5-0.5 1 0zm7.9-1.6c0.1-0.9 0-1.2-0.2-1-0.2 0.1-0.7 0.4-1.2 0.6l-0.9 0.4 0.9-0.1c0.8-0.1 0.8-0.1 1 1 0.2 1.2 0.3 1 0.4-0.9zm-16.3 0.8c-0.1-0.1-0.3-0.3-0.4-0.3-0.2 0-0.1 0.2 0.1 0.4 0.3 0.4 0.6 0.4 0.3-0.1zm12.7-0.2c0.1-0.2 0-0.3-0.1-0.5-0.2 0-0.3 0.1-0.3 0.3 0 0.5 0.2 0.5 0.4 0.2zm-8.8-1.4c-0.2-0.2-0.3-0.1-0.1 0.3 0.1 0.4 0.2 0.5 0.2 0.3 0.1-0.2 0-0.5-0.1-0.6zm18.1-0.8c0.1-1.5 1.1-2.8 2.3-3.1 0.6-0.2 0.7-0.3 0.3-0.3-0.6 0-0.6-0.2-0.8-2.7 0-1.6 0-3.1 0.1-3.6 0.3-1.1 1.4-2.4 2.6-2.9l0.7-0.4-0.8 0.2c-0.8 0.1-0.9 0.1-0.9-0.6 0-0.5-0.1-0.4-0.5 0.7-0.6 1.9-1.3 2.5-3.7 3.5l-2 0.8 1.3-0.2c2.5-0.3 2.4-0.5 2.8 2.1 0.3 2.1 0.3 2.4-0.1 3.2-0.5 1.2-1.4 1.7-3.4 2.1l-1.6 0.4h3.3v1.3c0 1.4 0.1 1.3 0.4-0.5zm-20.8-0.5c0.2 0 0.5 0.1 0.9 0.3 0.3 0.2 0.2 0-0.4-0.6l-0.9-0.9-0.2 0.8c0 0.4-0.2 1.1-0.3 1.5-0.1 0.5-0.1 0.4 0.3-0.3 0.2-0.4 0.5-0.8 0.6-0.8zm10.5-0.2-0.3-1.1-2.4 2.2 1-0.6c1-0.6 1-0.6 1.4-0.1 0.2 0.3 0.4 0.6 0.4 0.7s0 0.2 0.1 0.1c0.1 0 0-0.6-0.2-1.2zm-4.7-0.4c-1.4-1.9-1-3.2 1.3-4.8 1.1-0.8 1.1-0.8 1.5-0.3 1.3 1.7 1.4 1.8 0.6 0.2-0.4-0.9-0.7-1.8-0.7-2.1s-0.2-0.2-0.5 0.3c-0.2 0.4-1 1.5-1.7 2.2-1.3 1.3-1.4 1.4-1.9 0.9-0.5-0.4-0.5-0.4-0.1 0.2 0.6 1 0.6 2.1-0.2 3.3l-0.8 1.1 0.8-0.7 0.8-0.8 0.8 0.8c1 1.1 1.1 1 0.1-0.3zm10.8 0.5c0-0.1-0.2-0.2-0.4-0.2-0.4-0.1-0.6 0-0.7 0.3-0.1 0.5 0 0.5 0.4 0.2 0.4-0.1 0.6-0.3 0.7-0.3zm-1.1-3c-0.3-1.9-0.1-2.8 0.9-3.8 0.6-0.6 0.7-0.8 0.3-0.6-0.4 0.1-0.6 0-0.6-0.2s-0.2 0.2-0.4 0.8c-0.4 1.4-0.7 1.7-2.5 2.7-1.4 0.9-1.3 0.9 0.3 0.4 0.6-0.2 1.1-0.4 1.2-0.4 0 0.1 0.2 0.7 0.5 1.5 0.2 0.8 0.5 1.4 0.5 1.3 0.1 0 0-0.8-0.2-1.7zm-19.3-0.5c1.7 0.6 1.7 0.5 0.2-0.3-0.7-0.4-1.5-0.8-1.7-1-0.3-0.3-0.4-0.1-0.4 1.5l-0.1 1.9 0.8-2.4zm3.3 1.1c0-0.5-0.1-0.7-0.3-0.4-0.1 0.2-0.4 0.2-0.6 0.1-0.1-0.1-0.1 0.1 0.2 0.5s0.6 0.7 0.6 0.7 0.1-0.4 0.1-0.9zm11.4 0c0.4-0.5 0.4-0.6-0.1-0.6-0.4 0-0.5 0.2-0.5 0.7 0 0.3 0 0.6 0.1 0.5 0 0 0.2-0.3 0.5-0.6zm-9.8-3.1c0.3-0.5 0.4-0.5 1.5 0.3l1.2 0.9-1.1-1.2c-0.6-0.6-1.2-1.4-1.4-1.8l-0.2-0.7v0.7c-0.1 0.4-0.3 1.3-0.7 2.1-0.7 1.5-0.6 1.4 0.7-0.3zm-7.3-1.6c0-0.9 0-1-0.2-0.5-0.1 0.3-0.4 0.6-0.7 0.6-0.4 0-0.3 0.1 0.2 0.5 0.4 0.3 0.7 0.5 0.7 0.5v-1.1zm3.8-4c1 0.5 1.9 0.9 1.9 0.8 0 0-0.7-0.6-1.5-1.1s-1.8-1.4-2.2-1.9l-0.8-0.9v1.2c0 0.6-0.3 1.8-0.6 2.7-0.8 2.2-0.6 2.3 0.4 0.1l0.9-1.9zm3.9 1.1c0.1-0.2 0-0.2-0.3 0-0.4 0.3-0.6 0.3-0.9 0.1-0.5-0.3-0.5-0.2 0 0.6 0.6 0.8 0.6 0.8 0.8 0.2 0.1-0.3 0.2-0.7 0.4-0.9zm40.3 72.5c-1.7-0.8-2.6-1.8-3.5-3.5-0.5-1-0.6-1.8-0.8-6.6-0.2-3-0.2-5.6-0.2-5.6 0.1-0.1 2.6-0.1 5.5-0.2 5.2 0 5.5 0 6.9 0.6 1.7 0.7 3.5 2.7 4.1 4.4 0.3 1 0.5 2.7 0.6 6.5l0.2 5.2h-11.1zm-110.8-11.3c-0.8-0.3-3.9-1.7-6.8-3.2l-5.4-2.7 0.7-1.5c0.4-0.8 1.8-3.7 3.2-6.4 2.8-5.5 3.4-6.3 6.3-7.7 2.2-1.1 4.9-1.3 7.1-0.7 1.4 0.4 12.6 5.9 12.6 6.1 0 0.6-5.8 12-6.5 12.8-2.6 3.2-7.3 4.6-11.2 3.3zm22.5-0.7c-2.8-0.8-8.4-2.6-8.6-2.8s2.4-8.9 3.2-10.2c1.3-2.3 3.9-3.8 6.6-3.8 1.3 0 10.2 2.4 10.8 2.9 0.2 0.2-2.3 8.6-3 10.1-1.6 3.1-5.6 4.8-9 3.8zm121.4-1.5c-1.6-0.3-4-1.7-5.3-2.9-0.7-0.8-2.2-3.2-4.2-7.1l-3.2-5.9 5.3-2.9c6.7-3.6 7.7-4 10.3-4 3.1 0 5.9 1.3 7.9 3.7 0.5 0.6 2.2 3.6 3.8 6.7 2.8 5.1 3.1 5.7 2.6 6-1.1 0.6-10.8 5.7-11.8 6.1-1.3 0.4-4 0.6-5.4 0.3zm-21.2-0.2c-2.2-0.7-4-2.2-5-4.1-0.6-1.2-3.3-9.4-3.2-9.5 0.5-0.4 10.1-3.4 11-3.4 2.7 0 5.6 1.8 6.8 4.3 0.7 1.4 3.5 9.5 3.4 9.6-0.1 0-2.3 0.8-5 1.7-4.8 1.6-6.3 1.9-8 1.4zm-150.8-0.7c-0.8-0.2-2-0.7-2.7-1-1.2-0.6-14.1-9.5-14.8-10.2-0.3-0.3 9-13.5 10.7-15.3 1.9-1.9 4.9-3.4 7.7-3.8 2.5-0.4 5.1 0 7.4 1 1.9 0.9 15.4 10.3 15.4 10.8-0.1 0.7-9.4 13.8-10.8 15.1-3.4 3.2-8.5 4.6-12.9 3.4zm198.4-3.4c-2.1-0.5-4.2-1.7-5.8-3.2-1.3-1.4-11.4-14.3-11.4-14.8s13.8-10.4 15.4-11.2c5.3-2.5 11.6-1.3 15.6 2.9 0.5 0.6 2.9 3.7 5.3 6.8 2.3 3.2 4.5 6.1 5 6.5l0.5 0.9-7.1 5.3c-4 2.9-7.7 5.6-8.5 5.9-2.9 1.3-6.1 1.6-9 0.9zm-235.1-6.8c-2.5-0.6-5.1-2-7.3-3.9-2.3-2-16-15.2-16-15.5 0-0.2 3-3.6 10.4-11.3 5.8-6.1 7.7-7.6 10.7-8.8 2.4-0.9 4.4-1.3 7.2-1.3 3.1 0.1 5 0.5 8.1 2.1 2.1 1 2.9 1.6 6.4 4.9 2.1 2.1 6 5.9 8.7 8.6l4.8 4.8-8.1 8.3c-9.5 9.9-10.9 11-15.8 12.3-2.2 0.5-6.6 0.5-9.1-0.2zm177-3.9c-0.5-0.3-1.3-0.8-1.7-1.3-0.7-0.7-4.3-7.2-4.2-7.3s1.7-0.9 3.6-1.9c3.2-1.7 3.5-1.8 5.1-1.8 3 0 4.1 1 6.6 5.6 0.9 1.8 1.6 3.3 1.6 3.4-0.1 0-1.6 0.8-3.4 1.8-2.8 1.5-3.5 1.8-4.9 1.9-1.2 0.1-1.9 0-2.7-0.4zm-95.6-0.1c-0.7-0.2-2.3-1.1-3.5-1.9-4.6-3.1-6.1-4.3-6.1-4.6 0-0.4 4.9-7.4 5.9-8.5 1.8-1.8 4.9-2.5 7.5-1.8 1 0.3 2.7 1.3 5.2 3.1 2.2 1.5 4 2.8 4.2 3 0.4 0.4-4.1 6.9-6.1 8.8s-4.6 2.6-7.1 1.9zm188.6-0.3c-2.3-0.5-4.7-1.4-6.6-2.7-1-0.5-4.2-3.5-7.7-6.7-3.1-3.1-6.8-6.7-8.2-7.9-1.3-1.2-2.3-2.4-2.3-2.6 0-0.3 10.5-11.5 15.3-16.1 1.9-2 4.2-3.4 7.2-4.3 1.8-0.6 2.3-0.7 5.5-0.7s3.7 0.1 5.6 0.7c4.5 1.4 4.7 1.8 18.5 15.2l4.2 4-1 1.3c-0.6 0.7-4.5 4.8-8.8 9.1-7.6 7.6-7.9 7.9-10 8.9-1.3 0.6-2.9 1.3-3.7 1.5-2.4 0.6-5.8 0.7-8 0.3zm-77.6-1.9c-1.8-0.6-2.8-1.6-6-5.7l-3.1-4.2 3.6-2.8c4.6-3.4 5.5-3.9 7.7-4 3.7-0.2 5.1 0.7 9 5.7 1.5 2 2.8 3.8 2.9 4.1 0.3 0.3-0.3 0.9-3.4 3.2-4.5 3.4-5.9 4.1-8.1 4.1-0.8 0-2-0.2-2.6-0.4zm-132.1-3.7c-1.9-0.6-3-1.5-8.1-6.3l-4.6-4.5 1.9-2c1.2-1.1 2.1-2.1 2.1-2.3 0-0.1 1.3-1.6 2.9-3.2 4-3.9 5.1-4.4 9-4.4 2.4 0 2.9 0 4.3 0.7 1.5 0.7 4.7 3.5 9.4 8.5l2.2 2.2-4.9 5c-5.9 6-6.7 6.5-10.6 6.6-1.6 0.1-2.8-0.1-3.6-0.3zm151.1-2.6c-2-0.7-3.4-1.7-8.1-6.3l-4.7-4.6 4.4-4.7c2.5-2.6 5-5.1 5.8-5.7 1.8-1.2 3.7-1.7 6.3-1.6 3.3 0.2 4.4 0.9 9.4 5.6 2.4 2.2 4.5 4.4 5.1 5l0.8 1-4.8 4.9c-5.9 6-6.8 6.6-10.7 6.7-1.5 0-2.8-0.1-3.5-0.3zm-117.4-3.2c-0.8-0.4-2.3-1.7-3.8-3.2l-2.5-2.4 2.5-2.8c2.9-3.4 3.7-4 6-4.1 2.4-0.2 3.4 0.4 6.5 3.8l2.6 2.7-2.6 2.8c-2.8 3-3.7 3.6-5.9 3.8-1.2 0.1-1.7-0.1-2.8-0.6zm84.9-1.5c-0.6-0.3-2.3-1.7-3.7-3.1l-2.6-2.7 1-1.1c3.9-4.1 4.8-5 6-5.4 1.5-0.5 3.2-0.4 4.5 0.3 0.5 0.3 2.1 1.7 3.6 3.3l2.7 2.8-2.7 2.7c-1.5 1.5-3.2 3-3.7 3.3-1.3 0.7-3.7 0.6-5.1-0.1zm-17.5-2.6c-0.5-0.2-1.5-0.9-2.2-1.5l-1.3-1.3 1.5-1.6c1.3-1.3 1.8-1.6 2.7-1.8 1.6-0.3 2.8 0.2 4.4 1.8l1.4 1.4-1.4 1.3c-1.8 1.8-3.2 2.2-5.1 1.7zm-125.6-1.4c-2.2-0.6-4.4-1.8-5.9-3.3-0.8-0.8-3.7-4.5-6.5-8.2l-5.1-6.8 6.9-5.3c7.4-5.5 9.2-6.5 12.3-7 3.8-0.7 8.3 0.7 11.2 3.3 0.7 0.7 3.6 4.4 6.5 8.1l5.1 6.8-5.6 4.1c-3 2.3-5.5 4.3-5.6 4.4-0.1 0.3-2.9 2.3-4.1 2.9-2.5 1.2-6.4 1.6-9.2 1zm45.3-0.5c-0.6-0.1-1.3-0.4-1.8-0.6-0.9-0.5-2.9-2.2-2.9-2.5 0-0.2-1.2-1.8-2.6-3.8-1.5-1.9-2.6-3.6-2.5-3.6 0.1-0.1 2-1.6 4.1-3.2 4-3 5.5-3.7 7.6-3.7 1.4 0 3.3 0.6 4.5 1.4 0.9 0.6 7.4 8.8 7.1 9 0 0-1.1 0.8-2.3 1.8-1.2 0.9-2.4 1.9-2.7 2.1-2.2 2.4-5.9 3.8-8.5 3.1zm111.7-2.1c-1-0.2-2.3-1-2.5-1.2 0-0.2-1.6-1.4-3.5-2.7-2-1.4-3.5-2.6-3.5-2.7 0-0.4 4.9-7.3 5.9-8.4 1.3-1.4 3.1-2.2 5.2-2.2 0.9 0 2.2 0.2 2.8 0.4s2.9 1.7 5.2 3.2c2.2 1.6 4 2.9 4.1 2.9 0 0-1.2 1.8-2.8 4-2.9 4.2-4.1 5.6-5.6 6.3-1.1 0.6-4.2 0.8-5.3 0.4zm43.1-0.8c-0.8-0.2-1.6-0.3-1.6-0.4 0-0.2-0.8-0.6-1.6-1-1.3-0.6-11.1-7.2-14.9-10-0.5-0.4-0.2-0.8 4.4-7.4 2.6-3.8 5.5-7.5 6-8.2 4-3.8 9.6-4.9 14.9-2.9 1 0.5 14.5 9.5 15.6 10.6 0.2 0.2-6.4 10.1-9.6 14.1-1 1.6-3.4 3.3-5.3 4.1-0.7 0.2-1.3 0.5-1.3 0.6-0.2 0.3-2.9 0.8-4.2 0.8-0.5-0.1-1.9-0.2-2.4-0.3zm-59.4-6.3c-1.3-0.4-5.7-2.4-5.7-2.7 0-0.2 0.6-1.3 1.2-2.6 2.2-4.3 4.7-6 8.5-5.8 1.5 0.2 2.3 0.4 4.4 1.4 1.4 0.6 2.6 1.2 2.6 1.3s-0.6 1.3-1.2 2.7c-1.8 3.7-4 5.5-7.3 5.8-0.8 0-1.9 0-2.5-0.1zm-112.8-2.6c-3.7-1-5-2.4-9-9.9l-3.1-5.9 5.3-2.8c7.1-3.8 7.7-4 10.7-3.9 2 0.1 2.7 0.2 4.1 0.9 2.9 1.5 3.6 2.4 8.4 11.5l1.9 3.6-6.1 3.2c-7.3 3.9-8.7 4.3-12.2 3.3zm143.6-2.8c-0.9-0.3-3.8-1.7-6.4-3-2.7-1.3-5-2.4-5.2-2.5-0.3-0.1 0.4-1.8 2.7-6.4 3.4-7 4.2-8 7.2-9.4 1.9-1 4.7-1.3 6.6-0.9 1.1 0.3 13.1 6 13.1 6.2 0 0.1-1.3 2.9-3 6.3-3.4 6.9-4.2 8.1-7.2 9.5-2.2 1-5.4 1.1-7.8 0.2zm-121.9-2.8c-1.3-0.4-2.5-1.3-3.6-2.5-0.9-1-1.3-2-2.7-6-0.9-2.7-1.5-4.9-1.4-5s2.4-1 5-1.9c4.3-1.4 5.1-1.6 6.3-1.5 2.6 0.3 5.2 1.9 6.2 4 0.6 1 3.4 9.2 3.4 9.6 0 0.2-1.9 1-4.4 1.8-4.6 1.6-7.1 2.1-8.8 1.5zm-78.3-2.4c-5.4-1-10.3-4.3-13-8.9-0.7-1.2-2.8-5.2-4.9-9-2-3.7-4.1-7.7-4.6-8.7l-1.1-1.9 1.7-0.9c7.4-4.1 18.9-10.1 20.3-10.6 2.4-0.8 7.3-1 9.9-0.4 4.2 1 8.6 4 11 7.6 1.1 1.7 11.2 20.6 11.1 20.8 0 0-4.6 2.5-10.2 5.4-5.7 3.1-10.8 5.6-11.9 6-2.2 0.7-6.3 1-8.3 0.6zm174.8-1c-1.6-0.5-3.1-1-3.2-1.1-0.3-0.3 1.9-6.9 2.8-8.4 1.9-2.9 5-4.6 8.6-4.8 2-0.1 2.7 0 5.6 0.9 1.8 0.5 3.4 1 3.5 1.1 0.3 0.3-1.4 5.9-2.3 7.6-0.9 1.8-2.9 3.7-4.9 4.7-1.5 0.8-2 0.9-4.3 0.9-2.5 0.1-3 0-5.8-0.9zm-12.8 0.2c-1.7-0.2-3.1-0.5-3.2-0.6 0-0.1 0.1-1.8 0.4-3.7 0.3-2 0.6-3.8 0.6-3.9 0-0.7 1.7-2.6 2.8-3.3 1.6-0.8 2.7-0.8 7.2-0.2 3 0.5 3.1 0.5 3 1.1-0.2 2.9-1 7.1-1.4 8-1 1.9-3.2 3.2-5.5 3.1-0.5 0-2.3-0.2-3.9-0.5zm94.1-3.8c-1.1-0.2-2.2-0.5-2.7-0.7-1.6-0.6-21.2-10.2-21.2-10.4 0-0.5 10.1-20.9 11.2-22.2 2.3-3.3 6.6-6 10.8-6.9 2.7-0.6 6.9-0.5 9 0.2 0.8 0.2 5.6 2.5 10.8 4.9 5.1 2.5 9.6 4.8 10.4 5.1 0.5 0.2 1 0.6 1 0.7 0 0.4-9.5 19.6-10.6 21.3-3.7 6-11.6 9.4-18.7 8zm-217.3-5.5c-4.2-0.6-8-3.2-10.1-6.7-0.6-1-6.2-16.9-6.2-17.5 0-0.1 3.8-1.6 8.4-3.2 7.3-2.5 8.7-2.8 10.5-2.9 4.1-0.2 7.4 1 10.4 4 1 1 2.1 2.4 2.4 3 0.5 1.1 6.1 16.8 6.1 17.3 0 0.2-1.1 0.7-9.9 3.6-7.4 2.5-9.1 2.9-11.6 2.4zm50-2.1c-2.5-0.6-4.8-2.7-5.6-4.9-0.2-0.9-0.4-3.1-0.5-6.5l-0.2-5.3 5.6 0.1c5.1 0.1 5.8 0.1 6.9 0.6 1.6 0.8 3 2.3 3.8 4 0.6 1.3 0.7 1.9 0.8 6.7l0.2 5.3h-1.5c-0.8 0-3 0.1-5 0.2-1.9 0-3.9 0-4.5-0.2zm-22-1.1c-2.8-0.7-5.5-2.9-6.8-5.6-0.5-1.2-1-3.2-1.8-8-0.7-3.5-1.1-6.5-1-6.5 0.1-0.1 2.9-0.7 6.3-1.3 7.2-1.3 9-1.3 11.5-0.1 1.9 0.8 3.8 2.7 4.9 4.6 0.7 1.3 1 2.6 2 8.1 0.6 3.7 1.1 6.7 1 6.8-0.3 0.2-12.8 2.3-13.8 2.3-0.5 0-1.6-0.2-2.3-0.3zm50.5-1.3c-3.5-1.8-4.5-2.5-5.2-4.1-0.9-2-0.7-3.3 1.3-7.3 0.9-1.9 1.7-3.5 1.8-3.6 0.2-0.2 6.7 3.3 7.6 4.1 1.2 1.2 1.9 3.3 1.7 4.8-0.3 1.3-3.4 7.7-3.7 7.7-0.2 0-1.8-0.7-3.5-1.6zm102 1.4c-1.1-0.2-16.9-5-17.2-5.2 0 0 1.1-3.8 2.5-8.4 1.6-5.1 2.9-8.9 3.5-9.9 1.7-3.1 5.2-5.7 9.1-6.6 2.9-0.7 4.7-0.4 13.7 2.4 4.5 1.3 8.2 2.5 8.5 2.6 0.3 0.3-4.8 15.9-5.6 17.7s-3.9 4.9-5.5 5.8c-2.9 1.4-6.6 2.1-9 1.6zm-79.6-3.7c-2-3.9-2.2-4.7-1.6-6.7 0.4-1.7 1.8-3 5.4-4.9 1.8-0.9 3.4-1.7 3.4-1.6 0.1 0 0.9 1.6 1.9 3.3 2 3.8 2.4 5.3 1.6 7.3-0.7 1.7-1.7 2.6-5.3 4.5-1.8 1-3.3 1.8-3.4 1.8s-1-1.7-2-3.7zm23.2-0.3c-0.1-6.5-0.1-7 0.7-8.6 0.8-1.7 2.7-3.4 4.3-3.9 0.8-0.3 3-0.5 6.5-0.6l5.2-0.2-0.1 5.8v5.8l-0.9 1.4c-0.9 1.6-2.7 3.2-4.2 3.7-0.6 0.2-3.3 0.4-6.3 0.5l-5.2 0.1zm-34.4-0.2c-1.6-1.5-3.1-3.2-3.3-3.6-0.6-1.1-0.6-4 0-5.1 0.5-0.9 5.4-6.2 5.8-6.2 0.5 0 5.5 5.2 6 6.2 0.7 1.5 0.7 3.7-0.1 5.1-0.3 0.6-1.7 2.3-3.1 3.7l-2.5 2.7zm59.6 1.6c-1.9-0.2-8.3-1.1-8.4-1.3-0.1 0 0.1-2.3 0.5-4.9 0.6-4.5 0.8-5 1.8-7.1 2.4-4.8 7.6-8.2 12.8-8.2 1.1 0 9.1 0.9 9.8 1.2 0.3 0.1-0.5 6.3-1.1 9.1-0.6 3.3-3.6 7.3-6.7 9.1-2.4 1.5-6.1 2.3-8.7 2.1zm-82.3-6.3c-5-1.5-6.2-2.2-7.6-4-1.9-2.5-1.9-4.5-0.1-10.5 0.8-2.5 1.5-4.6 1.6-4.8 0.1-0.1 2.3 0.5 4.9 1.3 5.1 1.6 6.3 2.2 7.7 4.1 1.9 2.4 1.9 4.6 0 10.7-0.7 2.5-1.5 4.5-1.6 4.6-0.2 0-2.3-0.6-4.9-1.4zm43.9-4.3c-1.5-4.5-1.6-5.1-1.5-6.5 0.2-2.6 1.6-4.9 3.7-6.1 1.1-0.6 9.9-3.8 10.1-3.6 0 0.1 0.8 2.4 1.7 5.1 1.9 5.7 2 6.9 0.7 9.4-1.2 2.4-2.4 3.2-7.7 5.1-2.6 0.8-4.9 1.6-5 1.6-0.2 0-1-2.3-2-5zm-29.5-1.4c-4.5-3.2-5.3-4-6.1-5.7s-0.9-4.5-0.1-6.2c0.6-1.2 5.7-8.7 6-8.7 0.1 0 2.1 1.3 4.3 2.8 4.4 3.1 5.5 4.3 6.1 6.5 0.4 1.6 0.2 4.1-0.6 5.5-0.7 1.3-5.5 8.5-5.8 8.4 0 0-1.8-1.2-3.8-2.6zm15.8-0.3c-4.6-6-4.8-6.5-4.8-9.2 0-1.8 0.5-3.4 1.5-4.7 0.3-0.5 2.3-2.1 4.4-3.7 2-1.5 3.9-2.9 4-3 0.4-0.3 5.9 6.9 6.7 8.7 0.8 1.9 0.8 4.3-0.2 6.3-0.9 1.8-1.2 2.1-5.6 5.4-1.8 1.3-3.4 2.6-3.6 2.7s-0.9-0.6-2.4-2.5zm-47.5-1.6c-6.6-1-8-1.5-10.2-3.5-1.6-1.6-2.8-4-3.1-6.2-0.1-1.2 0.1-3.4 0.8-8.1 0.8-6 0.9-6.5 1.4-6.5 1.4 0.1 12.8 1.9 13.9 2.2 3.2 1.2 5.9 4.8 6.4 8.6 0.1 0.9-0.9 9.4-1.6 13.5-0.2 1.1 0 1.1-7.6 0zm77.4-1.6c-0.2-0.7-0.7-3.8-1.3-6.8-0.8-4.9-0.9-5.5-0.6-7.1 0.6-3.5 3.2-6.8 6.2-7.9 1.4-0.6 14.2-3 14.2-2.8 0 0.1 0.4 3 1 6.3 1.3 7.3 1.3 9.1 0.1 11.8-1 2.1-2.8 4-4.8 4.9-1 0.5-3.2 1-7.3 1.7-3.2 0.6-6.2 1.1-6.6 1.2-0.6 0.1-0.7 0.1-0.9-1.3zm-109.8-4.8c-2.9-0.6-5.1-1.8-7.2-3.8-1.8-1.7-2.9-3.4-3.7-5.5-0.5-1.4-0.6-2.4-0.8-10.8-0.1-5.1-0.2-9.3 0-9.4 0.1-0.2 4.4-0.3 9.5-0.3 8.8 0 9.3 0 10.9 0.6 3.5 1.1 6.5 3.7 8.1 6.9 1.3 2.5 1.5 3.7 1.7 13.2l0.1 9h-2.9c-1.6 0-5.6 0-8.9 0.1h-6.8zm50-4.4c-6.7-3.4-8-4.3-9.4-7.3-0.8-1.6-0.8-2-0.8-4.3v-2.5l3-6.3c1.7-3.5 3.1-6.4 3.2-6.5 0.1 0 2.9 1.3 6.2 2.9 6.9 3.4 8.1 4.3 9.4 7.2 1 2.1 1.3 4.7 0.8 6.7-0.4 1.6-5.9 13-6.2 13-0.2 0-2.9-1.3-6.2-2.9zm-89.1 2.3c-3.9-0.9-7-2.7-9.7-5.5-2-2.1-3.5-4.6-4.2-7-0.2-0.8-1.2-5.9-2.2-11.3-0.9-5.4-1.8-10.35-1.9-10.95-0.2-0.7-0.3-1.2-0.2-1.3 0 0 5.2-0.9 11.5-2.03 13.1-2.3 14.3-2.38 18.4-1.08 5.7 1.81 10.4 6.51 12 12.06 0.6 1.7 4.4 23.2 4.2 23.4 0 0-5.2 1-11.4 2.1-11.8 2-13.5 2.2-16.5 1.6zm131.6-1.3c-3.8-7-5.8-11-6-12.5-0.6-3.1 0.6-6.8 2.9-9 0.8-0.8 3.2-2.2 7.1-4.3 3.3-1.8 6-3.15 6-3.05 0.3 0.25 6.2 11.55 6.4 12.25 0.8 2.7 0.6 5.4-0.8 8-1.5 2.8-2.3 3.4-11.1 8l-3.8 2zm38.4-5.5c0-5.8 0.1-7 0.5-8.8 1.5-5.6 5.4-10.4 10.8-12.9 3.1-1.5 4.9-1.65 12.1-1.95l6.3-0.1-0.1 7.35-0.1 7.6-0.8 2.1c-1.2 3.2-2.4 5-4.9 7.6-1.9 1.9-2.7 2.4-4.8 3.4-4 2-4.7 2.1-12.3 2.3l-6.7 0.1zm-61.3-0.7c-6.2-6.1-6.6-6.6-6.6-10.8 0-2.6 0.1-2.7 1.1-4.6 0.8-1.7 1.7-2.8 5.5-6.7l4.6-4.65 4.9 4.75c4.3 4.1 5.1 5 5.8 6.5 0.8 1.7 0.9 2 0.9 4.6 0 4.2-0.5 5-6.4 11.1l-4.7 4.8zm113.7 4c-2.4-0.2-22.5-3.1-22.6-3.3-0.3-0.3 3-23 3.5-24.75 1.6-4.5 5.3-8.43 9.6-10.39 2.1-1.06 5.3-1.83 7.4-1.83s23.8 2.86 24 3.2c0.6 0.3-2.9 22.67-3.4 24.57-2.6 7.7-10.8 13.1-18.5 12.5zm-153.3-12.1c-4.4-1.4-8.5-2.8-9.1-3.1-5.3-2.6-8.5-9-7.4-14.45 0.3-1.5 4.9-16.91 5.1-17.15 0.2-0.21 15.9 4.68 17.6 5.5 5 2.49 8.2 8.35 7.4 13.95-0.3 2.15-5.1 17.75-5.4 17.65-0.2 0-3.8-1.1-8.2-2.4zm77.7-7.1c-2.6-7.65-2.9-8.35-2.9-10.65-0.1-1.3 0-3 0.2-3.8 0.4-1.93 1.8-4.61 3.1-6.14 2.1-2.3 3.5-3.02 12.6-6.16l8.5-2.97 2.9 8.23c2.6 7.54 2.9 8.44 3 10.64 0.1 2.9-0.2 4.75-1.4 7.15-1 2.1-3.8 4.9-5.7 5.8-1 0.6-16.7 6.1-17.2 6.1-0.1 0-1.5-3.7-3.1-8.2zm-53-3.5c-7.7-5.35-8-5.65-9.4-7.65-2.8-4.04-3.2-9.65-1-13.94 0.5-1.06 9.4-14.02 10.1-14.84 0.4-0.34 14 9.34 15.6 11.03 2.9 3.1 4.2 7.62 3.4 11.75-0.5 2.7-1.2 4.1-4.2 8.4-1.3 1.85-3.5 4.85-4.8 6.75s-2.4 3.4-2.5 3.4-3.3-2.3-7.2-4.9zm26.8-2.5c-5.3-6.95-6.3-8.65-6.9-11.31-0.9-4.31 0.6-9.37 3.7-12.41 0.8-0.71 4.4-3.52 7.9-6.21l6.5-4.9 5.3 7.04c3 3.89 5.7 7.7 6 8.52 2.3 5.18 1.2 11.22-2.7 15.32-0.6 0.6-3.9 3.15-7.5 5.75-3.5 2.7-6.5 4.9-6.7 5.1-0.1 0.1-2.4-2.6-5.6-6.9zm-81.2-0.4c-5.5-0.8-10.7-1.55-11.7-1.85-7.5-1.8-13.2-8.64-13.7-16.41-0.1-2.07 0.1-4.13 1.4-13.58 0.9-6.13 1.7-11.27 1.7-11.4 0.2-0.24 18 2.09 22.5 2.91 6.1 1.11 11.5 5.93 13.7 12.22 1.2 3.55 1.2 5.74-0.6 18.5l-1.6 11.01h-0.9c-0.5 0-5.4-0.7-10.8-1.4zm136.2-1s-0.6-3.65-1.4-7.79c-1.3-7.23-1.3-7.75-1.2-11.04 0.2-3.99 0.7-6.48 2.2-9.76 3.3-6.88 8.9-11.82 16-14.02 1.8-0.58 16.6-3.39 16.9-3.2 0 0.13 2.6 14.63 2.6 16.43 0.3 2.43 0 6.53-1 9.23-2.7 8.55-9 14.9-17.5 17.4-1.8 0.6-15.2 3.05-16.3 3.05-0.2 0-0.3-0.1-0.3-0.3zm-106.6-18.45-10.7-5.3-2.1-2.19c-3.7-3.71-5.5-7.99-5.5-12.99 0-4.05 0.5-5.48 6.2-16.99 2.7-5.71 5.1-10.39 5.2-10.39 0.5 0 20.9 10.23 22 11 5.3 3.92 8.3 10.77 7.4 17.2-0.5 3.09-0.9 4.07-6.3 15.26-3.2 6.64-4.9 9.71-5.1 9.69-0.3 0-5.2-2.38-11.1-5.29zm71.5-5.69c-2.9-5.45-5.5-10.69-5.9-11.62-1.7-4.94-1.2-10.39 1.4-15.13 1.1-1.9 3.7-4.79 5.3-5.87 1.2-0.85 21.1-11.48 21.1-11.36 0.1 0 2.5 4.66 5.5 10.27 6.2 11.7 6.7 12.86 6.7 17.2 0 3.36-0.7 6.06-2.1 8.81-1.2 2.17-4 5.29-6 6.61-1.3 0.85-19.4 10.56-20.3 10.88-0.3 0.13-1.7-2.31-5.7-9.79zm-35.9-2.67c-4.6-4.5-8.7-8.58-9.1-9.08-4-5.48-4.7-13.25-1.5-19.5 1.1-2.25 3.2-4.6 11.8-13.44l6.2-6.35 2.2 2.04c1.2 1.11 5.3 5.04 9 8.73 5.6 5.48 6.9 6.99 7.6 8.33 3.2 6.17 3.1 12.73-0.2 18.39-1 1.72-4.1 5.08-13.8 15.11l-3.8 3.89z"
       id="path2"
       style="fill:#fcb900;fill-opacity:1;stroke:#e6e6e6;stroke-width:1.5;stroke-dasharray:none" /></g></svg>
