<svg width="120mm" height="120mm" version="1.1" viewBox="0 0 120 120" xml:space="preserve" xmlns="http://www.w3.org/2000/svg"><g transform="translate(120 260)"><path d="m-65.7-155c-13.4-2-26-10-33.4-21.4-5.36-8-7.46-17.8-6.96-27.4 0.2-9.3 3.2-18.8 8.86-26.3-1.6 4.7-4.16 9.5-4.86 14.6-3.5 17.3 3.76 36.4 18.2 46.7 15.4 11.5 37.9 11.7 53.7 1 5-3.1 8.8-7.6 12.7-11.9-0.2 4.3-4.2 7.8-7.1 10.8-8.4 7.6-18.9 14.3-30.7 14.2-3.4 0.1-6.9 0.1-10.4-0.3zm4.3-6.6c-18.1-2-34.9-15.5-39-33.5-4.6-16.7 2.86-35.8 17.7-45 7-4.4 15.3-7 23.7-6.4 8.8-0.4 16.9 3.9 24.7 7.6 10.5 5.9 18 16.8 20.1 28.7 1 8.2 0 16.7-3.3 24.3-4.6 12-15.6 21.1-28.1 23.5-5.2 1.2-10.6 1.4-15.8 0.8zm6.2-2.9c8.4-1.3 16.6-4.3 23-10 7.3-6.2 12.1-15.2 13.2-24.7 1.1-7.5 0.1-15.5-2.9-22.6-3.4-6.9-8.4-13.3-15-17.3-5-3-10.5-5.2-16.4-5.1-14.7-0.8-29.2 7.1-37.1 19.4-4.4 6.6-6.4 14.7-5.9 22.7 0.3 13.9 7.8 28.2 20.4 34.6 6.4 3.1 13.7 3.8 20.7 3zm28.6-20.7c6.1-13.2 4.6-30.1-5.3-41.2-9.6-10.9-25.9-14.6-39.5-9.7-5.9 1.9-10.9 5.8-15.3 10.1-1.5 0.4 2.43-3.7 3.53-5 8.4-9.7 22.3-13.2 34.6-10.7 9.6 1.5 18.2 7.6 23 16 6.6 10.4 7.8 24.2 2.1 35.3-0.9 1.6-1.8 4.3-3.1 5.2z" fill="#fff" stroke-width=".265"/></g></svg>
