<svg viewBox="0 0 450.7 79.39" height="79.39mm" width="450.7mm" xmlns="http://www.w3.org/2000/svg"><path d="M26.45 276.4c-2.91 18.8 20.45 35.4 37.05 25.2" style="opacity:1;fill:#fcb900;fill-opacity:1;stroke:#e6e6e6;stroke-width:1.0648;stroke-linecap:butt;stroke-linejoin:round;stroke-miterlimit:4;stroke-dasharray:none;stroke-dashoffset:0;stroke-opacity:1;paint-order:normal" transform="translate(161.2 -256.4)"/><path d="M100.5 276.5c2.9 18.8-20.41 35.4-37.01 25.2" style="opacity:1;fill:#fcb900;fill-opacity:1;stroke:#e6e6e6;stroke-width:1.065;stroke-linecap:butt;stroke-linejoin:round;stroke-miterlimit:4;stroke-dasharray:none;stroke-dashoffset:0;stroke-opacity:1;paint-order:normal" transform="translate(161.2 -256.4)"/><g style="fill:#fcb900;stroke:#e6e6e6;stroke-opacity:1;fill-opacity:1"><path d="M62.1 86.82c17.18 8.14 17.84 36.78.1 44.78" style="opacity:1;fill:#fcb900;fill-opacity:1;stroke:#e6e6e6;stroke-width:1.0648;stroke-linecap:butt;stroke-linejoin:round;stroke-miterlimit:4;stroke-dasharray:none;stroke-dashoffset:0;stroke-opacity:1;paint-order:normal" transform="rotate(41.06 258.84 305.43)"/><path d="M62.26 86.82c-17.18 8.14-17.85 36.78-.08 44.78" style="opacity:1;fill:#fcb900;fill-opacity:1;stroke:#e6e6e6;stroke-width:1.0648;stroke-linecap:butt;stroke-linejoin:round;stroke-miterlimit:4;stroke-dasharray:none;stroke-dashoffset:0;stroke-opacity:1;paint-order:normal" transform="rotate(41.06 258.84 305.43)"/></g><g style="fill:#fcb900;stroke:#e6e6e6;stroke-opacity:1;fill-opacity:1"><path d="M62.1 86.82c17.18 8.14 17.84 36.78.1 44.78" style="opacity:1;fill:#fcb900;fill-opacity:1;stroke:#e6e6e6;stroke-width:1.0648;stroke-linecap:butt;stroke-linejoin:round;stroke-miterlimit:4;stroke-dasharray:none;stroke-dashoffset:0;stroke-opacity:1;paint-order:normal" transform="scale(-1 1) rotate(41.063 34.008 -294.94)"/><path d="M62.26 86.82c-17.18 8.14-17.85 36.78-.08 44.78" style="opacity:1;fill:#fcb900;fill-opacity:1;stroke:#e6e6e6;stroke-width:1.0648;stroke-linecap:butt;stroke-linejoin:round;stroke-miterlimit:4;stroke-dasharray:none;stroke-dashoffset:0;stroke-opacity:1;paint-order:normal" transform="scale(-1 1) rotate(41.063 34.008 -294.94)"/></g><g style="fill:#fcb900;stroke:#e6e6e6;stroke-opacity:1;fill-opacity:1"><path d="M62.1 86.82c17.18 8.14 17.84 36.78.1 44.78" style="opacity:1;fill:#fcb900;fill-opacity:1;stroke:#e6e6e6;stroke-width:1.0648;stroke-linecap:butt;stroke-linejoin:round;stroke-miterlimit:4;stroke-dasharray:none;stroke-dashoffset:0;stroke-opacity:1;paint-order:normal" transform="translate(162.52 -86.4)"/><path d="M62.26 86.82c-17.18 8.14-17.85 36.78-.08 44.78" style="opacity:1;fill:#fcb900;fill-opacity:1;stroke:#e6e6e6;stroke-width:1.0648;stroke-linecap:butt;stroke-linejoin:round;stroke-miterlimit:4;stroke-dasharray:none;stroke-dashoffset:0;stroke-opacity:1;paint-order:normal" transform="translate(162.52 -86.4)"/></g><path d="M-136.5 308.5h400M41 314.5h45M33.5 320.4h60M46 326.4h35" style="fill:#e6e6e6;stroke:#000;stroke-width:1.065;stroke-linecap:butt;stroke-linejoin:miter;stroke-miterlimit:4;stroke-dasharray:none;stroke-opacity:1;fill-opacity:1" transform="translate(161.2 -256.4)"/><g style="stroke-width:3.4428"><path d="M2.777-22.73c17.233 8.25 17.793 36.7.08 44.82" style="opacity:1;fill:#000;fill-opacity:1;stroke:none;stroke-width:3.666;stroke-linecap:butt;stroke-linejoin:round;stroke-miterlimit:4;stroke-dasharray:none;stroke-dashoffset:0;stroke-opacity:1;paint-order:normal" transform="matrix(0 .2205 -.3826 0 442.1 51.5)"/><path d="M2.933-22.73c-17.233 8.25-17.793 36.7-.078 44.82" style="opacity:1;fill:#000;fill-opacity:1;stroke:none;stroke-width:3.666;stroke-linecap:butt;stroke-linejoin:round;stroke-miterlimit:4;stroke-dasharray:none;stroke-dashoffset:0;stroke-opacity:1;paint-order:normal" transform="matrix(0 .2205 -.3826 0 442.1 51.5)"/></g><path d="M269 308.5h1M265.9 308.5h2" style="fill:none;stroke:#000;stroke-width:1.065;stroke-linecap:butt;stroke-linejoin:miter;stroke-miterlimit:4;stroke-dasharray:none;stroke-opacity:1" transform="translate(161.2 -256.4)"/><g style="stroke-width:4.0205"><path d="M2.777-22.73c17.233 8.25 17.793 36.7.08 44.82" style="opacity:1;fill:#000;fill-opacity:1;stroke:none;stroke-width:4.2812;stroke-linecap:butt;stroke-linejoin:round;stroke-miterlimit:4;stroke-dasharray:none;stroke-dashoffset:0;stroke-opacity:1;paint-order:normal" transform="matrix(-.1897 -.0622 .201 -.2602 438.7 46.4)"/><path d="M2.933-22.73c-17.233 8.25-17.793 36.7-.078 44.82" style="opacity:1;fill:#000;fill-opacity:1;stroke:none;stroke-width:4.2812;stroke-linecap:butt;stroke-linejoin:round;stroke-miterlimit:4;stroke-dasharray:none;stroke-dashoffset:0;stroke-opacity:1;paint-order:normal" transform="matrix(-.1897 -.0622 .201 -.2602 438.7 46.4)"/></g><g style="stroke-width:4.0205"><path d="M2.777-22.73c17.233 8.25 17.793 36.7.08 44.82" style="opacity:1;fill:#000;fill-opacity:1;stroke:none;stroke-width:4.2812;stroke-linecap:butt;stroke-linejoin:round;stroke-miterlimit:4;stroke-dasharray:none;stroke-dashoffset:0;stroke-opacity:1;paint-order:normal" transform="matrix(.1897 -.0622 -.201 -.2602 437.5 58)"/><path d="M2.933-22.73c-17.233 8.25-17.793 36.7-.078 44.82" style="opacity:1;fill:#000;fill-opacity:1;stroke:none;stroke-width:4.2812;stroke-linecap:butt;stroke-linejoin:round;stroke-miterlimit:4;stroke-dasharray:none;stroke-dashoffset:0;stroke-opacity:1;paint-order:normal" transform="matrix(.1897 -.0622 -.201 -.2602 437.5 58)"/></g><g style="stroke-width:3.4428"><path d="M2.777-22.73c17.233 8.25 17.793 36.7.08 44.82" style="opacity:1;fill:#000;fill-opacity:1;stroke:none;stroke-width:3.666;stroke-linecap:butt;stroke-linejoin:round;stroke-miterlimit:4;stroke-dasharray:none;stroke-dashoffset:0;stroke-opacity:1;paint-order:normal" transform="matrix(0 .2205 .3826 0 8.7 51.5)"/><path d="M2.933-22.73c-17.233 8.25-17.793 36.7-.078 44.82" style="opacity:1;fill:#000;fill-opacity:1;stroke:none;stroke-width:3.666;stroke-linecap:butt;stroke-linejoin:round;stroke-miterlimit:4;stroke-dasharray:none;stroke-dashoffset:0;stroke-opacity:1;paint-order:normal" transform="matrix(0 .2205 .3826 0 8.7 51.5)"/></g><path d="M-140.7 308.5h-1M-137.5 308.5h-2" style="fill:none;stroke:#000;stroke-width:1.065;stroke-linecap:butt;stroke-linejoin:miter;stroke-miterlimit:4;stroke-dasharray:none;stroke-opacity:1" transform="translate(161.2 -256.4)"/><g style="stroke-width:4.0205"><path d="M2.777-22.73c17.233 8.25 17.793 36.7.08 44.82" style="opacity:1;fill:#000;fill-opacity:1;stroke:none;stroke-width:4.2812;stroke-linecap:butt;stroke-linejoin:round;stroke-miterlimit:4;stroke-dasharray:none;stroke-dashoffset:0;stroke-opacity:1;paint-order:normal" transform="matrix(.1897 -.0622 -.201 -.2602 12.1 46.4)"/><path d="M2.933-22.73c-17.233 8.25-17.793 36.7-.078 44.82" style="opacity:1;fill:#000;fill-opacity:1;stroke:none;stroke-width:4.2812;stroke-linecap:butt;stroke-linejoin:round;stroke-miterlimit:4;stroke-dasharray:none;stroke-dashoffset:0;stroke-opacity:1;paint-order:normal" transform="matrix(.1897 -.0622 -.201 -.2602 12.1 46.4)"/></g><g style="stroke-width:4.0205"><path d="M2.777-22.73c17.233 8.25 17.793 36.7.08 44.82" style="opacity:1;fill:#000;fill-opacity:1;stroke:none;stroke-width:4.2812;stroke-linecap:butt;stroke-linejoin:round;stroke-miterlimit:4;stroke-dasharray:none;stroke-dashoffset:0;stroke-opacity:1;paint-order:normal" transform="matrix(-.1897 -.0622 .201 -.2602 13.3 58)"/><path d="M2.933-22.73c-17.233 8.25-17.793 36.7-.078 44.82" style="opacity:1;fill:#000;fill-opacity:1;stroke:none;stroke-width:4.2812;stroke-linecap:butt;stroke-linejoin:round;stroke-miterlimit:4;stroke-dasharray:none;stroke-dashoffset:0;stroke-opacity:1;paint-order:normal" transform="matrix(-.1897 -.0622 .201 -.2602 13.3 58)"/></g></svg>