<?xml version="1.0" encoding="UTF-8" standalone="no"?>
<!-- Created with Inkscape (http://www.inkscape.org/) -->

<svg
   width="140mm"
   height="140mm"
   viewBox="0 0 140 140"
   version="1.1"
   id="svg5"
   xml:space="preserve"
   inkscape:version="1.2.1 (9c6d41e410, 2022-07-14)"
   sodipodi:docname="sun.svg"
   xmlns:inkscape="http://www.inkscape.org/namespaces/inkscape"
   xmlns:sodipodi="http://sodipodi.sourceforge.net/DTD/sodipodi-0.dtd"
   xmlns="http://www.w3.org/2000/svg"
   xmlns:svg="http://www.w3.org/2000/svg"><sodipodi:namedview
     id="namedview7"
     pagecolor="#505050"
     bordercolor="#eeeeee"
     borderopacity="1"
     inkscape:showpageshadow="0"
     inkscape:pageopacity="0"
     inkscape:pagecheckerboard="0"
     inkscape:deskcolor="#505050"
     inkscape:document-units="mm"
     showgrid="false"
     inkscape:zoom="0.2973"
     inkscape:cx="-738.2"
     inkscape:cy="681.1"
     inkscape:window-width="1620"
     inkscape:window-height="1058"
     inkscape:window-x="-6"
     inkscape:window-y="-6"
     inkscape:window-maximized="1"
     inkscape:current-layer="layer1" /><defs
     id="defs2" /><g
     inkscape:label="Layer 1"
     inkscape:groupmode="layer"
     id="layer1"
     transform="translate(141.5,288.3)"><path
       style="fill:#ffffff;stroke-width:0.264557"
       d="m -66.76,-168.5 c 2.2,-4.4 -1.9,-8.5 -2.4,-12.8 -1.6,-3.4 -1.9,-8.6 3.6,-7.6 4.4,2 1.9,7.9 1.2,11.4 1.3,3 0.7,8.5 -2.4,9 z m 18.3,-3 c -5.4,-2 0.3,-9.4 -4.9,-12.5 -3.9,-2 -4.6,-9.5 1.2,-7 4.4,3.4 5.4,9.5 3.9,14.5 -1.2,1.6 4,7 -0.2,5 z m -37.92,-6.9 c 3.1,-3.3 5.3,-7.1 2.5,-11.4 -1.5,-7 10.02,-2.4 5.5,2.8 -0.1,5.1 -2.9,8.9 -8,8.6 z m 26.72,-0.4 c -2.5,-3.4 5.2,-2.4 1.5,0.4 -0.5,0.4 -1.2,0.1 -1.5,-0.4 z m 24.9,-4.1 c -6.8,0 -1.7,-8.5 -6.7,-9.9 -6.6,0.7 -3.2,-9.4 1.8,-6.7 4.4,1.5 6,6.2 5.4,10.5 -1.3,3.1 2.9,5 3.5,6.4 -1.4,0 -2.7,0 -4,-0.3 z m -57.72,-4.8 c -1.8,-4.3 5.6,-2.5 1.8,0.5 -0.6,0.2 -1.4,0.1 -1.8,-0.5 z m -11.42,-1.7 c -0.2,-5.3 5.92,-7.3 6.32,-12.1 -0.5,-6.1 7.6,-5.9 8.2,-0.4 -2.1,3.9 -5.4,7.7 -9.9,8.6 -2.02,-0.5 -4.52,6.6 -4.62,3.9 z m 30.24,-5.5 c -6.12,-1.3 -9.82,-6.6 -13.22,-11.4 -4.3,-7.3 -1.7,-16.2 1.4,-23.4 2.7,-5.3 8.6,-7.7 13.92,-9.6 5.5,-0.7 11.4,-0.1 16.6,2.4 5.1,3.7 10,8.4 12.1,14.4 0,5.2 -0.3,10.4 -1.2,15.5 -2.4,6 -8,10.5 -14.1,12.8 2.2,-2.3 6.4,-4.5 8.7,-7.5 4.3,-5.2 3.6,-12.6 2.9,-19 -0.9,-6.5 -6.7,-10.7 -11.9,-14.2 -4.8,-2.1 -10.7,-2.5 -15.62,-0.5 -4.9,2.2 -8.7,6.6 -10.1,11.9 -1.4,4.6 -1.2,9.9 -0.7,14.8 2.7,6.2 9.7,9.5 16.22,9.7 5,-0.4 10.9,-1.5 13.7,-6.2 2.7,-3.9 1.4,-8.9 1.8,-13.3 0,-4.5 -4.9,-7 -8,-9.5 -4.8,-2.6 -12.4,0.1 -13.82,5.8 -1,4.9 1.52,9.9 6.22,11.7 4.4,1.6 9.8,-2.7 8.3,-7.4 -0.8,-1.8 -7.5,-3.1 -2.3,-3.3 5.5,-0.3 7.2,6.6 4.8,10.5 -2.7,4.2 -8,6.3 -12.7,4.5 -5.82,-2 -10.12,-8 -9.82,-14.1 0.3,-9.3 10.52,-17.1 19.32,-13.4 6.1,2.6 10.3,8.8 11.5,15.2 0.6,6.4 -0.3,13.8 -5.3,18.1 -4.8,3 -10,5.9 -15.6,6.1 -1.1,-0.1 -2.1,-0.3 -3.1,-0.6 z m -10.62,-10.3 c -0.6,0.3 0.3,1.2 0,0 z m 7.6,-7.9 c -0.4,-0.3 0.2,1.1 0,0 z m 1.8,-1.8 c -1,0.3 -0.6,1.2 0,0 z m 38.02,11.4 c -6.8,-0.4 -2,-11 2.3,-5.8 0.8,3 8,1.7 6.9,3.6 -3,1.1 -5.9,3 -9.2,2.2 z m -69.74,-4.1 c -1.6,-7.1 6.1,1 0,0 z m 74.64,-5.9 c -1.4,-4.5 4.4,0.8 0,0 z m -65.82,-3.5 c -5.52,-1.4 -12.02,-0.2 -16.42,-4.7 -4.4,-3.9 4,0.5 6,0.6 4.4,0.6 8.32,-3.1 12.62,-2.1 2.9,1.4 2.1,8.9 -2.2,6.2 z m 60.62,-1.6 c -4,-4.3 1.9,-6.1 5.6,-5.6 2,-1.2 4.2,-3.2 2.8,0.5 -0.4,3 -6,5.8 -8.4,5.1 z m -4.6,-11.6 c -3.4,-1.8 -3.6,-5.2 0.5,-5.9 5.7,-1.1 5.4,-7.8 10.2,-9.9 3.7,-3.5 -0.8,4.2 -0.6,5.7 -0.3,4.8 -3.7,8.4 -8.1,9.8 -0.7,0.3 -1.3,0.5 -2,0.3 z m -50.52,-0.9 c -4.4,-1.3 -9.22,-3.4 -10.02,-8.6 -0.6,-2.1 -4,-8.3 -0.7,-3.6 2.7,3.5 6.22,6.6 10.72,7.5 4.5,-0.4 5.5,4.6 1.3,5.3 l -0.6,-0.3 z m 42.32,-7.5 c -5.9,-1.6 -2.3,-8.8 2.6,-8.9 4.1,-0.4 7,-3.6 8.8,-7 0.2,5 -2,9.7 -6.4,12.3 -1.4,1.4 -2.6,4.3 -5,3.6 z m -42.32,-2.4 c -1.8,-4.3 5.4,-0.4 0.5,0.5 z m 11.3,-0.3 c -2.7,-3.8 -5.2,-8.6 -3.7,-13.3 0.8,-2.6 -2.9,-7.4 -1.8,-8.1 5.4,1.6 4.3,7.6 6.9,11.1 4.1,2 7.92,7.7 1.9,10 -0.9,1 -2.4,1.4 -3.3,0.3 z m 17.62,-3.4 c -5.3,-1.2 -4.2,-7.7 -1.1,-10.5 2.2,-4.7 7.3,-7.7 8,-13 2.2,0.8 1.2,7.5 -0.6,10 -2.9,4 0.5,10.1 -2.9,13.6 -1.1,0.4 -2.3,0.1 -3.4,-0.1 z m 11.5,-6.7 c -2.5,-3.5 5,-4.3 2.5,-0.3 -0.5,0.6 -1.8,1.1 -2.5,0.3 z m -22.32,-4.8 c -1.8,-6.3 6.82,0.9 0,0 z"
       id="path929" /></g></svg>
