<svg width="16.5mm" height="16.5mm" version="1.1" viewBox="0 0 16.5 16.5" xml:space="preserve" xmlns="http://www.w3.org/2000/svg"><g transform="translate(32.1 145)"><path d="m-23.9-144a7.91 7.91 0 0 0-7.91 7.8 7.91 7.91 0 0 0 7.91 8 7.91 7.91 0 0 0 7.91-8 7.91 7.91 0 0 0-7.91-7.8zm3.21 4.6c0.11 0 0.16 0 0.24 0.1 0.13 0.1 0.13 0.1 0.11 0.6 0 0.3-0.1 0.7-0.11 1 0 0.2-0.11 0.8-0.18 1.2-0.16 1.1-0.55 3.5-0.63 3.8 0 0.1-0.1 0.2-0.18 0.3-0.12 0.2-0.18 0.2-0.36 0.2-0.12 0-0.3-0.1-0.37-0.1-0.1 0-0.51-0.3-0.92-0.7-0.41-0.2-0.92-0.5-1.12-0.6-0.19-0.2-0.43-0.3-0.52-0.4-0.25-0.1-0.48-0.3-0.48-0.5s0.18-0.4 0.54-0.7c0.39-0.4 2.28-2.2 2.28-2.3 0 0 0-0.1-0.1-0.1-0.1-0.1-0.23 0-1.44 0.8-0.41 0.3-0.77 0.5-0.79 0.5l-0.1 0.1c-0.1 0-1.21 0.8-1.49 1-0.47 0.2-0.83 0.2-2-0.2-0.68-0.2-0.84-0.4-0.51-0.8h0.19c0.11-0.1 3.56-1.6 3.95-1.7 0.13-0.1 0.38-0.2 0.56-0.3 2.09-0.8 2.9-1.2 3.26-1.2h0.13z" fill-rule="evenodd" stroke="#000" stroke-linecap="round" stroke-linejoin="round" stroke-width=".18"/></g></svg>
